<svg xmlns="http://www.w3.org/2000/svg" viewBox="0 0 24 24"><g fill="currentColor" fill-rule="nonzero"><path d="M19 3a2 2 0 0 1 2 2v14a2 2 0 0 1-2 2H5a2 2 0 0 1-2-2V5a2 2 0 0 1 2-2zm0 1.5H5a.5.5 0 0 0-.492.41L4.5 5v14a.5.5 0 0 0 .41.492L5 19.5h14a.5.5 0 0 0 .492-.41L19.5 19V5a.5.5 0 0 0-.41-.492z"/><path d="M9.886 7.6a.75.75 0 0 1 1.288.03l.047.102 2.51 6.567 1.627-2.687a.75.75 0 0 1 .531-.354L16 11.25h4a.75.75 0 0 1 .102 1.493L20 12.75h-3.578l-2.202 3.638a.75.75 0 0 1-1.294-.017l-.048-.103-2.523-6.6-1.72 2.732a.75.75 0 0 1-.526.342L8 12.75H4a.75.75 0 0 1-.102-1.493L4 11.25h3.586z"/></g></svg>