<svg xmlns="http://www.w3.org/2000/svg" xml:space="preserve" viewBox="0 0 24 24"><path fill="currentColor" d="M19 3a2 2 0 0 1 2 2v14a2 2 0 0 1-2 2H5a2 2 0 0 1-2-2V5a2 2 0 0 1 2-2zm0 1.5H5a.5.5 0 0 0-.492.41L4.5 5v14a.5.5 0 0 0 .41.492L5 19.5h14a.5.5 0 0 0 .492-.41L19.5 19V5a.5.5 0 0 0-.41-.492zM11.75 10h.5a1 1 0 0 1 1 1v5a1 1 0 0 1-1 1h-.5a1 1 0 0 1-1-1v-5a1 1 0 0 1 1-1m4-3h.5a1 1 0 0 1 1 1v8a1 1 0 0 1-1 1h-.5a1 1 0 0 1-1-1V8a1 1 0 0 1 1-1m-8 6h.5a1 1 0 0 1 1 1v2a1 1 0 0 1-1 1h-.5a1 1 0 0 1-1-1v-2a1 1 0 0 1 1-1"/></svg>