<svg xmlns="http://www.w3.org/2000/svg" fill="none" viewBox="0 0 24 24"><path fill="currentColor" fill-rule="evenodd" d="M4.926 5.464a.026.026 0 0 0-.026.027v4.656c0 .015.012.027.026.027h4.657a.026.026 0 0 0 .026-.027V5.491a.026.026 0 0 0-.026-.027zM3.4 5.491c0-.843.683-1.527 1.526-1.527h4.657c.843 0 1.526.684 1.526 1.527v4.656c0 .843-.683 1.527-1.526 1.527H4.926A1.526 1.526 0 0 1 3.4 10.147zM16.878 4.508a.026.026 0 0 0-.037 0L13.548 7.8a.026.026 0 0 0 0 .036l3.293 3.293c.01.01.027.01.037 0l3.293-3.293a.026.026 0 0 0 0-.036zM15.78 3.447a1.526 1.526 0 0 1 2.159 0l3.293 3.293a1.526 1.526 0 0 1 0 2.158l-3.293 3.293a1.526 1.526 0 0 1-2.158 0l-3.293-3.293a1.526 1.526 0 0 1 0-2.158zM14.531 14.778a.026.026 0 0 0-.026.026v4.657c0 .014.012.026.026.026h4.657a.026.026 0 0 0 .026-.026v-4.657a.026.026 0 0 0-.026-.026zm-1.526.026c0-.843.683-1.526 1.526-1.526h4.657c.843 0 1.526.683 1.526 1.526v4.657c0 .843-.683 1.526-1.526 1.526h-4.657a1.526 1.526 0 0 1-1.526-1.526zM4.926 14.778a.026.026 0 0 0-.026.026v4.657c0 .014.012.026.026.026h4.657a.026.026 0 0 0 .026-.026v-4.657a.026.026 0 0 0-.026-.026zm-1.526.026c0-.843.683-1.526 1.526-1.526h4.657c.843 0 1.526.683 1.526 1.526v4.657c0 .843-.683 1.526-1.526 1.526H4.926A1.526 1.526 0 0 1 3.4 19.461z" clip-rule="evenodd"/></svg>