<svg xmlns="http://www.w3.org/2000/svg" viewBox="0 0 24 24"><g fill="none" fill-rule="evenodd"><path d="M3 3h18v18H3z"/><g stroke-linecap="round" stroke-linejoin="round"><path d="M3 3h18v18H3z"/><path fill="currentColor" fill-rule="nonzero" d="M12 3.75a8.25 8.25 0 1 0 0 16.5 8.25 8.25 0 0 0 0-16.5m0 1.5a6.75 6.75 0 1 1 0 13.5 6.75 6.75 0 0 1 0-13.5"/><path fill="currentColor" fill-rule="nonzero" d="M11.47 8.47a.75.75 0 0 1 1.133.976l-.073.084-3 3a.75.75 0 0 1-1.133-.976l.073-.084z"/><path fill="currentColor" fill-rule="nonzero" d="M12 8.25a.75.75 0 0 1 .743.648L12.75 9v6a.75.75 0 0 1-1.493.102L11.25 15V9a.75.75 0 0 1 .75-.75"/><path fill="currentColor" fill-rule="nonzero" d="M11.47 8.47a.75.75 0 0 1 .976-.073l.084.073 3 3a.75.75 0 0 1-.976 1.133l-.084-.073-3-3a.75.75 0 0 1 0-1.06"/></g></g></svg>