<svg xmlns="http://www.w3.org/2000/svg" viewBox="0 0 24 24"><g fill="none" fill-rule="evenodd"><path d="M2 2h20v20H2z"/><path fill="currentColor" fill-rule="nonzero" d="M12.002 2.083a4.095 4.095 0 0 1 4.076 3.88l.005.204v.915l2.584.001a.75.75 0 0 1 .724.557l.02.1 1.432 11.46a2.417 2.417 0 0 1-2.398 2.717H5.555A2.417 2.417 0 0 1 3.157 19.2L4.589 7.74a.75.75 0 0 1 .744-.657h2.583v-.919a4.095 4.095 0 0 1 4.086-4.08m6.002 6.5h-1.921v1.75a.75.75 0 0 1-1.493.102l-.007-.102v-1.75H9.416v1.75a.75.75 0 0 1-1.492.102l-.007-.102-.001-1.75H5.995l-1.35 10.803a.92.92 0 0 0 .154.632l.069.089c.174.197.424.31.687.31h12.89a.917.917 0 0 0 .91-1.03zm-6.002-5a2.594 2.594 0 0 0-2.58 2.42l-.005.164-.001.915h5.167V6.17a2.593 2.593 0 0 0-2.58-2.586"/></g></svg>