<svg xmlns="http://www.w3.org/2000/svg" viewBox="0 0 24 24"><path fill="currentColor" d="M14.337 5.549A2.42 2.42 0 0 0 12 3.75l-.159.005A2.42 2.42 0 0 0 9.663 5.55l-.032.136-.078.044a6.58 6.58 0 0 0-3.302 5.403v1.154a.749.749 0 0 0 1.497.002l.002-1.121.016-.23a5.08 5.08 0 0 1 2.888-4.092l.058-.03.08-.055.03-.025.07-.068.035-.042.01-.017.015-.018.029-.045.043-.086.033-.093.02-.098.004-.036.008-.172a.917.917 0 0 1 1.828.107l.007.107a.75.75 0 0 0 .422.57c.1.048.22.03.298-.048l.833-.833a.148.148 0 0 0-.03-.234l-.079-.044z"/><path fill="currentColor" fill-rule="evenodd" d="M7.644 16.917 6.03 18.53a.75.75 0 0 1-1.06-1.06l12-12a.75.75 0 1 1 1.06 1.06l-1.333 1.334c.578.895.94 1.934 1.036 3.04l.017.263-.005 2.41a2.58 2.58 0 0 0 1.291 1.937c.64.363.424 1.311-.267 1.396l-.102.007H15.25V17a3.25 3.25 0 0 1-6.495.184L8.75 17v-.083zm7.963-7.963c.38.677.606 1.444.644 2.248l-.001 2.465.035.24c.081.476.235.92.452 1.32l.108.189h-7.7zm-1.857 7.963h-3.5V17a1.75 1.75 0 0 0 3.494.143L13.75 17z" clip-rule="evenodd"/></svg>