<svg xmlns="http://www.w3.org/2000/svg" viewBox="0 0 24 24"><g fill="currentColor" fill-rule="evenodd"><path d="M17.831 13.912c-.097-.391-.413-.724-.816-.724h-.045a.686.686 0 0 0-.685.72c.08.475.235.919.452 1.32l.108.188H7.16l.102-.17a4.1 4.1 0 0 0 .483-1.49l.005-2.59.016-.229a5.08 5.08 0 0 1 2.888-4.092l.058-.03.08-.055.03-.025.07-.068.035-.042.01-.017.015-.018.029-.045.043-.086.033-.093.02-.098.004-.036.008-.172a.917.917 0 0 1 1.828.107l.007.107c.023.157.216.155.303.022.242-.37.537-.704.874-.988a.195.195 0 0 0 .054-.236A2.42 2.42 0 0 0 12 3.75l-.159.005A2.42 2.42 0 0 0 9.663 5.55l-.032.136-.078.044a6.58 6.58 0 0 0-3.302 5.403l-.001 2.535-.028.167c-.14.666-.6 1.307-1.258 1.68-.67.38-.401 1.403.37 1.403H8.75V17l.005.184A3.25 3.25 0 0 0 15.25 17v-.083h3.417l.102-.007c.69-.085.907-1.033.267-1.396a2.5 2.5 0 0 1-1.205-1.602m-4.081 3.005h-3.5V17a1.75 1.75 0 0 0 3.494.143L13.75 17z" clip-rule="evenodd"/><path d="M16.275 6.35a.725.725 0 0 1 1.45 0v1.675H19.4a.725.725 0 0 1 0 1.45h-1.675v1.675a.725.725 0 0 1-1.45 0V9.475H14.6a.725.725 0 0 1 0-1.45h1.675z"/></g></svg>