<svg xmlns="http://www.w3.org/2000/svg" viewBox="0 0 24 24"><g fill="none" fill-rule="evenodd"><path d="M3 3h18v18H3z"/><g stroke-linecap="round" stroke-linejoin="round"><path d="M2 2h20v20H2z"/><path fill="currentColor" fill-rule="nonzero" d="M12 3.75c1.121 0 2.064.763 2.337 1.799l.031.136.08.044a6.6 6.6 0 0 1 3.285 5.175l.017.263-.005 2.41a2.58 2.58 0 0 0 1.291 1.937c.64.363.424 1.311-.267 1.396l-.102.007H5.333c-.77 0-1.04-1.023-.37-1.403.66-.373 1.119-1.014 1.259-1.68l.028-.167v-2.535a6.58 6.58 0 0 1 3.303-5.403l.078-.044.032-.136a2.42 2.42 0 0 1 2.178-1.794zm0 1.5a.917.917 0 0 0-.91.81l-.01.172-.004.036-.02.098-.032.093-.043.086-.029.045-.015.018-.01.017-.034.042-.07.068-.031.025-.08.054-.058.03a5.08 5.08 0 0 0-2.888 4.093l-.016.23-.005 2.59a4.1 4.1 0 0 1-.483 1.489l-.102.17h9.685l-.108-.188a4.3 4.3 0 0 1-.452-1.32l-.035-.241v-2.465a5.08 5.08 0 0 0-2.904-4.357.75.75 0 0 1-.422-.571l-.007-.107A.917.917 0 0 0 12 5.25"/><path fill="currentColor" fill-rule="nonzero" d="M14.5 15.417a.75.75 0 0 1 .743.648l.007.102V17a3.25 3.25 0 0 1-6.495.184L8.75 17v-.833a.75.75 0 0 1 1.493-.102l.007.102V17a1.75 1.75 0 0 0 3.494.144L13.75 17v-.833a.75.75 0 0 1 .75-.75"/></g></g></svg>