<svg xmlns="http://www.w3.org/2000/svg" fill="none" viewBox="0 0 22 22"><path fill="currentColor" fill-rule="evenodd" d="M10.709 2.358a.67.67 0 0 1 .582 0l4.02 1.942a.67.67 0 0 1 .378.603v4.783l3.64 1.76a.67.67 0 0 1 .379.602v5.049a.67.67 0 0 1-.378.603l-4.007 1.936a.66.66 0 0 1-.608 0l-3.78-1.826-3.643 1.821a.67.67 0 0 1-.623 0l-4.007-2.003a.67.67 0 0 1-.37-.6v-5.224a.67.67 0 0 1 .37-.6L6.311 9.38V4.903a.67.67 0 0 1 .378-.603zm.29 1.347 3.252 1.571-3.231 1.616h-.04L7.749 5.276zm-.669 4.36-2.68-1.34V9.38l2.68 1.34zm1.34 2.76 2.68-1.294V6.725l-2.68 1.34zm-1.34 1.488L6.826 10.62 3.63 12.219v.154l3.33 1.665H7l3.329-1.665zm8.038 4.363-2.68 1.295V15.21l2.68-1.34zm-3.349-2.64h.02l3.231-1.615-3.251-1.57-3.251 1.57 3.231 1.616h.02m-.67 3.935V15.21l-2.68-1.34v2.806zm-4.019-1.356V13.87l-2.68 1.34v2.744zM6.31 15.21v2.744l-2.679-1.34V13.87z" clip-rule="evenodd"/></svg>