<svg xmlns="http://www.w3.org/2000/svg" viewBox="0 0 24 24"><g fill="none" fill-rule="evenodd"><path d="M2 2h20v20H2z"/><path fill="currentColor" fill-rule="nonzero" stroke-linecap="square" d="M20.97 2.943a.75.75 0 0 1 .947.724v14.166a.75.75 0 0 1-.553.724l-9.167 2.5a.75.75 0 0 1-.394 0l-9.167-2.5a.75.75 0 0 1-.553-.724V3.667a.75.75 0 0 1 .948-.724l8.968 2.446Zm-.554 1.705L12.197 6.89a.75.75 0 0 1-.394 0l-8.22-2.242V17.26L12 19.556l8.417-2.295zm-14.15 9.858.1.02 3.333.918A.75.75 0 0 1 9.4 16.91l-.1-.02-3.333-.917a.75.75 0 0 1 .298-1.467m12.29.545a.75.75 0 0 1-.427.889l-.097.033-3.333.917a.75.75 0 0 1-.494-1.413l.096-.033 3.333-.917a.75.75 0 0 1 .922.524M6.248 10.838l.1.018 3.334.833a.75.75 0 0 1-.264 1.473l-.1-.018-3.333-.833a.75.75 0 0 1 .263-1.473m12.313.563a.75.75 0 0 1-.449.879l-.097.03-3.333.834a.75.75 0 0 1-.461-1.424l.097-.03 3.333-.834a.75.75 0 0 1 .91.545M6.266 7.256l.1.02 3.333.918A.75.75 0 0 1 9.4 9.66l-.1-.02-3.333-.917a.75.75 0 0 1 .298-1.467m12.29.545a.75.75 0 0 1-.427.889l-.097.033-3.333.917a.75.75 0 0 1-.494-1.413l.096-.033 3.333-.917a.75.75 0 0 1 .922.524"/></g></svg>