<svg xmlns="http://www.w3.org/2000/svg" fill="none" viewBox="0 0 24 24"><path fill="currentColor" fill-rule="evenodd" d="M2.47 2.47a.75.75 0 0 1 1.06 0l18 18a.75.75 0 1 1-1.06 1.06l-18-18a.75.75 0 0 1 0-1.06" clip-rule="evenodd"/><path fill="currentColor" fill-rule="evenodd" d="M9 4.756c-.183 0-.357.04-.515.11a.75.75 0 0 1-.614-1.368A2.75 2.75 0 0 1 9 3.256h6a2.75 2.75 0 0 1 2.75 2.75v7a.75.75 0 0 1-1.5 0v-7A1.25 1.25 0 0 0 15 4.756zM7 6.25a.75.75 0 0 1 .75.75v11.675l3.864-2.318a.75.75 0 0 1 .772 0l3.864 2.318V17a.75.75 0 0 1 1.5 0v3a.75.75 0 0 1-1.136.643L12 17.875l-4.614 2.768A.75.75 0 0 1 6.25 20V7A.75.75 0 0 1 7 6.25" clip-rule="evenodd"/></svg>