<svg xmlns="http://www.w3.org/2000/svg" fill="none" viewBox="0 0 24 24"><path fill="currentColor" fill-rule="evenodd" d="M7.884 3.424a.75.75 0 0 1 .48-.174h7.272a.75.75 0 0 1 .48.174l4.36 3.632a.75.75 0 0 1 .274.58v2.614a.75.75 0 0 1-1.5 0V8.386h-4.318v4.341a.75.75 0 0 1-.75.75H9.818a.75.75 0 0 1-.75-.75v-4.34H4.75V19.25h8.5a.75.75 0 0 1 0 1.5H4a.75.75 0 0 1-.75-.75V7.636a.75.75 0 0 1 .275-.58zm2.684 4.962v3.591h2.864v-3.59zm2.506-1.5h-2.148l.854-2.136h.44zm1.616 0h3.239L15.365 4.75h-1.53zM10.165 4.75 9.31 6.886H6.072L8.635 4.75zM21.286 13.606a.813.813 0 0 1 1.17 0" clip-rule="evenodd"/></svg>