<svg xmlns="http://www.w3.org/2000/svg" fill="none" viewBox="0 0 24 24"><path fill="currentColor" fill-rule="evenodd" d="M8.364 3.25a.75.75 0 0 0-.48.174l-4.36 3.632a.76.76 0 0 0-.274.58V20c0 .414.336.75.75.75h10.25a.75.75 0 0 0 0-1.5h-9.5V8.386h4.318v4.341c0 .415.336.75.75.75h4.364a.75.75 0 0 0 .75-.75v-4.34h4.318v2.863a.75.75 0 0 0 1.5 0V7.636a.75.75 0 0 0-.274-.58l-4.36-3.632a.75.75 0 0 0-.48-.174zm2.204 8.727v-3.59h2.864v3.59zm.358-5.09h2.148l-.855-2.137h-.439zm7.002 0H14.69l-.855-2.137h1.53zm-8.618 0 .855-2.137h-1.53L6.072 6.886z" clip-rule="evenodd"/><path fill="currentColor" fill-rule="evenodd" d="M15 16.033a3.033 3.033 0 1 1 5.616 1.593l1.579 1.579a.7.7 0 0 1-.903 1.064l-.087-.074-1.58-1.58A3.033 3.033 0 0 1 15 16.034m4.667 0a1.633 1.633 0 1 0-3.267 0 1.633 1.633 0 0 0 3.267 0" clip-rule="evenodd"/></svg>