<svg xmlns="http://www.w3.org/2000/svg" fill="none" viewBox="0 0 24 24"><path fill="currentColor" fill-rule="evenodd" d="M3.75 4.833a2.75 2.75 0 0 1 2.75-2.75h11.833a2.75 2.75 0 0 1 2.75 2.75v14.334a2.75 2.75 0 0 1-2.75 2.75H6.5a2.75 2.75 0 0 1-2.75-2.75zm2.75-1.25c-.69 0-1.25.56-1.25 1.25v14.334c0 .69.56 1.25 1.25 1.25h11.833c.69 0 1.25-.56 1.25-1.25V4.833c0-.69-.56-1.25-1.25-1.25zM7.083 7.5c0-.69.56-1.25 1.25-1.25H16.5c.69 0 1.25.56 1.25 1.25v2.333c0 .69-.56 1.25-1.25 1.25H8.333c-.69 0-1.25-.56-1.25-1.25zm1.5.25v1.833h7.667V7.75zm-1.5 5.917a.75.75 0 0 1 .75-.75h.834a.75.75 0 0 1 0 1.5h-.834a.75.75 0 0 1-.75-.75m4.167 0a.75.75 0 0 1 .75-.75h.833a.75.75 0 0 1 0 1.5H12a.75.75 0 0 1-.75-.75m4.167 0a.75.75 0 0 1 .75-.75H17a.75.75 0 0 1 0 1.5h-.833a.75.75 0 0 1-.75-.75M7.083 17a.75.75 0 0 1 .75-.75h.834a.75.75 0 0 1 0 1.5h-.834a.75.75 0 0 1-.75-.75m4.167 0a.75.75 0 0 1 .75-.75h.833a.75.75 0 0 1 0 1.5H12a.75.75 0 0 1-.75-.75m4.167 0a.75.75 0 0 1 .75-.75H17a.75.75 0 0 1 0 1.5h-.833a.75.75 0 0 1-.75-.75" clip-rule="evenodd"/></svg>