<svg xmlns="http://www.w3.org/2000/svg" viewBox="0 0 24 24"><g fill="none" fill-rule="evenodd"><path d="M2 2h20v20H2z"/><path fill="currentColor" fill-rule="nonzero" stroke-linecap="round" stroke-linejoin="round" d="M15.333 2.967a.7.7 0 0 1 .694.605l.006.095v.966h1.8c1.253 0 2.278.973 2.362 2.205L20.2 7v11.667a2.367 2.367 0 0 1-2.367 2.366H6.167A2.367 2.367 0 0 1 3.8 18.667V7a2.367 2.367 0 0 1 2.367-2.367h1.799v-.966a.7.7 0 0 1 1.394-.095l.007.095-.001.966h5.267v-.966a.7.7 0 0 1 .7-.7m3.466 8.066h-13.6l.001 7.634c0 .495.373.904.854.96l.113.006h11.666a.967.967 0 0 0 .967-.966zm-10.833-5h-1.8A.967.967 0 0 0 5.2 7l-.001 2.633h13.6L18.8 7a.967.967 0 0 0-.854-.96l-.113-.007h-1.8V7a.7.7 0 0 1-1.393.095L14.633 7v-.967H9.366V7a.7.7 0 0 1-1.393.095L7.967 7z"/></g></svg>