<svg xmlns="http://www.w3.org/2000/svg" viewBox="0 0 24 24"><g fill="none" fill-rule="evenodd"><path fill="none" d="M0 0h24v24H0z"/><path d="M3 3h18v18H3z"/><g fill="currentColor" fill-rule="nonzero" stroke-linecap="square"><path d="M19.5 15a.75.75 0 0 1 .102 1.493l-.102.007h-9a.75.75 0 0 1-.102-1.493L10.5 15z"/><path d="M15.97 12.22a.75.75 0 0 1 .976-.073l.084.073 3 3a.75.75 0 0 1 .073.976l-.073.084-3 3a.75.75 0 0 1-1.133-.976l.073-.084 2.469-2.47-2.47-2.47a.75.75 0 0 1-.072-.976z"/><path d="M19.25 5.25a1.75 1.75 0 0 1 1.744 1.606L21 7v5a.75.75 0 0 1-1.493.102L19.5 12V7a.25.25 0 0 0-.193-.243l-.057-.007H4.75a.25.25 0 0 0-.243.193L4.5 7v11.5a.25.25 0 0 0 .193.243l.057.007h6.75a.75.75 0 0 1 .102 1.493l-.102.007H4.75a1.75 1.75 0 0 1-1.744-1.606L3 18.5V7a1.75 1.75 0 0 1 1.606-1.744l.144-.006z"/><path d="M8.25 3a.75.75 0 0 1 .743.648L9 3.75V6a.75.75 0 0 1-1.493.102L7.5 6V3.75A.75.75 0 0 1 8.25 3M15.75 3a.75.75 0 0 1 .743.648l.007.102V6a.75.75 0 0 1-1.493.102L15 6V3.75a.75.75 0 0 1 .75-.75M20.25 9.25v1.5H3.75v-1.5z"/></g></g></svg>