<svg xmlns="http://www.w3.org/2000/svg" fill="none" viewBox="0 0 24 24"><path fill="currentColor" d="M19.754 9.527h-.852l-3.728-5.1c-.342-.47-.985-.568-1.42-.215a1.09 1.09 0 0 0-.208 1.471l2.8 3.844H7.642l2.782-3.824c.34-.471.246-1.138-.208-1.472a.99.99 0 0 0-.755-.202.98.98 0 0 0-.665.418l-3.728 5.1h-.833c-.814 0-1.4.784-1.192 1.607l2.063 7.904c.151.55.625.942 1.192.942H17.71c.549 0 1.041-.392 1.193-.942l2.062-7.904c.19-.843-.396-1.627-1.21-1.627m-10.656 7.06a.69.69 0 0 1-.68.707.67.67 0 0 1-.485-.209.7.7 0 0 1-.197-.498V12.9a.69.69 0 0 1 .681-.706.69.69 0 0 1 .681.706zm3.577 0a.69.69 0 0 1-.681.707.67.67 0 0 1-.485-.209.7.7 0 0 1-.196-.498V12.9a.69.69 0 0 1 .68-.706.69.69 0 0 1 .682.706zm3.558 0a.69.69 0 0 1-.68.707.67.67 0 0 1-.485-.208.7.7 0 0 1-.197-.499V12.9a.69.69 0 0 1 .68-.706.69.69 0 0 1 .682.706v3.688"/></svg>