<svg xmlns="http://www.w3.org/2000/svg" viewBox="0 0 23 20"><path fill="currentColor" d="M21.407 6.909h-1.088L15.555.535c-.436-.588-1.258-.711-1.814-.27a1.34 1.34 0 0 0-.266 1.839l3.579 4.805H5.93l3.555-4.78c.435-.589.314-1.423-.266-1.84a1.27 1.27 0 0 0-1.814.27L2.641 6.933H1.577c-1.04 0-1.789.981-1.523 2.01l2.636 9.88C2.883 19.51 3.488 20 4.213 20h14.582c.701 0 1.33-.49 1.524-1.177l2.635-9.88c.242-1.054-.507-2.034-1.547-2.034M7.792 15.734c0 .49-.387.883-.87.883a.873.873 0 0 1-.87-.883v-4.609c0-.49.386-.882.87-.882.483 0 .87.392.87.882zm4.57 0c0 .49-.386.883-.87.883a.873.873 0 0 1-.87-.883v-4.609c0-.49.386-.882.87-.882s.87.392.87.882zm4.547 0c0 .49-.387.883-.87.883a.873.873 0 0 1-.871-.883v-4.609c0-.49.387-.882.87-.882.484 0 .87.392.87.882v4.61z"/></svg>