<svg xmlns="http://www.w3.org/2000/svg" fill="none" viewBox="0 0 24 24"><path fill="currentColor" fill-rule="evenodd" d="M11.645 3.212a.75.75 0 0 0-.744 0l-4.918 2.81H4a.75.75 0 0 0-.75.75v10.183c0 .414.336.75.75.75h8a.75.75 0 0 0 0-1.5H4.75V7.523h13.046V9a3.66 3.66 0 0 0-3.636 5.781v4.355a.75.75 0 0 0 .986.712l1.945-.648 1.945.648a.75.75 0 0 0 .987-.712v-4.355c.457-.61.727-1.369.727-2.19a3.65 3.65 0 0 0-1.454-2.92V6.772a.75.75 0 0 0-.75-.75h-1.983zm6.504 7.496.044.026a2.158 2.158 0 0 1-1.102 4.016 2.159 2.159 0 1 1 1.058-4.042m.374 5.251c-.44.187-.924.291-1.432.291s-.992-.104-1.432-.29v2.136l1.195-.398a.75.75 0 0 1 .474 0l1.195.398zm-4.984-9.936-2.266-1.296-2.267 1.296z" clip-rule="evenodd"/><path fill="currentColor" d="M6.16 10.41a.75.75 0 0 1 .75-.75H12a.75.75 0 0 1 0 1.5H6.91a.75.75 0 0 1-.75-.75M6.91 12.568a.75.75 0 0 0 0 1.5h2.908a.75.75 0 1 0 0-1.5z"/></svg>