<svg xmlns="http://www.w3.org/2000/svg" viewBox="0 0 24 24"><g fill="none" fill-rule="evenodd"><path d="M3 3h18v18H3z"/><g fill="currentColor" fill-rule="nonzero" stroke-linecap="square"><path d="M12.75 9.75v3.379l-3.455 2.55-.89-1.207 2.845-2.102V9.75z"/><path d="m12.445 12.147 3.15 2.325-.89 1.206-3.15-2.325zM12 3a3.75 3.75 0 1 0 0 7.5A3.75 3.75 0 0 0 12 3m0 1.5A2.25 2.25 0 1 1 12 9a2.25 2.25 0 0 1 0-4.5M6.75 13.5a3.75 3.75 0 1 0 0 7.5 3.75 3.75 0 0 0 0-7.5m0 1.5a2.25 2.25 0 1 1 0 4.5 2.25 2.25 0 0 1 0-4.5"/><path d="M17.25 13.5a3.75 3.75 0 1 0 0 7.5 3.75 3.75 0 0 0 0-7.5m0 1.5a2.25 2.25 0 1 1 0 4.5 2.25 2.25 0 0 1 0-4.5"/></g></g></svg>