<svg xmlns="http://www.w3.org/2000/svg" fill="none" viewBox="0 0 24 24"><path fill="currentColor" fill-rule="evenodd" d="M15.34 12a.75.75 0 0 1 .75-.75H21a.75.75 0 0 1 0 1.5h-4.91a.75.75 0 0 1-.75-.75M12 2.25a.75.75 0 0 1 .75.75v4.91a.75.75 0 0 1-1.5 0V3a.75.75 0 0 1 .75-.75M9.521 14.27a.75.75 0 0 1-.037 1.06l-3.6 3.355a.75.75 0 0 1-1.023-1.097l3.6-3.355a.75.75 0 0 1 1.06.037" clip-rule="evenodd"/><path fill="currentColor" fill-rule="evenodd" d="M12 3.75a8.25 8.25 0 1 0 0 16.5 8.25 8.25 0 0 0 0-16.5M2.25 12c0-5.385 4.365-9.75 9.75-9.75s9.75 4.365 9.75 9.75-4.365 9.75-9.75 9.75S2.25 17.385 2.25 12" clip-rule="evenodd"/><path fill="currentColor" fill-rule="evenodd" d="M12 8.66a3.341 3.341 0 1 0 0 6.681 3.341 3.341 0 0 0 0-6.682M7.16 12a4.84 4.84 0 1 1 9.68 0 4.84 4.84 0 0 1-9.68 0" clip-rule="evenodd"/></svg>