<svg xmlns="http://www.w3.org/2000/svg" fill="none" viewBox="0 0 24 24"><path fill="currentColor" d="M14.182 3.25a.75.75 0 0 0 0 1.5h1.826L12 8.758l-2.379-2.38a.75.75 0 0 0-1.06 0l-3.637 3.637a.75.75 0 0 0 1.06 1.06L9.092 7.97l2.379 2.379a.75.75 0 0 0 1.06 0l4.538-4.538v1.825a.75.75 0 0 0 1.5 0V4a.747.747 0 0 0-.75-.75z"/><path fill="currentColor" fill-rule="evenodd" d="M17.09 9.795a.75.75 0 0 0-.75.75V20c0 .414.337.75.75.75H20a.75.75 0 0 0 .75-.75v-9.455a.75.75 0 0 0-.75-.75zm.75 9.455v-7.955h1.41v7.955zM9.795 13.455a.75.75 0 0 1 .75-.75h2.91a.75.75 0 0 1 .75.75V20a.75.75 0 0 1-.75.75h-2.91a.75.75 0 0 1-.75-.75zm1.5.75v5.045h1.41v-5.045zM3.25 16.364a.75.75 0 0 1 .75-.75h2.91a.75.75 0 0 1 .75.75V20a.75.75 0 0 1-.75.75H4a.75.75 0 0 1-.75-.75zm1.5.75v2.136h1.41v-2.136z" clip-rule="evenodd"/></svg>