<svg xmlns="http://www.w3.org/2000/svg" viewBox="0 0 24 24"><path fill="currentColor" fill-rule="nonzero" d="M20.25 5.915c.426 0 .777.319.828.73l.007.105V15c0 1.236-.96 2.247-2.175 2.33l-.16.005h-.665V19.5a.835.835 0 0 1-1.204.75l-.094-.055-4.29-2.86H12a.835.835 0 0 1-.828-.73l-.007-.105c0-.426.319-.777.73-.828l.105-.007h.75q.188 0 .356.08l.107.06 3.202 2.135V16.5c0-.426.319-.777.73-.828l.105-.007h1.5c.334 0 .61-.246.658-.567l.007-.098V6.75c0-.461.374-.835.835-.835m-4.5-2.25A2.335 2.335 0 0 1 18.085 6v6a2.335 2.335 0 0 1-2.335 2.335h-3.483l-5.032 3.594a.835.835 0 0 1-1.313-.569l-.007-.11v-2.915H5.25a2.335 2.335 0 0 1-2.33-2.175L2.915 12V6A2.335 2.335 0 0 1 5.25 3.665Zm0 1.67H5.25A.665.665 0 0 0 4.585 6v6c0 .367.298.665.665.665h1.5c.461 0 .835.374.835.835v2.126l3.93-2.805a.84.84 0 0 1 .381-.15l.104-.006h3.75a.665.665 0 0 0 .665-.665V6a.665.665 0 0 0-.665-.665"/></svg>