<svg xmlns="http://www.w3.org/2000/svg" fill="none" viewBox="0 0 24 24"><path fill="currentColor" fill-rule="evenodd" d="M14.082 2.349a.75.75 0 0 1 1.024.279l2.589 4.531H21a.75.75 0 0 1 .75.75v3.273a.75.75 0 0 1-.75.75H5.386v7.5h5.796a.75.75 0 0 1 0 1.5H4.636a.75.75 0 0 1-.75-.75v-8.25H3a.75.75 0 0 1-.75-.75V7.909A.75.75 0 0 1 3 7.16h3.306l2.588-4.531a.75.75 0 0 1 1.303.744L8.033 7.16h7.934l-2.164-3.787a.75.75 0 0 1 .28-1.023M3.75 8.659h16.5v1.773H3.75z" clip-rule="evenodd"/><path fill="currentColor" fill-rule="evenodd" d="M18.477 14.455a.75.75 0 0 0-1.5 0v.664a2.7 2.7 0 0 0-.564.234l-.47-.47a.75.75 0 1 0-1.06 1.06l.47.47a2.7 2.7 0 0 0-.234.564h-.664a.75.75 0 0 0 0 1.5h.664a2.7 2.7 0 0 0 .233.564l-.47.47a.75.75 0 0 0 1.06 1.061l.471-.47q.266.148.564.234V21a.75.75 0 0 0 1.5 0v-.664q.298-.086.564-.234l.47.47a.75.75 0 0 0 1.061-1.06l-.47-.47q.148-.266.234-.565H21a.75.75 0 0 0 0-1.5h-.664a2.7 2.7 0 0 0-.234-.564l.47-.47a.75.75 0 1 0-1.06-1.06l-.47.47a2.7 2.7 0 0 0-.565-.234zm-1.608 2.414-.008.008a1.2 1.2 0 0 0-.347.847v.006c0 .33.133.63.347.848l.008.007.008.008c.218.215.517.347.847.348h.007c.327-.001.623-.131.841-.342l.013-.014.014-.013a1.2 1.2 0 0 0 .342-.845v-.005a1.2 1.2 0 0 0-.342-.84l-.014-.013-.013-.013a1.21 1.21 0 0 0-1.695.006z" clip-rule="evenodd"/></svg>