<svg xmlns="http://www.w3.org/2000/svg" fill="none" viewBox="0 0 20 20"><path fill="currentColor" fill-rule="evenodd" stroke="currentColor" stroke-linecap="round" stroke-width=".3" d="M8.635 3.133a7 7 0 0 1 2.73 0 .636.636 0 1 1-.247 1.249 5.8 5.8 0 0 0-2.236 0 .636.636 0 1 1-.247-1.249Zm4.372 1.221a.636.636 0 0 1 .883-.175 7 7 0 0 1 1.93 1.931.636.636 0 0 1-1.057.708 5.8 5.8 0 0 0-1.581-1.581.636.636 0 0 1-.175-.883Zm-6.014 0a.636.636 0 0 1-.175.883 5.8 5.8 0 0 0-1.581 1.581.636.636 0 0 1-1.058-.708A7 7 0 0 1 6.11 4.18a.636.636 0 0 1 .883.174Zm-3.112 3.78a.636.636 0 0 1 .5.748 5.8 5.8 0 0 0 0 2.236.636.636 0 1 1-1.248.247 7 7 0 0 1 0-2.73.636.636 0 0 1 .748-.501Zm12.238 0a.636.636 0 0 1 .748.5 7 7 0 0 1 0 2.731.636.636 0 1 1-1.249-.247 5.8 5.8 0 0 0 0-2.236.636.636 0 0 1 .501-.748ZM4.354 13.007a.636.636 0 0 1 .883.175 5.8 5.8 0 0 0 1.581 1.581.636.636 0 0 1-.708 1.058 7 7 0 0 1-1.93-1.931.636.636 0 0 1 .174-.883Zm11.292 0c.292.196.37.59.175.883a7 7 0 0 1-1.931 1.93.637.637 0 0 1-.708-1.057 5.8 5.8 0 0 0 1.581-1.581.636.636 0 0 1 .883-.175Zm-7.512 3.112a.636.636 0 0 1 .748-.5 5.8 5.8 0 0 0 2.236 0 .636.636 0 1 1 .247 1.248 7 7 0 0 1-2.73 0 .636.636 0 0 1-.501-.748Z" clip-rule="evenodd"/></svg>