<svg xmlns="http://www.w3.org/2000/svg" viewBox="0 0 24 24"><g fill="none" fill-rule="evenodd"><path d="M3 3h18v18H3z"/><g stroke-linecap="round" stroke-linejoin="round"><path d="M3 3h18v18H3z"/><path fill="currentColor" fill-rule="nonzero" d="M8.037 17.245c-2.257-.107-4.065-1.903-4.065-4.12 0-2.078 1.589-3.787 3.647-4.08l.063-.009.032-.085c.488-1.232 1.536-2.213 2.877-2.685l.226-.074c1.658-.502 3.487-.17 4.809.88 1.055.839 1.664 2.037 1.705 3.29l.001.14.103.003a3.375 3.375 0 0 1 3.185 3.185l.005.185a3.375 3.375 0 0 1-3.19 3.37l-.185.005h-9zm6.656-8.998c-.933-.74-2.25-.98-3.442-.62-1.173.356-2.032 1.232-2.27 2.287a.75.75 0 0 1-.731.586c-1.542 0-2.778 1.183-2.778 2.625 0 1.387 1.143 2.534 2.602 2.62l.175.005h9.001c.986 0 1.795-.761 1.87-1.728l.005-.147c0-.986-.761-1.795-1.728-1.87L17.25 12h-.75a.75.75 0 0 1-.732-.914c.234-1.04-.17-2.12-1.075-2.839"/></g></g></svg>