<svg xmlns="http://www.w3.org/2000/svg" fill="none" viewBox="0 0 24 24"><path fill="currentColor" d="M19.5 5.75c0-.69-.56-1.25-1.25-1.25H5.75c-.69 0-1.25.56-1.25 1.25v12.5c0 .69.56 1.25 1.25 1.25h12.5c.69 0 1.25-.56 1.25-1.25zM9.72 8.47a.75.75 0 1 1 1.06 1.06l-2.293 2.293a.25.25 0 0 0 0 .354l2.293 2.293a.75.75 0 1 1-1.06 1.06l-2.293-2.293a1.75 1.75 0 0 1 0-2.474zm3.5 0a.75.75 0 0 1 1.06 0l2.293 2.293a1.75 1.75 0 0 1 0 2.474L14.28 15.53a.75.75 0 1 1-1.06-1.06l2.293-2.293a.25.25 0 0 0 0-.354L13.22 9.53a.75.75 0 0 1 0-1.06M21 18.25A2.75 2.75 0 0 1 18.25 21H5.75A2.75 2.75 0 0 1 3 18.25V5.75A2.75 2.75 0 0 1 5.75 3h12.5A2.75 2.75 0 0 1 21 5.75z"/></svg>