<svg xmlns="http://www.w3.org/2000/svg" viewBox="0 0 24 24"><g fill="none" fill-rule="evenodd"><path d="M3 3h18v18H3z"/><g fill="currentColor" fill-rule="nonzero" stroke-linecap="square"><path d="M10.5 3a.75.75 0 0 1 .743.648l.007.102v2.5a.75.75 0 0 1-1.493.102L9.75 6.25v-2.5A.75.75 0 0 1 10.5 3M6.75 3a.75.75 0 0 1 .743.648l.007.102v2.5a.75.75 0 0 1-1.493.102L6 6.25v-2.5A.75.75 0 0 1 6.75 3M14.25 3a.75.75 0 0 1 .743.648L15 3.75v2.5a.75.75 0 0 1-1.493.102L13.5 6.25v-2.5a.75.75 0 0 1 .75-.75M16.5 8.5h-12a.75.75 0 0 0-.75.75v7.5C3.75 18.573 5.463 20 7.5 20h6c2.037 0 3.75-1.427 3.75-3.25v-7.5a.75.75 0 0 0-.75-.75M5.25 10h10.5v6.75c0 .927-.987 1.75-2.25 1.75h-6l-.17-.005c-1.18-.07-2.08-.86-2.08-1.745z"/><path d="M18.25 8.5H16.5a.75.75 0 0 0-.75.75v4.5c0 .414.336.75.75.75h1.75a3 3 0 0 0 0-6m-1 4.5v-3h1a1.5 1.5 0 0 1 0 3z"/></g></g></svg>