<svg xmlns="http://www.w3.org/2000/svg" viewBox="0 0 24 24"><title>column-settings</title><g fill="currentColor" fill-rule="nonzero"><path d="M17.837 12.833c.345 0 .625.28.625.625v.36a2.43 2.43 0 0 1 1.097.632l.311-.179a.625.625 0 0 1 .625 1.083l-.311.179a2.43 2.43 0 0 1 0 1.267l.311.18a.625.625 0 0 1-.625 1.082l-.311-.18a2.43 2.43 0 0 1-1.097.633v.36a.625.625 0 0 1-1.25 0v-.36a2.43 2.43 0 0 1-1.096-.634l-.311.181a.625.625 0 0 1-.625-1.082l.311-.18a2.43 2.43 0 0 1 0-1.267l-.311-.18a.625.625 0 0 1 .625-1.082l.311.18c.299-.3.675-.522 1.096-.634v-.359c0-.345.28-.625.625-.625m0 2.153a1.18 1.18 0 1 0 0 2.361 1.18 1.18 0 0 0 0-2.361"/><path d="M18.25 10.542V7.625c0-.575-.466-1.042-1.042-1.042h-4.583v11.459c0 .345-.28.625-.625.625H6.792A2.29 2.29 0 0 1 4.5 16.375v-8.75a2.29 2.29 0 0 1 2.292-2.292h10.416A2.29 2.29 0 0 1 19.5 7.625v2.917a.625.625 0 1 1-1.25 0m-12.5 5.833c0 .575.466 1.042 1.042 1.042h4.583V6.583H6.792c-.576 0-1.042.467-1.042 1.042z"/></g></svg>