<svg xmlns="http://www.w3.org/2000/svg" viewBox="0 0 24 24"><path fill="currentColor" fill-rule="nonzero" d="M12 1.25a2.75 2.75 0 0 1 .75 5.396v1.68a3.75 3.75 0 0 1 2.068 1.2l1.512-.865a2.75 2.75 0 1 1 .745 1.303l-1.512.865a3.75 3.75 0 0 1 0 2.342l1.512.865a2.75 2.75 0 1 1-.745 1.302l-1.512-.864a3.75 3.75 0 0 1-2.067 1.2v1.68a2.751 2.751 0 1 1-1.5 0v-1.679a3.75 3.75 0 0 1-2.07-1.201l-1.511.864q.079.319.08.662a2.75 2.75 0 1 1-.825-1.964l1.512-.864a3.75 3.75 0 0 1 0-2.343l-1.512-.865A2.75 2.75 0 1 1 7.67 8.66l1.513.864a3.75 3.75 0 0 1 2.067-1.2V6.647A2.751 2.751 0 0 1 12 1.25m0 17.5a1.25 1.25 0 1 0 0 2.5 1.25 1.25 0 0 0 0-2.5m7-4a1.25 1.25 0 1 0 0 2.5 1.25 1.25 0 0 0 0-2.5m-14 0a1.25 1.25 0 1 0 0 2.5 1.25 1.25 0 0 0 0-2.5m7-5a2.25 2.25 0 1 0 0 4.5 2.25 2.25 0 0 0 0-4.5m7-3a1.25 1.25 0 1 0 0 2.5 1.25 1.25 0 0 0 0-2.5m-14 0a1.25 1.25 0 1 0 0 2.5 1.25 1.25 0 0 0 0-2.5m7-4a1.25 1.25 0 1 0 0 2.5 1.25 1.25 0 0 0 0-2.5"/></svg>