<svg xmlns="http://www.w3.org/2000/svg" fill="none" viewBox="0 0 24 24"><path fill="currentColor" fill-rule="evenodd" d="M11.614 5.135a.75.75 0 0 1 .772 0l3.889 2.333a.75.75 0 0 1 .364.643v.778a.75.75 0 0 1-.75.75h-.028V12a.75.75 0 0 1-1.5 0V9.639H12.75V12a.75.75 0 0 1-1.5 0V9.639H9.639V12a.75.75 0 0 1-1.5 0V9.639H8.11a.75.75 0 0 1-.75-.75V8.11a.75.75 0 0 1 .364-.643zm2.863 3.004L12 6.652 9.523 8.14z" clip-rule="evenodd"/><path fill="currentColor" d="M7.361 14.333a.75.75 0 0 1 .75-.75h7.778a.75.75 0 0 1 0 1.5H8.11a.75.75 0 0 1-.75-.75M8.111 16.695a.75.75 0 1 0 0 1.5H12a.75.75 0 0 0 0-1.5z"/><path fill="currentColor" fill-rule="evenodd" d="M4.25 3.444a.75.75 0 0 1 .75-.75h14a.75.75 0 0 1 .75.75v17.112a.75.75 0 0 1-.75.75H5a.75.75 0 0 1-.75-.75zm1.5.75v15.612h12.5V4.194z" clip-rule="evenodd"/></svg>