<svg xmlns="http://www.w3.org/2000/svg" viewBox="0 0 24 24"><path fill="currentColor" fill-rule="nonzero" d="M21.167 13.667a.833.833 0 0 1 .104 1.66l-.104.006H6.512l4.41 4.411a.834.834 0 0 1 .075 1.093l-.074.086a.834.834 0 0 1-1.094.074l-.085-.074-5.833-5.834c-.499-.498-.188-1.334.48-1.416l.109-.006zM14.17 3.003l.085.074 5.833 5.834c.499.498.188 1.334-.48 1.416l-.109.006H2.833a.833.833 0 0 1-.104-1.66l.104-.006 14.654-.001-4.41-4.41a.834.834 0 0 1-.074-1.093l.074-.086a.834.834 0 0 1 1.094-.074"/></svg>