<svg xmlns="http://www.w3.org/2000/svg" viewBox="0 0 24 24"><g fill="currentColor" fill-rule="nonzero"><path d="M9.333 8H5.4A2.4 2.4 0 0 0 3 10.4v8.2A2.4 2.4 0 0 0 5.4 21h8.2a2.4 2.4 0 0 0 2.4-2.4v-3.717h-5.59l-1.363-.6zm5.267 7.25v3.35a1 1 0 0 1-1 1H5.4a1 1 0 0 1-1-1v-8.2a1 1 0 0 1 1-1h2.73q.332 0 .222 4.883l1.334 1.127 2.76.296z"/><path d="M18.6 3h-8.2A2.4 2.4 0 0 0 8 5.4v8.2a2.4 2.4 0 0 0 2.4 2.4h8.2a2.4 2.4 0 0 0 2.4-2.4V5.4A2.4 2.4 0 0 0 18.6 3m0 1.4a1 1 0 0 1 1 1v8.2a1 1 0 0 1-1 1h-8.2a1 1 0 0 1-1-1V5.4a1 1 0 0 1 1-1z"/></g></svg>