<svg xmlns="http://www.w3.org/2000/svg" viewBox="0 0 24 24"><g fill="none" fill-rule="evenodd"><path d="M2 2h20v20H2z"/><path fill="currentColor" fill-rule="nonzero" stroke-linecap="square" d="M12 2.133c5.45 0 9.867 4.418 9.867 9.867S17.449 21.867 12 21.867 2.133 17.449 2.133 12 6.551 2.133 12 2.133m0 1.4a8.467 8.467 0 1 0 0 16.934 8.467 8.467 0 0 0 0-16.934m-4.167 3.31 3.063 3.063a2.367 2.367 0 1 1-.99.99L6.843 7.833zM12 11.033a.96.96 0 0 0-.625.23l-.112.112a.967.967 0 1 0 .737-.341m6.533.267v1.4H16.3v-1.4zM7.7 11.3v1.4H5.467v-1.4zm8.425-4.415.99.99-1.58 1.58-.99-.99zM12.7 5.467V7.7h-1.4V5.467z"/></g></svg>