<svg xmlns="http://www.w3.org/2000/svg" viewBox="0 0 24 24"><path fill="currentColor" fill-rule="nonzero" d="M10.5 18.75a.75.75 0 0 1 .102 1.493l-.102.007h-6a.75.75 0 0 1-.102-1.493l.102-.007zm9 0a.75.75 0 0 1 .102 1.493l-.102.007h-6a.75.75 0 0 1-.102-1.493l.102-.007zm-9-3a.75.75 0 0 1 .102 1.493l-.102.007h-6a.75.75 0 0 1-.102-1.493l.102-.007zm9 0a.75.75 0 0 1 .102 1.493l-.102.007h-6a.75.75 0 0 1-.102-1.493l.102-.007zm-9-3a.75.75 0 0 1 .102 1.493l-.102.007h-6a.75.75 0 0 1-.102-1.493l.102-.007zm9 0a.75.75 0 0 1 .102 1.493l-.102.007h-6a.75.75 0 0 1-.102-1.493l.102-.007zm-1-9a1.75 1.75 0 0 1 1.744 1.606l.006.144v4a1.75 1.75 0 0 1-1.606 1.744l-.144.006h-13a1.75 1.75 0 0 1-1.744-1.606L3.75 9.5v-4a1.75 1.75 0 0 1 1.606-1.744L5.5 3.75zm0 1.5h-13a.25.25 0 0 0-.243.193L5.25 5.5v4a.25.25 0 0 0 .193.243l.057.007h13a.25.25 0 0 0 .243-.193l.007-.057v-4a.25.25 0 0 0-.193-.243zm-8 1.5a.75.75 0 0 1 .102 1.493l-.102.007h-3a.75.75 0 0 1-.102-1.493L7.5 6.75zm6 0a.75.75 0 0 1 .102 1.493l-.102.007h-3a.75.75 0 0 1-.102-1.493l.102-.007z"/></svg>