<svg xmlns="http://www.w3.org/2000/svg" viewBox="0 0 24 24"><g fill="none" fill-rule="evenodd"><path d="M3 3h18v18H3z"/><g fill="currentColor" stroke-linecap="square" transform="translate(6 2.75)"><path fill-rule="nonzero" d="M9.75.25h-7.5c-1.138 0-2 1.035-2 2.25V16c0 1.215.862 2.25 2 2.25h7.5c1.138 0 2-1.035 2-2.25V2.5c0-1.215-.862-2.25-2-2.25m-7.5 1.5h7.5c.243 0 .5.309.5.75V16c0 .441-.257.75-.5.75h-7.5c-.243 0-.5-.309-.5-.75V2.5c0-.441.257-.75.5-.75"/><circle cx="6" cy="14.25" r="1"/></g></g></svg>