<svg xmlns="http://www.w3.org/2000/svg" viewBox="0 0 24 24"><g fill="none" fill-rule="evenodd"><path d="M2 2h20v20H2z"/><g stroke-linecap="round" stroke-linejoin="round"><path d="M2 2h20v20H2z"/><path fill="currentColor" fill-rule="nonzero" d="M18.667 4.583H5.333c-.874 0-1.583.71-1.583 1.584V14.5c0 .874.709 1.583 1.583 1.583h13.334c.874 0 1.583-.709 1.583-1.583V6.167c0-.875-.709-1.584-1.583-1.584m-13.334 1.5h13.334c.046 0 .083.038.083.084V14.5a.083.083 0 0 1-.083.083H5.333a.083.083 0 0 1-.083-.083V6.167c0-.046.037-.084.083-.084M16.167 17.917a.75.75 0 0 1 .101 1.493l-.101.007H7.833a.75.75 0 0 1-.101-1.493l.101-.007z"/><path fill="currentColor" fill-rule="nonzero" d="M12 14.583a.75.75 0 0 1 .743.649l.007.101v3.334a.75.75 0 0 1-1.493.101l-.007-.101v-3.334a.75.75 0 0 1 .75-.75"/></g></g></svg>