<svg xmlns="http://www.w3.org/2000/svg" fill="none" viewBox="0 0 24 24"><path fill="currentColor" d="M15.313 9.775a.77.77 0 0 0-1.088-1.088l-5.538 5.538a.77.77 0 1 0 1.088 1.088zM9.692 11.077a1.385 1.385 0 1 0 0-2.77 1.385 1.385 0 0 0 0 2.77M15.692 14.308a1.385 1.385 0 1 1-2.769 0 1.385 1.385 0 0 1 2.77 0"/><path fill="currentColor" fill-rule="evenodd" d="M12.544 2.225a.77.77 0 0 0-1.088 0L8.912 4.77H5.538a.77.77 0 0 0-.769.77v3.373l-2.544 2.544c-.3.3-.3.787 0 1.088l2.544 2.544v3.374c0 .424.345.769.77.769h3.373l2.544 2.544c.3.3.787.3 1.088 0l2.544-2.544h3.374a.77.77 0 0 0 .769-.77v-3.373l2.544-2.544c.3-.3.3-.787 0-1.088L19.23 8.912V5.538a.77.77 0 0 0-.77-.769h-3.373zm-2.77 3.857L12 3.857l2.225 2.225a.77.77 0 0 0 .544.226h2.923V9.23c0 .204.081.4.226.544L20.143 12l-2.225 2.225a.77.77 0 0 0-.226.544v2.923H14.77a.77.77 0 0 0-.544.226L12 20.143l-2.225-2.225a.77.77 0 0 0-.544-.226H6.308V14.77a.77.77 0 0 0-.226-.544L3.857 12l2.225-2.225a.77.77 0 0 0 .226-.544V6.308H9.23a.77.77 0 0 0 .544-.226" clip-rule="evenodd"/></svg>