<svg xmlns="http://www.w3.org/2000/svg" viewBox="0 0 24 24"><path fill="currentColor" fill-rule="nonzero" d="M16.5 3a2.25 2.25 0 0 1 2.25 2.25v13.5A2.25 2.25 0 0 1 16.5 21h-9a2.25 2.25 0 0 1-2.25-2.25V5.25A2.25 2.25 0 0 1 7.5 3Zm0 1.5h-9a.75.75 0 0 0-.75.75v13.5c0 .414.336.75.75.75h9a.75.75 0 0 0 .75-.75V5.25a.75.75 0 0 0-.75-.75M12.75 6v1.153c.73.083 1.442.268 1.962.512l.18.092.658.361-.723 1.315-.657-.361c-.32-.176-.852-.327-1.42-.407v2.605l.235.086c1.504.57 2.114 1.14 2.114 2.407 0 1.482-.912 2.392-2.348 2.656L12.75 18h-1.5v-1.52a9.5 9.5 0 0 1-2.2-.446l-.304-.103-.706-.254.508-1.412.706.254c.662.238 1.36.397 1.997.456l-.001-2.635c-1.755-.637-2.514-1.302-2.514-2.791 0-1.436 1.018-2.228 2.514-2.406V6zm0 6.879.002 2.002c.583-.17.847-.517.847-1.118 0-.346-.172-.574-.724-.83zm-2.514-3.33c0 .533.249.845 1.014 1.18V8.657c-.694.113-1.014.405-1.014.892"/></svg>