<svg xmlns="http://www.w3.org/2000/svg" viewBox="0 0 24 24"><g fill="none" fill-rule="evenodd"><path d="M2 1h20v20H2z"/><g stroke-linecap="round" stroke-linejoin="round"><path d="M2 1h20v20H2z"/><path fill="currentColor" fill-rule="nonzero" d="M18.667 14.467a.7.7 0 0 1 .693.605l.007.095v1.666a2.367 2.367 0 0 1-2.205 2.362L17 19.2H7a2.367 2.367 0 0 1-2.361-2.205l-.006-.162v-1.666a.7.7 0 0 1 1.394-.095l.006.095v1.666c0 .496.374.905.854.96L7 17.8h10a.967.967 0 0 0 .96-.854l.007-.113v-1.666a.7.7 0 0 1 .7-.7m-6.87.536a.7.7 0 0 1-.205-.1l-.02-.015-.053-.046-.014-.014-4.167-4.166a.7.7 0 0 1 .904-1.064l.086.074 2.971 2.97.001-8.309a.7.7 0 0 1 1.394-.095l.006.095v8.31l2.972-2.971a.7.7 0 0 1 1.063.903l-.073.087-4.167 4.166a1 1 0 0 1-.083.071l.083-.07a.7.7 0 0 1-.4.198l-.095.006a.7.7 0 0 1-.204-.03"/></g></g></svg>