<svg xmlns="http://www.w3.org/2000/svg" viewBox="0 0 24 24"><path fill="currentColor" fill-rule="nonzero" d="M11.642 4.034a.8.8 0 0 1 .716 0l9.166 4.584a.8.8 0 0 1 0 1.43l-2.308 1.154V16.5c0 2.146-3.275 3.55-7.216 3.55-3.849 0-7.064-1.34-7.211-3.401l-.006-.149v-5.298l-2.307-1.153a.8.8 0 0 1-.104-1.37l.104-.061Zm5.974 7.968-5.258 2.63a.8.8 0 0 1-.716 0l-5.259-2.63V16.5c0 .892 2.47 1.95 5.617 1.95 3.052 0 5.466-.995 5.61-1.869l.007-.081zm4.467-.719a.8.8 0 0 1 .794.7l.006.1v4.584a.8.8 0 0 1-1.593.1l-.007-.1v-4.584a.8.8 0 0 1 .8-.8M12 5.644 4.622 9.333 12 13.022l7.377-3.689z"/></svg>