<svg xmlns="http://www.w3.org/2000/svg" viewBox="0 0 24 24"><g fill="none" fill-rule="evenodd"><path d="M2 2h20v20H2z"/><g stroke-linecap="square"><path fill="currentColor" fill-rule="nonzero" d="M18.333 3.017a2.65 2.65 0 0 1 2.65 2.65v12.666a2.65 2.65 0 0 1-2.65 2.65H5.667a2.65 2.65 0 0 1-2.65-2.65V5.667a2.65 2.65 0 0 1 2.65-2.65Zm0 1.3H5.667a1.35 1.35 0 0 0-1.35 1.35v12.666c0 .746.604 1.35 1.35 1.35h12.666a1.35 1.35 0 0 0 1.35-1.35V5.667a1.35 1.35 0 0 0-1.35-1.35M15.65 8.35v7.133h-1.3l-.001-4.914-5.556 5.557-.92-.919L13.43 9.65H8.517v-1.3z"/></g></g></svg>