<svg xmlns="http://www.w3.org/2000/svg" viewBox="0 0 24 24"><g fill="none" fill-rule="evenodd"><path d="M2 2h20v20H2z"/><g fill="currentColor" fill-rule="nonzero" stroke-linecap="square"><path d="M12 5.417c-2.42 0-4.622 1.186-6.572 3.136-.67.67-1.262 1.384-1.773 2.1l-.213.306-.254.385-.124.201-.263.459.234.402.17.277.101.157.233.344q.128.181.275.382c.53.717 1.133 1.42 1.805 2.069 1.908 1.84 4.046 2.948 6.381 2.948s4.473-1.107 6.38-2.948a16.5 16.5 0 0 0 1.806-2.07l.142-.195.254-.363q.116-.173.212-.322l.187-.307.218-.374-.263-.459-.124-.201-.16-.247-.196-.287-.111-.157a17 17 0 0 0-1.773-2.1c-1.95-1.95-4.153-3.136-6.572-3.136m0 1.5c1.956 0 3.816 1.001 5.511 2.697a15 15 0 0 1 1.613 1.91l.274.397.052.079-.223.33-.248.345a15 15 0 0 1-1.64 1.88c-1.654 1.596-3.453 2.528-5.339 2.528s-3.685-.932-5.34-2.528a15 15 0 0 1-1.64-1.88l-.247-.345-.224-.331.227-.333.1-.142a15 15 0 0 1 1.613-1.91C8.184 7.918 10.044 6.917 12 6.917"/><path d="M12 8.75a3.25 3.25 0 1 0 0 6.5 3.25 3.25 0 0 0 0-6.5m0 1.5a1.75 1.75 0 1 1 0 3.5 1.75 1.75 0 0 1 0-3.5"/><path d="M18.97 3.97a.75.75 0 0 1 1.133.976l-.073.084-15 15a.75.75 0 0 1-1.133-.976l.073-.084z"/></g></g></svg>