<svg xmlns="http://www.w3.org/2000/svg" viewBox="0 0 24 24"><path fill="currentColor" fill-rule="nonzero" d="M14.25 3q.059 0 .115.009l.017.003a.7.7 0 0 1 .278.11q.064.042.12.098l-.08-.07.008.006.072.064 4.5 4.5a.75.75 0 0 1 .213.428l.007.102.002 5.134a7.6 7.6 0 0 0-1.5-.6L18 9h-3.75a.75.75 0 0 1-.743-.648L13.5 8.25V4.5H6.92a.92.92 0 0 0-.914.813L6 5.42v13.16c0 .508.412.92.92.92h6.226l1.492 1.5H6.92a2.42 2.42 0 0 1-2.415-2.26l-.005-.16V5.42A2.42 2.42 0 0 1 6.92 3zm1.317 9.2v2.133c1.533.067 4.333.7 4.333 4.334V19.9l-.633-1.067c-.8-1.366-1.6-1.8-3.7-1.833v2.133L12.1 15.667z"/></svg>