<svg xmlns="http://www.w3.org/2000/svg" viewBox="0 0 24 24"><path fill="currentColor" fill-rule="nonzero" d="M19 5a3 3 0 0 1 3 3v8a3 3 0 0 1-3 3H5a3 3 0 0 1-3-3V8a3 3 0 0 1 3-3zm0 1.6H5a1.4 1.4 0 0 0-1.394 1.265L3.6 8v8a1.4 1.4 0 0 0 1.265 1.394L5 17.4h14a1.4 1.4 0 0 0 1.394-1.265L20.4 16V8a1.4 1.4 0 0 0-1.265-1.394zm-1.832 2.757q.48 0 .971.128l.247.072a.46.46 0 0 1 .284.608l-.105.263a.424.424 0 0 1-.456.262l-.082-.02a2.7 2.7 0 0 0-.902-.182q-.279 0-.406.097a.29.29 0 0 0-.127.239q0 .155.161.276.162.122.875.444.683.304.95.653.265.35.265.88 0 .486-.25.864a1.63 1.63 0 0 1-.72.588q-.471.21-1.104.209-.529 0-.887-.073l-.16-.038-.164-.049a.61.61 0 0 1-.421-.581v-.442c0-.145.117-.263.263-.263l.05.005.047.014q.24.095.49.161.442.116.81.116.32 0 .468-.109a.334.334 0 0 0 .089-.469.7.7 0 0 0-.192-.163 8 8 0 0 0-.704-.336q-.518-.233-.776-.452a1.4 1.4 0 0 1-.384-.501 1.6 1.6 0 0 1-.125-.67q0-.723.533-1.127.532-.405 1.462-.404M6.413 9.43c.265 0 .51.14.646.369l.737 1.25.704-1.239a.75.75 0 0 1 .652-.38h.38a.451.451 0 0 1 .382.691L8.672 12.1l1.327 1.89a.43.43 0 0 1-.352.678h-.413a.75.75 0 0 1-.635-.35l-.81-1.287-.8 1.283a.75.75 0 0 1-.637.354h-.393a.437.437 0 0 1-.366-.677l1.313-2.002-1.22-1.89a.432.432 0 0 1 .362-.667zm5.37 0c.395 0 .715.32.715.715v3.379h1.467a.571.571 0 1 1 0 1.142h-2.147a.75.75 0 0 1-.75-.75v-3.77c0-.396.32-.716.715-.716"/></svg>