<svg xmlns="http://www.w3.org/2000/svg" viewBox="0 0 24 24"><path fill="currentColor" fill-rule="nonzero" d="M19 5a3 3 0 0 1 3 3v8a3 3 0 0 1-3 3H5a3 3 0 0 1-3-3V8a3 3 0 0 1 3-3zm0 1.6H5a1.4 1.4 0 0 0-1.394 1.265L3.6 8v8a1.4 1.4 0 0 0 1.265 1.394L5 17.4h14a1.4 1.4 0 0 0 1.394-1.265L20.4 16V8a1.4 1.4 0 0 0-1.265-1.394zM7.609 9.357q.526 0 1.023.136l.247.077a.395.395 0 0 1 .237.518l-.149.376a.396.396 0 0 1-.43.246l-.076-.02a5 5 0 0 0-.232-.08 2.1 2.1 0 0 0-.634-.093.92.92 0 0 0-.802.413q-.288.412-.288 1.14 0 1.512 1.17 1.512.353 0 .685-.097l.164-.05.164-.055a.256.256 0 0 1 .34.241v.454c0 .207-.12.392-.302.48l-.081.031a4 4 0 0 1-1.127.152q-1.205 0-1.85-.687-.643-.689-.643-1.987 0-.812.311-1.43.313-.615.897-.947.585-.33 1.376-.33m4.254 0q.508 0 1.028.141l.26.08c.212.071.326.3.254.512l-.008.022-.067.166a.6.6 0 0 1-.781.332 2.5 2.5 0 0 0-.73-.122q-.28 0-.408.097a.29.29 0 0 0-.128.239q0 .155.163.276.161.122.88.444.688.304.957.653.266.35.267.88 0 .486-.252.864a1.64 1.64 0 0 1-.725.588q-.474.21-1.112.209a4.6 4.6 0 0 1-.893-.073l-.183-.044-.187-.058a.56.56 0 0 1-.38-.531v-.365a.34.34 0 0 1 .34-.34l.06.005.058.015q.195.072.398.125.445.116.816.116.32 0 .47-.109a.334.334 0 0 0 .09-.469.7.7 0 0 0-.193-.163 8 8 0 0 0-.709-.336q-.521-.233-.781-.452a1.4 1.4 0 0 1-.386-.501 1.6 1.6 0 0 1-.127-.67q0-.723.536-1.127.537-.405 1.473-.404m2.98.074a.75.75 0 0 1 .724.553l.574 2.1q.227.884.248 1.232.025-.25.102-.626t.135-.591l.588-2.118a.75.75 0 0 1 .722-.55h.236a.58.58 0 0 1 .55.764l-1.32 3.959a.75.75 0 0 1-.711.513h-.614a.75.75 0 0 1-.711-.514l-1.313-3.954a.584.584 0 0 1 .554-.768z"/></svg>