<svg xmlns="http://www.w3.org/2000/svg" viewBox="0 0 24 24"><path fill="currentColor" fill-rule="nonzero" d="M19.33 5.165a2.505 2.505 0 0 1 2.505 2.505v8.66a2.505 2.505 0 0 1-2.505 2.505H4.67a2.505 2.505 0 0 1-2.505-2.505V7.67A2.505 2.505 0 0 1 4.67 5.165Zm0 1.67H4.67a.835.835 0 0 0-.835.835v8.66c0 .461.374.835.835.835h14.66a.835.835 0 0 0 .835-.835V7.67a.835.835 0 0 0-.835-.835M6.903 9.25q1.041 0 1.563.454.523.456.523 1.295 0 .922-.543 1.423-.543.502-1.543.502h-.418v1.08a.743.743 0 1 1-1.485 0V10a.75.75 0 0 1 .75-.75zm4.865 0q1.323 0 2.043.677.72.676.72 1.955 0 1.377-.758 2.12-.757.745-2.13.745h-1.028a.75.75 0 0 1-.75-.75V10a.75.75 0 0 1 .75-.75zm6.401 0a.596.596 0 0 1 0 1.191h-1.19v1.05h1.052a.596.596 0 0 1 0 1.191h-1.052v1.334a.731.731 0 1 1-1.463 0V10a.75.75 0 0 1 .75-.75zm-6.386 1.2h-.433v3.078h.332q.676 0 .992-.394.316-.39.316-1.2 0-.755-.3-1.12-.297-.365-.907-.365m-4.914 0h-.384v1.263h.271q.335 0 .532-.189.198-.188.198-.518 0-.555-.617-.556"/></svg>