<svg xmlns="http://www.w3.org/2000/svg" viewBox="0 0 24 24"><g fill="none" fill-rule="evenodd"><path d="M1 1h22v22H1z"/><g stroke-linecap="round" stroke-linejoin="round"><path d="M1 2h22v22H1z"/><path fill="currentColor" fill-rule="nonzero" d="M17.958 5.883a.7.7 0 0 1 .232.04 1.617 1.617 0 0 1 .893 2.283l-.085.142-.063.081-4.402 4.841v6.147a.7.7 0 0 1-1.036.614l-.084-.054-3.666-2.75a.7.7 0 0 1-.272-.452l-.008-.108-.001-3.397-4.4-4.84-.064-.082a1.617 1.617 0 0 1 .655-2.362l.153-.063.046-.015.054-.012.037-.006.064-.006zm-.165 1.4H6.206l-.015.013-.03.039-.022.045a.2.2 0 0 0-.002.13l.016.034 4.532 4.985a.7.7 0 0 1 .174.368l.008.103-.001 3.316 2.267 1.7V13a.7.7 0 0 1 .118-.39l.064-.08 4.531-4.986.017-.035a.2.2 0 0 0 .009-.064l-.011-.065a.2.2 0 0 0-.052-.084z"/></g></g></svg>