<svg xmlns="http://www.w3.org/2000/svg" viewBox="0 0 24 24"><g fill="none" fill-rule="evenodd"><path d="M2 2h20v20H2z"/><g stroke-linecap="round" stroke-linejoin="round"><path d="M2 2h20v20H2z"/><path fill="currentColor" fill-rule="nonzero" d="M6.167 5.417a.75.75 0 0 1 .743.648l.007.102V19.5a.75.75 0 0 1-1.493.102l-.007-.102V6.167a.75.75 0 0 1 .75-.75M17.833 5.417a.75.75 0 0 1 .743.648l.007.102v7.5a.75.75 0 0 1-1.493.101l-.007-.101v-7.5a.75.75 0 0 1 .75-.75"/><path fill="currentColor" fill-rule="nonzero" d="M5.642 5.631a4.917 4.917 0 0 1 6.706-.165l.177.165a3.417 3.417 0 0 0 4.783 0 .75.75 0 0 1 1.05 1.071 4.917 4.917 0 0 1-6.706.165l-.177-.165a3.417 3.417 0 0 0-4.783 0 .75.75 0 0 1-1.05-1.07M5.642 13.131a4.917 4.917 0 0 1 6.706-.165l.177.165a3.417 3.417 0 0 0 4.783 0 .75.75 0 0 1 1.05 1.071 4.917 4.917 0 0 1-6.706.165l-.177-.165a3.417 3.417 0 0 0-4.783 0 .75.75 0 0 1-1.05-1.07"/></g></g></svg>