<svg xmlns="http://www.w3.org/2000/svg" fill="none" viewBox="0 0 28 28"><path fill="currentColor" d="M12.999 2.388c.346-.113.727-.049 1.016.17 1.836 1.394 3.095 2.918 3.778 4.686a9 9 0 0 1 .566 2.505c.42-.487.773-.906.927-1.125l.074-.093a1.109 1.109 0 0 1 1.595-.065c1.472 1.414 2.068 3.209 2.285 4.944l.054.518c.44 5.295-2.822 8.962-6.771 10.152-4.062 1.224-8.923-.166-11.095-4.994h-.001c-1.303-2.906-.875-5.796.865-8.346.586-.86 1.3-1.617 1.991-2.286h.001c1.865-1.802 3.334-2.962 4.004-5.33l.044-.126c.121-.287.364-.51.667-.61m.82 2.857c-1.01 2.098-2.608 3.41-3.997 4.752-.647.626-1.242 1.266-1.708 1.948-1.367 2.004-1.644 4.113-.678 6.266 1.658 3.684 5.288 4.753 8.444 3.802 3.14-.947 5.742-3.888 5.18-8.337-.126-1.007-.39-1.922-.871-2.705-.302.353-.63.73-.932 1.072a157 157 0 0 1-1.314 1.466l-.021.024-.007.005v.002l-.002.001a1.11 1.11 0 0 1-1.295.25 1.08 1.08 0 0 1-.604-1.156c.32-1.825.23-3.317-.273-4.621-.37-.957-.986-1.87-1.922-2.769"/></svg>