<svg xmlns="http://www.w3.org/2000/svg" viewBox="0 0 24 24"><path fill="currentColor" fill-rule="nonzero" d="M8.432 4a2 2 0 0 1 1.675.889l.086.143.87 1.583H20c1.054 0 1.918.801 1.995 1.816l.005.146v9.461c0 1.034-.816 1.882-1.85 1.957L20 20H4c-1.054 0-1.918-.8-1.995-1.815L2 18.038V5.962c0-1.034.816-1.882 1.85-1.957L4 4zm0 1.5H4c-.25 0-.45.169-.492.38l-.008.082v12.076c0 .22.172.414.409.454L4 18.5h16c.25 0 .45-.169.492-.38l.008-.082V8.577a.475.475 0 0 0-.409-.454L20 8.115h-9.825L8.878 5.752a.49.49 0 0 0-.351-.244z"/></svg>