<svg xmlns="http://www.w3.org/2000/svg" viewBox="0 0 24 24"><path fill="currentColor" fill-rule="nonzero" d="M21.633 4.842A11.95 11.95 0 0 1 24 12c0 6.627-5.373 12-12 12-2.682 0-5.16-.88-7.158-2.367l1.074-1.074A10.45 10.45 0 0 0 12 22.5c5.799 0 10.5-4.701 10.5-10.5 0-2.268-.719-4.367-1.94-6.084zM12 0c2.682 0 5.16.88 7.158 2.367l-1.074 1.074A10.45 10.45 0 0 0 12 1.5C6.201 1.5 1.5 6.201 1.5 12c0 2.268.719 4.367 1.94 6.084l-1.073 1.074A11.95 11.95 0 0 1 0 12C0 5.373 5.373 0 12 0m2.675 12.15v1.6c1.115.048 3.124.497 3.244 3.008l.006.242v.925l-.475-.8c-.57-.974-1.14-1.316-2.546-1.369l-.229-.006v1.6l-2.6-2.6zm-1.55-5.775H8.19a.69.69 0 0 0-.684.596l-.006.094-.001 8.375 5.824-5.824a.56.56 0 0 1-.193-.352l-.005-.076zm.96-.96 1.72 1.719 4.857-4.857a.75.75 0 0 1 1.133.977l-.072.084-4.858 4.856.595.596a.57.57 0 0 1 .15.272l.008.045v-.003l.001.004v.003l.002.013.004.063.002 3.851a5.7 5.7 0 0 0-1.126-.45L16.5 9.75l-1.19-.001-7.639 7.64a.7.7 0 0 0 .425.23l.094.006h4.67l1.119 1.125H8.19a1.8 1.8 0 0 1-1.316-.565l-3.536 3.538a.75.75 0 0 1-1.133-.977l.072-.084 4.097-4.097.001-9.5c0-.952.733-1.733 1.666-1.809l.149-.006h5.498q.081 0 .157.022l.018.006.028.01.027.011a1 1 0 0 1 .076.041l.033.025-.008-.007.014.01.008.007-.01-.007z"/></svg>