<svg xmlns="http://www.w3.org/2000/svg" viewBox="0 0 24 24"><path fill="currentColor" fill-rule="nonzero" d="M14.583 3.667v3.429C6.103 7.385 1.7 12.529 2.085 18.713c.055.882 1.323.96 1.486.092l.024-.119c.302-1.351 1.393-2.3 3.942-2.853l.465-.093q.24-.045.496-.085l.528-.077.56-.07.595-.06.31-.028.646-.048q.166-.012.337-.021l.7-.037.736-.028.774-.02.9-.013v3.414c0 .685.842 1.011 1.304.505l6.833-7.5a.75.75 0 0 0 0-1.01l-6.833-7.5c-.462-.507-1.305-.18-1.305.505m1.5 1.937 5.068 5.563-5.068 5.562V14.5a.75.75 0 0 0-.75-.75l-.92.005-.929.016-.885.028-.426.019-.821.045c-3.604.23-5.958.818-7.405 1.813l-.132.093.02-.082c1.023-4.102 4.908-7.104 11.498-7.104a.75.75 0 0 0 .75-.75z"/></svg>