<svg xmlns="http://www.w3.org/2000/svg" viewBox="0 0 24 24"><path fill="currentColor" fill-rule="nonzero" d="M15.75 3.75a2.833 2.833 0 0 1 2.5 4.168l.417-.001c.874 0 1.583.709 1.583 1.583v1.667c0 .874-.709 1.583-1.583 1.583h-.084v5.083c0 1.282-.997 2.33-2.257 2.412l-.16.005H7.834a2.417 2.417 0 0 1-2.411-2.258l-.005-.159-.001-5.083h-.083a1.584 1.584 0 0 1-1.577-1.44l-.006-.143V9.5c0-.874.709-1.583 1.583-1.583h.417A2.83 2.83 0 0 1 8.237 3.75c1.483-.025 2.798.965 3.677 2.58l.085.164.087-.163c.84-1.545 2.077-2.518 3.473-2.578zm-4.5 9H6.916v5.083c0 .47.355.858.81.91l.107.007h3.417zm5.833 0H12.75v6h3.417c.47 0 .857-.354.91-.81l.006-.107zM11.25 9.417H5.333a.083.083 0 0 0-.083.083v1.667c0 .046.037.083.083.083h5.917zm7.417 0H12.75v1.833h5.917a.08.08 0 0 0 .076-.05l.007-.033V9.5a.083.083 0 0 0-.083-.083M8.25 5.25a1.333 1.333 0 0 0-.128 2.66l.128.007h2.74C10.365 6.23 9.308 5.232 8.25 5.25m7.487 0c-1.047-.018-2.102.981-2.727 2.667h2.74a1.333 1.333 0 1 0-.013-2.667"/></svg>