<svg xmlns="http://www.w3.org/2000/svg" fill="none" viewBox="0 0 24 24"><path fill="currentColor" fill-rule="evenodd" d="M4 6a3 3 0 1 1 3.75 2.905v2.645c.375-.192.8-.3 1.25-.3h6c.69 0 1.25-.56 1.25-1.25V8.905A3.001 3.001 0 0 1 17 3a3 3 0 0 1 .75 5.905V10A2.75 2.75 0 0 1 15 12.75H9c-.69 0-1.25.56-1.25 1.25v1.095a3.001 3.001 0 1 1-1.5 0v-6.19A3 3 0 0 1 4 6m3-1.5a1.5 1.5 0 1 0 0 3 1.5 1.5 0 0 0 0-3m0 12a1.5 1.5 0 1 0 0 3 1.5 1.5 0 0 0 0-3M15.5 6a1.5 1.5 0 1 1 3 0 1.5 1.5 0 0 1-3 0" clip-rule="evenodd"/></svg>