<svg xmlns="http://www.w3.org/2000/svg" viewBox="0 0 24 24"><path fill="currentColor" fill-rule="nonzero" d="m12.579 2.871.065.014a9.14 9.14 0 0 1 8.484 8.689l-.435-.463a1.3 1.3 0 0 0-1.064-.406 8 8 0 0 0-.183-.817H15.45a16.7 16.7 0 0 1 0 4.225h.528l-1.228 1.31-1.23-1.31h.517a15.3 15.3 0 0 0 0-4.225H9.962a15.3 15.3 0 0 0 0 4.225h1.027l-.936.998a1.3 1.3 0 0 0 0 1.778l.954 1.02q.395.937.919 1.828h.15q.126-.214.245-.43l1.483 1.582.067.057q-.6.125-1.23.17a.7.7 0 0 1-.27.015l-.105.003-.265.003q-.187 0-.37-.007a.7.7 0 0 1-.27-.014 9.138 9.138 0 0 1-.004-18.231.7.7 0 0 1 .275-.016l.104-.003.265-.004q.186 0 .369.008a.7.7 0 0 1 .21.001M19.745 12 21 13.338 14.752 20 11 16l1.255-1.338 2.497 2.662zM8.79 15.512l-3.685.001a7.75 7.75 0 0 0 5.112 4.018 16.6 16.6 0 0 1-1.427-4.019m-.24-5.624H4.554A7.7 7.7 0 0 0 4.262 12c0 .733.102 1.442.293 2.113h3.994a16.7 16.7 0 0 1 0-4.225m1.667-5.418-.121.029a7.75 7.75 0 0 0-4.991 3.988h3.685c.298-1.38.774-2.73 1.427-4.017M12 4.263h-.076a15.2 15.2 0 0 0-1.7 4.225h3.552a15.2 15.2 0 0 0-1.7-4.224zm1.784.206.035.07a16.6 16.6 0 0 1 1.392 3.949h3.685a7.75 7.75 0 0 0-5.112-4.019"/></svg>