<svg xmlns="http://www.w3.org/2000/svg" viewBox="0 0 24 24"><g fill="none" fill-rule="evenodd"><path d="M2 2h20v20H2z"/><path fill="currentColor" fill-rule="nonzero" stroke-linecap="round" stroke-linejoin="round" d="m12.579 2.871.065.014a9.138 9.138 0 0 1-.004 18.23.7.7 0 0 1-.27.016l-.105.003-.265.003q-.187 0-.37-.007a.7.7 0 0 1-.27-.014 9.138 9.138 0 0 1-.004-18.231.7.7 0 0 1 .275-.016l.104-.003.265-.004q.186 0 .369.008a.7.7 0 0 1 .21.001m1.196 12.642h-3.55c.346 1.465.913 2.89 1.7 4.224h.15a15.2 15.2 0 0 0 1.7-4.224m5.12 0h-3.684a16.6 16.6 0 0 1-1.427 4.017 7.75 7.75 0 0 0 5.112-4.017m-10.106 0H5.104a7.75 7.75 0 0 0 5.112 4.018 16.6 16.6 0 0 1-1.427-4.019m-.24-5.625H4.554A7.7 7.7 0 0 0 4.262 12c0 .733.102 1.442.293 2.113h3.994a16.7 16.7 0 0 1 0-4.225m5.49 0H9.96a15.3 15.3 0 0 0 0 4.225h4.077a15.3 15.3 0 0 0 0-4.225m5.407 0H15.45a16.7 16.7 0 0 1 0 4.225h3.994c.19-.671.293-1.38.293-2.113 0-.732-.102-1.441-.292-2.112m-9.23-5.418-.121.029a7.75 7.75 0 0 0-4.991 3.988h3.685c.298-1.38.774-2.73 1.427-4.017M12 4.263h-.076a15.2 15.2 0 0 0-1.7 4.225h3.552a15.2 15.2 0 0 0-1.7-4.224zm1.784.206.035.07a16.6 16.6 0 0 1 1.392 3.949h3.685a7.75 7.75 0 0 0-5.112-4.019"/></g></svg>