<svg xmlns="http://www.w3.org/2000/svg" viewBox="0 0 24 24"><path fill="currentColor" fill-rule="nonzero" d="M12.833 2.083a6.583 6.583 0 0 1 6.58 6.353l.002.114a4.917 4.917 0 0 1-3.399 9.1.75.75 0 0 1-.6-.734V8.75a.75.75 0 0 1 .6-.735 4.9 4.9 0 0 1 1.855-.022 5.08 5.08 0 0 0-4.823-4.406l-.215-.005h-1.666a5.084 5.084 0 0 0-5.04 4.41 5 5 0 0 1 1.856.023c.35.071.6.378.6.735v8.165a.75.75 0 0 1-.6.735 4.9 4.9 0 0 1-1.9.014v.168a2.584 2.584 0 0 0 2.42 2.579l.164.005H12a.75.75 0 0 1 .102 1.493l-.102.007H8.667a4.084 4.084 0 0 1-4.079-3.88l-.005-.204v-.717a4.92 4.92 0 0 1-2.5-4.283A4.92 4.92 0 0 1 4.586 8.55l-.003.118a6.583 6.583 0 0 1 6.353-6.58l.23-.004zM7 9.417a3.417 3.417 0 0 0 0 6.833l.083-.004V9.42Zm10 0-.084.002v6.827l.084.004a3.417 3.417 0 0 0 3.412-3.23l.005-.187c0-1.379-.818-2.567-1.995-3.107a.6.6 0 0 1-.099-.04A3.4 3.4 0 0 0 17 9.415"/></svg>