<svg xmlns="http://www.w3.org/2000/svg" viewBox="0 0 24 24"><path fill="currentColor" fill-rule="nonzero" d="M16.167 3.667c-1.234 0-2.4.548-3.478 1.441l-.202.172q-.195.172-.367.339l-.12.119-.12-.119a10 10 0 0 0-.569-.51c-1.078-.894-2.244-1.442-3.478-1.442-2.759 0-5 2.218-5 4.958 0 3.683 2.267 7.615 8.304 11.327a1.66 1.66 0 0 0 1.723.002c6.04-3.714 8.307-7.646 8.307-11.329 0-2.74-2.241-4.958-5-4.958m0 1.666c1.842 0 3.333 1.476 3.333 3.292l-.003.202c-.082 2.974-1.99 6.219-7.15 9.482l-.347.216c-5.54-3.405-7.5-6.805-7.5-9.9 0-1.816 1.49-3.292 3.333-3.292.78 0 1.608.39 2.415 1.059.296.245.567.51.805.775l.146.167.1.122.033.042a.833.833 0 0 0 1.336 0l.077-.097.123-.146.079-.088c.238-.265.509-.53.805-.775.807-.67 1.636-1.059 2.415-1.059"/></svg>