<svg xmlns="http://www.w3.org/2000/svg" viewBox="0 0 24 24"><g fill="none" fill-rule="evenodd"><path d="M3 3h18v18H3z"/><g fill="currentColor" fill-rule="nonzero" stroke-linecap="square" transform="translate(3 3)"><path d="M17.25 3H.75a.75.75 0 0 0-.75.75v13.5c0 .414.336.75.75.75h16.5a.75.75 0 0 0 .75-.75V3.75a.75.75 0 0 0-.75-.75m-.75 1.5v12h-15v-12zM13.5 0a.75.75 0 0 1 .102 1.493L13.5 1.5h-9A.75.75 0 0 1 4.398.007L4.5 0z"/><path d="m10.752 7.69-6.75 6C3.486 14.147 3.81 15 4.5 15h9.75a.75.75 0 0 0 .67-1.085l-3-6a.75.75 0 0 0-1.168-.226m.265 1.77 2.019 4.04H6.472z"/><circle cx="5.25" cy="7.5" r="1.5"/></g></g></svg>