<svg xmlns="http://www.w3.org/2000/svg" viewBox="0 0 24 24"><path fill="currentColor" fill-rule="nonzero" d="M18.667 14.467a.7.7 0 0 1 .693.605l.007.095v1.666a2.367 2.367 0 0 1-2.205 2.362L17 19.2H7a2.367 2.367 0 0 1-2.361-2.205l-.006-.162v-1.666a.7.7 0 0 1 1.394-.095l.006.095v1.666c0 .496.374.905.854.96L7 17.8h10a.967.967 0 0 0 .96-.854l.007-.113v-1.666a.7.7 0 0 1 .7-.7M12 3.633a.7.7 0 0 1 .4.126l.008.006.02.014q.027.022.053.046l.014.013 4.167 4.167a.7.7 0 0 1-.904 1.064l-.086-.074-2.971-2.97-.001 8.308a.7.7 0 0 1-1.394.095l-.006-.095V6.024L8.329 8.995a.7.7 0 0 1-1.063-.903l.073-.087 4.167-4.167.074-.064.024-.018a.7.7 0 0 1 .302-.116z"/></svg>