<svg xmlns="http://www.w3.org/2000/svg" viewBox="0 0 24 24"><path fill="currentColor" fill-rule="nonzero" d="M19.5 2.083a.75.75 0 0 1 .75.75v17.5a.75.75 0 0 1-1.166.624L17 19.568l-2.084 1.39a.75.75 0 0 1-.734.054l-.098-.055L12 19.568l-2.084 1.39a.75.75 0 0 1-.734.054l-.098-.055L7 19.568l-2.084 1.39a.75.75 0 0 1-1.16-.522l-.006-.103v-17.5a.75.75 0 0 1 .75-.75Zm-.75 1.5H5.25v15.348l1.334-.888a.75.75 0 0 1 .734-.055l.098.055L9.5 19.43l2.084-1.387a.75.75 0 0 1 .734-.055l.098.055L14.5 19.43l2.084-1.387a.75.75 0 0 1 .734-.055l.098.055 1.334.888zM12 13.75a.75.75 0 0 1 .102 1.493L12 15.25H7.833a.75.75 0 0 1-.101-1.493l.101-.007zm4.167 0a.75.75 0 0 1 .101 1.493l-.101.007h-.834a.75.75 0 0 1-.101-1.493l.101-.007zM12 10.417a.75.75 0 0 1 .102 1.493l-.102.007H7.833a.75.75 0 0 1-.101-1.493l.101-.007zm4.167 0a.75.75 0 0 1 .101 1.493l-.101.007h-.834a.75.75 0 0 1-.101-1.493l.101-.007zM12 7.083a.75.75 0 0 1 .102 1.493L12 8.583H7.833a.75.75 0 0 1-.101-1.493l.101-.007zm4.167 0a.75.75 0 0 1 .101 1.493l-.101.007h-.834a.75.75 0 0 1-.101-1.493l.101-.007z"/></svg>