<svg xmlns="http://www.w3.org/2000/svg" fill="none" viewBox="0 0 24 24"><path fill="currentColor" d="M9.09 7.636a1.455 1.455 0 1 1-2.909 0 1.455 1.455 0 0 1 2.91 0"/><path fill="currentColor" fill-rule="evenodd" d="M9.645 3.739a4.387 4.387 0 1 0 1.78 6.102h2.446l1.235 1.235a.75.75 0 0 0 1.06 0l1.235-1.235h1.144a.75.75 0 0 0 .728-.568L20 6.363a.75.75 0 0 0-.727-.931h-7.848a4.4 4.4 0 0 0-1.78-1.693M7.042 4.81a2.89 2.89 0 0 1 3.236 1.672c.119.273.389.45.687.45h7.347L17.96 8.34h-.87a.75.75 0 0 0-.53.22l-.924.924-.924-.925a.75.75 0 0 0-.53-.22h-3.217a.75.75 0 0 0-.687.45 2.887 2.887 0 1 1-3.236-3.98M7.635 13.432a.75.75 0 0 1 .75.75v2.182a.75.75 0 0 1-.22.53l-.715.716a2.205 2.205 0 1 1-1.06-1.06l.495-.497v-1.871a.75.75 0 0 1 .75-.75m-1.683 4.616-.011-.011a.705.705 0 1 0 .022.022zM17.113 14.182a.75.75 0 0 0-1.5 0v2.182c0 .199.08.39.22.53l.716.716a2.205 2.205 0 1 0 1.06-1.06l-.496-.497zm.728 4.364c0-.177.065-.34.173-.463a1 1 0 0 0 .068-.068.705.705 0 1 1-.241.531" clip-rule="evenodd"/><path fill="currentColor" fill-rule="evenodd" d="M11.25 16.472a2.205 2.205 0 1 0 1.5 0V12a.75.75 0 0 0-1.5 0zm.749 1.37" clip-rule="evenodd"/></svg>