<svg xmlns="http://www.w3.org/2000/svg" viewBox="0 0 24 24"><g fill="none" fill-rule="evenodd"><path fill="currentColor" fill-rule="nonzero" d="M19 3a2 2 0 0 1 2 2v14a2 2 0 0 1-2 2H5a2 2 0 0 1-2-2V5a2 2 0 0 1 2-2zm0 1.5H5a.5.5 0 0 0-.492.41L4.5 5v14a.5.5 0 0 0 .41.492L5 19.5h14a.5.5 0 0 0 .492-.41L19.5 19V5a.5.5 0 0 0-.41-.492z"/><path d="M5 5.25h14v14H5z"/><g fill="currentColor" fill-rule="nonzero" stroke-linecap="round" stroke-linejoin="round"><path d="M9.667 10.917a3.083 3.083 0 1 0 0 6.166 3.083 3.083 0 0 0 0-6.166m0 1.5a1.583 1.583 0 1 1 0 3.166 1.583 1.583 0 0 1 0-3.166"/><path d="M15.553 7.053a.75.75 0 0 1 1.133.977l-.072.084-4.755 4.754a.75.75 0 0 1-1.133-.977l.073-.084z"/><path d="M14.97 7.636a.75.75 0 0 1 .976-.072l.084.072 1.167 1.167a.75.75 0 0 1-.977 1.133l-.084-.072-1.166-1.167a.75.75 0 0 1 0-1.06M13.22 9.386a.75.75 0 0 1 .976-.072l.084.072 1.167 1.167a.75.75 0 0 1-.977 1.133l-.084-.072-1.166-1.167a.75.75 0 0 1 0-1.06"/></g></g></svg>