<svg xmlns="http://www.w3.org/2000/svg" viewBox="0 0 24 24"><g fill="none" fill-rule="evenodd"><path d="M1 1h22v22H1z"/><g stroke-linecap="round" stroke-linejoin="round"><path d="M1 1h22v22H1z"/><path fill="currentColor" fill-rule="nonzero" d="M8.333 10.333a4.417 4.417 0 1 0 0 8.834 4.417 4.417 0 0 0 0-8.834m0 1.5a2.917 2.917 0 1 1 0 5.834 2.917 2.917 0 0 1 0-5.834"/><path fill="currentColor" fill-rule="nonzero" d="M17.886 4.136a.75.75 0 0 1 1.134.977l-.073.084-7.47 7.47a.75.75 0 0 1-1.134-.976l.073-.084z"/><path fill="currentColor" fill-rule="nonzero" d="M16.97 5.053a.75.75 0 0 1 .976-.073l.084.073 1.834 1.833a.75.75 0 0 1-.977 1.134l-.084-.073-1.833-1.833a.75.75 0 0 1 0-1.061M14.22 7.803a.75.75 0 0 1 .976-.073l.084.073 1.834 1.833a.75.75 0 0 1-.977 1.134l-.084-.073-1.833-1.833a.75.75 0 0 1 0-1.061"/></g></g></svg>