<svg xmlns="http://www.w3.org/2000/svg" viewBox="0 0 24 24"><g fill="none" fill-rule="evenodd"><path d="M3 3h18v18H3z"/><g fill="currentColor" fill-rule="nonzero" stroke-linecap="square"><path d="M9.75 3H5.5c-.69 0-1.25.56-1.25 1.25v7c0 .69.56 1.25 1.25 1.25h4.25c.69 0 1.25-.56 1.25-1.25v-7C11 3.56 10.44 3 9.75 3M9.5 4.5V11H5.75V4.5zM9.75 15H5.5c-.69 0-1.25.56-1.25 1.25v3.5c0 .69.56 1.25 1.25 1.25h4.25c.69 0 1.25-.56 1.25-1.25v-3.5c0-.69-.56-1.25-1.25-1.25m-.25 1.5v3H5.75v-3zM18.75 3H14.5c-.69 0-1.25.56-1.25 1.25v3.5c0 .69.56 1.25 1.25 1.25h4.25C19.44 9 20 8.44 20 7.75v-3.5C20 3.56 19.44 3 18.75 3m-.25 1.5v3h-3.75v-3zM18.75 11.5H14.5c-.69 0-1.25.56-1.25 1.25v7c0 .69.56 1.25 1.25 1.25h4.25c.69 0 1.25-.56 1.25-1.25v-7c0-.69-.56-1.25-1.25-1.25M18.5 13v6.5h-3.75V13z"/></g></g></svg>