<svg xmlns="http://www.w3.org/2000/svg" viewBox="0 0 24 24"><g fill="none" fill-rule="evenodd"><path d="M24.728 12 12 24.728-.728 12 12-.728z"/><g fill="currentColor" fill-rule="nonzero" stroke-linecap="square"><path d="M12 18.364a4.463 4.463 0 0 1-6.364 0 4.46 4.46 0 0 1-.148-6.21L5.636 12l1.06-1.06a.75.75 0 0 1 1.128.983L7.757 12l-1.06 1.06a2.964 2.964 0 0 0 0 4.243c1.15 1.15 2.918 1.19 4.112.123l.13-.123L12 16.243a.75.75 0 0 1 1.128.983l-.067.077zM17.303 13.06a.75.75 0 0 1-1.127-.983l.067-.077 1.06-1.06a2.964 2.964 0 0 0 0-4.243c-1.15-1.15-2.918-1.19-4.112-.123l-.13.123L12 7.757a.75.75 0 0 1-1.128-.983l.067-.077L12 5.636a4.463 4.463 0 0 1 6.364 0 4.46 4.46 0 0 1 .148 6.21l-.148.154z"/><path d="M14.121 10.94a.75.75 0 0 1-1.127-.985l.067-.076 1.06-1.061a.75.75 0 0 1 1.128.984l-.067.077zM9.879 15.182a.75.75 0 0 1-1.128-.984l.067-.077 1.06-1.06a.75.75 0 0 1 1.128.984l-.067.076zM17.303 17.303a.75.75 0 0 1-.984.067l-.076-.067-9.546-9.546A.75.75 0 0 1 7.68 6.63l.076.067 9.546 9.546a.75.75 0 0 1 0 1.06"/></g></g></svg>