<svg xmlns="http://www.w3.org/2000/svg" viewBox="0 0 24 24"><g fill="none" fill-rule="evenodd"><path d="M4 4h16v16H4z"/><g fill="currentColor" fill-rule="nonzero" stroke-linecap="square"><path d="M12.736 10.87a.75.75 0 0 1 1.061 0c1.572 1.572 1.624 3.999.157 5.628l-.157.166-1.867 1.866c-1.626 1.627-4.167 1.627-5.794 0-1.572-1.572-1.624-3.999-.147-5.638l.158-.166 1.667-1.6a.75.75 0 0 1 1.113 1l-.074.082-1.656 1.589c-1.04 1.04-1.04 2.632 0 3.673.997.997 2.5 1.038 3.54.124l.133-.124 1.866-1.867c1.04-1.04 1.04-2.632 0-3.673a.75.75 0 0 1 0-1.06"/><path d="M12.736 6.136c1.627-1.626 4.168-1.626 5.794 0 1.572 1.572 1.625 4 .148 5.638l-.159.167-1.666 1.6a.75.75 0 0 1-1.113-1l.074-.082 1.656-1.59c1.04-1.04 1.04-2.632 0-3.672-.997-.997-2.5-1.039-3.54-.125l-.133.125-1.867 1.867c-1.04 1.04-1.04 2.632 0 3.672a.75.75 0 0 1-1.06 1.061c-1.572-1.572-1.625-4-.158-5.628l.158-.166z"/></g></g></svg>