<svg xmlns="http://www.w3.org/2000/svg" viewBox="0 0 24 24"><path fill="currentColor" fill-rule="nonzero" d="M9.5 13.667c.46 0 .833.373.833.833v5.833c0 .46-.373.834-.833.834H3.667a.833.833 0 0 1-.834-.834V14.5c0-.46.373-.833.834-.833Zm10.833 5a.833.833 0 0 1 .105 1.66l-.105.006h-6.666a.833.833 0 0 1-.105-1.66l.105-.006zM8.666 15.333H4.499V19.5h4.167zm11.667-.833a.833.833 0 0 1 .105 1.66l-.105.007h-6.666a.833.833 0 0 1-.105-1.66l.105-.007zM9.5 2.833c.46 0 .833.373.833.834V9.5c0 .46-.373.833-.833.833H3.667a.833.833 0 0 1-.834-.833V3.667c0-.46.373-.834.834-.834Zm10.833 5a.833.833 0 0 1 .105 1.66l-.105.007h-6.666a.833.833 0 0 1-.105-1.66l.105-.007zM8.666 4.5H4.499v4.166h4.167zm11.667-.833a.833.833 0 0 1 .105 1.66l-.105.006h-6.666a.833.833 0 0 1-.105-1.66l.105-.006z"/></svg>