<svg xmlns="http://www.w3.org/2000/svg" fill="none" viewBox="0 0 24 24"><path fill="currentColor" fill-rule="evenodd" d="M7 6.083a1.25 1.25 0 1 1-2.5 0 1.25 1.25 0 0 1 2.5 0m0 5.834a1.25 1.25 0 1 1-2.5 0 1.25 1.25 0 0 1 2.5 0M18.667 5.25H9.5a.833.833 0 0 0 0 1.667h9.167a.833.833 0 1 0 0-1.667M9.5 11.083h9.167a.833.833 0 1 1 0 1.667H9.5a.833.833 0 1 1 0-1.667M5.75 19a1.25 1.25 0 1 0 0-2.5 1.25 1.25 0 0 0 0 2.5m3.75-2.083h9.167a.833.833 0 1 1 0 1.666H9.5a.833.833 0 0 1 0-1.666" clip-rule="evenodd"/></svg>