<svg xmlns="http://www.w3.org/2000/svg" fill="none" viewBox="0 0 24 24"><path fill="currentColor" d="M12 20a7.8 7.8 0 0 1-3.12-.63 8.1 8.1 0 0 1-2.54-1.71 8.1 8.1 0 0 1-1.71-2.54A7.8 7.8 0 0 1 4 12q0-1.66.63-3.12t1.71-2.54a8.1 8.1 0 0 1 2.54-1.71A7.8 7.8 0 0 1 12 4a7.8 7.8 0 0 1 3.12.63q1.46.63 2.54 1.71t1.71 2.54T20 12a7.8 7.8 0 0 1-.63 3.12 8.1 8.1 0 0 1-1.71 2.54 8.1 8.1 0 0 1-2.54 1.71A7.8 7.8 0 0 1 12 20m0-1.6q1.28 0 2.46-.48a6.2 6.2 0 0 0 1.755-1.077.42.42 0 0 0 .01-.617L12.13 12.13a.44.44 0 0 1-.13-.314V6.044c0-.245-.2-.446-.444-.43Q9.164 5.755 7.46 7.46 5.6 9.32 5.6 12t1.86 4.54T12 18.4"/></svg>