<svg xmlns="http://www.w3.org/2000/svg" viewBox="0 0 24 24"><path fill="currentColor" fill-rule="nonzero" d="M12 2.083c4.015 0 7.417 3.065 7.417 7.417 0 1.228-.498 2.656-1.397 4.263-.561 1.003-1.268 2.056-2.09 3.138a45 45 0 0 1-2.732 3.257l-.367.393-.297.31a.75.75 0 0 1-1.068 0l-.476-.5-.385-.419-.205-.226A45 45 0 0 1 8.07 16.9c-.822-1.082-1.529-2.135-2.09-3.138-.9-1.607-1.397-3.035-1.397-4.263 0-4.352 3.402-7.417 7.417-7.417m0 1.5c-3.22 0-5.917 2.43-5.917 5.917 0 .92.42 2.127 1.206 3.53.524.937 1.194 1.934 1.975 2.965a43 43 0 0 0 2.64 3.146l.096.102.483-.529a43 43 0 0 0 2.253-2.72c.781-1.03 1.451-2.027 1.975-2.963.785-1.404 1.206-2.61 1.206-3.531 0-3.487-2.698-5.917-5.917-5.917m0 2.667a3.25 3.25 0 1 1 0 6.5 3.25 3.25 0 0 1 0-6.5m0 1.5a1.75 1.75 0 1 0 0 3.5 1.75 1.75 0 0 0 0-3.5"/></svg>