<svg xmlns="http://www.w3.org/2000/svg" viewBox="0 0 24 24"><g fill="none" fill-rule="evenodd"><path d="M2 2h20v20H2z"/><g stroke-linecap="round" stroke-linejoin="round"><path d="M2 2h20v20H2z"/><path fill="currentColor" fill-rule="nonzero" d="M16.167 10.417H7.833a2.417 2.417 0 0 0-2.416 2.416v5a2.417 2.417 0 0 0 2.416 2.417h8.334a2.417 2.417 0 0 0 2.416-2.417v-5a2.417 2.417 0 0 0-2.416-2.416m-8.334 1.5h8.334c.506 0 .916.41.916.916v5c0 .507-.41.917-.916.917H7.833a.917.917 0 0 1-.916-.917v-5c0-.506.41-.916.916-.916"/><path fill="currentColor" fill-rule="nonzero" d="M12 13.75a1.583 1.583 0 1 0 0 3.167 1.583 1.583 0 0 0 0-3.167M12 2.917A4.083 4.083 0 0 1 16.083 7a.75.75 0 1 1-1.5 0 2.583 2.583 0 0 0-5.161-.163L9.417 7v4.167a.75.75 0 0 1-1.493.101l-.007-.101V7A4.083 4.083 0 0 1 12 2.917"/></g></g></svg>