<svg xmlns="http://www.w3.org/2000/svg" viewBox="0 0 24 24"><path fill="currentColor" fill-rule="nonzero" d="M2.833 21.917a.75.75 0 0 1-.75-.75v-8.334a.75.75 0 0 1 .649-.743l.101-.007h8.334a.75.75 0 0 1 .743.649l.007.101v7.583h1.832l.001-5.916a.75.75 0 0 1 .648-.743l.102-.007h6.667a.75.75 0 0 1 .743.648l.007.102v6.667a.75.75 0 0 1-.649.743l-.101.007zm7.583-8.334H3.583v6.833h6.833zm10 1.667H15.25v5.166h5.166zM17.833 2.083a.75.75 0 0 1 .743.649l.007.101v2.96l3.034 2.274a.75.75 0 0 1 .293.5l.007.1v2.5a.75.75 0 0 1-1.493.101l-.007-.101-.001-2.126-2.583-1.937-2.583 1.937v2.126a.75.75 0 0 1-.648.743l-.102.007a.75.75 0 0 1-.743-.649l-.007-.101v-2.5a.75.75 0 0 1 .224-.535l.076-.065 3.033-2.277V2.833a.75.75 0 0 1 .75-.75"/></svg>