<svg xmlns="http://www.w3.org/2000/svg" viewBox="0 0 24 24"><path fill="currentColor" fill-rule="nonzero" d="M7.833 17.083a2.417 2.417 0 1 1 0 4.834 2.417 2.417 0 0 1 0-4.834m-2.5-15a.75.75 0 0 1 .724.552l.02.1 1.579 11.848h13.511a.75.75 0 0 1 .743.649l.007.101a.75.75 0 0 1-.649.743l-.101.007h-3.174l1.395 4.878a.75.75 0 0 1-1.408.508l-.034-.096-1.513-5.29H7a.75.75 0 0 1-.723-.551l-.02-.1L4.676 3.583H2.833a.75.75 0 0 1-.743-.648l-.007-.102a.75.75 0 0 1 .649-.743l.101-.007zm2.5 16.5a.917.917 0 1 0 0 1.834.917.917 0 0 0 0-1.834m12.5-16.5a.75.75 0 0 1 .75.75V12a.75.75 0 0 1-.75.75H9.5a.75.75 0 0 1-.75-.75V2.833a.75.75 0 0 1 .75-.75Zm-.75 1.5H10.25v7.667h9.333zm-3.416 1.834a.75.75 0 0 1 .101 1.493l-.101.007h-2.5a.75.75 0 0 1-.102-1.493l.102-.007z"/></svg>