<svg xmlns="http://www.w3.org/2000/svg" viewBox="0 0 24 24"><g fill="none" fill-rule="evenodd"><path d="M3 3h18v18H3z"/><path fill="currentColor" fill-rule="nonzero" stroke-linecap="square" d="M19.379 6.985A7.5 7.5 0 0 1 18.15 15.7l-.15.149v4.402a.75.75 0 0 1-.648.743L17.25 21a.75.75 0 0 1-.743-.648l-.007-.102v-4.725a.75.75 0 0 1 .25-.559 6 6 0 1 0-9.995-4.716l-.005.25v.75a.8.8 0 0 1-.036.228l-.043.107-1.166 2.329.83.415a.75.75 0 0 1 .408.566L6.75 15v2.25c0 .38.282.693.648.743L7.5 18h3a.75.75 0 0 1 .743.648l.007.102v1.5a.75.75 0 0 1-1.493.102l-.007-.102v-.75H7.5a2.25 2.25 0 0 1-2.245-2.096l-.005-.154v-1.787l-1.085-.542a.75.75 0 0 1-.375-.912l.04-.094 1.42-2.843v-.571a7.5 7.5 0 0 1 5.44-7.219l.25-.066a7.5 7.5 0 0 1 8.439 3.77M12.75 6a.75.75 0 0 1 .743.648l.007.102v.845c.276.07.535.18.774.32l.598-.597a.75.75 0 0 1 1.133.976l-.073.084-.597.598c.14.239.25.498.32.773l.845.001a.75.75 0 0 1 .102 1.493l-.102.007h-.845c-.07.275-.18.535-.32.774l.597.598a.75.75 0 0 1-.976 1.133l-.084-.073-.598-.597c-.239.14-.498.25-.773.32l-.001.845a.75.75 0 0 1-1.493.102L12 14.25v-.845a3 3 0 0 1-.774-.32l-.598.597a.75.75 0 0 1-1.133-.976l.073-.084.597-.598a3 3 0 0 1-.32-.774H9a.75.75 0 0 1-.102-1.493L9 9.75h.845c.07-.276.18-.535.32-.774l-.597-.598a.75.75 0 0 1 .976-1.133l.084.073.598.597c.239-.14.499-.25.774-.32V6.75a.75.75 0 0 1 .75-.75m0 3a1.5 1.5 0 1 0 0 3 1.5 1.5 0 0 0 0-3"/></g></svg>