<svg width="24" height="24" viewBox="0 0 24 24" fill="none" xmlns="http://www.w3.org/2000/svg">
<path d="M21.4083 8.91217C21.415 8.91125 21.4217 8.91032 21.4284 8.9094V19.7101C21.4217 19.7092 21.415 19.7084 21.4083 19.7075C21.4091 19.7015 21.4089 19.6956 21.4077 19.6898C21.4086 19.6529 21.4103 19.616 21.4103 19.579C21.4103 16.0662 21.4103 12.5534 21.4103 9.04059C21.4103 9.00367 21.4085 8.96676 21.4077 8.92985C21.4088 8.92402 21.409 8.91819 21.4083 8.91227V8.91217Z" fill="#B1DDE3"/>
<path d="M2.57129 4.28571C2.58359 4.28598 2.59589 4.28635 2.60819 4.28663C2.60502 4.2919 2.6043 4.29746 2.60602 4.30338C2.60331 4.34603 2.59824 4.38877 2.59824 4.43142C2.59779 5.88596 2.59797 7.34051 2.5977 8.79505C2.5977 8.83187 2.5948 8.86869 2.59327 8.90551C2.58594 8.90681 2.57861 8.90801 2.57129 8.90931C2.57129 7.36808 2.57129 5.82694 2.57129 4.28571Z" fill="#BFBFBF"/>
<path d="M2.59327 8.90551C2.5948 8.86869 2.5977 8.83187 2.5977 8.79505C2.59788 7.34051 2.59779 5.88596 2.59824 4.43142C2.59824 4.38877 2.60331 4.34603 2.60602 4.30328C2.64518 4.30356 2.68434 4.30402 2.72341 4.30402C5.64695 4.30402 8.57048 4.30402 11.494 4.30421C11.5331 4.30421 11.5722 4.30606 11.6113 4.30698C11.6167 4.31217 11.6219 4.31725 11.6272 4.32243C11.6284 4.3624 11.6305 4.40237 11.6305 4.44243C11.6307 9.46968 11.6307 14.4969 11.6308 19.5243C11.6308 19.5674 11.6324 19.6105 11.6333 19.6536C11.6309 19.6601 11.6284 19.6667 11.6261 19.6731C11.6212 19.6781 11.6163 19.6832 11.6114 19.6882C11.5814 19.6893 11.5514 19.6913 11.5213 19.6913C10.0866 19.6914 8.65188 19.6914 7.21711 19.6913C7.1841 19.6913 7.151 19.6892 7.11799 19.6881C7.1169 19.6512 7.11482 19.6143 7.11482 19.5775C7.11464 16.0642 7.11473 12.551 7.11446 9.03781C7.11446 9.00099 7.11138 8.96426 7.10976 8.92744C7.07674 8.92133 7.04373 8.90995 7.01072 8.90995C5.57785 8.90903 4.14498 8.90921 2.71202 8.90903C2.67295 8.90903 2.63387 8.90653 2.5948 8.90524L2.59327 8.90551Z" fill="black"/>
<path d="M21.4077 19.6897C21.4089 19.6955 21.4092 19.7014 21.4083 19.7074C21.3722 19.7083 21.3361 19.71 21.3 19.71C18.1162 19.71 14.9324 19.71 11.7485 19.71C11.7095 19.71 11.6705 19.707 11.6314 19.7055C11.6306 19.7022 11.6307 19.6988 11.6316 19.6956C11.6368 19.6933 11.6423 19.6913 11.6478 19.6894C11.6869 19.6902 11.726 19.6915 11.7652 19.6915C14.9432 19.6916 18.1213 19.6916 21.2994 19.6915C21.3355 19.6915 21.3716 19.6903 21.4077 19.6898V19.6897Z" fill="#50CCD5"/>
<path d="M2.5948 8.90533C2.63387 8.90662 2.67295 8.90912 2.71202 8.90912C4.14489 8.90931 5.57776 8.90912 7.01072 8.91005C7.04373 8.91005 7.07674 8.92143 7.10976 8.92753C5.63447 8.92753 4.15918 8.92781 2.6838 8.92688C2.65404 8.92688 2.6166 8.94529 2.5948 8.90533Z" fill="#7FBFBF"/>
<path d="M11.6315 19.6954C11.6306 19.6988 11.6305 19.702 11.6313 19.7053C11.5984 19.7069 11.5654 19.7098 11.5324 19.7098C10.093 19.71 8.6536 19.7101 7.21413 19.7088C7.18238 19.7088 7.14241 19.7302 7.1179 19.6882C7.15091 19.6893 7.18401 19.6914 7.21702 19.6914C8.65179 19.6915 10.0865 19.6915 11.5212 19.6914C11.5513 19.6914 11.5813 19.6893 11.6113 19.6883L11.6203 19.6894L11.6288 19.6865C11.6313 19.6889 11.6322 19.6919 11.6316 19.6954H11.6315Z" fill="#3F7F7F"/>
<path d="M11.6332 19.6537C11.6323 19.6106 11.6307 19.5675 11.6307 19.5244C11.6306 14.4971 11.6306 9.46986 11.6304 4.44252C11.6304 4.40255 11.6282 4.36259 11.6271 4.32253C11.6306 4.31707 11.6309 4.31143 11.6279 4.3056C11.6291 4.30023 11.6296 4.29486 11.6292 4.28931C11.6684 4.28894 11.7076 4.2882 11.7467 4.2882C14.5455 4.2882 17.3443 4.2882 20.1432 4.2882C20.1853 4.2882 20.2275 4.28987 20.2696 4.29079C20.2708 4.30217 20.2719 4.31355 20.273 4.32493C20.1052 4.62284 19.9367 4.92046 19.7695 5.21883C19.532 5.64292 19.296 6.06785 19.0584 6.49185C18.782 6.98496 18.5045 7.47743 18.2275 7.97017C18.0657 8.2579 17.9038 8.54553 17.7424 8.83344C17.729 8.85731 17.7181 8.88266 17.7061 8.90727C17.7039 8.91301 17.7016 8.91874 17.6992 8.92457C17.6907 8.93318 17.6797 8.94039 17.674 8.95066C17.4807 9.29658 17.2888 9.64333 17.0947 9.98879C16.9201 10.2996 16.7419 10.6083 16.5674 10.919C16.3598 11.2886 16.1554 11.6601 15.9477 12.0296C15.7159 12.4419 15.4816 12.8524 15.2493 13.2643C14.996 13.7134 14.7433 14.1629 14.4913 14.6128C14.2736 15.0012 14.0573 15.3905 13.84 15.7793C13.7136 16.0055 13.5863 16.2313 13.4593 16.4573C13.3457 16.6594 13.232 16.8615 13.1183 17.0636C12.9927 17.2869 12.8672 17.5102 12.7417 17.7334C12.613 17.9622 12.4842 18.1909 12.3556 18.4197C12.2316 18.6403 12.108 18.8612 11.9838 19.0816C11.8758 19.2731 11.767 19.4642 11.6585 19.6555C11.6501 19.6548 11.6417 19.6542 11.6333 19.6535L11.6332 19.6537Z" fill="#ED6860"/>
<path d="M11.6293 4.28941C11.6296 4.29486 11.6291 4.30032 11.628 4.30569C11.6223 4.30486 11.6167 4.30532 11.6113 4.30717C11.5723 4.30615 11.5332 4.30439 11.494 4.30439C8.57048 4.3043 5.64695 4.3043 2.72341 4.30421C2.68425 4.30421 2.64518 4.30365 2.60602 4.30347C2.6043 4.29755 2.60502 4.292 2.60819 4.28672C2.64129 4.28635 2.67439 4.28571 2.70759 4.28571C5.64243 4.28571 8.57727 4.28571 11.5121 4.28589C11.5512 4.28589 11.5903 4.2882 11.6293 4.2895V4.28941Z" fill="#7F3F3F"/>
<path d="M17.6992 8.92466C17.7015 8.91893 17.7038 8.91319 17.7061 8.90736C17.7453 8.90801 17.7843 8.90921 17.8234 8.90921C18.9823 8.90931 20.1412 8.90921 21.3 8.9094C21.3361 8.9094 21.3722 8.91116 21.4082 8.91208C21.4088 8.918 21.4086 8.92383 21.4076 8.92966C21.3686 8.92901 21.3295 8.9279 21.2904 8.9279C20.1324 8.92781 18.9744 8.9279 17.8164 8.92772C17.7773 8.92772 17.7382 8.92577 17.6991 8.92476L17.6992 8.92466Z" fill="#6CA6B5"/>
<path d="M20.273 4.32512C20.2719 4.31374 20.2708 4.30236 20.2696 4.29098C20.3021 4.29903 20.2848 4.31235 20.273 4.32512Z" fill="#F58D87"/>
<path d="M17.6992 8.92466C17.7383 8.92568 17.7774 8.92762 17.8165 8.92762C18.9745 8.92781 20.1325 8.92772 21.2905 8.92781C21.3296 8.92781 21.3686 8.92901 21.4077 8.92957C21.4086 8.96648 21.4103 9.0034 21.4103 9.0404C21.4103 12.5533 21.4103 16.066 21.4103 19.5789C21.4103 19.6158 21.4086 19.6527 21.4077 19.6896C21.3715 19.6902 21.3355 19.6914 21.2994 19.6914C18.1213 19.6914 14.9432 19.6914 11.7652 19.6914C11.726 19.6914 11.6869 19.69 11.6478 19.6892C11.6514 19.678 11.655 19.6668 11.6586 19.6556C11.7671 19.4642 11.8759 19.2732 11.9839 19.0817C12.1081 18.8612 12.2317 18.6404 12.3557 18.4198C12.4843 18.191 12.6131 17.9622 12.7418 17.7335C12.8673 17.5103 12.9928 17.287 13.1184 17.0637C13.232 16.8616 13.3458 16.6595 13.4594 16.4574C13.5864 16.2314 13.7136 16.0056 13.8401 15.7794C14.0574 15.3906 14.2737 15.0013 14.4914 14.6129C14.7434 14.163 14.9961 13.7136 15.2493 13.2644C15.4816 12.8525 15.716 12.442 15.9477 12.0297C16.1555 11.6602 16.3598 11.2886 16.5674 10.9191C16.742 10.6084 16.9202 10.2996 17.0948 9.98888C17.2889 9.64342 17.4808 9.29667 17.6741 8.95075C17.6798 8.94048 17.6908 8.93327 17.6993 8.92466H17.6992Z" fill="#169AAB"/>
<path d="M11.6585 19.6556C11.6549 19.6668 11.6513 19.6781 11.6477 19.6893C11.6423 19.6911 11.6368 19.6932 11.6315 19.6954C11.6322 19.6919 11.6312 19.6889 11.6287 19.6865C11.6296 19.6816 11.6287 19.6772 11.6259 19.6732C11.6283 19.6667 11.6308 19.6602 11.6331 19.6537C11.6415 19.6543 11.6499 19.655 11.6584 19.6556H11.6585Z" fill="#C1554E"/>
<path d="M11.6113 4.30717C11.6167 4.30532 11.6223 4.30486 11.628 4.30569C11.6309 4.31152 11.6307 4.31716 11.6272 4.32262C11.6219 4.31744 11.6167 4.31235 11.6113 4.30717Z" fill="black"/>
<path d="M11.626 19.6732C11.6287 19.6773 11.6297 19.6816 11.6288 19.6865L11.6203 19.6894L11.6113 19.6883C11.6162 19.6833 11.6211 19.6782 11.626 19.6732Z" fill="black"/>
</svg>
