<svg width="24" height="24" viewBox="0 0 24 24" fill="none" xmlns="http://www.w3.org/2000/svg">
<rect width="24" height="24" rx="3" fill="#14FFA8"/>
<path fill-rule="evenodd" clip-rule="evenodd" d="M21 12C21 16.9706 16.9706 21 12 21C7.02951 21 3 16.9706 3 12C3 7.02951 7.02951 3 12 3C16.9706 3 21 7.02951 21 12ZM18.75 12C18.75 15.7279 15.7279 18.75 12 18.75C8.27213 18.75 5.25 15.7279 5.25 12C5.25 8.27213 8.27213 5.25 12 5.25C13.3952 5.25 14.6916 5.67334 15.7677 6.39856L12.7143 9.45188L14.5325 11.27L17.5889 8.21374C18.3218 9.29346 18.75 10.5967 18.75 12Z" fill="black"/>
</svg>
