<svg width="24" height="24" viewBox="0 0 24 24" fill="none" xmlns="http://www.w3.org/2000/svg">
<path d="M20.7812 9.11811C20.7874 9.11725 20.7938 9.11639 20.8 9.11552V19.1964C20.7938 19.1956 20.7874 19.1948 20.7812 19.1939C20.782 19.1884 20.7818 19.1829 20.7807 19.1774C20.7815 19.143 20.783 19.1085 20.783 19.0741C20.7831 15.7953 20.7831 12.5167 20.783 9.23797C20.783 9.20351 20.7814 9.16906 20.7807 9.13461C20.7817 9.12917 20.7819 9.12364 20.7812 9.11811Z" fill="#B1DDE3"/>
<path d="M3.19971 4.79999C3.21119 4.80025 3.22267 4.80059 3.23415 4.80085C3.23119 4.80577 3.23052 4.81095 3.23212 4.81648C3.22959 4.85629 3.22486 4.89618 3.22486 4.93599C3.22444 6.29359 3.22461 7.65119 3.22436 9.00879C3.22436 9.04316 3.22165 9.07753 3.22022 9.1119C3.21338 9.11311 3.20654 9.11423 3.19971 9.11544C3.19971 7.67692 3.19971 6.2385 3.19971 4.79999Z" fill="#BFBFBF"/>
<path d="M20.7807 19.1774C20.7818 19.1829 20.782 19.1884 20.7812 19.1939C20.7475 19.1948 20.7138 19.1962 20.6801 19.1962C17.7085 19.1963 14.7369 19.1963 11.7653 19.1962C11.7288 19.1962 11.6924 19.1935 11.656 19.1921C11.6552 19.189 11.6561 19.1829 11.6561 19.1829C11.661 19.1807 11.6661 19.1788 11.6712 19.1771C11.7078 19.1778 11.7443 19.1791 11.7808 19.1791C14.747 19.1791 17.7133 19.1791 20.6796 19.1791C20.7132 19.1791 20.747 19.1779 20.7807 19.1774Z" fill="#50CCD5"/>
<path d="M3.22022 9.1119C3.25669 9.11311 3.29459 9.11518 3.33106 9.11518C4.66851 9.11535 6.00588 9.11518 7.34325 9.11604C7.37406 9.11604 7.40487 9.12666 7.43568 9.13236C6.05872 9.13236 4.68176 9.13271 3.30472 9.13184C3.27695 9.13184 3.24056 9.1492 3.22022 9.1119Z" fill="#7FBFBF"/>
<path d="M11.6561 19.1829C11.6561 19.1829 11.6552 19.189 11.656 19.1921C11.6252 19.1936 11.5943 19.1961 11.5635 19.1961C10.2201 19.1962 8.87663 19.1964 7.5331 19.1952C7.50347 19.1952 7.46624 19.2151 7.44337 19.1759C7.47418 19.1769 7.50507 19.1788 7.53588 19.1788C8.87503 19.179 10.2141 19.179 11.5532 19.1788C11.5813 19.1788 11.6093 19.177 11.6373 19.176L11.6456 19.1771L11.6535 19.1743C11.6559 19.1766 11.6567 19.1796 11.6561 19.1829Z" fill="#3F7F7F"/>
<path d="M11.6577 19.1437C11.6569 19.1034 11.6554 19.0632 11.6554 19.0229C11.6553 14.3307 11.6553 9.63846 11.6551 4.94627C11.6551 4.90888 11.6532 4.87157 11.6521 4.83427C11.6553 4.82917 11.6555 4.82399 11.6527 4.81855C11.6538 4.81354 11.6543 4.80854 11.6539 4.80336C11.6905 4.80301 11.727 4.80232 11.7636 4.80232C14.3759 4.80232 16.9881 4.80232 19.6004 4.80232C19.6397 4.80232 19.6791 4.80387 19.7184 4.80474C19.7195 4.81536 19.7205 4.82598 19.7216 4.8366C19.565 5.11465 19.4077 5.39244 19.2517 5.67092C19.03 6.06675 18.8097 6.46336 18.5879 6.8591C18.33 7.31935 18.071 7.77899 17.8124 8.23889C17.6614 8.50744 17.5103 8.77591 17.3596 9.04463C17.3471 9.06691 17.337 9.09057 17.3258 9.11354C17.3237 9.11889 17.3216 9.12424 17.3194 9.12968C17.3114 9.13771 17.3011 9.14445 17.2958 9.15404C17.1154 9.4769 16.9363 9.80054 16.7552 10.123C16.5921 10.413 16.4259 10.7012 16.2629 10.9912C16.0692 11.3362 15.8784 11.6829 15.6845 12.0278C15.4683 12.4126 15.2495 12.7958 15.0327 13.1802C14.7963 13.5994 14.5605 14.0189 14.3252 14.4388C14.122 14.8014 13.9202 15.1647 13.7173 15.5276C13.5993 15.7387 13.4806 15.9495 13.362 16.1603C13.256 16.349 13.1498 16.5376 13.0437 16.7263C12.9266 16.9346 12.8094 17.1431 12.6922 17.3515C12.5721 17.565 12.4519 17.7785 12.3319 17.992C12.2161 18.1979 12.1008 18.4041 11.9848 18.6098C11.884 18.7885 11.7825 18.9669 11.6813 19.1454C11.6734 19.1448 11.6656 19.1443 11.6577 19.1437Z" fill="#1F845E"/>
<path d="M11.6539 4.80336C11.6543 4.80854 11.6538 4.81354 11.6527 4.81855C11.6473 4.81778 11.6423 4.81812 11.6372 4.81985C11.6007 4.81898 11.5642 4.81726 11.5277 4.81726C8.79905 4.81709 6.07037 4.81709 3.34169 4.81709C3.30522 4.81709 3.26867 4.81674 3.23212 4.81648C3.23052 4.81095 3.23119 4.80577 3.23415 4.80085C3.26504 4.80051 3.29594 4.79999 3.32692 4.79999C6.06615 4.79999 8.80538 4.79999 11.5446 4.80016C11.5811 4.80016 11.6175 4.80215 11.6539 4.80336Z" fill="#7F3F3F"/>
<path d="M17.3194 9.12968C17.3216 9.12424 17.3237 9.11889 17.3258 9.11354C17.3623 9.11414 17.3988 9.11535 17.4353 9.11535C18.5169 9.11544 19.5986 9.11535 20.6801 9.11552C20.7138 9.11552 20.7476 9.11725 20.7812 9.11811C20.7819 9.12364 20.7817 9.12917 20.7807 9.13461C20.7442 9.134 20.7077 9.13279 20.6712 9.13279C19.5904 9.13271 18.5095 9.13279 17.4287 9.13262C17.3922 9.13262 17.3558 9.13063 17.3194 9.12968Z" fill="#6CA6B5"/>
<path d="M19.7184 4.80474C19.7195 4.81536 19.7205 4.82598 19.7216 4.8366C19.7326 4.82468 19.7487 4.81225 19.7184 4.80474Z" fill="#F58D87"/>
<path d="M17.3194 9.12968C17.3558 9.13063 17.3922 9.13262 17.4287 9.13262C18.5095 9.13279 19.5904 9.13271 20.6712 9.13279C20.7077 9.13279 20.7442 9.134 20.7807 9.13461C20.7814 9.16906 20.783 9.20351 20.783 9.23797C20.7831 12.5167 20.7831 15.7953 20.783 19.0741C20.783 19.1085 20.7815 19.143 20.7807 19.1774C20.747 19.1779 20.7132 19.1791 20.6796 19.1791C17.7133 19.1791 14.747 19.1791 11.7808 19.1791C11.7443 19.1791 11.7078 19.1778 11.6712 19.1771C11.6746 19.1666 11.6779 19.1559 11.6813 19.1454C11.7825 18.9669 11.884 18.7885 11.9848 18.6098C12.1008 18.4041 12.2161 18.1979 12.3319 17.992C12.4519 17.7785 12.5721 17.565 12.6922 17.3515C12.8094 17.1431 12.9266 16.9346 13.0437 16.7263C13.1498 16.5376 13.256 16.349 13.362 16.1603C13.4806 15.9495 13.5993 15.7387 13.7173 15.5276C13.9202 15.1647 14.122 14.8014 14.3252 14.4388C14.5605 14.0189 14.7963 13.5994 15.0327 13.1802C15.2495 12.7958 15.4683 12.4126 15.6845 12.0278C15.8784 11.6829 16.0692 11.3362 16.2629 10.9912C16.4259 10.7012 16.5921 10.413 16.7552 10.123C16.9363 9.80054 17.1154 9.4769 17.2958 9.15404C17.3011 9.14445 17.3114 9.13771 17.3194 9.12968Z" fill="#0DCC8D"/>
<path d="M11.6813 19.1454C11.6779 19.1559 11.6746 19.1666 11.6712 19.1771C11.6661 19.1788 11.661 19.1807 11.6561 19.1829C11.6567 19.1796 11.6559 19.1766 11.6535 19.1743C11.6544 19.1698 11.6536 19.1656 11.651 19.1619C11.6532 19.1558 11.6555 19.1497 11.6577 19.1437C11.6656 19.1443 11.6734 19.1448 11.6813 19.1454Z" fill="#C1554E"/>
<path d="M11.6372 4.81985C11.6423 4.81812 11.6473 4.81778 11.6527 4.81855C11.6555 4.82399 11.6553 4.82917 11.6521 4.83427C11.6471 4.82943 11.6422 4.82468 11.6372 4.81985Z" fill="black"/>
<path d="M11.651 19.1619C11.6536 19.1656 11.6544 19.1698 11.6535 19.1743L11.6456 19.1771L11.6373 19.176C11.6419 19.1713 11.6464 19.1665 11.651 19.1619Z" fill="black"/>
<path d="M3.23212 4.81648C3.22959 4.85629 3.22486 4.89618 3.22486 4.93599C3.22444 6.29359 3.22461 7.65119 3.22436 9.00879C3.22436 9.04316 3.22165 9.07753 3.22022 9.1119C3.25669 9.11311 3.29459 9.11518 3.33106 9.11518C4.66851 9.11535 6.00588 9.11518 7.34325 9.11604C7.37406 9.11604 7.40487 9.12666 7.43568 9.13236C7.4372 9.16673 7.44007 9.20101 7.44007 9.23538L7.44041 19.0726C7.44041 19.107 7.44235 19.1414 7.44337 19.1759C7.47418 19.1769 7.50507 19.1788 7.53588 19.1788C8.87503 19.179 10.2141 19.179 11.5532 19.1788C11.5813 19.1788 11.6093 19.177 11.6373 19.176L11.651 19.1619L11.6577 19.1437C11.6569 19.1034 11.6554 19.0632 11.6554 19.0229L11.6551 4.94627C11.6551 4.90888 11.6532 4.87157 11.6521 4.83427L11.6372 4.81985C11.6007 4.81898 11.5642 4.81726 11.5277 4.81726L3.34169 4.81709C3.30522 4.81709 3.26867 4.81674 3.23212 4.81648Z" fill="#0DCC8D"/>
</svg>
