<svg xmlns="http://www.w3.org/2000/svg" viewBox="0 0 24 24"><g fill="none" fill-rule="evenodd"><path fill="none" d="M0 0h24v24H0z"/><path fill="currentColor" d="M14.042 4.079c.815-.267 1.695.165 1.966.965a1.5 1.5 0 0 1 .08.482v10.968c0 .843-.696 1.526-1.554 1.526a1.6 1.6 0 0 1-.492-.079l-3.022-.989v2.351c0 .43-.389.749-.807.69l-.097-.02-5.912-1.659a.7.7 0 0 1-.507-.568l-.008-.102v-3.092l-1.204-.393a.7.7 0 0 1-.478-.563L2 13.498V8.522c0-.3.195-.566.485-.66ZM5.108 15.016v2.103l4.493 1.26v-1.892zm9.426-9.622-.043.006L3.42 9.023v3.973L14.49 16.62l.043.006c.074 0 .135-.059.135-.132V5.526a.136.136 0 0 0-.178-.126Zm4.32 8.702.094.045 1.435.83a.69.69 0 0 1 .252.953.716.716 0 0 1-.877.293l-.094-.045-1.436-.83a.69.69 0 0 1-.252-.953.716.716 0 0 1 .877-.293m2.437-3.783c.391 0 .709.312.709.697a.7.7 0 0 1-.613.69l-.096.007H19.6a.703.703 0 0 1-.71-.697c0-.353.268-.644.614-.69l.096-.007zm-.656-4.217a.69.69 0 0 1-.165.895l-.087.058-1.435.83a.717.717 0 0 1-.972-.248.69.69 0 0 1 .166-.894l.086-.06 1.436-.828a.717.717 0 0 1 .971.247"/></g></svg>