<svg xmlns="http://www.w3.org/2000/svg" fill="none" viewBox="0 0 24 24"><path fill="currentColor" d="M9.166 3.295A.75.75 0 0 1 9.762 3H13a.75.75 0 0 1 .583.278l4.25 5.25A.75.75 0 0 1 18 9v1.25a.75.75 0 0 1-1.5 0v-.984L12.642 4.5h-2.51L6.5 9.254V19.5h5.75a.75.75 0 0 1 0 1.5h-6.5a.75.75 0 0 1-.75-.75V9a.75.75 0 0 1 .154-.455z"/><path fill="currentColor" fill-rule="evenodd" d="M9 10.5a2.5 2.5 0 1 1 5 0 2.5 2.5 0 0 1-5 0m2.5-1a1 1 0 1 0 0 2 1 1 0 0 0 0-2M20.257 13.726A2.55 2.55 0 0 0 17 13.471a2.55 2.55 0 0 0-3.257.255 2.476 2.476 0 0 0 0 3.537l2.73 2.688a.75.75 0 0 0 1.053 0l2.731-2.688a2.476 2.476 0 0 0 0-3.537m-2.507 1.07a1.044 1.044 0 0 1 1.455 0 .976.976 0 0 1 0 1.398L17 18.364l-2.204-2.17a.976.976 0 0 1 0-1.399 1.044 1.044 0 0 1 1.582.155.75.75 0 0 0 1.244 0q.057-.086.128-.155" clip-rule="evenodd"/></svg>