<svg xmlns="http://www.w3.org/2000/svg" fill="none" viewBox="0 0 24 24"><path fill="currentColor" fill-rule="evenodd" d="M7.172 3.25h-.263a.75.75 0 0 0-.53.22l-2.91 2.909a.75.75 0 0 0-.219.53v10.182a.75.75 0 0 0 .227.538l2.89 2.888a.75.75 0 0 0 .554.233H17.08a.75.75 0 0 0 .553-.23l2.888-2.888a.75.75 0 0 0 .23-.554V6.922a.75.75 0 0 0-.232-.556L17.633 3.48a.75.75 0 0 0-.555-.231zm8.595 1.5h-7.36l1.135 2.136h4.943zm1.473.46-1.386 2.31.626.627 2.31-1.387zm2.01 3.024-2.136 1.282v4.968l2.136 1.282zm-.46 9.006-2.31-1.387-.626.627 1.386 2.31zm-3.023 2.01-1.282-2.136H9.54L8.243 19.25zm-9.003-.456 1.398-2.299-.642-.641-2.31 1.386zM4.75 15.766l2.136-1.281V9.542L4.75 8.407zm.335-8.88 2.413 1.282.67-.67-1.282-2.414zm3.301 2.516 1.016-1.016h5.197l1.015 1.016v5.196l-1.016 1.016H9.403l-1.016-1.016z" clip-rule="evenodd"/></svg>