<svg xmlns="http://www.w3.org/2000/svg" fill="none" viewBox="0 0 24 24"><path fill="currentColor" d="M19.182 3.727c0 .602.49 1.091 1.09 1.091a.728.728 0 0 1 0 1.455c-.6 0-1.09.49-1.09 1.09a.728.728 0 0 1-1.455 0c0-.6-.49-1.09-1.09-1.09a.728.728 0 0 1 0-1.455c.6 0 1.09-.49 1.09-1.09a.728.728 0 0 1 1.455 0"/><path fill="currentColor" fill-rule="evenodd" d="M13.197 7.56a.75.75 0 0 1 1.06 0l2.182 2.182a.75.75 0 0 1 0 1.061L7.712 19.53a.75.75 0 0 1-1.06 0L4.47 17.35a.75.75 0 0 1 0-1.061l6.54-6.541.005-.005.005-.004zm1.651 2.713-1.12 1.12-1.122-1.12 1.121-1.121zm-2.181 2.182-1.122-1.122-5.484 5.485 1.12 1.121z" clip-rule="evenodd"/><path fill="currentColor" d="M10.818 4.818c-.601 0-1.09-.49-1.09-1.09a.728.728 0 0 0-1.455 0c0 .6-.49 1.09-1.091 1.09a.728.728 0 0 0 0 1.455c.601 0 1.09.49 1.09 1.09a.728.728 0 0 0 1.455 0c0-.6.49-1.09 1.091-1.09a.728.728 0 0 0 0-1.455M17.727 16.818c0-.601-.49-1.09-1.09-1.09a.728.728 0 0 1 0-1.455c.6 0 1.09-.49 1.09-1.091a.728.728 0 0 1 1.455 0c0 .601.49 1.09 1.09 1.09a.728.728 0 0 1 0 1.455c-.6 0-1.09.49-1.09 1.091a.728.728 0 0 1-1.455 0"/></svg>