<svg xmlns="http://www.w3.org/2000/svg" fill="none" viewBox="0 0 24 24"><path fill="currentColor" fill-rule="evenodd" d="M19.5 4.25a2.417 2.417 0 0 1 2.417 2.417v5.583a.75.75 0 1 1-1.5 0V6.757l-2.053 2.107-4.54 4.537-1.293 1.296a.75.75 0 0 1-.977.073l-.084-.073-1.334-1.334L4.54 18.25h7.711a.75.75 0 0 1 0 1.5H4.5a2.417 2.417 0 0 1-2.416-2.417V6.667A2.417 2.417 0 0 1 4.5 4.25zM3.584 6.759v10.333l5.489-4.793L5.63 8.857zm15.72-1.009H4.694l2.003 2.053L12 13.106l5.298-5.296z" clip-rule="evenodd"/><path fill="currentColor" d="M17.338 15.23a.784.784 0 0 0-1.108 1.108L17.892 18l-1.662 1.662a.783.783 0 1 0 1.108 1.108L19 19.109l1.662 1.662a.784.784 0 1 0 1.108-1.108L20.108 18l1.662-1.662a.784.784 0 0 0-1.108-1.109L19 16.893z"/></svg>