<svg xmlns="http://www.w3.org/2000/svg" fill="none" viewBox="0 0 36 36"><rect width="35" height="35" x=".5" y=".5" fill="currentColor" rx="7.5"/><rect width="35" height="35" x=".5" y=".5" stroke="currentColor" rx="7.5"/><g clip-path="url(#a)"><mask id="b" width="30" height="11" x="3" y="13" maskUnits="userSpaceOnUse" style="mask-type:luminance"><path fill="currentColor" d="M3.7 13.257v9.885h29.295v-9.885"/></mask><g mask="url(#b)"><path fill="currentColor" d="m30.226 17.561-.027.32c-.186 2.285-.93 2.989-1.846 2.989-.824 0-1.409-.558-1.29-2.046l.027-.333c.186-2.272.93-2.99 1.847-2.99.81 0 1.409.572 1.29 2.06m-20.595 0-.026.32c-.186 2.285-.93 2.989-1.847 2.989-.824 0-1.408-.558-1.289-2.046l.027-.333c.186-2.272.93-2.99 1.847-2.99.81 0 1.408.572 1.288 2.06m19.572-4.304c-1.46 0-2.647.45-3.486 1.38q.18-.484.19-1.181h-5.115c-1.116 0-1.754.491-2.192 1.754l.226-1.754h-5.169c-.946 0-1.596.452-1.83 1.338-.64-1.026-1.779-1.537-3.219-1.537-2.737 0-4.517 1.58-4.836 4.955l-.04.426c-.279 3.016 1.302 4.504 3.76 4.504 2.737 0 4.518-1.594 4.837-4.97l.04-.425c.072-.773.019-1.446-.14-2.02h2.318l-.664 5.688c-.133 1.129.479 1.647 1.502 1.647.624 0 .837-.04 1.076-.08l.824-7.254h2.697l-.665 5.687c-.132 1.129.479 1.647 1.502 1.647.624 0 .837-.04 1.076-.08l.824-7.254h1.329q.688 0 1.117-.318c-.418.737-.691 1.668-.799 2.802l-.04.426c-.278 3.016 1.303 4.504 3.76 4.504 2.738 0 4.518-1.594 4.837-4.97l.04-.425c.28-3.002-1.302-4.49-3.76-4.49"/></g></g><defs><clipPath id="a"><path fill="currentColor" d="M3.7 13.25H33v9.892H3.7z"/></clipPath></defs></svg>