<svg xmlns="http://www.w3.org/2000/svg" fill="none" viewBox="0 0 22 22"><path fill="currentColor" d="M1.833 11a9.167 9.167 0 0 1 9.662-9.154.688.688 0 0 1-.073 1.374q-.21-.011-.422-.011a7.792 7.792 0 1 0 7.78 7.37.688.688 0 0 1 1.373-.073q.014.245.014.495a9.167 9.167 0 0 1-18.334 0"/><path fill="currentColor" d="M5.5 10.988a5.51 5.51 0 0 1 4.452-5.41.688.688 0 0 1 .263 1.35 4.138 4.138 0 1 0 4.857 4.858.688.688 0 0 1 1.35.263A5.512 5.512 0 0 1 5.5 10.989"/><path fill="currentColor" fill-rule="evenodd" d="M15.596 1.56a.917.917 0 0 1 1.447.447l.694 2.256 2.256.694a.916.916 0 0 1 .36 1.542l-2.84 2.688a1.6 1.6 0 0 1-1.103.439h-3.063l-1.86 1.86a.688.688 0 0 1-.973-.972l1.861-1.86V5.59c0-.41.157-.804.439-1.102L15.5 1.647zM13.75 8.25h2.66a.23.23 0 0 0 .158-.062l2.27-2.149-1.853-.569a.69.69 0 0 1-.455-.455l-.57-1.854-2.147 2.272a.23.23 0 0 0-.063.157z" clip-rule="evenodd"/></svg>