<svg xmlns="http://www.w3.org/2000/svg" fill="none" viewBox="0 0 36 36"><rect width="36" height="36" fill="currentColor" rx="8"/><path fill="currentColor" fill-rule="evenodd" d="M17.806 7.7h.285c.747.024 1.495.13 2.208.358 1.036.304 2 .82 2.89 1.43.102.063.197.17.329.164.062-.04.077-.114.078-.184.01-.31-.009-.622.006-.932a.33.33 0 0 1 .354-.316c1.163-.004 2.328 0 3.492-.001a.38.38 0 0 1 .352.167v19.212a.39.39 0 0 1-.352.168l-3.447.001c-.177.014-.375-.102-.396-.288-.032-.373.022-.75-.024-1.12-.036-.136-.193-.07-.264-.006-1.368 1.074-3.04 1.789-4.786 1.9-.846.077-1.697-.012-2.533-.146-.984-.197-1.953-.509-2.825-1.011-1.05-.564-1.972-1.342-2.78-2.214-1.083-1.195-1.889-2.649-2.276-4.217a11.2 11.2 0 0 1-.317-2.528v-.33c.026-1.637.41-3.278 1.191-4.721.674-1.225 1.61-2.3 2.702-3.17 1.143-.926 2.488-1.62 3.927-1.946.714-.175 1.452-.248 2.186-.27m-.67 3.911a6 6 0 0 0-1.073.254 5.35 5.35 0 0 0-2.38 1.722c-.917 1.156-1.387 2.63-1.447 4.095-.052 1.418.213 2.878.943 4.108.618 1.054 1.588 1.906 2.73 2.347 1.483.576 3.194.458 4.62-.228.79-.398 1.483-.996 1.956-1.745.681-1.054.954-2.317 1.02-3.556.041-.942-.005-1.895-.214-2.817-.24-1.093-.756-2.155-1.598-2.913-.558-.51-1.252-.854-1.972-1.072a6.8 6.8 0 0 0-2.584-.195" clip-rule="evenodd"/></svg>