<svg xmlns="http://www.w3.org/2000/svg" fill="none" viewBox="0 0 36 36"><rect width="35" height="35" x=".5" y=".5" fill="currentColor" rx="7.5"/><rect width="35" height="35" x=".5" y=".5" stroke="currentColor" rx="7.5"/><path fill="currentColor" d="M24.214 19.945a.8.8 0 0 1-.81.794.8.8 0 0 1-.81-.794c0-.438.362-.794.81-.794s.81.356.81.794"/><path fill="currentColor" fill-rule="evenodd" d="M12.869 8.792a.84.84 0 0 0-.745.455l-3.242 6.352a.8.8 0 0 0-.09.377c0 .937.275 1.748.81 2.333.438.48 1.008.761 1.62.85v6.344c0 .46.375.832.837.832h6.483a.834.834 0 0 0 .835-.832.834.834 0 0 0-.835-.832h-5.648v-5.76c.293-.139.558-.325.785-.549.52.513 1.239.828 2.026.828.788 0 1.506-.316 2.026-.828.252.248.55.45.88.592a5 5 0 0 0-.095.991c0 .818.328 1.671.73 2.431.41.778.949 1.547 1.472 2.218a27 27 0 0 0 2.048 2.325l.037.036.01.01.005.005a.84.84 0 0 0 1.172 0l.004-.005.01-.01.038-.036.135-.137a26.672 26.672 0 0 0 1.913-2.187c.523-.672 1.061-1.441 1.472-2.219.402-.76.73-1.613.73-2.43 0-1.606-.695-2.838-1.685-3.651a.83.83 0 0 0-.027-.696l-3.241-6.352a.84.84 0 0 0-.746-.455zm10.535 6.351c-1.564 0-3.257.786-4.183 2.26a1.15 1.15 0 0 1-.654-1.03.834.834 0 0 0-.836-.833.834.834 0 0 0-.836.832c0 .625-.52 1.153-1.19 1.153s-1.19-.528-1.19-1.152a.834.834 0 0 0-.836-.833.834.834 0 0 0-.836.832c0 .625-.52 1.153-1.19 1.153-.345 0-.62-.123-.814-.335-.178-.194-.338-.52-.37-1.027l2.913-5.707h8.699l2.46 4.822a5 5 0 0 0-1.137-.135m0 1.665c-1.587 0-3.216 1.153-3.216 3.137 0 .414.179.98.537 1.656.348.66.823 1.344 1.313 1.973.488.626.978 1.181 1.347 1.58l.019.02.018-.02c.37-.399.86-.954 1.348-1.58.49-.63.965-1.314 1.313-1.973.358-.677.537-1.242.537-1.656 0-1.984-1.63-3.137-3.216-3.137" clip-rule="evenodd"/></svg>