<svg xmlns="http://www.w3.org/2000/svg" fill="none" viewBox="0 0 36 36"><rect width="35" height="35" x=".5" y=".5" fill="currentColor" rx="7.5"/><rect width="35" height="35" x=".5" y=".5" stroke="currentColor" rx="7.5"/><path fill="currentColor" d="M11.02 6.276v6.532h6.532V6.276zm7.684 0v6.532l6.532-6.532zm-7.684 7.685v6.532h6.532v-6.532zm7.684 0v6.532h6.532zM17.46 24.224q-.054 0-.108.004a1.153 1.153 0 0 0-1.23 1.26v.385h-.457v.745h.457v2.329h.922V26.59h1.05v-.742h-1.05v-.284c0-.384.181-.584.504-.584l.004-.004a.86.86 0 0 1 .484.135l.146-.692a1.4 1.4 0 0 0-.721-.196m-12.972.069v4.654h1.045v-2.095l1.525 2.095h1.21l-1.794-2.38 1.768-2.274H7.058l-1.525 2.133v-2.133zm14.128 0v4.653h.922v-4.653zm11.489 0v1.921a1.35 1.35 0 0 0-.984-.418c-.872 0-1.464.718-1.464 1.629a1.49 1.49 0 0 0 1.464 1.602c.372.005.73-.147.984-.419v.338H31v-4.653zm-4.077 1.483h-.061v.004a1.3 1.3 0 0 0-.984.438v-.384h-.9v3.113h.904v-2.033a.8.8 0 0 1 .664-.354.572.572 0 0 1 .6.65v1.736h.907v-1.92a1.154 1.154 0 0 0-1.13-1.25m-16.426.012c-.865 0-1.46.718-1.46 1.63a1.49 1.49 0 0 0 1.46 1.601c.355.005.697-.134.949-.384v.311h.899V25.85h-.9v.323a1.36 1.36 0 0 0-.948-.384m11.973 0c-.865 0-1.46.718-1.46 1.63a1.49 1.49 0 0 0 1.46 1.601c.355.005.697-.134.949-.384v.311h.899V25.85h-.9v.323a1.36 1.36 0 0 0-.948-.384m-9.487.061v1.922a1.153 1.153 0 0 0 1.191 1.248c.38-.002.742-.169.991-.457v.384h.9V25.85h-.9v2.033a.84.84 0 0 1-.664.353.58.58 0 0 1-.604-.649V25.85zm-2.194.692c.25-.002.49.104.657.292v1.118a.87.87 0 0 1-.657.292.853.853 0 0 1 0-1.702m11.973 0a.87.87 0 0 1 .657.292v1.118a.87.87 0 0 1-.657.292.853.853 0 0 1 0-1.702m7.546.004a.87.87 0 0 1 .692.33v1.042a.87.87 0 0 1-.692.33.853.853 0 0 1 0-1.702"/></svg>