<svg xmlns="http://www.w3.org/2000/svg" fill="none" viewBox="0 0 36 36"><rect width="35" height="35" x=".5" y=".5" fill="currentColor" rx="7.5"/><rect width="35" height="35" x=".5" y=".5" stroke="currentColor" rx="7.5"/><g fill="currentColor" clip-path="url(#a)"><path d="M26.66 25.376c-9.714 4.624-15.744.756-19.603-1.594-.239-.148-.645.035-.293.44 1.286 1.558 5.5 5.316 11 5.316 5.505 0 8.779-3.003 9.189-3.527.406-.52.119-.806-.292-.635m2.73-1.506c-.262-.34-1.587-.404-2.421-.301-.836.1-2.09.61-1.98.917.055.115.17.063.743.011.576-.057 2.188-.26 2.524.179.338.442-.514 2.549-.67 2.888-.15.34.058.427.34.201.279-.226.783-.812 1.12-1.64.337-.834.542-1.997.343-2.255"/><path fill-rule="evenodd" d="M20.129 15.942c0 1.213.03 2.225-.583 3.302-.495.876-1.279 1.415-2.155 1.415-1.195 0-1.892-.911-1.892-2.256 0-2.654 2.378-3.135 4.63-3.135zm3.14 7.59a.65.65 0 0 1-.736.075c-1.033-.859-1.218-1.258-1.787-2.076-1.708 1.743-2.917 2.264-5.133 2.264-2.619 0-4.66-1.616-4.66-4.853 0-2.527 1.371-4.248 3.32-5.09 1.69-.744 4.051-.875 5.856-1.08v-.404c0-.74.056-1.616-.377-2.255-.381-.574-1.108-.81-1.748-.81-1.186 0-2.246.608-2.505 1.87-.052.28-.258.556-.538.569l-3.023-.324c-.253-.057-.534-.263-.464-.653C12.171 7.104 15.477 6 18.438 6c1.515 0 3.495.403 4.69 1.55 1.516 1.415 1.372 3.303 1.372 5.357v4.853c0 1.458.604 2.097 1.173 2.886.202.28.246.617-.008.828-.636.53-1.766 1.515-2.387 2.067z" clip-rule="evenodd"/><path d="M26.66 25.376c-9.714 4.624-15.744.756-19.603-1.594-.239-.148-.645.035-.293.44 1.286 1.558 5.5 5.316 11 5.316 5.505 0 8.779-3.003 9.189-3.527.406-.52.119-.806-.292-.635m2.73-1.506c-.262-.34-1.587-.404-2.421-.301-.836.1-2.09.61-1.98.917.055.115.17.063.743.011.576-.057 2.188-.26 2.524.179.338.442-.514 2.549-.67 2.888-.15.34.058.427.34.201.279-.226.783-.812 1.12-1.64.337-.834.542-1.997.343-2.255"/><path fill-rule="evenodd" d="M20.129 15.942c0 1.213.03 2.225-.583 3.302-.495.876-1.279 1.415-2.155 1.415-1.195 0-1.892-.911-1.892-2.256 0-2.654 2.378-3.135 4.63-3.135zm3.14 7.59a.65.65 0 0 1-.736.075c-1.033-.859-1.218-1.258-1.787-2.076-1.708 1.743-2.917 2.264-5.133 2.264-2.619 0-4.66-1.616-4.66-4.853 0-2.527 1.371-4.248 3.32-5.09 1.69-.744 4.051-.875 5.856-1.08v-.404c0-.74.056-1.616-.377-2.255-.381-.574-1.108-.81-1.748-.81-1.186 0-2.246.608-2.505 1.87-.052.28-.258.556-.538.569l-3.023-.324c-.253-.057-.534-.263-.464-.653C12.171 7.104 15.477 6 18.438 6c1.515 0 3.495.403 4.69 1.55 1.516 1.415 1.372 3.303 1.372 5.357v4.853c0 1.458.604 2.097 1.173 2.886.202.28.246.617-.008.828-.636.53-1.766 1.515-2.387 2.067z" clip-rule="evenodd"/></g><defs><clipPath id="a"><path fill="currentColor" d="M6 6h24v24H6z"/></clipPath></defs></svg>