<svg xmlns="http://www.w3.org/2000/svg" fill="none" viewBox="0 0 36 36"><rect width="35" height="35" x=".5" y=".5" fill="currentColor" rx="7.5"/><rect width="35" height="35" x=".5" y=".5" stroke="currentColor" rx="7.5"/><g fill="currentColor" clip-path="url(#a)"><path d="M21.993 18.372c-1.364.045-2.21.29-2.21 1.189 0 .581.463 1.211 1.64 1.211 1.577 0 2.419-.86 2.419-2.27v-.155c-.553 0-1.235.005-1.85.025m3.352 1.863c0 .438.013.87.05 1.259h-1.398a8 8 0 0 1-.05-.947c-.757.929-1.656 1.196-2.903 1.196-1.85 0-2.841-.978-2.841-2.11 0-1.637 1.347-2.215 3.686-2.269.64-.014 1.359-.017 1.953-.017v-.16c0-1.096-.704-1.547-1.922-1.547-.905 0-1.572.374-1.64 1.021H18.7c.167-1.613 1.862-2.021 3.352-2.021 1.785 0 3.293.635 3.293 2.523zM8.99 17.572c-.06-1.406-1.074-1.932-2.16-1.932-1.169 0-2.103.592-2.267 1.932zm-4.459 1c.081 1.364 1.022 2.172 2.316 2.172.896 0 1.694-.366 1.96-1.16h1.551c-.301 1.612-2.014 2.16-3.489 2.16C4.19 21.743 3 20.266 3 18.274c0-2.191 1.229-3.635 3.894-3.635 2.12 0 3.675 1.11 3.675 3.533v.399z"/><path d="M14.425 20.715c1.397 0 2.353-1.006 2.353-2.523s-.956-2.524-2.353-2.524c-1.39 0-2.353 1.006-2.353 2.524 0 1.517.964 2.523 2.353 2.523m-3.856-8.719h1.503v3.776c.736-.877 1.751-1.132 2.75-1.132 1.675 0 3.536 1.13 3.536 3.57 0 2.044-1.48 3.533-3.564 3.533-1.09 0-2.117-.391-2.75-1.166 0 .31-.017.621-.051.916h-1.475c.025-.477.05-1.071.05-1.552zM33 14.89l-4.648 9.129h-1.683l1.336-2.535-3.498-6.594h1.759l2.574 5.152 2.567-5.152z"/></g><defs><clipPath id="a"><path fill="currentColor" d="M3 11.996h30V24.02H3z"/></clipPath></defs></svg>