<svg xmlns="http://www.w3.org/2000/svg" fill="none" viewBox="0 0 36 36"><rect width="35" height="35" x=".5" y=".5" fill="currentColor" rx="7.5"/><rect width="35" height="35" x=".5" y=".5" stroke="currentColor" rx="7.5"/><path fill="currentColor" d="M27.463 20.396c-1.552 1.951-3.722 3.845-6.564 5.555l-.01.005c-2.866 1.668-5.552 2.648-7.977 3.05-1.513.25-2.237-.041-2.566-.236-.33-.195-.937-.69-1.482-2.16-.873-2.353-1.389-5.226-1.412-8.604v-.012c.023-3.377.539-6.25 1.412-8.604.545-1.47 1.153-1.965 1.482-2.16s1.053-.487 2.566-.236c2.425.402 5.111 1.381 7.976 3.05l.011.005c2.842 1.71 5.012 3.604 6.564 5.556.97 1.218 1.084 2.006 1.084 2.395s-.115 1.177-1.084 2.395"/></svg>