<svg xmlns="http://www.w3.org/2000/svg" fill="none" viewBox="0 0 36 36"><rect width="36" height="36" fill=" currentColor" rx="8"/><g fill="currentColor" clip-path="url(#a)"><path d="M6 9h24v8.453H6z"/><path d="M30 9v8.453H6V9zm-11.75 1.099q-.69 0-1.1.234a1.6 1.6 0 0 0-.627.652 2.8 2.8 0 0 0-.28 1.002 12 12 0 0 0-.064 1.274q0 .7.063 1.279.064.58.281.997t.627.64q.41.22 1.1.221.69 0 1.1-.221.407-.223.626-.64.217-.417.28-.997.065-.58.065-1.28 0-.69-.064-1.273a2.8 2.8 0 0 0-.281-1.002 1.58 1.58 0 0 0-.626-.652q-.41-.234-1.1-.234m2.518.12v4.244q0 .613.162.997t.434.593.622.276q.35.069.725.068.375.001.725-.076.348-.075.622-.299a1.5 1.5 0 0 0 .434-.6q.162-.38.162-.96V10.22h-1.227v4.244q0 .23-.03.422a1 1 0 0 1-.11.333.6.6 0 0 1-.218.221.7.7 0 0 1-.357.08.7.7 0 0 1-.355-.08.6.6 0 0 1-.221-.221 1 1 0 0 1-.11-.333 3 3 0 0 1-.03-.422v-4.244zm-12.413 0-1.61 6.086h1.278l.282-1.287h1.619l.281 1.287h1.28l-1.612-6.086zm3.555 0v6.086h2.071q.538-.001.9-.146.361-.145.588-.388.224-.242.32-.566.093-.324.093-.683 0-.614-.298-.98a1.2 1.2 0 0 0-.81-.435v-.016q.461-.128.69-.482a1.5 1.5 0 0 0 .23-.848q0-.435-.128-.733a1.2 1.2 0 0 0-.357-.477 1.4 1.4 0 0 0-.55-.256 3 3 0 0 0-.694-.076zm13.077 0v1.006h1.33v5.08h1.228v-5.08h1.329v-1.006zm-6.738.783a.72.72 0 0 1 .44.124q.166.124.255.396.09.273.12.7.03.425.03 1.04 0 .614-.03 1.044t-.12.699a.78.78 0 0 1-.255.392.72.72 0 0 1-.44.123.7.7 0 0 1-.438-.123.78.78 0 0 1-.256-.392q-.09-.269-.12-.7t-.03-1.043q0-.614.03-1.04t.12-.7q.09-.273.256-.396a.72.72 0 0 1 .438-.124m-4.583 2.566q.204 0 .375.042a.7.7 0 0 1 .294.15.74.74 0 0 1 .196.281q.072.175.072.44 0 .528-.272.724t-.716.195h-.477v-1.832zm-3.955.444H8.518l.587-2.737h.018zm3.87-2.89q.46 0 .673.179.213.178.213.613t-.234.618q-.234.184-.746.184h-.35v-1.594zM6 17.981h18.171v8.453H6z"/><path d="M24.17 26.434H6v-8.453h18.17zM13.204 19.08q-.69 0-1.1.234a1.6 1.6 0 0 0-.626.652 2.8 2.8 0 0 0-.28 1.002 12 12 0 0 0-.064 1.274q0 .7.063 1.28.065.579.281.996t.627.64q.409.22 1.1.221.689 0 1.099-.221.409-.222.627-.64.217-.417.28-.997.065-.58.064-1.28 0-.689-.063-1.273a2.8 2.8 0 0 0-.281-1.002 1.6 1.6 0 0 0-.627-.652q-.41-.234-1.1-.234m2.507 4.364q0 .613.162.997t.435.593.622.276q.349.069.724.069t.725-.077q.35-.075.622-.299a1.5 1.5 0 0 0 .435-.6q.12-.285.15-.682l.012-.277V19.2h-1.228v4.244q0 .23-.03.422a1 1 0 0 1-.11.333.6.6 0 0 1-.217.221.7.7 0 0 1-.358.08.7.7 0 0 1-.354-.08.6.6 0 0 1-.222-.221 1 1 0 0 1-.11-.333 3 3 0 0 1-.03-.422V19.2H15.71zm-7.304-.554v2.396h1.227V22.89l1.577-3.69H9.88l-.852 2.352h-.017L8.21 19.2H6.83zm4.797-2.907a.72.72 0 0 1 .44.124q.166.124.255.396.09.274.12.7t.029 1.04q0 .613-.03 1.044-.03.43-.119.699a.78.78 0 0 1-.255.392.72.72 0 0 1-.44.123.72.72 0 0 1-.438-.123.78.78 0 0 1-.256-.392q-.09-.269-.12-.7t-.03-1.043.03-1.04q.03-.426.12-.7.09-.272.256-.396a.72.72 0 0 1 .438-.124m8.58-.967a1.399 1.399 0 1 0 0 2.798 1.399 1.399 0 0 0 0-2.798m0 .427c.191 0 .37.056.52.151l-.429.428.302.302.428-.429a.974.974 0 0 1-.82 1.492.974.974 0 0 1-.974-.972c0-.536.437-.972.973-.972"/></g><defs><clipPath id="a"><path fill="currentColor" d="M6 9h24v17.434H6z"/></clipPath></defs></svg>
