<svg xmlns="http://www.w3.org/2000/svg" fill="none" viewBox="0 0 24 24"><path fill="currentColor" fill-rule="evenodd" d="M13 9.5a.75.75 0 0 1 .696.472l.938 2.344a2.68 2.68 0 0 1-.633 2.935v4.999a.75.75 0 0 1-.75.75H2.75a.75.75 0 0 1-.75-.75v-4.999a2.68 2.68 0 0 1-.635-2.935l.937-2.344A.75.75 0 0 1 3 9.5zm-2.89 5.571A2.85 2.85 0 0 1 8 16a2.85 2.85 0 0 1-2.112-.929 2.68 2.68 0 0 1-2.388.905V19.5h9v-3.524a2.684 2.684 0 0 1-2.39-.904m-7.352-2.198a1.187 1.187 0 1 0 2.272.636L5.448 11h-1.94zm3.894.034a1.368 1.368 0 1 0 2.7.024L9.032 11H6.969zm4.178-.246q0 .01.002.02l.138.828a1.186 1.186 0 1 0 2.272-.636L12.492 11h-1.939z" clip-rule="evenodd"/><path fill="currentColor" fill-rule="evenodd" d="M21.114 3.009a.75.75 0 0 1 .583.463l.938 2.344A2.68 2.68 0 0 1 22 8.751v5.499a.75.75 0 0 1-.75.75h-3.5a.75.75 0 0 1 0-1.5h2.75V9.476a2.684 2.684 0 0 1-2.39-.904A2.85 2.85 0 0 1 16 9.5.75.75 0 0 1 16 8c.845 0 1.489-.76 1.35-1.593L17.033 4.5h-2.064l-.311 1.873a.751.751 0 0 1-1.48-.246l.27-1.627h-1.94l-.749 1.873a.75.75 0 0 1-1.392-.557l.937-2.344A.75.75 0 0 1 11.001 3h10zm-2.143 4a1.186 1.186 0 1 0 2.272-.636l-.75-1.873h-1.94z" clip-rule="evenodd"/></svg>