<svg xmlns="http://www.w3.org/2000/svg" viewBox="0 0 24 24"><path fill="currentColor" d="M12 2.083a3.667 3.667 0 0 1 3.667 3.667v6.5a3.667 3.667 0 0 1-7.334 0v-6.5A3.667 3.667 0 0 1 12 2.083m0 1.5A2.167 2.167 0 0 0 9.833 5.75v6.5a2.167 2.167 0 0 0 4.334 0v-6.5A2.167 2.167 0 0 0 12 3.583m-6.667 7.5a.75.75 0 0 1 .744.648l.006.102v1.084a5.917 5.917 0 0 0 11.83.197l.003-.197v-1.084a.75.75 0 0 1 1.494-.102l.006.102v1.084a7.417 7.417 0 0 1-6.666 7.378v1.622H15a.75.75 0 0 1 .102 1.493l-.102.007H9a.75.75 0 0 1-.102-1.493L9 21.917h2.25v-1.622a7.42 7.42 0 0 1-6.66-7.18l-.006-.198v-1.084a.75.75 0 0 1 .75-.75"/></svg>