<svg xmlns="http://www.w3.org/2000/svg" viewBox="0 0 24 24"><g fill="none" fill-rule="evenodd"><path d="M2.5 3.5h18v18h-18z"/><path fill="currentColor" fill-rule="nonzero" stroke-linecap="square" d="M7.75 3.5c2.846 0 5.25 1.202 5.25 3v3q0 .141-.02.277a9 9 0 0 1 2.27-.277c2.846 0 5.25 1.202 5.25 3v6c0 1.798-2.403 3-5.25 3-2.763 0-5.108-1.132-5.244-2.843L10 18.5l.002-.274a9 9 0 0 1-2.252.274c-2.763 0-5.108-1.132-5.244-2.843L2.5 15.5v-9l.006-.157C2.642 4.633 4.987 3.5 7.75 3.5m7.5 15c-1.452 0-2.79-.313-3.75-.858v.858c0 .687 1.626 1.5 3.75 1.5 2.049 0 3.633-.756 3.744-1.426L19 18.5l.001-.859c-.961.546-2.298.859-3.751.859m3.751-3.859c-.961.546-2.298.859-3.751.859s-2.789-.313-3.75-.858v.858c0 .687 1.626 1.5 3.75 1.5 2.049 0 3.633-.756 3.744-1.426L19 15.5ZM4 14.641 4 15.5c0 .687 1.626 1.5 3.75 1.5.824 0 1.604-.121 2.252-.337v-1.438c-.692.18-1.46.275-2.252.275-1.453 0-2.79-.313-3.751-.859m0-3L4 12.5c0 .687 1.626 1.5 3.75 1.5.823 0 1.603-.121 2.252-.338L10 12.5l.006-.157q.005-.06.013-.12c-.69.18-1.461.277-2.269.277-1.453 0-2.79-.313-3.751-.859M15.25 11c-2.124 0-3.75.813-3.75 1.5s1.626 1.5 3.75 1.5S19 13.187 19 12.5 17.374 11 15.25 11m-3.749-2.359c-.961.546-2.298.859-3.751.859S4.961 9.187 4 8.642V9.5c0 .687 1.626 1.5 3.75 1.5 2.049 0 3.633-.756 3.744-1.426L11.5 9.5ZM7.75 5C5.626 5 4 5.813 4 6.5S5.626 8 7.75 8s3.75-.813 3.75-1.5S9.874 5 7.75 5"/></g></svg>