<svg xmlns="http://www.w3.org/2000/svg" fill="none" viewBox="0 0 22 22"><path fill="currentColor" fill-rule="evenodd" d="M11 8.236c.39 0 .707.316.707.707v2.743a.7.7 0 0 1-.287.569L8.54 14.38a.707.707 0 0 1-.84-1.138l2.593-1.913V8.943c0-.39.317-.707.707-.707" clip-rule="evenodd"/><path fill="currentColor" fill-rule="evenodd" d="M10.431 11.266a.707.707 0 0 1 .989-.15l2.88 2.127a.707.707 0 1 1-.84 1.137l-2.88-2.125a.707.707 0 0 1-.149-.99M11 4.164a2.036 2.036 0 1 0 0 4.072 2.036 2.036 0 0 0 0-4.072M7.55 6.2a3.45 3.45 0 1 1 6.9 0 3.45 3.45 0 0 1-6.9 0M6.2 13.764a2.036 2.036 0 1 0 0 4.072 2.036 2.036 0 0 0 0-4.072M2.75 15.8a3.45 3.45 0 1 1 6.9 0 3.45 3.45 0 0 1-6.9 0" clip-rule="evenodd"/><path fill="currentColor" fill-rule="evenodd" d="M15.8 13.764a2.036 2.036 0 1 0 0 4.072 2.036 2.036 0 0 0 0-4.072M12.35 15.8a3.45 3.45 0 1 1 6.9 0 3.45 3.45 0 0 1-6.9 0" clip-rule="evenodd"/></svg>