<svg xmlns="http://www.w3.org/2000/svg" viewBox="0 0 24 24"><g fill="none" fill-rule="evenodd"><path d="M3 3h18v18H3z"/><g fill="currentColor" fill-rule="nonzero" stroke-linecap="square"><path d="M16 6H5c-.69 0-1.25.56-1.25 1.25v12.5c0 .69.56 1.25 1.25 1.25h11c.69 0 1.25-.56 1.25-1.25V7.25C17.25 6.56 16.69 6 16 6m-.25 1.5v12H5.25v-12z"/><path d="M19 3c.647 0 1.18.492 1.244 1.122l.006.128v14.5a.75.75 0 0 1-1.493.102l-.007-.102V4.5h-12a.75.75 0 0 1-.743-.648L6 3.75a.75.75 0 0 1 .648-.743L6.75 3z"/><path d="M13.5 9.75a.75.75 0 0 1 .102 1.493l-.102.007h-6a.75.75 0 0 1-.102-1.493L7.5 9.75zM13.5 12.75a.75.75 0 0 1 .102 1.493l-.102.007h-6a.75.75 0 0 1-.102-1.493l.102-.007zM10.5 15.75a.75.75 0 0 1 .102 1.493l-.102.007h-3a.75.75 0 0 1-.102-1.493l.102-.007z"/></g></g></svg>