<svg xmlns="http://www.w3.org/2000/svg" viewBox="0 0 24 24"><g fill="none" fill-rule="evenodd"><path d="M4 4h16v16H4z"/><g fill="currentColor" fill-rule="nonzero" stroke-linecap="square"><path d="M8.307 6.266a.7.7 0 0 1 .72 1.2c-1.854 1.113-2.994 3.051-2.994 5.2 0 3.28 2.687 5.967 5.967 5.967s5.967-2.686 5.967-5.966c0-2.172-1.16-4.161-2.979-5.191a.7.7 0 1 1 .69-1.218c2.257 1.278 3.689 3.733 3.689 6.409 0 4.053-3.314 7.366-7.367 7.366s-7.367-3.313-7.367-7.366c0-2.65 1.406-5.04 3.674-6.4"/><path d="M12 3.967a.7.7 0 0 1 .694.605l.006.095v8.222a.7.7 0 0 1-1.394.095l-.006-.095V4.667a.7.7 0 0 1 .7-.7"/></g></g></svg>