<svg xmlns="http://www.w3.org/2000/svg" fill="none" viewBox="0 0 24 24"><path fill="currentColor" d="M6.34 3a.75.75 0 0 1 .75-.75h9.819a.75.75 0 0 1 .75.75v4.09a.75.75 0 0 1-1.5 0V3.75H7.841v5.795a.75.75 0 1 1-1.5 0zM5.523 17.727a.75.75 0 0 1 .75-.75h.818a.75.75 0 0 1 0 1.5h-.818a.75.75 0 0 1-.75-.75M6.273 14.523a.75.75 0 0 0 0 1.5h.818a.75.75 0 0 0 0-1.5zM16.91 12.068a.75.75 0 0 0 0 1.5h.817a.75.75 0 0 0 0-1.5zM16.16 15.273a.75.75 0 0 1 .75-.75h.817a.75.75 0 0 1 0 1.5h-.818a.75.75 0 0 1-.75-.75M16.91 16.977a.75.75 0 0 0 0 1.5h.817a.75.75 0 0 0 0-1.5z"/><path fill="currentColor" fill-rule="evenodd" d="M11.114 20.25V12a.75.75 0 0 0-.75-.75H3a.75.75 0 0 0-.75.75v9c0 .414.336.75.75.75h18a.75.75 0 0 0 .75-.75V9.545a.75.75 0 0 0-.75-.75h-7.363a.75.75 0 0 0-.75.75V20.25zm-7.364 0v-7.5h5.864v7.5zm10.637-9.954v9.954h5.863v-9.954z" clip-rule="evenodd"/></svg>