<svg xmlns="http://www.w3.org/2000/svg" fill="none" viewBox="0 0 24 24"><path fill="currentColor" fill-rule="evenodd" d="M6.744 4.892a.75.75 0 0 1 .388.657v5.017a.75.75 0 0 1-1.5 0V6.913l-.412.261a.75.75 0 0 1-.803-1.267l1.564-.991a.75.75 0 0 1 .763-.024m3.905 2.09a.75.75 0 0 1 .75-.75H20a.75.75 0 1 1 0 1.5h-8.6a.75.75 0 0 1-.75-.75m0 5.018a.75.75 0 0 1 .75-.75H20a.75.75 0 1 1 0 1.5h-8.6a.75.75 0 0 1-.75-.75M6.4 14.185a.7.7 0 0 0-.72.54.75.75 0 0 1-1.46-.346 2.2 2.2 0 0 1 2.282-1.691c.657.044 1.42.356 1.806 1.078l-.661.354.66-.355c.078.143.224.463.225.92.002.557-.211 1.005-.497 1.399-.236.324-.559.661-.898 1.014l-.138.144q-.186.195-.433.458h1.4a.75.75 0 0 1 0 1.5H4.948a.75.75 0 0 1-.75-.75v-.1a.75.75 0 0 1 .192-.5 74 74 0 0 1 1.523-1.644l.133-.14c.358-.373.602-.628.773-.864.173-.237.212-.379.211-.511v-.002c0-.129-.04-.202-.046-.214v-.001c-.067-.125-.262-.268-.585-.29m4.25 2.832a.75.75 0 0 1 .75-.75H20a.75.75 0 1 1 0 1.5h-8.6a.75.75 0 0 1-.75-.75" clip-rule="evenodd"/></svg>