<svg xmlns="http://www.w3.org/2000/svg" xml:space="preserve" viewBox="0 0 24 24"><path fill="currentColor" d="M20.146 7.23a.7.7 0 0 0-.152-.226l-2.999-2.999A.7.7 0 0 0 16.5 3.8h-9a.7.7 0 0 0-.495.205l-3 3q-.006.009-.012.018a.7.7 0 0 0-.106.159c-.01.02-.027.037-.035.058a.7.7 0 0 0-.052.26V18A2.2 2.2 0 0 0 6 20.2h12a2.2 2.2 0 0 0 2.2-2.2V7.5a.7.7 0 0 0-.054-.27M7.788 5.2h8.423l1.6 1.6H6.188zM18 18.8H6l-.1-.006A.8.8 0 0 1 5.2 18V8.2h13.6V18a.8.8 0 0 1-.8.8m-2.505-5.795c.246.246.27.63.074.903l-.074.087-3 3-.011.008a.7.7 0 0 1-.204.137c-.02.01-.045.01-.066.017a.7.7 0 0 1-.189.038c-.009 0-.016.005-.025.005-.03 0-.055-.012-.083-.015-.046-.006-.09-.01-.135-.025q-.057-.022-.109-.052c-.027-.015-.056-.021-.081-.039l-.043-.036-.018-.016-.026-.022-3-3a.7.7 0 0 1 .903-1.064l.087.074 1.805 1.806V9.75a.7.7 0 0 1 1.394-.095l.006.095v5.06l1.805-1.805a.7.7 0 0 1 .99 0"/></svg>