<svg xmlns="http://www.w3.org/2000/svg" fill="none" viewBox="0 0 24 24"><path fill="currentColor" d="M8.237 3.169a.674.674 0 0 0-.68-.669h-2.09a.7.7 0 0 0-.304.07L2.376 3.943A.67.67 0 0 0 2 4.541v4.601l.007.094a.68.68 0 0 0 .791.565l1.989-.348v7.434l.004.069c.035.337.324.6.676.6H7.73v-1.338H6.146V8.656l-.006-.094a.68.68 0 0 0-.792-.564l-1.99.346V4.953l2.268-1.115h1.32l.018.085c.35 1.518 1.736 2.658 3.38 2.658l.197-.005c1.558-.087 2.848-1.196 3.185-2.653l.017-.085h1.32l2.267 1.116v2.502h1.36V4.54a.67.67 0 0 0-.376-.599l-2.787-1.371a.7.7 0 0 0-.304-.071h-2.09c-.376 0-.68.3-.68.669 0 1.14-.95 2.075-2.108 2.075s-2.108-.936-2.108-2.075"/><path fill="currentColor" fill-rule="evenodd" d="M22 10.028c0-.654-.538-1.183-1.202-1.183H10.345c-.664 0-1.202.53-1.202 1.183v10.289c0 .653.538 1.183 1.202 1.183h3.659c.663 0 1.202-.53 1.202-1.183v-3.601a.366.366 0 0 1 .731 0v3.6c0 .654.539 1.184 1.202 1.184h3.659c.664 0 1.202-.53 1.202-1.183zm-7.848 2.212h2.839c.145 1.386 2.163 3.428 3.65 3.976v3.947h-3.345v-3.447c0-.936-.774-1.698-1.725-1.698l-.148.006c-.881.075-1.576.806-1.576 1.692v3.447h-3.345v-3.947c1.487-.548 3.505-2.59 3.65-3.976m-3.65 0h2.289c-.109.748-1.408 1.941-2.29 2.488zm7.858 0h2.281v2.48c-.86-.55-2.116-1.735-2.281-2.48m-7.858-2.058h4.39v.72h-4.39zm5.749 0h4.39v.72h-4.39z" clip-rule="evenodd"/></svg>