<svg xmlns="http://www.w3.org/2000/svg" fill="none" viewBox="0 0 24 24"><path fill="currentColor" fill-rule="evenodd" d="M11.597 3.081a.77.77 0 0 0-.69 0L7.552 4.76l-.024.012-4.09 2.045A.77.77 0 0 0 3 7.531v8.21c0 .291.165.559.426.69l8.963 4.48a.8.8 0 0 0 .359.089h.008a.77.77 0 0 0 .4-.117l7.47-4.481A.77.77 0 0 0 21 15.74V8.27a.77.77 0 0 0-.119-.42.77.77 0 0 0-.314-.283zm6.906 5.179-7.251-3.626-1.642.82 7.252 3.626zM7.885 6.317 5.496 7.512l7.252 3.625 2.39-1.194zM4.543 8.76v6.504l7.433 3.716v-6.503zm8.976 10.106 5.938-3.562V9.508l-5.938 2.969z" clip-rule="evenodd"/></svg>