<svg xmlns="http://www.w3.org/2000/svg" fill="none" viewBox="0 0 24 24"><path fill="currentColor" fill-rule="evenodd" d="M10.445 17.472a.75.75 0 0 1 .75.75v.028h1.61v-.028a.75.75 0 0 1 1.5 0V19a.75.75 0 0 1-.75.75h-3.11a.75.75 0 0 1-.75-.75v-.778a.75.75 0 0 1 .75-.75M2.695 15.889a.75.75 0 0 1 .75-.75h17.11a.75.75 0 0 1 0 1.5H3.446a.75.75 0 0 1-.75-.75M6.584 8.889a.75.75 0 0 1 .75-.75H12a.75.75 0 0 1 .75.75v3.889a.75.75 0 0 1-.75.75H7.334a.75.75 0 0 1-.75-.75zm1.5.75v2.389h3.166v-2.39z" clip-rule="evenodd"/><path fill="currentColor" fill-rule="evenodd" d="M11.25 8.889a.75.75 0 0 1 .75-.75h4.667a.75.75 0 0 1 .75.75v3.889a.75.75 0 0 1-.75.75H12a.75.75 0 0 1-.75-.75zm1.5.75v2.389h3.167v-2.39z" clip-rule="evenodd"/><path fill="currentColor" fill-rule="evenodd" d="M6.584 5a.75.75 0 0 1 .75-.75H12a.75.75 0 0 1 .75.75v3.889a.75.75 0 0 1-.75.75H7.334a.75.75 0 0 1-.75-.75zm1.5.75v2.389h3.166V5.75z" clip-rule="evenodd"/><path fill="currentColor" fill-rule="evenodd" d="M11.25 5a.75.75 0 0 1 .75-.75h4.667a.75.75 0 0 1 .75.75v3.889a.75.75 0 0 1-.75.75H12a.75.75 0 0 1-.75-.75zm1.5.75v2.389h3.167V5.75zM18.707 9.726a.75.75 0 0 1 .934.503l1.633 5.444a.8.8 0 0 1 .032.216v3.11a.75.75 0 0 1-.75.75h-3.111a.75.75 0 0 1-.75-.75v-.777a.75.75 0 1 1 1.5 0v.028h1.61v-2.251l-1.601-5.34a.75.75 0 0 1 .503-.933M5.293 9.726a.75.75 0 0 1 .503.934l-1.601 5.339v2.25h1.61v-.027a.75.75 0 1 1 1.5 0V19a.75.75 0 0 1-.75.75h-3.11a.75.75 0 0 1-.75-.75v-3.111a.8.8 0 0 1 .031-.216L4.36 10.23a.75.75 0 0 1 .933-.503" clip-rule="evenodd"/></svg>