<svg xmlns="http://www.w3.org/2000/svg" viewBox="0 0 24 24"><g fill="none" fill-rule="evenodd"><path d="M3 3h18v18H3z"/><g fill="currentColor" fill-rule="nonzero" stroke-linecap="square"><path d="M16.5 3.8h-9a.7.7 0 0 0-.495.205l-3 3A.7.7 0 0 0 3.8 7.5V18A2.2 2.2 0 0 0 6 20.2h12a2.2 2.2 0 0 0 2.2-2.2V7.5a.7.7 0 0 0-.205-.495l-3-3A.7.7 0 0 0 16.5 3.8m-.289 1.4L18.8 7.789V18a.8.8 0 0 1-.8.8H6l-.1-.006A.8.8 0 0 1 5.2 18V7.788L7.788 5.2z"/><path d="M12 9.05a.7.7 0 0 1 .694.605l.006.095v6.75a.7.7 0 0 1-1.394.095L11.3 16.5V9.75a.7.7 0 0 1 .7-.7"/><path d="M14.505 13.005a.7.7 0 0 1 1.064.903l-.074.087-3 3a.7.7 0 0 1-.903.074l-.087-.074-3-3a.7.7 0 0 1 .903-1.064l.087.074L12 15.511zM19.5 6.8a.7.7 0 0 1 .095 1.394L19.5 8.2h-15a.7.7 0 0 1-.095-1.394L4.5 6.8z"/></g></g></svg>