<svg xmlns="http://www.w3.org/2000/svg" viewBox="0 0 24 24"><g fill="none" fill-rule="evenodd"><path d="M3 3h18v18H3z"/><path fill="currentColor" fill-rule="nonzero" stroke-linecap="square" d="M15 3a3 3 0 0 1 2.995 2.824L18 6h2.25a.75.75 0 0 1 .743.648L21 6.75V15a.75.75 0 0 1-1.493.102L19.5 15V7.5h-15v6H9a.75.75 0 0 1 .743.648l.007.102a.75.75 0 0 1-.648.743L9 15H7.514a4.876 4.876 0 0 0 9.731-.158l.005-.217V9.878l-.126.049a2.25 2.25 0 0 0-1.369 1.919L15.75 12v1.5a.75.75 0 0 1-.75.75 2.25 2.25 0 0 0-2.25 2.25.75.75 0 1 1-1.5 0 3.75 3.75 0 0 1 2.784-3.624l.216-.051V12a3.75 3.75 0 0 1 3.55-3.745l.2-.005a.75.75 0 0 1 .743.648L18.75 9v5.625a6.375 6.375 0 0 1-12.74.376L3.75 15a.75.75 0 0 1-.743-.648L3 14.25v-7.5a.75.75 0 0 1 .648-.743L3.75 6H6a3 3 0 0 1 2.824-2.995L9 3zm-3 6a1.5 1.5 0 1 1 0 3 1.5 1.5 0 0 1 0-3m3-4.5H9a1.5 1.5 0 0 0-1.493 1.356L7.5 6h9a1.5 1.5 0 0 0-1.356-1.493z"/></g></svg>