<svg xmlns="http://www.w3.org/2000/svg" fill="none" viewBox="0 0 24 24"><path fill="currentColor" fill-rule="evenodd" d="M7.16 18.136v-2.454a.75.75 0 0 1 1.5 0v.068h11.59v-4.977a.886.886 0 0 0-.886-.887h-6.83a3.21 3.21 0 0 1-2.989 2.046h-.977l-.611.458a3.84 3.84 0 0 1-4.207.266v.571a.75.75 0 0 1-1.5 0v-9a.75.75 0 0 1 1.5 0v.709l3.974-.852a4 4 0 0 1 2.055.098l6.947 2.194a.75.75 0 1 1-.452 1.43L9.327 5.612a2.5 2.5 0 0 0-1.288-.06L3.75 6.47v4.23l.12.14a2.344 2.344 0 0 0 3.187.35l.811-.608a.75.75 0 0 1 .45-.15h1.227c.825 0 1.513-.586 1.67-1.364H7.583a.75.75 0 0 1 0-1.5H12a.75.75 0 0 1 .75.75v.068h6.614a2.386 2.386 0 0 1 2.386 2.387v7.363a2.386 2.386 0 0 1-2.386 2.387H9.545a2.386 2.386 0 0 1-2.386-2.387m13.09 0c0 .49-.397.887-.886.887H9.545a.886.886 0 0 1-.886-.887v-.886H20.25z" clip-rule="evenodd"/><path fill="currentColor" d="M17.727 11.66a.75.75 0 0 1 0 1.5h-1.636a.75.75 0 0 1 0-1.5z"/></svg>