<svg xmlns="http://www.w3.org/2000/svg" viewBox="0 0 24 24"><path fill="currentColor" fill-rule="nonzero" d="m7.41 2.97-3.362.888a1.515 1.515 0 0 0-1.131 1.51 16.93 16.93 0 0 0 4.788 10.913 16.93 16.93 0 0 0 10.91 4.801 1.52 1.52 0 0 0 1.53-1.135l.888-3.358a1.514 1.514 0 0 0-.866-1.779l-4.275-1.833-.142-.053a1.51 1.51 0 0 0-1.52.365l-1.36 1.341-.25-.169a14 14 0 0 1-1.703-1.397l-.294-.315a14 14 0 0 1-1.084-1.37l-.17-.252 1.34-1.358a1.515 1.515 0 0 0 .314-1.659L9.189 3.836a1.515 1.515 0 0 0-1.779-.867m.383 1.45a.015.015 0 0 1 .018.008L9.644 8.7a.02.02 0 0 1-.003.015L7.882 10.5a.75.75 0 0 0-.107.915 15.4 15.4 0 0 0 2.08 2.709 15.3 15.3 0 0 0 2.73 2.102.75.75 0 0 0 .914-.109l1.784-1.76a.014.014 0 0 1 .015-.002l4.277 1.833q.01.006.008.017l-.889 3.364q-.005.016-.014.015a15.4 15.4 0 0 1-9.914-4.363 15.4 15.4 0 0 1-4.35-9.915z"/></svg>