<svg xmlns="http://www.w3.org/2000/svg" fill="none" viewBox="0 0 24 24"><path fill="currentColor" d="M7.35 20q-.86 0-1.51-.357a2.34 2.34 0 0 1-.981-1.005q-.333-.645-.272-1.549l.15-2.706q.03-.783-.256-1.157-.287-.392-1.132-.392A.35.35 0 0 1 3 12.485v-.97c0-.193.156-.349.349-.349q.844 0 1.132-.375.287-.374.257-1.174l-.151-2.723q-.046-.903.287-1.55.332-.663.966-1.004T7.35 4h.026c.461 0 .835.373.835.834v.11c0 .4-.325.724-.725.724q-.62 0-.967.323t-.317 1.005l.151 2.723q.06 1.056-.498 1.685a1.83 1.83 0 0 1-1.081.589q.652.125 1.066.603.574.63.513 1.685l-.15 2.723q-.015.647.316.987.348.34.967.34c.4 0 .725.325.725.726v.109c0 .46-.374.834-.835.834zM16.65 20q.86 0 1.51-.357a2.34 2.34 0 0 0 .982-1.005q.33-.645.271-1.549l-.15-2.706q-.03-.783.256-1.157.287-.392 1.132-.392a.35.35 0 0 0 .349-.349v-.97a.35.35 0 0 0-.349-.349q-.844 0-1.132-.375-.287-.374-.257-1.174l.151-2.723q.045-.903-.287-1.55a2.25 2.25 0 0 0-.966-1.004Q17.526 4 16.65 4h-.026a.834.834 0 0 0-.834.834v.11c0 .4.324.724.724.724q.62 0 .967.323t.317 1.005l-.151 2.723q-.06 1.056.498 1.685.415.47 1.082.589-.654.125-1.067.603-.574.63-.513 1.685l.15 2.723q.015.647-.316.987-.348.34-.967.34c-.4 0-.724.325-.724.726v.109c0 .46.373.834.834.834zM12 14a2 2 0 1 0 0-4 2 2 0 0 0 0 4"/></svg>