<svg xmlns="http://www.w3.org/2000/svg" viewBox="0 0 24 24"><g fill="none" fill-rule="evenodd"><path d="M3 3h18v18H3z"/><g fill="currentColor" fill-rule="nonzero" stroke-linecap="square" transform="translate(5.25 3.75)"><path d="M13-.75H.5A1.25 1.25 0 0 0-.75.5L-.74 13.25H4l4.608-5.48a.25.25 0 0 1 .39.01l5.252 6.959V.5c0-.69-.56-1.25-1.25-1.25M.758 11.75.75.749h11.999v9.511l-2.553-3.383a1.75 1.75 0 0 0-2.451-.343l-.102.083a2 2 0 0 0-.183.188L3.3 11.75z"/><path d="M14.25 11.75h-15V16c0 .69.56 1.25 1.25 1.25H13c.69 0 1.25-.56 1.25-1.25zm-1.5 1.5v2.5h-12v-2.5z"/><circle cx="4.75" cy="4.25" r="1.5"/></g></g></svg>