<svg xmlns="http://www.w3.org/2000/svg" fill="none" viewBox="0 0 24 24"><path fill="currentColor" d="M17.75 14.75c.241 0 .457.148.543.373l.697 1.813a1 1 0 0 0 .575.574l1.811.696a.583.583 0 0 1 0 1.088l-1.811.696a1 1 0 0 0-.575.574l-.697 1.813a.582.582 0 0 1-1.087 0l-.697-1.813a1 1 0 0 0-.574-.574l-1.812-.696a.583.583 0 0 1 0-1.088l1.812-.696a1 1 0 0 0 .574-.575l.697-1.812a.58.58 0 0 1 .544-.373"/><path fill="currentColor" d="M14.78 3.06a.75.75 0 0 1 .625.016l6.372 3.109c.8.39 1.18 1.319.881 2.158l-.872 2.456a1.75 1.75 0 0 1-2.378 1.006l-.407-.187v1.232a.75.75 0 0 1-1.5 0v-2.4a.75.75 0 0 1 1.062-.682l1.47.672a.25.25 0 0 0 .34-.143l.872-2.456a.25.25 0 0 0-.126-.309L15.455 4.77c-.742 1.389-2.084 2.118-3.454 2.118s-2.713-.729-3.455-2.118L2.883 7.532a.25.25 0 0 0-.126.309l.873 2.456.023.049a.25.25 0 0 0 .316.094l1.47-.672a.752.752 0 0 1 1.062.682v8.8c0 .138.112.25.25.25h5.25a.75.75 0 0 1 0 1.5h-5.25a1.75 1.75 0 0 1-1.75-1.75v-7.633l-.407.188a1.75 1.75 0 0 1-2.378-1.006l-.872-2.456a1.75 1.75 0 0 1 .882-2.158l6.37-3.109a.752.752 0 0 1 1.045.448c.403 1.277 1.399 1.863 2.36 1.863s1.956-.586 2.36-1.863a.75.75 0 0 1 .42-.463"/><path fill="currentColor" d="M12.5 12c.15 0 .286.093.34.233l.436 1.133a.63.63 0 0 0 .358.359l1.133.435a.364.364 0 0 1 0 .68l-1.133.435a.62.62 0 0 0-.358.359l-.436 1.133a.364.364 0 0 1-.68 0l-.435-1.133a.63.63 0 0 0-.36-.359l-1.131-.435a.364.364 0 0 1 0-.68l1.131-.435a.63.63 0 0 0 .36-.359l.435-1.133A.36.36 0 0 1 12.5 12"/></svg>