<svg xmlns="http://www.w3.org/2000/svg" viewBox="0 0 24 24"><g fill="none" fill-rule="evenodd"><path d="M3 3h18v18H3z"/><path fill="currentColor" fill-rule="nonzero" stroke-linecap="square" d="M9 3.75a.75.75 0 0 1 .75.75l.005.153A2.26 2.26 0 0 0 12 6.75a2.26 2.26 0 0 0 2.25-2.25.75.75 0 0 1 .75-.75h2.25a.75.75 0 0 1 .335.08l3 1.5A.75.75 0 0 1 21 6v5.031a.75.75 0 0 1-.88.739l-2.121-.376L18 19.5a.75.75 0 0 1-.648.743l-.102.007H9.831l1.502-1.5h5.166l.001-8.25a.75.75 0 0 1 .783-.75l.098.012 2.118.374V6.463L17.074 5.25h-1.401l-.05.214a3.76 3.76 0 0 1-3.424 2.78L12 8.25a3.76 3.76 0 0 1-3.669-2.973l-.005-.027H6.925L4.499 6.463v3l-.054.076a2.63 2.63 0 0 0-.314 2.186l-.25.045a.75.75 0 0 1-.875-.64L3 11.03V6a.75.75 0 0 1 .415-.67l3-1.5a.75.75 0 0 1 .335-.08Z"/><path fill="currentColor" fill-rule="nonzero" d="M1.906 15.098a.725.725 0 0 0 .718.626h6.998l-3.137 3.134-.06.068a.725.725 0 0 0 1.087.955l4.346-4.342a.722.722 0 0 0 .001-1.079L7.51 10.117l-.07-.06a.726.726 0 0 0-.995.091l-.068.091a.724.724 0 0 0 .108.904l3.136 3.134-6.998-.002-.085.005a.726.726 0 0 0-.64.72z"/></g></svg>