<svg xmlns="http://www.w3.org/2000/svg" viewBox="0 0 24 24"><path fill="currentColor" fill-rule="evenodd" d="M12 4c4.402 0 8 3.598 8 8s-3.598 8-8 8-8-3.598-8-8 3.598-8 8-8m0 10.743c-.549 0-.914.366-.914.914 0 .549.365.914.914.914s.914-.365.914-.914c0-.548-.365-.914-.914-.914m0-7.314c-.943 0-1.805.482-2.286 1.22l-.091.151-.327.589a.274.274 0 0 0 .05.332l.05.038 1.082.636.064.027c.096.027.2 0 .27-.07l.045-.06.32-.578c.183-.274.457-.457.823-.457.549 0 .914.366.914.914 0 .197-.047.3-.24.443l-.094.064-.214.133-.2.138c-.477.342-1.005.844-1.073 1.762l-.007.203v.64c0 .13.09.239.211.267l.063.008h1.28c.13 0 .239-.09.267-.212l.007-.063v-.684c.003-.155.038-.253.457-.504l.192-.13c.53-.367 1.18-.927 1.18-2.065 0-1.554-1.189-2.742-2.743-2.742"/></svg>