<svg xmlns="http://www.w3.org/2000/svg" viewBox="0 0 24 24"><path fill="currentColor" fill-rule="evenodd" d="M12 4c4.402 0 8 3.598 8 8s-3.598 8-8 8-8-3.598-8-8 3.598-8 8-8m0 1.371c-3.644 0-6.629 2.985-6.629 6.629S8.356 18.629 12 18.629s6.629-2.985 6.629-6.629S15.644 5.371 12 5.371m0 9.372c.549 0 .914.366.914.914 0 .549-.365.914-.914.914s-.914-.365-.914-.914c0-.548.365-.914.914-.914m0-7.314c1.554 0 2.743 1.188 2.743 2.742 0 1.28-.823 1.829-1.372 2.195-.419.251-.454.349-.456.504v.684a.274.274 0 0 1-.275.275h-1.28a.274.274 0 0 1-.274-.275v-.64c0-1.188.731-1.737 1.28-2.103l.214-.133c.273-.18.334-.282.334-.507 0-.548-.365-.914-.914-.914-.366 0-.64.183-.823.457l-.32.577a.274.274 0 0 1-.315.131l-.064-.027-1.082-.636a.274.274 0 0 1-.1-.37l.327-.589c.457-.823 1.371-1.371 2.377-1.371"/></svg>