<svg xmlns="http://www.w3.org/2000/svg" xml:space="preserve" viewBox="0 0 24 24"><path fill="currentColor" d="M12 3.75c3.17 0 6.006 1.776 7.35 4.548a.75.75 0 0 1-1.35.654c-1.093-2.255-3.405-3.702-6-3.702-3.71 0-6.75 3.04-6.75 6.75a.75.75 0 0 1-1.5 0c0-4.54 3.71-8.25 8.25-8.25m7.5 7.5a.75.75 0 0 1 .75.75c0 4.54-3.71 8.25-8.25 8.25-3.17 0-6.006-1.776-7.35-4.548A.75.75 0 0 1 6 15.048c1.093 2.255 3.405 3.702 6 3.702 3.71 0 6.75-3.04 6.75-6.75a.75.75 0 0 1 .75-.75m-.151-7.725.102.007a.75.75 0 0 1 .65.742l-.008.102-.6 4.425a.75.75 0 0 1-.74.65l-.102-.008-4.5-.6a.749.749 0 0 1 .096-1.493l.102.007 3.758.5.5-3.683a.75.75 0 0 1 .742-.65zM5.35 14.557l4.5.6a.749.749 0 0 1-.097 1.493l-.102-.007-3.759-.501-.499 3.684a.75.75 0 0 1-.742.65l-.102-.008a.75.75 0 0 1-.65-.742l.008-.102.6-4.425a.75.75 0 0 1 .74-.65z"/></svg>