<svg xmlns="http://www.w3.org/2000/svg" fill="none" viewBox="0 0 18 18"><path fill="currentColor" d="M6.375 11.25c.31 0 .563.252.563.563v1.124a.562.562 0 1 1-1.125 0v-1.124c0-.311.251-.563.562-.563M9 9c.31 0 .563.252.563.563v3.374a.562.562 0 1 1-1.126 0V9.564C8.438 9.252 8.69 9 9 9M11.625 10.5c.31 0 .563.252.563.563v1.874a.562.562 0 1 1-1.126 0v-1.874c0-.311.252-.563.563-.563"/><path fill="currentColor" fill-rule="evenodd" d="M8.941 1.5c.547 0 1.072.218 1.459.604L14.396 6.1c.386.387.604.912.604 1.459v6.879c0 1.139-.923 2.062-2.062 2.062H5.062A2.06 2.06 0 0 1 3 14.438V3.563C3 2.423 3.923 1.5 5.063 1.5zM5.062 2.625a.937.937 0 0 0-.937.938v10.875c0 .517.42.937.938.937h7.875c.517 0 .937-.42.937-.937v-6.88l-.003-.058h-2.81A2.06 2.06 0 0 1 9 5.438v-2.81l-.059-.003zm5.063 2.813c0 .517.42.937.938.937h2.017L10.125 3.42z" clip-rule="evenodd"/></svg>