<svg xmlns="http://www.w3.org/2000/svg" viewBox="0 0 24 24"><g fill="none" fill-rule="evenodd"><path d="M3 3h18v18H3z"/><g fill="currentColor" fill-rule="nonzero" stroke-linecap="square"><path d="M12 7.5a.75.75 0 0 1 .743.648l.007.102v2.999l3.136.001a.75.75 0 0 1 .743.648l.007.102a.75.75 0 0 1-.648.743l-.102.007H12a.75.75 0 0 1-.743-.648L11.25 12V8.25A.75.75 0 0 1 12 7.5"/><path d="M5.823 5.455A9 9 0 1 1 3 12a.75.75 0 1 1 1.5 0 7.5 7.5 0 1 0 2.352-5.455.75.75 0 0 1-1.03-1.09"/><path d="M10.071 6.408a.7.7 0 0 1-.13 1.39l-.113-.012L5.65 7.05a.7.7 0 0 1-.579-.698l.01-.113.738-4.178a.7.7 0 0 1 1.39.13l-.012.113-.616 3.49z"/></g></g></svg>