<svg xmlns="http://www.w3.org/2000/svg" viewBox="0 0 24 24"><path fill="currentColor" fill-rule="nonzero" d="M15.333 2.083a.75.75 0 0 1 .743.649l.007.101v.916l1.75.001c1.282 0 2.33.997 2.412 2.258l.005.159v1.75h.917a.75.75 0 0 1 .101 1.493l-.101.007h-.918v1.832l.918.001a.75.75 0 0 1 .101 1.493l-.101.007h-.918v1.833h.918a.75.75 0 0 1 .101 1.493l-.101.007h-.918l.001 1.75c0 1.282-.997 2.33-2.258 2.412l-.159.005h-1.75v.917a.75.75 0 0 1-1.493.101l-.007-.101v-.918H12.75l.001.918a.75.75 0 0 1-1.493.101l-.007-.101v-.918H9.415v.918a.75.75 0 0 1-1.492.101l-.007-.101v-.918l-1.75.001a2.417 2.417 0 0 1-2.412-2.258l-.005-.159v-1.75h-.917a.75.75 0 0 1-.101-1.493l.101-.007h.916V12.75l-.916.001a.75.75 0 0 1-.101-1.493l.101-.007h.916V9.415h-.916a.75.75 0 0 1-.101-1.492l.101-.007h.916l.001-1.75c0-1.282.997-2.33 2.258-2.412l.159-.005h1.75v-.917a.75.75 0 0 1 1.493-.101l.007.101v.916h1.832l.001-.916a.75.75 0 0 1 1.493-.101l.007.101v.916h1.833v-.916a.75.75 0 0 1 .75-.75m2.5 3.167H6.167a.917.917 0 0 0-.917.917v11.666c0 .507.41.917.917.917h11.666c.507 0 .917-.41.917-.917V6.167a.917.917 0 0 0-.917-.917m-1.666 1.833a.75.75 0 0 1 .75.75v8.334a.75.75 0 0 1-.75.75H7.833a.75.75 0 0 1-.75-.75V7.833a.75.75 0 0 1 .75-.75Zm-.751 1.5H8.583v6.833h6.833z"/></svg>