<svg xmlns="http://www.w3.org/2000/svg" viewBox="0 0 24 24"><g fill="none" fill-rule="evenodd"><path d="M3 3h18v18H3z"/><path fill="currentColor" fill-rule="nonzero" stroke-linecap="square" d="m16.415 4.175 4.16 4.16v10.04a2.2 2.2 0 0 1-2.2 2.2h-12a2.2 2.2 0 0 1-2.2-2.2v-12a2.2 2.2 0 0 1 2.2-2.2zm-.579 1.4H6.375a.8.8 0 0 0-.8.8v12a.8.8 0 0 0 .8.8l.799-.001.001-5.799a1.7 1.7 0 0 1 1.553-1.694l.147-.006h7a1.7 1.7 0 0 1 1.694 1.553l.006.147-.001 5.799.801.001a.8.8 0 0 0 .794-.7l.006-.1V8.914zm.039 7.5h-7a.3.3 0 0 0-.292.231l-.008.069-.001 5.799h7.6l.001-5.799a.3.3 0 0 0-.231-.292zm-.55-5.9v2.9h-1.4v-2.9z"/></g></svg>