<svg xmlns="http://www.w3.org/2000/svg" viewBox="0 0 24 24"><path fill="currentColor" fill-rule="nonzero" d="M18.667 15.417a.75.75 0 0 1 .743.648l.007.102v2.5a.75.75 0 0 1-.649.743l-.101.007h-2.5a.75.75 0 0 1-.102-1.493l.102-.007h1.75v-1.75a.75.75 0 0 1 .648-.744zm-13.334 0a.75.75 0 0 1 .743.648l.007.102v1.75h1.75a.75.75 0 0 1 .744.648l.006.102a.75.75 0 0 1-.648.743l-.102.007h-2.5a.75.75 0 0 1-.743-.649l-.007-.101v-2.5a.75.75 0 0 1 .75-.75m15.834-4.167a.75.75 0 0 1 .101 1.493l-.101.007H2.833a.75.75 0 0 1-.101-1.493l.101-.007zM7.833 4.583a.75.75 0 0 1 .102 1.493l-.102.007h-1.75v1.75a.75.75 0 0 1-.648.744l-.102.006a.75.75 0 0 1-.743-.648l-.007-.102v-2.5a.75.75 0 0 1 .649-.743l.101-.007zm10.834 0a.75.75 0 0 1 .743.649l.007.101v2.5a.75.75 0 0 1-1.493.102l-.007-.102v-1.75h-1.75a.75.75 0 0 1-.744-.648l-.006-.102a.75.75 0 0 1 .648-.743l.102-.007z"/></svg>