<svg xmlns="http://www.w3.org/2000/svg" viewBox="0 0 24 24"><path fill="currentColor" fill-rule="nonzero" d="M20.184 2.931a.73.73 0 0 1 .4.027q.008.005.02.009.039.013.076.033.007.005.014.009a1 1 0 0 1 .096.063.8.8 0 0 1 .148.15l-.074-.086a.8.8 0 0 1 .136.186l.008.017c.084.168.105.37.033.575l.014-.042-.013.04v.002l-5.834 16.667a.75.75 0 0 1-1.344.15L9.789 14.21l-6.52-4.074a.75.75 0 0 1 .05-1.301l.1-.043L20.07 2.964a1 1 0 0 1 .106-.031Zm-1.646 3.591-7.252 7.252 3.022 4.837zM17.48 5.458 5.388 9.691l4.837 3.023z"/></svg>