<svg xmlns="http://www.w3.org/2000/svg" viewBox="0 0 24 24"><g fill="none" fill-rule="evenodd"><path d="M2.1 4h19.8v15.4H2.1z"/><g fill="currentColor" fill-rule="nonzero" stroke-linecap="square"><path d="M17.05 15.4a.825.825 0 0 1 1.074-.08l.092.08 3.442 3.442a.825.825 0 0 1-1.074 1.246l-.092-.08-3.442-3.442a.825.825 0 0 1 0-1.166M8.7 10.35a.825.825 0 0 1 .112 1.642L8.7 12H2.925a.825.825 0 0 1-.112-1.642l.112-.008zM8.7 15.3a.825.825 0 0 1 .112 1.642l-.112.008H2.925a.825.825 0 0 1-.112-1.642l.112-.008zM15.3 5.4a.825.825 0 0 1 .112 1.642l-.112.008H2.925a.825.825 0 0 1-.112-1.642l.112-.008z"/><path d="M15.3 9.525a4.125 4.125 0 1 0 0 8.25 4.125 4.125 0 0 0 0-8.25m0 1.65a2.475 2.475 0 1 1 0 4.95 2.475 2.475 0 0 1 0-4.95"/></g></g></svg>