<svg xmlns="http://www.w3.org/2000/svg" viewBox="0 0 24 24"><g fill="none" fill-rule="evenodd"><path d="M3 3h18v18H3z"/><path fill="currentColor" fill-rule="nonzero" stroke-linecap="square" d="m16.995 4.005 3 3q.037.037.068.079l-.068-.079a.7.7 0 0 1 .205.495l-.008.104a.7.7 0 0 1-.123.304l-.016.022a1 1 0 0 1-.05.056l-.008.009-3 3-.99-.99 1.805-1.806-5.483.001L9.161 12l3.167 3.8 5.482-.001-1.805-1.804.99-.99 3 3 .016.016q.023.025.043.052l-.059-.068a.7.7 0 0 1 .199.4l.006.095-.008.104a.7.7 0 0 1-.123.304l-.016.022a1 1 0 0 1-.05.056l-.008.009-3 3-.99-.99 1.805-1.806L12 17.2a.7.7 0 0 1-.466-.178l-.072-.074L7.921 12.7 4.5 12.7a.7.7 0 0 1-.095-1.394L4.5 11.3l3.422-.001 3.54-4.247a.7.7 0 0 1 .435-.244L12 6.8l5.81-.001-1.805-1.804z"/></g></svg>