<svg xmlns="http://www.w3.org/2000/svg" viewBox="0 0 24 24"><g fill="none" fill-rule="evenodd"><path d="M3 3h18v18H3z"/><g fill="currentColor" fill-rule="nonzero" stroke-linecap="square" transform="translate(2.75 3.5)"><path d="M15.5 9.25A2.75 2.75 0 0 1 18.25 12v2a2.75 2.75 0 0 1-2.75 2.75H3A2.75 2.75 0 0 1 .25 14v-2A2.75 2.75 0 0 1 3 9.25Zm0 1.5H3c-.69 0-1.25.56-1.25 1.25v2c0 .69.56 1.25 1.25 1.25h12.5c.69 0 1.25-.56 1.25-1.25v-2c0-.69-.56-1.25-1.25-1.25M7 12.25a.75.75 0 0 1 .102 1.493L7 13.75H4a.75.75 0 0 1-.102-1.493L4 12.25zm8.5-12A2.75 2.75 0 0 1 18.25 3v2a2.75 2.75 0 0 1-2.75 2.75H3A2.75 2.75 0 0 1 .25 5V3A2.75 2.75 0 0 1 3 .25Zm0 1.5H3c-.69 0-1.25.56-1.25 1.25v2c0 .69.56 1.25 1.25 1.25h12.5c.69 0 1.25-.56 1.25-1.25V3c0-.69-.56-1.25-1.25-1.25M7 3.25a.75.75 0 0 1 .102 1.493L7 4.75H4a.75.75 0 0 1-.102-1.493L4 3.25z"/><circle cx="14.5" cy="4" r="1"/><circle cx="14.5" cy="13" r="1"/></g></g></svg>