<svg xmlns="http://www.w3.org/2000/svg" viewBox="0 0 24 24"><g fill="none" fill-rule="evenodd"><path d="M3 3h18v18H3z"/><g fill="currentColor" fill-rule="nonzero" stroke-linecap="square"><path d="M12 9a3 3 0 1 0 0 6 3 3 0 0 0 0-6m0 1.5a1.5 1.5 0 1 1 0 3 1.5 1.5 0 0 1 0-3"/><path d="m10.5 3-.102.007a.75.75 0 0 0-.642.65l-.26 2.077-.148.06a6.7 6.7 0 0 0-1.394.81l-.123.096-1.934-.815a.75.75 0 0 0-.941.316l-1.5 2.598-.049.1a.75.75 0 0 0 .246.873l1.669 1.264-.023.157a6.7 6.7 0 0 0 0 1.614l.023.156-1.67 1.265a.75.75 0 0 0-.196.973l1.5 2.598.063.092a.75.75 0 0 0 .878.224l1.934-.816.123.098c.43.324.899.596 1.394.809l.148.059.26 2.078A.75.75 0 0 0 10.5 21h3l.102-.007a.75.75 0 0 0 .642-.65l.259-2.078.15-.06a6.7 6.7 0 0 0 1.393-.808l.122-.098 1.935.816a.75.75 0 0 0 .941-.316l1.5-2.598.049-.1a.75.75 0 0 0-.246-.873l-1.67-1.265.033-.235q.04-.362.04-.726l-.01-.366a7 7 0 0 0-.03-.364l-.033-.236 1.67-1.264a.75.75 0 0 0 .197-.973l-1.5-2.598-.063-.092a.75.75 0 0 0-.878-.224l-1.935.815-.122-.097a6.7 6.7 0 0 0-1.394-.809l-.149-.06-.259-2.077A.75.75 0 0 0 13.5 3zm.662 1.5h1.675l.235 1.874a.75.75 0 0 0 .516.622 5.2 5.2 0 0 1 1.942 1.127l.086.068a.75.75 0 0 0 .713.07l1.746-.736.838 1.451-1.507 1.141a.75.75 0 0 0-.28.76q.123.555.124 1.125c0 .375-.042.752-.123 1.122l-.016.107a.75.75 0 0 0 .295.652l1.507 1.14-.838 1.451-1.746-.736a.75.75 0 0 0-.799.139 5.2 5.2 0 0 1-1.942 1.127l-.1.04a.75.75 0 0 0-.416.582l-.235 1.874h-1.675l-.234-1.874a.75.75 0 0 0-.516-.622 5.2 5.2 0 0 1-1.942-1.127l-.086-.068a.75.75 0 0 0-.713-.07l-1.747.735-.838-1.451 1.508-1.14a.75.75 0 0 0 .28-.76 5.2 5.2 0 0 1 0-2.245l.015-.108a.75.75 0 0 0-.295-.653L5.086 8.976l.838-1.451 1.747.737a.75.75 0 0 0 .799-.139 5.2 5.2 0 0 1 1.942-1.127l.1-.04a.75.75 0 0 0 .416-.582z"/></g></g></svg>