<svg xmlns="http://www.w3.org/2000/svg" viewBox="0 0 24 24"><g fill="currentColor" fill-rule="nonzero"><path d="M19.25 7.25a.75.75 0 0 1 .102 1.493l-.102.007H13a.75.75 0 0 1-.102-1.493L13 7.25zM6.75 7.25a.75.75 0 0 1 .102 1.493l-.102.007h-2a.75.75 0 0 1-.102-1.493l.102-.007z"/><path d="M10 4.6a3.4 3.4 0 1 0 0 6.8 3.4 3.4 0 0 0 0-6.8M10 6a2 2 0 1 1 0 4 2 2 0 0 1 0-4M14 12.6a3.4 3.4 0 1 0 0 6.8 3.4 3.4 0 0 0 0-6.8m0 1.4a2 2 0 1 1 0 4 2 2 0 0 1 0-4"/><path d="M19.5 15.25a.75.75 0 0 1 .102 1.493l-.102.007h-2a.75.75 0 0 1-.102-1.493l.102-.007zM10.5 15.25a.75.75 0 0 1 .102 1.493l-.102.007H4.75a.75.75 0 0 1-.102-1.493l.102-.007z"/></g></svg>