<svg xmlns="http://www.w3.org/2000/svg" viewBox="0 0 24 24"><g fill="none" fill-rule="evenodd"><path d="M3 3h18v18H3z"/><g fill="currentColor" fill-rule="nonzero" stroke-linecap="square"><path d="m14.215 7.43.67 1.34-5.1 2.55-.67-1.34zM9.785 12.604l5.1 2.55-.67 1.342-5.1-2.55z"/><path d="M6.75 8.25a3.75 3.75 0 1 0 0 7.5 3.75 3.75 0 0 0 0-7.5m0 1.5a2.25 2.25 0 1 1 0 4.5 2.25 2.25 0 0 1 0-4.5M17.25 3a3.75 3.75 0 1 0 0 7.5 3.75 3.75 0 0 0 0-7.5m0 1.5a2.25 2.25 0 1 1 0 4.5 2.25 2.25 0 0 1 0-4.5M17.25 13.5a3.75 3.75 0 1 0 0 7.5 3.75 3.75 0 0 0 0-7.5m0 1.5a2.25 2.25 0 1 1 0 4.5 2.25 2.25 0 0 1 0-4.5"/></g></g></svg>