<svg xmlns="http://www.w3.org/2000/svg" fill="none" viewBox="0 0 24 24"><path fill="currentColor" d="M9 2.75H6.75a.75.75 0 0 0-.335.08l-3 1.5A.75.75 0 0 0 3 5v5.031l.006.099a.75.75 0 0 0 .875.64l2.118-.376L6 18.5c0 .414.336.75.75.75h4.986a5.5 5.5 0 0 1-.593-1.5H7.499L7.5 9.5l-.006-.098a.75.75 0 0 0-.875-.64l-2.12.374V5.463L6.925 4.25h1.401l.005.027A3.76 3.76 0 0 0 12 7.25l.198-.005a3.76 3.76 0 0 0 3.426-2.781l.049-.214h1.401l2.425 1.213v3.673l-2.118-.374-.098-.011a.75.75 0 0 0-.783.749V11c.52 0 1.023.072 1.5.207l-.001-.813 2.12.376a.75.75 0 0 0 .881-.739V5a.75.75 0 0 0-.415-.67l-3-1.5a.75.75 0 0 0-.335-.08H15a.75.75 0 0 0-.75.75A2.26 2.26 0 0 1 12 5.75a2.26 2.26 0 0 1-2.245-2.097L9.75 3.5A.75.75 0 0 0 9 2.75"/><path fill="currentColor" d="M17.25 13.5a.75.75 0 0 0-1.5 0v4.19l-.72-.72a.75.75 0 1 0-1.06 1.06l2 2a.75.75 0 0 0 1.06 0l2-2a.75.75 0 1 0-1.06-1.06l-.72.72zM20.25 21.5a.75.75 0 0 1-.75.75h-6a.75.75 0 0 1 0-1.5h6a.75.75 0 0 1 .75.75"/></svg>