<svg xmlns="http://www.w3.org/2000/svg" fill="none" viewBox="0 0 24 24"><path fill="currentColor" d="M9 3.75H6.75a.75.75 0 0 0-.335.08l-3 1.5A.75.75 0 0 0 3 6v5.031l.006.099a.75.75 0 0 0 .875.64l2.118-.376L6 19.5c0 .414.336.75.75.75h6.016c.17 0 .266-.203.166-.342a5 5 0 0 1-.567-1.029.21.21 0 0 0-.189-.129H7.499L7.5 10.5l-.006-.098a.75.75 0 0 0-.875-.64l-2.12.374V6.463L6.925 5.25h1.401l.005.027A3.76 3.76 0 0 0 12 8.25l.198-.005a3.76 3.76 0 0 0 3.426-2.781l.049-.214h1.401l2.425 1.213v3.673l-2.118-.374-.098-.011a.75.75 0 0 0-.783.749v1.304c0 .118.102.21.22.204a5 5 0 0 1 1.038.05.208.208 0 0 0 .241-.203v-.461l2.12.376a.75.75 0 0 0 .881-.739V6a.75.75 0 0 0-.415-.67l-3-1.5a.75.75 0 0 0-.335-.08H15a.75.75 0 0 0-.75.75A2.26 2.26 0 0 1 12 6.75a2.26 2.26 0 0 1-2.245-2.097L9.75 4.5A.75.75 0 0 0 9 3.75"/><path fill="currentColor" d="M17 13c-.462 0-.907.079-1.322.224a.75.75 0 1 0 .496 1.415 2.5 2.5 0 0 1 1.652 0 .75.75 0 1 0 .495-1.415A4 4 0 0 0 17 13M20.776 15.679a.75.75 0 1 0-1.416.495 2.5 2.5 0 0 1 0 1.652.75.75 0 1 0 1.416.495 4 4 0 0 0 0-2.643M14.64 16.174a.75.75 0 1 0-1.416-.495 4 4 0 0 0 0 2.643.75.75 0 1 0 1.415-.496 2.5 2.5 0 0 1 0-1.652M16.174 19.36a.75.75 0 1 0-.495 1.416 4 4 0 0 0 2.643 0 .75.75 0 1 0-.496-1.416 2.5 2.5 0 0 1-1.652 0"/></svg>