<svg xmlns="http://www.w3.org/2000/svg" fill="none" viewBox="0 0 18 18"><path fill="currentColor" d="M13.126 7.838a.562.562 0 0 1 .796-.512l1.102.504c.1.046.218-.004.255-.107l.655-1.842a.19.19 0 0 0-.095-.232l-4.248-2.073c-.556 1.042-1.563 1.589-2.59 1.589-1.028 0-2.035-.546-2.592-1.589L2.162 5.65a.19.19 0 0 0-.094.232l.654 1.842.017.036c.049.079.15.111.238.071l1.102-.504a.563.563 0 0 1 .797.512v6.6c0 .103.084.187.187.187h7.875a.19.19 0 0 0 .188-.187zm1.125 6.6c0 .724-.588 1.312-1.313 1.312H5.063a1.31 1.31 0 0 1-1.312-1.312V8.713l-.306.14c-.7.321-1.525-.028-1.783-.754l-.654-1.842a1.31 1.31 0 0 1 .661-1.619l4.779-2.33a.563.563 0 0 1 .782.335C7.533 3.601 8.28 4.04 9 4.04c.722 0 1.468-.44 1.77-1.397a.564.564 0 0 1 .783-.336l4.78 2.331c.6.293.884.99.66 1.62l-.653 1.841a1.313 1.313 0 0 1-1.784.755l-.305-.14z"/></svg>