<svg xmlns="http://www.w3.org/2000/svg" viewBox="0 0 24 24"><path fill="currentColor" fill-rule="evenodd" d="M9 3.75a.75.75 0 0 1 .75.75l.005.153A2.26 2.26 0 0 0 12 6.75a2.26 2.26 0 0 0 2.25-2.25.75.75 0 0 1 .75-.75h2.25a.75.75 0 0 1 .335.08l3 1.5A.75.75 0 0 1 21 6v5.031a.75.75 0 0 1-.074.326l-.233-.246a1.3 1.3 0 0 0-1.896 0l-.343.364-.455-.081v.566l-1.5 1.599.001-3.059c0-.4.31-.717.687-.748l.096-.001.098.01 2.118.375V6.463L17.074 5.25h-1.401l-.05.214a3.76 3.76 0 0 1-3.424 2.78L12 8.25a3.76 3.76 0 0 1-3.669-2.973l-.005-.027H6.925L4.499 6.463v3.673l2.12-.374a.75.75 0 0 1 .875.64l.006.098-.001 8.25h4.298l1.407 1.5H6.75a.75.75 0 0 1-.743-.648L6 19.5l-.001-8.106-2.118.376a.75.75 0 0 1-.875-.64L3 11.03V6a.75.75 0 0 1 .415-.67l3-1.5a.75.75 0 0 1 .335-.08ZM19.745 12 21 13.338 14.752 20 11 16l1.255-1.338 2.497 2.662z"/></svg>