<svg xmlns="http://www.w3.org/2000/svg" fill="none" viewBox="0 0 24 24"><path fill="currentColor" fill-rule="evenodd" d="M19.305 3c.87 0 1.609.64 1.733 1.501l.466 3.25A3.71 3.71 0 0 1 20 11.295v7.955A1.75 1.75 0 0 1 18.25 21H14a.75.75 0 0 1-.75-.75v-4A.25.25 0 0 0 13 16h-2a.25.25 0 0 0-.25.25v4A.75.75 0 0 1 10 21H5.75A1.75 1.75 0 0 1 4 19.25v-7.952a3.74 3.74 0 0 1-1.541-3.544l.431-3.235A1.75 1.75 0 0 1 4.625 3zM9.15 10.552a3.76 3.76 0 0 1-3.65 1.385v7.313c0 .138.113.25.25.25h3.5v-3.25c0-.966.784-1.75 1.75-1.75h2c.967 0 1.75.784 1.75 1.75v3.25h3.5a.25.25 0 0 0 .25-.25v-7.313q-.329.062-.677.063c-1.19 0-2.252-.56-2.935-1.435A3.57 3.57 0 0 1 12.023 12a3.57 3.57 0 0 1-2.874-1.448M4.625 4.5a.25.25 0 0 0-.248.217l-.431 3.235a2.257 2.257 0 1 0 4.491.447l.26-3.899zm5.324 3.783a2.079 2.079 0 1 0 4.15.032L13.903 4.5h-3.703zm5.655.11a2.22 2.22 0 1 0 4.415-.43l-.467-3.248a.25.25 0 0 0-.247-.215h-3.9z" clip-rule="evenodd"/></svg>