<svg xmlns="http://www.w3.org/2000/svg" fill="none" viewBox="0 0 24 24"><path fill="currentColor" d="M12.001 17.25a3 3 0 0 1-2.993-2.8.19.19 0 0 1 .193-.2h5.6c.11 0 .2.09.194.2A3 3 0 0 1 12 17.25M8.625 12.21a1.333 1.333 0 1 0 0-2.667 1.333 1.333 0 0 0 0 2.666M16.71 10.876a1.333 1.333 0 1 1-2.667 0 1.333 1.333 0 0 1 2.666 0"/><path fill="currentColor" fill-rule="evenodd" d="M12.001 3a9 9 0 1 0 0 18.002 9 9 0 0 0 0-18.001m-7.5 9.001a7.5 7.5 0 1 1 15 0 7.5 7.5 0 0 1-15 0" clip-rule="evenodd"/></svg>