<svg xmlns="http://www.w3.org/2000/svg" fill="none" viewBox="0 0 24 24"><path fill="currentColor" d="M7.74 3.223a.775.775 0 0 1 1.088 0l2.754 2.728a.8.8 0 0 1 .163.234.755.755 0 0 1-.162.85L8.828 9.764a.775.775 0 0 1-1.089 0 .76.76 0 0 1 0-1.08l1.442-1.427c-3.117.011-5.64 2.518-5.64 5.608 0 3.098 2.535 5.609 5.662 5.609h.919c.425 0 .77.342.77.763a.767.767 0 0 1-.77.763h-.92C5.226 20 2 16.806 2 12.865c0-3.933 3.213-7.123 7.18-7.134L7.74 4.303a.76.76 0 0 1 0-1.08M13.946 6.494c0-.422.345-.763.77-.763h5.514c.425 0 .77.341.77.763a.767.767 0 0 1-.77.763h-5.514a.767.767 0 0 1-.77-.763M14.716 12.102a.767.767 0 0 0-.77.763c0 .422.345.763.77.763h5.514c.425 0 .77-.341.77-.763a.767.767 0 0 0-.77-.763zM14.716 18.474a.767.767 0 0 0-.77.763c0 .421.345.763.77.763h5.514c.425 0 .77-.342.77-.763a.767.767 0 0 0-.77-.763z"/></svg>