<svg xmlns="http://www.w3.org/2000/svg" fill="none" viewBox="0 0 24 24"><path fill="currentColor" d="M2 11.135C2 7.195 5.225 4 9.203 4h.919c.425 0 .77.342.77.763a.767.767 0 0 1-.77.763h-.92c-3.126 0-5.661 2.511-5.661 5.609 0 3.09 2.523 5.597 5.64 5.608l-1.442-1.428a.76.76 0 0 1 0-1.079.775.775 0 0 1 1.09 0l2.753 2.728q.016.015.031.032a.757.757 0 0 1-.028 1.05l-2.757 2.73a.775.775 0 0 1-1.089 0 .76.76 0 0 1 0-1.078l1.442-1.429C5.213 18.258 2 15.068 2 11.135M14.716 4a.767.767 0 0 0-.77.763c0 .421.345.763.77.763h5.514c.425 0 .77-.342.77-.763A.767.767 0 0 0 20.23 4zM14.716 10.372a.767.767 0 0 0-.77.763c0 .421.345.763.77.763h5.514c.425 0 .77-.342.77-.763a.767.767 0 0 0-.77-.763zM13.946 17.506c0-.421.345-.763.77-.763h5.514c.425 0 .77.342.77.763a.767.767 0 0 1-.77.763h-5.514a.767.767 0 0 1-.77-.763"/></svg>