<svg xmlns="http://www.w3.org/2000/svg" fill="none" viewBox="0 0 24 24"><path fill="currentColor" d="M17.774 7.987a.3.3 0 0 1-.548 0L16.45 6.25l-1.744-.78a.3.3 0 0 1-.003-.546l1.747-.799.777-1.72a.3.3 0 0 1 .546 0l.777 1.72 1.747.799a.3.3 0 0 1-.003.547l-1.744.779zm0 13.608a.3.3 0 0 1-.547 0l-.777-1.72-1.747-.799a.3.3 0 0 1 .003-.547l1.744-.779.776-1.737a.3.3 0 0 1 .548 0l.776 1.737 1.744.78a.3.3 0 0 1 .003.546l-1.747.799zm-8.624-3.4a.3.3 0 0 1-.547 0l-1.828-4.07L2.7 12.273a.3.3 0 0 1 0-.546l4.074-1.852 1.828-4.07a.3.3 0 0 1 .547 0L11 9.874l4.074 1.852a.3.3 0 0 1 0 .546L11 14.125zm-.275-3.045 1-2.15 2.15-1-2.15-1-1-2.15-1 2.15-2.15 1 2.15 1z"/></svg>