<svg xmlns="http://www.w3.org/2000/svg" viewBox="0 0 24 24"><g fill="none" fill-rule="evenodd"><path d="M5 3h14v14H5z"/><g fill="currentColor" fill-rule="nonzero" stroke-linecap="square"><path d="M14.5 9.583V5.167h-2.792c-1.22 0-2.208.988-2.208 2.208l.008.176c.11 1.164 1.06 2.032 2.2 2.032zM13 6.667v1.416h-1.292a.71.71 0 0 1-.705-.639L11 7.34l.007-.088a.71.71 0 0 1 .702-.584z"/><path d="M12.583 3.417c1.009 0 1.835.778 1.911 1.767l.006.15v4.25H13v-4.25a.416.416 0 0 0-.342-.41l-.075-.007h-1.916v-1.5zM7.5 8.667v7.916H6V8.667z"/><path d="M6 11.583v5h2.5a2.5 2.5 0 0 0 2.5-2.5l-.006-.173A2.506 2.506 0 0 0 8.5 11.583zm1.5 3.5v-2h1a1 1 0 0 1 .997.917l.004.114c-.001.522-.449.97-1.001.97zM16.667 11c.638 0 1.222.315 1.575.825l.084.132.376.649-1.298.752-.376-.65a.42.42 0 0 0-.273-.199l-.088-.009H15.5a.416.416 0 0 0-.41.342l-.007.075v1.75c0 .204.148.374.342.41l.075.006h1.167c.12 0 .232-.051.309-.137l.051-.07.375-.65 1.3.75-.375.649c-.314.543-.873.9-1.502.952l-.158.006H15.5a1.916 1.916 0 0 1-1.91-1.767l-.007-.15v-1.75c0-1.008.778-1.834 1.767-1.91L15.5 11z"/></g><path fill="currentColor" fill-rule="nonzero" d="M4.753 18.93a2.25 2.25 0 0 1 2.34-.097l.153.094 1.348.895c.22.147.5.165.734.054l.098-.055 1.33-.889a2.25 2.25 0 0 1 2.346-.094l.154.094 1.33.889c.22.147.5.165.735.055l.098-.055 1.339-.892a2.25 2.25 0 0 1 2.343-.092l.154.095 2.162 1.444a.75.75 0 0 1-.737 1.302l-.097-.054-2.161-1.445a.75.75 0 0 0-.735-.056l-.098.055-1.339.892a2.25 2.25 0 0 1-2.343.092l-.154-.094-1.33-.889a.75.75 0 0 0-.735-.055l-.098.055-1.33.89a2.25 2.25 0 0 1-2.342.096l-.154-.093-1.348-.896a.75.75 0 0 0-.733-.054l-.098.055-2.169 1.447a.75.75 0 0 1-.92-1.18l.088-.068z"/></g></svg>