<svg xmlns="http://www.w3.org/2000/svg" width="36px" height="36px" viewBox="0 0 36 36" version="1.1">
    <defs>
        <clipPath id="clip1">
            <path d="M 8 20 L 26 20 L 26 29.25 L 8 29.25 Z M 8 20 "/>
        </clipPath>
        <clipPath id="clip2">
            <path d="M 8 6.75 L 26 6.75 L 26 16 L 8 16 Z M 8 6.75 "/>
        </clipPath>
    </defs>
    <g id="surface1">
        <path style="fill-rule:nonzero;fill:rgb(100%,100%,100%);fill-opacity:1;stroke-width:1.14286;stroke-linecap:butt;stroke-linejoin:miter;stroke:rgb(91.37255%,91.764706%,92.54902%);stroke-opacity:1;stroke-miterlimit:4;" d="M 8 0.572917 L 24 0.572917 C 28.104167 0.572917 31.427083 3.895833 31.427083 8 L 31.427083 24 C 31.427083 28.104167 28.104167 31.427083 24 31.427083 L 8 31.427083 C 3.895833 31.427083 0.572917 28.104167 0.572917 24 L 0.572917 8 C 0.572917 3.895833 3.895833 0.572917 8 0.572917 Z M 8 0.572917 " transform="matrix(1.125,0,0,1.125,0,0)"/>
        <path style=" stroke:none;fill-rule:nonzero;fill:rgb(25.882354%,52.156866%,95.686275%);fill-opacity:1;" d="M 28.980469 18.210938 C 28.980469 17.289062 28.90625 16.617188 28.746094 15.917969 L 18.21875 15.917969 L 18.21875 20.078125 L 24.398438 20.078125 C 24.273438 21.113281 23.601562 22.671875 22.105469 23.714844 L 22.085938 23.855469 L 25.414062 26.433594 L 25.644531 26.457031 C 27.761719 24.5 28.980469 21.625 28.980469 18.210938 Z M 28.980469 18.210938 "/>
        <g clip-path="url(#clip1)" clip-rule="nonzero">
            <path style=" stroke:none;fill-rule:nonzero;fill:rgb(20.392157%,65.882355%,32.549021%);fill-opacity:1;" d="M 18.21875 29.171875 C 21.246094 29.171875 23.789062 28.175781 25.644531 26.457031 L 22.105469 23.714844 C 21.160156 24.375 19.886719 24.835938 18.21875 24.835938 C 15.253906 24.835938 12.738281 22.882812 11.839844 20.179688 L 11.710938 20.191406 L 8.25 22.867188 L 8.203125 22.992188 C 10.046875 26.65625 13.835938 29.171875 18.21875 29.171875 Z M 18.21875 29.171875 "/>
        </g>
        <path style=" stroke:none;fill-rule:nonzero;fill:rgb(98.431373%,73.725492%,1.960784%);fill-opacity:1;" d="M 11.839844 20.179688 C 11.605469 19.480469 11.46875 18.734375 11.46875 17.960938 C 11.46875 17.1875 11.605469 16.441406 11.828125 15.742188 L 11.820312 15.59375 L 8.316406 12.875 L 8.203125 12.929688 C 7.445312 14.449219 7.007812 16.15625 7.007812 17.960938 C 7.007812 19.769531 7.445312 21.472656 8.203125 22.992188 Z M 11.839844 20.179688 "/>
        <g clip-path="url(#clip2)" clip-rule="nonzero">
            <path style=" stroke:none;fill-rule:nonzero;fill:rgb(92.156863%,26.274511%,20.784314%);fill-opacity:1;" d="M 18.21875 11.085938 C 20.324219 11.085938 21.746094 11.996094 22.554688 12.753906 L 25.71875 9.664062 C 23.773438 7.859375 21.246094 6.75 18.21875 6.75 C 13.835938 6.75 10.046875 9.265625 8.203125 12.929688 L 11.828125 15.742188 C 12.738281 13.039062 15.253906 11.085938 18.21875 11.085938 Z M 18.21875 11.085938 "/>
        </g>
    </g>
</svg>
