<?xml version="1.0" encoding="UTF-8"?>
<svg xmlns="http://www.w3.org/2000/svg" xmlns:xlink="http://www.w3.org/1999/xlink" width="36px" height="36px" viewBox="0 0 36 36" version="1.1">
    <defs>
        <clipPath id="clip1">
            <path d="M 7.875 7.875 L 28.125 7.875 L 28.125 28.125 L 7.875 28.125 Z M 7.875 7.875 "/>
        </clipPath>
    </defs>
    <g id="surface1">
        <path style="fill-rule:nonzero;fill:rgb(100%,100%,100%);fill-opacity:1;stroke-width:0.571429;stroke-linecap:butt;stroke-linejoin:miter;stroke:rgb(91.37255%,91.764706%,92.54902%);stroke-opacity:1;stroke-miterlimit:4;" d="M 4 0.286458 L 12 0.286458 C 14.052083 0.286458 15.713542 1.947917 15.713542 4 L 15.713542 12 C 15.713542 14.052083 14.052083 15.713542 12 15.713542 L 4 15.713542 C 1.947917 15.713542 0.286458 14.052083 0.286458 12 L 0.286458 4 C 0.286458 1.947917 1.947917 0.286458 4 0.286458 Z M 4 0.286458 " transform="matrix(2.25,0,0,2.25,0,0)"/>
        <g clip-path="url(#clip1)" clip-rule="nonzero">
            <path style=" stroke:none;fill-rule:nonzero;fill:rgb(95.294118%,95.294118%,95.294118%);fill-opacity:1;" d="M 7.875 7.875 L 28.125 7.875 L 28.125 28.125 L 7.875 28.125 Z M 7.875 7.875 "/>
        </g>
        <path style=" stroke:none;fill-rule:nonzero;fill:rgb(95.294118%,32.549021%,14.509805%);fill-opacity:1;" d="M 8.753906 8.753906 L 17.558594 8.753906 L 17.558594 17.558594 L 8.753906 17.558594 Z M 8.753906 8.753906 "/>
        <path style=" stroke:none;fill-rule:nonzero;fill:rgb(50.588238%,73.725492%,2.352941%);fill-opacity:1;" d="M 18.441406 8.753906 L 27.246094 8.753906 L 27.246094 17.558594 L 18.441406 17.558594 Z M 18.441406 8.753906 "/>
        <path style=" stroke:none;fill-rule:nonzero;fill:rgb(1.960784%,65.098041%,94.117647%);fill-opacity:1;" d="M 8.753906 18.441406 L 17.558594 18.441406 L 17.558594 27.246094 L 8.753906 27.246094 Z M 8.753906 18.441406 "/>
        <path style=" stroke:none;fill-rule:nonzero;fill:rgb(100%,72.941178%,3.137255%);fill-opacity:1;" d="M 18.441406 18.441406 L 27.246094 18.441406 L 27.246094 27.246094 L 18.441406 27.246094 Z M 18.441406 18.441406 "/>
    </g>
</svg>
