<svg xmlns="http://www.w3.org/2000/svg" viewBox="0 0 24 24"><g fill="none" fill-rule="evenodd"><path d="M2 2h20v20H2z"/><g stroke-linecap="round" stroke-linejoin="round"><path d="M2 2h20v20H2z"/><path fill="currentColor" fill-rule="nonzero" d="m8.929 8.192-5.358.778-.105.023a.75.75 0 0 0-.311 1.257l3.877 3.78-.915 5.339-.01.1a.75.75 0 0 0 1.099.69L12 17.64l4.794 2.52.093.042a.75.75 0 0 0 .996-.832l-.916-5.339 3.878-3.78.072-.08a.75.75 0 0 0-.488-1.2l-5.359-.778-2.397-4.857a.75.75 0 0 0-1.346 0zM12 5.361l1.9 3.848.052.091a.75.75 0 0 0 .512.32l4.246.616-3.073 2.995-.07.079a.75.75 0 0 0-.145.585l.725 4.229-3.798-1.996-.096-.042a.75.75 0 0 0-.602.042l-3.799 1.996.726-4.229.01-.104a.75.75 0 0 0-.225-.56l-3.074-2.995 4.247-.616a.75.75 0 0 0 .565-.41z"/></g></g></svg>