<svg xmlns="http://www.w3.org/2000/svg" fill="none" viewBox="0 0 24 24"><path fill="currentColor" d="M17.737 13.796a.74.74 0 0 1-.749.733.74.74 0 0 1-.748-.733.74.74 0 0 1 .748-.733.74.74 0 0 1 .749.733"/><path fill="currentColor" fill-rule="evenodd" d="M7.264 3.5a.77.77 0 0 0-.688.42L3.584 9.783a.8.8 0 0 0-.084.348c0 .866.255 1.614.749 2.155.403.442.93.702 1.495.784v5.856a.77.77 0 0 0 .772.768H12.5a.77.77 0 0 0 .771-.768.77.77 0 0 0-.77-.768H7.286v-5.317c.27-.128.515-.3.725-.507a2.66 2.66 0 0 0 1.87.764c.727 0 1.39-.29 1.87-.764.232.229.507.415.811.546a4.8 4.8 0 0 0-.086.916c0 .754.302 1.542.673 2.244.38.717.876 1.428 1.359 2.047a25 25 0 0 0 1.89 2.146l.035.034.01.009.003.003c.3.295.783.294 1.083 0l.003-.003.01-.01.034-.033.125-.127a24.614 24.614 0 0 0 1.766-2.02c.483-.618.98-1.329 1.359-2.046.37-.702.673-1.49.673-2.244 0-1.482-.641-2.619-1.555-3.37a.76.76 0 0 0-.025-.643L16.928 3.92a.77.77 0 0 0-.688-.42zm9.724 5.863c-1.443 0-3.006.726-3.86 2.086a1.06 1.06 0 0 1-.605-.951.77.77 0 0 0-.771-.768.77.77 0 0 0-.772.768c0 .576-.48 1.064-1.098 1.064s-1.099-.488-1.099-1.064a.77.77 0 0 0-.771-.768.77.77 0 0 0-.772.768c0 .576-.48 1.064-1.098 1.064-.32 0-.573-.114-.752-.31-.164-.18-.312-.479-.342-.947l2.689-5.269h8.03l2.272 4.452a4.6 4.6 0 0 0-1.05-.125m0 1.536c-1.464 0-2.968 1.065-2.968 2.897 0 .381.165.903.495 1.528.322.609.76 1.24 1.213 1.821.45.578.903 1.09 1.243 1.459l.017.018.017-.018c.341-.369.794-.88 1.244-1.459.453-.58.89-1.212 1.213-1.821.33-.625.495-1.147.495-1.528 0-1.832-1.504-2.897-2.969-2.897" clip-rule="evenodd"/></svg>