<svg xmlns="http://www.w3.org/2000/svg" viewBox="0 0 24 24"><path fill="currentColor" fill-rule="nonzero" d="M5.333 21.083a.75.75 0 0 1-.743-.648l-.007-.102v-9.338a3.24 3.24 0 0 1-2.495-2.976l-.005-.187a.75.75 0 0 1 .107-.385l2.5-4.166a.75.75 0 0 1 .643-.364h13.334a.75.75 0 0 1 .643.364l2.5 4.166a.75.75 0 0 1 .107.385 3.24 3.24 0 0 1-2.5 3.164v9.337a.75.75 0 0 1-.649.743l-.101.007zm11.112-10.888-.05.048a3.23 3.23 0 0 1-1.97.834l-.203.007a3.23 3.23 0 0 1-2.174-.841L12 10.196l-.047.047a3.23 3.23 0 0 1-1.97.834l-.204.007a3.23 3.23 0 0 1-2.174-.841l-.05-.048-.11.1c-.391.338-.858.577-1.36.698v8.59l3.5-.001v-4.249a.75.75 0 0 1 .648-.743l.101-.007h3.334a.75.75 0 0 1 .743.649l.007.101v4.249h3.5v-8.59a3.25 3.25 0 0 1-1.362-.697zm-3.529 5.888h-1.833v3.499h1.833zm5.326-11.666H5.757L3.594 8.023l.014.11c.108.63.556 1.158 1.17 1.361l.146.041c.787.187 1.599-.192 1.961-.915a.75.75 0 0 1 1.343.002 1.73 1.73 0 0 0 3.1 0 .75.75 0 0 1 1.344 0 1.73 1.73 0 0 0 3.1 0 .75.75 0 0 1 1.343-.002 1.743 1.743 0 0 0 3.277-.487l.013-.11z"/></svg>