<svg xmlns="http://www.w3.org/2000/svg" viewBox="0 0 24 24"><g fill="none" fill-rule="evenodd" stroke-linecap="square"><path stroke="currentColor" stroke-linecap="round" stroke-linejoin="round" stroke-width="1.667" d="M4.5 15.833h5.833"/><path fill="currentColor" fill-rule="nonzero" d="M10.333 8.417a.75.75 0 0 1 .102 1.493l-.102.007H4.5a.75.75 0 0 1-.102-1.493l.102-.007z"/><path fill="currentColor" fill-rule="nonzero" d="M4.5 5.083a.75.75 0 0 1 .743.649l.007.101v9.25h5.083a.75.75 0 0 1 .743.649l.007.101a.75.75 0 0 1-.648.743l-.102.007H4.5a.75.75 0 0 1-.743-.648l-.007-.102v-10a.75.75 0 0 1 .75-.75M19.5 6.667h-9.167A.833.833 0 0 0 9.5 7.5v3.333c0 .46.373.834.833.834H19.5c.46 0 .833-.373.833-.834V7.5a.833.833 0 0 0-.833-.833"/><path fill="currentColor" fill-rule="nonzero" d="M19.5 13.333h-9.167a.833.833 0 0 0-.833.834V17.5c0 .46.373.833.833.833H19.5c.46 0 .833-.373.833-.833v-3.333a.833.833 0 0 0-.833-.834"/></g></svg>