<svg xmlns="http://www.w3.org/2000/svg" viewBox="0 0 24 24"><g fill="none" fill-rule="evenodd"><path d="M3 21V3h18v18z"/><g fill="currentColor" fill-rule="nonzero"><path d="M9 12a.75.75 0 0 1 .648-.743l.102-.007h1.5a.75.75 0 0 1 .102 1.493l-.102.007h-1.5A.75.75 0 0 1 9 12"/><path d="M11.25 7.25a.75.75 0 0 1 .648-.743L12 6.5h2.25a.75.75 0 0 1 .102 1.493L14.25 8h-1.5v8h1.5a.75.75 0 0 1 .743.648l.007.102a.75.75 0 0 1-.648.743l-.102.007H12a.75.75 0 0 1-.743-.648l-.007-.102zM2.25 12a2.75 2.75 0 1 0 5.5 0 2.75 2.75 0 0 0-5.5 0m1.5 0a1.25 1.25 0 1 1 2.5 0 1.25 1.25 0 0 1-2.5 0M16.25 7a2.75 2.75 0 1 0 5.5 0 2.75 2.75 0 0 0-5.5 0m1.5 0a1.25 1.25 0 1 1 2.5 0 1.25 1.25 0 0 1-2.5 0M16.25 17a2.75 2.75 0 1 0 5.5 0 2.75 2.75 0 0 0-5.5 0m1.5 0a1.25 1.25 0 1 1 2.5 0 1.25 1.25 0 0 1-2.5 0"/></g></g></svg>