<svg xmlns="http://www.w3.org/2000/svg" fill="none" viewBox="0 0 24 24"><path fill="currentColor" fill-rule="evenodd" d="M4 3.25a.75.75 0 0 0-.75.75v3.636c0 .415.336.75.75.75h.705V12a.75.75 0 0 0 .75.75h5.795v1.41h-.705a.75.75 0 0 0-.75.75V20c0 .414.336.75.75.75h2.91a.75.75 0 0 0 .75-.75v-5.09a.75.75 0 0 0-.75-.75h-.705V12a.75.75 0 0 0-.75-.75H6.205V8.386H20a.75.75 0 0 0 .75-.75V4a.75.75 0 0 0-.75-.75zm.75 3.636V4.75h14.5v2.136zm6.545 8.773v3.591h1.41v-3.59z" clip-rule="evenodd"/><path fill="currentColor" fill-rule="evenodd" d="m19.163 10.846.001.003.004.005.013.02a13 13 0 0 1 .22.332c.142.217.33.516.52.844.19.325.386.69.538 1.037.14.315.291.724.291 1.095a2.204 2.204 0 1 1-4.41 0c0-.371.153-.78.292-1.095.152-.347.349-.712.537-1.037a20 20 0 0 1 .74-1.176l.014-.02.004-.005.001-.003a.75.75 0 0 1 1.235 0m-.696 1.956.079-.134.078.134c.175.302.342.614.462.888q.09.206.132.349c.029.095.032.139.032.143a.704.704 0 1 1-1.409 0c0-.004.003-.048.032-.143q.042-.143.132-.35c.12-.273.287-.585.462-.887" clip-rule="evenodd"/></svg>