<svg xmlns="http://www.w3.org/2000/svg" fill="none" viewBox="0 0 24 24"><path fill="currentColor" d="M15.997 6.588h-.159A3.96 3.96 0 0 0 11.982 3c-2.028.039-3.667 1.576-3.84 3.543h-.177c-2.487.074-4.457 2.158-4.393 4.628a4.62 4.62 0 0 0 2.666 4.186c.241 1.624 1.594 2.86 3.192 2.94q.258.037.523.037a3.9 3.9 0 0 0 1.443-.284v2.351a.599.599 0 0 0 1.197 0V18.05a3.8 3.8 0 0 0 1.945.227c1.62-.085 2.958-1.284 3.234-2.943a4.61 4.61 0 0 0 2.671-4.185 4.55 4.55 0 0 0-4.445-4.561zm1.22 7.683-.25.102a.6.6 0 0 0-.373.554l.006.188c-.142 1.082-1.036 1.908-2.185 1.971a2.73 2.73 0 0 1-1.823-.382v-1.008a3.24 3.24 0 0 0 2.596-2.64.599.599 0 1 0-1.18-.2 2.03 2.03 0 0 1-1.416 1.59v-1.489a.6.6 0 0 0-1.199 0v1.505a2 2 0 0 1-.583-.28 2.03 2.03 0 0 1-.831-1.325.59.59 0 0 0-.69-.49.597.597 0 0 0-.49.69 3.22 3.22 0 0 0 2.596 2.64v1.01c-.552.348-1.21.49-1.856.4-1.088-.057-1.983-.884-2.12-1.886v-.267a.6.6 0 0 0-.373-.554l-.233-.095a3.42 3.42 0 0 1-2.045-3.15A3.334 3.334 0 0 1 7.982 7.74h.68a.6.6 0 0 0 .593-.51l.068-.48a2.73 2.73 0 0 1 2.67-2.553c1.417.038 2.583 1.175 2.667 2.647l.064.432a.6.6 0 0 0 .593.51h.667a3.346 3.346 0 0 1 3.261 3.36 3.41 3.41 0 0 1-2.028 3.126"/></svg>