<svg xmlns="http://www.w3.org/2000/svg" viewBox="0 0 20 20"><path fill="currentColor" d="M13.109 5.787h-.123a3.07 3.07 0 0 0-2.994-2.785c-1.574.03-2.846 1.223-2.98 2.75h-.138c-1.93.057-3.459 1.675-3.409 3.592a3.59 3.59 0 0 0 2.069 3.249c.187 1.26 1.237 2.219 2.477 2.282q.201.028.406.028a3 3 0 0 0 1.12-.22v1.825a.464.464 0 1 0 .929 0v-1.826a2.94 2.94 0 0 0 1.51.176c1.257-.066 2.296-.996 2.51-2.284a3.58 3.58 0 0 0 2.073-3.248 3.53 3.53 0 0 0-3.45-3.54zm.947 5.963-.194.079a.46.46 0 0 0-.29.43l.005.146c-.11.84-.804 1.481-1.696 1.53a2.12 2.12 0 0 1-1.415-.297v-.782a2.51 2.51 0 0 0 2.015-2.049.464.464 0 1 0-.916-.155 1.57 1.57 0 0 1-1.099 1.233V10.73a.464.464 0 1 0-.93 0v1.168a1.6 1.6 0 0 1-.453-.217 1.58 1.58 0 0 1-.645-1.029.46.46 0 0 0-.535-.38.464.464 0 0 0-.38.535 2.5 2.5 0 0 0 2.014 2.049v.785a2.15 2.15 0 0 1-1.44.31c-.845-.044-1.539-.686-1.645-1.464v-.207a.465.465 0 0 0-.29-.43l-.181-.074a2.66 2.66 0 0 1-1.587-2.444A2.59 2.59 0 0 1 6.888 6.68h.528c.23 0 .426-.168.46-.396l.053-.372a2.117 2.117 0 0 1 2.072-1.982c1.1.03 2.005.912 2.07 2.055l.05.335a.464.464 0 0 0 .46.396h.518a2.597 2.597 0 0 1 2.531 2.607 2.65 2.65 0 0 1-1.574 2.427"/></svg>