<svg xmlns="http://www.w3.org/2000/svg" viewBox="0 0 24 24"><path fill="currentColor" fill-rule="nonzero" d="m16.946 12.147.084.073 3 3q.04.038.071.081l-.07-.081a.75.75 0 0 1 .146.854.7.7 0 0 1-.083.134l-.064.072-3 3a.75.75 0 0 1-1.133-.976l.073-.084 1.719-1.72H8.25a.75.75 0 0 1-.102-1.493L8.25 15h9.439l-1.72-1.72a.75.75 0 0 1-.072-.976l.073-.084a.75.75 0 0 1 .976-.073M8.03 4.72a.75.75 0 0 1 .073.976l-.073.084L6.311 7.5 16.5 7.5a.75.75 0 0 1 .102 1.493L16.5 9 6.311 8.999l1.72 1.72a.75.75 0 0 1 .072.977l-.073.084a.75.75 0 0 1-.976.073l-.084-.073-3-3-.064-.072-.007-.01.07.082a.75.75 0 0 1-.146-.854.7.7 0 0 1 .147-.206l3-3a.75.75 0 0 1 1.06 0"/></svg>