<svg xmlns="http://www.w3.org/2000/svg" viewBox="0 0 24 24"><path fill="currentColor" fill-rule="nonzero" d="M8.25 7.5a.75.75 0 0 1 .743.648L9 8.25v9.438l1.72-1.718a.75.75 0 0 1 .976-.073l.084.073a.75.75 0 0 1 .073.976l-.073.084-3 3a1 1 0 0 1-.081.071l.081-.07a.75.75 0 0 1-.854.146.7.7 0 0 1-.206-.147l-3-3a.75.75 0 0 1 .976-1.133l.084.073L7.5 17.689 7.5 8.25a.75.75 0 0 1 .75-.75m7.602-3.743.01.001a.75.75 0 0 1 .346.148l.072.064 3 3a.75.75 0 0 1-.976 1.133l-.084-.073-1.72-1.719V16.5a.75.75 0 0 1-1.493.102L15 16.5V6.311l-1.72 1.72a.75.75 0 0 1-.976.072l-.084-.073a.75.75 0 0 1-.073-.976l.073-.084 3-3 .072-.064.012-.01-.084.074a.75.75 0 0 1 .53-.22h.006z"/></svg>