<svg xmlns="http://www.w3.org/2000/svg" viewBox="0 0 34 32"><g fill="currentColor" fill-rule="nonzero" filter="url(#filter-1)" transform="translate(-27 -4)"><g filter="url(#filter-2)"><g filter="url(#filter-3)" transform="translate(29)"><path d="M9.519 10.119c0-.197.16-.357.356-.357h11.676c.197 0 .356.16.356.357v9.762c0 .197-.16.357-.356.357H9.875a.357.357 0 0 1-.356-.357zM7.29 15a.802.802 0 1 1 1.604 0 .802.802 0 1 1-1.604 0m16.042-4.881c0-.986-.798-1.786-1.782-1.786H8.449c-.984 0-1.782.8-1.782 1.786v9.762c0 .986.798 1.786 1.782 1.786h13.102c.984 0 1.782-.8 1.782-1.786z"/></g></g></g></svg>