<svg xmlns="http://www.w3.org/2000/svg" viewBox="0 0 24 24"><g fill="currentColor" fill-rule="nonzero"><path d="m18.88 6.506-1.664-1.664a1.75 1.75 0 0 0-1.237-.513l-.103.007-5.104.704.078-.004c-.464 0-.91.185-1.238.513l-7.25 7.25a.75.75 0 0 0 0 1.06l7.5 7.5a.75.75 0 0 0 1.061 0l7.25-7.25.116-.128a1.75 1.75 0 0 0 .388-.936l.005-.095.704-5.104.007-.103c0-.464-.185-.909-.513-1.237m-1.06 1.06.04.052a.3.3 0 0 1 .024.06l.005.04-.696 5.052-.007.102-.009.065a.25.25 0 0 1-.065.112l-6.72 6.719-6.438-6.44 6.72-6.719a.25.25 0 0 1 .176-.073l.102-.007 5.052-.697-.025-.003a.25.25 0 0 1 .176.073z"/><path d="M13.945 10.055a2.25 2.25 0 1 0-3.182 3.182 2.25 2.25 0 0 0 3.182-3.182m-1.061 1.061a.75.75 0 1 1-1.06 1.06.75.75 0 0 1 1.06-1.06"/></g></svg>