<svg xmlns="http://www.w3.org/2000/svg" fill="none" viewBox="0 0 24 24"><path fill="currentColor" fill-rule="evenodd" d="m21 7.086-3.457 3.458-2.264-.756-1.043 1.043c.528.74.84 1.645.84 2.622a4.533 4.533 0 0 1-4.53 4.528 4.533 4.533 0 0 1-4.527-4.528 4.533 4.533 0 0 1 4.528-4.528c.977 0 1.882.31 2.623.839l1.041-1.042-.754-2.265L16.914 3l.755 2.264 1.4-1.4 1.068 1.066-1.401 1.401zm-8.92 3.767a3.022 3.022 0 0 0-4.552 2.6 3.02 3.02 0 0 0 3.019 3.019 3.02 3.02 0 0 0 3.019-3.019 3 3 0 0 0-.42-1.533L12 13.067c.033.124.056.252.056.386a1.509 1.509 0 1 1-1.51-1.51c.135 0 .263.024.387.057z" clip-rule="evenodd"/><path fill="currentColor" d="M10.547 21C6.386 21 3 17.614 3 13.453s3.386-7.547 7.547-7.547q.425 0 .837.046l.75.083-.165 1.5-.75-.082a6.045 6.045 0 0 0-6.71 6 6.045 6.045 0 0 0 6.038 6.038 6.045 6.045 0 0 0 6-6.71l-.082-.75 1.5-.166.083.75q.046.414.046.838c0 4.162-3.386 7.547-7.547 7.547"/></svg>