<svg xmlns="http://www.w3.org/2000/svg" viewBox="0 0 24 24"><g fill="none" fill-rule="evenodd"><path fill="none" d="M0 0h24v24H0z"/><path fill="currentColor" d="M12 4a8 8 0 1 1-1.45 15.869l.112-1.405q.65.136 1.338.136a6.6 6.6 0 1 0-1.48-13.033v-1.43Q11.242 4 12 4m2.773 5.268.848.848v.212l-4.404 4.404h-.212l-2.626-2.626v-.212l.848-.849h.212l1.672 1.672 3.45-3.45z"/><rect width="2" height="2" x="7.375" y="17.279" fill="currentColor" rx="1" transform="rotate(-150 8.375 18.279)"/><rect width="2" height="2" x="4.721" y="14.625" fill="currentColor" rx="1" transform="rotate(-120 5.721 15.625)"/><rect width="2" height="2" x="3.75" y="11" fill="currentColor" rx="1" transform="rotate(-90 4.75 12)"/><rect width="2" height="2" x="4.721" y="7.375" fill="currentColor" rx="1" transform="rotate(-60 5.721 8.375)"/><rect width="2" height="2" x="7.375" y="4.721" fill="currentColor" rx="1" transform="rotate(-30 8.375 5.721)"/></g></svg>