<svg xmlns="http://www.w3.org/2000/svg" viewBox="0 0 24 24"><g fill="none" fill-rule="evenodd"><path d="M2 2h20v20H2z"/><g stroke-linecap="round" stroke-linejoin="round"><path d="M2 2h20v20H2z"/><path fill="currentColor" fill-rule="nonzero" d="M16.167 3.75c1.281 0 2.33.997 2.411 2.258l.005.159V19.5a.75.75 0 0 1-1.076.676l-.09-.052-1.989-1.326-1.231 1.232a.75.75 0 0 1-.977.073l-.084-.073L12 18.894l-1.136 1.136a.75.75 0 0 1-.977.073l-.084-.073-1.232-1.232-2.026 1.35-.086.043-.093.032-.098.02-.098.007a.8.8 0 0 1-.295-.059l-.099-.05-.087-.062-.053-.049-.025-.026-.038-.046-.03-.042-.055-.097-.04-.1-.024-.117-.007-.102V6.167c0-1.282.997-2.33 2.257-2.412l.16-.005zm0 1.5H7.833a.917.917 0 0 0-.91.81l-.006.107-.001 11.931 1.335-.889a.75.75 0 0 1 .857.018l.089.076 1.136 1.136 1.137-1.136a.75.75 0 0 1 .976-.073l.084.073 1.136 1.136 1.137-1.136a.75.75 0 0 1 .844-.151l.102.057 1.334.889V6.167a.917.917 0 0 0-.81-.91zm-2.084 6.833a1.167 1.167 0 1 1 0 2.334 1.167 1.167 0 0 1 0-2.334m.947-3.947a.75.75 0 0 1 .073.977l-.073.084-5 5a.75.75 0 0 1-1.133-.977l.073-.084 5-5a.75.75 0 0 1 1.06 0m-5.113-.22a1.167 1.167 0 1 1 0 2.334 1.167 1.167 0 0 1 0-2.333"/></g></g></svg>