<svg xmlns="http://www.w3.org/2000/svg" viewBox="0 0 24 24"><g fill="none" fill-rule="evenodd"><path d="M2 2h20v20H2z"/><g fill="currentColor" fill-rule="nonzero" stroke-linecap="square"><path d="m9.702 6.57 1.06 1.061-3.13 3.132-1.061-1.06zM14.298 6.57l3.131 3.132-1.06 1.06-3.132-3.13zM16.369 13.237l1.06 1.06-3.131 3.132-1.06-1.06zM7.631 13.237l3.132 3.132-1.06 1.06-3.132-3.131z"/><path d="M12 2.083a3.25 3.25 0 1 0 0 6.5 3.25 3.25 0 0 0 0-6.5m0 1.5a1.75 1.75 0 1 1 0 3.5 1.75 1.75 0 0 1 0-3.5M18.667 8.75a3.25 3.25 0 1 0 0 6.5 3.25 3.25 0 0 0 0-6.5m0 1.5a1.75 1.75 0 1 1 0 3.5 1.75 1.75 0 0 1 0-3.5M5.333 8.75a3.25 3.25 0 1 0 0 6.5 3.25 3.25 0 0 0 0-6.5m0 1.5a1.75 1.75 0 1 1 0 3.5 1.75 1.75 0 0 1 0-3.5M12 15.417a3.25 3.25 0 1 0 0 6.5 3.25 3.25 0 0 0 0-6.5m0 1.5a1.75 1.75 0 1 1 0 3.5 1.75 1.75 0 0 1 0-3.5"/></g></g></svg>