<svg xmlns="http://www.w3.org/2000/svg" viewBox="0 0 24 24"><g fill="none" fill-rule="evenodd"><path fill="currentColor" fill-rule="nonzero" d="M18 3a3 3 0 0 1 3 3v12a3 3 0 0 1-3 3H6a3 3 0 0 1-3-3V6a3 3 0 0 1 3-3zm0 1.5H6a1.5 1.5 0 0 0-1.493 1.356L4.5 6v12a1.5 1.5 0 0 0 1.356 1.493L6 19.5h12a1.5 1.5 0 0 0 1.493-1.356L19.5 18V6a1.5 1.5 0 0 0-1.356-1.493z"/><path d="M8 8h8v8H8z"/><g fill="currentColor" fill-rule="nonzero" stroke-linecap="square"><path d="M15.333 7.583a.75.75 0 0 1 .743.649l.007.101v1a.75.75 0 0 1-1.493.102l-.007-.102v-.25H9.417v.25a.75.75 0 0 1-.649.743l-.101.007a.75.75 0 0 1-.743-.648l-.007-.102v-1a.75.75 0 0 1 .648-.743l.102-.007z"/><path d="M12 7.583a.75.75 0 0 1 .743.649l.007.101v7.334a.75.75 0 0 1-1.493.101l-.007-.101V8.333a.75.75 0 0 1 .75-.75"/><path d="M13.667 14.917a.75.75 0 0 1 .101 1.493l-.101.007h-3.334a.75.75 0 0 1-.101-1.493l.101-.007z"/></g></g></svg>