<svg xmlns="http://www.w3.org/2000/svg" fill="none" viewBox="0 0 24 24"><path fill="currentColor" fill-rule="evenodd" d="M5.917 4.917H9.75a1 1 0 0 1 1 1V9.75a1 1 0 0 1-1 1H5.917a1 1 0 0 1-1-1V5.917a1 1 0 0 1 1-1m0 8.333H9.75a1 1 0 0 1 1 1v3.833a1 1 0 0 1-1 1H5.917a1 1 0 0 1-1-1V14.25a1 1 0 0 1 1-1m12.166-8.333H14.25a1 1 0 0 0-1 1V9.75a1 1 0 0 0 1 1h3.833a1 1 0 0 0 1-1V5.917a1 1 0 0 0-1-1M14.25 13.25h3.833a1 1 0 0 1 1 1v3.833a1 1 0 0 1-1 1H14.25a1 1 0 0 1-1-1V14.25a1 1 0 0 1 1-1" clip-rule="evenodd"/></svg>