<svg xmlns="http://www.w3.org/2000/svg" viewBox="0 0 24 24"><g fill="currentColor" fill-rule="evenodd"><path fill-rule="nonzero" d="M14 3a2 2 0 0 1 2 2v4l-6.994 7H5a2 2 0 0 1-2-2V5.564c0-.892.093-1.215.267-1.54.174-.327.43-.583.756-.757.301-.16.6-.252 1.345-.265zm.09 1.508L14 4.5H5.415l-.259.007-.179.013a.8.8 0 0 0-.168.035l-.078.035a.32.32 0 0 0-.141.14l-.032.07a1 1 0 0 0-.024.087l-.017.12-.011.171-.005.237L4.5 14a.5.5 0 0 0 .41.492L5 14.5h3.383L14.5 8.377V5a.5.5 0 0 0-.326-.469z"/><path fill-rule="nonzero" d="M15.015 8h3.421c.892 0 1.215.093 1.54.267.327.174.583.43.757.756s.267.65.267 1.54v7.873c0 .892-.093 1.215-.267 1.54-.174.327-.43.583-.756.757s-.65.267-1.54.267h-7.873c-.892 0-1.215-.093-1.54-.267a1.8 1.8 0 0 1-.757-.756c-.16-.301-.252-.6-.265-1.345L8 15zM9.5 15.621v2.964l.007.259.013.179c.008.073.02.125.035.168l.035.078a.32.32 0 0 0 .14.141l.07.032q.038.014.087.024l.12.017.171.011.386.006h8.02l.238-.006.17-.01.12-.018a1 1 0 0 0 .087-.024l.07-.032a.32.32 0 0 0 .141-.14l.032-.07a1 1 0 0 0 .024-.087l.017-.12.011-.171.006-.386v-8.02l-.006-.238-.01-.17-.018-.12a1 1 0 0 0-.024-.087l-.032-.07a.32.32 0 0 0-.14-.141l-.07-.032a1 1 0 0 0-.087-.024l-.12-.017-.171-.011-.237-.005-2.951-.001z"/><path fill-rule="nonzero" d="M13.064 18a.45.45 0 0 0 .284-.09.45.45 0 0 0 .156-.202l.344-1.016h2.216l.344 1.016q.044.128.158.21a.5.5 0 0 0 .29.082h1.048l-2.256-5.828h-1.384L12.008 18zm2.688-2.228H14.16l.536-1.588q.06-.152.128-.36.068-.209.132-.452.067.24.138.446l.045.131.077.227z"/><path stroke="currentColor" stroke-width=".3" d="M9.5 6a.35.35 0 0 0-.35.35v.698h-2.8a.35.35 0 1 0 0 .7h4.2v.349c0 .737-.469 1.71-1.21 2.556-.523-.62-.89-1.307-.89-1.857a.35.35 0 1 0-.7 0c0 .734.45 1.603 1.099 2.359-.553.508-1.204.931-1.906 1.164a.349.349 0 1 0 .222.663c.803-.268 1.54-.747 2.163-1.325.522-.502 0 0 .49-.497C10.7 10.168 11.25 9 11.25 8.097v-.35h1.4a.35.35 0 1 0 0-.699h-2.8V6.35A.35.35 0 0 0 9.5 6Z"/></g></svg>