<svg xmlns="http://www.w3.org/2000/svg" viewBox="0 0 24 24"><g fill="none" fill-rule="evenodd"><path fill="none" d="M0 0h24v24H0z"/><path fill="currentColor" d="M13.462 4c1.134 0 2.062.88 2.14 1.993l.006.153v.78h2.976a.683.683 0 0 1 .092 1.36l-.092.007-.781-.001v9.562c0 1.134-.879 2.062-1.993 2.14l-.153.006H8.34a2.146 2.146 0 0 1-2.141-1.993l-.006-.153V8.292h-.78a.683.683 0 0 1-.093-1.359l.093-.006 2.975-.001v-.78c0-1.134.88-2.062 1.994-2.14L10.535 4zm2.975 4.292H7.559v9.562a.78.78 0 0 0 .683.774l.098.006h7.317a.78.78 0 0 0 .774-.682l.006-.098zm-5.902 2.293c.346 0 .631.257.677.59l.006.093v4.39a.683.683 0 0 1-1.36.093l-.006-.092v-4.39c0-.378.306-.684.683-.684m2.927 0c.345 0 .631.257.676.59l.007.093v4.39a.683.683 0 0 1-1.36.093l-.006-.092v-4.39c0-.378.306-.684.683-.684m0-5.22h-2.927a.78.78 0 0 0-.775.683l-.006.098v.78h4.488v-.78a.78.78 0 0 0-.682-.774z"/></g></svg>