<svg xmlns="http://www.w3.org/2000/svg" viewBox="0 0 24 24"><path fill="currentColor" fill-rule="nonzero" d="M10.333 2.917a.75.75 0 0 1 .743.648l.007.102V6.25H17a.75.75 0 0 1 .692.46l.036.108.748 2.998 3.026 1.513a.75.75 0 0 1 .407.566l.008.105v5a.75.75 0 0 1-.649.743l-.101.007h-3.42l.003.083a3.25 3.25 0 0 1-3.066 3.245l-.184.005a3.25 3.25 0 0 1-3.249-3.333h-.918a.75.75 0 0 1-.743-.648L9.583 17V4.416h-6.75a.75.75 0 0 1-.743-.648l-.007-.101a.75.75 0 0 1 .649-.743l.101-.007zM14.5 16.083a1.75 1.75 0 1 0 0 3.5 1.75 1.75 0 0 0 0-3.5M7 15.417a.75.75 0 0 1 .102 1.493L7 16.917h-.833a.75.75 0 0 1-.102-1.493l.102-.007zm9.414-7.667h-5.331v8.5h.578a3.25 3.25 0 0 1 5.678 0h3.077v-3.787l-2.918-1.459a.75.75 0 0 1-.358-.386l-.034-.103zM7 11.25a.75.75 0 0 1 .102 1.493L7 12.75H4.5a.75.75 0 0 1-.102-1.493l.102-.007zm6.667-2.5a.75.75 0 0 1 .743.648l.007.102-.001.916h.917a.75.75 0 0 1 .743.649l.007.102a.75.75 0 0 1-.648.743l-.102.007h-1.666a.75.75 0 0 1-.743-.649l-.007-.101V9.5a.75.75 0 0 1 .75-.75M7 7.083a.75.75 0 0 1 .102 1.493L7 8.583H2.833a.75.75 0 0 1-.101-1.493l.101-.007z"/></svg>