<svg xmlns="http://www.w3.org/2000/svg" viewBox="0 0 24 24"><path fill="currentColor" fill-rule="nonzero" d="m12.055 2.919.108.016 7.5 1.666a.75.75 0 0 1 .587.732v8.334a8.25 8.25 0 0 1-16.5 0V5.333a.75.75 0 0 1 .587-.732l7.5-1.666a.75.75 0 0 1 .326 0ZM12 4.435 5.25 5.934v7.733a6.75 6.75 0 0 0 6.513 6.746l.237.004a6.75 6.75 0 0 0 6.75-6.75V5.935zm4.167 6.815a.75.75 0 0 1 .75.75A4.93 4.93 0 0 1 12 16.917a4.9 4.9 0 0 1-3.248-1.22l-.092.695a.75.75 0 0 1-.742.65l-.102-.007a.75.75 0 0 1-.65-.742l.007-.102.334-2.458a.75.75 0 0 1 .74-.65l.102.007 2.5.333a.75.75 0 0 1-.096 1.494l-.102-.007-.567-.075c.548.371 1.211.582 1.916.582A3.43 3.43 0 0 0 15.417 12a.75.75 0 0 1 .75-.75m-.085-4.292.102.007a.75.75 0 0 1 .65.742l-.007.102-.334 2.458a.75.75 0 0 1-.74.65l-.102-.007-2.5-.333a.75.75 0 0 1 .096-1.494l.102.007.568.075A3.4 3.4 0 0 0 12 8.583 3.43 3.43 0 0 0 8.583 12a.75.75 0 1 1-1.5 0A4.93 4.93 0 0 1 12 7.083c1.229 0 2.375.449 3.247 1.219l.093-.694a.75.75 0 0 1 .643-.643z"/></svg>