<svg xmlns="http://www.w3.org/2000/svg" viewBox="0 0 24 24"><path fill="currentColor" fill-rule="nonzero" d="M12 18.75a.75.75 0 0 1 .743.648l.007.102v1.667a.75.75 0 0 1-1.493.101l-.007-.101V19.5a.75.75 0 0 1 .75-.75m4.505-.515.049.089.704 1.51a.75.75 0 0 1-1.31.724l-.05-.09-.704-1.51a.75.75 0 0 1 1.31-.723m-8.062-.274a.75.75 0 0 1 .4.902l-.037.095-.705 1.51a.75.75 0 0 1-1.396-.538l.037-.095.704-1.511a.75.75 0 0 1 .997-.363M12 2.083a.75.75 0 0 1 .743.649l.007.101v1.793a6.585 6.585 0 0 1 5.83 6.31l.003.23v.153a4.085 4.085 0 0 1 3.334 4.014.75.75 0 0 1-.75.75H2.833a.75.75 0 0 1-.75-.75 4.085 4.085 0 0 1 3.334-4.014v-.152a6.584 6.584 0 0 1 5.833-6.541V2.833a.75.75 0 0 1 .75-.75m5.833 10.667H6.167a2.585 2.585 0 0 0-2.462 1.797l-.01.036h16.61l-.01-.036a2.585 2.585 0 0 0-2.298-1.792zM12 6.083a5.083 5.083 0 0 0-5.079 4.869l-.004.215v.082h10.165l.001-.082A5.083 5.083 0 0 0 12 6.083m0 1.75A.833.833 0 1 1 12 9.5a.833.833 0 0 1 0-1.667"/></svg>