<svg xmlns="http://www.w3.org/2000/svg" fill="none" viewBox="0 0 18 18"><path fill="currentColor" d="M9.203 2.766A.5.5 0 0 0 9 2.726l-.071.004h-.006a.6.6 0 0 0-.143.043.5.5 0 0 0-.151.106L5.504 6.004l-.056.065a.525.525 0 0 0 .798.677l2.23-2.228-.001 6.232.005.071a.525.525 0 0 0 1.045-.07V4.517l2.229 2.228.065.056a.525.525 0 0 0 .677-.798L9.371 2.879l-.01-.01-.04-.035-.015-.01-.006-.005a.5.5 0 0 0-.097-.053"/><path fill="currentColor" d="M14.52 11.304a.525.525 0 0 0-1.045.071v1.25l-.005.085a.725.725 0 0 1-.72.64h-7.5l-.085-.005a.725.725 0 0 1-.64-.72v-1.25l-.005-.071a.525.525 0 0 0-1.045.071v1.25l.004.122A1.775 1.775 0 0 0 5.25 14.4h7.5l.121-.004a1.775 1.775 0 0 0 1.654-1.77v-1.25z"/></svg>