<svg xmlns="http://www.w3.org/2000/svg" viewBox="0 0 24 24"><g fill="none" fill-rule="evenodd"><path d="M3 3h18v18H3z"/><path fill="currentColor" fill-rule="nonzero" stroke-linecap="square" d="M15.375 3.05a3.325 3.325 0 0 1 3.32 3.136l.005.189v.75c0 .425-.08.832-.226 1.206 1.151.448 1.976 1.377 2.439 2.739a2.935 2.935 0 0 1-2.607 3.875l-.172.005h-.828a3.53 3.53 0 0 1-2.89 5.245l-.194.005H6.735a3.513 3.513 0 0 1-2.5-5.981c.934-.947 1.795-1.602 2.597-1.952A4.4 4.4 0 0 1 6.05 9.75v-1.5c0-2.37 1.857-4.32 4.233-4.445L10.5 3.8a4.43 4.43 0 0 1 2.21.587 3.32 3.32 0 0 1 2.665-1.337m-7.44 10.336-.05.006c-.674.124-1.573.715-2.654 1.81a2.113 2.113 0 0 0 1.32 3.59l.184.008h7.487a2.131 2.131 0 0 0 1.54-3.605 11 11 0 0 0-.243-.246l-.019.001v-.018c-.862-.84-1.688-1.342-2.475-1.522-.659.456-1.45.74-2.308.785l-.217.005a4.43 4.43 0 0 1-2.566-.814m9.73-3.851a3.31 3.31 0 0 1-2.765.881 4.4 4.4 0 0 1-.758 1.89q.97.406 1.926 1.244h2.066a1.535 1.535 0 0 0 1.453-2.03c-.373-1.097-.997-1.737-1.922-1.985M10.5 5.2l-.163.004A3.05 3.05 0 0 0 7.45 8.25v1.5a3.05 3.05 0 0 0 1.121 2.363l.018.017c.52.42 1.179.67 1.893.67l.18-.004A3.05 3.05 0 0 0 13.55 9.75v-1.5A3.05 3.05 0 0 0 10.5 5.2m4.875-.75c-.641 0-1.223.314-1.576.816A4.43 4.43 0 0 1 14.95 8.25l-.001.753q.203.047.426.047a1.925 1.925 0 0 0 1.92-1.775l.005-.15v-.75a1.925 1.925 0 0 0-1.925-1.925"/></g></svg>