<svg xmlns="http://www.w3.org/2000/svg" fill="none" viewBox="0 0 24 24"><path fill="currentColor" d="M11.278 3a4.45 4.45 0 0 1 4.45 4.45v.47a.26.26 0 0 1-.194.248 5 5 0 0 0-.818.304c-.175.084-.388-.038-.388-.232v-.79a3.05 3.05 0 0 0-3.05-3.05l-.163.004A3.05 3.05 0 0 0 8.228 7.45v1.5a3.05 3.05 0 0 0 1.121 2.363l.018.017c.52.42 1.179.67 1.893.67l.18-.004a3 3 0 0 0 .252-.024.297.297 0 0 1 .334.317q-.042.406-.016.81a.25.25 0 0 1-.213.27q-.15.017-.302.026l-.217.005a4.43 4.43 0 0 1-2.566-.814l-.048.006c-.675.124-1.574.715-2.655 1.81a2.113 2.113 0 0 0 1.32 3.59l.184.008h5.201c.108 0 .203.07.245.17q.072.165.174.32l.433.65a.168.168 0 0 1-.139.26H7.513a3.513 3.513 0 0 1-2.5-5.981c.934-.947 1.795-1.602 2.597-1.952a4.4 4.4 0 0 1-.782-2.517v-1.5c0-2.37 1.857-4.32 4.232-4.445zM15.993 12.8a.797.797 0 1 0 1.595 0 .797.797 0 0 0-1.595 0"/><path fill="currentColor" fill-rule="evenodd" d="M20.244 12.013a3.54 3.54 0 0 1-1.508 3.735v5.22a.75.75 0 0 1-.987.712l-2.392-.798a.75.75 0 0 1-.513-.711v-1.368l-.67-1.006a.75.75 0 0 1 0-.832l.67-1.007v-.21a3.541 3.541 0 1 1 5.4-3.735m-1.62 1.67a2.04 2.04 0 1 0-2.708.95.75.75 0 0 1 .428.678v.874a.75.75 0 0 1-.126.416l-.52.78.52.78a.75.75 0 0 1 .126.415v1.054l.892.297v-4.616a.75.75 0 0 1 .429-.677 2.04 2.04 0 0 0 .96-.95" clip-rule="evenodd"/></svg>