<svg xmlns="http://www.w3.org/2000/svg" viewBox="0 0 24 24"><g fill="none" fill-rule="evenodd"><path d="M3 3h18v18H3z"/><g fill="currentColor" fill-rule="nonzero" stroke-linecap="square"><path d="M12.028 3.75a4.45 4.45 0 0 1 4.445 4.24l.005.21-.001.309-.136.01c-.444.043-.87.155-1.264.324V8.2a3.05 3.05 0 0 0-3.05-3.05l-.162.004a3.05 3.05 0 0 0-2.882 2.867l-.005.179v1.5a3.05 3.05 0 0 0 1.121 2.363l.018.017a3 3 0 0 0 1.657.661l.236.01.18-.005q.16-.01.311-.032l-.001.036v.765l-.053.005-.157.027c-.4.083-.758.271-1.048.533a4.4 4.4 0 0 1-1.78-.744l-.048.006c-.675.124-1.574.715-2.655 1.81a2.113 2.113 0 0 0 1.32 3.59l.184.008 2.237-.001v1.4l-2.237.001a3.513 3.513 0 0 1-2.5-5.981c.934-.947 1.795-1.602 2.597-1.952a4.4 4.4 0 0 1-.774-2.239L7.578 9.7V8.2a4.453 4.453 0 0 1 4.018-4.428l.214-.017z"/><path d="M16.75 10a2.757 2.757 0 0 1 2.745 2.583l.005.167V15h1.25a.75.75 0 0 1 .743.648l.007.102v5a.75.75 0 0 1-.75.75h-8a.75.75 0 0 1-.75-.75v-5a.75.75 0 0 1 .75-.75H14v-2.25A2.756 2.756 0 0 1 16.75 10M20 16.5h-6.5V20H20zm-3.25-5c-.643 0-1.179.496-1.243 1.123l-.007.127V15H18v-2.25c0-.686-.564-1.25-1.25-1.25"/></g></g></svg>