<svg xmlns="http://www.w3.org/2000/svg" fill="none" viewBox="0 0 24 24"><path fill="currentColor" fill-rule="evenodd" d="M6.817 7.138C6.817 4.853 8.643 3 10.895 3c2.251 0 4.077 1.853 4.077 4.138s-1.826 4.137-4.077 4.137-4.078-1.852-4.078-4.137m4.078-2.595c-1.413 0-2.557 1.162-2.557 2.595s1.144 2.594 2.557 2.594c1.412 0 2.556-1.161 2.556-2.594s-1.144-2.595-2.556-2.595" clip-rule="evenodd"/><path fill="currentColor" d="M3.5 20.229c0-4.145 3.31-7.504 7.394-7.504a7.3 7.3 0 0 1 1.643.186c.41.094.666.507.573.923a.76.76 0 0 1-.91.581 5.8 5.8 0 0 0-1.306-.147c-2.987 0-5.452 2.261-5.825 5.19h5.088c.42 0 .76.345.76.77 0 .427-.34.772-.76.772H4.26a.766.766 0 0 1-.76-.771"/><path fill="currentColor" fill-rule="evenodd" d="M18.066 12.203a.75.75 0 0 0-1.075 0l-3.686 3.74a.8.8 0 0 0-.2.358l-.737 2.993a.78.78 0 0 0 .2.732.75.75 0 0 0 .722.203l2.949-.748a.76.76 0 0 0 .353-.203l3.685-3.74a.78.78 0 0 0 0-1.091zM14.15 18.42l.38-1.537 2.999-3.044 1.136 1.153-3 3.044z" clip-rule="evenodd"/></svg>