<svg xmlns="http://www.w3.org/2000/svg" fill="none" viewBox="0 0 24 24"><path fill="currentColor" fill-rule="evenodd" d="M10.895 3C8.643 3 6.817 4.853 6.817 7.138s1.826 4.137 4.078 4.137c2.251 0 4.077-1.852 4.077-4.137S13.146 3 10.895 3M8.338 7.138c0-1.433 1.144-2.595 2.557-2.595 1.412 0 2.556 1.162 2.556 2.595s-1.144 2.594-2.556 2.594-2.557-1.161-2.557-2.594" clip-rule="evenodd"/><path fill="currentColor" d="M10.894 12.725c-4.084 0-7.394 3.359-7.394 7.504 0 .426.34.771.76.771h5.897c.42 0 .76-.345.76-.771a.766.766 0 0 0-.76-.772H5.07c.373-2.928 2.838-5.19 5.825-5.19q.676.002 1.306.148a.76.76 0 0 0 .91-.581.77.77 0 0 0-.573-.923 7.3 7.3 0 0 0-1.643-.186M16.75 13.75a.75.75 0 0 1 .75.75v2.25h2.25a.75.75 0 0 1 0 1.5H17.5v2.25a.75.75 0 0 1-1.5 0v-2.25h-2.25a.75.75 0 0 1 0-1.5H16V14.5a.75.75 0 0 1 .75-.75"/></svg>