<svg xmlns="http://www.w3.org/2000/svg" viewBox="0 0 24 24"><path fill="currentColor" fill-rule="nonzero" d="m6.724 16.8.02.097.006.103v1.25H10a.75.75 0 0 1 .102 1.493L10 19.75H6.75V21a.75.75 0 0 1-1.076.676l-.09-.052-3-2a.75.75 0 0 1-.089-1.18l.089-.068 3-2a.75.75 0 0 1 1.14.423m10.552 0a.75.75 0 0 1 1.14-.424l3 2 .089.069a.75.75 0 0 1-.089 1.179l-3 2-.09.052A.75.75 0 0 1 17.25 21v-1.25H14l-.102-.007A.75.75 0 0 1 14 18.25h3.25V17l.007-.103ZM12.278 2a4.45 4.45 0 0 1 4.445 4.24l.005.21v1.5c0 .95-.298 1.831-.808 2.556.885.369 1.761 1.013 2.63 1.92a3.53 3.53 0 0 1 .911 3.144l-.352-.234a2 2 0 0 0-.984-.335l.006-.132c0-.55-.212-1.078-.592-1.474-.957-1-1.87-1.587-2.736-1.785a4.44 4.44 0 0 1-2.024.76l-.284.025-.217.005a4.43 4.43 0 0 1-2.566-.814c-.679.101-1.595.694-2.703 1.816a2.1 2.1 0 0 0-.603 1.64l-.028-.007a1.97 1.97 0 0 0-1.357.22 3.5 3.5 0 0 1 .992-2.836c.934-.947 1.795-1.602 2.597-1.952a4.4 4.4 0 0 1-.774-2.239l-.008-.278v-1.5a4.453 4.453 0 0 1 4.018-4.428l.214-.017zm0 1.4-.163.004a3.05 3.05 0 0 0-2.882 2.867l-.005.179v1.5a3.05 3.05 0 0 0 1.121 2.363l.018.017a3 3 0 0 0 1.657.661l.236.01.18-.005a3.05 3.05 0 0 0 2.883-2.867l.005-.179v-1.5a3.05 3.05 0 0 0-3.05-3.05"/></svg>