<svg xmlns="http://www.w3.org/2000/svg" viewBox="0 0 24 24"><g fill="none" fill-rule="evenodd"><path d="M3 3h18v18H3z"/><path fill="currentColor" fill-rule="nonzero" d="M12.278 4a4.45 4.45 0 0 1 4.45 4.45v1.5c0 .95-.298 1.831-.808 2.556.885.369 1.761 1.013 2.63 1.92a3.531 3.531 0 0 1-2.357 5.969L16 20.4H8.513a3.513 3.513 0 0 1-2.5-5.981c.934-.947 1.795-1.602 2.597-1.952a4.4 4.4 0 0 1-.782-2.517v-1.5c0-2.37 1.857-4.32 4.232-4.445Zm-2.566 9.586-.048.006c-.675.124-1.574.715-2.655 1.81a2.113 2.113 0 0 0 1.32 3.59l.184.008H16a2.131 2.131 0 0 0 1.54-3.605c-.958-1-1.872-1.587-2.737-1.785-.659.456-1.45.74-2.308.785l-.217.005a4.43 4.43 0 0 1-2.566-.814M12.278 5.4l-.163.004A3.05 3.05 0 0 0 9.228 8.45v1.5a3.05 3.05 0 0 0 1.121 2.363l.018.017c.52.42 1.179.67 1.893.67l.18-.004a3.05 3.05 0 0 0 2.888-3.046v-1.5a3.05 3.05 0 0 0-3.05-3.05"/></g></svg>