<svg xmlns="http://www.w3.org/2000/svg" viewBox="0 0 24 24"><path fill="currentColor" fill-rule="nonzero" d="M17.833 13.017a2.316 2.316 0 0 1 2.317 2.316v.834c0 .524-.175 1.01-.473 1.4l1.213.913c.535.401.868 1.011.92 1.672l.007.181v.834a.65.65 0 0 1-.554.643l-.096.007H14.5a.65.65 0 0 1-.643-.554l-.007-.096v-.834c0-.668.288-1.3.785-1.738l.14-.114 1.213-.913a2.3 2.3 0 0 1-.471-1.401v-.834c0-1.205.923-2.206 2.145-2.31Zm-13.333 0a.65.65 0 0 1 .643.554l.007.096v3.516h4.447l-1.39-1.39a.65.65 0 0 1-.068-.839l.068-.08a.65.65 0 0 1 .839-.069l.08.069 2.496 2.496a1 1 0 0 1 .05.054l-.046-.05a.65.65 0 0 1 .184.363l.007.096a.65.65 0 0 1-.2.469l-2.49 2.491a.65.65 0 0 1-.988-.839l.068-.08 1.39-1.39H4.5a.65.65 0 0 1-.643-.555l-.007-.096v-4.166a.65.65 0 0 1 .65-.65m14.068 5.343q-.268.09-.563.117l-.172.006q-.389-.001-.74-.12l-1.536 1.157c-.225.168-.368.42-.4.694l-.007.12v.182h5.366v-.183c0-.28-.114-.545-.316-.737l-.091-.077Zm-.733-4.044-.09.004a1.016 1.016 0 0 0-.928 1.013v.834c0 .362.189.68.466.86a.6.6 0 0 1 .096.054c.13.066.275.103.427.103l.116-.004c.523-.045.928-.484.928-1.013v-.834c0-.562-.455-1.016-1.015-1.017M6.167 2.183A2.316 2.316 0 0 1 8.483 4.5v.833c0 .524-.174 1.01-.472 1.4l1.212.914c.535.4.868 1.01.92 1.672l.007.181v.833a.65.65 0 0 1-.554.643l-.096.007H2.833a.65.65 0 0 1-.643-.554l-.007-.096V9.5c0-.669.289-1.3.785-1.738l.14-.115 1.213-.913a2.3 2.3 0 0 1-.471-1.4V4.5c0-1.206.923-2.206 2.145-2.31Zm9.626 1.024a.65.65 0 0 1 .068.839l-.068.08-1.39 1.39H19.5a.65.65 0 0 1 .643.555l.007.096v4.166a.65.65 0 0 1-1.293.096l-.007-.096V6.816h-4.448l1.391 1.391a.65.65 0 0 1 .068.839l-.068.08a.65.65 0 0 1-.839.069l-.08-.069-2.497-2.497a.65.65 0 0 1-.185-.567l-.009.105a.7.7 0 0 1 .03-.198l.001-.001a.64.64 0 0 1 .163-.265l2.497-2.496a.65.65 0 0 1 .919 0m-8.89 4.32q-.27.091-.565.116l-.171.007q-.391-.002-.74-.12L3.89 8.686c-.224.168-.367.42-.4.694l-.007.119v.183H8.85L8.85 9.5c0-.28-.115-.546-.316-.737l-.092-.077Zm-.736-4.044-.089.004A1.016 1.016 0 0 0 5.15 4.5v.833c0 .362.188.678.464.859a1 1 0 0 1 .097.055c.13.066.276.103.428.104l.116-.005c.523-.044.928-.484.928-1.013V4.5c0-.562-.454-1.017-1.016-1.017"/></svg>