<svg xmlns="http://www.w3.org/2000/svg" viewBox="0 0 24 24"><path fill="currentColor" fill-rule="nonzero" d="M21.167 4.583a.75.75 0 0 1 .75.75V9.5a.75.75 0 0 1-.75.75c-1.003 0-1.75.748-1.75 1.75s.747 1.75 1.75 1.75a.75.75 0 0 1 .75.75v4.167a.75.75 0 0 1-.75.75H2.833a.75.75 0 0 1-.75-.75V14.5a.75.75 0 0 1 .75-.75c1.003 0 1.75-.748 1.75-1.75s-.747-1.75-1.75-1.75a.75.75 0 0 1-.75-.75V5.333a.75.75 0 0 1 .75-.75Zm-.75 1.5H3.582v2.75l.155.038c1.316.365 2.264 1.513 2.34 2.941l.005.188c0 1.515-.972 2.748-2.345 3.129l-.155.037v2.75h16.833v-2.749l-.154-.038c-1.316-.365-2.264-1.513-2.34-2.941L17.917 12c0-1.515.972-2.748 2.345-3.129l.154-.039zm-6.334 7.584a1.25 1.25 0 1 1 0 2.5 1.25 1.25 0 0 1 0-2.5m.947-4.697a.75.75 0 0 1 .073.976l-.073.084-5 5a.75.75 0 0 1-1.133-.976l.073-.084 5-5a.75.75 0 0 1 1.06 0M9.917 7.833a1.25 1.25 0 1 1 0 2.5 1.25 1.25 0 0 1 0-2.5"/></svg>