<svg xmlns="http://www.w3.org/2000/svg" viewBox="0 0 24 24"><path fill="currentColor" fill-rule="nonzero" d="M15.333 7.917a.75.75 0 0 1 .75.75v5.083h2.584a.75.75 0 0 1 .743.648l.007.102v5.833a.75.75 0 0 1-.75.75H5.333a.75.75 0 0 1-.75-.75V14.5a.75.75 0 0 1 .75-.75h2.583V8.667a.75.75 0 0 1 .649-.743l.102-.007Zm-5.916 8.25a.75.75 0 0 1-1.493.101l-.007-.101v-.918H6.082v4.334h5.166V15.25H9.416zm8.5-.917-1.834-.001v.918a.75.75 0 0 1-1.493.101l-.007-.101v-.917H12.75v4.333h5.167zm-6.668-5.834H9.416v4.334h5.167V9.417l-1.834-.001.001.917a.75.75 0 0 1-1.493.102l-.007-.102zm.96-6.47.101.038 9.167 4.167a.75.75 0 0 1-.525 1.401l-.096-.036L12 4.49 3.144 8.516a.75.75 0 0 1-.945-.282l-.048-.09a.75.75 0 0 1 .282-.945l.09-.048 9.167-4.167a.75.75 0 0 1 .52-.037"/></svg>