<svg xmlns="http://www.w3.org/2000/svg" fill="none" viewBox="0 0 24 24"><path fill="currentColor" fill-rule="evenodd" d="M20 12a8 8 0 1 0-16 0 8 8 0 0 0 16 0M5.333 12a6.667 6.667 0 1 1 13.334 0 6.667 6.667 0 0 1-13.334 0" clip-rule="evenodd"/><path fill="currentColor" d="M13.05 14.933c0-.59-.47-1.068-1.05-1.068s-1.049.478-1.049 1.068.47 1.067 1.05 1.067c.578 0 1.048-.478 1.048-1.067M12.805 8.791a.795.795 0 0 0-.795-.795l-.053.002a.8.8 0 0 0-.743.85l.227 3.428a.56.56 0 0 0 1.12 0l.242-3.43z"/></svg>