<svg xmlns="http://www.w3.org/2000/svg" viewBox="0 0 24 24"><path fill="currentColor" fill-rule="nonzero" d="M12 3.975c.417 0 .807.19 1.083.537l.088.122 7.426 13.052c.237.42.237.934 0 1.353a1.35 1.35 0 0 1-1.04.68l-.131.006H4.574c-.485 0-.931-.263-1.171-.686a1.37 1.37 0 0 1-.064-1.225l.065-.128 7.448-13.088A1.37 1.37 0 0 1 12 3.975m-.007 1.345L4.578 18.353l-.003.01.003.012 14.844-.002.003-.01-.002-.01L12.02 5.338l-.01-.01-.01-.003c-.004 0-.009.002-.007-.005M12 14.974a1 1 0 0 1 .99 1.007A1 1 0 0 1 12 16.99a1 1 0 0 1-.99-1.008 1 1 0 0 1 .99-1.007m.01-5.541a.75.75 0 0 1 .75.75l-.002.053-.228 3.237a.53.53 0 0 1-1.058 0l-.215-3.237a.753.753 0 0 1 .702-.801z"/></svg>