<svg xmlns="http://www.w3.org/2000/svg" viewBox="0 0 24 24"><path fill="currentColor" fill-rule="nonzero" d="M11.997 5.788c1.144 0 2.087.943 2.087 2.087 0 .41-.124.806-.351 1.144l-.104.142-.107.097 1.538 2.504.162-.065c.752-.306 1.106-.41 1.587-.41a4.847 4.847 0 0 1 4.838 4.838 4.847 4.847 0 0 1-4.838 4.837 4.83 4.83 0 0 1-3.25-1.261.513.513 0 0 1 .05-.735l.242-.204a.61.61 0 0 1 .784-.003c.601.5 1.36.779 2.174.779a3.4 3.4 0 0 0 3.413-3.413 3.4 3.4 0 0 0-3.413-3.412c-.463 0-.906.086-1.313.254l-.2.09-.23.125a.69.69 0 0 1-.92-.245L12.28 9.941c-.103.014-.191.021-.283.021a2.1 2.1 0 0 1-2.088-2.087c0-1.144.944-2.088 2.088-2.088m-5.5 6.266a.82.82 0 0 1-.542.906q-.33.116-.477.2a3.415 3.415 0 0 0-1.258 4.671 3.415 3.415 0 0 0 6.351-1.286l.02-.212a.95.95 0 0 1 .952-.917l3.31.013a2.09 2.09 0 0 1 1.956-1.392c1.145 0 2.088.944 2.088 2.088a2.1 2.1 0 0 1-2.088 2.087 2.09 2.09 0 0 1-1.824-1.097l-.073-.147-.036-.13-3.026-.022c-.23 1.515-1.006 2.78-2.247 3.499a4.85 4.85 0 0 1-6.608-1.771 4.85 4.85 0 0 1 1.77-6.609c.366-.21.518-.292.924-.402l.004-.001a.645.645 0 0 1 .804.522m5.5-9.016a4.847 4.847 0 0 1 4.75 5.746l-.04.189a.55.55 0 0 1-.715.332l-.316-.122a.544.544 0 0 1-.336-.617q.07-.336.07-.691a3.4 3.4 0 0 0-3.413-3.412 3.402 3.402 0 0 0-2.213 5.996l.167.133a.965.965 0 0 1 .286 1.245L8.685 14.69c.373.39.587.9.587 1.435a2.1 2.1 0 0 1-2.088 2.087 2.1 2.1 0 0 1-2.087-2.087 2.1 2.1 0 0 1 1.94-2.082l.148-.005.143.005.114.03 1.445-2.634c-1.093-.959-1.728-2.204-1.728-3.564a4.847 4.847 0 0 1 4.838-4.837"/></svg>