<svg xmlns="http://www.w3.org/2000/svg" fill="none" viewBox="0 0 18 18"><path fill="currentColor" d="M9 2.25a6.75 6.75 0 1 1 0 13.5 6.75 6.75 0 0 1 0-13.5m-.243 1.13c-.991.042-1.916.34-2.71.83l.394.327.926.988c.098.105.15.242.152.382l-.006.084-.227 1.542a.56.56 0 0 1-.236.38l-.067.04-1.398.706-.361.309.105.18.692.742q.061.066.1.146l.03.083.398 1.39a.56.56 0 0 1-.121.53l-.059.057-.962.805-.083.355a5.625 5.625 0 0 0 8.215-7.577l-.412.234a.6.6 0 0 1-.138.056l-.073.013-1.687.202a.56.56 0 0 1-.345-.07l-.075-.05-1.285-1.035a.6.6 0 0 1-.148-.182l-.031-.074-.33-.963zm2.033 4.055a.56.56 0 0 1 .317-.016l1.327.316a.56.56 0 0 1 .368.287l.638 1.226a.56.56 0 0 1 .016.487l-1.06 2.391a.6.6 0 0 1-.13.184l-.992.922a.56.56 0 0 1-.347.15l-1.316.085a.56.56 0 0 1-.47-.203l-.784-.951a.56.56 0 0 1-.116-.477l.24-1.11-.206-1.093a.56.56 0 0 1 .067-.388l.046-.067.896-1.123a.56.56 0 0 1 .253-.18zm-.727 1.447-.635.796.18.952q.013.074.007.15l-.01.072-.207.955.428.518.828-.052.761-.708.902-2.038-.395-.757-.916-.22zM5.136 4.914A5.6 5.6 0 0 0 3.375 9c0 1.225.393 2.358 1.059 3.282a1 1 0 0 1 .055-.072l.053-.05.824-.692-.26-.91-.642-.688-.074-.1-.375-.64a.56.56 0 0 1 .062-.655l.058-.057.77-.657.112-.074 1.198-.607.145-.984-.686-.74zm5.22-.66.974.784 1.34-.16.098-.055a5.6 5.6 0 0 0-2.676-1.342z"/></svg>