<svg xmlns="http://www.w3.org/2000/svg" viewBox="0 0 24 24"><g fill="none" fill-rule="evenodd"><path d="M3 3h18v18H3z"/><g fill="currentColor" fill-rule="nonzero" stroke-linecap="square"><path d="m7.309 4.99 1.28 1.06 1.234 1.317a.75.75 0 0 1 .202.509l-.008.113-.303 2.055a.75.75 0 0 1-.314.507l-.09.053-1.864.942-.481.411.141.241.923.988a.8.8 0 0 1 .131.195l.042.111.53 1.855a.75.75 0 0 1-.161.704l-.079.076-1.282 1.075-.211.904-1.46-.344.269-1.146a.75.75 0 0 1 .178-.336l.07-.067 1.099-.923-.346-1.213-.857-.917-.099-.133-.5-.853a.75.75 0 0 1 .084-.875l.076-.075 1.027-.876.148-.099 1.599-.809.193-1.313-.915-.985-1.209-.994zM12.738 3.363l.609 1.012.067.144.394 1.154 1.299 1.045 1.786-.213.977-.554.74 1.305-1.108.629a.8.8 0 0 1-.183.074l-.098.018-2.25.268a.75.75 0 0 1-.46-.093l-.099-.068-1.713-1.378a.75.75 0 0 1-.198-.244l-.041-.098-.44-1.284-.567-.943zM14.387 9.913l-1.67.587a.75.75 0 0 0-.338.24l-1.195 1.497-.061.09a.75.75 0 0 0-.09.517l.274 1.458-.318 1.48a.75.75 0 0 0 .154.635l1.046 1.267a.75.75 0 0 0 .626.272l1.754-.113a.75.75 0 0 0 .463-.2l1.323-1.23a.8.8 0 0 0 .174-.245l1.412-3.187a.75.75 0 0 0-.02-.65l-.852-1.634a.75.75 0 0 0-.49-.383l-1.769-.423a.75.75 0 0 0-.423.022m.288 1.488 1.221.292.527 1.01-1.203 2.716-1.014.944-1.105.071-.57-.692.275-1.272.014-.098a.8.8 0 0 0-.01-.198l-.24-1.271.847-1.06z"/><path d="M12 3a9 9 0 1 0 0 18 9 9 0 0 0 0-18m0 1.5a7.5 7.5 0 1 1 0 15 7.5 7.5 0 0 1 0-15"/></g></g></svg>