<svg xmlns="http://www.w3.org/2000/svg" viewBox="0 0 24 24"><path fill="currentColor" d="M9.67542 1.46614C9.67542 2.07369 9.67542 2.68123 9.67542 3.28878C9.67604 3.33816 9.64861 3.38816 9.5894 3.43379C8.82146 4.03696 8.05291 4.63951 7.28497 5.24393C7.67642 5.34581 8.06787 5.44769 8.45931 5.5502C8.65628 5.60146 8.78219 5.70646 8.78219 5.8021C8.78219 6.40714 8.78219 7.01281 8.78219 7.61848C8.78282 7.66786 8.75539 7.71787 8.6968 7.76349C7.80794 8.46105 6.91971 9.1586 6.03147 9.85616C5.85819 9.99242 5.47921 10.0399 5.18375 9.96366C3.67219 9.56926 2.16001 9.17485 0.647832 8.77982C0.452109 8.72919 0.324951 8.62794 0.324951 8.53105C0.324951 7.92476 0.324951 7.31909 0.324951 6.71342C0.324951 6.66216 0.351754 6.61341 0.410346 6.56715C1.17828 5.96336 1.94621 5.36019 2.71477 4.75702C2.32332 4.65451 1.93188 4.55262 1.54043 4.45012C1.34471 4.39949 1.21755 4.30073 1.21755 4.20385C1.21755 3.59693 1.21755 2.99001 1.21755 2.38309C1.21755 2.33183 1.24435 2.28308 1.30294 2.23682C2.19118 1.53865 3.07941 0.841092 3.96827 0.142914C4.14156 0.00790392 4.52054 -0.0402247 4.81537 0.0366561C6.32755 0.431061 7.83973 0.825466 9.35191 1.2205C9.54951 1.27175 9.67479 1.36738 9.67542 1.46614Z"/></svg>