<?xml version="1.0" encoding="UTF-8"?>
<svg width="24px" height="24px" viewBox="0 0 24 24" version="1.1" xmlns="http://www.w3.org/2000/svg" xmlns:xlink="http://www.w3.org/1999/xlink">
    <title>activity</title>
    <g stroke="none" stroke-width="1" fill="none" fill-rule="evenodd">
        <g fill="#414851" fill-rule="nonzero">
            <path d="M19,3 C20.1045695,3 21,3.8954305 21,5 L21,19 C21,20.1045695 20.1045695,21 19,21 L5,21 C3.8954305,21 3,20.1045695 3,19 L3,5 C3,3.8954305 3.8954305,3 5,3 L19,3 Z M19,4.5 L5,4.5 C4.75454011,4.5 4.55039163,4.67687516 4.50805567,4.91012437 L4.5,5 L4.5,19 C4.5,19.2454599 4.67687516,19.4496084 4.91012437,19.4919443 L5,19.5 L19,19.5 C19.2454599,19.5 19.4496084,19.3231248 19.4919443,19.0898756 L19.5,19 L19.5,5 C19.5,4.75454011 19.3231248,4.55039163 19.0898756,4.50805567 L19,4.5 Z"></path>
            <path d="M9.88623712,7.60013637 C10.1951253,7.10998394 10.9043231,7.1475981 11.173579,7.62985563 L11.2213154,7.73221109 L13.731,14.299 L15.35839,11.6116231 C15.4748608,11.4192099 15.6702671,11.2909656 15.8889667,11.2582512 L16,11.25 L20,11.25 C20.4142136,11.25 20.75,11.5857864 20.75,12 C20.75,12.3796958 20.4678461,12.693491 20.1017706,12.7431534 L20,12.75 L16.422,12.75 L14.2203453,16.3883769 C13.9173028,16.8890121 13.1987113,16.8574414 12.9264234,16.3710982 L12.8781719,16.2677889 L10.355,9.668 L8.63451484,12.3998636 C8.51679497,12.5866648 8.3239636,12.7104784 8.10905093,12.7420415 L8,12.75 L4,12.75 C3.58578644,12.75 3.25,12.4142136 3.25,12 C3.25,11.6203042 3.53215388,11.306509 3.89822944,11.2568466 L4,11.25 L7.586,11.25 L9.88623712,7.60013637 Z"></path>
        </g>
    </g>
</svg>
