<?xml version="1.0" encoding="utf-8"?>
<!-- Generator: Adobe Illustrator 25.2.0, SVG Export Plug-In . SVG Version: 6.00 Build 0)  -->
<svg version="1.1" xmlns="http://www.w3.org/2000/svg" xmlns:xlink="http://www.w3.org/1999/xlink" x="0px" y="0px"
	 width="24px" height="24px" viewBox="0 0 24 24" style="enable-background:new 0 0 24 24;" xml:space="preserve">
<path fill="#36475C" d="M19,3c1.105,0,2,0.895,2,2v14c0,1.105-0.895,2-2,2H5c-1.105,0-2-0.895-2-2V5c0-1.105,0.895-2,2-2H19z M19,4.5H5
	c-0.245,0-0.45,0.177-0.492,0.41L4.5,5v14c0,0.245,0.177,0.45,0.41,0.492L5,19.5h14c0.245,0,0.45-0.177,0.492-0.41L19.5,19V5
	c0-0.245-0.177-0.45-0.41-0.492L19,4.5z M11.75,10h0.5c0.5523,0,1,0.4477,1,1v5c0,0.5523-0.4477,1-1,1h-0.5c-0.5523,0-1-0.4477-1-1
	v-5C10.75,10.4477,11.1977,10,11.75,10z M15.75,7h0.5c0.5523,0,1,0.4477,1,1v8c0,0.5523-0.4477,1-1,1h-0.5c-0.5523,0-1-0.4477-1-1V8
	C14.75,7.4477,15.1977,7,15.75,7z M7.75,13h0.5c0.5523,0,1,0.4477,1,1v2c0,0.5523-0.4477,1-1,1h-0.5c-0.5523,0-1-0.4477-1-1v-2
	C6.75,13.4477,7.1977,13,7.75,13z"/>
</svg>
