<svg width="24" height="24" viewBox="0 0 24 24" fill="none" xmlns="http://www.w3.org/2000/svg">
<path fill-rule="evenodd" clip-rule="evenodd" d="M4.92604 5.46446C4.9116 5.46446 4.8999 5.47617 4.8999 5.4906V10.1474C4.8999 10.1618 4.9116 10.1735 4.92604 10.1735H9.58284C9.59727 10.1735 9.60897 10.1618 9.60897 10.1474V5.4906C9.60897 5.47617 9.59727 5.46446 9.58284 5.46446H4.92604ZM3.3999 5.4906C3.3999 4.64774 4.08318 3.96446 4.92604 3.96446H9.58284C10.4257 3.96446 11.109 4.64774 11.109 5.4906V10.1474C11.109 10.9903 10.4257 11.6735 9.58284 11.6735H4.92604C4.08318 11.6735 3.3999 10.9903 3.3999 10.1474V5.4906Z" fill="#2B2B2B"/>
<path fill-rule="evenodd" clip-rule="evenodd" d="M16.8781 4.50765C16.8679 4.49745 16.8513 4.49745 16.8411 4.50765L13.5483 7.80051C13.5381 7.81072 13.5381 7.82726 13.5483 7.83747L16.8411 11.1303C16.8513 11.1405 16.8679 11.1405 16.8781 11.1303L20.171 7.83747C20.1812 7.82726 20.1812 7.81072 20.171 7.80051L16.8781 4.50765ZM15.7805 3.44699C16.3765 2.851 17.3428 2.851 17.9388 3.44699L21.2316 6.73985C21.8276 7.33584 21.8276 8.30214 21.2316 8.89813L17.9388 12.191C17.3428 12.787 16.3765 12.787 15.7805 12.191L12.4876 8.89813C11.8916 8.30214 11.8916 7.33584 12.4876 6.73985L15.7805 3.44699Z" fill="#2B2B2B"/>
<path fill-rule="evenodd" clip-rule="evenodd" d="M14.5313 14.7781C14.5168 14.7781 14.5051 14.7898 14.5051 14.8042V19.461C14.5051 19.4754 14.5168 19.4871 14.5313 19.4871H19.1881C19.2025 19.4871 19.2142 19.4754 19.2142 19.461V14.8042C19.2142 14.7898 19.2025 14.7781 19.1881 14.7781H14.5313ZM13.0051 14.8042C13.0051 13.9613 13.6884 13.2781 14.5313 13.2781H19.1881C20.0309 13.2781 20.7142 13.9613 20.7142 14.8042V19.461C20.7142 20.3039 20.0309 20.9871 19.1881 20.9871H14.5313C13.6884 20.9871 13.0051 20.3039 13.0051 19.461V14.8042Z" fill="#2B2B2B"/>
<path fill-rule="evenodd" clip-rule="evenodd" d="M4.92604 14.7781C4.9116 14.7781 4.8999 14.7898 4.8999 14.8042V19.461C4.8999 19.4754 4.9116 19.4871 4.92604 19.4871H9.58284C9.59727 19.4871 9.60897 19.4754 9.60897 19.461V14.8042C9.60897 14.7898 9.59727 14.7781 9.58284 14.7781H4.92604ZM3.3999 14.8042C3.3999 13.9613 4.08318 13.2781 4.92604 13.2781H9.58284C10.4257 13.2781 11.109 13.9613 11.109 14.8042V19.461C11.109 20.3039 10.4257 20.9871 9.58284 20.9871H4.92604C4.08318 20.9871 3.3999 20.3039 3.3999 19.461V14.8042Z" fill="#2B2B2B"/>
</svg>
