<?xml version="1.0" encoding="UTF-8"?>
<svg width="24" height="24" viewBox="0 0 24 24" fill="none" xmlns="http://www.w3.org/2000/svg">
<path d="M12 20.25C10.3683 20.25 8.77325 19.7661 7.41655 18.8596C6.05984 17.9531 5.00242 16.6646 4.378 15.1571C3.75357 13.6496 3.5902 11.9909 3.90853 10.3905C4.22685 8.79016 5.01259 7.32016 6.16637 6.16637C7.32016 5.01259 8.79016 4.22685 10.3905 3.90853C11.9909 3.5902 13.6496 3.75357 15.1571 4.378C16.6646 5.00242 17.9531 6.05984 18.8596 7.41655C19.7661 8.77325 20.25 10.3683 20.25 12C20.2476 14.1873 19.3777 16.2844 17.831 17.831C16.2844 19.3777 14.1873 20.2476 12 20.25ZM15.0601 12.1946C15.032 12.1362 14.9879 12.087 14.9331 12.0526C14.8782 12.0182 14.8148 11.9999 14.75 12H12.6875V8.5625C12.6875 8.38017 12.6151 8.2053 12.4861 8.07637C12.3572 7.94743 12.1823 7.875 12 7.875C11.8177 7.875 11.6428 7.94743 11.5139 8.07637C11.3849 8.2053 11.3125 8.38017 11.3125 8.5625V12H9.25C9.18526 12 9.12182 12.0182 9.067 12.0526C9.01217 12.0871 8.96818 12.1363 8.94009 12.1946C8.912 12.2529 8.90096 12.318 8.90823 12.3824C8.9155 12.4467 8.94079 12.5077 8.98119 12.5583L11.7312 15.9958C11.7646 16.0343 11.8058 16.0653 11.8522 16.0865C11.8986 16.1077 11.949 16.1186 12 16.1186C12.051 16.1186 12.1014 16.1077 12.1478 16.0865C12.1942 16.0653 12.2354 16.0343 12.2688 15.9958L15.0188 12.5583C15.0592 12.5077 15.0846 12.4467 15.0919 12.3824C15.0992 12.318 15.0881 12.2529 15.0601 12.1946Z" fill="#2B2B2B"/>
</svg>
