<?xml version="1.0" encoding="UTF-8"?>
<svg width="24px" height="24px" viewBox="0 0 24 24" version="1.1" xmlns="http://www.w3.org/2000/svg" xmlns:xlink="http://www.w3.org/1999/xlink">
    <title>arrow-circle-left</title>
    <g stroke="none" stroke-width="1" fill="none" fill-rule="evenodd">
        <g transform="translate(3.000000, 3.000000)">
            <rect x="0" y="0" width="18" height="18"></rect>
            <g stroke-linecap="round" stroke-linejoin="round">
                <polygon points="0 0 18 0 18 18 0 18"></polygon>
                <path d="M9,0.75 C4.44365081,0.75 0.75,4.44365081 0.75,9 C0.75,13.5563492 4.44365081,17.25 9,17.25 C13.5563492,17.25 17.25,13.5563492 17.25,9 C17.25,4.44365081 13.5563492,0.75 9,0.75 Z M9,2.25 C12.7279221,2.25 15.75,5.27207794 15.75,9 C15.75,12.7279221 12.7279221,15.75 9,15.75 C5.27207794,15.75 2.25,12.7279221 2.25,9 C2.25,5.27207794 5.27207794,2.25 9,2.25 Z" fill="#414851" fill-rule="nonzero"></path>
                <path d="M12,8.25 C12.4142136,8.25 12.75,8.58578644 12.75,9 C12.75,9.37969577 12.4678461,9.69349096 12.1017706,9.74315338 L12,9.75 L6,9.75 C5.58578644,9.75 5.25,9.41421356 5.25,9 C5.25,8.62030423 5.53215388,8.30650904 5.89822944,8.25684662 L6,8.25 L12,8.25 Z" fill="#414851" fill-rule="nonzero"></path>
                <path d="M5.46966991,8.46966991 C5.73593648,8.20340335 6.15260016,8.1791973 6.44621165,8.39705176 L6.53033009,8.46966991 L9.53033009,11.4696699 C9.8232233,11.7625631 9.8232233,12.2374369 9.53033009,12.5303301 C9.26406352,12.7965966 8.84739984,12.8208027 8.55378835,12.6029482 L8.46966991,12.5303301 L5.46966991,9.53033009 C5.1767767,9.23743687 5.1767767,8.76256313 5.46966991,8.46966991 Z" fill="#414851" fill-rule="nonzero"></path>
                <path d="M8.46966991,5.46966991 C8.76256313,5.1767767 9.23743687,5.1767767 9.53033009,5.46966991 C9.79659665,5.73593648 9.8208027,6.15260016 9.60294824,6.44621165 L9.53033009,6.53033009 L6.53033009,9.53033009 C6.23743687,9.8232233 5.76256313,9.8232233 5.46966991,9.53033009 C5.20340335,9.26406352 5.1791973,8.84739984 5.39705176,8.55378835 L5.46966991,8.46966991 L8.46966991,5.46966991 Z" fill="#414851" fill-rule="nonzero"></path>
            </g>
        </g>
    </g>
</svg>
