<svg width="24" height="24" viewBox="0 0 24 24" fill="none" xmlns="http://www.w3.org/2000/svg">
<path d="M12 3.75C10.3683 3.75 8.77325 4.23385 7.41655 5.14038C6.05984 6.0469 5.00242 7.33537 4.378 8.84286C3.75357 10.3504 3.5902 12.0092 3.90853 13.6095C4.22685 15.2098 5.01259 16.6798 6.16637 17.8336C7.32016 18.9874 8.79016 19.7731 10.3905 20.0915C11.9909 20.4098 13.6496 20.2464 15.1571 19.622C16.6646 18.9976 17.9531 17.9402 18.8596 16.5835C19.7661 15.2267 20.25 13.6317 20.25 12C20.2476 9.81269 19.3777 7.71564 17.831 6.16898C16.2844 4.62232 14.1873 3.75237 12 3.75ZM15.0601 11.8054C15.032 11.8638 14.9879 11.913 14.9331 11.9474C14.8782 11.9818 14.8148 12.0001 14.75 12H12.6875V15.4375C12.6875 15.6198 12.6151 15.7947 12.4861 15.9236C12.3572 16.0526 12.1823 16.125 12 16.125C11.8177 16.125 11.6428 16.0526 11.5139 15.9236C11.3849 15.7947 11.3125 15.6198 11.3125 15.4375V12H9.25C9.18526 12 9.12182 11.9818 9.067 11.9474C9.01217 11.9129 8.96818 11.8637 8.94009 11.8054C8.912 11.7471 8.90096 11.682 8.90823 11.6176C8.9155 11.5533 8.94079 11.4923 8.98119 11.4417L11.7312 8.00425C11.7646 7.96568 11.8058 7.93474 11.8522 7.91353C11.8986 7.89233 11.949 7.88135 12 7.88135C12.051 7.88135 12.1014 7.89233 12.1478 7.91353C12.1942 7.93474 12.2354 7.96568 12.2688 8.00425L15.0188 11.4417C15.0592 11.4923 15.0846 11.5533 15.0919 11.6176C15.0992 11.682 15.0881 11.7471 15.0601 11.8054Z" fill="#2B2B2B"/>
</svg>
