<svg width="24" height="24" viewBox="0 0 24 24" fill="none" xmlns="http://www.w3.org/2000/svg">
<path d="M20.25 12C20.25 13.6317 19.7661 15.2267 18.8596 16.5835C17.9531 17.9402 16.6646 18.9976 15.1571 19.622C13.6496 20.2464 11.9908 20.4098 10.3905 20.0915C8.79016 19.7731 7.32015 18.9874 6.16637 17.8336C5.01259 16.6798 4.22685 15.2098 3.90853 13.6095C3.5902 12.0091 3.75357 10.3504 4.378 8.84286C5.00242 7.33537 6.05984 6.0469 7.41655 5.14038C8.77325 4.23385 10.3683 3.75 12 3.75C14.1873 3.75237 16.2844 4.62232 17.831 6.16898C19.3777 7.71564 20.2476 9.81269 20.25 12ZM12.1946 8.93994C12.1362 8.96804 12.087 9.01206 12.0526 9.06692C12.0182 9.12177 11.9999 9.18524 12 9.25V11.3125H8.5625C8.38017 11.3125 8.2053 11.3849 8.07636 11.5139C7.94743 11.6428 7.875 11.8177 7.875 12C7.875 12.1823 7.94743 12.3572 8.07636 12.4861C8.2053 12.6151 8.38017 12.6875 8.5625 12.6875H12V14.75C12 14.8147 12.0182 14.8782 12.0526 14.933C12.0871 14.9878 12.1363 15.0318 12.1946 15.0599C12.2529 15.088 12.318 15.099 12.3824 15.0918C12.4467 15.0845 12.5077 15.0592 12.5583 15.0188L15.9958 12.2688C16.0343 12.2354 16.0653 12.1942 16.0865 12.1478C16.1077 12.1014 16.1186 12.051 16.1186 12C16.1186 11.949 16.1077 11.8986 16.0865 11.8522C16.0653 11.8058 16.0343 11.7646 15.9958 11.7312L12.5583 8.98119C12.5077 8.94075 12.4467 8.91543 12.3824 8.90813C12.318 8.90083 12.2529 8.91186 12.1946 8.93994Z" fill="#2B2B2B"/>
</svg>
