<svg width="24" height="24" viewBox="0 0 24 24" xmlns="http://www.w3.org/2000/svg"><path d="M19.3322613,13.8456923 L19.3333333,13.8033333 C19.3333333,13.9153776 19.3112209,14.0222572 19.271122,14.1198463 C19.2657837,14.1329064 19.260182,14.145647 19.2542469,14.1582676 C19.2445384,14.1787486 19.2339247,14.1990473 19.2225216,14.2188337 C19.2159519,14.230456 19.2090464,14.2418096 19.2018458,14.2530262 C19.1906479,14.2702444 19.1789895,14.2870075 19.1667474,14.3033071 C19.1613172,14.3107104 19.1552935,14.3184459 19.1491148,14.3260962 L19.1355996,14.342301 C19.120231,14.360407 19.1041027,14.3778479 19.0872637,14.3945743 L19.07031,14.4109433 L15.996214,17.2963047 C15.6606388,17.6112772 15.1332657,17.5945754 14.8182932,17.2590002 C14.5295685,16.9513896 14.5195422,16.4826155 14.7783545,16.1640137 L14.8555977,16.0810795 L16.3956667,14.636 L5.5,14.6366667 C5.07516558,14.6366667 4.72458169,14.3187623 4.67315952,13.9078649 L4.66666667,13.8033333 L4.66666667,7.30333333 C4.66666667,6.84309604 5.03976271,6.47 5.5,6.47 C5.92483442,6.47 6.27541831,6.78790432 6.32684048,7.19880177 L6.33333333,7.30333333 L6.334,12.97 L16.4876667,12.97 L14.8366502,11.3184903 C14.538333,11.0201732 14.5134733,10.5519513 14.7620709,10.2253167 L14.8366502,10.139979 C15.1349674,9.84166186 15.6031892,9.81680209 15.9298238,10.0653997 L16.0151615,10.139979 L19.0892576,13.2140751 L19.099115,13.2241038 C19.1180806,13.2437164 19.1360919,13.2642575 19.1530741,13.2856525 L19.0892576,13.2140751 C19.1202313,13.2450488 19.1482475,13.2778363 19.1733116,13.3120914 C19.1873637,13.3314268 19.200892,13.3517162 19.2135289,13.3726052 C19.2196907,13.3826272 19.2251711,13.3921308 19.2304481,13.4017156 C19.2419707,13.422774 19.2529528,13.444936 19.2629521,13.4676284 C19.2679487,13.4788843 19.2725298,13.4899628 19.2768614,13.501115 C19.301204,13.563695 19.318223,13.6299426 19.3268405,13.6988018 L19.3333333,13.8033333 L19.3332308,13.8165215 C19.3330768,13.8262494 19.3327536,13.8359746 19.3322613,13.8456923 Z" fill="#2B2B2B"/></svg>