<?xml version="1.0" encoding="UTF-8"?>
<svg width="24" height="24" viewBox="0 0 24 24" fill="none" xmlns="http://www.w3.org/2000/svg">
<path d="M3.75 12C3.75 13.6317 4.23385 15.2267 5.14038 16.5835C6.0469 17.9402 7.33537 18.9976 8.84286 19.622C10.3504 20.2464 12.0092 20.4098 13.6095 20.0915C15.2098 19.7731 16.6798 18.9874 17.8336 17.8336C18.9874 16.6798 19.7731 15.2098 20.0915 13.6095C20.4098 12.0091 20.2464 10.3504 19.622 8.84286C18.9976 7.33537 17.9402 6.0469 16.5835 5.14038C15.2267 4.23385 13.6317 3.75 12 3.75C9.81269 3.75237 7.71564 4.62232 6.16898 6.16898C4.62232 7.71564 3.75237 9.81269 3.75 12ZM11.8054 8.93994C11.8638 8.96804 11.913 9.01206 11.9474 9.06692C11.9818 9.12177 12.0001 9.18524 12 9.25V11.3125H15.4375C15.6198 11.3125 15.7947 11.3849 15.9236 11.5139C16.0526 11.6428 16.125 11.8177 16.125 12C16.125 12.1823 16.0526 12.3572 15.9236 12.4861C15.7947 12.6151 15.6198 12.6875 15.4375 12.6875H12V14.75C12 14.8147 11.9818 14.8782 11.9474 14.933C11.9129 14.9878 11.8637 15.0318 11.8054 15.0599C11.7471 15.088 11.682 15.099 11.6176 15.0918C11.5533 15.0845 11.4923 15.0592 11.4417 15.0188L8.00425 12.2688C7.96568 12.2354 7.93474 12.1942 7.91353 12.1478C7.89233 12.1014 7.88135 12.051 7.88135 12C7.88135 11.949 7.89233 11.8986 7.91353 11.8522C7.93474 11.8058 7.96568 11.7646 8.00425 11.7312L11.4417 8.98119C11.4923 8.94075 11.5533 8.91543 11.6176 8.90813C11.682 8.90083 11.7471 8.91186 11.8054 8.93994Z" fill="#2B2B2B"/>
</svg>
