<?xml version="1.0" encoding="UTF-8"?>
<svg width="24px" height="24px" viewBox="0 0 24 24" version="1.1" xmlns="http://www.w3.org/2000/svg" xmlns:xlink="http://www.w3.org/1999/xlink">
    <title>attach</title>
    <g stroke="none" stroke-width="1" fill="none" fill-rule="evenodd">
        <g fill="#414851" fill-rule="nonzero">
            <path d="M13.6666667,2.83166667 C15.8990128,2.83166667 17.7214951,4.58650214 17.8298987,6.79195813 L17.835,7 L17.835,15.3333333 C17.835,18.5559148 15.2225815,21.1683333 12,21.1683333 C8.85065897,21.1683333 6.28406146,18.6733118 6.16902466,15.5520858 L6.165,15.3333333 L6.165,8.59166667 C6.165,8.1305089 6.53884223,7.75666667 7,7.75666667 C7.42568409,7.75666667 7.77696915,8.07520679 7.82849416,8.48692604 L7.835,8.59166667 L7.835,15.3333333 C7.835,17.6335993 9.69973402,19.4983333 12,19.4983333 C14.230561,19.4983333 16.0515859,17.7449012 16.1599028,15.5412088 L16.165,15.3333333 L16.165,7 C16.165,5.6202086 15.0464581,4.50166667 13.6666667,4.50166667 C12.3420669,4.50166667 11.2582347,5.53251491 11.1736475,6.8357339 L11.1683333,7 L11.1683333,14.6516667 C11.1683333,15.1109835 11.5406832,15.4833333 12,15.4833333 C12.4239848,15.4833333 12.7738675,15.1660648 12.8251868,14.7559892 L12.8316667,14.6516667 L12.8316667,8.66666667 C12.8316667,8.2055089 13.2055089,7.83166667 13.6666667,7.83166667 C14.0923508,7.83166667 14.4436358,8.15020679 14.4951608,8.56192604 L14.5016667,8.66666667 L14.5016667,14.6516667 C14.5016667,16.033299 13.3816323,17.1533333 12,17.1533333 C10.6736329,17.1533333 9.58835464,16.1211097 9.50365456,14.8161519 L9.49833333,14.6516667 L9.49833333,7 C9.49833333,4.69789307 11.3645597,2.83166667 13.6666667,2.83166667 Z"></path>
        </g>
    </g>
</svg>
