<?xml version="1.0" encoding="UTF-8"?>
<svg width="24px" height="24px" viewBox="0 0 24 24" version="1.1" xmlns="http://www.w3.org/2000/svg" xmlns:xlink="http://www.w3.org/1999/xlink">
    <title>ban</title>
    <g stroke="none" stroke-width="1" fill="none" fill-rule="evenodd" stroke-linecap="square">
        <g fill="#414851" fill-rule="nonzero">
            <g transform="translate(4.000000, 4.000000)">
                <path d="M8,2.27373675e-13 C12.418278,2.27373675e-13 16,3.581722 16,8 C16,12.418278 12.418278,16 8,16 C3.581722,16 0,12.418278 0,8 C0,3.581722 3.581722,2.27373675e-13 8,2.27373675e-13 Z M13.1327761,3.86543992 L3.86543992,13.1327761 C4.99611441,14.04471 6.43429889,14.5906736 8,14.5906736 C11.6399285,14.5906736 14.5906736,11.6399285 14.5906736,8 C14.5906736,6.43429889 14.04471,4.99611441 13.1327761,3.86543992 Z M8,1.40932642 C4.36007149,1.40932642 1.40932642,4.36007149 1.40932642,8 C1.40932642,9.56570111 1.95529004,11.0038856 2.86722393,12.1345601 L12.1345601,2.86722393 C11.0038856,1.95529004 9.56570111,1.40932642 8,1.40932642 Z"></path>
            </g>
        </g>
    </g>
</svg>
