<?xml version="1.0" encoding="UTF-8"?>
<svg width="24px" height="24px" viewBox="0 0 24 24" version="1.1" xmlns="http://www.w3.org/2000/svg" xmlns:xlink="http://www.w3.org/1999/xlink">
    <title>basket</title>
    <g stroke="none" stroke-width="1" fill="none" fill-rule="evenodd">
        <g>
            <rect x="2" y="2" width="20" height="20"></rect>
            <path d="M12.0024257,2.08333726 C14.1850183,2.09039632 15.9651825,3.80463522 16.0777083,5.96305231 L16.0833333,6.16666667 L16.0829588,7.08233726 L18.6666667,7.08333333 C19.0105234,7.08333333 19.3054615,7.31610386 19.3914928,7.64041045 L19.4108751,7.74030728 L20.8433783,19.2003333 C20.9293416,19.8882347 20.7157446,20.5799274 20.2568831,21.0995852 C19.7980864,21.6191695 19.1382359,21.9166667 18.445,21.9166667 L18.445,21.9166667 L5.555,21.9166667 C4.86176413,21.9166667 4.20191359,21.6191695 3.74311691,21.0995852 C3.28425542,20.5799274 3.07065843,19.8882347 3.15662493,19.2003073 L3.15662493,19.2003073 L4.58912493,7.74030728 C4.63604013,7.36498567 4.95509088,7.08333333 5.33333333,7.08333333 L5.33333333,7.08333333 L7.91595879,7.08233726 L7.91666667,6.16424099 C7.92395025,3.91344232 9.74677566,2.09061692 12.0024257,2.08333726 Z M18.004,8.583 L16.0829588,8.58233726 L16.0833333,10.3333333 C16.0833333,10.7475469 15.7475469,11.0833373 15.3333333,11.0833373 C14.9536376,11.0833373 14.6398424,10.8011795 14.5901799,10.4351039 L14.5833333,10.3333333 L14.5829588,8.58233726 L9.41595879,8.58233726 L9.41666667,10.3333333 C9.41666667,10.7475469 9.08088023,11.0833373 8.66666667,11.0833373 C8.2869709,11.0833373 7.97317571,10.8011795 7.92351328,10.4351039 L7.91666667,10.3333333 L7.91595879,8.58233726 L5.995,8.583 L4.64504499,19.3863334 C4.61709636,19.609986 4.67262826,19.8346953 4.7986713,20.0184621 L4.7986713,20.0184621 L4.86750871,20.1067392 C5.04151248,20.3037974 5.29185726,20.4166667 5.555,20.4166667 L5.555,20.4166667 L18.445,20.4166667 C18.7081427,20.4166667 18.9584875,20.3037974 19.1324913,20.1067392 C19.3065422,19.9096277 19.3875618,19.6472615 19.3549583,19.3863594 L19.3549583,19.3863594 L18.004,8.583 Z M12.0024257,3.58333726 C10.6311156,3.58776458 9.51052169,4.65578639 9.42225364,6.00363218 L9.41666667,6.16666667 L9.41595879,7.08233726 L14.5829588,7.08233726 L14.5833373,6.16909235 C14.5787247,4.74292987 13.4237368,3.58794199 12.0024257,3.58333726 Z" fill="#414851" fill-rule="nonzero"></path>
        </g>
    </g>
</svg>
