<?xml version="1.0" encoding="UTF-8"?>
<svg width="24px" height="24px" viewBox="0 0 24 24" version="1.1" xmlns="http://www.w3.org/2000/svg">
    <title>bell-add</title>
    <g stroke="none" stroke-width="1" fill="none" fill-rule="evenodd">
        <path fill-rule="evenodd" clip-rule="evenodd" d="M17.8311 13.9119C17.734 13.5207 17.4182 13.1884 17.0152 13.1882L16.9703 13.1882C16.5783 13.188 16.2658 13.5156 16.2845 13.9072C16.3659 14.3829 16.52 14.8268 16.7367 15.2276L16.8449 15.416H7.15994L7.26204 15.2459C7.51415 14.7912 7.68036 14.2868 7.74451 13.7568L7.74994 11.1667L7.76619 10.9373C7.93137 9.18594 9.02528 7.61478 10.6539 6.84469L10.7118 6.81427L10.7916 6.76039L10.8227 6.73524L10.8926 6.66661L10.927 6.62497L10.9369 6.608L10.9523 6.5903L10.9809 6.54521L11.0243 6.4586L11.0565 6.36605L11.0764 6.26844L11.0805 6.23205L11.0894 6.05976C11.1424 5.60387 11.5298 5.25 11.9999 5.25C12.5062 5.25 12.9166 5.66041 12.9166 6.16667L12.9243 6.27398C12.947 6.43112 13.1405 6.42935 13.2272 6.29633C13.4689 5.92547 13.7637 5.59245 14.101 5.30809C14.1703 5.24964 14.196 5.15253 14.1549 5.07171C13.7555 4.2873 12.9405 3.75 11.9999 3.75L11.841 3.75514C10.7905 3.82333 9.92298 4.56275 9.66298 5.54882L9.63094 5.685L9.55281 5.72862C7.6119 6.84071 6.35676 8.87336 6.25077 11.1315L6.24994 13.6667L6.22166 13.8335C6.08168 14.4996 5.62253 15.141 4.96371 15.514C4.29312 15.8938 4.56263 16.9167 5.33328 16.9167H8.75V17L8.75514 17.1844C8.85075 18.8936 10.267 20.25 12 20.25C13.7949 20.25 15.25 18.7949 15.25 17V16.9167H18.6666L18.7686 16.9105C19.4598 16.825 19.6763 15.8765 19.0362 15.514C18.3988 15.1531 17.9961 14.5764 17.8311 13.9119ZM13.75 16.9167H10.25V17C10.25 17.9665 11.0335 18.75 12 18.75C12.9182 18.75 13.6712 18.0429 13.7442 17.1435L13.75 17V16.9167Z" fill="#414851"/>
        <path d="M16.275 6.35C16.275 5.94959 16.5996 5.625 17 5.625C17.4004 5.625 17.725 5.94959 17.725 6.35L17.725 8.02502H19.4C19.8004 8.02502 20.125 8.34961 20.125 8.75002C20.125 9.15043 19.8004 9.47502 19.4 9.47502L17.725 9.47502V11.15C17.725 11.5504 17.4004 11.875 17 11.875C16.5996 11.875 16.275 11.5504 16.275 11.15V9.47502H14.6C14.1996 9.47502 13.875 9.15043 13.875 8.75002C13.875 8.34961 14.1996 8.02502 14.6 8.02502L16.275 8.02502V6.35Z" fill="#414851"/>
    </g>
</svg>
