<?xml version="1.0" encoding="UTF-8"?>
<svg width="24px" height="24px" viewBox="0 0 24 24" version="1.1" xmlns="http://www.w3.org/2000/svg">
    <title>bell-disabled</title>
    <path d="M14.337 5.54882C14.064 4.51344 13.1211 3.75 12 3.75L11.8411 3.75514C10.7906 3.82333 9.92303 4.56275 9.66303 5.54882L9.63099 5.685L9.55286 5.72862C7.61195 6.84071 6.35681 8.87336 6.25082 11.1315L6.25044 12.2858C6.25025 12.8801 6.90928 13.2376 7.40736 12.9135C7.61915 12.7757 7.74711 12.5403 7.74764 12.2876L7.74999 11.1667L7.76624 10.9373C7.93142 9.18594 9.02533 7.61478 10.6539 6.84469L10.7119 6.81427L10.7916 6.76039L10.8227 6.73524L10.8927 6.66661L10.9271 6.62497L10.937 6.608L10.9524 6.5903L10.9809 6.54521L11.0244 6.4586L11.0565 6.36605L11.0765 6.26844L11.0806 6.23205L11.0895 6.05976C11.1424 5.60387 11.5299 5.25 12 5.25C12.5063 5.25 12.9167 5.66041 12.9167 6.16667L12.9244 6.27398C12.9599 6.5205 13.1166 6.73621 13.3461 6.84469C13.446 6.89193 13.5654 6.87396 13.6436 6.79583L14.4766 5.9628C14.546 5.89343 14.5322 5.77741 14.4471 5.72864L14.368 5.685L14.337 5.54882Z" fill="#414851"/>
    <path fill-rule="evenodd" clip-rule="evenodd" d="M7.64399 16.9167L6.03033 18.5303C5.73744 18.8232 5.26256 18.8232 4.96967 18.5303C4.67678 18.2374 4.67678 17.7626 4.96967 17.4697L16.9697 5.46967C17.2626 5.17678 17.7374 5.17678 18.0303 5.46967C18.3232 5.76256 18.3232 6.23744 18.0303 6.53033L16.6971 7.86352C17.2749 8.75868 17.6379 9.79771 17.7326 10.9035L17.75 11.1667L17.7446 13.5765C17.8431 14.3908 18.3225 15.1099 19.0362 15.514C19.6763 15.8765 19.4599 16.825 18.7686 16.9105L18.6667 16.9167H15.25V17C15.25 18.7949 13.795 20.25 12.0001 20.25C10.267 20.25 8.8508 18.8936 8.75519 17.1844L8.75005 17V16.9167H7.64399ZM15.6069 8.9538C15.9867 9.63107 16.2131 10.3979 16.2508 11.2018L16.25 13.6667L16.2846 13.9072C16.366 14.3829 16.52 14.8268 16.7368 15.2276L16.845 15.416H9.14466L15.6069 8.9538ZM13.75 16.9167H10.2501V17C10.2501 17.9665 11.0336 18.75 12.0001 18.75C12.9182 18.75 13.6712 18.0429 13.7442 17.1435L13.75 17V16.9167Z" fill="#414851"/>
</svg>
