<?xml version="1.0" encoding="UTF-8"?>
<svg width="24px" height="24px" viewBox="0 0 24 24" version="1.1" xmlns="http://www.w3.org/2000/svg" xmlns:xlink="http://www.w3.org/1999/xlink">
    <title>bell</title>
    <g stroke="none" stroke-width="1" fill="none" fill-rule="evenodd">
        <g transform="translate(2.000000, 2.000000)">
            <rect x="1" y="1" width="18" height="18"></rect>
            <g stroke-linecap="round" stroke-linejoin="round">
                <polygon points="0 0 20 0 20 20 0 20"></polygon>
                <path d="M10,1.75 C11.121138,1.75 12.0639642,2.51344404 12.3369674,3.54882114 L12.368,3.685 L12.447135,3.72863642 C14.3133964,4.79811405 15.5456749,6.72070448 15.7326116,8.90351793 L15.75,9.16666667 L15.7445651,11.5765399 C15.8431286,12.3908043 16.3225122,13.1098796 17.0362318,13.5140399 C17.6763441,13.8765185 17.4598733,14.8250057 16.7686076,14.9104829 L16.6666667,14.9166667 L3.33333333,14.9166667 C2.56268539,14.9166667 2.29317431,13.8937794 2.96376824,13.5140399 C3.62258631,13.1409689 4.08173344,12.4995679 4.22172133,11.8335445 L4.25,11.6666667 L4.25082481,9.13150225 C4.35681613,6.87336495 5.6119574,4.84071374 7.5528653,3.7286236 L7.631,3.685 L7.6630326,3.54882114 C7.92303567,2.56274772 8.79058787,1.82332558 9.8411035,1.75514042 L10,1.75 Z M10,3.25 C9.52990048,3.25 9.14245177,3.60387017 9.08950042,4.05976397 L9.08059993,4.23204518 L9.07648672,4.26843722 L9.05654261,4.36604638 L9.02439462,4.45860051 L8.98093635,4.54520603 L8.95237574,4.59030355 L8.937,4.608 L8.92706141,4.62496931 L8.89265905,4.66661247 L8.8227298,4.73523946 L8.79163598,4.76039475 L8.71187269,4.81426968 L8.65393709,4.84468822 C7.0253369,5.61477487 5.93142418,7.18594339 5.76624571,8.93726305 L5.75,9.16666667 L5.74456509,11.7567934 C5.68041462,12.2867605 5.5142049,12.7912171 5.26210079,13.2459159 L5.16,13.416 L14.845,13.416 L14.736793,13.2275713 C14.52004,12.8268228 14.3659949,12.3829135 14.2845982,11.9071504 L14.25,11.6666667 L14.2508248,9.20183108 C14.1626879,7.32408107 13.0454718,5.6482569 11.3460629,4.84468822 C11.1166501,4.73620994 10.9599532,4.52050468 10.9243636,4.27398284 L10.9166667,4.16666667 C10.9166667,3.66040565 10.506261,3.25 10,3.25 Z" fill="#414851" fill-rule="nonzero"></path>
                <path d="M12.5,13.4166667 C12.8796958,13.4166667 13.193491,13.6988205 13.2431534,14.0648961 L13.25,14.1666667 L13.25,15 C13.25,16.7949254 11.7949254,18.25 10,18.25 C8.26696854,18.25 6.85075407,16.8935452 6.75514479,15.1844239 L6.75,15 L6.75,14.1666667 C6.75,13.7524531 7.08578644,13.4166667 7.5,13.4166667 C7.87969577,13.4166667 8.19349096,13.6988205 8.24315338,14.0648961 L8.25,14.1666667 L8.25,15 C8.25,15.9664983 9.03350169,16.75 10,16.75 C10.9181734,16.75 11.6711923,16.0428897 11.7441988,15.1435272 L11.75,15 L11.75,14.1666667 C11.75,13.7524531 12.0857864,13.4166667 12.5,13.4166667 Z" fill="#414851" fill-rule="nonzero"></path>
            </g>
        </g>
    </g>
</svg>
