<svg width="22" height="22" viewBox="0 0 22 22" fill="none" xmlns="http://www.w3.org/2000/svg">
<path fill-rule="evenodd" clip-rule="evenodd" d="M10.7085 2.3582C10.8926 2.26927 11.1072 2.26927 11.2913 2.3582L15.3104 4.29986C15.5418 4.41166 15.6889 4.64602 15.6889 4.90303V5.62469C15.6891 5.63515 15.6891 5.6456 15.6889 5.65602V9.68634L19.3296 11.4452C19.561 11.557 19.708 11.7913 19.708 12.0483V12.77C19.7083 12.7804 19.7083 12.7909 19.708 12.8013V17.0966C19.708 17.3537 19.561 17.588 19.3296 17.6998L15.3227 19.6355C15.242 19.6767 15.1518 19.7019 15.0564 19.7071C15.0439 19.7078 15.0315 19.7082 15.019 19.7082C15.0066 19.7082 14.9941 19.7078 14.9817 19.7071C14.8862 19.7019 14.7961 19.6767 14.7154 19.6355L10.9358 17.8096L7.29236 19.6314C7.19928 19.6804 7.09325 19.7082 6.98074 19.7082C6.97096 19.7082 6.96118 19.708 6.95141 19.7075C6.8498 19.7031 6.75407 19.6761 6.66911 19.6314L2.66202 17.6278C2.43509 17.5144 2.29174 17.2824 2.29174 17.0287V12.7977C2.29159 12.7897 2.29159 12.7816 2.29174 12.7736V11.8037C2.29174 11.5499 2.43509 11.318 2.66202 11.2045L6.31088 9.38006V5.65242C6.31073 5.64439 6.31073 5.63634 6.31088 5.62829V4.90303C6.31088 4.64602 6.45793 4.41166 6.68935 4.29986L10.7085 2.3582ZM10.9999 3.70532L14.251 5.27596L11.0199 6.89158C11.0132 6.89138 11.0066 6.89128 10.9999 6.89128C10.9932 6.89128 10.9866 6.89138 10.98 6.89158L7.74877 5.27594L10.9999 3.70532ZM10.33 8.06447L7.65059 6.72473V9.38006L10.33 10.7198V8.06447ZM11.6697 10.8254L14.3492 9.53101V6.72477L11.6697 8.06451V10.8254ZM10.33 12.3133L6.82584 10.6205L3.63145 12.2177V12.3722L6.96083 14.0369C6.96744 14.0367 6.97408 14.0366 6.98074 14.0366C6.98742 14.0366 6.99408 14.0367 7.00072 14.0369L10.33 12.3722V12.3133ZM18.3683 16.6763L15.6889 17.9707V15.2098L18.3683 13.8701V16.6763ZM15.019 14.0366C15.0257 14.0366 15.0324 14.0367 15.039 14.0369L18.2702 12.4213L15.019 10.8506L11.7679 12.4212L14.9991 14.0369L15.0087 14.0367L15.019 14.0366ZM14.3492 17.9707V15.2098L11.6697 13.87V16.6763L14.3492 17.9707ZM10.33 16.6147V13.8701L7.65059 15.2098V17.9544L10.33 16.6147ZM6.31088 15.2098V17.9544L3.63145 16.6147V13.87L6.31088 15.2098Z" fill="currentColor"/>
</svg>
