<svg width="24" height="24" viewBox="0 0 24 24" fill="none" xmlns="http://www.w3.org/2000/svg">
  <path fill-rule="evenodd" clip-rule="evenodd" d="M11.5354 2.12169C11.824 1.95944 12.176 1.95944 12.4646 2.12169L20.5146 6.64782C20.8144 6.81639 21 7.13422 21 7.47892V16.5211C21 16.8658 20.8144 17.1836 20.5146 17.3522L12.4646 21.8783C12.176 22.0406 11.824 22.0406 11.5354 21.8783L3.48544 17.3522C3.18564 17.1836 3 16.8658 3 16.5211V7.47892C3 7.13421 3.18564 6.81639 3.48544 6.64782L11.5354 2.12169ZM5.27925 7.36393L11.9999 11.1427L18.7207 7.3639L12 3.58517L5.27925 7.36393ZM19.5 8.65041L12.75 12.4456V19.9931L19.5 16.1979V8.65041ZM11.25 12.4457L4.5 8.65047V16.1979L11.25 19.9931V12.4457Z" fill="currentColor"/>
</svg>
