<?xml version="1.0" encoding="UTF-8"?>
<svg width="24" height="24" viewBox="0 0 24 24" fill="none" xmlns="http://www.w3.org/2000/svg">
    <title>bookmark</title>
    <path fill-rule="evenodd" clip-rule="evenodd" d="M9 4.75C8.66848 4.75 8.35054 4.8817 8.11612 5.11612C7.8817 5.35054 7.75 5.66848 7.75 6V18.6754L11.6141 16.3569C11.8516 16.2144 12.1484 16.2144 12.3859 16.3569L16.25 18.6754V6C16.25 5.66848 16.1183 5.35054 15.8839 5.11612C15.6495 4.8817 15.3315 4.75 15 4.75H9ZM7.05546 4.05546C7.57118 3.53973 8.27065 3.25 9 3.25H15C15.7293 3.25 16.4288 3.53973 16.9445 4.05546C17.4603 4.57118 17.75 5.27065 17.75 6V20C17.75 20.2702 17.6047 20.5195 17.3695 20.6527C17.1344 20.7858 16.8458 20.7821 16.6141 20.6431L12 17.8746L7.38587 20.6431C7.15417 20.7821 6.86561 20.7858 6.63048 20.6527C6.39534 20.5195 6.25 20.2702 6.25 20V6C6.25 5.27065 6.53973 4.57118 7.05546 4.05546Z" fill="#212121"/>
</svg>
