<?xml version="1.0" encoding="UTF-8"?>
<svg width="24px" height="24px" viewBox="0 0 24 24" version="1.1" xmlns="http://www.w3.org/2000/svg" xmlns:xlink="http://www.w3.org/1999/xlink">
    <title>book-open</title>
    <g stroke="none" stroke-width="1" fill="none" fill-rule="evenodd">
        <g transform="translate(1.000000, 2.000000)">
            <rect x="1" y="0" width="20" height="20"></rect>
            <g stroke-linecap="square" transform="translate(0.833333, 0.666667)" fill="#414851" fill-rule="nonzero">
                <path d="M19.1359953,0.276427134 C19.6131,0.146307666 20.0833333,0.505469935 20.0833333,1 L20.0833333,1 L20.0833333,15.1666667 C20.0833333,15.50488 19.8569673,15.8012497 19.5306714,15.8902395 L19.5306714,15.8902395 L10.3640047,18.3902395 C10.2348054,18.4254757 10.0985279,18.4254757 9.96932861,18.3902395 L9.96932861,18.3902395 L0.802661946,15.8902395 C0.476365997,15.8012497 0.25,15.50488 0.25,15.1666667 L0.25,15.1666667 L0.25,1 C0.25,0.505469935 0.720233339,0.146307666 1.19733805,0.276427134 L1.19733805,0.276427134 L10.166,2.722 Z M18.583,1.981 L10.3640047,4.22357287 C10.2348054,4.25880904 10.0985279,4.25880904 9.96932861,4.22357287 L9.96932861,4.22357287 L1.75,1.981 L1.75,14.594 L10.166,16.889 L18.583,14.594 L18.583,1.981 Z M4.43225755,11.8397957 L4.5322007,11.8601793 L7.86553403,12.776846 C8.26492098,12.8866774 8.49965212,13.2994804 8.38982071,13.6988674 C8.28914192,14.0649721 7.93388279,14.2927202 7.56774245,14.2435376 L7.4677993,14.223154 L4.13446597,13.3064874 C3.73507902,13.196656 3.50034788,12.7838529 3.61017929,12.384466 C3.71085808,12.0183613 4.06611721,11.7906132 4.43225755,11.8397957 Z M16.723154,12.384466 C16.8238328,12.7505707 16.6349834,13.1279486 16.2951797,13.2729007 L16.1988674,13.3064874 L12.865534,14.223154 C12.4661471,14.3329855 12.053344,14.0982543 11.9435126,13.6988674 C11.8428338,13.3327627 12.0316833,12.9553847 12.371487,12.8104326 L12.4677993,12.776846 L15.8011326,11.8601793 C16.2005196,11.7503479 16.6133226,11.985079 16.723154,12.384466 Z M4.41484256,8.171019 L4.51523505,8.18905979 L7.84856839,9.02239312 C8.25041457,9.12285467 8.49473509,9.53005554 8.39427354,9.93190172 C8.30218379,10.3002607 7.95234781,10.5362544 7.58515744,10.4956477 L7.48476495,10.4776069 L4.15143161,9.64427354 C3.74958543,9.543812 3.50526491,9.13661113 3.60572646,8.73476495 C3.69781621,8.36640595 4.04765219,8.13041226 4.41484256,8.171019 Z M16.7276069,8.73476495 C16.8196966,9.10312395 16.6220737,9.47598237 16.2789731,9.61294836 L16.1819017,9.64427354 L12.8485684,10.4776069 C12.4467222,10.5780684 12.0395213,10.3337479 11.9390598,9.93190172 C11.84697,9.56354272 12.044593,9.1906843 12.3876936,9.0537183 L12.4847649,9.02239312 L15.8180983,8.18905979 C16.2199445,8.08859825 16.6271453,8.33291877 16.7276069,8.73476495 Z M4.43225755,4.58979571 L4.5322007,4.61017929 L7.86553403,5.52684596 C8.26492098,5.63667737 8.49965212,6.04948041 8.38982071,6.44886736 C8.28914192,6.81497207 7.93388279,7.04272016 7.56774245,6.99353762 L7.4677993,6.97315404 L4.13446597,6.05648738 C3.73507902,5.94665597 3.50034788,5.53385292 3.61017929,5.13446597 C3.71085808,4.76836127 4.06611721,4.54061318 4.43225755,4.58979571 Z M16.723154,5.13446597 C16.8238328,5.50057068 16.6349834,5.87794863 16.2951797,6.02290071 L16.1988674,6.05648738 L12.865534,6.97315404 C12.4661471,7.08298546 12.053344,6.84825431 11.9435126,6.44886736 C11.8428338,6.08276266 12.0316833,5.70538471 12.371487,5.56043262 L12.4677993,5.52684596 L15.8011326,4.61017929 C16.2005196,4.50034788 16.6133226,4.73507902 16.723154,5.13446597 Z"></path>
            </g>
        </g>
    </g>
</svg>
