<?xml version="1.0" encoding="UTF-8"?>
<svg width="24" height="24" viewBox="0 0 24 24" fill="none" xmlns="http://www.w3.org/2000/svg">
    <title>bookmark-off</title>
    <path fill-rule="evenodd" clip-rule="evenodd" d="M2.46967 2.46967C2.76256 2.17678 3.23744 2.17678 3.53033 2.46967L21.5303 20.4697C21.8232 20.7626 21.8232 21.2374 21.5303 21.5303C21.2374 21.8232 20.7626 21.8232 20.4697 21.5303L2.46967 3.53033C2.17678 3.23744 2.17678 2.76256 2.46967 2.46967Z" fill="#212121"/>
    <path fill-rule="evenodd" clip-rule="evenodd" d="M9 4.756C8.817 4.756 8.64334 4.79529 8.48487 4.86635C8.10692 5.03583 7.66313 4.86682 7.49365 4.48887C7.32417 4.11092 7.49318 3.66713 7.87113 3.49765C8.21666 3.34272 8.599 3.256 9 3.256H15C15.7293 3.256 16.4288 3.54573 16.9445 4.06146C17.4603 4.57718 17.75 5.27665 17.75 6.006V13.006C17.75 13.4202 17.4142 13.756 17 13.756C16.5858 13.756 16.25 13.4202 16.25 13.006V6.006C16.25 5.67448 16.1183 5.35654 15.8839 5.12212C15.6495 4.8877 15.3315 4.756 15 4.756H9ZM7 6.25C7.41421 6.25 7.75 6.58579 7.75 7V18.6754L11.6141 16.3569C11.8516 16.2144 12.1484 16.2144 12.3859 16.3569L16.25 18.6754V17C16.25 16.5858 16.5858 16.25 17 16.25C17.4142 16.25 17.75 16.5858 17.75 17V20C17.75 20.2702 17.6047 20.5195 17.3695 20.6527C17.1344 20.7858 16.8458 20.7821 16.6141 20.6431L12 17.8746L7.38587 20.6431C7.15417 20.7821 6.86561 20.7858 6.63048 20.6527C6.39534 20.5195 6.25 20.2702 6.25 20V7C6.25 6.58579 6.58579 6.25 7 6.25Z" fill="#212121"/>
</svg>
