<?xml version="1.0" encoding="UTF-8"?>
<svg width="24" height="24" viewBox="0 0 24 24" fill="none" xmlns="http://www.w3.org/2000/svg">
<path fill-rule="evenodd" clip-rule="evenodd" d="M7.8835 3.42383C8.01828 3.31151 8.18818 3.25 8.36364 3.25H15.6364C15.8118 3.25 15.9817 3.31151 16.1165 3.42383L20.4755 7.05632C20.6431 7.19387 20.75 7.40263 20.75 7.63636V11.25C20.75 11.6642 20.4142 12 20 12C19.5858 12 19.25 11.6642 19.25 11.25V8.38636H14.9318V12.7273C14.9318 13.1415 14.596 13.4773 14.1818 13.4773H9.81812C9.4039 13.4773 9.06812 13.1415 9.06812 12.7273V8.38636H4.75V19.25H14.25C14.6642 19.25 15 19.5858 15 20C15 20.4142 14.6642 20.75 14.25 20.75H4C3.58579 20.75 3.25 20.4142 3.25 20V7.63636C3.25 7.43785 3.32712 7.25735 3.45304 7.1232C3.46015 7.11562 3.46743 7.10817 3.47488 7.10087C3.49077 7.08529 3.50734 7.07041 3.52456 7.05628L7.8835 3.42383ZM10.5681 8.38636V11.9773H13.4318V8.38636H10.5681ZM13.074 6.88636H10.9259L11.7804 4.75H12.2194L13.074 6.88636ZM14.6895 6.88636H17.9285L15.3648 4.75H13.835L14.6895 6.88636ZM10.1649 4.75L9.31034 6.88636H6.07154L8.63517 4.75H10.1649Z" fill="#2B2B2B"/>
<path d="M18.0014 20.1414L15.4316 17.5727C15.1152 17.2564 15.1152 16.7436 15.4316 16.4274C15.7478 16.1113 16.2603 16.1113 16.5764 16.4274L18.0014 17.8518L21.4239 14.4308C21.7401 14.1147 22.2525 14.1147 22.5687 14.4308C22.8851 14.747 22.8851 15.2599 22.5687 15.5761L18.0014 20.1414Z" fill="#2B2B2B"/>
</svg>
