<?xml version="1.0" encoding="UTF-8"?>
<svg width="24" height="24" viewBox="0 0 24 24" fill="none" xmlns="http://www.w3.org/2000/svg">
    <title>box-search</title>
    <path fill-rule="evenodd" clip-rule="evenodd" d="M8.36364 3.25C8.18818 3.25 8.01828 3.31151 7.8835 3.42383L3.52456 7.05628C3.50734 7.07041 3.49077 7.08529 3.47488 7.10087C3.46743 7.10817 3.46015 7.11562 3.45304 7.1232C3.32712 7.25735 3.25 7.43785 3.25 7.63636V20C3.25 20.4142 3.58579 20.75 4 20.75H14.25C14.6642 20.75 15 20.4142 15 20C15 19.5858 14.6642 19.25 14.25 19.25H4.75V8.38636H9.06812V12.7273C9.06812 13.1415 9.4039 13.4773 9.81812 13.4773H14.1818C14.596 13.4773 14.9318 13.1415 14.9318 12.7273V8.38636H19.25V11.25C19.25 11.6642 19.5858 12 20 12C20.4142 12 20.75 11.6642 20.75 11.25V7.63636C20.75 7.40263 20.6431 7.19387 20.4755 7.05632L16.1165 3.42383C15.9817 3.31151 15.8118 3.25 15.6364 3.25H8.36364ZM10.5681 11.9773V8.38636H13.4318V11.9773H10.5681ZM10.9259 6.88636H13.074L12.2194 4.75H11.7804L10.9259 6.88636ZM17.9285 6.88636H14.6895L13.835 4.75H15.3648L17.9285 6.88636ZM9.31034 6.88636L10.1649 4.75H8.63517L6.07154 6.88636H9.31034Z" fill="#2B2B2B"/>
    <path fill-rule="evenodd" clip-rule="evenodd" d="M15 16.0333C15 14.3581 16.3581 13 18.0333 13C19.7086 13 21.0667 14.3581 21.0667 16.0333C21.0667 16.6174 20.9016 17.1628 20.6156 17.6257L22.195 19.205C22.4683 19.4784 22.4683 19.9216 22.195 20.195C21.9489 20.441 21.5653 20.4656 21.2918 20.2688L21.205 20.195L19.6257 18.6156C19.1628 18.9016 18.6174 19.0667 18.0333 19.0667C16.3581 19.0667 15 17.7086 15 16.0333ZM19.6667 16.0333C19.6667 15.1313 18.9354 14.4 18.0333 14.4C17.1313 14.4 16.4 15.1313 16.4 16.0333C16.4 16.9354 17.1313 17.6667 18.0333 17.6667C18.9354 17.6667 19.6667 16.9354 19.6667 16.0333Z" fill="#2B2B2B"/>
</svg>
