<?xml version="1.0" encoding="UTF-8"?>
<svg width="24" height="24" viewBox="0 0 24 24" fill="none" xmlns="http://www.w3.org/2000/svg">
    <title>box-success</title>
    <path fill-rule="evenodd" clip-rule="evenodd" d="M7.8835 3.42383C8.01828 3.31151 8.18818 3.25 8.36364 3.25H15.6364C15.8118 3.25 15.9817 3.31151 16.1165 3.42383L20.4755 7.05632C20.6431 7.19387 20.75 7.40263 20.75 7.63636V10.25C20.75 10.6642 20.4142 11 20 11C19.5858 11 19.25 10.6642 19.25 10.25V8.38636H14.9318V12.7273C14.9318 13.1415 14.596 13.4773 14.1818 13.4773H9.81812C9.4039 13.4773 9.06812 13.1415 9.06812 12.7273V8.38636H4.75V19.25H13.25C13.6642 19.25 14 19.5858 14 20C14 20.4142 13.6642 20.75 13.25 20.75H4C3.58579 20.75 3.25 20.4142 3.25 20V7.63636C3.25 7.43785 3.32712 7.25735 3.45304 7.1232C3.46015 7.11562 3.46743 7.10817 3.47488 7.10087C3.49077 7.08529 3.50734 7.07041 3.52456 7.05628L7.8835 3.42383ZM10.5681 8.38636V11.9773H13.4318V8.38636H10.5681ZM13.074 6.88636H10.9259L11.7804 4.75H12.2194L13.074 6.88636ZM14.6895 6.88636H17.9285L15.3648 4.75H13.835L14.6895 6.88636ZM10.1649 4.75L9.31034 6.88636H6.07154L8.63517 4.75H10.1649Z" fill="#2B2B2B"/>
    <path fill-rule="evenodd" clip-rule="evenodd" d="M21.2857 13.6064C21.6053 13.2751 22.136 13.2751 22.4556 13.6064L-nan -nanL22.4556 13.6064C22.7594 13.9212 22.7594 14.4201 22.4556 14.735L17.3764 20L14.5444 17.0643C14.2406 16.7494 14.2406 16.2506 14.5444 15.9357L-nan -nanL14.5444 15.9357C14.864 15.6044 15.3947 15.6044 15.7143 15.9357L17.3764 17.6587L21.2857 13.6064Z" fill="#2B2B2B"/>
</svg>
