<?xml version="1.0" encoding="UTF-8"?>
<svg width="24" height="24" viewBox="0 0 24 24" fill="none" xmlns="http://www.w3.org/2000/svg">
<path fill-rule="evenodd" clip-rule="evenodd" d="M3.75 4.83332C3.75 3.31453 4.98122 2.08331 6.5 2.08331H18.3333C19.8521 2.08331 21.0833 3.31453 21.0833 4.83331V19.1666C21.0833 20.6854 19.8521 21.9166 18.3333 21.9166H6.5C4.98122 21.9166 3.75 20.6854 3.75 19.1666V4.83332ZM6.5 3.58331C5.80965 3.58331 5.25 4.14296 5.25 4.83332V19.1666C5.25 19.857 5.80964 20.4166 6.5 20.4166H18.3333C19.0237 20.4166 19.5833 19.857 19.5833 19.1666V4.83331C19.5833 4.14296 19.0237 3.58331 18.3333 3.58331H6.5ZM7.08333 7.49998C7.08333 6.80962 7.64298 6.24998 8.33333 6.24998H16.5C17.1904 6.24998 17.75 6.80962 17.75 7.49998V9.83331C17.75 10.5237 17.1904 11.0833 16.5 11.0833H8.33333C7.64298 11.0833 7.08333 10.5237 7.08333 9.83331V7.49998ZM8.58333 7.74998V9.58331H16.25V7.74998H8.58333ZM7.08333 13.6666C7.08333 13.2524 7.41912 12.9166 7.83333 12.9166H8.66667C9.08088 12.9166 9.41667 13.2524 9.41667 13.6666C9.41667 14.0809 9.08088 14.4166 8.66667 14.4166H7.83333C7.41912 14.4166 7.08333 14.0809 7.08333 13.6666ZM11.25 13.6666C11.25 13.2524 11.5858 12.9166 12 12.9166H12.8333C13.2475 12.9166 13.5833 13.2524 13.5833 13.6666C13.5833 14.0809 13.2475 14.4166 12.8333 14.4166H12C11.5858 14.4166 11.25 14.0809 11.25 13.6666ZM15.4167 13.6666C15.4167 13.2524 15.7525 12.9166 16.1667 12.9166H17C17.4142 12.9166 17.75 13.2524 17.75 13.6666C17.75 14.0809 17.4142 14.4166 17 14.4166H16.1667C15.7525 14.4166 15.4167 14.0809 15.4167 13.6666ZM7.08333 17C7.08333 16.5858 7.41912 16.25 7.83333 16.25H8.66667C9.08088 16.25 9.41667 16.5858 9.41667 17C9.41667 17.4142 9.08088 17.75 8.66667 17.75H7.83333C7.41912 17.75 7.08333 17.4142 7.08333 17ZM11.25 17C11.25 16.5858 11.5858 16.25 12 16.25H12.8333C13.2475 16.25 13.5833 16.5858 13.5833 17C13.5833 17.4142 13.2475 17.75 12.8333 17.75H12C11.5858 17.75 11.25 17.4142 11.25 17ZM15.4167 17C15.4167 16.5858 15.7525 16.25 16.1667 16.25H17C17.4142 16.25 17.75 16.5858 17.75 17C17.75 17.4142 17.4142 17.75 17 17.75H16.1667C15.7525 17.75 15.4167 17.4142 15.4167 17Z" fill="#2B2B2B"/>
</svg>
