<?xml version="1.0" encoding="UTF-8"?>
<svg width="24px" height="24px" viewBox="0 0 24 24" version="1.1" xmlns="http://www.w3.org/2000/svg" xmlns:xlink="http://www.w3.org/1999/xlink">
    <title>calendar-in</title>
    <g stroke="none" stroke-width="1" fill="none" fill-rule="evenodd">
        <g>
            <rect fill-opacity="0" fill="#FFFFFF" x="0" y="0" width="24" height="24"></rect>
            <g transform="translate(2.000000, 2.000000)">
                <rect x="1" y="1" width="18" height="18"></rect>
                <g stroke-linecap="square" transform="translate(0.750000, 0.750000)" fill="#414851" fill-rule="nonzero">
                    <g transform="translate(5.500000, 13.000000) scale(-1, 1) translate(-5.500000, -13.000000) translate(0.000000, 9.000000)">
                        <path d="M10,3.25 C10.4142136,3.25 10.75,3.58578644 10.75,4 C10.75,4.37969577 10.4678461,4.69349096 10.1017706,4.74315338 L10,4.75 L1,4.75 C0.585786438,4.75 0.25,4.41421356 0.25,4 C0.25,3.62030423 0.532153882,3.30650904 0.898229443,3.25684662 L1,3.25 L10,3.25 Z"></path>
                        <path d="M3.46966991,0.469669914 C3.76256313,0.176776695 4.23743687,0.176776695 4.53033009,0.469669914 C4.79659665,0.735936477 4.8208027,1.15260016 4.60294824,1.44621165 L4.53033009,1.53033009 L2.061,4 L4.53033009,6.46966991 C4.79659665,6.73593648 4.8208027,7.15260016 4.60294824,7.44621165 L4.53033009,7.53033009 C4.26406352,7.79659665 3.84739984,7.8208027 3.55378835,7.60294824 L3.46966991,7.53033009 L0.469669914,4.53033009 C0.203403352,4.26406352 0.1791973,3.84739984 0.397051761,3.55378835 L0.469669914,3.46966991 L3.46966991,0.469669914 Z"></path>
                    </g>
                    <path d="M16.5,2.5 C17.4181734,2.5 18.1711923,3.20711027 18.2441988,4.10647279 L18.25,4.25 L18.25,15.75 C18.25,16.6681734 17.5428897,17.4211923 16.6435272,17.4941988 L16.5,17.5 L11.5637207,17.5 C11.1495071,17.5 10.8137207,17.1642136 10.8137207,16.75 C10.8137207,16.3703042 11.0958746,16.056509 11.4619501,16.0068466 L11.5637207,16 L16.5,16 C16.6183467,16 16.7174868,15.9177666 16.7433973,15.8073227 L16.75,15.75 L16.75,4.25 C16.75,4.13165327 16.6677666,4.03251318 16.5573227,4.00660268 L16.5,4 L2,4 C1.88165327,4 1.78251318,4.08223341 1.75660268,4.19267729 L1.75,4.25 L1.75,9.25 C1.75,9.66421356 1.41421356,10 1,10 C0.620304234,10 0.306509039,9.71784612 0.256846616,9.35177056 L0.25,9.25 L0.25,4.25 C0.25,3.3318266 0.957110273,2.57880766 1.85647279,2.5058012 L2,2.5 L16.5,2.5 Z"></path>
                    <path d="M13,0.25 C13.3796958,0.25 13.693491,0.532153882 13.7431534,0.898229443 L13.75,1 L13.75,3.25 C13.75,3.66421356 13.4142136,4 13,4 C12.6203042,4 12.306509,3.71784612 12.2568466,3.35177056 L12.25,3.25 L12.25,1 C12.25,0.585786438 12.5857864,0.25 13,0.25 Z"></path>
                    <path d="M5.5,0.25 C5.87969577,0.25 6.19349096,0.532153882 6.24315338,0.898229443 L6.25,1 L6.25,3.25 C6.25,3.66421356 5.91421356,4 5.5,4 C5.12030423,4 4.80650904,3.71784612 4.75684662,3.35177056 L4.75,3.25 L4.75,1 C4.75,0.585786438 5.08578644,0.25 5.5,0.25 Z"></path>
                    <polygon points="17.5 6.5 17.5 8 1 8 1 6.5"></polygon>
                </g>
            </g>
        </g>
    </g>
</svg>
