<svg width="24" height="24" viewBox="0 0 24 24" fill="none" xmlns="http://www.w3.org/2000/svg">
<path fill-rule="evenodd" clip-rule="evenodd" d="M8.25 3C8.6297 3 8.94349 3.28215 8.99315 3.64823L9 3.75V5.25H15V3.75C15 3.33579 15.3358 3 15.75 3C16.1297 3 16.4435 3.28215 16.4932 3.64823L16.5 3.75V5.25H19.25C20.1682 5.25 20.9212 5.95711 20.9942 6.85647L21 7V12C21 12.4142 20.6642 12.75 20.25 12.75C19.8703 12.75 19.5565 12.4678 19.5068 12.1018L19.5 12V10.75H4.5V18.5C4.5 18.6183 4.58223 18.7175 4.69268 18.7434L4.75 18.75H11.5C11.9142 18.75 12.25 19.0858 12.25 19.5C12.25 19.8797 11.9678 20.1935 11.6018 20.2432L11.5 20.25H4.75C3.83183 20.25 3.07881 19.5429 3.0058 18.6435L3 18.5V7C3 6.08183 3.70711 5.32881 4.60647 5.2558L4.75 5.25H7.5V3.75C7.5 3.33579 7.83579 3 8.25 3ZM19.5 7V9.25H4.5V7L4.5066 6.94268C4.53251 6.83223 4.63165 6.75 4.75 6.75H19.25L19.3073 6.7566C19.4178 6.78251 19.5 6.88165 19.5 7Z" fill="#2B2B2B"/>
<path d="M18.5 15.95C18.9142 15.95 19.25 16.2858 19.25 16.7V17.75H20.3C20.7142 17.75 21.05 18.0858 21.05 18.5C21.05 18.9142 20.7142 19.25 20.3 19.25H18.5C18.0858 19.25 17.75 18.9142 17.75 18.5V16.7C17.75 16.2858 18.0858 15.95 18.5 15.95Z" fill="#2B2B2B"/>
<path fill-rule="evenodd" clip-rule="evenodd" d="M13.25 18.5C13.25 15.6005 15.6005 13.25 18.5 13.25C21.3995 13.25 23.75 15.6005 23.75 18.5C23.75 21.3995 21.3995 23.75 18.5 23.75C15.6005 23.75 13.25 21.3995 13.25 18.5ZM18.5 14.75C16.4289 14.75 14.75 16.4289 14.75 18.5C14.75 20.5711 16.4289 22.25 18.5 22.25C20.5711 22.25 22.25 20.5711 22.25 18.5C22.25 16.4289 20.5711 14.75 18.5 14.75Z" fill="#2B2B2B"/>
</svg>
