<?xml version="1.0" encoding="UTF-8"?>
<svg width="24px" height="24px" viewBox="0 0 24 24" version="1.1" xmlns="http://www.w3.org/2000/svg" xmlns:xlink="http://www.w3.org/1999/xlink">
    <title>calendar-out</title>
    <g stroke="none" stroke-width="1" fill="none" fill-rule="evenodd">
        <g>
            <rect fill-opacity="0" fill="#FFFFFF" x="0" y="0" width="24" height="24"></rect>
            <g transform="translate(2.000000, 2.000000)">
                <rect x="1" y="1" width="18" height="18"></rect>
                <g stroke-linecap="square" transform="translate(0.750000, 0.750000)" fill="#414851" fill-rule="nonzero">
                    <path d="M16.75,12.25 C17.1642136,12.25 17.5,12.5857864 17.5,13 C17.5,13.3796958 17.2178461,13.693491 16.8517706,13.7431534 L16.75,13.75 L7.75,13.75 C7.33578644,13.75 7,13.4142136 7,13 C7,12.6203042 7.28215388,12.306509 7.64822944,12.2568466 L7.75,12.25 L16.75,12.25 Z"></path>
                    <path d="M13.2196699,9.46966991 C13.4859365,9.20340335 13.9026002,9.1791973 14.1962117,9.39705176 L14.2803301,9.46966991 L17.2803301,12.4696699 C17.5465966,12.7359365 17.5708027,13.1526002 17.3529482,13.4462117 L17.2803301,13.5303301 L14.2803301,16.5303301 C13.9874369,16.8232233 13.5125631,16.8232233 13.2196699,16.5303301 C12.9534034,16.2640635 12.9291973,15.8473998 13.1470518,15.5537883 L13.2196699,15.4696699 L15.689,13 L13.2196699,10.5303301 C12.9534034,10.2640635 12.9291973,9.84739984 13.1470518,9.55378835 L13.2196699,9.46966991 Z"></path>
                    <path d="M16.5,2.5 C17.4181734,2.5 18.1711923,3.20711027 18.2441988,4.10647279 L18.25,4.25 L18.25,9.25 C18.25,9.66421356 17.9142136,10 17.5,10 C17.1203042,10 16.806509,9.71784612 16.7568466,9.35177056 L16.75,9.25 L16.75,4.25 C16.75,4.13165327 16.6677666,4.03251318 16.5573227,4.00660268 L16.5,4 L2,4 C1.88165327,4 1.78251318,4.08223341 1.75660268,4.19267729 L1.75,4.25 L1.75,15.75 C1.75,15.8683467 1.83223341,15.9674868 1.94267729,15.9933973 L2,16 L8.75,16 C9.16421356,16 9.5,16.3357864 9.5,16.75 C9.5,17.1296958 9.21784612,17.443491 8.85177056,17.4931534 L8.75,17.5 L2,17.5 C1.0818266,17.5 0.32880766,16.7928897 0.2558012,15.8935272 L0.25,15.75 L0.25,4.25 C0.25,3.3318266 0.957110273,2.57880766 1.85647279,2.5058012 L2,2.5 L16.5,2.5 Z"></path>
                    <path d="M5.5,0.25 C5.87969577,0.25 6.19349096,0.532153882 6.24315338,0.898229443 L6.25,1 L6.25,3.25 C6.25,3.66421356 5.91421356,4 5.5,4 C5.12030423,4 4.80650904,3.71784612 4.75684662,3.35177056 L4.75,3.25 L4.75,1 C4.75,0.585786438 5.08578644,0.25 5.5,0.25 Z"></path>
                    <path d="M13,0.25 C13.3796958,0.25 13.693491,0.532153882 13.7431534,0.898229443 L13.75,1 L13.75,3.25 C13.75,3.66421356 13.4142136,4 13,4 C12.6203042,4 12.306509,3.71784612 12.2568466,3.35177056 L12.25,3.25 L12.25,1 C12.25,0.585786438 12.5857864,0.25 13,0.25 Z"></path>
                    <polygon points="17.5 6.5 17.5 8 1 8 1 6.5"></polygon>
                </g>
            </g>
        </g>
    </g>
</svg>
