<?xml version="1.0" encoding="UTF-8"?>
<svg width="24px" height="24px" viewBox="0 0 24 24" version="1.1" xmlns="http://www.w3.org/2000/svg" xmlns:xlink="http://www.w3.org/1999/xlink">
    <title>calendar</title>
    <g stroke="none" stroke-width="1" fill="none" fill-rule="evenodd">
        <g transform="translate(2.000000, 2.000000)">
            <rect x="0" y="0" width="20" height="20"></rect>
            <g stroke-linecap="round" stroke-linejoin="round" transform="translate(1.500000, 0.666667)" fill="#414851" fill-rule="nonzero">
                <path d="M11.8333333,0.3 C12.187716,0.3 12.4805916,0.563343623 12.5269432,0.905014146 L12.5333333,1 L12.533,1.966 L14.3333333,1.96666667 C15.5859458,1.96666667 16.6112709,2.9397996 16.69454,4.17129681 L16.7,4.33333333 L16.7,16 C16.7,17.3070739 15.6404072,18.3666667 14.3333333,18.3666667 L14.3333333,18.3666667 L2.66666667,18.3666667 C1.35959276,18.3666667 0.3,17.3070739 0.3,16 L0.3,16 L0.3,4.33333333 C0.3,3.02625943 1.35959276,1.96666667 2.66666667,1.96666667 L2.66666667,1.96666667 L4.466,1.966 L4.46666667,1 C4.46666667,0.613400675 4.78006734,0.3 5.16666667,0.3 C5.52104938,0.3 5.8139249,0.563343623 5.86027649,0.905014146 L5.86666667,1 L5.866,1.966 L11.133,1.966 L11.1333333,1 C11.1333333,0.613400675 11.446734,0.3 11.8333333,0.3 Z M15.299,8.366 L1.699,8.366 L1.7,16 C1.7,16.4957413 2.07317218,16.9043236 2.55393291,16.9601632 L2.66666667,16.9666667 L14.3333333,16.9666667 C14.8672086,16.9666667 15.3,16.5338753 15.3,16 L15.3,16 L15.299,8.366 Z M4.466,3.366 L2.66666667,3.36666667 C2.13279141,3.36666667 1.7,3.79945808 1.7,4.33333333 L1.7,4.33333333 L1.699,6.966 L15.299,6.966 L15.3,4.33333333 C15.3,3.83759202 14.9268278,3.42900974 14.4460671,3.37317014 L14.3333333,3.36666667 L14.3333333,3.36666667 L12.533,3.366 L12.5333333,4.33333333 C12.5333333,4.71993266 12.2199327,5.03333333 11.8333333,5.03333333 C11.4789506,5.03333333 11.1860751,4.76998971 11.1397235,4.42831919 L11.1333333,4.33333333 L11.133,3.366 L5.866,3.366 L5.86666667,4.33333333 C5.86666667,4.71993266 5.55326599,5.03333333 5.16666667,5.03333333 C4.81228395,5.03333333 4.51940844,4.76998971 4.47305684,4.42831919 L4.46666667,4.33333333 L4.466,3.366 Z"></path>
            </g>
        </g>
    </g>
</svg>
