<?xml version="1.0" encoding="UTF-8"?>
<svg width="24" height="24" viewBox="0 0 24 24" fill="none" xmlns="http://www.w3.org/2000/svg">
<path d="M19.7535 9.52713H18.902L15.1737 4.42789C14.8324 3.95749 14.1891 3.85909 13.754 4.21189C13.54 4.38205 13.3987 4.63032 13.3599 4.90462C13.3211 5.17892 13.3877 5.45793 13.5458 5.6831L16.3468 9.52713H7.64095L10.4232 5.7031C10.7636 5.2319 10.6689 4.56469 10.215 4.23109C10.109 4.14716 9.98743 4.08602 9.85769 4.05136C9.72795 4.0167 9.5927 4.00924 9.46006 4.02942C9.32743 4.0496 9.20016 4.09701 9.08592 4.16879C8.97168 4.24057 8.87283 4.33524 8.79532 4.44709L5.06692 9.54633H4.23422C3.4203 9.54633 2.83411 10.3311 3.04229 11.1543L5.10527 19.0584C5.25632 19.608 5.7298 20 6.2972 20H17.7093C18.258 20 18.7502 19.608 18.902 19.0584L20.9642 11.1543C21.1536 10.3111 20.5675 9.52713 19.7535 9.52713ZM9.09819 16.5872C9.09819 16.9792 8.79532 17.2936 8.41731 17.2936C8.32712 17.2933 8.23789 17.2747 8.15475 17.239C8.07162 17.2032 7.99623 17.151 7.93293 17.0854C7.86963 17.0197 7.81968 16.9418 7.78596 16.8563C7.75223 16.7708 7.7354 16.6794 7.73643 16.5872V12.9C7.73643 12.5079 8.03852 12.1943 8.41731 12.1943C8.79532 12.1943 9.09819 12.5079 9.09819 12.9V16.5872ZM12.6748 16.5872C12.6748 16.9792 12.3727 17.2936 11.9939 17.2936C11.9037 17.2933 11.8145 17.2747 11.7313 17.239C11.6482 17.2032 11.5728 17.151 11.5095 17.0854C11.4462 17.0197 11.3962 16.9418 11.3625 16.8563C11.3288 16.7708 11.312 16.6794 11.313 16.5872V12.9C11.313 12.5079 11.6151 12.1943 11.9939 12.1943C12.3727 12.1943 12.6748 12.5079 12.6748 12.9V16.5872ZM16.2333 16.5872C16.2333 16.9792 15.9304 17.2936 15.5524 17.2936C15.4622 17.2934 15.3729 17.2749 15.2896 17.2392C15.2064 17.2035 15.1309 17.1513 15.0676 17.0856C15.0042 17.02 14.9542 16.9421 14.9204 16.8565C14.8866 16.771 14.8697 16.6794 14.8708 16.5872V12.9C14.8708 12.5079 15.1737 12.1943 15.5517 12.1943C15.9304 12.1943 16.2325 12.5079 16.2325 12.9V16.588L16.2333 16.5872Z" fill="#2B2B2B"/>
</svg>
