<svg width="24" height="24" viewBox="0 0 24 24" fill="none" xmlns="http://www.w3.org/2000/svg">
<path fill-rule="evenodd" clip-rule="evenodd" d="M11.6448 3.21247C11.4142 3.08071 11.1311 3.08071 10.9006 3.21247L5.98259 6.02274H4C3.58579 6.02274 3.25 6.35853 3.25 6.77274V16.9546C3.25 17.3688 3.58579 17.7046 4 17.7046H12C12.4142 17.7046 12.75 17.3688 12.75 16.9546C12.75 16.5403 12.4142 16.2046 12 16.2046H4.75V7.52274H6.16866C6.17785 7.52291 6.18706 7.52291 6.19627 7.52274H16.3491C16.3583 7.52291 16.3675 7.52291 16.3767 7.52274H17.7955V8.99958C17.5675 8.95512 17.332 8.93183 17.091 8.93183C15.0701 8.93183 13.4319 10.5701 13.4319 12.5909C13.4319 13.4121 13.7024 14.1701 14.1592 14.7807V19.1364C14.1592 19.3775 14.2751 19.6038 14.4706 19.7448C14.6662 19.8858 14.9176 19.9241 15.1464 19.8479L17.091 19.1997L19.0356 19.8479C19.2644 19.9241 19.5158 19.8858 19.7113 19.7448C19.9069 19.6038 20.0228 19.3775 20.0228 19.1364V14.7806C20.4796 14.1701 20.7501 13.4121 20.7501 12.5909C20.7501 11.3979 20.1791 10.3382 19.2955 9.67018V6.77274C19.2955 6.35853 18.9597 6.02274 18.5455 6.02274H16.5628L11.6448 3.21247ZM18.1486 10.7081C18.1629 10.7171 18.1776 10.7256 18.1926 10.7336C18.8258 11.11 19.2501 11.8009 19.2501 12.5909C19.2501 13.7834 18.2834 14.75 17.091 14.75C15.8985 14.75 14.9319 13.7834 14.9319 12.5909C14.9319 11.3985 15.8985 10.4318 17.091 10.4318C17.4752 10.4318 17.836 10.5322 18.1486 10.7081ZM18.5228 15.9593C18.083 16.1464 17.5991 16.25 17.091 16.25C16.5829 16.25 16.099 16.1464 15.6592 15.9593V18.0958L16.8538 17.6976C17.0078 17.6463 17.1742 17.6463 17.3282 17.6976L18.5228 18.0958V15.9593ZM13.5394 6.02274L11.2727 4.72746L9.00594 6.02274H13.5394Z" fill="#2B2B2B"/>
<path d="M6.15918 10.4091C6.15918 9.99489 6.49497 9.6591 6.90918 9.6591H12.0001C12.4143 9.6591 12.7501 9.99489 12.7501 10.4091C12.7501 10.8233 12.4143 11.1591 12.0001 11.1591H6.90918C6.49497 11.1591 6.15918 10.8233 6.15918 10.4091Z" fill="#2B2B2B"/>
<path d="M6.90918 12.5682C6.49497 12.5682 6.15918 12.904 6.15918 13.3182C6.15918 13.7324 6.49497 14.0682 6.90918 14.0682H9.81827C10.2325 14.0682 10.5683 13.7324 10.5683 13.3182C10.5683 12.904 10.2325 12.5682 9.81827 12.5682H6.90918Z" fill="#2B2B2B"/>
</svg>
