<?xml version="1.0" encoding="UTF-8"?>
<svg width="24px" height="24px" viewBox="0 0 24 24" version="1.1" xmlns="http://www.w3.org/2000/svg" xmlns:xlink="http://www.w3.org/1999/xlink">
    <title>channel</title>
    <g stroke="none" stroke-width="1" fill="none" fill-rule="evenodd">
        <g transform="translate(3.000000, 3.000000)">
            <rect x="0" y="0" width="18" height="18"></rect>
            <g stroke-linecap="square" transform="translate(0.750000, 0.750000)" fill="#414851" fill-rule="nonzero">
                <polygon points="9 6 9 9.3785988 5.54538922 11.9284306 4.65461078 10.7215694 7.5 8.62 7.5 6"></polygon>
                <polygon points="8.69538922 8.39656944 11.8453892 10.7215694 10.9546108 11.9284306 7.80461078 9.60343056"></polygon>
                <path d="M8.25,-0.75 C6.17893219,-0.75 4.5,0.928932188 4.5,3 C4.5,5.07106781 6.17893219,6.75 8.25,6.75 C10.3210678,6.75 12,5.07106781 12,3 C12,0.928932188 10.3210678,-0.75 8.25,-0.75 Z M8.25,0.75 C9.49264069,0.75 10.5,1.75735931 10.5,3 C10.5,4.24264069 9.49264069,5.25 8.25,5.25 C7.00735931,5.25 6,4.24264069 6,3 C6,1.75735931 7.00735931,0.75 8.25,0.75 Z"></path>
                <path d="M3,9.75 C0.928932188,9.75 -0.75,11.4289322 -0.75,13.5 C-0.75,15.5710678 0.928932188,17.25 3,17.25 C5.07106781,17.25 6.75,15.5710678 6.75,13.5 C6.75,11.4289322 5.07106781,9.75 3,9.75 Z M3,11.25 C4.24264069,11.25 5.25,12.2573593 5.25,13.5 C5.25,14.7426407 4.24264069,15.75 3,15.75 C1.75735931,15.75 0.75,14.7426407 0.75,13.5 C0.75,12.2573593 1.75735931,11.25 3,11.25 Z"></path>
                <path d="M13.5,9.75 C11.4289322,9.75 9.75,11.4289322 9.75,13.5 C9.75,15.5710678 11.4289322,17.25 13.5,17.25 C15.5710678,17.25 17.25,15.5710678 17.25,13.5 C17.25,11.4289322 15.5710678,9.75 13.5,9.75 Z M13.5,11.25 C14.7426407,11.25 15.75,12.2573593 15.75,13.5 C15.75,14.7426407 14.7426407,15.75 13.5,15.75 C12.2573593,15.75 11.25,14.7426407 11.25,13.5 C11.25,12.2573593 12.2573593,11.25 13.5,11.25 Z"></path>
            </g>
        </g>
    </g>
</svg>
