<?xml version="1.0" encoding="UTF-8"?>
<svg width="24" height="24" viewBox="0 0 24 24" fill="none" xmlns="http://www.w3.org/2000/svg">
<path d="M14.1819 3.25C13.7677 3.25 13.4319 3.58579 13.4319 4C13.4319 4.41421 13.7677 4.75 14.1819 4.75H16.0076L12 8.75752L9.62128 6.37876C9.48063 6.23811 9.28987 6.15909 9.09095 6.15909C8.89204 6.15909 8.70128 6.23811 8.56062 6.37876L4.92426 10.0151C4.63137 10.308 4.63137 10.7829 4.92426 11.0758C5.21715 11.3687 5.69203 11.3687 5.98492 11.0758L9.09095 7.96975L11.4697 10.3485C11.6104 10.4892 11.8011 10.5682 12 10.5682C12.199 10.5682 12.3897 10.4892 12.5304 10.3485L17.0682 5.81064V7.63636C17.0682 8.05058 17.404 8.38636 17.8182 8.38636C18.2325 8.38636 18.5682 8.05058 18.5682 7.63636V4C18.5682 3.88858 18.544 3.78284 18.5004 3.68778C18.4707 3.62285 18.4312 3.56128 18.382 3.5053C18.361 3.48139 18.3385 3.45882 18.3146 3.43775C18.2541 3.38419 18.1869 3.34209 18.116 3.31145C18.0248 3.27191 17.9241 3.25 17.8182 3.25H14.1819Z" fill="#2B2B2B"/>
<path fill-rule="evenodd" clip-rule="evenodd" d="M17.0908 9.79544C16.6766 9.79544 16.3408 10.1312 16.3408 10.5454V20C16.3408 20.4142 16.6766 20.75 17.0908 20.75H19.9999C20.4141 20.75 20.7499 20.4142 20.7499 20V10.5454C20.7499 10.1312 20.4141 9.79544 19.9999 9.79544H17.0908ZM17.8408 19.25V11.2954H19.2499V19.25H17.8408Z" fill="#2B2B2B"/>
<path fill-rule="evenodd" clip-rule="evenodd" d="M9.79541 13.4546C9.79541 13.0403 10.1312 12.7046 10.5454 12.7046H13.4545C13.8687 12.7046 14.2045 13.0403 14.2045 13.4546V20C14.2045 20.4142 13.8687 20.75 13.4545 20.75H10.5454C10.1312 20.75 9.79541 20.4142 9.79541 20V13.4546ZM11.2954 14.2046V19.25H12.7045V14.2046H11.2954Z" fill="#2B2B2B"/>
<path fill-rule="evenodd" clip-rule="evenodd" d="M3.25 16.3636C3.25 15.9494 3.58579 15.6136 4 15.6136H6.90909C7.3233 15.6136 7.65909 15.9494 7.65909 16.3636V20C7.65909 20.4142 7.3233 20.75 6.90909 20.75H4C3.58579 20.75 3.25 20.4142 3.25 20V16.3636ZM4.75 17.1136V19.25H6.15909V17.1136H4.75Z" fill="#2B2B2B"/>
</svg>
