<svg width="24" height="24" viewBox="0 0 24 24" fill="none" xmlns="http://www.w3.org/2000/svg">
<path fill-rule="evenodd" clip-rule="evenodd" d="M15.3409 12C15.3409 11.5858 15.6767 11.25 16.0909 11.25H21C21.4142 11.25 21.75 11.5858 21.75 12C21.75 12.4142 21.4142 12.75 21 12.75H16.0909C15.6767 12.75 15.3409 12.4142 15.3409 12Z" fill="#8B8E92"/>
<path fill-rule="evenodd" clip-rule="evenodd" d="M12 2.25C12.4142 2.25 12.75 2.58579 12.75 3V7.90909C12.75 8.3233 12.4142 8.65909 12 8.65909C11.5858 8.65909 11.25 8.3233 11.25 7.90909V3C11.25 2.58579 11.5858 2.25 12 2.25Z" fill="#8B8E92"/>
<path fill-rule="evenodd" clip-rule="evenodd" d="M9.52135 14.2705C9.80373 14.5736 9.78698 15.0481 9.48394 15.3305L5.88394 18.6851C5.5809 18.9674 5.10632 18.9507 4.82394 18.6477C4.54156 18.3446 4.55831 17.87 4.86135 17.5877L8.46135 14.2331C8.7644 13.9507 9.23897 13.9675 9.52135 14.2705Z" fill="#8B8E92"/>
<path fill-rule="evenodd" clip-rule="evenodd" d="M12 3.75C7.44365 3.75 3.75 7.44365 3.75 12C3.75 16.5563 7.44365 20.25 12 20.25C16.5563 20.25 20.25 16.5563 20.25 12C20.25 7.44365 16.5563 3.75 12 3.75ZM2.25 12C2.25 6.61522 6.61522 2.25 12 2.25C17.3848 2.25 21.75 6.61522 21.75 12C21.75 17.3848 17.3848 21.75 12 21.75C6.61522 21.75 2.25 17.3848 2.25 12Z" fill="#8B8E92"/>
<path fill-rule="evenodd" clip-rule="evenodd" d="M12 8.65909C10.1549 8.65909 8.65909 10.1549 8.65909 12C8.65909 13.8451 10.1549 15.3409 12 15.3409C13.8451 15.3409 15.3409 13.8451 15.3409 12C15.3409 10.1549 13.8451 8.65909 12 8.65909ZM7.15909 12C7.15909 9.32644 9.32644 7.15909 12 7.15909C14.6736 7.15909 16.8409 9.32644 16.8409 12C16.8409 14.6736 14.6736 16.8409 12 16.8409C9.32644 16.8409 7.15909 14.6736 7.15909 12Z" fill="#8B8E92"/>
</svg>
