<?xml version="1.0" encoding="UTF-8"?>
<svg width="24px" height="24px" viewBox="0 0 24 24" version="1.1" xmlns="http://www.w3.org/2000/svg" xmlns:xlink="http://www.w3.org/1999/xlink">
    <title>chat-bubbles</title>
    <g stroke="none" stroke-width="1" fill="none" fill-rule="evenodd">
        <g fill="#414851" fill-rule="nonzero">
            <path d="M20.25,5.915 C20.6756841,5.915 21.0269692,6.23354013 21.0784942,6.64525937 L21.085,6.75 L21.085,15 C21.085,16.2358522 20.1248879,17.2474582 18.9098684,17.3296131 L18.75,17.335 L18.085,17.335 L18.085,19.5 C18.085,20.1298601 17.4220202,20.5196683 16.8808936,20.2493949 L16.7868253,20.194762 L12.497,17.335 L12,17.335 C11.5743159,17.335 11.2230308,17.0164599 11.1715058,16.6047406 L11.165,16.5 C11.165,16.0743159 11.4835401,15.7230308 11.8952594,15.6715058 L12,15.665 L12.75,15.665 C12.8736374,15.665 12.9952,15.6924476 13.1061198,15.7447486 L13.2131747,15.805238 L16.415,17.94 L16.415,16.5 C16.415,16.0743159 16.7335401,15.7230308 17.1452594,15.6715058 L17.25,15.665 L18.75,15.665 C19.0838812,15.665 19.3602925,15.4189416 19.4077897,15.0982688 L19.415,15 L19.415,6.75 C19.415,6.28884223 19.7888422,5.915 20.25,5.915 Z M15.75,3.665 C17.0395849,3.665 18.085,4.71041511 18.085,6 L18.085,6 L18.085,12 C18.085,13.2895849 17.0395849,14.335 15.75,14.335 L15.75,14.335 L12.267,14.335 L7.23533389,17.9294674 C6.71337706,18.3022938 5.99963346,17.9706238 5.92193959,17.360477 L5.92193959,17.360477 L5.915,17.25 L5.915,14.335 L5.25,14.335 C4.01414781,14.335 3.00254183,13.3748879 2.92038691,12.1598684 L2.92038691,12.1598684 L2.915,12 L2.915,6 C2.915,4.71041511 3.96041511,3.665 5.25,3.665 L5.25,3.665 Z M15.75,5.335 L5.25,5.335 C4.88273064,5.335 4.585,5.63273064 4.585,6 L4.585,6 L4.585,12 C4.585,12.3672694 4.88273064,12.665 5.25,12.665 L5.25,12.665 L6.75,12.665 C7.21115777,12.665 7.585,13.0388422 7.585,13.5 L7.585,13.5 L7.585,15.626 L11.5146661,12.8205326 C11.6279594,12.7396088 11.7592159,12.6886222 11.8962917,12.6714645 L11.8962917,12.6714645 L12,12.665 L15.75,12.665 C16.1172694,12.665 16.415,12.3672694 16.415,12 L16.415,12 L16.415,6 C16.415,5.63273064 16.1172694,5.335 15.75,5.335 L15.75,5.335 Z"></path>
        </g>
    </g>
</svg>
