<?xml version="1.0" encoding="UTF-8"?>
<svg width="24" height="24" viewBox="0 0 24 24" fill="none" xmlns="http://www.w3.org/2000/svg">
    <title>checkout-settings</title>
    <path fill-rule="evenodd" clip-rule="evenodd" d="M14.0824 2.34883C14.442 2.14332 14.9001 2.26826 15.1056 2.62789L17.695 7.15909H21C21.4142 7.15909 21.75 7.49487 21.75 7.90909V11.1818C21.75 11.596 21.4142 11.9318 21 11.9318H5.38647V19.4318H11.1819C11.5961 19.4318 11.9319 19.7676 11.9319 20.1818C11.9319 20.596 11.5961 20.9318 11.1819 20.9318H4.63647C4.22226 20.9318 3.88647 20.596 3.88647 20.1818V11.9318H3C2.58579 11.9318 2.25 11.596 2.25 11.1818V7.90909C2.25 7.49487 2.58579 7.15909 3 7.15909H6.30558L8.89437 2.62795C9.09985 2.2683 9.55798 2.14332 9.91764 2.3488C10.2773 2.55428 10.4023 3.01241 10.1968 3.37206L8.03313 7.15909H15.9674L13.8033 3.37212C13.5978 3.01249 13.7227 2.55434 14.0824 2.34883ZM3.75 8.65909H6.72582C6.73539 8.65927 6.74495 8.65927 6.75449 8.65909H20.25V10.4318H3.75V8.65909Z" fill="#2B2B2B"/>
    <path fill-rule="evenodd" clip-rule="evenodd" d="M18.4773 14.4545C18.4773 14.0403 18.1415 13.7045 17.7273 13.7045C17.3131 13.7045 16.9773 14.0403 16.9773 14.4545V15.1186C16.779 15.1755 16.5899 15.2544 16.413 15.3526L15.9429 14.8825C15.65 14.5896 15.1752 14.5896 14.8823 14.8825C14.5894 15.1753 14.5894 15.6502 14.8823 15.9431L15.3524 16.4133C15.2544 16.5901 15.1755 16.779 15.1186 16.9773H14.4546C14.0404 16.9773 13.7046 17.3131 13.7046 17.7273C13.7046 18.1415 14.0404 18.4773 14.4546 18.4773H15.1186C15.1755 18.6755 15.2544 18.8644 15.3524 19.0412L14.8823 19.5114C14.5894 19.8043 14.5894 20.2792 14.8823 20.5721C15.1752 20.865 15.65 20.865 15.9429 20.5721L16.413 20.102C16.5899 20.2001 16.779 20.279 16.9773 20.3359V21C16.9773 21.4142 17.3131 21.75 17.7273 21.75C18.1415 21.75 18.4773 21.4142 18.4773 21V20.3359C18.6755 20.279 18.8645 20.2002 19.0414 20.1021L19.5113 20.5721C19.8042 20.865 20.2791 20.865 20.572 20.5721C20.8649 20.2792 20.8649 19.8043 20.572 19.5114L20.102 19.0415C20.2001 18.8646 20.2791 18.6756 20.336 18.4773H21C21.4142 18.4773 21.75 18.1415 21.75 17.7273C21.75 17.3131 21.4142 16.9773 21 16.9773H20.336C20.2791 16.779 20.2001 16.5899 20.102 16.4131L20.572 15.9431C20.8649 15.6502 20.8649 15.1753 20.572 14.8825C20.2791 14.5896 19.8042 14.5896 19.5113 14.8825L19.0413 15.3524C18.8645 15.2544 18.6755 15.1755 18.4773 15.1186V14.4545ZM16.8691 16.8693L16.8615 16.8768C16.647 17.0951 16.5145 17.3942 16.5137 17.7243L16.5137 17.7273L16.5137 17.7302C16.5145 18.0602 16.6469 18.3593 16.8614 18.5776L16.8691 18.5852L16.8768 18.5931C17.0951 18.8075 17.3941 18.94 17.724 18.9409L17.7273 18.9409L17.7306 18.9409C18.0576 18.94 18.3542 18.8098 18.572 18.5988L18.5851 18.5852L18.5987 18.572C18.8106 18.3535 18.9409 18.0556 18.9409 17.7273L18.9409 17.7221C18.9396 17.3957 18.8094 17.0998 18.5986 16.8824L18.5851 16.8693L18.5721 16.8559C18.3536 16.644 18.0557 16.5136 17.7273 16.5136C17.396 16.5136 17.0957 16.6464 16.8767 16.8616L16.8691 16.8693Z" fill="#2B2B2B"/>
</svg>
