<?xml version="1.0" encoding="UTF-8"?>
<svg width="24" height="24" viewBox="0 0 24 24" fill="none" xmlns="http://www.w3.org/2000/svg">
<path d="M15.8253 9.40156C16.0821 9.05032 16.0523 8.51644 15.7589 8.2091C15.4655 7.90176 15.0196 7.93736 14.7629 8.2886L10.648 13.9187L9.20502 12.1912C8.92935 11.8612 8.48241 11.8612 8.20675 12.1912C7.93108 12.5212 7.93108 13.0563 8.20675 13.3863L10.1832 15.7525C10.3214 15.9179 10.5106 16.0073 10.7058 15.9995C10.9011 15.9917 11.0849 15.8874 11.2136 15.7114L15.8253 9.40156Z" fill="#2B2B2B"/>
<path fill-rule="evenodd" clip-rule="evenodd" d="M12 4C7.58172 4 4 7.58172 4 12C4 16.4183 7.58172 20 12 20C16.4183 20 20 16.4183 20 12C20 7.58172 16.4183 4 12 4ZM5.54839 12C5.54839 8.43687 8.43687 5.54839 12 5.54839C15.5631 5.54839 18.4516 8.43687 18.4516 12C18.4516 15.5631 15.5631 18.4516 12 18.4516C8.43687 18.4516 5.54839 15.5631 5.54839 12Z" fill="#2B2B2B"/>
</svg>
