<?xml version="1.0" encoding="UTF-8"?>
<svg width="24px" height="24px" viewBox="0 0 24 24" version="1.1" xmlns="http://www.w3.org/2000/svg" xmlns:xlink="http://www.w3.org/1999/xlink">
    <title>chevron-double-right</title>
    <g stroke="none" stroke-width="1" fill="none" fill-rule="evenodd">
        <g transform="translate(12.000000, 12.000000) scale(-1, 1) translate(-12.000000, -12.000000) ">
            <rect fill-opacity="0" fill="#FFFFFF" x="0" y="0" width="24" height="24"></rect>
            <polygon fill="#414851" transform="translate(9.000001, 12.000000) rotate(-180.000000) translate(-9.000001, -12.000000) " points="12.000002 11.999624 10.849907 13.161768 7.045811 17 6 15.943848 9.803352 12.106367 9.909125 11.999624 9.803352 11.893633 6 8.055401 7.045811 7 10.849907 10.838232 10.95419 10.944223"></polygon>
            <polygon fill="#414851" transform="translate(15.000001, 12.000000) rotate(-180.000000) translate(-15.000001, -12.000000) " points="18.000002 11.999624 16.849907 13.161768 13.045811 17 12 15.943848 15.803352 12.106367 15.909125 11.999624 15.803352 11.893633 12 8.055401 13.045811 7 16.849907 10.838232 16.95419 10.944223"></polygon>
        </g>
    </g>
</svg>
