<?xml version="1.0" encoding="UTF-8"?>
<svg width="24px" height="24px" viewBox="0 0 24 24" version="1.1" xmlns="http://www.w3.org/2000/svg" xmlns:xlink="http://www.w3.org/1999/xlink">
    <title>chevron-up-down-table</title>
    <g stroke="none" stroke-width="1" fill="none" fill-rule="evenodd">
        <g transform="translate(12.000000, 12.000000) rotate(-90.000000) translate(-12.000000, -12.000000) ">
            <rect fill-opacity="0" fill="#FFFFFF" x="0" y="0" width="24" height="24"></rect>
            <polygon fill="#414851" points="19 11.999624 17.849905 13.161768 14.045809 17 12.999998 15.943848 16.80335 12.106367 16.909123 11.999624 16.80335 11.893633 12.999998 8.055401 14.045809 7 17.849905 10.838232 17.954188 10.944223"></polygon>
            <polygon fill="#414851" transform="translate(7.999999, 12.000000) scale(-1, 1) translate(-7.999999, -12.000000) " points="11 11.999624 9.849905 13.161768 6.045809 17 4.999998 15.943848 8.80335 12.106367 8.909123 11.999624 8.80335 11.893633 4.999998 8.055401 6.045809 7 9.849905 10.838232 9.954188 10.944223"></polygon>
        </g>
    </g>
</svg>
