<svg width="20" height="20" viewBox="0 0 20 20" fill="none" xmlns="http://www.w3.org/2000/svg">
<path fill-rule="evenodd" clip-rule="evenodd" d="M8.63456 3.13322C9.07669 3.04576 9.53332 3 10 3C10.4667 3 10.9233 3.04576 11.3654 3.13322C11.7102 3.20143 11.9344 3.53622 11.8662 3.88099C11.798 4.22576 11.4632 4.44996 11.1184 4.38175C10.7572 4.31029 10.3833 4.27273 10 4.27273C9.61669 4.27273 9.24278 4.31029 8.88156 4.38175C8.53679 4.44996 8.202 4.22576 8.13379 3.88099C8.06559 3.53622 8.28979 3.20143 8.63456 3.13322ZM13.0069 4.3542C13.2025 4.06215 13.5977 3.9839 13.8898 4.17942C14.6528 4.6903 15.3097 5.34716 15.8206 6.11024C16.0161 6.40229 15.9378 6.79754 15.6458 6.99306C15.3538 7.18858 14.9585 7.11033 14.763 6.81828C14.3447 6.19344 13.8066 5.65534 13.1817 5.23702C12.8897 5.0415 12.8114 4.64625 13.0069 4.3542ZM6.99306 4.3542C7.18858 4.64625 7.11033 5.0415 6.81828 5.23702C6.19344 5.65534 5.65534 6.19344 5.23702 6.81829C5.0415 7.11033 4.64625 7.18858 4.3542 6.99306C4.06215 6.79754 3.9839 6.40229 4.17942 6.11024C4.6903 5.34716 5.34716 4.6903 6.11024 4.17942C6.40229 3.9839 6.79754 4.06215 6.99306 4.3542ZM3.88099 8.13379C4.22576 8.202 4.44996 8.53679 4.38175 8.88156C4.31029 9.24278 4.27273 9.61669 4.27273 10C4.27273 10.3833 4.31029 10.7572 4.38175 11.1184C4.44996 11.4632 4.22576 11.798 3.88099 11.8662C3.53622 11.9344 3.20143 11.7102 3.13322 11.3654C3.04576 10.9233 3 10.4667 3 10C3 9.53332 3.04576 9.07669 3.13322 8.63456C3.20143 8.28979 3.53622 8.06559 3.88099 8.13379ZM16.119 8.13379C16.4638 8.06559 16.7986 8.28979 16.8668 8.63456C16.9542 9.07669 17 9.53332 17 10C17 10.4667 16.9542 10.9233 16.8668 11.3654C16.7986 11.7102 16.4638 11.9344 16.119 11.8662C15.7742 11.798 15.55 11.4632 15.6182 11.1184C15.6897 10.7572 15.7273 10.3833 15.7273 10C15.7273 9.61669 15.6897 9.24278 15.6182 8.88156C15.55 8.53679 15.7742 8.202 16.119 8.13379ZM4.3542 13.0069C4.64625 12.8114 5.0415 12.8897 5.23702 13.1817C5.65534 13.8066 6.19344 14.3447 6.81829 14.763C7.11033 14.9585 7.18858 15.3538 6.99306 15.6458C6.79754 15.9378 6.40229 16.0161 6.11024 15.8206C5.34716 15.3097 4.6903 14.6528 4.17942 13.8898C3.9839 13.5977 4.06215 13.2025 4.3542 13.0069ZM15.6458 13.0069C15.9378 13.2025 16.0161 13.5977 15.8206 13.8898C15.3097 14.6528 14.6528 15.3097 13.8898 15.8206C13.5977 16.0161 13.2025 15.9378 13.0069 15.6458C12.8114 15.3538 12.8897 14.9585 13.1817 14.763C13.8066 14.3447 14.3447 13.8066 14.763 13.1817C14.9585 12.8897 15.3538 12.8114 15.6458 13.0069ZM8.13379 16.119C8.202 15.7742 8.53679 15.55 8.88156 15.6182C9.24278 15.6897 9.61669 15.7273 10 15.7273C10.3833 15.7273 10.7572 15.6897 11.1184 15.6182C11.4632 15.55 11.798 15.7742 11.8662 16.119C11.9344 16.4638 11.7102 16.7986 11.3654 16.8668C10.9233 16.9542 10.4667 17 10 17C9.53332 17 9.07669 16.9542 8.63456 16.8668C8.28979 16.7986 8.06559 16.4638 8.13379 16.119Z" fill="#8B8E92" stroke="#8B8E92" stroke-width="0.3" stroke-linecap="round"/>
</svg>
