<?xml version="1.0" encoding="UTF-8"?>
<svg width="24px" height="24px" viewBox="0 0 24 24" version="1.1" xmlns="http://www.w3.org/2000/svg" xmlns:xlink="http://www.w3.org/1999/xlink">
    <title>cloud</title>
    <g stroke="none" stroke-width="1" fill="none" fill-rule="evenodd">
        <g transform="translate(3.000000, 3.000000)">
            <rect x="0" y="0" width="18" height="18"></rect>
            <g stroke-linecap="round" stroke-linejoin="round">
                <polygon points="0 0 18 0 18 18 0 18"></polygon>
                <path d="M5.03708607,14.2449721 C2.77960765,14.1381242 0.971590909,12.3415487 0.971590909,10.125 C0.971590909,8.04698559 2.56066812,6.33808829 4.61940768,6.04455336 L4.682,6.036 L4.71415181,5.95050519 C5.20197153,4.71934584 6.25047099,3.73837046 7.59095154,3.26598656 L7.81702242,3.1920094 C9.47530534,2.69035722 11.3035321,3.02276208 12.6255745,4.07252774 C13.6811094,4.91067349 14.2899343,6.10864452 14.3312826,7.36272122 L14.332,7.502 L14.4351768,7.50499391 C16.1517131,7.59781313 17.5271869,8.97328687 17.620006,10.6898232 L17.6249999,10.875 C17.6249999,12.676829 16.213018,14.1488719 14.4351768,14.2450061 L14.25,14.25 L5.25,14.25 L5.03708607,14.2449721 Z M11.6928012,5.24723364 C10.7600061,4.50654918 9.44335054,4.26715727 8.25135325,4.62775197 C7.0780763,4.98268353 6.21855687,5.85946982 5.98179077,6.9142628 C5.90493253,7.25666628 5.60092355,7.5 5.25,7.5 C3.7082526,7.5 2.47159091,8.68289379 2.47159091,10.125 C2.47159091,11.5116406 3.61495416,12.6586247 5.073513,12.744803 L5.249,12.75 L14.25,12.75 C15.2362227,12.75 16.0446062,11.9885795 16.1193588,11.0215301 L16.1249999,10.875 C16.1249999,9.88877725 15.3635795,9.08039377 14.3965301,9.00564118 L14.25,9 L13.5,9 C13.0195313,9 12.6629784,8.5545406 12.7682092,8.0857372 C13.0017406,7.04535472 12.5988997,5.96671974 11.6928012,5.24723364 Z" fill="#414851" fill-rule="nonzero"></path>
            </g>
        </g>
    </g>
</svg>
