<?xml version="1.0" encoding="UTF-8"?>
<svg width="24" height="24" viewBox="0 0 24 24" fill="none" xmlns="http://www.w3.org/2000/svg">
<path d="M19.5 5.75C19.5 5.05964 18.9404 4.5 18.25 4.5H5.75C5.05964 4.5 4.5 5.05964 4.5 5.75V18.25C4.5 18.9404 5.05964 19.5 5.75 19.5H18.25C18.9404 19.5 19.5 18.9404 19.5 18.25V5.75ZM9.71973 8.46973C10.0126 8.17683 10.4874 8.17683 10.7803 8.46973C11.0732 8.76262 11.0732 9.23738 10.7803 9.53027L8.4873 11.8232C8.38977 11.9208 8.38977 12.0792 8.4873 12.1768L10.7803 14.4697C11.0732 14.7626 11.0732 15.2374 10.7803 15.5303C10.4874 15.8232 10.0126 15.8232 9.71973 15.5303L7.42676 13.2373C6.74343 12.5539 6.74343 11.4461 7.42676 10.7627L9.71973 8.46973ZM13.2197 8.46973C13.5126 8.17683 13.9874 8.17683 14.2803 8.46973L16.5732 10.7627C17.2565 11.4461 17.2565 12.5539 16.5732 13.2373L14.2803 15.5303C13.9874 15.8232 13.5126 15.8232 13.2197 15.5303C12.9268 15.2374 12.9268 14.7626 13.2197 14.4697L15.5127 12.1768C15.6102 12.0792 15.6102 11.9208 15.5127 11.8232L13.2197 9.53027C12.9268 9.23738 12.9268 8.76262 13.2197 8.46973ZM21 18.25C21 19.7688 19.7688 21 18.25 21H5.75C4.23122 21 3 19.7688 3 18.25V5.75C3 4.23122 4.23122 3 5.75 3H18.25C19.7688 3 21 4.23122 21 5.75V18.25Z" fill="#2B2B2B"/>
</svg>
