<?xml version="1.0" encoding="UTF-8"?>
<svg width="24px" height="24px" viewBox="0 0 24 24" version="1.1" xmlns="http://www.w3.org/2000/svg" xmlns:xlink="http://www.w3.org/1999/xlink">
    <title>coffee</title>
    <g stroke="none" stroke-width="1" fill="none" fill-rule="evenodd">
        <g transform="translate(3.000000, 3.000000)">
            <rect x="0" y="0" width="18" height="18"></rect>
            <g stroke-linecap="square" transform="translate(1.500000, 0.750000)" fill="#414851" fill-rule="nonzero">
                <path d="M6,-0.75 C6.37969577,-0.75 6.69349096,-0.467846118 6.74315338,-0.101770557 L6.75,0 L6.75,2.5 C6.75,2.91421356 6.41421356,3.25 6,3.25 C5.62030423,3.25 5.30650904,2.96784612 5.25684662,2.60177056 L5.25,2.5 L5.25,0 C5.25,-0.414213562 5.58578644,-0.75 6,-0.75 Z"></path>
                <path d="M2.25,-0.75 C2.62969577,-0.75 2.94349096,-0.467846118 2.99315338,-0.101770557 L3,0 L3,2.5 C3,2.91421356 2.66421356,3.25 2.25,3.25 C1.87030423,3.25 1.55650904,2.96784612 1.50684662,2.60177056 L1.5,2.5 L1.5,0 C1.5,-0.414213562 1.83578644,-0.75 2.25,-0.75 Z"></path>
                <path d="M9.75,-0.75 C10.1296958,-0.75 10.443491,-0.467846118 10.4931534,-0.101770557 L10.5,0 L10.5,2.5 C10.5,2.91421356 10.1642136,3.25 9.75,3.25 C9.37030423,3.25 9.05650904,2.96784612 9.00684662,2.60177056 L9,2.5 L9,0 C9,-0.414213562 9.33578644,-0.75 9.75,-0.75 Z"></path>
                <path d="M12,4.75 L0,4.75 C-0.414213562,4.75 -0.75,5.08578644 -0.75,5.5 L-0.75,13 C-0.75,14.8225416 0.962950065,16.25 3,16.25 L9,16.25 C11.0370499,16.25 12.75,14.8225416 12.75,13 L12.75,5.5 C12.75,5.08578644 12.4142136,4.75 12,4.75 Z M0.75,6.25 L11.25,6.25 L11.25,13 C11.25,13.9274584 10.2629501,14.75 9,14.75 L3,14.75 L2.82955645,14.744969 C1.64935748,14.6750067 0.75,13.8853012 0.75,13 L0.75,6.25 Z"></path>
                <path d="M13.75,4.75 L12,4.75 C11.5857864,4.75 11.25,5.08578644 11.25,5.5 L11.25,10 C11.25,10.4142136 11.5857864,10.75 12,10.75 L13.75,10.75 C15.4068542,10.75 16.75,9.40685425 16.75,7.75 C16.75,6.09314575 15.4068542,4.75 13.75,4.75 Z M12.75,9.25 L12.75,6.25 L13.75,6.25 C14.5784271,6.25 15.25,6.92157288 15.25,7.75 C15.25,8.57842712 14.5784271,9.25 13.75,9.25 L12.75,9.25 Z"></path>
            </g>
        </g>
    </g>
</svg>
