<?xml version="1.0" encoding="UTF-8"?>
<svg width="24px" height="24px" viewBox="0 0 24 24" version="1.1" xmlns="http://www.w3.org/2000/svg" xmlns:xlink="http://www.w3.org/1999/xlink">
    <title>column-settings</title>
    <g stroke="none" stroke-width="1" fill="none" fill-rule="evenodd">
        <g transform="translate(2.000000, 2.000000)" fill="#414851" fill-rule="nonzero">
            <path d="M15.8374,10.8333 C16.1824,10.8335 16.4624,11.1133 16.4624,11.4583 V11.8172 C16.8837,11.9291 17.2603,12.1512 17.5586,12.4503 L17.8703,12.2713 C18.1691,12.099 18.5514,12.2013 18.724,12.5 C18.8964,12.7988 18.7939,13.181 18.4953,13.3537 L18.1836,13.5327 C18.2382,13.7351 18.2682,13.9476 18.2682,14.1666 C18.2682,14.3854 18.2381,14.5976 18.1836,14.7998 L18.4953,14.9796 C18.7939,15.1523 18.8964,15.5345 18.724,15.8333 C18.5514,16.132 18.1691,16.2343 17.8703,16.062 L17.5586,15.8821 C17.2602,16.1814 16.8838,16.4033 16.4624,16.5153 V16.875 C16.4624,17.22 16.1824,17.4998 15.8374,17.5 C15.4923,17.4999 15.2124,17.2201 15.2124,16.875 V16.5153 C14.7908,16.4033 14.4146,16.1808 14.1162,15.8813 L13.8045,16.062 C13.5057,16.2345 13.1235,16.1321 12.9508,15.8333 C12.7783,15.5344 12.8807,15.1523 13.1795,14.9796 L13.4912,14.7998 C13.4367,14.5976 13.4074,14.3854 13.4074,14.1666 C13.4074,13.9477 13.4366,13.7351 13.4912,13.5327 L13.1795,13.3537 C12.8806,13.1811 12.7783,12.7989 12.9508,12.5 C13.1235,12.2012 13.5057,12.0988 13.8045,12.2713 L14.1162,12.4512 C14.4146,12.1518 14.7909,11.9291 15.2124,11.8172 V11.4583 C15.2124,11.1132 15.4923,10.8334 15.8374,10.8333 Z M15.8374,12.9858 C15.4014,12.9859 15.0195,13.2224 14.8145,13.5766 C14.7143,13.7497 14.6574,13.9506 14.6574,14.1666 C14.6574,14.3827 14.7143,14.5836 14.8145,14.7567 C15.0196,15.111 15.4015,15.3474 15.8374,15.3475 C16.2733,15.3473 16.6552,15.111 16.8604,14.7567 C16.9604,14.5836 17.0182,14.3826 17.0182,14.1666 C17.0182,13.9507 16.9604,13.7496 16.8604,13.5766 C16.6552,13.2223 16.2733,12.986 15.8374,12.9858 Z"></path>
            <path d="M16.25,8.54165 V5.62498 C16.25,5.04968 15.7837,4.58331 15.2083,4.58331 H10.625 V16.0416 C10.625,16.3868 10.3452,16.6666 10,16.6666 H4.79167 C3.52602,16.6666 2.5,15.6406 2.5,14.375 V5.62498 C2.5,4.35933 3.52602,3.33331 4.79167,3.33331 H15.2083 C16.474,3.33331 17.5,4.35933 17.5,5.62498 V8.54165 C17.5,8.88681 17.2202,9.16665 16.875,9.16665 C16.5298,9.16665 16.25,8.88681 16.25,8.54165 Z M3.75,14.375 C3.75,14.9503 4.21637,15.4166 4.79167,15.4166 H9.375 V4.58331 H4.79167 C4.21637,4.58331 3.75,5.04968 3.75,5.62498 V14.375 Z"></path>
        </g>
    </g>
</svg>
