<?xml version="1.0" encoding="UTF-8"?>
<svg width="24px" height="24px" viewBox="0 0 24 24" version="1.1" xmlns="http://www.w3.org/2000/svg" xmlns:xlink="http://www.w3.org/1999/xlink">
    <title>connection-multi</title>
    <g stroke="none" stroke-width="1" fill="none" fill-rule="evenodd">
        <g fill="#414851" fill-rule="nonzero">
            <path d="M12,1.25 C13.5187831,1.25 14.75,2.48121694 14.75,4 C14.75,5.25857578 13.9045229,6.31967982 12.7505538,6.64632705 L12.7505323,8.32512168 C13.5676601,8.49111377 14.2882759,8.92280687 14.8182634,9.52608473 L16.3299847,8.66110976 C16.2777245,8.44934098 16.25,8.22790819 16.25,8 C16.25,6.48121694 17.4812169,5.25 19,5.25 C20.5187831,5.25 21.75,6.48121694 21.75,8 C21.75,9.51878306 20.5187831,10.75 19,10.75 C18.2504904,10.75 17.5710135,10.4501546 17.0749804,9.9638748 L15.5634226,10.8286195 C15.6845025,11.1971719 15.75,11.590937 15.75,12 C15.75,12.409063 15.6845025,12.8028281 15.5634226,13.1713805 L17.0749804,14.0361252 C17.5710135,13.5498454 18.2504904,13.25 19,13.25 C20.5187831,13.25 21.75,14.4812169 21.75,16 C21.75,17.5187831 20.5187831,18.75 19,18.75 C17.4812169,18.75 16.25,17.5187831 16.25,16 C16.25,15.7717289 16.2778128,15.5499538 16.3302346,15.3378787 L14.8182634,14.4739153 C14.2882759,15.0771931 13.5676601,15.5088862 12.7505323,15.6748783 L12.7505538,17.353673 C13.9045229,17.6803202 14.75,18.7414242 14.75,20 C14.75,21.5187831 13.5187831,22.75 12,22.75 C10.4812169,22.75 9.25,21.5187831 9.25,20 C9.25,18.7410613 10.0959647,17.6797083 11.2504445,17.3533906 L11.2504629,15.6750804 C10.432925,15.5092367 9.71193926,15.077438 9.18173662,14.4739153 L7.66976544,15.3378787 C7.72218718,15.5499538 7.75,15.7717289 7.75,16 C7.75,17.5187831 6.51878306,18.75 5,18.75 C3.48121694,18.75 2.25,17.5187831 2.25,16 C2.25,14.4812169 3.48121694,13.25 5,13.25 C5.74950956,13.25 6.42898646,13.5498454 6.9250196,14.0361252 L8.436909,13.1723892 C8.31561709,12.8035467 8.25,12.4094362 8.25,12 C8.25,11.590937 8.31549751,11.1971719 8.43657743,10.8286195 L6.9250196,9.9638748 C6.42898646,10.4501546 5.74950956,10.75 5,10.75 C3.48121694,10.75 2.25,9.51878306 2.25,8 C2.25,6.48121694 3.48121694,5.25 5,5.25 C6.51878306,5.25 7.75,6.48121694 7.75,8 C7.75,8.22790819 7.72227555,8.44934098 7.67001528,8.66110976 L9.18262551,9.52507328 C9.71274495,8.92207952 10.4333818,8.49067063 11.2504629,8.32491964 L11.2504445,6.64660943 C10.0959647,6.32029174 9.25,5.2589387 9.25,4 C9.25,2.48121694 10.4812169,1.25 12,1.25 Z M12,18.75 C11.3096441,18.75 10.75,19.3096441 10.75,20 C10.75,20.6903559 11.3096441,21.25 12,21.25 C12.6903559,21.25 13.25,20.6903559 13.25,20 C13.25,19.3096441 12.6903559,18.75 12,18.75 Z M19,14.75 C18.3096441,14.75 17.75,15.3096441 17.75,16 C17.75,16.6903559 18.3096441,17.25 19,17.25 C19.6903559,17.25 20.25,16.6903559 20.25,16 C20.25,15.3096441 19.6903559,14.75 19,14.75 Z M5,14.75 C4.30964406,14.75 3.75,15.3096441 3.75,16 C3.75,16.6903559 4.30964406,17.25 5,17.25 C5.69035594,17.25 6.25,16.6903559 6.25,16 C6.25,15.3096441 5.69035594,14.75 5,14.75 Z M12,9.75 C10.7573593,9.75 9.75,10.7573593 9.75,12 C9.75,13.2426407 10.7573593,14.25 12,14.25 C13.2426407,14.25 14.25,13.2426407 14.25,12 C14.25,10.7573593 13.2426407,9.75 12,9.75 Z M19,6.75 C18.3096441,6.75 17.75,7.30964406 17.75,8 C17.75,8.69035594 18.3096441,9.25 19,9.25 C19.6903559,9.25 20.25,8.69035594 20.25,8 C20.25,7.30964406 19.6903559,6.75 19,6.75 Z M5,6.75 C4.30964406,6.75 3.75,7.30964406 3.75,8 C3.75,8.69035594 4.30964406,9.25 5,9.25 C5.69035594,9.25 6.25,8.69035594 6.25,8 C6.25,7.30964406 5.69035594,6.75 5,6.75 Z M12,2.75 C11.3096441,2.75 10.75,3.30964406 10.75,4 C10.75,4.69035594 11.3096441,5.25 12,5.25 C12.6903559,5.25 13.25,4.69035594 13.25,4 C13.25,3.30964406 12.6903559,2.75 12,2.75 Z"></path>
        </g>
    </g>
</svg>
