<?xml version="1.0" encoding="UTF-8"?>
<svg width="24" height="24" viewBox="0 0 24 24" fill="none" xmlns="http://www.w3.org/2000/svg">
<path fill-rule="evenodd" clip-rule="evenodd" d="M11.6141 5.13465C11.8516 4.99214 12.1483 4.99214 12.3858 5.13465L16.2747 7.46798C16.5006 7.60353 16.6389 7.84766 16.6389 8.1111V8.88888C16.6389 9.3031 16.3031 9.63888 15.8889 9.63888H15.8611V12C15.8611 12.4142 15.5253 12.75 15.1111 12.75C14.6969 12.75 14.3611 12.4142 14.3611 12V9.63888H12.75V12C12.75 12.4142 12.4142 12.75 12 12.75C11.5858 12.75 11.25 12.4142 11.25 12V9.63888H9.63892V12C9.63892 12.4142 9.30313 12.75 8.88892 12.75C8.4747 12.75 8.13892 12.4142 8.13892 12V9.63888H8.11108C7.69687 9.63888 7.36108 9.3031 7.36108 8.88888V8.1111C7.36108 7.84766 7.49931 7.60353 7.72521 7.46798L11.6141 5.13465ZM14.4774 8.13888L12 6.65241L9.52253 8.13888H14.4774Z" fill="#2B2B2B"/>
<path d="M7.36108 14.3333C7.36108 13.9191 7.69687 13.5833 8.11108 13.5833H15.8889C16.3031 13.5833 16.6389 13.9191 16.6389 14.3333C16.6389 14.7475 16.3031 15.0833 15.8889 15.0833H8.11108C7.69687 15.0833 7.36108 14.7475 7.36108 14.3333Z" fill="#2B2B2B"/>
<path d="M8.11108 16.6945C7.69687 16.6945 7.36108 17.0302 7.36108 17.4445C7.36108 17.8587 7.69687 18.1945 8.11108 18.1945H12C12.4142 18.1945 12.75 17.8587 12.75 17.4445C12.75 17.0302 12.4142 16.6945 12 16.6945H8.11108Z" fill="#2B2B2B"/>
<path fill-rule="evenodd" clip-rule="evenodd" d="M4.25 3.44446C4.25 3.03024 4.58579 2.69446 5 2.69446H19C19.4142 2.69446 19.75 3.03024 19.75 3.44446V20.5556C19.75 20.9698 19.4142 21.3056 19 21.3056H5C4.58579 21.3056 4.25 20.9698 4.25 20.5556V3.44446ZM5.75 4.19446V19.8056H18.25V4.19446H5.75Z" fill="#2B2B2B"/>
</svg>
