<?xml version="1.0" encoding="UTF-8"?>
<svg width="24px" height="24px" viewBox="0 0 24 24" version="1.1" xmlns="http://www.w3.org/2000/svg" xmlns:xlink="http://www.w3.org/1999/xlink">
    <title>convert</title>
    <g stroke="none" stroke-width="1" fill="none" fill-rule="evenodd">
        <g fill="#414851" fill-rule="nonzero">
            <path d="M21.1666667,13.6666667 C21.626904,13.6666667 22,14.0397627 22,14.5 C22,14.9248344 21.6820957,15.2754183 21.2711982,15.3268405 L21.1666667,15.3333333 L6.512,15.333 L10.922589,19.7440777 C11.2209062,20.0423948 11.2457659,20.5106167 10.9971683,20.8372513 L10.922589,20.922589 C10.6242718,21.2209062 10.15605,21.2457659 9.82941539,20.9971683 L9.74407768,20.922589 L3.91074435,15.0892557 C3.41202217,14.5905335 3.72264067,13.7554969 4.39148228,13.67324 L4.5,13.6666667 L21.1666667,13.6666667 Z M14.1705846,3.00283172 L14.2559223,3.07741102 L20.0892557,8.91074435 C20.5879778,9.40946653 20.2773593,10.2445031 19.6085177,10.32676 L19.5,10.3333333 L2.83333333,10.3333333 C2.37309604,10.3333333 2,9.96023729 2,9.5 C2,9.07516558 2.31790432,8.72458169 2.72880177,8.67315952 L2.83333333,8.66666667 L17.487,8.666 L13.077411,4.25592232 C12.7790938,3.95760515 12.7542341,3.48938334 13.0028317,3.16274873 L13.077411,3.07741102 C13.3757282,2.77909385 13.84395,2.75423408 14.1705846,3.00283172 Z"></path>
        </g>
    </g>
</svg>
