<?xml version="1.0" encoding="UTF-8"?>
<svg width="24px" height="24px" viewBox="0 0 24 24" version="1.1" xmlns="http://www.w3.org/2000/svg" xmlns:xlink="http://www.w3.org/1999/xlink">
    <title>copy</title>
    <g stroke="none" stroke-width="1" fill="none" fill-rule="evenodd">
        <g fill="#414851" fill-rule="nonzero">
            <path d="M9.33257107,8 C8.72597885,8 8.29896544,8 8.05153084,8 C7.46230176,8 6.57845815,8 5.4,8 C4.0745166,8 3,9.0745166 3,10.4 L3,18.6 C3,19.9254834 4.0745166,21 5.4,21 L13.6,21 C14.9254834,21 16,19.9254834 16,18.6 C16,17.1751526 16,16.210587 16,15.706303 C16,15.5002751 16,15.2259753 16,14.8834038 L10.4102001,14.8834038 L9.04686165,14.2827988 L9.33257107,8 Z M14.6,15.2502899 C14.6,15.2230811 14.6,15.2762529 14.6,15.4098053 C14.6,15.9416973 14.6,17.0050955 14.6,18.6 C14.6,19.1522847 14.1522847,19.6 13.6,19.6 L5.4,19.6 C4.84771525,19.6 4.4,19.1522847 4.4,18.6 L4.4,10.4 C4.4,9.84771525 4.84771525,9.4 5.4,9.4 C6.61349063,9.4 7.52360861,9.4 8.13035393,9.4 C8.35105849,9.4 8.42495871,11.0275996 8.3520546,14.2827988 L9.68587303,15.4098053 L12.4462147,15.706303 L14.6,15.2502899 Z"></path>
            <path d="M18.6,3 L10.4,3 C9.0745166,3 8,4.0745166 8,5.4 L8,13.6 C8,14.9254834 9.0745166,16 10.4,16 L18.6,16 C19.9254834,16 21,14.9254834 21,13.6 L21,5.4 C21,4.0745166 19.9254834,3 18.6,3 Z M18.6,4.4 C19.1522847,4.4 19.6,4.84771525 19.6,5.4 L19.6,13.6 C19.6,14.1522847 19.1522847,14.6 18.6,14.6 L10.4,14.6 C9.84771525,14.6 9.4,14.1522847 9.4,13.6 L9.4,5.4 C9.4,4.84771525 9.84771525,4.4 10.4,4.4 L18.6,4.4 Z"></path>
        </g>
    </g>
</svg>
