<?xml version="1.0" encoding="UTF-8"?>
<svg width="24px" height="24px" viewBox="0 0 24 24" version="1.1" xmlns="http://www.w3.org/2000/svg" xmlns:xlink="http://www.w3.org/1999/xlink">
    <title>crown</title>
    <g stroke="none" stroke-width="1" fill="none" fill-rule="evenodd">
        <g fill="#414851" fill-rule="nonzero">
            <path d="M11.4696699,3.96966991 C11.7625631,3.6767767 12.2374369,3.6767767 12.5303301,3.96966991 L12.5303301,3.96966991 L17.0553333,8.495 L20.6981454,5.58101506 C21.1619361,5.2099825 21.8365686,5.50123087 21.9100963,6.06451847 L21.9100963,6.06451847 L21.9166667,6.16666667 L21.9166667,17 C21.9166667,18.3346881 20.8346881,19.4166667 19.5,19.4166667 L19.5,19.4166667 L4.5,19.4166667 C3.16531185,19.4166667 2.08333333,18.3346881 2.08333333,17 L2.08333333,17 L2.08333333,6.16666667 C2.08333333,5.53778701 2.81078211,5.18815705 3.30185462,5.58101506 L3.30185462,5.58101506 L6.94433333,8.495 Z M20.4163333,16.083 L3.58333333,16.083 L3.58333333,17 C3.58333333,17.4309246 3.88068258,17.7923995 4.28139509,17.8904388 L4.3930973,17.9104996 L4.5,17.9166667 L19.5,17.9166667 C20.006261,17.9166667 20.4166667,17.506261 20.4166667,17 L20.4166667,17 L20.4163333,16.083 Z M11.9993333,5.56 L7.53033009,10.0303301 C7.26010081,10.3005594 6.82989703,10.3243863 6.53147871,10.0856516 L6.53147871,10.0856516 L3.58333333,7.726 L3.58333333,14.583 L20.4163333,14.583 L20.4163333,7.726 L17.4685213,10.0856516 C17.1999448,10.3005128 16.8246221,10.3026991 16.5552462,10.1039906 L16.5552462,10.1039906 L16.4696699,10.0303301 L11.9993333,5.56 Z"></path>
        </g>
    </g>
</svg>
