<?xml version="1.0" encoding="UTF-8"?>
<svg width="24px" height="24px" viewBox="0 0 24 24" version="1.1" xmlns="http://www.w3.org/2000/svg" xmlns:xlink="http://www.w3.org/1999/xlink">
    <title>dashboard</title>
    <g stroke="none" stroke-width="1" fill="none" fill-rule="evenodd">
        <g transform="translate(1.000000, 1.000000)">
            <rect x="1" y="1" width="20" height="20"></rect>
            <g stroke-linecap="square" transform="translate(0.833333, 0.833333)" fill="#414851" fill-rule="nonzero">
                <path d="M10.1666667,0.3 C15.6158762,0.3 20.0333333,4.71745714 20.0333333,10.1666667 C20.0333333,15.6158762 15.6158762,20.0333333 10.1666667,20.0333333 C4.71745714,20.0333333 0.3,15.6158762 0.3,10.1666667 C0.3,4.71745714 4.71745714,0.3 10.1666667,0.3 Z M10.1666667,1.7 C5.49065579,1.7 1.7,5.49065579 1.7,10.1666667 C1.7,14.8426775 5.49065579,18.6333333 10.1666667,18.6333333 C14.8426775,18.6333333 18.6333333,14.8426775 18.6333333,10.1666667 C18.6333333,5.49065579 14.8426775,1.7 10.1666667,1.7 Z M6,5.01005051 L9.06268062,8.07272801 C9.39228161,7.89859274 9.76796035,7.8 10.1666667,7.8 C11.4737406,7.8 12.5333333,8.85959276 12.5333333,10.1666667 C12.5333333,11.4737406 11.4737406,12.5333333 10.1666667,12.5333333 C8.85959276,12.5333333 7.8,11.4737406 7.8,10.1666667 C7.8,9.76796035 7.89859274,9.39228161 8.07272801,9.06268062 L5.01005051,6 L6,5.01005051 Z M10.1666667,9.2 C9.92820882,9.2 9.70991724,9.28634203 9.54134963,9.42946839 L9.42946839,9.54134963 C9.28634203,9.70991724 9.2,9.92820882 9.2,10.1666667 C9.2,10.7005419 9.63279141,11.1333333 10.1666667,11.1333333 C10.7005419,11.1333333 11.1333333,10.7005419 11.1333333,10.1666667 C11.1333333,9.63279141 10.7005419,9.2 10.1666667,9.2 Z M16.7,9.46666667 L16.7,10.8666667 L14.4666667,10.8666667 L14.4666667,9.46666667 L16.7,9.46666667 Z M5.86666667,9.46666667 L5.86666667,10.8666667 L3.63333333,10.8666667 L3.63333333,9.46666667 L5.86666667,9.46666667 Z M14.2916667,5.05171717 L15.2816162,6.04166667 L13.7025,7.62078283 L12.7125505,6.63083333 L14.2916667,5.05171717 Z M10.8666667,3.63333333 L10.8666667,5.86666667 L9.46666667,5.86666667 L9.46666667,3.63333333 L10.8666667,3.63333333 Z"></path>
            </g>
        </g>
    </g>
</svg>
