<?xml version="1.0" encoding="UTF-8"?>
<svg width="24px" height="24px" viewBox="0 0 24 24" version="1.1" xmlns="http://www.w3.org/2000/svg" xmlns:xlink="http://www.w3.org/1999/xlink">
    <title>data-table</title>
    <g stroke="none" stroke-width="1" fill="none" fill-rule="evenodd">
        <g fill="#414851" fill-rule="nonzero">
            <path d="M10.5,18.75 C10.9142136,18.75 11.25,19.0857864 11.25,19.5 C11.25,19.8796958 10.9678461,20.193491 10.6017706,20.2431534 L10.5,20.25 L4.5,20.25 C4.08578644,20.25 3.75,19.9142136 3.75,19.5 C3.75,19.1203042 4.03215388,18.806509 4.39822944,18.7568466 L4.5,18.75 L10.5,18.75 Z M19.5,18.75 C19.9142136,18.75 20.25,19.0857864 20.25,19.5 C20.25,19.8796958 19.9678461,20.193491 19.6017706,20.2431534 L19.5,20.25 L13.5,20.25 C13.0857864,20.25 12.75,19.9142136 12.75,19.5 C12.75,19.1203042 13.0321539,18.806509 13.3982294,18.7568466 L13.5,18.75 L19.5,18.75 Z M10.5,15.75 C10.9142136,15.75 11.25,16.0857864 11.25,16.5 C11.25,16.8796958 10.9678461,17.193491 10.6017706,17.2431534 L10.5,17.25 L4.5,17.25 C4.08578644,17.25 3.75,16.9142136 3.75,16.5 C3.75,16.1203042 4.03215388,15.806509 4.39822944,15.7568466 L4.5,15.75 L10.5,15.75 Z M19.5,15.75 C19.9142136,15.75 20.25,16.0857864 20.25,16.5 C20.25,16.8796958 19.9678461,17.193491 19.6017706,17.2431534 L19.5,17.25 L13.5,17.25 C13.0857864,17.25 12.75,16.9142136 12.75,16.5 C12.75,16.1203042 13.0321539,15.806509 13.3982294,15.7568466 L13.5,15.75 L19.5,15.75 Z M10.5,12.75 C10.9142136,12.75 11.25,13.0857864 11.25,13.5 C11.25,13.8796958 10.9678461,14.193491 10.6017706,14.2431534 L10.5,14.25 L4.5,14.25 C4.08578644,14.25 3.75,13.9142136 3.75,13.5 C3.75,13.1203042 4.03215388,12.806509 4.39822944,12.7568466 L4.5,12.75 L10.5,12.75 Z M19.5,12.75 C19.9142136,12.75 20.25,13.0857864 20.25,13.5 C20.25,13.8796958 19.9678461,14.193491 19.6017706,14.2431534 L19.5,14.25 L13.5,14.25 C13.0857864,14.25 12.75,13.9142136 12.75,13.5 C12.75,13.1203042 13.0321539,12.806509 13.3982294,12.7568466 L13.5,12.75 L19.5,12.75 Z M18.5,3.75 C19.4181734,3.75 20.1711923,4.45711027 20.2441988,5.35647279 L20.25,5.5 L20.25,9.5 C20.25,10.4181734 19.5428897,11.1711923 18.6435272,11.2441988 L18.5,11.25 L5.5,11.25 C4.5818266,11.25 3.82880766,10.5428897 3.7558012,9.64352721 L3.75,9.5 L3.75,5.5 C3.75,4.5818266 4.45711027,3.82880766 5.35647279,3.7558012 L5.5,3.75 L18.5,3.75 Z M18.5,5.25 L5.5,5.25 C5.38165327,5.25 5.28251318,5.33223341 5.25660268,5.44267729 L5.25,5.5 L5.25,9.5 C5.25,9.61834673 5.33223341,9.71748682 5.44267729,9.74339732 L5.5,9.75 L18.5,9.75 C18.6183467,9.75 18.7174868,9.66776659 18.7433973,9.55732271 L18.75,9.5 L18.75,5.5 C18.75,5.38165327 18.6677666,5.28251318 18.5573227,5.25660268 L18.5,5.25 Z M10.5,6.75 C10.9142136,6.75 11.25,7.08578644 11.25,7.5 C11.25,7.87969577 10.9678461,8.19349096 10.6017706,8.24315338 L10.5,8.25 L7.5,8.25 C7.08578644,8.25 6.75,7.91421356 6.75,7.5 C6.75,7.12030423 7.03215388,6.80650904 7.39822944,6.75684662 L7.5,6.75 L10.5,6.75 Z M16.5,6.75 C16.9142136,6.75 17.25,7.08578644 17.25,7.5 C17.25,7.87969577 16.9678461,8.19349096 16.6017706,8.24315338 L16.5,8.25 L13.5,8.25 C13.0857864,8.25 12.75,7.91421356 12.75,7.5 C12.75,7.12030423 13.0321539,6.80650904 13.3982294,6.75684662 L13.5,6.75 L16.5,6.75 Z"></path>
        </g>
    </g>
</svg>
