<?xml version="1.0" encoding="UTF-8"?>
<svg width="24" height="24" viewBox="0 0 24 24" fill="none" xmlns="http://www.w3.org/2000/svg">
<path d="M13 17C13 17.5523 12.5523 18 12 18C11.4477 18 11 17.5523 11 17C11 16.4477 11.4477 16 12 16C12.5523 16 13 16.4477 13 17Z" fill="#2B2B2B"/>
<path fill-rule="evenodd" clip-rule="evenodd" d="M6.36478 3C5.05875 3 4 4.08219 4 5.41714V18.5829C4 19.9178 5.05875 21 6.36478 21H17.6352C18.9413 21 20 19.9178 20 18.5829V5.41714C20 4.0822 18.9413 3 17.6352 3H6.36478ZM5.50943 5.41714C5.50943 4.93429 5.89239 4.54286 6.36478 4.54286H17.6352C18.1076 4.54286 18.4906 4.93428 18.4906 5.41714V18.5829C18.4906 19.0657 18.1076 19.4571 17.6352 19.4571H6.36478C5.89238 19.4571 5.50943 19.0657 5.50943 18.5829V5.41714Z" fill="#2B2B2B"/>
</svg>
