<?xml version="1.0" encoding="UTF-8"?>
<svg width="24px" height="24px" viewBox="0 0 24 24" version="1.1" xmlns="http://www.w3.org/2000/svg" xmlns:xlink="http://www.w3.org/1999/xlink">
    <title>device-desktop</title>
    <g stroke="none" stroke-width="1" fill="none" fill-rule="evenodd">
        <g transform="translate(2.000000, 2.000000)">
            <rect x="0" y="0" width="20" height="20"></rect>
            <g stroke-linecap="round" stroke-linejoin="round">
                <polygon points="0 0 20 0 20 20 0 20"></polygon>
                <path d="M16.6666667,2.58333333 L3.33333333,2.58333333 C2.45888248,2.58333333 1.75,3.29221581 1.75,4.16666667 L1.75,12.5 C1.75,13.3744509 2.45888248,14.0833333 3.33333333,14.0833333 L16.6666667,14.0833333 C17.5411175,14.0833333 18.25,13.3744509 18.25,12.5 L18.25,4.16666667 C18.25,3.29221581 17.5411175,2.58333333 16.6666667,2.58333333 Z M3.33333333,4.08333333 L16.6666667,4.08333333 C16.7126904,4.08333333 16.75,4.12064294 16.75,4.16666667 L16.75,12.5 C16.75,12.5460237 16.7126904,12.5833333 16.6666667,12.5833333 L3.33333333,12.5833333 C3.2873096,12.5833333 3.25,12.5460237 3.25,12.5 L3.25,4.16666667 C3.25,4.12064294 3.2873096,4.08333333 3.33333333,4.08333333 Z" fill="#414851" fill-rule="nonzero"></path>
                <path d="M14.1666667,15.9166667 C14.5808802,15.9166667 14.9166667,16.2524531 14.9166667,16.6666667 C14.9166667,17.0463624 14.6345128,17.3601576 14.2684372,17.4098201 L14.1666667,17.4166667 L5.83333333,17.4166667 C5.41911977,17.4166667 5.08333333,17.0808802 5.08333333,16.6666667 C5.08333333,16.2869709 5.36548721,15.9731757 5.73156278,15.9235133 L5.83333333,15.9166667 L14.1666667,15.9166667 Z" fill="#414851" fill-rule="nonzero"></path>
                <path d="M10,12.5833333 C10.3796958,12.5833333 10.693491,12.8654872 10.7431534,13.2315628 L10.75,13.3333333 L10.75,16.6666667 C10.75,17.0808802 10.4142136,17.4166667 10,17.4166667 C9.62030423,17.4166667 9.30650904,17.1345128 9.25684662,16.7684372 L9.25,16.6666667 L9.25,13.3333333 C9.25,12.9191198 9.58578644,12.5833333 10,12.5833333 Z" fill="#414851" fill-rule="nonzero"></path>
            </g>
        </g>
    </g>
</svg>
