<?xml version="1.0" encoding="UTF-8"?>
<svg width="24" height="24" viewBox="0 0 24 24" fill="none" xmlns="http://www.w3.org/2000/svg">
    <title>discount</title>
    <path d="M15.3132 9.77469C15.6136 9.47428 15.6136 8.98723 15.3132 8.68683C15.0128 8.38643 14.5258 8.38643 14.2254 8.68683L8.68689 14.2253C8.38649 14.5257 8.38649 15.0127 8.68689 15.3131C8.98729 15.6136 9.47434 15.6136 9.77475 15.3131L15.3132 9.77469Z" fill="#2B2B2B"/>
    <path d="M9.69221 11.0769C10.4569 11.0769 11.0768 10.457 11.0768 9.69233C11.0768 8.92763 10.4569 8.30772 9.69221 8.30772C8.92751 8.30772 8.30759 8.92763 8.30759 9.69233C8.30759 10.457 8.92751 11.0769 9.69221 11.0769Z" fill="#2B2B2B"/>
    <path d="M15.6922 14.3077C15.6922 15.0724 15.0723 15.6923 14.3076 15.6923C13.5429 15.6923 12.923 15.0724 12.923 14.3077C12.923 13.543 13.5429 12.9231 14.3076 12.9231C15.0723 12.9231 15.6922 13.543 15.6922 14.3077Z" fill="#2B2B2B"/>
    <path fill-rule="evenodd" clip-rule="evenodd" d="M12.5439 2.2253C12.2435 1.9249 11.7565 1.9249 11.4561 2.2253L8.91214 4.76923H5.53846C5.11363 4.76923 4.76923 5.11363 4.76923 5.53846V8.91214L2.2253 11.4561C1.9249 11.7565 1.9249 12.2435 2.2253 12.5439L4.76923 15.0879V18.4615C4.76923 18.8864 5.11363 19.2308 5.53846 19.2308H8.91214L11.4561 21.7747C11.7565 22.0751 12.2435 22.0751 12.5439 21.7747L15.0879 19.2308H18.4615C18.8864 19.2308 19.2308 18.8864 19.2308 18.4615V15.0879L21.7747 12.5439C22.0751 12.2435 22.0751 11.7565 21.7747 11.4561L19.2308 8.91214V5.53846C19.2308 5.11363 18.8864 4.76923 18.4615 4.76923H15.0879L12.5439 2.2253ZM9.7747 6.08239L12 3.85709L14.2253 6.08239C14.3696 6.22665 14.5652 6.30769 14.7692 6.30769H17.6923V9.23077C17.6923 9.43478 17.7734 9.63044 17.9176 9.7747L20.1429 12L17.9176 14.2253C17.7734 14.3696 17.6923 14.5652 17.6923 14.7692V17.6923H14.7692C14.5652 17.6923 14.3696 17.7734 14.2253 17.9176L12 20.1429L9.7747 17.9176C9.63044 17.7734 9.43478 17.6923 9.23077 17.6923H6.30769V14.7692C6.30769 14.5652 6.22665 14.3696 6.08239 14.2253L3.85709 12L6.08239 9.7747C6.22665 9.63044 6.30769 9.43478 6.30769 9.23077V6.30769H9.23077C9.43478 6.30769 9.63044 6.22665 9.7747 6.08239Z" fill="#2B2B2B"/>
</svg>
