<?xml version="1.0" encoding="UTF-8"?>
<svg width="24px" height="24px" viewBox="0 0 24 24" version="1.1" xmlns="http://www.w3.org/2000/svg" xmlns:xlink="http://www.w3.org/1999/xlink">
    <title>dollar-note</title>
    <g stroke="none" stroke-width="1" fill="none" fill-rule="evenodd">
        <g fill="#414851" fill-rule="nonzero">
            <path d="M16.5,3 C17.7426407,3 18.75,4.00735931 18.75,5.25 L18.75,5.25 L18.75,18.75 C18.75,19.9926407 17.7426407,21 16.5,21 L16.5,21 L7.5,21 C6.25735931,21 5.25,19.9926407 5.25,18.75 L5.25,18.75 L5.25,5.25 C5.25,4.00735931 6.25735931,3 7.5,3 L7.5,3 Z M16.5,4.5 L7.5,4.5 C7.08578644,4.5 6.75,4.83578644 6.75,5.25 L6.75,5.25 L6.75,18.75 C6.75,19.1642136 7.08578644,19.5 7.5,19.5 L7.5,19.5 L16.5,19.5 C16.9142136,19.5 17.25,19.1642136 17.25,18.75 L17.25,18.75 L17.25,5.25 C17.25,4.83578644 16.9142136,4.5 16.5,4.5 L16.5,4.5 Z M12.75,6 L12.7505028,7.15334091 C13.4793599,7.23635508 14.1924663,7.42099842 14.711915,7.66529407 L14.8925178,7.75699392 L15.5497739,8.11826176 L14.8272382,9.43277391 L14.1699822,9.07150608 C13.850224,8.8957476 13.3176179,8.7449905 12.7507593,8.66538362 L12.75,11.27 L12.9853637,11.355855 C14.4889915,11.9257968 15.099,12.496493 15.099,13.76325 C15.099,15.2451356 14.1873288,16.154668 12.7511776,16.4185318 L12.75,18 L11.25,18 L11.2507429,16.4802357 C10.5370461,16.4270742 9.77972487,16.2714908 9.04951032,16.0344626 L8.74627732,15.9307796 L8.04049775,15.6770569 L8.54794311,14.2654978 L9.25372268,14.5192204 C9.91597856,14.7572967 10.6140273,14.9158591 11.2512546,14.9748828 L11.2499367,12.3397692 C9.49533316,11.7030517 8.736,11.0381756 8.736,9.549 C8.736,8.11282236 9.75371234,7.3211191 11.2501626,7.1433927 L11.25,6 L12.75,6 Z M12.75,12.879 L12.7520458,14.8805528 C13.3347617,14.7102997 13.599,14.3642447 13.599,13.76325 C13.599,13.4168873 13.4270221,13.1894709 12.8747184,12.9328743 L12.75,12.879 Z M10.236,9.549 C10.236,10.0819407 10.4847952,10.3938687 11.2496894,10.7286216 L11.2506757,8.65655598 C10.5563553,8.77045953 10.236,9.06243712 10.236,9.549 Z"></path>
        </g>
    </g>
</svg>
