<?xml version="1.0" encoding="UTF-8"?>
<svg width="24px" height="24px" viewBox="0 0 24 24" version="1.1" xmlns="http://www.w3.org/2000/svg" xmlns:xlink="http://www.w3.org/1999/xlink">
    <title>download</title>
    <g stroke="none" stroke-width="1" fill="none" fill-rule="evenodd">
        <g transform="translate(2.000000, 1.000000)">
            <rect x="0" y="0" width="20" height="20"></rect>
            <g stroke-linecap="round" stroke-linejoin="round">
                <polygon points="0 0 20 0 20 20 0 20"></polygon>
                <path d="M16.6666667,13.4666667 C17.0210494,13.4666667 17.3139249,13.7300103 17.3602765,14.0716808 L17.3666667,14.1666667 L17.3666667,15.8333333 C17.3666667,17.0859458 16.3935337,18.1112709 15.1620365,18.19454 L15,18.2 L5,18.2 C3.7473875,18.2 2.72206238,17.2268671 2.6387933,15.9953699 L2.63333333,15.8333333 L2.63333333,14.1666667 C2.63333333,13.7800673 2.94673401,13.4666667 3.33333333,13.4666667 C3.68771605,13.4666667 3.98059156,13.7300103 4.02694316,14.0716808 L4.03333333,14.1666667 L4.03333333,15.8333333 C4.03333333,16.3290746 4.40650552,16.7376569 4.88726625,16.7934965 L5,16.8 L15,16.8 C15.4957413,16.8 15.9043236,16.4268278 15.9601632,15.9460671 L15.9666667,15.8333333 L15.9666667,14.1666667 C15.9666667,13.7800673 16.2800673,13.4666667 16.6666667,13.4666667 Z M9.79623137,14.0032122 C9.77249589,13.9959051 9.75061571,13.9880075 9.72909475,13.9789869 C9.71916372,13.9748132 9.70929487,13.9703941 9.69955013,13.9657563 C9.68438516,13.9585787 9.66955816,13.9508695 9.65496513,13.9425943 C9.63620027,13.9318797 9.61798367,13.920392 9.60035842,13.9081142 C9.59756217,13.9062363 9.59467054,13.904189 9.59179111,13.9021172 L9.57279704,13.8879013 C9.55407941,13.8734612 9.53611317,13.8580945 9.51896701,13.8418701 L9.50502525,13.8283081 L5.33835859,9.66164141 C5.06499158,9.38827441 5.06499158,8.94505892 5.33835859,8.67169192 C5.58438889,8.42566162 5.96799646,8.40105859 6.24154222,8.59788283 L6.32830808,8.67169192 L9.29933333,11.6423333 L9.3,3.33333333 C9.3,2.94673401 9.61340068,2.63333333 10,2.63333333 C10.3543827,2.63333333 10.6472582,2.89667696 10.6936098,3.23834748 L10.7,3.33333333 L10.6993333,11.6423333 L13.6716919,8.67169192 C13.9450589,8.39832492 14.3882744,8.39832492 14.6616414,8.67169192 C14.9076717,8.91772222 14.9322747,9.3013298 14.7354505,9.57487555 L14.6616414,9.66164141 L10.4949747,13.8283081 C10.4693582,13.8539246 10.4417655,13.8775649 10.4124449,13.8989808 L10.4949747,13.8283081 C10.464185,13.8590978 10.4312406,13.8864197 10.3966268,13.9102737 C10.3759005,13.9244905 10.3541574,13.9378029 10.3316759,13.9499216 C10.3189414,13.9568363 10.3059053,13.9633343 10.2927193,13.9694007 C10.2765232,13.9768279 10.2605312,13.9834779 10.2442527,13.9895396 C10.2285259,13.9953768 10.2120657,14.0008144 10.1954625,14.0056254 C10.1750493,14.0115966 10.1544649,14.0165682 10.1335486,14.0206087 C10.1233829,14.0225121 10.1132878,14.0242341 10.1031661,14.025734 C10.1004421,14.0261865 10.0977165,14.0265727 10.0949859,14.0269432 L10,14.0333333 L10,14.0333333 C9.92912346,14.0333333 9.8607072,14.0227996 9.79623137,14.0032122 Z" fill="#414851" fill-rule="nonzero"></path>
            </g>
        </g>
    </g>
</svg>
