<?xml version="1.0" encoding="UTF-8"?>
<svg width="24" height="24" viewBox="0 0 24 24" fill="none" xmlns="http://www.w3.org/2000/svg" xmlns:xlink="http://www.w3.org/1999/xlink">
    <title>edit</title>
    <path fill-rule="evenodd" clip-rule="evenodd" d="M12.8583 7.08056L6.06899 13.8699C5.95845 13.9804 5.88522 14.1228 5.85952 14.2769L5.25948 17.8772C5.21966 18.1161 5.29768 18.3595 5.46895 18.5308C5.64022 18.7021 5.88366 18.7801 6.12258 18.7403L9.72282 18.1402C9.87701 18.1145 10.0193 18.0413 10.1298 17.9308L18.1789 9.88176C18.5445 9.51606 18.7498 9.02014 18.7498 8.50305C18.7498 7.98596 18.5444 7.48996 18.1788 7.12426L16.8754 5.8209C16.5097 5.45531 16.0138 5.24994 15.4967 5.24994C14.9796 5.24994 14.4837 5.45531 14.118 5.8209L12.8741 7.06483C12.8714 7.06741 12.8688 7.07001 12.8662 7.07264C12.8635 7.07526 12.8609 7.0779 12.8583 7.08056ZM15.1785 6.88172C15.2629 6.79734 15.3774 6.74994 15.4967 6.74994C15.616 6.74994 15.7305 6.79739 15.8149 6.88172L17.118 8.18484C17.2024 8.26925 17.2498 8.38371 17.2498 8.50305C17.2498 8.62236 17.2024 8.73686 17.118 8.82126L16.3967 9.54256L14.4572 7.60302L15.1785 6.88172ZM13.3965 8.66368L15.3361 10.6032L9.23914 16.7002L6.91169 17.0881L7.2996 14.7606L13.3965 8.66368Z" fill="#2B2B2B"/>
</svg>
