<?xml version="1.0" encoding="UTF-8"?>
<svg width="24px" height="24px" viewBox="0 0 24 24" version="1.1" xmlns="http://www.w3.org/2000/svg" xmlns:xlink="http://www.w3.org/1999/xlink">
    <title>education</title>
    <g stroke="none" stroke-width="1" fill="none" fill-rule="evenodd">
        <g fill="#414851" fill-rule="nonzero">
            <path d="M11.6422291,4.03445825 C11.8674511,3.92184725 12.1325489,3.92184725 12.3577709,4.03445825 L12.3577709,4.03445825 L21.5244375,8.61779158 C22.1140764,8.912611 22.1140764,9.75405567 21.5244375,10.0488751 L21.5244375,10.0488751 L19.2163333,11.202 L19.2166667,16.5 C19.2166667,18.6460441 15.9406618,20.05 12,20.05 C8.15098149,20.05 4.93606512,18.7105851 4.7886158,16.6485116 L4.78333333,16.5 L4.78333333,11.202 L2.47556246,10.0488751 C1.92277605,9.77248188 1.8882269,9.01565633 2.37191501,8.67920908 L2.47556246,8.61779158 Z M17.6163333,12.002 L12.3577709,14.6322084 C12.1325489,14.7448194 11.8674511,14.7448194 11.6422291,14.6322084 L11.6422291,14.6322084 L6.38333333,12.002 L6.38333333,16.5 C6.38333333,17.3916988 8.85278407,18.45 12,18.45 C15.0518457,18.45 17.4663806,17.4548664 17.6099136,16.5814884 L17.6166667,16.5 L17.6163333,12.002 Z M22.0833333,11.2833333 C22.4911744,11.2833333 22.8277349,11.5885215 22.8771002,11.982983 L22.8833333,12.0833333 L22.8833333,16.6666667 C22.8833333,17.1084945 22.5251611,17.4666667 22.0833333,17.4666667 C21.6754923,17.4666667 21.3389318,17.1614785 21.2895665,16.767017 L21.2833333,16.6666667 L21.2833333,12.0833333 C21.2833333,11.6415055 21.6415055,11.2833333 22.0833333,11.2833333 Z M12,5.644 L4.622,9.333 L12,13.022 L19.377,9.333 L12,5.644 Z"></path>
        </g>
    </g>
</svg>
