<?xml version="1.0" encoding="UTF-8"?>
<svg width="24px" height="24px" viewBox="0 0 24 24" version="1.1" xmlns="http://www.w3.org/2000/svg" xmlns:xlink="http://www.w3.org/1999/xlink">
    <title>email</title>
    <g stroke="none" stroke-width="1" fill="none" fill-rule="evenodd">
        <g fill="#414851" fill-rule="nonzero">
            <path d="M19.5,4.25 C20.8346881,4.25 21.9166667,5.33197852 21.9166667,6.66666667 L21.9166667,6.66666667 L21.9166667,17.3333333 C21.9166667,18.6680215 20.8346881,19.75 19.5,19.75 L19.5,19.75 L4.5,19.75 C3.16531185,19.75 2.08333333,18.6680215 2.08333333,17.3333333 L2.08333333,17.3333333 L2.08333333,6.66666667 C2.08333333,5.33197852 3.16531185,4.25 4.5,4.25 L4.5,4.25 Z M10.1363333,13.363 L4.53833333,18.25 L19.4523333,18.25 L13.8243333,13.401 L12.5303301,14.6969968 C12.2640635,14.9632633 11.8473998,14.9874694 11.5537883,14.7696149 L11.4696699,14.6969968 L10.1363333,13.363 Z M20.4163333,6.757 L18.3636634,8.86366342 L14.8883333,12.338 L20.4163333,17.101 L20.4163333,6.757 Z M3.58333333,6.759 L3.58333333,17.092 L9.07233333,12.299 L5.62970589,8.85694877 L3.58333333,6.759 Z M19.3033333,5.75 L4.69433333,5.75 L6.69699675,7.80300325 L11.9993333,13.106 L17.2963083,7.8097838 L19.3033333,5.75 Z"></path>
        </g>
    </g>
</svg>
