<?xml version="1.0" encoding="UTF-8"?>
<svg width="24px" height="24px" viewBox="0 0 24 24" version="1.1" xmlns="http://www.w3.org/2000/svg" xmlns:xlink="http://www.w3.org/1999/xlink">
    <title>error-fill</title>
    <g stroke="none" stroke-width="1" fill="none" fill-rule="evenodd">
        <g>
            <rect fill-opacity="0" fill="#FFFFFF" x="0" y="0" width="24" height="24"></rect>
            <path d="M12,4 C16.418278,4 20,7.581722 20,12 C20,16.418278 16.418278,20 12,20 C7.581722,20 4,16.418278 4,12 C4,7.581722 7.581722,4 12,4 Z M13.8856181,9.17157288 L12,11.057191 L10.1143819,9.17157288 C9.85403239,8.91122335 9.4319224,8.91122335 9.17157288,9.17157288 C8.91122335,9.4319224 8.91122335,9.85403239 9.17157288,10.1143819 L11.057191,12 L9.17157288,13.8856181 C8.91122335,14.1459676 8.91122335,14.5680776 9.17157288,14.8284271 C9.4319224,15.0887767 9.85403239,15.0887767 10.1143819,14.8284271 L12,12.942809 L13.8856181,14.8284271 C14.1459676,15.0887767 14.5680776,15.0887767 14.8284271,14.8284271 C15.0887767,14.5680776 15.0887767,14.1459676 14.8284271,13.8856181 L12.942809,12 L14.8284271,10.1143819 C15.0887767,9.85403239 15.0887767,9.4319224 14.8284271,9.17157288 C14.5680776,8.91122335 14.1459676,8.91122335 13.8856181,9.17157288 Z" fill="#414851"></path>
        </g>
    </g>
</svg>
