<?xml version="1.0" encoding="UTF-8"?>
<svg width="24px" height="24px" viewBox="0 0 24 24" version="1.1" xmlns="http://www.w3.org/2000/svg" xmlns:xlink="http://www.w3.org/1999/xlink">
    <title>external</title>
    <g stroke="none" stroke-width="1" fill="none" fill-rule="evenodd">
        <g transform="translate(2.000000, 2.000000)">
            <rect x="0" y="0" width="20" height="20"></rect>
            <g stroke-linecap="square" transform="translate(0.250000, 0.250000)">
                <path d="M16.0833333,0.766666667 C17.5468879,0.766666667 18.7333333,1.95311208 18.7333333,3.41666667 L18.7333333,3.41666667 L18.7333333,16.0833333 C18.7333333,17.5468879 17.5468879,18.7333333 16.0833333,18.7333333 L16.0833333,18.7333333 L3.41666667,18.7333333 C1.95311208,18.7333333 0.766666667,17.5468879 0.766666667,16.0833333 L0.766666667,16.0833333 L0.766666667,3.41666667 C0.766666667,1.95311208 1.95311208,0.766666667 3.41666667,0.766666667 L3.41666667,0.766666667 Z M16.0833333,2.06666667 L3.41666667,2.06666667 C2.67108225,2.06666667 2.06666667,2.67108225 2.06666667,3.41666667 L2.06666667,3.41666667 L2.06666667,16.0833333 C2.06666667,16.8289177 2.67108225,17.4333333 3.41666667,17.4333333 L3.41666667,17.4333333 L16.0833333,17.4333333 C16.8289177,17.4333333 17.4333333,16.8289177 17.4333333,16.0833333 L17.4333333,16.0833333 L17.4333333,3.41666667 C17.4333333,2.67108225 16.8289177,2.06666667 16.0833333,2.06666667 L16.0833333,2.06666667 Z M13.4,6.1 L13.4,13.2333333 L12.1,13.2333333 L12.0986667,8.31866667 L6.54295274,13.8762861 L5.62371393,12.9570473 L11.1796667,7.39966667 L6.26666667,7.4 L6.26666667,6.1 L13.4,6.1 Z" fill="#414851" fill-rule="nonzero"></path>
                <g transform="translate(6.083333, 6.750000)"></g>
            </g>
        </g>
    </g>
</svg>
