<?xml version="1.0" encoding="UTF-8"?>
<svg width="24px" height="24px" viewBox="0 0 24 24" version="1.1" xmlns="http://www.w3.org/2000/svg" xmlns:xlink="http://www.w3.org/1999/xlink">
    <title>eye-striked</title>
    <g stroke="none" stroke-width="1" fill="none" fill-rule="evenodd">
        <g transform="translate(2.000000, 2.000000)">
            <rect x="0" y="0" width="20" height="20"></rect>
            <g stroke-linecap="square" transform="translate(0.666667, 1.500000)" fill="#414851" fill-rule="nonzero">
                <path d="M9.33333333,1.91666667 C6.91411103,1.91666667 4.71182898,3.10251085 2.76133658,5.05300325 C2.09194565,5.72239418 1.49960229,6.43729134 0.98865823,7.15261302 L0.774835208,7.45867379 L0.520928461,7.84392738 L0.396988189,8.04537413 L0.133962064,8.50389306 L0.368735691,8.90630471 L0.538829964,9.18347038 C0.570700296,9.23362982 0.604325129,9.2857004 0.639695248,9.33957497 L0.872785666,9.68361298 C0.957414469,9.80493677 1.04895069,9.93261927 1.14732062,10.0658033 C1.67703371,10.7829868 2.28000822,11.4859585 2.95259951,12.1348809 C4.86059324,13.9757312 6.99836643,15.0833333 9.33333333,15.0833333 C11.6683002,15.0833333 13.8060734,13.9757312 15.7140672,12.1348809 C16.3866584,11.4859585 16.989633,10.7829868 17.519346,10.0658033 L17.6617613,9.87026931 L17.9154955,9.50674025 C17.9931059,9.39214732 18.0637103,9.28444696 18.1271938,9.18456656 L18.3144774,8.87794351 L18.5327046,8.50389306 L18.2696785,8.04537413 L18.1457382,7.84392738 L17.9854442,7.597465 L17.7893306,7.31021368 C17.7536897,7.2591742 17.7165786,7.2066113 17.6780084,7.15261302 C17.1670644,6.43729134 16.574721,5.72239418 15.9053301,5.05300325 C13.9548377,3.10251085 11.7525556,1.91666667 9.33333333,1.91666667 Z M9.33333333,3.41666667 C11.289111,3.41666667 13.149329,4.41832248 14.8446699,6.11366342 C15.4513207,6.72031416 15.9917898,7.3726045 16.4574082,8.02447031 L16.7315612,8.42075908 L16.783,8.5 L16.5604079,8.83007033 L16.312777,9.17462918 C15.8300084,9.82825419 15.2806577,10.4687091 14.6725709,11.055397 C13.0187896,12.6509807 11.219264,13.5833333 9.33333333,13.5833333 C7.44740269,13.5833333 5.64787705,12.6509807 3.99409575,11.055397 C3.38600895,10.4687091 2.83665826,9.82825419 2.35388963,9.17462918 L2.10621763,8.83000018 L1.882,8.499 L2.10942441,8.1657639 C2.14130367,8.12013895 2.17458645,8.0730111 2.20925844,8.02447031 C2.67487688,7.3726045 3.21534601,6.72031416 3.82199675,6.11366342 C5.51733769,4.41832248 7.37755563,3.41666667 9.33333333,3.41666667 Z"></path>
                <path d="M9.33333333,5.25 C7.5384079,5.25 6.08333333,6.70507456 6.08333333,8.5 C6.08333333,10.2949254 7.5384079,11.75 9.33333333,11.75 C11.1282588,11.75 12.5833333,10.2949254 12.5833333,8.5 C12.5833333,6.70507456 11.1282588,5.25 9.33333333,5.25 Z M9.33333333,6.75 C10.2998316,6.75 11.0833333,7.53350169 11.0833333,8.5 C11.0833333,9.46649831 10.2998316,10.25 9.33333333,10.25 C8.36683502,10.25 7.58333333,9.46649831 7.58333333,8.5 C7.58333333,7.53350169 8.36683502,6.75 9.33333333,6.75 Z"></path>
                <path d="M16.3030032,0.469669914 C16.5958965,0.176776695 17.0707702,0.176776695 17.3636634,0.469669914 C17.62993,0.735936477 17.654136,1.15260016 17.4362816,1.44621165 L17.3636634,1.53033009 L2.36366342,16.5303301 C2.0707702,16.8232233 1.59589647,16.8232233 1.30300325,16.5303301 C1.03673668,16.2640635 1.01253063,15.8473998 1.23038509,15.5537883 L1.30300325,15.4696699 L16.3030032,0.469669914 Z"></path>
            </g>
        </g>
    </g>
</svg>
