<?xml version="1.0" encoding="UTF-8"?>
<svg width="24px" height="24px" viewBox="0 0 24 24" version="1.1" xmlns="http://www.w3.org/2000/svg" xmlns:xlink="http://www.w3.org/1999/xlink">
    <title>eye</title>
    <g stroke="none" stroke-width="1" fill="none" fill-rule="evenodd">
        <g transform="translate(2.000000, 2.000000)">
            <rect x="0" y="0" width="20" height="20"></rect>
            <g stroke-linecap="square" transform="translate(1.666667, 4.166667)" fill="#414851" fill-rule="nonzero">
                <path d="M8.33333333,-0.75 C5.91411103,-0.75 3.71182898,0.435844183 1.76133658,2.38633658 C1.09194565,3.05572751 0.49960229,3.77062467 -0.0113417701,4.48594635 L-0.225164792,4.79200712 L-0.403435361,5.05939231 L-0.603011811,5.37870746 L-0.866037936,5.83722639 L-0.631264309,6.23963804 L-0.461170036,6.51680372 C-0.429299704,6.56696316 -0.395674871,6.61903373 -0.360304752,6.6729083 L-0.127214334,7.01694631 C-0.0425855313,7.1382701 0.0489506939,7.26595261 0.147320623,7.39913659 C0.677033711,8.11632015 1.28000822,8.81929185 1.95259951,9.46821424 C3.86059324,11.3090645 5.99836643,12.4166667 8.33333333,12.4166667 C10.6683002,12.4166667 12.8060734,11.3090645 14.7140672,9.46821424 C15.3866584,8.81929185 15.989633,8.11632015 16.519346,7.39913659 L16.7938399,7.01701646 C16.8361337,6.95638965 16.8766904,6.89737004 16.9154955,6.84007358 L17.1271938,6.51789989 C17.1589355,6.46795969 17.188897,6.41997448 17.217064,6.37406018 L17.5327046,5.83722639 L17.2696785,5.37870746 L17.070102,5.05939231 L16.7893306,4.64354702 C16.7536897,4.59250754 16.7165786,4.53994463 16.6780084,4.48594635 C16.1670644,3.77062467 15.574721,3.05572751 14.9053301,2.38633658 C12.9548377,0.435844183 10.7525556,-0.75 8.33333333,-0.75 Z M8.33333333,0.75 C10.289111,0.75 12.149329,1.75165582 13.8446699,3.44699675 C14.4513207,4.05364749 14.9917898,4.70593783 15.4574082,5.35780365 L15.6486552,5.63137341 L15.783,5.833 L15.6693283,6.00517416 L15.4415089,6.33125448 C15.400229,6.3887234 15.3573103,6.44766853 15.312777,6.50796251 C14.8300084,7.16158752 14.2806577,7.80204245 13.6725709,8.38873029 C12.0187896,9.98431401 10.219264,10.9166667 8.33333333,10.9166667 C6.44740269,10.9166667 4.64787705,9.98431401 2.99409575,8.38873029 C2.38600895,7.80204245 1.83665826,7.16158752 1.35388963,6.50796251 L1.10621763,6.16333351 L0.883,5.832 L1.10942441,5.49909723 C1.14130367,5.45347228 1.17458645,5.40634443 1.20925844,5.35780365 C1.67487688,4.70593783 2.21534601,4.05364749 2.82199675,3.44699675 C4.51733769,1.75165582 6.37755563,0.75 8.33333333,0.75 Z"></path>
                <path d="M8.33333333,2.58333333 C6.5384079,2.58333333 5.08333333,4.0384079 5.08333333,5.83333333 C5.08333333,7.62825877 6.5384079,9.08333333 8.33333333,9.08333333 C10.1282588,9.08333333 11.5833333,7.62825877 11.5833333,5.83333333 C11.5833333,4.0384079 10.1282588,2.58333333 8.33333333,2.58333333 Z M8.33333333,4.08333333 C9.29983165,4.08333333 10.0833333,4.86683502 10.0833333,5.83333333 C10.0833333,6.79983165 9.29983165,7.58333333 8.33333333,7.58333333 C7.36683502,7.58333333 6.58333333,6.79983165 6.58333333,5.83333333 C6.58333333,4.86683502 7.36683502,4.08333333 8.33333333,4.08333333 Z"></path>
            </g>
        </g>
    </g>
</svg>
