<?xml version="1.0" encoding="UTF-8"?>
<svg width="24px" height="24px" viewBox="0 0 24 24" version="1.1" xmlns="http://www.w3.org/2000/svg" xmlns:xlink="http://www.w3.org/1999/xlink">
    <title>file-xls</title>
    <g stroke="none" stroke-width="1" fill="none" fill-rule="evenodd">
        <g fill="#2B2B2B" fill-rule="nonzero">
            <path d="M19,5 C20.6568542,5 22,6.34314575 22,8 L22,16 C22,17.6568542 20.6568542,19 19,19 L5,19 C3.34314575,19 2,17.6568542 2,16 L2,8 C2,6.34314575 3.34314575,5 5,5 L19,5 Z M19,6.6 L5,6.6 C4.27228362,6.6 3.6742479,7.15522888 3.60640881,7.86517066 L3.6,8 L3.6,16 C3.6,16.7277164 4.15522888,17.3257521 4.86517066,17.3935912 L5,17.4 L19,17.4 C19.7277164,17.4 20.3257521,16.8447711 20.3935912,16.1348293 L20.4,16 L20.4,8 C20.4,7.27228362 19.8447711,6.6742479 19.1348293,6.60640881 L19,6.6 Z M17.1678913,9.35666667 C17.4880362,9.35666667 17.8118626,9.39945949 18.1393706,9.48491213 L18.3856918,9.55699824 L18.3856918,9.55699824 C18.6269635,9.63521808 18.7591432,9.89421714 18.6809233,10.1354889 C18.6777136,10.1453892 18.6741683,10.1551777 18.6702864,10.1648343 L18.5645942,10.4283148 C18.4902244,10.6136873 18.2992017,10.718525 18.1086774,10.6901758 L18.0273962,10.6697183 L18.0273962,10.6697183 C17.6898848,10.5485728 17.3889171,10.488 17.1247609,10.488 C16.9387609,10.488 16.8039783,10.52 16.7190652,10.5846667 C16.6341522,10.6493333 16.5923696,10.7293333 16.5923696,10.824 C16.5923696,10.9266667 16.6462826,11.0186667 16.7534348,11.1 C16.860587,11.1813333 17.1517174,11.3293333 17.6275,11.544 C18.0837391,11.7473333 18.3998043,11.9646667 18.5777174,12.1973333 C18.7542826,12.4306667 18.8432391,12.7233333 18.8432391,13.0766667 C18.8432391,13.4013333 18.7596739,13.6893333 18.5932174,13.9413333 C18.4267609,14.1933333 18.1861739,14.3893333 17.8728043,14.5286667 C17.5594348,14.6686667 17.1908043,14.738 16.7689348,14.738 C16.4164783,14.738 16.1213043,14.7133333 15.8820652,14.6646667 L15.7212334,14.6267831 L15.7212334,14.6267831 L15.5577161,14.5780318 L15.5577161,14.5780318 C15.306513,14.4954826 15.1367174,14.2609568 15.1367174,13.9965379 L15.1367174,13.5551873 C15.1367159,13.4099422 15.2544602,13.2921978 15.3997053,13.2921978 L15.4491803,13.2968935 L15.4491803,13.2968935 L15.4968886,13.3108129 L15.4968886,13.3108129 C15.6568025,13.3744077 15.8201562,13.4281368 15.9871957,13.472 C16.2816957,13.5493333 16.5519348,13.588 16.797913,13.588 C17.0101957,13.588 17.1658696,13.552 17.2649348,13.4793333 C17.364,13.4066667 17.4131957,13.3126667 17.4131957,13.198 C17.4131957,13.1266667 17.3929783,13.064 17.3538913,13.01 C17.3134565,12.9566667 17.2501087,12.902 17.1618261,12.8473333 C17.0742174,12.7926667 16.8390217,12.68 16.4582609,12.5106667 C16.1132174,12.356 15.8544348,12.2053333 15.681913,12.0593333 C15.5093913,11.9133333 15.3813478,11.7466667 15.2984565,11.558 C15.2148913,11.3693333 15.1731087,11.1466667 15.1731087,10.8886667 C15.1731087,10.406 15.3503478,10.03 15.7055,9.76066667 C16.0606522,9.49133333 16.5478913,9.35666667 17.1678913,9.35666667 Z M6.41267566,9.43133333 C6.67802525,9.43133333 6.92362418,9.57154483 7.05852361,9.80004549 L7.79645652,11.05 L8.5000824,9.81097236 C8.6333432,9.576311 8.88239785,9.43133333 9.1522578,9.43133333 L9.53178261,9.43133333 C9.78088719,9.43133333 9.98282634,9.63327249 9.98282634,9.88237707 C9.98282634,9.96728049 9.95886246,10.0504599 9.91369063,10.1223494 L8.67186957,12.0986667 L9.99929761,13.9896093 C10.1357443,14.1839798 10.0887878,14.4521601 9.89441727,14.5886068 C9.82204875,14.639409 9.73577851,14.6666667 9.6473587,14.6666667 L9.23391799,14.6666667 C8.97635912,14.6666667 8.73681647,14.534507 8.59946491,14.3166283 L7.78836957,13.03 L6.98827114,14.3134351 C6.85130726,14.5331384 6.61071517,14.6666667 6.35181627,14.6666667 L5.95903261,14.6666667 C5.71764151,14.6666667 5.52195535,14.4709805 5.52195535,14.2295894 C5.52195535,14.1444686 5.54681043,14.0612001 5.5934692,13.9900066 L6.90554348,11.988 L5.68513532,10.097457 C5.55577137,9.89705835 5.61335635,9.62973296 5.81375497,9.50036901 C5.88356627,9.45530351 5.96489571,9.43133333 6.04798913,9.43133333 L6.41267566,9.43133333 Z M11.7833261,9.43133333 C12.1782217,9.43133333 12.4983478,9.75145947 12.4983478,10.1463551 L12.4983478,13.5246667 L13.9652609,13.5246667 C14.2806155,13.5246667 14.5362609,13.7803121 14.5362609,14.0956667 C14.5362609,14.4110213 14.2806155,14.6666667 13.9652609,14.6666667 L11.8183043,14.6666667 C11.4040908,14.6666667 11.0683043,14.3308802 11.0683043,13.9166667 L11.0683043,10.1463551 C11.0683043,9.75145947 11.3884305,9.43133333 11.7833261,9.43133333 Z"></path>
        </g>
    </g>
</svg>
