<?xml version="1.0" encoding="UTF-8"?>
<svg width="24px" height="24px" viewBox="0 0 24 24" version="1.1" xmlns="http://www.w3.org/2000/svg" xmlns:xlink="http://www.w3.org/1999/xlink">
    <title>file-csv</title>
    <g stroke="none" stroke-width="1" fill="none" fill-rule="evenodd">
        <g fill="#2B2B2B" fill-rule="nonzero">
            <path d="M19,5 C20.6568542,5 22,6.34314575 22,8 L22,16 C22,17.6568542 20.6568542,19 19,19 L5,19 C3.34314575,19 2,17.6568542 2,16 L2,8 C2,6.34314575 3.34314575,5 5,5 L19,5 Z M19,6.6 L5,6.6 C4.27228362,6.6 3.6742479,7.15522888 3.60640881,7.86517066 L3.6,8 L3.6,16 C3.6,16.7277164 4.15522888,17.3257521 4.86517066,17.3935912 L5,17.4 L19,17.4 C19.7277164,17.4 20.3257521,16.8447711 20.3935912,16.1348293 L20.4,16 L20.4,8 C20.4,7.27228362 19.8447711,6.6742479 19.1348293,6.60640881 L19,6.6 Z M7.609,9.35666667 C7.95969643,9.35666667 8.30083776,9.40212178 8.63242399,9.49318239 L8.87932208,9.57003122 L8.87932208,9.57003122 C9.08510969,9.64173557 9.19380566,9.86668724 9.12210131,10.0724749 C9.12028711,10.0776815 9.11836397,10.0828496 9.11630067,10.0879628 L8.96725233,10.4641841 C8.89774917,10.6396085 8.71664588,10.738201 8.53708803,10.7096488 L8.46055915,10.6894811 L8.46055915,10.6894811 C8.38321801,10.6606517 8.30587686,10.6339627 8.22853571,10.6093333 C8.03175,10.5473333 7.82071429,10.5166667 7.59475,10.5166667 C7.25207143,10.5166667 6.98471429,10.654 6.79267857,10.93 C6.60064286,11.2053333 6.50496429,11.5853333 6.50496429,12.07 C6.50496429,13.078 6.89514286,13.582 7.67482143,13.582 C7.91028571,13.582 8.13896429,13.5493333 8.36017857,13.4846667 L8.52366124,13.4346065 L8.52366124,13.4346065 L8.68751196,13.3798829 L8.68751196,13.3798829 C8.82090332,13.3334812 8.96665432,13.4040004 9.01305593,13.5373917 C9.02245334,13.5644066 9.02725194,13.5928066 9.02721429,13.6214093 L9.02721429,14.0748896 C9.02719985,14.2817409 8.90794191,14.4669521 8.72618497,14.5546843 L8.64462811,14.5860946 L8.64462811,14.5860946 C8.29981042,14.6874489 7.92437706,14.738 7.51807143,14.738 C6.71396429,14.738 6.09714286,14.5086667 5.66828571,14.0506667 C5.23942857,13.592 5.025,12.9293333 5.025,12.064 C5.025,11.522 5.12882143,11.046 5.33646429,10.6346667 C5.54478571,10.224 5.84335714,9.908 6.23285714,9.68733333 C6.62303571,9.46666667 7.08175,9.35666667 7.609,9.35666667 Z M11.8629643,9.35666667 C12.2015698,9.35666667 12.5442654,9.40388193 12.8910511,9.49815831 L13.1519072,9.57768715 L13.1519072,9.57768715 C13.3632788,9.64906563 13.4767657,9.87827987 13.4053872,10.0896515 L13.3972094,10.1116921 L13.3972094,10.1116921 L13.3300357,10.278 C13.2101302,10.5748607 12.8781461,10.7251414 12.5759644,10.6193593 C12.5642173,10.6152466 12.5550826,10.6121981 12.5485604,10.6102141 C12.2807227,10.528738 12.0376649,10.488 11.8195357,10.488 C11.63225,10.488 11.4965357,10.52 11.4110357,10.5846667 C11.3255357,10.6493333 11.2834643,10.7293333 11.2834643,10.824 C11.2834643,10.9266667 11.33775,11.0186667 11.4456429,11.1 C11.5535357,11.1813333 11.8466786,11.3293333 12.32575,11.544 C12.7851429,11.7473333 13.1033929,11.9646667 13.2825357,12.1973333 C13.4603214,12.4306667 13.5498929,12.7233333 13.5498929,13.0766667 C13.5498929,13.4013333 13.46575,13.6893333 13.2981429,13.9413333 C13.1305357,14.1933333 12.8882857,14.3893333 12.57275,14.5286667 C12.2572143,14.6686667 11.8860357,14.738 11.46125,14.738 C11.1063571,14.738 10.8091429,14.7133333 10.56825,14.6646667 L10.3848408,14.6210008 L10.3848408,14.6210008 L10.1979556,14.5634255 L10.1979556,14.5634255 C9.97055939,14.4856485 9.81776716,14.2719061 9.81775,14.0315765 L9.81775,13.6667922 C9.81777973,13.4787268 9.97023688,13.3262696 10.1583023,13.3262696 L10.2179874,13.3315411 L10.2179874,13.3315411 L10.2758245,13.3471922 L10.2758245,13.3471922 C10.4062761,13.3951614 10.5389942,13.436764 10.6741071,13.472 C10.9706429,13.5493333 11.24275,13.588 11.4904286,13.588 C11.7041786,13.588 11.8609286,13.552 11.9606786,13.4793333 C12.0604286,13.4066667 12.1099643,13.3126667 12.1099643,13.198 C12.1099643,13.1266667 12.0896071,13.064 12.05025,13.01 C12.0095357,12.9566667 11.94575,12.902 11.8568571,12.8473333 C11.7686429,12.7926667 11.5318214,12.68 11.1484286,12.5106667 C10.801,12.356 10.5404286,12.2053333 10.3667143,12.0593333 C10.193,11.9133333 10.0640714,11.7466667 9.98060714,11.558 C9.89646429,11.3693333 9.85439286,11.1466667 9.85439286,10.8886667 C9.85439286,10.406 10.0328571,10.03 10.3904643,9.76066667 C10.7480714,9.49133333 11.2386786,9.35666667 11.8629643,9.35666667 Z M14.8435211,9.43133333 C15.1815449,9.43133333 15.4777979,9.65745066 15.5669596,9.9835033 L16.1413571,12.084 C16.292,12.674 16.3747857,13.0846667 16.3890357,13.316 C16.406,13.1493333 16.4399286,12.9406667 16.4908214,12.69 C16.5417143,12.4393333 16.5871786,12.242 16.6258571,12.0986667 L17.2136867,9.98075249 C17.3038048,9.65606226 17.5994029,9.43133333 17.9363673,9.43133333 L18.1716429,9.43133333 C18.4922199,9.43133333 18.7520989,9.69121237 18.7520989,10.0117894 C18.7520989,10.0742066 18.7420316,10.1362152 18.7222849,10.1954265 L17.4021347,14.1539418 C17.300017,14.4601451 17.0134393,14.6666667 16.690657,14.6666667 L16.0772889,14.6666667 C15.7541523,14.6666667 15.4673435,14.4596988 15.3655073,14.1530284 L14.0525888,10.1992949 C13.9509538,9.89323029 14.1166767,9.56272441 14.4227413,9.46108937 C14.4820943,9.44138001 14.544228,9.43133333 14.6067679,9.43133333 L14.8435211,9.43133333 Z"></path>
        </g>
    </g>
</svg>
