<?xml version="1.0" encoding="UTF-8"?>
<svg width="24px" height="24px" viewBox="0 0 24 24" version="1.1" xmlns="http://www.w3.org/2000/svg" xmlns:xlink="http://www.w3.org/1999/xlink">
    <title>file-pdf</title>
    <g stroke="none" stroke-width="1" fill="none" fill-rule="evenodd">
        <g fill="#414851" fill-rule="nonzero">
            <path d="M19.33,5.165 C20.7134733,5.165 21.835,6.2865267 21.835,7.67 L21.835,7.67 L21.835,16.33 C21.835,17.7134733 20.7134733,18.835 19.33,18.835 L19.33,18.835 L4.67,18.835 C3.2865267,18.835 2.165,17.7134733 2.165,16.33 L2.165,16.33 L2.165,7.67 C2.165,6.2865267 3.2865267,5.165 4.67,5.165 L4.67,5.165 Z M19.33,6.835 L4.67,6.835 C4.20884223,6.835 3.835,7.20884223 3.835,7.67 L3.835,7.67 L3.835,16.33 C3.835,16.7911578 4.20884223,17.165 4.67,17.165 L4.67,17.165 L19.33,17.165 C19.7911578,17.165 20.165,16.7911578 20.165,16.33 L20.165,16.33 L20.165,7.67 C20.165,7.20884223 19.7911578,6.835 19.33,6.835 L19.33,6.835 Z M6.9026,9.25 C7.597,9.25 8.1185,9.4019 8.4664,9.7043 C8.815,10.0081 8.9893,10.44 8.9893,10.9986 C8.9893,11.6132 8.808,12.0878 8.4461,12.4217 C8.0835,12.757 7.5697,12.9236 6.9026,12.9236 L6.4854,12.9236 L6.4854,14.0044 C6.4854,14.4145819 6.15288188,14.7471 5.7427,14.7471 C5.33251812,14.7471 5,14.4145819 5,14.0044 L5,10 C5,9.58578644 5.33578644,9.25 5.75,9.25 L6.9026,9.25 Z M11.7676,9.25 C12.6496,9.25 13.3307,9.4754 13.8109,9.9269 C14.2911,10.3784 14.5312,11.0294 14.5312,11.882 C14.5312,12.7997 14.2785,13.506 13.7731,14.0023 C13.2684,14.4993 12.5586,14.7471 11.6437,14.7471 L10.615,14.7471 C10.2007864,14.7471 9.865,14.4113136 9.865,13.9971 L9.865,10 C9.865,9.58578644 10.2007864,9.25 10.615,9.25 L11.7676,9.25 Z M18.1691,9.25 C18.498096,9.25 18.7648,9.51670397 18.7648,9.8457 C18.7648,10.174696 18.498096,10.4414 18.1691,10.4414 L16.9791,10.4414 L16.9791,11.4907 L18.0305,11.4907 C18.359496,11.4907 18.6262,11.757404 18.6262,12.0864 C18.6262,12.415396 18.359496,12.6821 18.0305,12.6821 L16.9791,12.6821 L16.9791,14.0156 C16.9791,14.4195963 16.6515963,14.7471 16.2476,14.7471 C15.8436037,14.7471 15.5161,14.4195963 15.5161,14.0156 L15.5161,10 C15.5161,9.58578644 15.8518864,9.25 16.2661,9.25 L18.1691,9.25 Z M11.783,10.4491 L11.3504,10.4491 L11.3504,13.5277 L11.6815,13.5277 C12.133,13.5277 12.4634,13.3961 12.6741,13.1343 C12.8848,12.8725 12.9898,12.4735 12.9898,11.9345 C12.9898,11.4305 12.8904,11.0574 12.6909,10.8138 C12.4921,10.5702 12.189,10.4491 11.783,10.4491 Z M6.869,10.4498 L6.4854,10.4498 L6.4854,11.7133 L6.7563,11.7133 C6.9796,11.7133 7.1567,11.6503 7.2883,11.5243 C7.4199,11.399 7.4857,11.2261 7.4857,11.0063 C7.4857,10.6353 7.2806,10.4498 6.869,10.4498 Z"></path>
        </g>
    </g>
</svg>
