<?xml version="1.0" encoding="UTF-8"?>
<svg width="24px" height="24px" viewBox="0 0 24 24" version="1.1" xmlns="http://www.w3.org/2000/svg" xmlns:xlink="http://www.w3.org/1999/xlink">
    <title>file-text</title>
    <g stroke="none" stroke-width="1" fill="none" fill-rule="evenodd">
        <g fill="#2B2B2B" fill-rule="nonzero">
            <path d="M14.5,2.08333333 C14.5390967,2.08333333 14.5774947,2.08632487 14.6149775,2.09209153 C14.6201729,2.09299477 14.6262433,2.09400577 14.6322964,2.09509055 C14.6627176,2.100414 14.6916945,2.10744716 14.719961,2.11610546 C14.7308802,2.11965217 14.7423134,2.12345308 14.7536456,2.12752572 C14.7772912,2.13583244 14.7996893,2.14517777 14.8215074,2.15554557 C14.8332411,2.16128909 14.8456145,2.16756712 14.8578125,2.17418829 C14.8770988,2.18453174 14.89548,2.19559758 14.9133267,2.20740624 C14.9550319,2.23502857 14.9943231,2.26699626 15.0303301,2.30300325 L14.9506597,2.23377448 C14.9532201,2.2357021 14.9557678,2.23764574 14.9583026,2.23960525 L15.0303301,2.30300325 L20.0303301,7.30300325 C20.0552127,7.32788585 20.078355,7.35450873 20.0995589,7.38267365 C20.108648,7.39482562 20.117497,7.40737875 20.1259415,7.42017277 C20.1377358,7.43785336 20.1488016,7.45623454 20.1590805,7.47510615 C20.1657662,7.48771883 20.1720442,7.50009222 20.1779729,7.51262594 C20.1881556,7.53364404 20.1975009,7.55604215 20.2057618,7.5789583 C20.2098803,7.59101991 20.2136812,7.60245317 20.2172063,7.6139777 C20.2289257,7.65156209 20.2376571,7.69104848 20.2431534,7.73156278 L20.25,7.83333333 L20.25,20.1666667 C20.25,21.133165 19.4664983,21.9166667 18.5,21.9166667 L18.5,21.9166667 L5.5,21.9166667 C4.53350169,21.9166667 3.75,21.133165 3.75,20.1666667 L3.75,20.1666667 L3.75,3.83333333 C3.75,2.86683502 4.53350169,2.08333333 5.5,2.08333333 L5.5,2.08333333 L14.5,2.08333333 L14.5,2.08333333 Z M13.75,3.58233333 L5.5,3.58333333 C5.36192881,3.58333333 5.25,3.69526215 5.25,3.83333333 L5.25,3.83333333 L5.25,20.1666667 C5.25,20.3047379 5.36192881,20.4166667 5.5,20.4166667 L5.5,20.4166667 L18.5,20.4166667 C18.6380712,20.4166667 18.75,20.3047379 18.75,20.1666667 L18.75,20.1666667 L18.75,8.58333333 L14.5,8.58333333 C14.1203042,8.58333333 13.806509,8.30117945 13.7568466,7.93510389 L13.75,7.83333333 L13.75,3.58233333 Z M16.1666667,15.4166667 C16.5808802,15.4166667 16.9166667,15.7524531 16.9166667,16.1666667 C16.9166667,16.5463624 16.6345128,16.8601576 16.2684372,16.9098201 L16.1666667,16.9166667 L7.83333333,16.9166667 C7.41911977,16.9166667 7.08333333,16.5808802 7.08333333,16.1666667 C7.08333333,15.7869709 7.36548721,15.4731757 7.73156278,15.4235133 L7.83333333,15.4166667 L16.1666667,15.4166667 Z M16.1666667,11.25 C16.5808802,11.25 16.9166667,11.5857864 16.9166667,12 C16.9166667,12.3796958 16.6345128,12.693491 16.2684372,12.7431534 L16.1666667,12.75 L7.83333333,12.75 C7.41911977,12.75 7.08333333,12.4142136 7.08333333,12 C7.08333333,11.6203042 7.36548721,11.306509 7.73156278,11.2568466 L7.83333333,11.25 L16.1666667,11.25 Z M11.1666667,7.08333333 C11.5808802,7.08333333 11.9166667,7.41911977 11.9166667,7.83333333 C11.9166667,8.2130291 11.6345128,8.52682429 11.2684372,8.57648672 L11.1666667,8.58333333 L7.83333333,8.58333333 C7.41911977,8.58333333 7.08333333,8.2475469 7.08333333,7.83333333 C7.08333333,7.45363757 7.36548721,7.13984237 7.73156278,7.09017995 L7.83333333,7.08333333 L11.1666667,7.08333333 Z"></path>
        </g>
    </g>
</svg>
