<?xml version="1.0" encoding="UTF-8"?>
<svg width="24px" height="24px" viewBox="0 0 24 24" version="1.1" xmlns="http://www.w3.org/2000/svg" xmlns:xlink="http://www.w3.org/1999/xlink">
    <title>file-return-docs</title>
    <g stroke="none" stroke-width="1" fill="none" fill-rule="evenodd">
        <g fill="#414851" fill-rule="nonzero">
            <path d="M14.25,3 C14.2890967,3 14.3274947,3.00299154 14.3649775,3.0087582 C14.3701729,3.00966144 14.3762433,3.01067244 14.3822964,3.01175721 C14.4127176,3.01708067 14.4416945,3.02411383 14.469961,3.03277213 C14.4808802,3.03631883 14.4923134,3.04011974 14.5036456,3.04419239 C14.5272912,3.0524991 14.5496893,3.06184444 14.5715074,3.07221224 C14.5832411,3.07795576 14.5956145,3.08423379 14.6078125,3.09085495 C14.6260368,3.10061997 14.6434097,3.11102129 14.6603087,3.1220864 C14.7031883,3.15019897 14.7434792,3.18281902 14.7803301,3.21966991 L14.7006597,3.15044115 C14.7032201,3.15236877 14.7057678,3.15431241 14.7083026,3.15627192 L14.7803301,3.21966991 L19.2803301,7.71966991 C19.3052127,7.74455252 19.328355,7.7711754 19.3495589,7.79934032 C19.358648,7.81149229 19.367497,7.82404542 19.3759415,7.83683944 C19.3877358,7.85452002 19.3988016,7.8729012 19.4090805,7.89177281 C19.4157662,7.9043855 19.4220442,7.91675889 19.4279729,7.92929261 C19.4381556,7.95031071 19.4475009,7.97270882 19.4557618,7.99562497 C19.4598803,8.00768657 19.4636812,8.01911984 19.4672063,8.03064437 C19.4789257,8.06822876 19.4876571,8.10771515 19.4931534,8.14822944 L19.5,8.25 L19.5018955,13.3836624 C19.0712278,13.1498126 18.5710308,12.9501048 18.0013043,12.7845389 L18,9 L14.25,9 C13.8703042,9 13.556509,8.71784612 13.5068466,8.35177056 L13.5,8.25 L13.5,4.5 L6.92,4.5 C6.44819103,4.5 6.05933341,4.85515697 6.00618951,5.31270856 L6,5.42 L6,18.58 C6,19.088102 6.41189803,19.5 6.92,19.5 L6.92,19.5 L13.146,19.5 L14.638,21 L6.92,21 C5.63693207,21 4.58708257,20.0014732 4.50514751,18.7391157 L4.5,18.58 L4.5,5.42 C4.5,4.08347091 5.58347091,3 6.92,3 L6.92,3 L14.25,3 L14.25,3 Z M15.5666667,12.2 L15.5666667,14.3333333 C17.1,14.4 19.9,15.0333333 19.9,18.6666667 L19.9,18.6666667 L19.9,19.9 L19.2666667,18.8333333 C18.4666667,17.4666667 17.6666667,17.0333333 15.5666667,17 L15.5666667,17 L15.5666667,19.1333333 L12.1,15.6666667 L15.5666667,12.2 Z"></path>
        </g>
    </g>
</svg>
