<?xml version="1.0" encoding="UTF-8"?>
<svg width="24px" height="24px" viewBox="0 0 24 24" version="1.1" xmlns="http://www.w3.org/2000/svg" xmlns:xlink="http://www.w3.org/1999/xlink">
    <title>filter</title>
    <g stroke="none" stroke-width="1" fill="none" fill-rule="evenodd">
        <g transform="translate(1.000000, 1.000000)">
            <rect x="0" y="0" width="22" height="22"></rect>
            <g stroke-linecap="round" stroke-linejoin="round" transform="translate(0.000000, 1.000000)">
                <polygon points="0 0 22 0 22 22 0 22"></polygon>
                <path d="M16.9583333,3.88333333 C17.0372255,3.88333333 17.1155501,3.89666975 17.1899966,3.92277892 C17.6618354,4.08825765 18.0305508,4.46275424 18.1886695,4.93711018 C18.3292194,5.35875991 18.2893106,5.81712713 18.0833294,6.20559025 L17.9983299,6.34777892 L17.9346247,6.42920429 L13.533,11.27 L13.5333333,17.4166667 C13.5333333,17.9595671 12.9499947,18.2831717 12.49664,18.0308193 L12.4133333,17.9766667 L8.74666667,15.2266667 C8.59977993,15.1165016 8.50325998,14.9540631 8.47516685,14.7754712 L8.46666667,14.6666667 L8.466,11.27 L4.06537528,6.42920429 L4.00167008,6.34777892 C3.72348628,5.93229265 3.6532119,5.41146612 3.81133054,4.93711018 C3.95188045,4.51546046 4.25882781,4.17271195 4.65669063,3.98553016 L4.81000342,3.92277892 L4.85557894,3.90833801 L4.91012713,3.89570752 L4.94668081,3.88972351 L5.01058866,3.88383874 L16.9583333,3.88333333 Z M16.793,5.283 L5.206,5.283 L5.19064168,5.29633493 L5.16044753,5.33488688 L5.13948716,5.37982905 C5.12535972,5.42221137 5.12483645,5.4673617 5.13710394,5.50925165 L5.153,5.544 L9.68462472,10.529129 C9.77833408,10.6322093 9.83861531,10.7602714 9.85897943,10.8965307 L9.86666667,11 L9.866,14.316 L12.133,16.016 L12.1333333,11 C12.1333333,10.860691 12.1748727,10.7253832 12.2514624,10.6108611 L12.3153753,10.529129 L16.846,5.544 L16.8628961,5.50925165 C16.8690298,5.48830667 16.8719659,5.4665466 16.8716581,5.44472499 L16.8605128,5.37982905 C16.8499173,5.34804232 16.8322656,5.31960138 16.8093583,5.29633493 L16.793,5.283 Z" fill="#414851" fill-rule="nonzero"></path>
            </g>
        </g>
    </g>
</svg>
