<?xml version="1.0" encoding="UTF-8"?>
<svg width="24px" height="24px" viewBox="0 0 24 24" version="1.1" xmlns="http://www.w3.org/2000/svg" xmlns:xlink="http://www.w3.org/1999/xlink">
    <title>flag</title>
    <g stroke="none" stroke-width="1" fill="none" fill-rule="evenodd">
        <g transform="translate(2.000000, 2.000000)">
            <rect x="0" y="0" width="20" height="20"></rect>
            <g stroke-linecap="round" stroke-linejoin="round">
                <polygon points="0 0 20 0 20 20 0 20"></polygon>
                <path d="M4.16666667,3.41666667 C4.54636243,3.41666667 4.86015763,3.69882055 4.90982005,4.06489611 L4.91666667,4.16666667 L4.91666667,17.5 C4.91666667,17.9142136 4.58088023,18.25 4.16666667,18.25 C3.7869709,18.25 3.47317571,17.9678461 3.42351328,17.6017706 L3.41666667,17.5 L3.41666667,4.16666667 C3.41666667,3.7524531 3.7524531,3.41666667 4.16666667,3.41666667 Z" fill="#414851" fill-rule="nonzero"></path>
                <path d="M15.8333333,3.41666667 C16.2130291,3.41666667 16.5268243,3.69882055 16.5764867,4.06489611 L16.5833333,4.16666667 L16.5833333,11.6666667 C16.5833333,12.0808802 16.2475469,12.4166667 15.8333333,12.4166667 C15.4536376,12.4166667 15.1398424,12.1345128 15.0901799,11.7684372 L15.0833333,11.6666667 L15.0833333,4.16666667 C15.0833333,3.7524531 15.4191198,3.41666667 15.8333333,3.41666667 Z" fill="#414851" fill-rule="nonzero"></path>
                <path d="M3.64166667,3.63105953 C5.49554684,1.8138935 8.42880346,1.75882786 10.3481004,3.46586262 L10.525,3.63105953 C11.8535487,4.93329769 13.9797847,4.93329769 15.3083333,3.63105953 C15.604141,3.34111004 16.078991,3.34585902 16.3689405,3.64166667 C16.65889,3.93747432 16.654141,4.41232431 16.3583333,4.7022738 C14.5044532,6.51943983 11.5711965,6.57450547 9.65189962,4.86747071 L9.475,4.7022738 C8.14645134,3.40003564 6.02021533,3.40003564 4.69166667,4.7022738 C4.39585902,4.99222329 3.92100903,4.98747432 3.63105953,4.69166667 C3.34111004,4.39585902 3.34585902,3.92100903 3.64166667,3.63105953 Z" fill="#414851" fill-rule="nonzero"></path>
                <path d="M3.64166667,11.1310595 C5.49554684,9.3138935 8.42880346,9.25882786 10.3481004,10.9658626 L10.525,11.1310595 C11.8535487,12.4332977 13.9797847,12.4332977 15.3083333,11.1310595 C15.604141,10.84111 16.078991,10.845859 16.3689405,11.1416667 C16.65889,11.4374743 16.654141,11.9123243 16.3583333,12.2022738 C14.5044532,14.0194398 11.5711965,14.0745055 9.65189962,12.3674707 L9.475,12.2022738 C8.14645134,10.9000356 6.02021533,10.9000356 4.69166667,12.2022738 C4.39585902,12.4922233 3.92100903,12.4874743 3.63105953,12.1916667 C3.34111004,11.895859 3.34585902,11.421009 3.64166667,11.1310595 Z" fill="#414851" fill-rule="nonzero"></path>
            </g>
        </g>
    </g>
</svg>
