<svg width="28" height="28" viewBox="0 0 28 28" fill="none" xmlns="http://www.w3.org/2000/svg">
<path d="M12.999 2.38842C13.3454 2.27502 13.7263 2.33901 14.0155 2.55844C15.8506 3.95189 17.1097 5.4761 17.7931 7.24406C18.1041 8.0488 18.2864 8.88266 18.3593 9.74898C18.7788 9.26197 19.1319 8.84291 19.2857 8.6243L19.3597 8.53137C19.5431 8.32355 19.8011 8.19062 20.0824 8.16387C20.4038 8.13336 20.7229 8.244 20.9542 8.4659C22.4266 9.87956 23.0231 11.6745 23.2403 13.4102L23.2939 13.9277C23.7332 19.2233 20.4723 22.8903 16.5225 24.0804C12.4613 25.304 7.59959 23.9135 5.42761 19.0864L5.42653 19.0854C4.12355 16.1804 4.55179 13.2904 6.29186 10.7395C6.87804 9.88084 7.59173 9.12323 8.28308 8.45428L8.28415 8.45322C10.1495 6.65202 11.6182 5.49181 12.288 3.12448L12.332 2.99775C12.4535 2.71143 12.6958 2.48772 12.999 2.38842ZM13.8192 5.24499C12.8092 7.34261 11.2114 8.65534 9.8218 9.99715C9.17481 10.6232 8.57986 11.2626 8.11366 11.9455C6.74675 13.9494 6.47005 16.0575 7.43598 18.211C9.0941 21.8954 12.7235 22.9638 15.8802 22.0127C19.0209 21.0664 21.6215 18.1248 21.0603 13.6764C20.9343 12.6689 20.6694 11.7541 20.1886 10.9708C19.8871 11.3238 19.5593 11.7006 19.2568 12.0427C18.9029 12.4427 18.5676 12.8174 18.3207 13.0913C18.1972 13.2283 18.0954 13.3407 18.0247 13.4187C17.9896 13.4574 17.9621 13.4877 17.9432 13.5085C17.9338 13.5189 17.9267 13.5273 17.9218 13.5327C17.9194 13.5354 17.9166 13.5366 17.9153 13.538L17.9143 13.5401L17.9132 13.5412C17.5863 13.8996 17.0582 14.0015 16.6179 13.7915C16.1775 13.5814 15.9312 13.11 16.0142 12.6351C16.3337 10.8096 16.2449 9.3184 15.7408 8.01391C15.371 7.05717 14.7552 6.14486 13.8192 5.24499Z" fill="#2B2B2B"/>
</svg>
