<?xml version="1.0" encoding="UTF-8"?>
<svg width="24px" height="24px" viewBox="0 0 24 24" version="1.1" xmlns="http://www.w3.org/2000/svg" xmlns:xlink="http://www.w3.org/1999/xlink">
    <title>folder</title>
    <g stroke="none" stroke-width="1" fill="none" fill-rule="evenodd">
        <g fill="#414851" fill-rule="nonzero">
            <g transform="translate(2.000000, 4.000000)">
                <path d="M6.432,0 C7.11507692,0 7.74021302,0.335388257 8.10710605,0.888911733 L8.19333333,1.03176923 L9.06266667,2.61538462 L18,2.61538462 C19.0538182,2.61538462 19.9181157,3.41608137 19.9945109,4.43060056 L20,4.57692308 L20,14.0384615 C20,15.072014 19.1836033,15.9196904 18.1491916,15.9946165 L18,16 L2,16 C0.946181818,16 0.0818842975,15.1993032 0.00548910594,14.1847841 L0,14.0384615 L0,1.96153846 C0,0.927986014 0.816396694,0.0803095995 1.85080841,0.00538354621 L2,0 L6.432,0 Z M6.432,1.5 L2,1.5 C1.7493135,1.5 1.54923016,1.66891718 1.50786209,1.88045894 L1.5,1.96153846 L1.5,14.0384615 C1.5,14.2586861 1.67222928,14.4520727 1.90857574,14.4923287 L2,14.5 L18,14.5 C18.2506865,14.5 18.4507698,14.3310828 18.4921379,14.1195411 L18.5,14.0384615 L18.5,4.57692308 C18.5,4.35669849 18.3277707,4.16331192 18.0914243,4.12305594 L18,4.11538462 L8.17494707,4.11538462 L6.87757441,1.75203199 C6.80697255,1.6230582 6.67989831,1.53401851 6.52676429,1.50792122 L6.432,1.5 Z"></path>
            </g>
        </g>
    </g>
</svg>
