<?xml version="1.0" encoding="UTF-8"?>
<svg width="24px" height="24px" viewBox="0 0 24 24" version="1.1" xmlns="http://www.w3.org/2000/svg" xmlns:xlink="http://www.w3.org/1999/xlink">
    <title>folder-open-fill</title>
    <g stroke="none" stroke-width="1" fill="none" fill-rule="evenodd">
        <g fill="#414851" fill-rule="nonzero">
            <path d="M4.4,4.5 C3.3512,4.5 2.5,5.32384615 2.5,6.33894231 L2.5,17.6610577 C2.5,18.6761538 3.3512,19.5 4.4,19.5 L19.6,19.5 C20.6488,19.5 21.2448424,18.6591817 21.5,17.6610577 C21.7976258,16.496807 22.1768788,14.9280969 22.6377591,12.9549274 C22.8890219,11.8793017 22.22072,10.8036609 21.1450888,10.5524218 C20.9959597,10.5175892 20.8433233,10.5 20.6901803,10.5 L7.00137329,10.5 C6.72523092,10.5 6.50137329,10.2761424 6.50137329,10 L6.50137329,9.66641712 C6.50137329,9.39027475 6.72523092,9.16641712 7.00137329,9.16641712 L21.1244483,9.16641712 C21.3318598,9.16641712 21.5,8.99827688 21.5,8.79086538 L21.5,8.79086538 L21.5,8.79086538 C21.5,7.77576923 20.6488,6.95192308 19.6,6.95192308 L11.1095333,6.95192308 L10.2836667,5.46728365 C9.9518,4.86901442 9.3134,4.5 8.6104,4.5 L4.4,4.5 Z"></path>
        </g>
    </g>
</svg>
