<?xml version="1.0" encoding="UTF-8"?>
<svg width="24px" height="24px" viewBox="0 0 24 24" version="1.1" xmlns="http://www.w3.org/2000/svg" xmlns:xlink="http://www.w3.org/1999/xlink">
    <title>forbidden-return-documents</title>
    <g stroke="none" stroke-width="1" fill="none" fill-rule="evenodd">
        <g transform="translate(-1101.000000, -651.000000)" fill="#414851" fill-rule="nonzero">
            <g transform="translate(301.000000, 593.000000)">
                <g transform="translate(800.000000, 58.000000)">
                    <path d="M21.6326498,4.84249218 C23.1198751,6.8407476 24,9.31759171 24,12 C24,18.627417 18.627417,24 12,24 C9.31759171,24 6.8407476,23.1198751 4.84249218,21.6326498 L5.91641077,20.5590552 C7.63277999,21.7812124 9.73244908,22.5 12,22.5 C17.7989899,22.5 22.5,17.7989899 22.5,12 C22.5,9.73244908 21.7812124,7.63277999 20.5590552,5.91641077 L21.6326498,4.84249218 Z M12,0 C14.6824083,0 17.1592524,0.880124892 19.1575078,2.36735017 L18.0835892,3.44094482 C16.36722,2.21878761 14.2675509,1.5 12,1.5 C6.20101013,1.5 1.5,6.20101013 1.5,12 C1.5,14.2675509 2.21878761,16.36722 3.44094482,18.0835892 L2.36735017,19.1575078 C0.880124892,17.1592524 9.09494702e-13,14.6824083 9.09494702e-13,12 C9.09494702e-13,5.372583 5.372583,0 12,0 Z M14.675,12.15 L14.675,13.75 C15.7901515,13.7984848 17.7985996,14.2466024 17.9192997,16.7584203 L17.925,17 L17.925,17.925 L17.45,17.125 C16.88,16.15125 16.31,15.80925 14.9040594,15.75605 L14.675,15.75 L14.675,17.35 L12.075,14.75 L14.675,12.15 Z M13.125,6.375 L8.19,6.375 C7.8406799,6.375 7.55198832,6.63458157 7.50629889,6.97137109 L7.5,7.065 L7.499,15.44 L13.3230532,9.61598259 C13.2201466,9.52836983 13.1491973,9.40434177 13.130135,9.26382792 L13.125,9.1875 L13.125,6.375 Z M14.0852476,5.41475244 L15.805,7.134 L20.6620581,2.27728176 C20.9549513,1.98438854 21.429825,1.98438854 21.7227182,2.27728176 C21.9889848,2.54354832 22.0131909,2.960212 21.7953364,3.2538235 L21.7227182,3.33794193 L16.865,8.194 L17.4602476,8.78975244 C17.5185655,8.84966103 17.5604333,8.91446331 17.5879704,8.98635864 C17.5918372,8.99690976 17.5953921,9.00708659 17.5986534,9.01736314 C17.6033326,9.03159532 17.6073892,9.04644511 17.6108395,9.06152593 L17.618,9.107 L17.6188432,9.10398849 L17.6193654,9.10757664 L17.619,9.111 L17.6214285,9.12415612 C17.6237991,9.14515018 17.625,9.16626318 17.625,9.1875 L17.6269591,13.0380387 C17.3038421,12.8625284 16.9285218,12.7126522 16.5009982,12.58841 L16.5,9.75 L15.31,9.749 L7.67100619,17.3897067 C7.77806226,17.5118001 7.92751243,17.5957935 8.09637109,17.6187011 L8.19,17.625 L12.86,17.625 L13.979,18.75 L8.19,18.75 C7.67214852,18.75 7.20495093,18.5331249 6.87427927,18.1852469 L3.33794193,21.7227182 C3.04504871,22.0156115 2.57017498,22.0156115 2.27728176,21.7227182 C2.0110152,21.4564517 1.98680914,21.039788 2.20466361,20.7461765 L2.27728176,20.6620581 L6.374,16.565 L6.375,7.065 C6.375,6.11272302 7.10837437,5.3317348 8.04114178,5.25601667 L8.19,5.25 L13.6875,5.25 C13.7421532,5.25 13.7949859,5.25779443 13.8449471,5.27233231 C13.8507505,5.27417366 13.8566947,5.27601246 13.8626051,5.27794869 L13.8907197,5.28785005 L13.8907197,5.28785005 L13.9181449,5.29930845 C13.9274931,5.30366412 13.9366888,5.30810338 13.9457618,5.31279225 C13.9620203,5.32106776 13.9780687,5.33040812 13.9935886,5.34049316 L14.027,5.365 L14.0191109,5.35809481 L14.0331505,5.36869751 L14.0331505,5.36869751 L14.0411412,5.37505596 L14.0411412,5.37505596 L14.031,5.368 L14.0852476,5.41475244 L14.0852476,5.41475244 Z"></path>
                </g>
            </g>
        </g>
    </g>
</svg>
