<?xml version="1.0" encoding="UTF-8"?>
<svg width="24px" height="24px" viewBox="0 0 24 24" version="1.1" xmlns="http://www.w3.org/2000/svg" xmlns:xlink="http://www.w3.org/1999/xlink">
    <title>forward</title>
    <g stroke="none" stroke-width="1" fill="none" fill-rule="evenodd">
        <g fill="#414851" fill-rule="nonzero">
            <path d="M14.5833333,3.66666667 L14.5831173,7.09566667 C6.10253495,7.38499263 1.69896173,12.5285144 2.08478843,18.7133628 C2.13979551,19.5951329 3.40819204,19.6729379 3.57055887,18.8045018 L3.59478224,18.6863492 C3.89683029,17.3350215 4.98792997,16.3866761 7.53678456,15.8334955 L8.00185094,15.7399759 C8.16200795,15.710169 8.32734519,15.6817278 8.49799879,15.6546508 L9.02604475,15.5775108 L9.58680548,15.5085462 L10.1810976,15.4477476 C10.282986,15.4382945 10.3863055,15.4291812 10.4910732,15.4204075 L11.1371937,15.3718399 C11.2478222,15.3644241 11.3599329,15.3573475 11.4735428,15.3506099 L12.1733292,15.3142518 L12.9099135,15.2860214 L13.6841126,15.2659092 L14.5831173,15.2526667 L14.5833333,18.6666667 C14.5833333,19.3517848 15.4263104,19.678221 15.8877306,19.1717842 L22.7210639,11.6717842 C22.9818676,11.3855362 22.9818676,10.9477971 22.7210639,10.6615492 L15.8877306,3.16154917 C15.4263104,2.65511235 14.5833333,2.98154853 14.5833333,3.66666667 Z M16.0831173,5.60366667 L21.1511173,11.1666667 L16.0831173,16.7286667 L16.0833333,14.5 C16.0833333,14.0857864 15.7475469,13.75 15.3333333,13.75 L14.41222,13.7550742 L13.4842268,13.7714847 L12.5994532,13.7993661 C12.4555463,13.8049756 12.3134054,13.811068 12.1730133,13.8176458 L11.3515058,13.8629582 C7.74790205,14.0932578 5.39378003,14.6810861 3.94723504,15.675586 L3.81511726,15.7686667 L3.8348363,15.6868251 C4.85785761,11.5851216 8.74264638,8.58333333 15.3333333,8.58333333 C15.7475469,8.58333333 16.0833333,8.2475469 16.0833333,7.83333333 L16.0831173,5.60366667 Z"></path>
        </g>
    </g>
</svg>
