<?xml version="1.0" encoding="UTF-8"?>
<svg width="24px" height="24px" viewBox="0 0 24 24" version="1.1" xmlns="http://www.w3.org/2000/svg" xmlns:xlink="http://www.w3.org/1999/xlink">
    <title>gift</title>
    <g stroke="none" stroke-width="1" fill="none" fill-rule="evenodd">
        <g fill="#414851" fill-rule="nonzero">
            <path d="M15.75,3.75 C17.3148068,3.75 18.5833333,5.01852654 18.5833333,6.58333333 C18.5833333,7.06575421 18.4627658,7.52001503 18.2501195,7.91762711 L18.6666667,7.91666667 C19.5411175,7.91666667 20.25,8.62554915 20.25,9.5 L20.25,9.5 L20.25,11.1666667 C20.25,12.0411175 19.5411175,12.75 18.6666667,12.75 L18.6666667,12.75 L18.583,12.7496199 L18.5833333,17.8333333 C18.5833333,19.114634 17.5861819,20.1630374 16.3255632,20.2448596 L16.1666667,20.25 L7.83333333,20.25 C6.55203271,20.25 5.50362928,19.2528486 5.42180709,17.9922298 L5.41666667,17.8333333 L5.416,12.7496199 L5.33333333,12.75 C4.50746308,12.75 3.82927573,12.1176943 3.75647057,11.3107823 L3.75,11.1666667 L3.75,9.5 C3.75,8.62554915 4.45888248,7.91666667 5.33333333,7.91666667 L5.33333333,7.91666667 L5.74988051,7.91762711 C5.53723418,7.52001503 5.41666667,7.06575421 5.41666667,6.58333333 C5.41666667,5.01852654 6.68519321,3.75 8.23693491,3.75011381 C9.72032551,3.72426904 11.0352266,4.71444179 11.9138578,6.32977792 L11.999,6.493 L12.0858515,6.32977539 C12.9255709,4.78466508 14.1627115,3.81152276 15.5586788,3.75236907 L15.75,3.75 Z M11.25,12.7496199 L6.916,12.7496199 L6.91666667,17.8333333 C6.91666667,18.3034329 7.27053684,18.6908816 7.72643064,18.7438329 L7.83333333,18.75 L11.25,18.7496199 L11.25,12.7496199 Z M17.083,12.7496199 L12.75,12.7496199 L12.75,18.7496199 L16.1666667,18.75 C16.6367662,18.75 17.0242149,18.3961298 17.0771662,17.940236 L17.0833333,17.8333333 L17.083,12.7496199 Z M11.25,9.41661993 L5.33333333,9.41666667 C5.2873096,9.41666667 5.25,9.45397627 5.25,9.5 L5.25,9.5 L5.25,11.1666667 C5.25,11.2126904 5.2873096,11.25 5.33333333,11.25 L5.33333333,11.25 L11.25,11.2496199 L11.25,9.41661993 Z M18.6666667,9.41666667 L12.75,9.41661993 L12.75,11.2496199 L18.6666667,11.25 C18.7011845,11.25 18.7308006,11.2290133 18.7434513,11.1991038 L18.75,11.1666667 L18.75,9.5 C18.75,9.45397627 18.7126904,9.41666667 18.6666667,9.41666667 L18.6666667,9.41666667 Z M8.25,5.25 C7.51362033,5.25 6.91666667,5.84695367 6.91666667,6.58333333 C6.91666667,7.27639655 7.44545607,7.84595438 8.1215911,7.91056304 L8.25,7.91666667 L10.9897991,7.91671537 C10.3649638,6.23115619 9.30801693,5.23166357 8.25,5.25 Z M15.7369349,5.24988619 C14.6900692,5.23164689 13.6347559,6.23115375 13.0101599,7.91671501 L15.75,7.91666667 C16.4863797,7.91666667 17.0833333,7.319713 17.0833333,6.58333333 C17.0833333,5.84695367 16.4863797,5.25 15.7369349,5.24988619 Z"></path>
        </g>
    </g>
</svg>
