<?xml version="1.0" encoding="UTF-8"?>
<svg width="24" height="24" viewBox="0 0 24 24" fill="none" xmlns="http://www.w3.org/2000/svg">
<path fill-rule="evenodd" clip-rule="evenodd" d="M7.30888 12.75C7.66846 15.017 9.63185 16.75 12 16.75C14.3682 16.75 16.3315 15.017 16.6911 12.75H21.25C21.6642 12.75 22 12.4142 22 12C22 11.5858 21.6642 11.25 21.25 11.25H16.6911C16.3315 8.98301 14.3682 7.25 12 7.25C9.63185 7.25 7.66846 8.98301 7.30888 11.25H2.75C2.33579 11.25 2 11.5858 2 12C2 12.4142 2.33579 12.75 2.75 12.75H7.30888ZM12 8.75C10.2051 8.75 8.75 10.2051 8.75 12C8.75 13.7949 10.2051 15.25 12 15.25C13.7949 15.25 15.25 13.7949 15.25 12C15.25 10.2051 13.7949 8.75 12 8.75Z" fill="#2B2B2B"/>
</svg>
