<?xml version="1.0" encoding="UTF-8"?>
<svg width="24" height="24" viewBox="0 0 24 24" fill="none" xmlns="http://www.w3.org/2000/svg">
<path fill-rule="evenodd" clip-rule="evenodd" d="M4 6C4 4.34315 5.34315 3 7 3C8.65685 3 10 4.34315 10 6C10 7.39788 9.04392 8.57245 7.75 8.90549V11.5499C8.12503 11.3581 8.54989 11.25 9 11.25H15C15.6904 11.25 16.25 10.6904 16.25 10V8.90549C14.9561 8.57245 14 7.39788 14 6C14 4.34315 15.3431 3 17 3C18.6569 3 20 4.34315 20 6C20 7.39788 19.0439 8.57245 17.75 8.90549V10C17.75 11.5188 16.5188 12.75 15 12.75H9C8.30964 12.75 7.75 13.3096 7.75 14V15.0945C9.04392 15.4275 10 16.6021 10 18C10 19.6569 8.65685 21 7 21C5.34315 21 4 19.6569 4 18C4 16.6021 4.95608 15.4275 6.25 15.0945V8.90549C4.95608 8.57245 4 7.39788 4 6ZM7 4.5C6.17157 4.5 5.5 5.17157 5.5 6C5.5 6.82843 6.17157 7.5 7 7.5C7.82843 7.5 8.5 6.82843 8.5 6C8.5 5.17157 7.82843 4.5 7 4.5ZM7 16.5C6.17157 16.5 5.5 17.1716 5.5 18C5.5 18.8284 6.17157 19.5 7 19.5C7.82843 19.5 8.5 18.8284 8.5 18C8.5 17.1716 7.82843 16.5 7 16.5ZM15.5 6C15.5 5.17157 16.1716 4.5 17 4.5C17.8284 4.5 18.5 5.17157 18.5 6C18.5 6.82843 17.8284 7.5 17 7.5C16.1716 7.5 15.5 6.82843 15.5 6Z" fill="#2B2B2B"/>
</svg>
