<?xml version="1.0" encoding="UTF-8"?>
<svg width="24px" height="24px" viewBox="0 0 24 24" version="1.1" xmlns="http://www.w3.org/2000/svg" xmlns:xlink="http://www.w3.org/1999/xlink">
    <title>globe</title>
    <g stroke="none" stroke-width="1" fill="none" fill-rule="evenodd">
        <g transform="translate(2.000000, 2.000000)">
            <rect x="0" y="0" width="20" height="20"></rect>
            <g stroke-linecap="round" stroke-linejoin="round" fill="#414851" fill-rule="nonzero">
                <path d="M10.5786736,0.871174137 L10.6441845,0.8848553 C15.3900977,1.21538995 19.1375,5.17006863 19.1375,10 C19.1375,14.8312935 15.3879838,18.7868405 10.6401691,19.1154235 C10.5528078,19.1382346 10.4613309,19.14351 10.3709432,19.1308099 L10.2647062,19.1337395 L10.2647062,19.1337395 L10,19.1375 C9.87578152,19.1375 9.75214197,19.1350213 9.62912811,19.1301107 C9.53866913,19.14351 9.44719223,19.1382346 9.35987962,19.1161998 C4.61201616,18.7868405 0.8625,14.8312935 0.8625,10 C0.8625,5.17006863 4.60990227,1.21538995 9.35581548,0.8848553 C9.44504912,0.861763856 9.53864355,0.856215557 9.63105833,0.869474347 L9.73529384,0.866260537 L9.73529384,0.866260537 L10,0.8625 C10.1235452,0.8625 10.2465177,0.864951886 10.3688716,0.869809651 C10.4389901,0.859424467 10.5097163,0.860179855 10.5786736,0.871174137 Z M11.7753723,13.5130596 L8.22462767,13.5130596 C8.5714359,14.9777197 9.13822871,16.402564 9.9250061,17.7370809 L10,17.7375 C10.0250545,17.7375 10.0500813,17.7373809 10.0750797,17.7371433 C10.8617713,16.402564 11.4285641,14.9777197 11.7753723,13.5130596 Z M16.8956745,13.5134106 L13.2108616,13.5124923 C12.9129792,14.8927318 12.4374255,16.2435585 11.7842008,17.5298859 C14.0170866,17.0039666 15.876824,15.5090924 16.8956745,13.5134106 Z M6.78913836,13.5124923 L3.10432547,13.5134106 C4.12317604,15.5090924 5.98291335,17.0039666 8.21643287,17.5309287 C7.56257445,16.2435585 7.08702083,14.8927318 6.78913836,13.5124923 Z M6.54901732,7.88765933 L2.55438573,7.88755129 C2.36425035,8.55902558 2.2625,9.26763025 2.2625,10 C2.2625,10.7327318 2.36435097,11.441675 2.55466776,12.1134444 L6.54914516,12.1133404 C6.36975061,10.7107152 6.369708,9.290293 6.54901732,7.88765933 Z M12.0385381,7.88785933 L7.96146186,7.88785933 C7.76555587,9.28921374 7.76560244,10.7117954 7.96160156,12.1131397 L12.0383984,12.1131397 C12.2343976,10.7117954 12.2344441,9.28921374 12.0385381,7.88785933 Z M17.4456143,7.88755129 L13.4509827,7.88765933 C13.630292,9.290293 13.6302494,10.7107152 13.4508548,12.1133404 L17.4453322,12.1134444 C17.635649,11.441675 17.7375,10.7327318 17.7375,10 C17.7375,9.26763025 17.6357496,8.55902558 17.4456143,7.88755129 Z M8.21590219,2.46991138 L8.0948256,2.49881041 C5.91525458,3.05068398 4.10425343,4.52754399 3.10401499,6.48719759 L6.7891255,6.48756729 C7.08702279,5.10723452 7.56261502,3.75631806 8.21590219,2.46991138 Z M10,2.2625 L9.92441884,2.26391527 C9.13776771,3.59844868 8.57109177,5.023293 8.22439102,6.48794004 L11.775609,6.48794004 C11.4289082,5.023293 10.8622323,3.59844868 10.0755812,2.26391527 L10,2.2625 L10,2.2625 Z M11.7835671,2.46907132 L11.8191384,2.53931205 C12.4544175,3.80487124 12.9183295,5.13203488 13.2108745,6.48756729 L16.895985,6.48719759 C15.8772018,4.49121133 14.0173135,2.99608694 11.7835671,2.46907132 Z"></path>
            </g>
        </g>
    </g>
</svg>
