<?xml version="1.0" encoding="UTF-8"?>
<svg width="24px" height="24px" viewBox="0 0 24 24" version="1.1" xmlns="http://www.w3.org/2000/svg" xmlns:xlink="http://www.w3.org/1999/xlink">
    <title>globe-checkmark</title>
    <g stroke="none" stroke-width="1" fill="none" fill-rule="evenodd">
        <g fill="#414851" fill-rule="nonzero">
            <path d="M12.5786736,2.87117414 L12.6441845,2.8848553 C17.2496439,3.20560788 20.9148191,6.93916789 21.1277248,11.5735501 L20.6933819,11.1106736 C20.4077378,10.8061172 20.0120452,10.6709556 19.6287223,10.7051886 C19.5829268,10.4277729 19.5212669,10.1547229 19.4456143,9.88755129 L15.4509827,9.88765933 C15.630292,11.290293 15.6302494,12.7107152 15.4508548,14.1133404 L15.9795,14.1124075 L14.751,15.423 L13.5215,14.1124075 L14.0383984,14.1131397 C14.2343976,12.7117954 14.2344441,11.2892137 14.0385381,9.88785933 L9.96146186,9.88785933 C9.76555587,11.2892137 9.76560244,12.7117954 9.96160156,14.1131397 L10.9875,14.1124075 L10.051792,15.1106736 C9.58273603,15.6107853 9.58273601,16.3892146 10.0517919,16.8893264 L11.0061457,17.9081922 C11.2689583,18.5327142 11.5752451,19.143823 11.9250061,19.7370809 L12,19.7375 C12.0250545,19.7375 12.0500813,19.7373809 12.0750797,19.7371433 C12.1590687,19.5944748 12.2406315,19.4508373 12.3196823,19.30623 L13.8034004,20.8893264 L13.8703107,20.9459195 C13.4692729,21.0293361 13.0585979,21.0864652 12.6401691,21.1154235 C12.5528078,21.1382346 12.4613309,21.14351 12.3709432,21.1308099 L12.2647062,21.1337395 L12.2647062,21.1337395 L12,21.1375 C11.8757815,21.1375 11.752142,21.1350213 11.6291281,21.1301107 C11.5386691,21.14351 11.4471922,21.1382346 11.3598796,21.1161998 C6.61201616,20.7868405 2.8625,16.8312935 2.8625,12 C2.8625,7.17006863 6.60990227,3.21538995 11.3558155,2.8848553 C11.4450491,2.86176386 11.5386435,2.85621556 11.6310583,2.86947435 L11.7352938,2.86626054 L11.7352938,2.86626054 L12,2.8625 C12.1235452,2.8625 12.2465177,2.86495189 12.3688716,2.86980965 C12.4389901,2.85942447 12.5097163,2.86017986 12.5786736,2.87117414 Z M19.7451738,12 L21,13.3379072 L14.7516085,20 L11,16 L12.2548262,14.6620928 L14.7516085,17.3241856 L19.7451738,12 Z M8.78913836,15.5124923 L5.10432547,15.5134106 C6.12317604,17.5090924 7.98291335,19.0039666 10.2164329,19.5309287 C9.56257445,18.2435585 9.08702083,16.8927318 8.78913836,15.5124923 Z M8.54901732,9.88765933 L4.55438573,9.88755129 C4.36425035,10.5590256 4.2625,11.2676303 4.2625,12 C4.2625,12.7327318 4.36435097,13.441675 4.55466776,14.1134444 L8.54914516,14.1133404 C8.36975061,12.7107152 8.369708,11.290293 8.54901732,9.88765933 Z M10.2159022,4.46991138 L10.0948256,4.49881041 C7.91525458,5.05068398 6.10425343,6.52754399 5.10401499,8.48719759 L8.7891255,8.48756729 C9.08702279,7.10723452 9.56261502,5.75631806 10.2159022,4.46991138 Z M12,4.2625 L11.9244188,4.26391527 C11.1377677,5.59844868 10.5710918,7.023293 10.224391,8.48794004 L13.775609,8.48794004 C13.4289082,7.023293 12.8622323,5.59844868 12.0755812,4.26391527 L12,4.2625 L12,4.2625 Z M13.7835671,4.46907132 L13.8191384,4.53931205 C14.4544175,5.80487124 14.9183295,7.13203488 15.2108745,8.48756729 L18.895985,8.48719759 C17.8772018,6.49121133 16.0173135,4.99608694 13.7835671,4.46907132 Z"></path>
        </g>
    </g>
</svg>
