<?xml version="1.0" encoding="UTF-8"?>
<svg width="24px" height="24px" viewBox="0 0 24 24" version="1.1" xmlns="http://www.w3.org/2000/svg" xmlns:xlink="http://www.w3.org/1999/xlink">
    <title>half</title>
    <g stroke="none" stroke-width="1" fill="none" fill-rule="evenodd">
        <g transform="translate(3.000000, 3.000000)">
            <rect x="0" y="0" width="18" height="18"></rect>
            <g transform="translate(0.750000, 0.750000)" fill="#414851" fill-rule="nonzero">
                <path d="M8.25,0 C3.70125,0 5.68434189e-13,3.70125 5.68434189e-13,8.25 C5.68434189e-13,12.79875 3.70125,16.5 8.25,16.5 C12.79875,16.5 16.5,12.79875 16.5,8.25 C16.5,3.70125 12.79875,0 8.25,0 Z M1.5,8.25 C1.5,4.52775 4.5285,1.5 8.25,1.5 L8.25,15 C4.5285,15 1.5,11.97225 1.5,8.25 Z" transform="translate(8.250000, 8.250000) rotate(-270.000000) translate(-8.250000, -8.250000) "></path>
            </g>
        </g>
    </g>
</svg>
