<?xml version="1.0" encoding="UTF-8"?>
<svg width="24px" height="24px" viewBox="0 0 24 24" version="1.1" xmlns="http://www.w3.org/2000/svg" xmlns:xlink="http://www.w3.org/1999/xlink">
    <title>headset</title>
    <g stroke="none" stroke-width="1" fill="none" fill-rule="evenodd">
        <g fill="#414851" fill-rule="nonzero">
            <path d="M12.8333333,2.08333333 C16.3918544,2.08333333 19.2909315,4.90669719 19.4126855,8.4355459 L19.415143,8.54989956 C20.9084322,9.39379984 21.9166667,10.9960043 21.9166667,12.8333333 C21.9166667,15.5483802 19.7150469,17.75 17,17.75 C16.6674055,17.75 16.3387591,17.7164948 16.0165184,17.65065 C15.6673951,17.5793121 15.4166667,17.2721704 15.4166667,16.9158333 L15.4166667,16.9158333 L15.4166667,8.75083333 C15.4166667,8.39449623 15.6673951,8.08735457 16.0165184,8.0160167 C16.3387591,7.95017185 16.6674055,7.91666667 17,7.91666667 C17.2973992,7.91666667 17.5886381,7.94308268 17.871498,7.99369596 C17.5526164,5.57397814 15.530267,3.69100757 13.0482134,3.58779284 L12.8333333,3.58333333 L11.1666667,3.58333333 C8.58739294,3.58333333 6.45679503,5.50429744 6.12749909,7.99359949 C6.4106709,7.94314539 6.70224798,7.91666667 7,7.91666667 C7.33259451,7.91666667 7.66124094,7.95017185 7.98348162,8.0160167 C8.33260486,8.08735457 8.58333333,8.39449623 8.58333333,8.75083333 L8.58333333,8.75083333 L8.58333333,16.9158333 C8.58333333,17.2721704 8.33260486,17.5793121 7.98348162,17.65065 C7.66124094,17.7164948 7.33259451,17.75 7,17.75 C6.68672536,17.75 6.38028628,17.7206885 6.08327616,17.6646589 L6.08333333,17.8333333 C6.08333333,19.2050831 7.15278004,20.3272894 8.50330496,20.4115838 L8.66666667,20.4166667 L12,20.4166667 C12.4142136,20.4166667 12.75,20.7524531 12.75,21.1666667 C12.75,21.5463624 12.4678461,21.8601576 12.1017706,21.9098201 L12,21.9166667 L8.66666667,21.9166667 C6.47995453,21.9166667 4.69453045,20.1975066 4.58833094,18.0371229 L4.58333333,17.8333333 L4.58386857,17.1162084 C3.09112287,16.2721598 2.08333333,14.670257 2.08333333,12.8333333 C2.08333333,10.9955989 3.09201275,9.39309279 4.58584556,8.54934104 L4.58333333,8.66666667 C4.58333333,5.10814559 7.40669719,2.20906852 10.9355459,2.08731445 L11.1666667,2.08333333 L12.8333333,2.08333333 Z M7,9.41666667 C5.11338023,9.41666667 3.58333333,10.9467136 3.58333333,12.8333333 C3.58333333,14.7199531 5.11338023,16.25 7,16.25 L7,16.25 L7.08333333,16.2463333 L7.08333333,9.41933333 Z M17,9.41666667 L16.9163333,9.41933333 L16.9163333,16.2463333 L17,16.25 C18.8237324,16.25 20.3142673,14.8202562 20.41161,13.0207633 L20.41161,13.0207633 L20.4166667,12.8333333 C20.4166667,11.4541629 19.5990083,10.2655452 18.4221228,9.72591168 C18.3874471,9.71556426 18.354667,9.70148075 18.3231853,9.68523353 C17.9169802,9.51143608 17.469533,9.41666667 17,9.41666667 L17,9.41666667 Z"></path>
        </g>
    </g>
</svg>
