<?xml version="1.0" encoding="UTF-8"?>
<svg width="24px" height="24px" viewBox="0 0 24 24" version="1.1" xmlns="http://www.w3.org/2000/svg" xmlns:xlink="http://www.w3.org/1999/xlink">
    <title>heart</title>
    <g stroke="none" stroke-width="1" fill="none" fill-rule="evenodd">
        <g fill="#414851" fill-rule="nonzero">
            <path d="M16.1666667,3.66666667 C14.9325379,3.66666667 13.7670175,4.21467409 12.6887357,5.10840122 L12.4869048,5.28037015 C12.3563574,5.39470329 12.2338863,5.50813126 12.1198689,5.6189767 L11.9996667,5.738 L11.8801311,5.6189767 C11.709105,5.45270854 11.519058,5.28062968 11.3112643,5.10840122 C10.2329825,4.21467409 9.06746208,3.66666667 7.83333333,3.66666667 C5.07396545,3.66666667 2.83333333,5.88470365 2.83333333,8.625 C2.83333333,12.307928 5.10007173,16.2403243 11.1369028,19.9515771 C11.668346,20.2749467 12.331654,20.2749467 12.8598308,19.9535749 C18.8999283,16.2403243 21.1666667,12.307928 21.1666667,8.625 C21.1666667,5.88470365 18.9260345,3.66666667 16.1666667,3.66666667 Z M16.1666667,5.33333333 C18.0093201,5.33333333 19.5,6.80898079 19.5,8.625 L19.4972054,8.8273033 C19.4149833,11.8006453 17.5076477,15.0460455 12.3471464,18.309241 L11.9996667,18.525 C6.45933051,15.1195253 4.5,11.7204282 4.5,8.625 C4.5,6.80898079 5.99067987,5.33333333 7.83333333,5.33333333 C8.61243375,5.33333333 9.44081955,5.72282591 10.247694,6.39159878 C10.5441543,6.63731801 10.8151054,6.90232422 11.0530157,7.16675053 L11.1992064,7.3338942 L11.2997607,7.45635014 C11.3125808,7.47261081 11.3233975,7.48669099 11.3321598,7.49843142 C11.6654244,7.9449673 12.3345756,7.9449673 12.6678402,7.49843142 L12.744659,7.40118589 L12.8683373,7.25543058 C12.8927194,7.22752022 12.9189521,7.19790712 12.9469843,7.16675053 C13.1848946,6.90232422 13.4558457,6.63731801 13.752306,6.39159878 C14.5591805,5.72282591 15.3875663,5.33333333 16.1666667,5.33333333 Z"></path>
        </g>
    </g>
</svg>
