<?xml version="1.0" encoding="UTF-8"?>
<svg width="24px" height="24px" viewBox="0 0 24 24" version="1.1" xmlns="http://www.w3.org/2000/svg" xmlns:xlink="http://www.w3.org/1999/xlink">
    <title>heart-fill</title>
    <g stroke="none" stroke-width="1" fill="none" fill-rule="evenodd">
        <g fill="#414851" fill-rule="nonzero">
            <path d="M16.1666667,3.66666667 C14.9325379,3.66666667 13.7670175,4.21467409 12.6887357,5.10840122 L12.4869048,5.28037015 C12.3563574,5.39470329 12.2338863,5.50813126 12.1198689,5.6189767 L11.9996667,5.738 L11.8801311,5.6189767 C11.709105,5.45270854 11.519058,5.28062968 11.3112643,5.10840122 C10.2329825,4.21467409 9.06746208,3.66666667 7.83333333,3.66666667 C5.07396545,3.66666667 2.83333333,5.88470365 2.83333333,8.625 C2.83333333,12.307928 5.10007173,16.2403243 11.1369028,19.9515771 C11.668346,20.2749467 12.331654,20.2749467 12.8598308,19.9535749 C18.8999283,16.2403243 21.1666667,12.307928 21.1666667,8.625 C21.1666667,5.88470365 18.9260345,3.66666667 16.1666667,3.66666667 Z"></path>
        </g>
    </g>
</svg>
