<?xml version="1.0" encoding="UTF-8"?>
<svg width="24px" height="24px" viewBox="0 0 24 24" version="1.1" xmlns="http://www.w3.org/2000/svg" xmlns:xlink="http://www.w3.org/1999/xlink">
    <title>image-single</title>
    <g stroke="none" stroke-width="1" fill="none" fill-rule="evenodd" stroke-linecap="square">
        <g fill="#414851" fill-rule="nonzero">
            <g transform="translate(2.000000, 5.000000)">
                <g transform="translate(0.750000, 0.000000)">
                    <path d="M17.5,0 L1,0 C0.585786438,0 0.25,0.335786438 0.25,0.75 L0.25,14.25 C0.25,14.6642136 0.585786438,15 1,15 L17.5,15 C17.9142136,15 18.25,14.6642136 18.25,14.25 L18.25,0.75 C18.25,0.335786438 17.9142136,0 17.5,0 Z M16.75,1.5 L16.75,13.5 L1.75,13.5 L1.75,1.5 L16.75,1.5 Z"></path>
                    <path d="M11.0017271,4.68944301 L4.25172712,10.689443 C3.73628538,11.1476134 4.06036217,12 4.75,12 L14.5,12 C15.0575365,12 15.4201583,11.4132656 15.1708204,10.9145898 L12.1708204,4.9145898 C11.9501129,4.47317479 11.3705863,4.36156817 11.0017271,4.68944301 Z M11.267,6.46 L13.286,10.5 L6.722,10.5 L11.267,6.46 Z"></path>
                    <circle cx="5.5" cy="4.5" r="1.5"></circle>
                </g>
            </g>
        </g>
    </g>
</svg>
