<?xml version="1.0" encoding="UTF-8"?>
<svg width="24px" height="24px" viewBox="0 0 24 24" version="1.1" xmlns="http://www.w3.org/2000/svg" xmlns:xlink="http://www.w3.org/1999/xlink">
    <title>image-stacked</title>
    <g stroke="none" stroke-width="1" fill="none" fill-rule="evenodd">
        <g transform="translate(3.000000, 3.000000)">
            <rect x="0" y="0" width="18" height="18"></rect>
            <g stroke-linecap="square" fill="#414851" fill-rule="nonzero">
                <path d="M17.25,3 L0.75,3 C0.335786438,3 0,3.33578644 0,3.75 L0,17.25 C0,17.6642136 0.335786438,18 0.75,18 L17.25,18 C17.6642136,18 18,17.6642136 18,17.25 L18,3.75 C18,3.33578644 17.6642136,3 17.25,3 Z M16.5,4.5 L16.5,16.5 L1.5,16.5 L1.5,4.5 L16.5,4.5 Z"></path>
                <path d="M13.5,0 C13.9142136,0 14.25,0.335786438 14.25,0.75 C14.25,1.12969577 13.9678461,1.44349096 13.6017706,1.49315338 L13.5,1.5 L4.5,1.5 C4.08578644,1.5 3.75,1.16421356 3.75,0.75 C3.75,0.370304234 4.03215388,0.0565090391 4.39822944,0.006846616 L4.5,0 L13.5,0 Z"></path>
                <path d="M10.7517271,7.68944301 L4.00172712,13.689443 C3.48628538,14.1476134 3.81036217,15 4.5,15 L14.25,15 C14.8075365,15 15.1701583,14.4132656 14.9208204,13.9145898 L11.9208204,7.9145898 C11.7001129,7.47317479 11.1205863,7.36156817 10.7517271,7.68944301 Z M11.017,9.46 L13.036,13.5 L6.472,13.5 L11.017,9.46 Z"></path>
                <circle cx="5.25" cy="7.5" r="1.5"></circle>
            </g>
        </g>
    </g>
</svg>
