<?xml version="1.0" encoding="UTF-8"?>
<svg width="24px" height="24px" viewBox="0 0 24 24" version="1.1" xmlns="http://www.w3.org/2000/svg" xmlns:xlink="http://www.w3.org/1999/xlink">
    <title>import</title>
    <g stroke="none" stroke-width="1" fill="none" fill-rule="evenodd">
        <g fill="#414851" fill-rule="nonzero">
            <path d="M18.6666667,14.4666667 C19.0210494,14.4666667 19.3139249,14.7300103 19.3602765,15.0716808 L19.3666667,15.1666667 L19.3666667,16.8333333 C19.3666667,18.0859458 18.3935337,19.1112709 17.1620365,19.19454 L17,19.2 L7,19.2 C5.7473875,19.2 4.72206238,18.2268671 4.6387933,16.9953699 L4.63333333,16.8333333 L4.63333333,15.1666667 C4.63333333,14.7800673 4.94673401,14.4666667 5.33333333,14.4666667 C5.68771605,14.4666667 5.98059156,14.7300103 6.02694316,15.0716808 L6.03333333,15.1666667 L6.03333333,16.8333333 C6.03333333,17.3290746 6.40650552,17.7376569 6.88726625,17.7934965 L7,17.8 L17,17.8 C17.4957413,17.8 17.9043236,17.4268278 17.9601632,16.9460671 L17.9666667,16.8333333 L17.9666667,15.1666667 C17.9666667,14.7800673 18.2800673,14.4666667 18.6666667,14.4666667 Z M12,3.63333333 C12.0708765,3.63333333 12.1392928,3.64386708 12.2037686,3.66345443 C12.2275041,3.67076158 12.2493843,3.67865921 12.2709052,3.6876798 C12.2808363,3.69185343 12.2907051,3.6962726 12.3004499,3.70091036 C12.3156148,3.70808802 12.3304418,3.7157972 12.3450349,3.7240724 C12.3637997,3.73478694 12.3820163,3.74627471 12.3996416,3.75855242 L12.4082089,3.7645495 L12.4082089,3.7645495 L12.427203,3.77876534 C12.4459206,3.79320551 12.4638868,3.80857216 12.481033,3.8247966 L12.4949747,3.83835859 L16.6616414,8.00502525 C16.9350084,8.27839226 16.9350084,8.72160774 16.6616414,8.99497475 C16.4156111,9.24100505 16.0320035,9.26560808 15.7584578,9.06878384 L15.6716919,8.99497475 L12.7006667,6.02433333 L12.7,14.3333333 C12.7,14.7199327 12.3865993,15.0333333 12,15.0333333 C11.6456173,15.0333333 11.3527418,14.7699897 11.3063902,14.4283192 L11.3,14.3333333 L11.3006667,6.02433333 L8.32830808,8.99497475 C8.05494108,9.26834175 7.61172559,9.26834175 7.33835859,8.99497475 C7.09232828,8.74894444 7.06772525,8.36533687 7.2645495,8.09179111 L7.33835859,8.00502525 L11.5050253,3.83835859 L11.5793333,3.77433333 L11.6033732,3.75639301 L11.6033732,3.75639301 C11.6240995,3.74217615 11.6458426,3.72886378 11.6683241,3.71674505 C11.6810586,3.70983036 11.6940947,3.70333232 11.7072807,3.697266 C11.7234768,3.68983879 11.7394688,3.68318875 11.7557473,3.6771271 C11.7714741,3.67128986 11.7879343,3.66585228 11.8045375,3.66104122 C11.8249507,3.65507011 11.8455351,3.6500985 11.8664514,3.646058 C11.8766171,3.6441546 11.8867122,3.6424326 11.8968339,3.64093264 C11.8995579,3.64048014 11.9022835,3.64009395 11.9050141,3.63972351 L12,3.63333333 Z"></path>
        </g>
    </g>
</svg>
