<?xml version="1.0" encoding="UTF-8"?>
<svg width="24px" height="24px" viewBox="0 0 24 24" version="1.1" xmlns="http://www.w3.org/2000/svg" xmlns:xlink="http://www.w3.org/1999/xlink">
    <title>info</title>
    <g stroke="none" stroke-width="1" fill="none" fill-rule="evenodd">
        <g>
            <rect fill="#FFFFFF" fill-rule="nonzero" opacity="0" x="0" y="0" width="24" height="24"></rect>
            <path d="M12,4 C16.418278,4 20,7.581722 20,12 C20,16.418278 16.418278,20 12,20 C7.581722,20 4,16.418278 4,12 C4,7.581722 7.581722,4 12,4 Z M12,5.33333333 C8.31810167,5.33333333 5.33333333,8.31810167 5.33333333,12 C5.33333333,15.6818983 8.31810167,18.6666667 12,18.6666667 C15.6818983,18.6666667 18.6666667,15.6818983 18.6666667,12 C18.6666667,8.31810167 15.6818983,5.33333333 12,5.33333333 Z M12.8,9.6 L11.2,9.6 L11.2,8 L12.8,8 L12.8,9.6 Z M12.8,16.2 L11.2,16.2 L11.2,11.4 L12.8,11.4 L12.8,16.2 Z" fill="#414851"></path>
        </g>
    </g>
</svg>
