<?xml version="1.0" encoding="UTF-8"?>
<svg width="24px" height="24px" viewBox="0 0 24 24" version="1.1" xmlns="http://www.w3.org/2000/svg" xmlns:xlink="http://www.w3.org/1999/xlink">
    <title>invoice</title>
    <g stroke="none" stroke-width="1" fill="none" fill-rule="evenodd">
        <g fill="#414851" fill-rule="nonzero">
            <path d="M19.5,2.08333333 C19.9142136,2.08333333 20.25,2.41911977 20.25,2.83333333 L20.25,2.83333333 L20.25,20.3333333 C20.25,20.9323549 19.5823909,21.2896484 19.0839749,20.9573711 L19.0839749,20.9573711 L17,19.5683333 L14.9160251,20.9573711 C14.6955912,21.104327 14.4167579,21.1226965 14.1817241,21.0124796 L14.1817241,21.0124796 L14.0839749,20.9573711 L12,19.5683333 L9.91602515,20.9573711 C9.69559116,21.104327 9.41675788,21.1226965 9.18172407,21.0124796 L9.18172407,21.0124796 L9.08397485,20.9573711 L7,19.5683333 L4.91602515,20.9573711 C4.44692769,21.2701027 3.8279568,20.9720033 3.75675987,20.4364426 L3.75675987,20.4364426 L3.75,20.3333333 L3.75,2.83333333 C3.75,2.41911977 4.08578644,2.08333333 4.5,2.08333333 L4.5,2.08333333 Z M18.75,3.58333333 L5.25,3.58333333 L5.25,18.9313333 L6.58397485,18.0426289 C6.80440884,17.895673 7.08324212,17.8773035 7.31827593,17.9875204 L7.31827593,17.9875204 L7.41602515,18.0426289 L9.5,19.4303333 L11.5839749,18.0426289 C11.8044088,17.895673 12.0832421,17.8773035 12.3182759,17.9875204 L12.3182759,17.9875204 L12.4160251,18.0426289 L14.5,19.4303333 L16.5839749,18.0426289 C16.8044088,17.895673 17.0832421,17.8773035 17.3182759,17.9875204 L17.3182759,17.9875204 L17.4160251,18.0426289 L18.75,18.9313333 L18.75,3.58333333 Z M12,13.75 C12.4142136,13.75 12.75,14.0857864 12.75,14.5 C12.75,14.8796958 12.4678461,15.193491 12.1017706,15.2431534 L12,15.25 L7.83333333,15.25 C7.41911977,15.25 7.08333333,14.9142136 7.08333333,14.5 C7.08333333,14.1203042 7.36548721,13.806509 7.73156278,13.7568466 L7.83333333,13.75 L12,13.75 Z M16.1666667,13.75 C16.5808802,13.75 16.9166667,14.0857864 16.9166667,14.5 C16.9166667,14.8796958 16.6345128,15.193491 16.2684372,15.2431534 L16.1666667,15.25 L15.3333333,15.25 C14.9191198,15.25 14.5833333,14.9142136 14.5833333,14.5 C14.5833333,14.1203042 14.8654872,13.806509 15.2315628,13.7568466 L15.3333333,13.75 L16.1666667,13.75 Z M12,10.4166667 C12.4142136,10.4166667 12.75,10.7524531 12.75,11.1666667 C12.75,11.5463624 12.4678461,11.8601576 12.1017706,11.9098201 L12,11.9166667 L7.83333333,11.9166667 C7.41911977,11.9166667 7.08333333,11.5808802 7.08333333,11.1666667 C7.08333333,10.7869709 7.36548721,10.4731757 7.73156278,10.4235133 L7.83333333,10.4166667 L12,10.4166667 Z M16.1666667,10.4166667 C16.5808802,10.4166667 16.9166667,10.7524531 16.9166667,11.1666667 C16.9166667,11.5463624 16.6345128,11.8601576 16.2684372,11.9098201 L16.1666667,11.9166667 L15.3333333,11.9166667 C14.9191198,11.9166667 14.5833333,11.5808802 14.5833333,11.1666667 C14.5833333,10.7869709 14.8654872,10.4731757 15.2315628,10.4235133 L15.3333333,10.4166667 L16.1666667,10.4166667 Z M12,7.08333333 C12.4142136,7.08333333 12.75,7.41911977 12.75,7.83333333 C12.75,8.2130291 12.4678461,8.52682429 12.1017706,8.57648672 L12,8.58333333 L7.83333333,8.58333333 C7.41911977,8.58333333 7.08333333,8.2475469 7.08333333,7.83333333 C7.08333333,7.45363757 7.36548721,7.13984237 7.73156278,7.09017995 L7.83333333,7.08333333 L12,7.08333333 Z M16.1666667,7.08333333 C16.5808802,7.08333333 16.9166667,7.41911977 16.9166667,7.83333333 C16.9166667,8.2130291 16.6345128,8.52682429 16.2684372,8.57648672 L16.1666667,8.58333333 L15.3333333,8.58333333 C14.9191198,8.58333333 14.5833333,8.2475469 14.5833333,7.83333333 C14.5833333,7.45363757 14.8654872,7.13984237 15.2315628,7.09017995 L15.3333333,7.08333333 L16.1666667,7.08333333 Z"></path>
        </g>
    </g>
</svg>
