<?xml version="1.0" encoding="UTF-8"?>
<svg width="24" height="24" viewBox="0 0 24 24" fill="none" xmlns="http://www.w3.org/2000/svg">
<path d="M9.0904 7.63611C9.0904 8.43948 8.43915 9.09074 7.63578 9.09074C6.83241 9.09074 6.18115 8.43948 6.18115 7.63611C6.18115 6.83275 6.83241 6.18149 7.63578 6.18149C8.43915 6.18149 9.0904 6.83275 9.0904 7.63611Z" fill="#2B2B2B"/>
<path fill-rule="evenodd" clip-rule="evenodd" d="M9.64518 3.73874C8.74979 3.27627 7.72247 3.13621 6.73595 3.34211C5.74944 3.548 4.86391 4.0873 4.22826 4.86932C3.5926 5.65134 3.24561 6.62837 3.24561 7.63614C3.24561 8.64391 3.59261 9.62095 4.22826 10.403C4.86391 11.185 5.74944 11.7243 6.73595 11.9302C7.72247 12.1361 8.74979 11.996 9.64518 11.5335C10.3904 11.1486 11.0064 10.5599 11.4245 9.84077H13.8707L15.1056 11.0757C15.3985 11.3686 15.8734 11.3686 16.1663 11.0757L17.4012 9.84077H18.5452C18.8893 9.84077 19.1893 9.60655 19.2728 9.27267L20.0001 6.36342C20.0561 6.13936 20.0058 5.902 19.8637 5.71996C19.7215 5.53792 19.5035 5.43152 19.2725 5.43152H11.4245C11.0064 4.71236 10.3904 4.12365 9.64518 3.73874ZM7.04242 4.81047C7.69159 4.67498 8.36762 4.76714 8.95682 5.07147C9.54603 5.3758 10.0125 5.87372 10.2778 6.48152C10.397 6.75484 10.6669 6.93152 10.9651 6.93152H18.3119L17.9596 8.34077H17.0906C16.8917 8.34077 16.7009 8.41979 16.5602 8.56044L15.6359 9.48474L14.7116 8.56044C14.571 8.41979 14.3802 8.34077 14.1813 8.34077H10.9651C10.6669 8.34077 10.397 8.51745 10.2778 8.79077C10.0125 9.39857 9.54603 9.89649 8.95682 10.2008C8.36762 10.5051 7.69159 10.5973 7.04242 10.4618C6.39325 10.3263 5.81052 9.97145 5.39224 9.45684C4.97395 8.94224 4.74561 8.2993 4.74561 7.63614C4.74561 6.97298 4.97395 6.33005 5.39224 5.81544C5.81052 5.30084 6.39325 4.94596 7.04242 4.81047Z" fill="#2B2B2B"/>
<path fill-rule="evenodd" clip-rule="evenodd" d="M7.63545 13.4319C8.04967 13.4319 8.38545 13.7677 8.38545 14.1819V16.3639C8.38545 16.5628 8.30643 16.7536 8.16578 16.8942L7.45026 17.6097C7.5837 17.8939 7.65828 18.2111 7.65828 18.5458C7.65828 19.7634 6.67123 20.7504 5.45365 20.7504C4.23607 20.7504 3.24902 19.7634 3.24902 18.5458C3.24902 17.3282 4.23607 16.3412 5.45365 16.3412C5.78826 16.3412 6.10546 16.4157 6.38955 16.5491L6.88545 16.0532V14.1819C6.88545 13.7677 7.22124 13.4319 7.63545 13.4319ZM5.9516 18.0477L5.94083 18.0367C5.81428 17.9156 5.64266 17.8412 5.45365 17.8412C5.0645 17.8412 4.74902 18.1567 4.74902 18.5458C4.74902 18.935 5.0645 19.2504 5.45365 19.2504C5.8428 19.2504 6.15828 18.935 6.15828 18.5458C6.15828 18.3568 6.08383 18.1851 5.96267 18.0586L5.9516 18.0477Z" fill="#2B2B2B"/>
<path fill-rule="evenodd" clip-rule="evenodd" d="M17.1133 14.1819C17.1133 13.7677 16.7775 13.4319 16.3633 13.4319C15.9491 13.4319 15.6133 13.7677 15.6133 14.1819V16.3639C15.6133 16.5628 15.6923 16.7536 15.833 16.8942L16.5487 17.61C16.4154 17.8941 16.3408 18.2112 16.3408 18.5458C16.3408 19.7634 17.3279 20.7504 18.5454 20.7504C19.763 20.7504 20.7501 19.7634 20.7501 18.5458C20.7501 17.3282 19.763 16.3412 18.5454 16.3412C18.2107 16.3412 17.8934 16.4158 17.6093 16.5492L17.1133 16.0532V14.1819ZM17.8408 18.5458C17.8408 18.3686 17.9063 18.2066 18.0143 18.0828C18.0262 18.0723 18.0379 18.0613 18.0493 18.0499C18.0608 18.0385 18.0718 18.0267 18.0823 18.0147C18.2062 17.9067 18.3682 17.8412 18.5454 17.8412C18.9346 17.8412 19.2501 18.1567 19.2501 18.5458C19.2501 18.935 18.9346 19.2504 18.5454 19.2504C18.1563 19.2504 17.8408 18.935 17.8408 18.5458Z" fill="#2B2B2B"/>
<path fill-rule="evenodd" clip-rule="evenodd" d="M11.2495 16.4721C10.4012 16.7789 9.79492 17.5916 9.79492 18.5458C9.79492 19.7634 10.782 20.7504 11.9995 20.7504C13.2171 20.7504 14.2042 19.7634 14.2042 18.5458C14.2042 17.5916 13.5979 16.7789 12.7495 16.472V12C12.7495 11.5858 12.4137 11.25 11.9995 11.25C11.5853 11.25 11.2495 11.5858 11.2495 12V16.4721ZM11.9985 17.8412L11.9995 17.8412C12.3887 17.8412 12.7042 18.1567 12.7042 18.5458C12.7042 18.935 12.3887 19.2504 11.9995 19.2504C11.6104 19.2504 11.2949 18.935 11.2949 18.5458C11.2949 18.157 11.6098 17.8417 11.9985 17.8412Z" fill="#2B2B2B"/>
</svg>
