<?xml version="1.0" encoding="UTF-8"?>
<svg width="24px" height="24px" viewBox="0 0 24 24" version="1.1" xmlns="http://www.w3.org/2000/svg" xmlns:xlink="http://www.w3.org/1999/xlink">
    <title>key-framed</title>
    <g stroke="none" stroke-width="1" fill="none" fill-rule="evenodd">
        <g transform="translate(3.000000, 3.000000)">
            <path d="M16,0 C17.1045695,0 18,0.8954305 18,2 L18,16 C18,17.1045695 17.1045695,18 16,18 L2,18 C0.8954305,18 0,17.1045695 0,16 L0,2 C0,0.8954305 0.8954305,0 2,0 L16,0 Z M16,1.5 L2,1.5 C1.75454011,1.5 1.55039163,1.67687516 1.50805567,1.91012437 L1.5,2 L1.5,16 C1.5,16.2454599 1.67687516,16.4496084 1.91012437,16.4919443 L2,16.5 L16,16.5 C16.2454599,16.5 16.4496084,16.3231248 16.4919443,16.0898756 L16.5,16 L16.5,2 C16.5,1.75454011 16.3231248,1.55039163 16.0898756,1.50805567 L16,1.5 Z" fill="#414851" fill-rule="nonzero"></path>
            <g transform="translate(2.000000, 2.250000)">
                <rect x="0" y="0" width="14" height="14"></rect>
                <g stroke-linecap="round" stroke-linejoin="round" transform="translate(1.000000, 1.000000)" fill="#414851" fill-rule="nonzero">
                    <path d="M3.66666667,4.66666667 C1.96378869,4.66666667 0.583333333,6.04712202 0.583333333,7.75 C0.583333333,9.45287798 1.96378869,10.8333333 3.66666667,10.8333333 C5.36954465,10.8333333 6.75,9.45287798 6.75,7.75 C6.75,6.04712202 5.36954465,4.66666667 3.66666667,4.66666667 Z M3.66666667,6.16666667 C4.54111752,6.16666667 5.25,6.87554915 5.25,7.75 C5.25,8.62445085 4.54111752,9.33333333 3.66666667,9.33333333 C2.79221581,9.33333333 2.08333333,8.62445085 2.08333333,7.75 C2.08333333,6.87554915 2.79221581,6.16666667 3.66666667,6.16666667 Z"></path>
                    <path d="M9.55300325,0.803003247 C9.84589647,0.510110029 10.3207702,0.510110029 10.6136634,0.803003247 C10.87993,1.06926981 10.904136,1.48593349 10.6862816,1.77954499 L10.6136634,1.86366342 L5.85949675,6.61783009 C5.56660353,6.9107233 5.0917298,6.9107233 4.79883658,6.61783009 C4.53257002,6.35156352 4.50836397,5.93489984 4.72621843,5.64128835 L4.79883658,5.55716991 L9.55300325,0.803003247 Z"></path>
                    <path d="M8.96966991,1.38633658 C9.23593648,1.12007002 9.65260016,1.09586397 9.94621165,1.31371843 L10.0303301,1.38633658 L11.1969968,2.55300325 C11.48989,2.84589647 11.48989,3.3207702 11.1969968,3.61366342 C10.9307302,3.87992998 10.5140665,3.90413603 10.220455,3.68628157 L10.1363366,3.61366342 L8.96966991,2.44699675 C8.6767767,2.15410353 8.6767767,1.6792298 8.96966991,1.38633658 Z"></path>
                    <path d="M7.21966991,3.13633658 C7.48593648,2.87007002 7.90260016,2.84586397 8.19621165,3.06371843 L8.28033009,3.13633658 L9.44699675,4.30300325 C9.73988997,4.59589647 9.73988997,5.0707702 9.44699675,5.36366342 C9.18073019,5.62992998 8.76406651,5.65413603 8.47045501,5.43628157 L8.38633658,5.36366342 L7.21966991,4.19699675 C6.9267767,3.90410353 6.9267767,3.4292298 7.21966991,3.13633658 Z"></path>
                </g>
            </g>
        </g>
    </g>
</svg>
