<?xml version="1.0" encoding="UTF-8"?>
<svg width="24px" height="24px" viewBox="0 0 24 24" version="1.1" xmlns="http://www.w3.org/2000/svg" xmlns:xlink="http://www.w3.org/1999/xlink">
    <title>key</title>
    <g stroke="none" stroke-width="1" fill="none" fill-rule="evenodd">
        <g transform="translate(1.000000, 1.000000)">
            <rect x="0" y="0" width="22" height="22"></rect>
            <g stroke-linecap="round" stroke-linejoin="round">
                <polygon points="0 0 22 0 22 22 0 22"></polygon>
                <path d="M7.33333333,9.33333333 C4.89407569,9.33333333 2.91666667,11.3107424 2.91666667,13.75 C2.91666667,16.1892576 4.89407569,18.1666667 7.33333333,18.1666667 C9.77259098,18.1666667 11.75,16.1892576 11.75,13.75 C11.75,11.3107424 9.77259098,9.33333333 7.33333333,9.33333333 Z M7.33333333,10.8333333 C8.94416385,10.8333333 10.25,12.1391695 10.25,13.75 C10.25,15.3608305 8.94416385,16.6666667 7.33333333,16.6666667 C5.72250281,16.6666667 4.41666667,15.3608305 4.41666667,13.75 C4.41666667,12.1391695 5.72250281,10.8333333 7.33333333,10.8333333 Z" fill="#414851" fill-rule="nonzero"></path>
                <path d="M16.8863366,3.13633658 C17.1792298,2.84344336 17.6541035,2.84344336 17.9469968,3.13633658 C18.2132633,3.40260314 18.2374694,3.81926683 18.0196149,4.11287832 L17.9469968,4.19699675 L10.4761634,11.6678301 C10.1832702,11.9607233 9.70839647,11.9607233 9.41550325,11.6678301 C9.14923668,11.4015635 9.12503063,10.9848998 9.34288509,10.6912883 L9.41550325,10.6071699 L16.8863366,3.13633658 Z" fill="#414851" fill-rule="nonzero"></path>
                <path d="M15.9696699,4.05300325 C16.2359365,3.78673668 16.6526002,3.76253063 16.9462117,3.98038509 L17.0303301,4.05300325 L18.8636634,5.88633658 C19.1565566,6.1792298 19.1565566,6.65410353 18.8636634,6.94699675 C18.5973969,7.21326332 18.1807332,7.23746937 17.8871217,7.01961491 L17.8030032,6.94699675 L15.9696699,5.11366342 C15.6767767,4.8207702 15.6767767,4.34589647 15.9696699,4.05300325 Z" fill="#414851" fill-rule="nonzero"></path>
                <path d="M13.2196699,6.80300325 C13.4859365,6.53673668 13.9026002,6.51253063 14.1962117,6.73038509 L14.2803301,6.80300325 L16.1136634,8.63633658 C16.4065566,8.9292298 16.4065566,9.40410353 16.1136634,9.69699675 C15.8473969,9.96326332 15.4307332,9.98746937 15.1371217,9.76961491 L15.0530032,9.69699675 L13.2196699,7.86366342 C12.9267767,7.5707702 12.9267767,7.09589647 13.2196699,6.80300325 Z" fill="#414851" fill-rule="nonzero"></path>
            </g>
        </g>
    </g>
</svg>
