<?xml version="1.0" encoding="UTF-8"?>
<svg width="24px" height="24px" viewBox="0 0 24 24" version="1.1" xmlns="http://www.w3.org/2000/svg" xmlns:xlink="http://www.w3.org/1999/xlink">
    <title>layout</title>
    <g stroke="none" stroke-width="1" fill="none" fill-rule="evenodd">
        <g transform="translate(3.000000, 2.000000)">
            <rect x="0" y="1" width="18" height="18"></rect>
            <g stroke-linecap="square" transform="translate(1.250000, 0.750000)" fill="#414851" fill-rule="nonzero">
                <path d="M5.5,0.25 L1.25,0.25 C0.559644063,0.25 0,0.809644063 0,1.5 L0,8.5 C0,9.19035594 0.559644063,9.75 1.25,9.75 L5.5,9.75 C6.19035594,9.75 6.75,9.19035594 6.75,8.5 L6.75,1.5 C6.75,0.809644063 6.19035594,0.25 5.5,0.25 Z M5.25,1.75 L5.25,8.25 L1.5,8.25 L1.5,1.75 L5.25,1.75 Z"></path>
                <path d="M5.5,12.25 L1.25,12.25 C0.559644063,12.25 0,12.8096441 0,13.5 L0,17 C0,17.6903559 0.559644063,18.25 1.25,18.25 L5.5,18.25 C6.19035594,18.25 6.75,17.6903559 6.75,17 L6.75,13.5 C6.75,12.8096441 6.19035594,12.25 5.5,12.25 Z M5.25,13.75 L5.25,16.75 L1.5,16.75 L1.5,13.75 L5.25,13.75 Z"></path>
                <path d="M14.5,0.25 L10.25,0.25 C9.55964406,0.25 9,0.809644063 9,1.5 L9,5 C9,5.69035594 9.55964406,6.25 10.25,6.25 L14.5,6.25 C15.1903559,6.25 15.75,5.69035594 15.75,5 L15.75,1.5 C15.75,0.809644063 15.1903559,0.25 14.5,0.25 Z M14.25,1.75 L14.25,4.75 L10.5,4.75 L10.5,1.75 L14.25,1.75 Z"></path>
                <path d="M14.5,8.75 L10.25,8.75 C9.55964406,8.75 9,9.30964406 9,10 L9,17 C9,17.6903559 9.55964406,18.25 10.25,18.25 L14.5,18.25 C15.1903559,18.25 15.75,17.6903559 15.75,17 L15.75,10 C15.75,9.30964406 15.1903559,8.75 14.5,8.75 Z M14.25,10.25 L14.25,16.75 L10.5,16.75 L10.5,10.25 L14.25,10.25 Z"></path>
            </g>
        </g>
    </g>
</svg>
