<svg width="18" height="18" viewBox="0 0 18 18" fill="none" xmlns="http://www.w3.org/2000/svg">
<path fill-rule="evenodd" clip-rule="evenodd" d="M9.93206 2.3051C10.162 2.4133 10.2944 2.65886 10.2585 2.91042L9.66708 7.05001H15.1714C15.4004 7.05001 15.6079 7.18508 15.7005 7.39451C15.7932 7.60394 15.7536 7.84831 15.5995 8.01776L8.74238 15.5606C8.57145 15.7486 8.29783 15.8031 8.06791 15.6949C7.83799 15.5867 7.70558 15.3411 7.74152 15.0896L8.33289 10.95H2.82857C2.59956 10.95 2.3921 10.8149 2.29946 10.6055C2.20681 10.3961 2.24641 10.1517 2.40046 9.98224L9.25759 2.43941C9.42852 2.25138 9.70214 2.19689 9.93206 2.3051ZM4.13646 9.79285H8.99998C9.16771 9.79285 9.32718 9.86564 9.43707 9.99234C9.54696 10.1191 9.59646 10.2872 9.57274 10.4532L9.15346 13.3882L13.8635 8.20715H8.99998C8.83226 8.20715 8.67279 8.13436 8.5629 8.00766C8.45301 7.88095 8.40351 7.71279 8.42723 7.54675L8.84651 4.6118L4.13646 9.79285Z" fill="currentColor"/>
</svg>
