<?xml version="1.0" encoding="UTF-8"?>
<svg width="24px" height="24px" viewBox="0 0 24 24" version="1.1" xmlns="http://www.w3.org/2000/svg" xmlns:xlink="http://www.w3.org/1999/xlink">
    <title>link</title>
    <g stroke="none" stroke-width="1" fill="none" fill-rule="evenodd">
        <g transform="translate(4.000000, 4.000000)">
            <rect x="0" y="0" width="16" height="16"></rect>
            <g stroke-linecap="square" transform="translate(0.666667, 0.666667)" fill="#414851" fill-rule="nonzero">
                <path d="M8.06966991,6.20300325 C8.36256313,5.91011003 8.83743687,5.91011003 9.13033009,6.20300325 C10.7023491,7.77502225 10.7547497,10.2023512 9.28753199,11.8313909 L9.13033009,11.9969968 L7.26366342,13.8636634 C5.63743687,15.48989 3.09589647,15.48989 1.46966991,13.8636634 C-0.102349086,12.2916444 -0.15474972,9.86431548 1.32234214,8.22560115 L1.48060113,8.05895951 L3.1472678,6.45895951 C3.44607621,6.17210343 3.92085108,6.18179272 4.20770716,6.48060113 C4.46848541,6.75224514 4.48418485,7.16931598 4.26038492,7.45842126 L4.18606554,7.54104049 L2.53033009,9.13033009 C1.48988997,10.1707702 1.48988997,11.7625631 2.53033009,12.8030032 C3.52741853,13.8000917 5.03087093,13.841637 6.07015637,12.9276393 L6.20300325,12.8030032 L8.06966991,10.9363366 C9.11011003,9.89589647 9.11011003,8.30410353 8.06966991,7.26366342 C7.7767767,6.9707702 7.7767767,6.49589647 8.06966991,6.20300325 Z"></path>
                <path d="M8.06966991,1.46966991 C9.69589647,-0.156556638 12.2374369,-0.156556638 13.8636634,1.46966991 C15.4356824,3.04168891 15.4880831,5.46901786 14.0109912,7.10773219 L13.8527322,7.27437382 L12.1860655,8.87437382 C11.8872571,9.1612299 11.4124823,9.15154062 11.1256262,8.8527322 C10.8648479,8.58108819 10.8491485,8.16401735 11.0729484,7.87491207 L11.1472678,7.79229284 L12.8030032,6.20300325 C13.8434434,5.16256313 13.8434434,3.5707702 12.8030032,2.53033009 C11.8059148,1.53324164 10.3024624,1.49169629 9.26317696,2.40569403 L9.13033009,2.53033009 L7.26366342,4.39699675 C6.2232233,5.43743687 6.2232233,7.0292298 7.26366342,8.06966991 C7.55655664,8.36256313 7.55655664,8.83743687 7.26366342,9.13033009 C6.9707702,9.4232233 6.49589647,9.4232233 6.20300325,9.13033009 C4.63098425,7.55831109 4.57858361,5.13098214 6.04580135,3.50194248 L6.20300325,3.33633658 L8.06966991,1.46966991 Z"></path>
            </g>
        </g>
    </g>
</svg>
