<?xml version="1.0" encoding="UTF-8"?>
<svg width="24px" height="24px" viewBox="0 0 24 24" version="1.1" xmlns="http://www.w3.org/2000/svg" xmlns:xlink="http://www.w3.org/1999/xlink">
    <title>link-disconnect</title>
    <g stroke="none" stroke-width="1" fill="none" fill-rule="evenodd">
        <g transform="translate(12.000000, 12.000000) rotate(-225.000000) translate(-12.000000, -12.000000) translate(2.000000, 3.000000)">
            <rect x="1" y="0" width="18" height="18"></rect>
            <g stroke-linecap="square" transform="translate(0.750000, 1.250000)" fill="#414851" fill-rule="nonzero">
                <path d="M13.75,3.25 C16.2642136,3.25 18.25,5.23578644 18.25,7.75 C18.25,10.1923789 16.376066,12.1360951 13.9641759,12.2451708 L13.75,12.25 L12.25,12.25 C11.8357864,12.25 11.5,11.9142136 11.5,11.5 C11.5,11.1203042 11.7821539,10.806509 12.1482294,10.7568466 L12.25,10.75 L13.75,10.75 C15.4357864,10.75 16.75,9.43578644 16.75,7.75 C16.75,6.12442022 15.5279825,4.84434634 13.9291552,4.75498594 L13.75,4.75 L12.25,4.75 C11.8357864,4.75 11.5,4.41421356 11.5,4 C11.5,3.62030423 11.7821539,3.30650904 12.1482294,3.25684662 L12.25,3.25 L13.75,3.25 Z"></path>
                <path d="M6.25,3.25 C6.66421356,3.25 7,3.58578644 7,4 C7,4.37969577 6.71784612,4.69349096 6.35177056,4.74315338 L6.25,4.75 L4.75,4.75 C3.06421356,4.75 1.75,6.06421356 1.75,7.75 C1.75,9.37557978 2.97201746,10.6556537 4.5708448,10.7450141 L4.75,10.75 L6.25,10.75 C6.66421356,10.75 7,11.0857864 7,11.5 C7,11.8796958 6.71784612,12.193491 6.35177056,12.2431534 L6.25,12.25 L4.75,12.25 C2.23578644,12.25 0.25,10.2642136 0.25,7.75 C0.25,5.30762111 2.12393398,3.36390488 4.53582408,3.25482916 L4.75,3.25 L6.25,3.25 Z"></path>
                <path d="M7,7 C7.41421356,7 7.75,7.33578644 7.75,7.75 C7.75,8.12969577 7.46784612,8.44349096 7.10177056,8.49315338 L7,8.5 L5.5,8.5 C5.08578644,8.5 4.75,8.16421356 4.75,7.75 C4.75,7.37030423 5.03215388,7.05650904 5.39822944,7.00684662 L5.5,7 L7,7 Z"></path>
                <path d="M13,7 C13.4142136,7 13.75,7.33578644 13.75,7.75 C13.75,8.12969577 13.4678461,8.44349096 13.1017706,8.49315338 L13,8.5 L11.5,8.5 C11.0857864,8.5 10.75,8.16421356 10.75,7.75 C10.75,7.37030423 11.0321539,7.05650904 11.3982294,7.00684662 L11.5,7 L13,7 Z"></path>
                <path d="M9.25,0.25 C9.62969577,0.25 9.94349096,0.532153882 9.99315338,0.898229443 L10,1 L10,14.5 C10,14.9142136 9.66421356,15.25 9.25,15.25 C8.87030423,15.25 8.55650904,14.9678461 8.50684662,14.6017706 L8.5,14.5 L8.5,1 C8.5,0.585786438 8.83578644,0.25 9.25,0.25 Z"></path>
            </g>
        </g>
    </g>
</svg>
