<?xml version="1.0" encoding="UTF-8"?>
<svg width="24" height="24" viewBox="0 0 24 24" fill="none" xmlns="http://www.w3.org/2000/svg">
<path fill-rule="evenodd" clip-rule="evenodd" d="M7 6.08337C7 6.77373 6.44036 7.33337 5.75 7.33337C5.05964 7.33337 4.5 6.77373 4.5 6.08337C4.5 5.39302 5.05964 4.83337 5.75 4.83337C6.44036 4.83337 7 5.39302 7 6.08337ZM7 11.9167C7 12.607 6.44036 13.1667 5.75 13.1667C5.05964 13.1667 4.5 12.607 4.5 11.9167C4.5 11.2263 5.05964 10.6667 5.75 10.6667C6.44036 10.6667 7 11.2263 7 11.9167ZM18.6667 5.25003H9.50008C9.03984 5.25003 8.66675 5.62313 8.66675 6.08336C8.66675 6.5436 9.03984 6.9167 9.50008 6.9167H18.6667C19.127 6.9167 19.5001 6.5436 19.5001 6.08336C19.5001 5.62313 19.127 5.25003 18.6667 5.25003ZM9.50008 11.0834H18.6667C19.127 11.0834 19.5001 11.4565 19.5001 11.9167C19.5001 12.3769 19.127 12.75 18.6667 12.75H9.50008C9.03984 12.75 8.66675 12.3769 8.66675 11.9167C8.66675 11.4565 9.03984 11.0834 9.50008 11.0834ZM5.75 19C6.44036 19 7 18.4404 7 17.75C7 17.0597 6.44036 16.5 5.75 16.5C5.05964 16.5 4.5 17.0597 4.5 17.75C4.5 18.4404 5.05964 19 5.75 19ZM9.50008 16.9167H18.6667C19.127 16.9167 19.5001 17.2898 19.5001 17.75C19.5001 18.2103 19.127 18.5834 18.6667 18.5834H9.50008C9.03984 18.5834 8.66675 18.2103 8.66675 17.75C8.66675 17.2898 9.03984 16.9167 9.50008 16.9167Z" fill="#2B2B2B"/>
</svg>
