<?xml version="1.0" encoding="UTF-8"?>
<svg width="24px" height="24px" viewBox="0 0 24 24" version="1.1" xmlns="http://www.w3.org/2000/svg" xmlns:xlink="http://www.w3.org/1999/xlink">
    <title>list-attributes</title>
    <g stroke="none" stroke-width="1" fill="none" fill-rule="evenodd">
        <g fill="#363E4C" fill-rule="nonzero">
            <path d="M9.5,13.6666667 C9.96023729,13.6666667 10.3333333,14.0397627 10.3333333,14.5 L10.3333333,14.5 L10.3333333,20.3333333 C10.3333333,20.7935706 9.96023729,21.1666667 9.5,21.1666667 L9.5,21.1666667 L3.66666667,21.1666667 C3.20642938,21.1666667 2.83333333,20.7935706 2.83333333,20.3333333 L2.83333333,20.3333333 L2.83333333,14.5 C2.83333333,14.0397627 3.20642938,13.6666667 3.66666667,13.6666667 L3.66666667,13.6666667 Z M20.3333333,18.6666667 C20.7935706,18.6666667 21.1666667,19.0397627 21.1666667,19.5 C21.1666667,19.9248344 20.8487623,20.2754183 20.4378649,20.3268405 L20.3333333,20.3333333 L13.6666667,20.3333333 C13.2064294,20.3333333 12.8333333,19.9602373 12.8333333,19.5 C12.8333333,19.0751656 13.1512377,18.7245817 13.5621351,18.6731595 L13.6666667,18.6666667 L20.3333333,18.6666667 Z M8.666,15.333 L4.499,15.333 L4.499,19.5 L8.666,19.5 L8.666,15.333 Z M20.3333333,14.5 C20.7935706,14.5 21.1666667,14.873096 21.1666667,15.3333333 C21.1666667,15.7581678 20.8487623,16.1087516 20.4378649,16.1601738 L20.3333333,16.1666667 L13.6666667,16.1666667 C13.2064294,16.1666667 12.8333333,15.7935706 12.8333333,15.3333333 C12.8333333,14.9084989 13.1512377,14.557915 13.5621351,14.5064928 L13.6666667,14.5 L20.3333333,14.5 Z M9.5,2.83333333 C9.96023729,2.83333333 10.3333333,3.20642938 10.3333333,3.66666667 L10.3333333,3.66666667 L10.3333333,9.5 C10.3333333,9.96023729 9.96023729,10.3333333 9.5,10.3333333 L9.5,10.3333333 L3.66666667,10.3333333 C3.20642938,10.3333333 2.83333333,9.96023729 2.83333333,9.5 L2.83333333,9.5 L2.83333333,3.66666667 C2.83333333,3.20642938 3.20642938,2.83333333 3.66666667,2.83333333 L3.66666667,2.83333333 Z M20.3333333,7.83333333 C20.7935706,7.83333333 21.1666667,8.20642938 21.1666667,8.66666667 C21.1666667,9.09150109 20.8487623,9.44208498 20.4378649,9.49350715 L20.3333333,9.5 L13.6666667,9.5 C13.2064294,9.5 12.8333333,9.12690396 12.8333333,8.66666667 C12.8333333,8.24183224 13.1512377,7.89124835 13.5621351,7.83982618 L13.6666667,7.83333333 L20.3333333,7.83333333 Z M8.666,4.5 L4.499,4.5 L4.499,8.666 L8.666,8.666 L8.666,4.5 Z M20.3333333,3.66666667 C20.7935706,3.66666667 21.1666667,4.03976271 21.1666667,4.5 C21.1666667,4.92483442 20.8487623,5.27541831 20.4378649,5.32684048 L20.3333333,5.33333333 L13.6666667,5.33333333 C13.2064294,5.33333333 12.8333333,4.96023729 12.8333333,4.5 C12.8333333,4.07516558 13.1512377,3.72458169 13.5621351,3.67315952 L13.6666667,3.66666667 L20.3333333,3.66666667 Z"></path>
        </g>
    </g>
</svg>
