<?xml version="1.0" encoding="UTF-8"?>
<svg width="24px" height="24px" viewBox="0 0 24 24" version="1.1" xmlns="http://www.w3.org/2000/svg" xmlns:xlink="http://www.w3.org/1999/xlink">
    <title>lock-open</title>
    <g stroke="none" stroke-width="1" fill="none" fill-rule="evenodd">
        <g transform="translate(2.000000, 2.000000)">
            <rect x="0" y="0" width="20" height="20"></rect>
            <g stroke-linecap="round" stroke-linejoin="round">
                <polygon points="0 0 20 0 20 20 0 20"></polygon>
                <path d="M14.1666667,8.41666667 L5.83333333,8.41666667 C4.49864519,8.41666667 3.41666667,9.49864519 3.41666667,10.8333333 L3.41666667,15.8333333 C3.41666667,17.1680215 4.49864519,18.25 5.83333333,18.25 L14.1666667,18.25 C15.5013548,18.25 16.5833333,17.1680215 16.5833333,15.8333333 L16.5833333,10.8333333 C16.5833333,9.49864519 15.5013548,8.41666667 14.1666667,8.41666667 Z M5.83333333,9.91666667 L14.1666667,9.91666667 C14.6729277,9.91666667 15.0833333,10.3270723 15.0833333,10.8333333 L15.0833333,15.8333333 C15.0833333,16.3395944 14.6729277,16.75 14.1666667,16.75 L5.83333333,16.75 C5.32707231,16.75 4.91666667,16.3395944 4.91666667,15.8333333 L4.91666667,10.8333333 C4.91666667,10.3270723 5.32707231,9.91666667 5.83333333,9.91666667 Z" fill="#414851" fill-rule="nonzero"></path>
                <path d="M10,11.75 C9.12554915,11.75 8.41666667,12.4588825 8.41666667,13.3333333 C8.41666667,14.2077842 9.12554915,14.9166667 10,14.9166667 C10.8744509,14.9166667 11.5833333,14.2077842 11.5833333,13.3333333 C11.5833333,12.4588825 10.8744509,11.75 10,11.75 Z" fill="#414851" fill-rule="nonzero"></path>
                <path d="M10,0.916666667 C12.2551627,0.916666667 14.0833333,2.74483727 14.0833333,5 C14.0833333,5.41421356 13.7475469,5.75 13.3333333,5.75 C12.9191198,5.75 12.5833333,5.41421356 12.5833333,5 C12.5833333,3.5732644 11.4267356,2.41666667 10,2.41666667 C8.62813884,2.41666667 7.50603534,3.48600628 7.42174906,4.83662593 L7.41666667,5 L7.41666667,9.16666667 C7.41666667,9.58088023 7.08088023,9.91666667 6.66666667,9.91666667 C6.2869709,9.91666667 5.97317571,9.63451279 5.92351328,9.26843722 L5.91666667,9.16666667 L5.91666667,5 C5.91666667,2.74483727 7.74483727,0.916666667 10,0.916666667 Z" fill="#414851" fill-rule="nonzero"></path>
            </g>
        </g>
    </g>
</svg>
