<?xml version="1.0" encoding="UTF-8"?>
<svg width="24px" height="24px" viewBox="0 0 24 24" version="1.1" xmlns="http://www.w3.org/2000/svg" xmlns:xlink="http://www.w3.org/1999/xlink">
    <title>logistics-boxes-crane</title>
    <g stroke="none" stroke-width="1" fill="none" fill-rule="evenodd">
        <g fill="#414851" fill-rule="nonzero">
            <path d="M2.83333333,21.9166667 C2.41911977,21.9166667 2.08333333,21.5808802 2.08333333,21.1666667 L2.08333333,12.8333333 C2.08333333,12.4536376 2.36548721,12.1398424 2.73156278,12.0901799 L2.83333333,12.0833333 L11.1666667,12.0833333 C11.5463624,12.0833333 11.8601576,12.3654872 11.9098201,12.7315628 L11.9166667,12.8333333 L11.9163333,20.4163333 L13.7493333,20.4163333 L13.75,14.5 C13.75,14.1203042 14.0321539,13.806509 14.3982294,13.7568466 L14.5,13.75 L21.1666667,13.75 C21.5463624,13.75 21.8601576,14.0321539 21.9098201,14.3982294 L21.9166667,14.5 L21.9166667,21.1666667 L21.9166667,21.1666667 C21.9166667,21.5463624 21.6345128,21.8601576 21.2684372,21.9098201 L21.1666667,21.9166667 L21.1666667,21.9166667 L2.83333333,21.9166667 Z M10.416,13.583 L3.583,13.583 L3.58333333,20.4163333 L10.4163333,20.4163333 L10.416,13.583 Z M20.416,15.25 L15.25,15.25 L15.2493333,20.4163333 L20.4163333,20.4163333 L20.416,15.25 Z M17.8333333,2.08333333 C18.2130291,2.08333333 18.5268243,2.36548721 18.5764867,2.73156278 L18.5833333,2.83333333 L18.5833333,5.79233333 L21.6166667,8.06666667 C21.7785419,8.18807306 21.8833249,8.36873283 21.9099593,8.56653312 L21.9166667,8.66666667 L21.9166667,11.1666667 C21.9166667,11.5808802 21.5808802,11.9166667 21.1666667,11.9166667 C20.7869709,11.9166667 20.4731757,11.6345128 20.4235133,11.2684372 L20.4166667,11.1666667 L20.416,9.041 L17.833,7.104 L15.25,9.041 L15.25,11.1666667 C15.25,11.5463624 14.9678461,11.8601576 14.6017706,11.9098201 L14.5,11.9166667 C14.1203042,11.9166667 13.806509,11.6345128 13.7568466,11.2684372 L13.75,11.1666667 L13.75,8.66666667 C13.75,8.46432269 13.831658,8.27210039 13.9739176,8.13211268 L14.05,8.06666667 L17.0833333,5.79033333 L17.0833333,2.83333333 C17.0833333,2.41911977 17.4191198,2.08333333 17.8333333,2.08333333 Z"></path>
        </g>
    </g>
</svg>
