<?xml version="1.0" encoding="UTF-8"?>
<svg width="24px" height="24px" viewBox="0 0 24 24" version="1.1" xmlns="http://www.w3.org/2000/svg" xmlns:xlink="http://www.w3.org/1999/xlink">
    <title>logistics-box-trolley</title>
    <g stroke="none" stroke-width="1" fill="none" fill-rule="evenodd">
        <g fill="#414851" fill-rule="nonzero">
            <path d="M7.83333333,17.0833333 C9.16802148,17.0833333 10.25,18.1653119 10.25,19.5 C10.25,20.8346881 9.16802148,21.9166667 7.83333333,21.9166667 C6.49864519,21.9166667 5.41666667,20.8346881 5.41666667,19.5 C5.41666667,18.1653119 6.49864519,17.0833333 7.83333333,17.0833333 Z M5.33333333,2.08333333 C5.67506239,2.08333333 5.968805,2.31331077 6.05671431,2.63506813 L6.07675426,2.73421054 L7.656,14.583 L17.0018104,14.5831416 C17.0078255,14.5831533 17.0138317,14.5832378 17.0198278,14.5833946 L21.1666667,14.5833333 C21.5463624,14.5833333 21.8601576,14.8654872 21.9098201,15.2315628 L21.9166667,15.3333333 C21.9166667,15.7130291 21.6345128,16.0268243 21.2684372,16.0764867 L21.1666667,16.0833333 L17.9933333,16.0833333 L19.3878096,20.9606258 C19.5016028,21.3589021 19.2709838,21.7740164 18.8727075,21.8878096 C18.5076209,21.9921201 18.1283857,21.8070285 17.9800654,21.4686814 L17.9455237,21.3727075 L16.4333333,16.0833333 L7,16.0833333 C6.65827094,16.0833333 6.36452833,15.8533559 6.27661902,15.5315985 L6.25657907,15.4324561 L4.676,3.583 L2.83333333,3.58333333 C2.45363757,3.58333333 2.13984237,3.30117945 2.09017995,2.93510389 L2.08333333,2.83333333 C2.08333333,2.45363757 2.36548721,2.13984237 2.73156278,2.09017995 L2.83333333,2.08333333 L5.33333333,2.08333333 Z M7.83333333,18.5833333 C7.32707231,18.5833333 6.91666667,18.993739 6.91666667,19.5 C6.91666667,20.006261 7.32707231,20.4166667 7.83333333,20.4166667 C8.33959435,20.4166667 8.75,20.006261 8.75,19.5 C8.75,18.993739 8.33959435,18.5833333 7.83333333,18.5833333 Z M20.3333333,2.08333333 C20.7475469,2.08333333 21.0833333,2.41911977 21.0833333,2.83333333 L21.0833333,2.83333333 L21.0833333,12 C21.0833333,12.4142136 20.7475469,12.75 20.3333333,12.75 L20.3333333,12.75 L9.5,12.75 C9.08578644,12.75 8.75,12.4142136 8.75,12 L8.75,12 L8.75,2.83333333 C8.75,2.41911977 9.08578644,2.08333333 9.5,2.08333333 L9.5,2.08333333 Z M19.583,3.583 L10.25,3.583 L10.25,11.25 L19.583,11.25 L19.583,3.583 Z M16.1666667,5.41666667 C16.5808802,5.41666667 16.9166667,5.7524531 16.9166667,6.16666667 C16.9166667,6.54636243 16.6345128,6.86015763 16.2684372,6.90982005 L16.1666667,6.91666667 L13.6666667,6.91666667 C13.2524531,6.91666667 12.9166667,6.58088023 12.9166667,6.16666667 C12.9166667,5.7869709 13.1988205,5.47317571 13.5648961,5.42351328 L13.6666667,5.41666667 L16.1666667,5.41666667 Z"></path>
        </g>
    </g>
</svg>
