<?xml version="1.0" encoding="UTF-8"?>
<svg width="24px" height="24px" viewBox="0 0 24 24" version="1.1" xmlns="http://www.w3.org/2000/svg" xmlns:xlink="http://www.w3.org/1999/xlink">
    <title>logic</title>
    <g stroke="none" stroke-width="1" fill="none" fill-rule="evenodd">
        <g transform="translate(3.000000, 2.000000)">
            <rect x="0" y="1" width="18" height="18"></rect>
            <g stroke-linecap="square" transform="translate(0.500000, 0.000000)" fill="#414851" fill-rule="nonzero">
                <path d="M15.8787926,4.985421 C17.4041992,7.86751134 16.8853687,11.3821374 14.6499664,13.698928 L14.5,13.848 L14.5,18.25 C14.5,18.6296958 14.2178461,18.943491 13.8517706,18.9931534 L13.75,19 C13.3703042,19 13.056509,18.7178461 13.0068466,18.3517706 L13,18.25 L13,13.525 C13,13.3115784 13.0909247,13.1082645 13.2499997,12.9659833 C15.3055184,11.1274694 15.8430917,8.12453169 14.5530336,5.68710671 C13.2629754,3.24968174 10.4775352,2.00551842 7.80135306,2.67135609 C5.20626738,3.31701687 3.36201915,5.59742661 3.25492104,8.25024569 L3.25,8.5 L3.25,9.25 C3.25,9.32762255 3.23795164,9.40453442 3.21449101,9.47804104 L3.17082039,9.5854102 L2.005,11.914 L2.8354102,12.3291796 C3.05773722,12.4403431 3.20841227,12.6530693 3.24260717,12.8948247 L3.25,13 L3.25,15.25 C3.25,15.6296958 3.53215388,15.943491 3.89822944,15.9931534 L4,16 L7,16 C7.37969577,16 7.69349096,16.2821539 7.74315338,16.6482294 L7.75,16.75 L7.75,18.25 C7.75,18.6642136 7.41421356,19 7,19 C6.62030423,19 6.30650904,18.7178461 6.25684662,18.3517706 L6.25,18.25 L6.25,17.5 L4,17.5 C2.80913601,17.5 1.83435508,16.5748384 1.75519081,15.4040488 L1.75,15.25 L1.75,13.463 L0.664589803,12.9208204 C0.324979586,12.7510153 0.170495683,12.3583157 0.289790229,12.0086781 L0.329179607,11.9145898 L1.75,9.072 L1.75000031,8.50068338 C1.74693782,5.13965368 3.97807805,2.1985781 7.19019256,1.2822026 L7.43919202,1.21573273 C10.7844196,0.38343563 14.26622,1.93863979 15.8787926,4.985421 Z M9.25,4 C9.62969577,4 9.94349096,4.28215388 9.99315338,4.64822944 L10,4.75 L10.0006288,5.59467503 C10.2756214,5.66551717 10.5353475,5.7743717 10.7738708,5.91530245 L11.3716699,5.31766991 C11.6645631,5.0247767 12.1394369,5.0247767 12.4323301,5.31766991 C12.6985966,5.58393648 12.7228027,6.00060016 12.5049482,6.29421165 L12.4323301,6.37833009 L11.8346976,6.9761292 C11.9756283,7.21465252 12.0844828,7.47437858 12.155325,7.74937121 L13,7.75 C13.4142136,7.75 13.75,8.08578644 13.75,8.5 C13.75,8.87969577 13.4678461,9.19349096 13.1017706,9.24315338 L13,9.25 L12.1554231,9.25024771 C12.0845834,9.52538147 11.9756934,9.7852373 11.8346976,10.0238708 L12.4323301,10.6216699 C12.7252233,10.9145631 12.7252233,11.3894369 12.4323301,11.6823301 C12.1660635,11.9485966 11.7493998,11.9728027 11.4557883,11.7549482 L11.3716699,11.6823301 L10.7738708,11.0846976 C10.5353475,11.2256283 10.2756214,11.3344828 10.0006288,11.405325 L10,12.25 C10,12.6642136 9.66421356,13 9.25,13 C8.87030423,13 8.55650904,12.7178461 8.50684662,12.3517706 L8.5,12.25 L8.49975229,11.4054231 C8.22461853,11.3345834 7.9647627,11.2256934 7.7261292,11.0846976 L7.12833009,11.6823301 C6.83543687,11.9752233 6.36056313,11.9752233 6.06766991,11.6823301 C5.80140335,11.4160635 5.7771973,10.9993998 5.99505176,10.7057883 L6.06766991,10.6216699 L6.66530245,10.0238708 C6.52430661,9.7852373 6.41541662,9.52538147 6.34457688,9.25024771 L5.5,9.25 C5.08578644,9.25 4.75,8.91421356 4.75,8.5 C4.75,8.12030423 5.03215388,7.80650904 5.39822944,7.75684662 L5.5,7.75 L6.34467503,7.74937121 C6.41551717,7.47437858 6.5243717,7.21465252 6.66530245,6.9761292 L6.06766991,6.37833009 C5.7747767,6.08543687 5.7747767,5.61056313 6.06766991,5.31766991 C6.33393648,5.05140335 6.75060016,5.0271973 7.04421165,5.24505176 L7.12833009,5.31766991 L7.7261292,5.91530245 C7.9647627,5.77430661 8.22461853,5.66541662 8.49975229,5.59457688 L8.5,4.75 C8.5,4.33578644 8.83578644,4 9.25,4 Z M9.25,7 C8.42157288,7 7.75,7.67157288 7.75,8.5 C7.75,9.32842712 8.42157288,10 9.25,10 C10.0784271,10 10.75,9.32842712 10.75,8.5 C10.75,7.67157288 10.0784271,7 9.25,7 Z"></path>
            </g>
        </g>
    </g>
</svg>
