<?xml version="1.0" encoding="UTF-8"?>
<svg width="24px" height="24px" viewBox="0 0 24 24" version="1.1" xmlns="http://www.w3.org/2000/svg" xmlns:xlink="http://www.w3.org/1999/xlink">
    <title>Icons / ic-loudspeaker</title>
    <g stroke="none" stroke-width="1" fill="none" fill-rule="evenodd">
        <g>
            <rect fill-opacity="0" fill="#FFFFFF" x="0" y="0" width="24" height="24"></rect>
            <path d="M14.0423487,4.07871792 C14.856585,3.81222361 15.7366768,4.24429626 16.0080889,5.04377918 C16.0609094,5.19936939 16.0878378,5.36230333 16.0878378,5.52630981 L16.0878378,5.52630981 L16.0878378,16.493809 C16.0878378,17.336538 15.3920641,18.0197048 14.5337838,18.0197048 C14.3667508,18.0197048 14.2008101,17.9932643 14.0423487,17.9414009 L14.0423487,17.9414009 L11.02,16.952 L11.0202703,19.3029715 C11.0202703,19.7327231 10.6312696,20.0515268 10.2128294,19.9930794 L10.1159073,19.9727735 L4.20374515,18.3141911 C3.93301443,18.238241 3.73702003,18.0138315 3.69680808,17.7464608 L3.68918919,17.6443891 L3.689,14.552 L2.48510868,14.1587902 C2.22759562,14.0745078 2.04458781,13.8548125 2.00709858,13.5964448 L2,13.497933 L2,8.52218577 C2,8.22234596 2.19540649,7.95614628 2.48510868,7.86132861 L2.48510868,7.86132861 Z M5.108,15.016 L5.10743243,17.1186185 L9.60135135,18.3784777 L9.601,16.487 L5.108,15.016 Z M14.5337501,5.39358723 L14.4910503,5.40043225 L3.41891892,9.02307767 L3.41891892,12.9957143 L14.4910503,16.6196866 L14.5337838,16.6264956 C14.6084169,16.6264956 14.6689189,16.5670898 14.6689189,16.493809 L14.6689189,16.493809 L14.6689189,5.52630981 C14.6689189,5.51204838 14.6665773,5.49788021 14.6619842,5.48435062 C14.6383832,5.41483037 14.5618535,5.37725884 14.4910503,5.40043225 Z M18.8532838,14.0957605 L18.9475481,14.1414425 L20.3833589,14.9707337 C20.7210851,15.1657966 20.8338185,15.5927468 20.635156,15.9243536 C20.4545538,16.2258144 20.0787726,16.3446999 19.7582027,16.2172705 L19.6639384,16.1715884 L18.2281276,15.3422972 C17.8904014,15.1472344 17.777668,14.7202842 17.9763305,14.3886773 C18.1569327,14.0872165 18.5327138,13.968331 18.8532838,14.0957605 Z M21.2905405,10.3134548 C21.6823642,10.3134548 22,10.6253353 22,11.0100594 C22,11.3627232 21.7330977,11.6541781 21.38681,11.7003048 L21.2905405,11.706664 L19.6013514,11.706664 C19.2095277,11.706664 18.8918919,11.3947835 18.8918919,11.0100594 C18.8918919,10.6573956 19.1587942,10.3659407 19.5050819,10.319814 L19.6013514,10.3134548 L21.2905405,10.3134548 Z M20.635156,6.09576518 C20.8157583,6.39722597 20.7390085,6.77748289 20.4698228,6.99068272 L20.3833589,7.0493851 L18.9475481,7.87867631 C18.6098219,8.07373918 18.1749929,7.96304839 17.9763305,7.63144152 C17.7957282,7.32998072 17.8724779,6.94972381 18.1416637,6.73652398 L18.2281276,6.6778216 L19.6639384,5.84853039 C20.0016646,5.65346752 20.4364936,5.76415831 20.635156,6.09576518 Z" fill="#414851"></path>
        </g>
    </g>
</svg>
