<svg width="16" height="18" viewBox="0 0 16 18" fill="none" xmlns="http://www.w3.org/2000/svg">
<path d="M4.16606 0.294608C4.30795 0.108929 4.52829 0 4.76197 0H8.00007C8.22639 0 8.44061 0.102199 8.58301 0.278106L12.8329 5.52811C12.941 5.66163 13 5.82821 13 6V7.25C13 7.66421 12.6642 8 12.25 8C11.8358 8 11.5 7.66421 11.5 7.25V6.26552L7.64226 1.5H5.13276L1.5 6.25376V16.5H7.25C7.66421 16.5 8 16.8358 8 17.25C8 17.6642 7.66421 18 7.25 18H0.75C0.335786 18 0 17.6642 0 17.25V6C0 5.83541 0.0541435 5.67539 0.154082 5.54461L4.16606 0.294608Z" fill="#414851"/>
<path fill-rule="evenodd" clip-rule="evenodd" d="M4 7.5C4 6.11929 5.11929 5 6.5 5C7.88071 5 9 6.11929 9 7.5C9 8.88071 7.88071 10 6.5 10C5.11929 10 4 8.88071 4 7.5ZM6.5 6.5C5.94772 6.5 5.5 6.94772 5.5 7.5C5.5 8.05228 5.94772 8.5 6.5 8.5C7.05228 8.5 7.5 8.05228 7.5 7.5C7.5 6.94772 7.05228 6.5 6.5 6.5Z" fill="#414851"/>
<path fill-rule="evenodd" clip-rule="evenodd" d="M15.257 10.7262C14.3549 9.83848 12.9689 9.77842 12.0001 10.4707C11.0307 9.77799 9.6444 9.83941 8.74308 10.7263C7.75272 11.7015 7.75244 13.288 8.7434 14.2629L11.4739 16.9511C11.7659 17.2385 12.2344 17.2385 12.5263 16.9511L15.2571 14.2627C16.2481 13.2878 16.2473 11.7013 15.257 10.7262ZM12.75 11.7952C13.1395 11.4109 13.7951 11.3923 14.2047 11.7952C14.5986 12.1832 14.5982 12.8068 14.205 13.1935L12.0001 15.3642L9.79546 13.1937C9.40225 12.807 9.40163 12.1832 9.79551 11.7952C10.2047 11.3927 10.8603 11.4107 11.2501 11.7952C11.297 11.8414 11.3401 11.893 11.3784 11.9498C11.5178 12.1565 11.7509 12.2804 12.0002 12.2803C12.2495 12.2803 12.4825 12.1564 12.6219 11.9497C12.6602 11.893 12.7032 11.8414 12.75 11.7952Z" fill="#414851"/>
</svg>
