<?xml version="1.0" encoding="UTF-8"?>
<svg width="24" height="24" viewBox="0 0 24 24" fill="none" xmlns="http://www.w3.org/2000/svg">
<path d="M9.16606 3.29461C9.30795 3.10893 9.52829 3 9.76197 3H13.0001C13.2264 3 13.4406 3.1022 13.583 3.27811L17.8329 8.52811C17.941 8.66163 18 8.82821 18 9V10.25C18 10.6642 17.6642 11 17.25 11C16.8358 11 16.5 10.6642 16.5 10.25V9.26552L12.6423 4.5H10.1328L6.5 9.25376V19.5H12.25C12.6642 19.5 13 19.8358 13 20.25C13 20.6642 12.6642 21 12.25 21H5.75C5.33579 21 5 20.6642 5 20.25V9C5 8.83541 5.05414 8.67539 5.15408 8.54461L9.16606 3.29461Z" fill="#2B2B2B"/>
<path fill-rule="evenodd" clip-rule="evenodd" d="M9 10.5C9 9.11929 10.1193 8 11.5 8C12.8807 8 14 9.11929 14 10.5C14 11.8807 12.8807 13 11.5 13C10.1193 13 9 11.8807 9 10.5ZM11.5 9.5C10.9477 9.5 10.5 9.94772 10.5 10.5C10.5 11.0523 10.9477 11.5 11.5 11.5C12.0523 11.5 12.5 11.0523 12.5 10.5C12.5 9.94772 12.0523 9.5 11.5 9.5Z" fill="#2B2B2B"/>
<path fill-rule="evenodd" clip-rule="evenodd" d="M20.257 13.7262C19.3549 12.8385 17.9689 12.7784 17.0001 13.4707C16.0307 12.778 14.6444 12.8394 13.7431 13.7263C12.7527 14.7015 12.7524 16.288 13.7434 17.2629L16.4739 19.9511C16.7659 20.2385 17.2344 20.2385 17.5263 19.9511L20.2571 17.2627C21.2481 16.2878 21.2473 14.7013 20.257 13.7262ZM17.75 14.7952C18.1395 14.4109 18.7951 14.3923 19.2047 14.7952C19.5986 15.1832 19.5982 15.8068 19.205 16.1935L17.0001 18.3642L14.7955 16.1937C14.4023 15.807 14.4016 15.1832 14.7955 14.7952C15.2047 14.3927 15.8603 14.4107 16.2501 14.7952C16.297 14.8414 16.3401 14.893 16.3784 14.9498C16.5178 15.1565 16.7509 15.2804 17.0002 15.2803C17.2495 15.2803 17.4825 15.1564 17.6219 14.9497C17.6602 14.893 17.7032 14.8414 17.75 14.7952Z" fill="#2B2B2B"/>
</svg>
