<?xml version="1.0" encoding="UTF-8"?>
<svg width="24" height="24" viewBox="0 0 24 24" fill="none" xmlns="http://www.w3.org/2000/svg">
    <title>luxury</title>
    <path fill-rule="evenodd" clip-rule="evenodd" d="M7.17171 3.25C7.16271 3.24984 7.1537 3.24984 7.14468 3.25H6.90934C6.71042 3.25 6.51966 3.32902 6.379 3.46967L3.46991 6.37876C3.32926 6.51941 3.25024 6.71018 3.25024 6.90909V7.13884C3.24992 7.1516 3.24992 7.16435 3.25024 7.17706V17.0909C3.25024 17.0908 3.25024 17.091 3.25024 17.0909C3.2502 17.182 3.26675 17.2742 3.30105 17.3623C3.33098 17.4394 3.37364 17.5115 3.4277 17.5754C3.44351 17.5941 3.46012 17.6119 3.47743 17.6288L6.36621 20.5175C6.41072 20.5642 6.46202 20.6058 6.51975 20.6409C6.64532 20.7172 6.78442 20.7523 6.92124 20.75H17.0787C17.2016 20.7522 17.3265 20.7241 17.4418 20.663C17.4621 20.6522 17.4819 20.6406 17.5012 20.628C17.5094 20.6227 17.5174 20.6172 17.5253 20.6116C17.5644 20.5839 17.6002 20.5529 17.6324 20.5194L20.5197 17.6321C20.5521 17.601 20.582 17.5666 20.609 17.529C20.6137 17.5225 20.6182 17.516 20.6227 17.5093C20.6374 17.4874 20.6509 17.4648 20.6632 17.4416C20.7243 17.3263 20.7524 17.2014 20.7502 17.0784V6.9215C20.7526 6.78591 20.7183 6.64803 20.6434 6.52318C20.6078 6.46393 20.5654 6.41136 20.5177 6.36588L17.6326 3.48074C17.5968 3.44346 17.5566 3.40942 17.5123 3.37941C17.4915 3.36527 17.47 3.35221 17.4479 3.34027C17.3308 3.27682 17.2035 3.24774 17.0783 3.25H7.17171ZM15.7665 4.75H8.40669L9.54195 6.88635H14.4847L15.7665 4.75ZM17.24 5.20953L15.8537 7.52015L16.48 8.14653L18.7907 6.76016L17.24 5.20953ZM19.2502 8.23369L17.1137 9.51559V14.4843L19.2502 15.7662V8.23369ZM18.7907 17.2398L16.4801 15.8534L15.8537 16.4798L17.24 18.7905L18.7907 17.2398ZM15.7665 19.25L14.4846 17.1136H9.54129L8.24281 19.25H15.7665ZM6.76439 18.7944L8.16187 16.4951L7.52029 15.8536L5.20982 17.2398L6.76439 18.7944ZM4.75024 15.7663L6.88647 14.4846V9.54171L4.75024 8.40652V15.7663ZM5.0845 6.8855L7.49844 8.16827L8.16847 7.49824L6.8857 5.08429L5.0845 6.8855ZM8.38647 9.40156L9.40168 8.38635H14.5985L15.6137 9.40156V14.5984L14.5985 15.6136H9.40168L8.38647 14.5984V9.40156Z" fill="#2B2B2B"/>
</svg>
