<?xml version="1.0" encoding="UTF-8"?>
<svg width="24" height="24" viewBox="0 0 24 24" fill="none" xmlns="http://www.w3.org/2000/svg">
    <title>magic-wand</title>
    <path d="M19.1819 3.72727C19.1819 4.32873 19.6714 4.81818 20.2728 4.81818C20.6743 4.81818 21.0001 5.144 21.0001 5.54545C21.0001 5.94691 20.6743 6.27273 20.2728 6.27273C19.6714 6.27273 19.1819 6.76218 19.1819 7.36364C19.1819 7.76509 18.8561 8.09091 18.4546 8.09091C18.0532 8.09091 17.7274 7.76509 17.7274 7.36364C17.7274 6.76218 17.2379 6.27273 16.6365 6.27273C16.235 6.27273 15.9092 5.94691 15.9092 5.54545C15.9092 5.144 16.235 4.81818 16.6365 4.81818C17.2379 4.81818 17.7274 4.32873 17.7274 3.72727C17.7274 3.32582 18.0532 3 18.4546 3C18.8561 3 19.1819 3.32582 19.1819 3.72727Z" fill="#2B2B2B"/>
    <path fill-rule="evenodd" clip-rule="evenodd" d="M13.1969 7.56055C13.4898 7.26766 13.9647 7.26766 14.2576 7.56055L16.4394 9.74237C16.7323 10.0353 16.7323 10.5101 16.4394 10.803L7.71215 19.5303C7.41925 19.8232 6.94438 19.8232 6.65149 19.5303L4.46967 17.3485C4.17678 17.0556 4.17678 16.5807 4.46967 16.2878L11.0105 9.74702L11.0151 9.74237L11.0197 9.73777L13.1969 7.56055ZM14.8484 10.2727L13.7272 11.3939L12.6061 10.2727L13.7273 9.15154L14.8484 10.2727ZM12.6666 12.4545L11.5454 11.3334L6.06066 16.8182L7.18182 17.9393L12.6666 12.4545Z" fill="#2B2B2B"/>
    <path d="M10.8182 4.81818C10.2168 4.81818 9.72732 4.32873 9.72732 3.72727C9.72732 3.32582 9.4015 3 9.00004 3C8.59859 3 8.27277 3.32582 8.27277 3.72727C8.27277 4.32873 7.78332 4.81818 7.18186 4.81818C6.78041 4.81818 6.45459 5.144 6.45459 5.54545C6.45459 5.94691 6.78041 6.27273 7.18186 6.27273C7.78332 6.27273 8.27277 6.76218 8.27277 7.36364C8.27277 7.76509 8.59859 8.09091 9.00004 8.09091C9.4015 8.09091 9.72732 7.76509 9.72732 7.36364C9.72732 6.76218 10.2168 6.27273 10.8182 6.27273C11.2197 6.27273 11.5455 5.94691 11.5455 5.54545C11.5455 5.144 11.2197 4.81818 10.8182 4.81818Z" fill="#2B2B2B"/>
    <path d="M17.7274 16.8182C17.7274 16.2167 17.2379 15.7273 16.6365 15.7273C16.235 15.7273 15.9092 15.4014 15.9092 15C15.9092 14.5985 16.235 14.2727 16.6365 14.2727C17.2379 14.2727 17.7274 13.7833 17.7274 13.1818C17.7274 12.7803 18.0532 12.4545 18.4546 12.4545C18.8561 12.4545 19.1819 12.7803 19.1819 13.1818C19.1819 13.7833 19.6714 14.2727 20.2728 14.2727C20.6743 14.2727 21.0001 14.5985 21.0001 15C21.0001 15.4014 20.6743 15.7273 20.2728 15.7273C19.6714 15.7273 19.1819 16.2167 19.1819 16.8182C19.1819 17.2196 18.8561 17.5454 18.4546 17.5454C18.0532 17.5454 17.7274 17.2196 17.7274 16.8182Z" fill="#2B2B2B"/>
</svg>
