<?xml version="1.0" encoding="UTF-8"?>
<svg width="24" height="24" viewBox="0 0 24 24" fill="none" xmlns="http://www.w3.org/2000/svg">
<path fill-rule="evenodd" clip-rule="evenodd" d="M19.5002 4.25C20.8349 4.25 21.9168 5.33198 21.9168 6.66667V12.2498C21.9168 12.6641 21.581 13 21.1667 13C20.7524 13 20.4165 12.6641 20.4165 12.2498V6.757L18.3638 8.86366L13.8245 13.401L12.5305 14.697C12.2642 14.9633 11.8476 14.9875 11.554 14.7696L11.4698 14.697L10.1365 13.363L4.5385 18.25H12.2501C12.6643 18.25 13.0001 18.5858 13.0001 19C13.0001 19.4142 12.6643 19.75 12.2501 19.75H4.50016C3.16547 19.75 2.0835 18.668 2.0835 17.3333V6.66667C2.0835 5.33198 3.16547 4.25 4.50016 4.25H19.5002ZM3.5835 6.759V17.092L9.0725 12.299L5.62987 8.85695L3.5835 6.759ZM19.3035 5.75H4.6945L6.69716 7.803L11.9995 13.106L17.2965 7.80978L19.3035 5.75Z" fill="#2B2B2B"/>
<path d="M17.3377 15.2295C17.0317 14.9235 16.5355 14.9235 16.2295 15.2295C15.9235 15.5355 15.9235 16.0317 16.2295 16.3377L17.8918 18L16.2296 19.6623C15.9235 19.9683 15.9235 20.4645 16.2296 20.7705C16.5356 21.0765 17.0317 21.0765 17.3377 20.7705L19 19.1082L20.6623 20.7705C20.9683 21.0765 21.4644 21.0765 21.7704 20.7705C22.0765 20.4645 22.0765 19.9683 21.7704 19.6623L20.1082 18L21.7705 16.3377C22.0765 16.0317 22.0765 15.5355 21.7705 15.2295C21.4645 14.9235 20.9683 14.9235 20.6623 15.2295L19 16.8918L17.3377 15.2295Z" fill="#2B2B2B"/>
</svg>
