<?xml version="1.0" encoding="UTF-8"?>
<svg width="24" height="24" viewBox="0 0 24 24" fill="none" xmlns="http://www.w3.org/2000/svg">
<path fill-rule="evenodd" clip-rule="evenodd" d="M12.9995 9.5C13.3061 9.5 13.5819 9.68701 13.6958 9.97168L14.6343 12.3164C15.0655 13.395 14.747 14.5305 14.0005 15.251V20.25C14.0005 20.6641 13.6645 20.9997 13.2505 21H2.75049C2.33628 21 2.00049 20.6642 2.00049 20.25V15.251C1.2539 14.5305 0.934369 13.3951 1.36573 12.3164L2.30323 9.97168C2.41706 9.68711 2.69306 9.50022 2.99951 9.5H12.9995ZM10.1108 15.0713C9.59058 15.638 8.84422 15.9999 8.00049 16C7.15638 15.9999 6.40857 15.6384 5.88819 15.0713C5.39205 15.6432 4.6627 15.9999 3.85987 16C3.73741 16 3.61758 15.991 3.50049 15.9756V19.5H12.5005V15.9756C12.3832 15.991 12.2628 16 12.1401 16C11.3371 15.9999 10.6072 15.6435 10.1108 15.0713ZM2.7583 12.873C2.4468 13.652 3.02096 14.4997 3.85987 14.5C4.43952 14.4998 4.93445 14.0806 5.02979 13.5088L5.44776 11H3.50733L2.7583 12.873ZM6.65186 12.9072C6.51291 13.7409 7.15535 14.4999 8.00049 14.5C8.83765 14.4998 9.47533 13.7551 9.35205 12.9307L9.03174 11H6.96924L6.65186 12.9072ZM10.8296 12.6611C10.8307 12.6679 10.8305 12.6749 10.8315 12.6816L10.9702 13.5088C11.0655 14.0806 11.5604 14.4998 12.1401 14.5C12.9791 14.4998 13.5533 13.6521 13.2417 12.873L12.4917 11H10.5532L10.8296 12.6611Z" fill="#2B2B2B"/>
<path fill-rule="evenodd" clip-rule="evenodd" d="M21.1138 3.00879C21.3735 3.04843 21.5971 3.22254 21.6968 3.47168L22.6353 5.81641C23.0665 6.89502 22.747 8.03052 22.0005 8.75098V14.25C22.0005 14.6641 21.6645 14.9997 21.2505 15H17.7505C17.3363 15 17.0005 14.6642 17.0005 14.25C17.0005 13.8358 17.3363 13.5 17.7505 13.5H20.5005V9.47559C20.3834 9.49099 20.2636 9.49998 20.1411 9.5C19.3377 9.5 18.607 9.14381 18.1108 8.57129C17.5906 9.13788 16.8442 9.49986 16.0005 9.5C15.5864 9.5 15.2506 9.16411 15.2505 8.75C15.2506 8.33586 15.5863 8 16.0005 8C16.8454 7.99971 17.4888 7.24072 17.3501 6.40723L17.0327 4.5H14.9692L14.6577 6.37305C14.5897 6.78142 14.2028 7.05794 13.7944 6.99023C13.3859 6.92215 13.1102 6.53547 13.1782 6.12695L13.4487 4.5H11.5083L10.7593 6.37305C10.6055 6.75745 10.1691 6.94446 9.78467 6.79102C9.40014 6.6372 9.21298 6.20096 9.3667 5.81641L10.3042 3.47168C10.4181 3.18714 10.694 3.00016 11.0005 3H21.0005L21.1138 3.00879ZM18.9712 7.00879C19.0665 7.5807 19.5612 8 20.1411 8C20.98 7.99969 21.5541 7.15204 21.2427 6.37305L20.4927 4.5H18.5532L18.9712 7.00879Z" fill="#2B2B2B"/>
</svg>
