<svg width="22" height="22" viewBox="0 0 22 22" fill="none" xmlns="http://www.w3.org/2000/svg">
<path d="M1.83334 11.0006C1.83334 5.93795 5.93739 1.83393 11 1.83393C11.166 1.83393 11.3311 1.83773 11.495 1.84646C11.8741 1.8667 12.1651 2.19073 12.1449 2.56977C12.1248 2.94893 11.8008 3.23986 11.4216 3.21967C11.2821 3.21224 11.1415 3.20893 11 3.20893C6.69678 3.20893 3.20834 6.69735 3.20834 11.0006C3.20844 15.3037 6.69685 18.7923 11 18.7923C15.3031 18.7923 18.7916 15.3037 18.7917 11.0006C18.7917 10.8591 18.7883 10.7184 18.7809 10.579C18.7607 10.1997 19.0517 9.87591 19.4308 9.85565C19.8099 9.83572 20.133 10.1265 20.1532 10.5056C20.1619 10.6694 20.1667 10.8346 20.1667 11.0006C20.1666 16.0631 16.0625 20.1673 11 20.1673C5.93746 20.1673 1.83344 16.0631 1.83334 11.0006Z" fill="currentColor"/>
<path d="M5.5 10.9881C5.50016 8.30616 7.41496 6.0731 9.95174 5.57847C10.3244 5.50581 10.6857 5.74917 10.7583 6.12185C10.8308 6.49445 10.5876 6.85577 10.2149 6.92841C8.31164 7.29952 6.87516 8.97656 6.875 10.9881C6.875 13.2727 8.72701 15.1254 11.0116 15.1256C13.0232 15.1256 14.7009 13.689 15.0722 11.7857C15.1448 11.413 15.5061 11.1697 15.8787 11.2423C16.2514 11.3151 16.4948 11.6763 16.4221 12.0489C15.9274 14.5856 13.6936 16.5006 11.0116 16.5006C7.96762 16.5004 5.5 14.0321 5.5 10.9881Z" fill="currentColor"/>
<path fill-rule="evenodd" clip-rule="evenodd" d="M15.5959 1.5591C16.0878 1.16336 16.8497 1.37792 17.0434 2.0067L17.7371 4.26256L19.993 4.95722C20.6639 5.16365 20.8636 6.01627 20.3538 6.49872L17.5125 9.18695C17.2146 9.46852 16.8203 9.62551 16.4105 9.62559H13.3472L11.4861 11.4867C11.2176 11.755 10.7824 11.755 10.5139 11.4867C10.2455 11.2182 10.2456 10.783 10.5139 10.5145L12.375 8.65342V5.59011C12.375 5.18023 12.532 4.78596 12.8136 4.48814L15.501 1.64683L15.5959 1.5591ZM13.75 8.25059H16.4105C16.4689 8.25051 16.5255 8.22812 16.568 8.18793L18.8373 6.03949L16.9852 5.47016C16.7677 5.40323 16.5974 5.23284 16.5304 5.0154L15.9593 3.16148L13.8127 5.43256C13.7725 5.47508 13.75 5.53158 13.75 5.59011V8.25059Z" fill="currentColor"/>
</svg>
