<?xml version="1.0" encoding="UTF-8"?>
<svg width="24px" height="24px" viewBox="0 0 24 24" version="1.1" xmlns="http://www.w3.org/2000/svg" xmlns:xlink="http://www.w3.org/1999/xlink">
    <title>menu</title>
    <g stroke="none" stroke-width="1" fill="none" fill-rule="evenodd">
        <g fill="#414851" fill-rule="nonzero">
            <path d="M18,16 C18.5522847,16 19,16.4477153 19,17 C19,17.5128358 18.6139598,17.9355072 18.1166211,17.9932723 L18,18 L6,18 C5.44771525,18 5,17.5522847 5,17 C5,16.4871642 5.38604019,16.0644928 5.88337887,16.0067277 L6,16 L18,16 Z M18,11 C18.5522847,11 19,11.4477153 19,12 C19,12.5128358 18.6139598,12.9355072 18.1166211,12.9932723 L18,13 L6,13 C5.44771525,13 5,12.5522847 5,12 C5,11.4871642 5.38604019,11.0644928 5.88337887,11.0067277 L6,11 L18,11 Z M18,6 C18.5522847,6 19,6.44771525 19,7 C19,7.51283584 18.6139598,7.93550716 18.1166211,7.99327227 L18,8 L6,8 C5.44771525,8 5,7.55228475 5,7 C5,6.48716416 5.38604019,6.06449284 5.88337887,6.00672773 L6,6 L18,6 Z"></path>
        </g>
    </g>
</svg>
