<?xml version="1.0" encoding="UTF-8"?>
<svg width="24px" height="24px" viewBox="0 0 24 24" version="1.1" xmlns="http://www.w3.org/2000/svg" xmlns:xlink="http://www.w3.org/1999/xlink">
    <title>money</title>
    <g stroke="none" stroke-width="1" fill="none" fill-rule="evenodd">
        <g transform="translate(1.500000, 2.500000)">
            <rect x="1" y="1" width="18" height="18"></rect>
            <g stroke-linecap="square" transform="translate(0.750000, 0.750000)" fill="#414851" fill-rule="nonzero">
                <path d="M5.5,0.25 C8.34634935,0.25 10.75,1.45182532 10.75,3.25 L10.75,3.25 L10.75,6.25 C10.75,6.34410424 10.7434184,6.43657482 10.730536,6.52732503 C11.4202365,6.34677684 12.1922941,6.25 13,6.25 C15.8463494,6.25 18.25,7.45182532 18.25,9.25 L18.25,9.25 L18.25,15.25 C18.25,17.048284 15.846568,18.25 13,18.25 C10.2371546,18.25 7.89176169,17.1179336 7.75618741,15.4071085 L7.75,15.25 L7.75210961,14.975949 C7.0600199,15.1549031 6.29290992,15.25 5.5,15.25 C2.73715461,15.25 0.39176169,14.1179336 0.256187405,12.4071085 L0.25,12.25 L0.25,3.25 L0.256187956,3.09290055 C0.391774172,1.38216936 2.73736681,0.25 5.5,0.25 Z M13,15.25 C11.5477937,15.25 10.2109195,14.937237 9.24965825,14.3920602 L9.25,15.25 C9.25,15.937216 10.875568,16.75 13,16.75 C15.0485595,16.75 16.6332517,15.9942353 16.743831,15.324068 L16.75,15.25 L16.7513492,14.3914887 C15.7900147,14.9370184 14.4527137,15.25 13,15.25 Z M16.751269,11.3914469 C15.7899054,11.9369899 14.4526022,12.25 13,12.25 C11.5479052,12.25 10.2110288,11.9372085 9.24973854,11.3920184 L9.25,12.25 C9.25,12.937216 10.875568,13.75 13,13.75 C15.0485595,13.75 16.6332517,12.9942353 16.743831,12.324068 L16.75,12.25 Z M1.74865078,11.3914887 L1.75,12.25 C1.75,12.937216 3.37556798,13.75 5.5,13.75 C6.32381726,13.75 7.10418968,13.6289058 7.75212376,13.4132635 L7.75198888,11.9753639 C7.05950603,12.1546681 6.29257384,12.25 5.5,12.25 C4.04728625,12.25 2.7099853,11.9370184 1.74865078,11.3914887 Z M1.74865078,8.39148869 L1.75,9.25 C1.75,9.93721601 3.37556798,10.75 5.5,10.75 C6.32319119,10.75 7.10329553,10.6286323 7.7522374,10.4124597 L7.75,9.25 L7.75618796,9.09290055 C7.75938952,9.05250548 7.7638233,9.012433 7.76946569,8.97269039 C7.07959046,9.15326479 6.30763091,9.25 5.5,9.25 C4.04728625,9.25 2.7099853,8.93701839 1.74865078,8.39148869 Z M13,7.75 C10.8757866,7.75 9.25,8.5628933 9.25,9.25 C9.25,9.9371067 10.8757866,10.75 13,10.75 C15.1242134,10.75 16.75,9.9371067 16.75,9.25 C16.75,8.5628933 15.1242134,7.75 13,7.75 Z M9.25126897,5.39144687 C8.28990543,5.93698992 6.95260217,6.25 5.5,6.25 C4.0479052,6.25 2.71102878,5.93720854 1.74973854,5.39201843 L1.75,6.25 C1.75,6.93721601 3.37556798,7.75 5.5,7.75 C7.54855945,7.75 9.1332517,6.9942353 9.24383104,6.32406803 L9.25,6.25 Z M5.5,1.75 C3.3757866,1.75 1.75,2.5628933 1.75,3.25 C1.75,3.9371067 3.3757866,4.75 5.5,4.75 C7.6242134,4.75 9.25,3.9371067 9.25,3.25 C9.25,2.5628933 7.6242134,1.75 5.5,1.75 Z"></path>
            </g>
        </g>
    </g>
</svg>
