<?xml version="1.0" encoding="UTF-8"?>
<svg width="24px" height="24px" viewBox="0 0 24 24" version="1.1" xmlns="http://www.w3.org/2000/svg" xmlns:xlink="http://www.w3.org/1999/xlink">
    <title>more-horizontal</title>
    <g stroke="none" stroke-width="1" fill="none" fill-rule="evenodd">
        <g fill="#414851" fill-rule="nonzero">
            <path d="M12,8.66666667 C12.9166667,8.66666667 13.6666667,7.91666667 13.6666667,7 C13.6666667,6.08333333 12.9166667,5.33333333 12,5.33333333 C11.0833333,5.33333333 10.3333333,6.08333333 10.3333333,7 C10.3333333,7.91666667 11.0833333,8.66666667 12,8.66666667 Z M12,10.3333333 C11.0833333,10.3333333 10.3333333,11.0833333 10.3333333,12 C10.3333333,12.9166667 11.0833333,13.6666667 12,13.6666667 C12.9166667,13.6666667 13.6666667,12.9166667 13.6666667,12 C13.6666667,11.0833333 12.9166667,10.3333333 12,10.3333333 Z M12,15.3333333 C11.0833333,15.3333333 10.3333333,16.0833333 10.3333333,17 C10.3333333,17.9166667 11.0833333,18.6666667 12,18.6666667 C12.9166667,18.6666667 13.6666667,17.9166667 13.6666667,17 C13.6666667,16.0833333 12.9166667,15.3333333 12,15.3333333 Z" transform="translate(12.000000, 12.000000) rotate(-270.000000) translate(-12.000000, -12.000000) "></path>
        </g>
    </g>
</svg>
