<?xml version="1.0" encoding="UTF-8"?>
<svg width="24px" height="24px" viewBox="0 0 24 24" version="1.1" xmlns="http://www.w3.org/2000/svg" xmlns:xlink="http://www.w3.org/1999/xlink">
    <title>more</title>
    <g stroke="none" stroke-width="1" fill="none" fill-rule="evenodd">
        <g transform="translate(2.000000, 2.000000)">
            <rect x="0" y="0" width="20" height="20"></rect>
            <g transform="translate(8.333333, 3.333333)" fill="#414851" fill-rule="nonzero">
                <path d="M1.66666667,3.33333333 C2.58333333,3.33333333 3.33333333,2.58333333 3.33333333,1.66666667 C3.33333333,0.75 2.58333333,0 1.66666667,0 C0.75,0 0,0.75 0,1.66666667 C0,2.58333333 0.75,3.33333333 1.66666667,3.33333333 Z M1.66666667,5 C0.75,5 0,5.75 0,6.66666667 C0,7.58333333 0.75,8.33333333 1.66666667,8.33333333 C2.58333333,8.33333333 3.33333333,7.58333333 3.33333333,6.66666667 C3.33333333,5.75 2.58333333,5 1.66666667,5 Z M1.66666667,10 C0.75,10 0,10.75 0,11.6666667 C0,12.5833333 0.75,13.3333333 1.66666667,13.3333333 C2.58333333,13.3333333 3.33333333,12.5833333 3.33333333,11.6666667 C3.33333333,10.75 2.58333333,10 1.66666667,10 Z"></path>
            </g>
        </g>
    </g>
</svg>
