<?xml version="1.0" encoding="UTF-8"?>
<svg width="24" height="24" viewBox="0 0 24 24" fill="none" xmlns="http://www.w3.org/2000/svg">
<path fill-rule="evenodd" clip-rule="evenodd" d="M7 6.08334C7 6.77369 6.44036 7.33334 5.75 7.33334C5.05964 7.33334 4.5 6.77369 4.5 6.08334C4.5 5.39298 5.05964 4.83334 5.75 4.83334C6.44036 4.83334 7 5.39298 7 6.08334ZM10 11.9167C10 12.607 9.44036 13.1667 8.75 13.1667C8.05964 13.1667 7.5 12.607 7.5 11.9167C7.5 11.2263 8.05964 10.6667 8.75 10.6667C9.44036 10.6667 10 11.2263 10 11.9167ZM18.6667 5.25H9.50008C9.03984 5.25 8.66675 5.6231 8.66675 6.08333C8.66675 6.54357 9.03984 6.91667 9.50008 6.91667H18.6667C19.127 6.91667 19.5001 6.54357 19.5001 6.08333C19.5001 5.6231 19.127 5.25 18.6667 5.25ZM12.5001 11.0833H18.6667C19.127 11.0833 19.5001 11.4564 19.5001 11.9167C19.5001 12.3769 19.127 12.75 18.6667 12.75H12.5001C12.0398 12.75 11.6667 12.3769 11.6667 11.9167C11.6667 11.4564 12.0398 11.0833 12.5001 11.0833ZM8.75 19C9.44036 19 10 18.4404 10 17.75C10 17.0596 9.44036 16.5 8.75 16.5C8.05964 16.5 7.5 17.0596 7.5 17.75C7.5 18.4404 8.05964 19 8.75 19ZM12.5001 16.9167H18.6667C19.127 16.9167 19.5001 17.2898 19.5001 17.75C19.5001 18.2102 19.127 18.5833 18.6667 18.5833H12.5001C12.0398 18.5833 11.6667 18.2102 11.6667 17.75C11.6667 17.2898 12.0398 16.9167 12.5001 16.9167Z" fill="#2B2B2B"/>
</svg>
