<svg width="22" height="22" viewBox="0 0 22 22" fill="none" xmlns="http://www.w3.org/2000/svg">
<path fill-rule="evenodd" clip-rule="evenodd" d="M11 8.23571C11.3906 8.23571 11.7072 8.55231 11.7072 8.94286V11.6857C11.7072 11.9102 11.6006 12.1214 11.42 12.2547L8.53997 14.3804C8.22575 14.6123 7.78301 14.5456 7.55108 14.2314C7.31916 13.9171 7.38587 13.4744 7.70009 13.2425L10.2929 11.3288V8.94286C10.2929 8.55231 10.6095 8.23571 11 8.23571Z" fill="currentColor"/>
<path fill-rule="evenodd" clip-rule="evenodd" d="M10.4311 11.2658C10.663 10.9516 11.1057 10.8848 11.4199 11.1168L14.2999 13.2425C14.6142 13.4744 14.6809 13.9171 14.4489 14.2314C14.217 14.5456 13.7743 14.6123 13.4601 14.3804L10.5801 12.2547C10.2658 12.0227 10.1991 11.58 10.4311 11.2658Z" fill="currentColor"/>
<path fill-rule="evenodd" clip-rule="evenodd" d="M11 4.16429C9.87571 4.16429 8.96429 5.07571 8.96429 6.2C8.96429 7.32429 9.87574 8.23571 11 8.23571C12.1243 8.23571 13.0357 7.32429 13.0357 6.2C13.0357 5.07571 12.1243 4.16429 11 4.16429ZM7.55 6.2C7.55 4.29462 9.09462 2.75 11 2.75C12.9054 2.75 14.45 4.29462 14.45 6.2C14.45 8.10538 12.9054 9.65 11 9.65C9.09462 9.65 7.55 8.10538 7.55 6.2Z" fill="currentColor"/>
<path fill-rule="evenodd" clip-rule="evenodd" d="M6.2 13.7643C5.07571 13.7643 4.16429 14.6757 4.16429 15.8C4.16429 16.9243 5.07571 17.8357 6.2 17.8357C7.32429 17.8357 8.23571 16.9243 8.23571 15.8C8.23571 14.6757 7.32429 13.7643 6.2 13.7643ZM2.75 15.8C2.75 13.8946 4.29462 12.35 6.2 12.35C8.10538 12.35 9.65 13.8946 9.65 15.8C9.65 17.7054 8.10538 19.25 6.2 19.25C4.29462 19.25 2.75 17.7054 2.75 15.8Z" fill="currentColor"/>
<path fill-rule="evenodd" clip-rule="evenodd" d="M15.8 13.7643C14.6757 13.7643 13.7643 14.6757 13.7643 15.8C13.7643 16.9243 14.6757 17.8357 15.8 17.8357C16.9243 17.8357 17.8357 16.9243 17.8357 15.8C17.8357 14.6757 16.9243 13.7643 15.8 13.7643ZM12.35 15.8C12.35 13.8946 13.8946 12.35 15.8 12.35C17.7054 12.35 19.25 13.8946 19.25 15.8C19.25 17.7054 17.7054 19.25 15.8 19.25C13.8946 19.25 12.35 17.7054 12.35 15.8Z" fill="currentColor"/>
</svg>
