<?xml version="1.0" encoding="UTF-8"?>
<svg width="24px" height="24px" viewBox="0 0 24 24" version="1.1" xmlns="http://www.w3.org/2000/svg" xmlns:xlink="http://www.w3.org/1999/xlink">
    <title>notes</title>
    <g stroke="none" stroke-width="1" fill="none" fill-rule="evenodd">
        <g transform="translate(3.000000, 3.000000)">
            <rect x="0" y="0" width="18" height="18"></rect>
            <g stroke-linecap="square" transform="translate(1.500000, 0.750000)" fill="#414851" fill-rule="nonzero">
                <path d="M11.5,2.25 L0.5,2.25 C-0.190355937,2.25 -0.75,2.80964406 -0.75,3.5 L-0.75,16 C-0.75,16.6903559 -0.190355937,17.25 0.5,17.25 L11.5,17.25 C12.1903559,17.25 12.75,16.6903559 12.75,16 L12.75,3.5 C12.75,2.80964406 12.1903559,2.25 11.5,2.25 Z M11.25,3.75 L11.25,15.75 L0.75,15.75 L0.75,3.75 L11.25,3.75 Z"></path>
                <path d="M14.5,-0.75 C15.1472087,-0.75 15.6795339,-0.258125336 15.7435464,0.372194761 L15.75,0.5 L15.75,15 C15.75,15.4142136 15.4142136,15.75 15,15.75 C14.6203042,15.75 14.306509,15.4678461 14.2568466,15.1017706 L14.25,15 L14.25,0.75 L2.25,0.75 C1.87030423,0.75 1.55650904,0.467846118 1.50684662,0.101770557 L1.5,0 C1.5,-0.379695766 1.78215388,-0.693490961 2.14822944,-0.743153384 L2.25,-0.75 L14.5,-0.75 Z"></path>
                <path d="M9,6 C9.41421356,6 9.75,6.33578644 9.75,6.75 C9.75,7.12969577 9.46784612,7.44349096 9.10177056,7.49315338 L9,7.5 L3,7.5 C2.58578644,7.5 2.25,7.16421356 2.25,6.75 C2.25,6.37030423 2.53215388,6.05650904 2.89822944,6.00684662 L3,6 L9,6 Z"></path>
                <path d="M9,9 C9.41421356,9 9.75,9.33578644 9.75,9.75 C9.75,10.1296958 9.46784612,10.443491 9.10177056,10.4931534 L9,10.5 L3,10.5 C2.58578644,10.5 2.25,10.1642136 2.25,9.75 C2.25,9.37030423 2.53215388,9.05650904 2.89822944,9.00684662 L3,9 L9,9 Z"></path>
                <path d="M6,12 C6.41421356,12 6.75,12.3357864 6.75,12.75 C6.75,13.1296958 6.46784612,13.443491 6.10177056,13.4931534 L6,13.5 L3,13.5 C2.58578644,13.5 2.25,13.1642136 2.25,12.75 C2.25,12.3703042 2.53215388,12.056509 2.89822944,12.0068466 L3,12 L6,12 Z"></path>
            </g>
        </g>
    </g>
</svg>
