<?xml version="1.0" encoding="UTF-8"?>
<svg width="24px" height="24px" viewBox="0 0 24 24" version="1.1" xmlns="http://www.w3.org/2000/svg" xmlns:xlink="http://www.w3.org/1999/xlink">
    <title>off</title>
    <g stroke="none" stroke-width="1" fill="none" fill-rule="evenodd">
        <g transform="translate(4.000000, 3.000000)">
            <rect x="0" y="1" width="16" height="16"></rect>
            <g stroke-linecap="square" transform="translate(0.333333, 0.666667)" fill="#414851" fill-rule="nonzero">
                <path d="M3.9731863,2.59975495 C4.30469249,2.40085124 4.73467467,2.50834679 4.93357838,2.83985297 C5.13248209,3.17135916 5.02498655,3.60134134 4.69348036,3.80024505 C2.84006543,4.91229401 1.7,6.85040524 1.7,9 C1.7,12.2800673 4.38659932,14.9666667 7.66666667,14.9666667 C10.946734,14.9666667 13.6333333,12.2800673 13.6333333,9 C13.6333333,6.82841124 12.4730077,4.83928153 10.6548912,3.80901553 C10.3185412,3.6184172 10.2003861,3.19124119 10.3909845,2.8548912 C10.5815828,2.51854121 11.0087588,2.40038614 11.3451088,2.59098447 C13.6016811,3.86970879 15.0333333,6.32396971 15.0333333,9 C15.0333333,13.053266 11.7199327,16.3666667 7.66666667,16.3666667 C3.61340068,16.3666667 0.3,13.053266 0.3,9 C0.3,6.34959476 1.70538911,3.96043327 3.9731863,2.59975495 Z"></path>
                <path d="M7.66666667,0.3 C8.02104938,0.3 8.3139249,0.563343623 8.36027649,0.905014146 L8.36666667,1 L8.36666667,9.22222222 C8.36666667,9.60882155 8.05326599,9.92222222 7.66666667,9.92222222 C7.31228395,9.92222222 7.01940844,9.6588786 6.97305684,9.31720808 L6.96666667,9.22222222 L6.96666667,1 C6.96666667,0.613400675 7.28006734,0.3 7.66666667,0.3 Z"></path>
            </g>
        </g>
    </g>
</svg>
