<?xml version="1.0" encoding="UTF-8"?>
<svg width="24" height="24" viewBox="0 0 24 24" fill="none" xmlns="http://www.w3.org/2000/svg">
    <title>office</title>
    <path d="M6.34082 3C6.34082 2.58579 6.67661 2.25 7.09082 2.25H16.909C17.3232 2.25 17.659 2.58579 17.659 3V7.09091C17.659 7.50512 17.3232 7.84091 16.909 7.84091C16.4948 7.84091 16.159 7.50512 16.159 7.09091V3.75H7.84082V9.54545C7.84082 9.95967 7.50503 10.2955 7.09082 10.2955C6.67661 10.2955 6.34082 9.95967 6.34082 9.54545V3Z" fill="#2B2B2B"/>
    <path d="M5.52271 17.7273C5.52271 17.3131 5.85849 16.9773 6.27271 16.9773H7.09089C7.5051 16.9773 7.84089 17.3131 7.84089 17.7273C7.84089 18.1415 7.5051 18.4773 7.09089 18.4773H6.27271C5.85849 18.4773 5.52271 18.1415 5.52271 17.7273Z" fill="#2B2B2B"/>
    <path d="M6.27271 14.5227C5.85849 14.5227 5.52271 14.8585 5.52271 15.2727C5.52271 15.6869 5.85849 16.0227 6.27271 16.0227H7.09089C7.5051 16.0227 7.84089 15.6869 7.84089 15.2727C7.84089 14.8585 7.5051 14.5227 7.09089 14.5227H6.27271Z" fill="#2B2B2B"/>
    <path d="M16.9092 12.0682C16.495 12.0682 16.1592 12.404 16.1592 12.8182C16.1592 13.2324 16.495 13.5682 16.9092 13.5682H17.7274C18.1416 13.5682 18.4774 13.2324 18.4774 12.8182C18.4774 12.404 18.1416 12.0682 17.7274 12.0682H16.9092Z" fill="#2B2B2B"/>
    <path d="M16.1592 15.2727C16.1592 14.8585 16.495 14.5227 16.9092 14.5227H17.7274C18.1416 14.5227 18.4774 14.8585 18.4774 15.2727C18.4774 15.6869 18.1416 16.0227 17.7274 16.0227H16.9092C16.495 16.0227 16.1592 15.6869 16.1592 15.2727Z" fill="#2B2B2B"/>
    <path d="M16.9092 16.9773C16.495 16.9773 16.1592 17.3131 16.1592 17.7273C16.1592 18.1415 16.495 18.4773 16.9092 18.4773H17.7274C18.1416 18.4773 18.4774 18.1415 18.4774 17.7273C18.4774 17.3131 18.1416 16.9773 17.7274 16.9773H16.9092Z" fill="#2B2B2B"/>
    <path fill-rule="evenodd" clip-rule="evenodd" d="M11.1136 20.25V12C11.1136 11.5858 10.7778 11.25 10.3636 11.25H3C2.58579 11.25 2.25 11.5858 2.25 12V21C2.25 21.4142 2.58579 21.75 3 21.75H13.6316L13.6365 21.75H21.0001C21.4143 21.75 21.7501 21.4142 21.7501 21V9.54547C21.7501 9.13126 21.4143 8.79547 21.0001 8.79547H13.6365C13.2223 8.79547 12.8865 9.13126 12.8865 9.54547V20.25H11.1136ZM3.75 20.25V12.75H9.61364V20.25H3.75ZM14.3865 10.2955V20.25H20.2501V10.2955H14.3865Z" fill="#2B2B2B"/>
</svg>
