<?xml version="1.0" encoding="utf-8"?>
<!-- Generator: Adobe Illustrator 25.2.0, SVG Export Plug-In . SVG Version: 6.00 Build 0)  -->
<svg version="1.1" xmlns="http://www.w3.org/2000/svg" xmlns:xlink="http://www.w3.org/1999/xlink" x="0px" y="0px"
	 width="24px" height="24px" viewBox="0 0 24 24" style="enable-background:new 0 0 24 24;" xml:space="preserve">
<path fill="#36475C" d="M20.1458,7.2305c-0.0355-0.0853-0.087-0.162-0.1514-0.2261L16.995,4.005C16.864,3.874,16.685,3.8,16.5,3.8h-9
	c-0.186,0-0.364,0.074-0.495,0.205l-3,3C3.9999,7.0101,3.9982,7.0175,3.9932,7.0227C3.9492,7.0694,3.917,7.1245,3.887,7.1818
	c-0.0105,0.0203-0.0267,0.0369-0.0352,0.058C3.8194,7.3206,3.8,7.4077,3.8,7.5V18c0,1.215,0.985,2.2,2.2,2.2h12
	c1.215,0,2.2-0.985,2.2-2.2V7.5C20.2,7.4064,20.181,7.3151,20.1458,7.2305z M7.788,5.2h8.423l1.6,1.6H6.188L7.788,5.2z M18,18.8H6
	l-0.1-0.006C5.505,18.744,5.2,18.408,5.2,18V8.2h13.6V18C18.8,18.442,18.442,18.8,18,18.8z M15.495,13.005
	c0.246,0.246,0.27,0.63,0.074,0.903l-0.074,0.087l-2.9994,2.9994c-0.0035,0.0035-0.0085,0.0051-0.012,0.0085
	c-0.0612,0.0588-0.1297,0.105-0.2034,0.1371c-0.0208,0.0092-0.0447,0.0099-0.0665,0.017c-0.0621,0.02-0.1241,0.0358-0.1887,0.038
	C12.0161,17.1953,12.0089,17.2,12,17.2c-0.0294,0-0.055-0.0119-0.0835-0.0154c-0.0456-0.0055-0.09-0.0103-0.1341-0.0248
	c-0.0393-0.0129-0.0735-0.0328-0.1094-0.0522c-0.0266-0.0142-0.0561-0.0208-0.081-0.0386l-0.0427-0.0363
	c-0.0062-0.0052-0.0123-0.0101-0.0183-0.0156L11.505,16.995l-3-3c-0.273-0.273-0.273-0.717,0-0.99
	c0.246-0.246,0.63-0.27,0.903-0.074l0.087,0.074l1.805,1.8057V9.75c0-0.387,0.313-0.7,0.7-0.7c0.354,0,0.647,0.263,0.694,0.605
	L12.7,9.75v5.0607c0.7269-0.7272,1.805-1.8057,1.805-1.8057C14.778,12.732,15.222,12.732,15.495,13.005z"/>
</svg>
