<?xml version="1.0" encoding="UTF-8"?>
<svg width="24" height="24" viewBox="0 0 24 24" fill="none" xmlns="http://www.w3.org/2000/svg">
    <title>ordered-list</title>
    <path fill-rule="evenodd" clip-rule="evenodd" d="M6.74386 4.89219C6.98349 5.02401 7.13236 5.27582 7.13236 5.54932V10.5664C7.13236 10.9806 6.79657 11.3164 6.38236 11.3164C5.96815 11.3164 5.63236 10.9806 5.63236 10.5664V6.91264L5.21997 7.17403C4.87011 7.39578 4.40673 7.29192 4.18498 6.94206C3.96323 6.59221 4.06709 6.12883 4.41695 5.90708L5.98085 4.91584C6.21185 4.76943 6.50424 4.76037 6.74386 4.89219ZM10.6494 6.98278C10.6494 6.56856 10.9852 6.23278 11.3994 6.23278H20.0001C20.4144 6.23278 20.7501 6.56856 20.7501 6.98278C20.7501 7.39699 20.4144 7.73278 20.0001 7.73278H11.3994C10.9852 7.73278 10.6494 7.39699 10.6494 6.98278ZM10.6494 11.9999C10.6494 11.5857 10.9852 11.2499 11.3994 11.2499H20.0001C20.4144 11.2499 20.7501 11.5857 20.7501 11.9999C20.7501 12.4141 20.4144 12.7499 20.0001 12.7499H11.3994C10.9852 12.7499 10.6494 12.4141 10.6494 11.9999ZM6.39956 14.1845C6.07222 14.1623 5.75825 14.3883 5.6786 14.7244C5.58308 15.1274 5.1789 15.3767 4.77585 15.2812C4.37281 15.1857 4.12351 14.7815 4.21903 14.3785C4.46621 13.3356 5.43518 12.6155 6.50117 12.6879C7.15794 12.7322 7.92114 13.0442 8.30726 13.7663L7.64587 14.12L8.30662 13.7651C8.38361 13.9085 8.53009 14.2278 8.53133 14.6852C8.53347 15.2425 8.31971 15.6903 8.03381 16.0839C7.79834 16.4081 7.47497 16.7451 7.13604 17.0983C7.09039 17.1459 7.04446 17.1937 6.99843 17.2419C6.87441 17.3717 6.7291 17.5248 6.565 17.6997H7.9641C8.37831 17.6997 8.7141 18.0355 8.7141 18.4497C8.7141 18.8639 8.37831 19.1997 7.9641 19.1997H4.94882C4.5346 19.1997 4.19882 18.8639 4.19882 18.4497V18.3508C4.19882 18.1656 4.26734 17.987 4.39118 17.8493C5.03164 17.1372 5.558 16.5782 5.91378 16.2058C5.95977 16.1577 6.00421 16.1113 6.04691 16.0667C6.40467 15.6931 6.64928 15.4376 6.82019 15.2023C6.9927 14.9648 7.03189 14.8233 7.03134 14.6907L7.03134 14.6894C7.03102 14.5602 6.99174 14.4871 6.98524 14.475L6.98448 14.4736C6.91772 14.3488 6.72317 14.2062 6.39956 14.1845ZM10.6494 17.017C10.6494 16.6028 10.9852 16.267 11.3994 16.267H20.0001C20.4144 16.267 20.7501 16.6028 20.7501 17.017C20.7501 17.4312 20.4144 17.767 20.0001 17.767H11.3994C10.9852 17.767 10.6494 17.4312 10.6494 17.017Z" fill="#212121"/>
</svg>
