<?xml version="1.0" encoding="UTF-8"?>
<svg width="24" height="24" viewBox="0 0 24 24" fill="none" xmlns="http://www.w3.org/2000/svg">
    <title>outfit</title>
    <path d="M8.23692 3.16877C8.23692 2.79942 7.93272 2.5 7.55748 2.5H5.46689C5.36141 2.5 5.25738 2.52417 5.16304 2.5706L2.37559 3.94245C2.1454 4.05573 2 4.2873 2 4.54061V9.14222L2.00662 9.23631C2.05894 9.60443 2.4138 9.86773 2.79797 9.80074L4.78675 9.45318L4.78745 16.8872L4.79096 16.9556C4.82575 17.2928 5.1151 17.556 5.46689 17.556L7.73135 17.5556V16.2176L6.14564 16.2181L6.14633 8.65614L6.13971 8.56206C6.08739 8.19394 5.73253 7.93063 5.34836 7.99762L3.35888 8.34405V4.95285L5.62612 3.83755H6.94633L6.96382 3.92326C7.31464 5.44116 8.69981 6.58123 10.3449 6.58123L10.541 6.57581C12.0992 6.48942 13.3893 5.38044 13.726 3.92326L13.7428 3.83755H15.063L17.3303 4.95388V7.45561H18.6897L18.6899 4.54061C18.6899 4.2873 18.5445 4.05573 18.3143 3.94245L15.5268 2.5706C15.4325 2.52417 15.3284 2.5 15.223 2.5H13.1324C12.7571 2.5 12.4529 2.79942 12.4529 3.16877C12.4529 4.30845 11.5028 5.24368 10.3449 5.24368C9.18708 5.24368 8.23692 4.30845 8.23692 3.16877Z" fill="#2B2B2B"/>
    <path fill-rule="evenodd" clip-rule="evenodd" d="M22 10.028C22 9.3745 21.4618 8.84476 20.7979 8.84476H10.345C9.68108 8.84476 9.14288 9.3745 9.14288 10.028V20.3168C9.14288 20.9703 9.68108 21.5 10.345 21.5H14.0035C14.6674 21.5 15.2056 20.9703 15.2056 20.3168V16.7157C15.2056 16.5192 15.3718 16.3556 15.5714 16.3556C15.7711 16.3556 15.9373 16.5192 15.9373 16.7157V20.3168C15.9373 20.9703 16.4755 21.5 17.1394 21.5H20.7979C21.4618 21.5 22 20.9703 22 20.3168V10.028ZM14.152 12.2399H16.9909C17.1359 13.6256 19.1538 15.6676 20.6415 16.2159L20.6411 20.1625H17.2962V16.7157C17.2962 15.7805 16.5216 15.018 15.5714 15.018L15.423 15.0243C14.5419 15.0988 13.8467 15.8297 13.8467 16.7157V20.1625H10.5018L10.5014 16.2159C11.9891 15.6676 14.007 13.6256 14.152 12.2399ZM10.5012 12.2401L12.7909 12.2399C12.682 12.9881 11.3831 14.1812 10.5015 14.7276L10.5012 12.2401ZM18.3597 12.2401L20.6411 12.2401L20.6419 14.7204C19.7806 14.1709 18.5252 12.9851 18.3597 12.2401ZM10.5018 10.1823L14.892 10.1818V10.9025H10.5012L10.5018 10.1823ZM16.2509 10.1818L20.6411 10.1823V10.9025H16.2509V10.1818Z" fill="#2B2B2B"/>
</svg>
