<?xml version="1.0" encoding="UTF-8"?>
<svg width="24" height="24" viewBox="0 0 24 24" fill="none" xmlns="http://www.w3.org/2000/svg">
<path fill-rule="evenodd" clip-rule="evenodd" d="M11.5967 3.08144C11.3795 2.97285 11.1239 2.97285 10.9067 3.08144L7.55157 4.75902C7.54373 4.76277 7.53595 4.76666 7.52824 4.77068L3.43727 6.81616C3.28816 6.88761 3.16079 7.00733 3.08112 7.16666C3.02262 7.28368 2.99664 7.40845 2.99976 7.53071V15.7403C2.99976 16.0325 3.16485 16.2996 3.4262 16.4302L12.3894 20.9118C12.4965 20.9681 12.6184 21 12.7478 21C12.7504 21 12.753 21 12.7556 21C12.9026 20.9985 13.0398 20.9559 13.1561 20.8832L20.6252 16.4018C20.8576 16.2623 20.9998 16.0112 20.9998 15.7403V8.27057C21.0011 8.1834 20.9876 8.09506 20.958 8.00928C20.9387 7.95305 20.913 7.89939 20.8815 7.84934C20.803 7.72404 20.693 7.62805 20.5671 7.56663L11.5967 3.08144ZM18.5033 8.2597L11.2517 4.63391L9.61043 5.45455L16.862 9.08034L18.5033 8.2597ZM7.88547 6.31703L5.49615 7.51169L12.7477 11.1375L15.1371 9.94283L7.88547 6.31703ZM4.54262 8.7599V15.2635L11.9764 18.9804V12.4768L4.54262 8.7599ZM13.5193 18.8661L19.4569 15.3035V9.50787L13.5193 12.4767V18.8661Z" fill="#2B2B2B"/>
</svg>
