<?xml version="1.0" encoding="UTF-8"?>
<svg width="24px" height="24px" viewBox="0 0 24 24" version="1.1" xmlns="http://www.w3.org/2000/svg" xmlns:xlink="http://www.w3.org/1999/xlink">
    <title>page</title>
    <g stroke="none" stroke-width="1" fill="none" fill-rule="evenodd">
        <g transform="translate(3.000000, 3.000000)">
            <rect x="0" y="0" width="18" height="18"></rect>
            <g stroke-linecap="square" transform="translate(0.500000, 0.500000)" fill="#414851" fill-rule="nonzero">
                <path d="M14.5,0.25 C15.7426407,0.25 16.75,1.25735931 16.75,2.5 L16.75,2.5 L16.75,14.5 C16.75,15.7426407 15.7426407,16.75 14.5,16.75 L14.5,16.75 L2.5,16.75 C1.25735931,16.75 0.25,15.7426407 0.25,14.5 L0.25,14.5 L0.25,2.5 C0.25,1.25735931 1.25735931,0.25 2.5,0.25 L2.5,0.25 Z M1.75,14.5 C1.75,14.9142136 2.08578644,15.25 2.5,15.25 L2.5,15.25 L4.75,15.25 L4.75,6.25 L1.75,6.25 Z M15.25,6.25 L6.25,6.25 L6.25,15.25 L14.5,15.25 C14.8796958,15.25 15.193491,14.9678461 15.2431534,14.6017706 L15.25,14.5 L15.25,6.25 Z M14.5,1.75 L2.5,1.75 C2.08578644,1.75 1.75,2.08578644 1.75,2.5 L1.75,2.5 L1.75,4.75 L15.25,4.75 L15.25,2.5 C15.25,2.12030423 14.9678461,1.80650904 14.6017706,1.75684662 L14.5,1.75 Z"></path>
            </g>
        </g>
    </g>
</svg>
