<?xml version="1.0" encoding="UTF-8"?>
<svg width="24px" height="24px" viewBox="0 0 24 24" version="1.1" xmlns="http://www.w3.org/2000/svg" xmlns:xlink="http://www.w3.org/1999/xlink">
    <title>parcel</title>
    <g stroke="none" stroke-width="1" fill="none" fill-rule="evenodd">
        <g transform="translate(3.000000, 3.000000)">
            <rect x="0" y="0" width="18" height="18"></rect>
            <g stroke-linecap="square" transform="translate(1.500000, 1.500000)" fill="#414851" fill-rule="nonzero">
                <path d="M12,-0.7 L3,-0.7 C2.81434846,-0.7 2.63630072,-0.626250212 2.50502525,-0.494974747 L-0.494974747,2.50502525 C-0.626250212,2.63630072 -0.7,2.81434846 -0.7,3 L-0.7,13.5 C-0.7,14.7150264 0.28497355,15.7 1.5,15.7 L13.5,15.7 C14.7150264,15.7 15.7,14.7150264 15.7,13.5 L15.7,3 C15.7,2.81434846 15.6262502,2.63630072 15.4949747,2.50502525 L12.4949747,-0.494974747 C12.3636993,-0.626250212 12.1856515,-0.7 12,-0.7 Z M11.711,0.7 L14.3,3.289 L14.3,13.5 C14.3,13.9418278 13.9418278,14.3 13.5,14.3 L1.5,14.3 L1.3996497,14.2937669 C1.00518815,14.2444016 0.7,13.907841 0.7,13.5 L0.7,3.288 L3.288,0.7 L11.711,0.7 Z"></path>
                <path d="M15,2.3 C15.3865993,2.3 15.7,2.61340068 15.7,3 C15.7,3.35438271 15.4366564,3.64725823 15.0949859,3.69360983 L15,3.7 L0,3.7 C-0.386599325,3.7 -0.7,3.38659932 -0.7,3 C-0.7,2.64561729 -0.436656377,2.35274177 -0.0949858535,2.30639017 L0,2.3 L15,2.3 Z"></path>
            </g>
        </g>
    </g>
</svg>
