<?xml version="1.0" encoding="UTF-8"?>
<svg width="24px" height="24px" viewBox="0 0 24 24" version="1.1" xmlns="http://www.w3.org/2000/svg" xmlns:xlink="http://www.w3.org/1999/xlink">
    <title>paste</title>
    <g stroke="none" stroke-width="1" fill="none" fill-rule="evenodd">
        <g fill="#414851" fill-rule="nonzero">
            <path d="M13.6,8 L5.4,8 C4.0745166,8 3,9.0745166 3,10.4 L3,18.6 C3,19.9254834 4.0745166,21 5.4,21 L13.6,21 C14.9254834,21 16,19.9254834 16,18.6 L16,10.4 C16,9.0745166 14.9254834,8 13.6,8 Z"></path>
            <path d="M18.6,3 L10.4,3 C9.0745166,3 8,4.0745166 8,5.4 L8,13.6 C8,14.9254834 9.0745166,16 10.4,16 L18.6,16 C19.9254834,16 21,14.9254834 21,13.6 L21,5.4 C21,4.0745166 19.9254834,3 18.6,3 Z M18.6,4.4 C19.1522847,4.4 19.6,4.84771525 19.6,5.4 L19.6,13.6 C19.6,14.1522847 19.1522847,14.6 18.6,14.6 L10.4,14.6 C9.84771525,14.6 9.4,14.1522847 9.4,13.6 L9.4,5.4 C9.4,4.84771525 9.84771525,4.4 10.4,4.4 L18.6,4.4 Z"></path>
        </g>
    </g>
</svg>
