<?xml version="1.0" encoding="UTF-8"?>
<svg width="24px" height="24px" viewBox="0 0 24 24" version="1.1" xmlns="http://www.w3.org/2000/svg" xmlns:xlink="http://www.w3.org/1999/xlink">
    <title>pay</title>
    <g stroke="none" stroke-width="1" fill="none" fill-rule="evenodd">
        <g transform="translate(3.000000, 3.000000)">
            <rect x="0" y="0" width="18" height="18"></rect>
            <g stroke-linecap="square" transform="translate(0.750000, 0.750000)" fill="#414851" fill-rule="nonzero">
                <path d="M11.25,-0.75 C12.8477863,-0.75 14.1536684,0.49881832 14.2449077,2.07371632 L14.25,2.25 L16.5,2.25 C16.8796958,2.25 17.193491,2.53215388 17.2431534,2.89822944 L17.25,3 L17.25,11.25 C17.25,11.6642136 16.9142136,12 16.5,12 C16.1203042,12 15.806509,11.7178461 15.7568466,11.3517706 L15.75,11.25 L15.75,3.75 L0.75,3.75 L0.75,9.75 L5.25,9.75 C5.62969577,9.75 5.94349096,10.0321539 5.99315338,10.3982294 L6,10.5 C6,10.8796958 5.71784612,11.193491 5.35177056,11.2431534 L5.25,11.25 L3.76427999,11.2509157 C3.95621934,13.7675632 6.05920138,15.75 8.625,15.75 C11.2445219,15.75 13.3816433,13.6836766 13.4952499,11.0921438 L13.5,10.875 L13.5,6.128 L13.3742424,6.17683081 C12.6115618,6.49944645 12.0637098,7.23065885 12.0051913,8.09596316 L12,8.25 L12,9.75 C12,10.1642136 11.6642136,10.5 11.25,10.5 C10.0074636,10.5 9,11.5074636 9,12.75 C9,13.1642136 8.66421356,13.5 8.25,13.5 C7.83578644,13.5 7.5,13.1642136 7.5,12.75 C7.5,11.0130628 8.68109119,9.55182047 10.2839089,9.12563764 L10.5,9.075 L10.5,8.25 C10.5,6.24584171 12.0724587,4.60873276 14.0508509,4.50519832 L14.25,4.5 C14.6296958,4.5 14.943491,4.78215388 14.9931534,5.14822944 L15,5.25 L15,10.875 C15,14.3957136 12.1457136,17.25 8.625,17.25 C5.23042145,17.25 2.45537384,14.5965684 2.26089018,11.2507383 L0,11.25 C-0.379695766,11.25 -0.693490961,10.9678461 -0.743153384,10.6017706 L-0.75,10.5 L-0.75,3 C-0.75,2.62030423 -0.467846118,2.30650904 -0.101770557,2.25684662 L0,2.25 L2.25,2.25 C2.25,0.652213708 3.49881832,-0.653668409 5.07371632,-0.74490771 L5.25,-0.75 L11.25,-0.75 Z M8.25,5.25 C9.07842712,5.25 9.75,5.92157288 9.75,6.75 C9.75,7.57842712 9.07842712,8.25 8.25,8.25 C7.42157288,8.25 6.75,7.57842712 6.75,6.75 C6.75,5.92157288 7.42157288,5.25 8.25,5.25 Z M11.25,0.75 L5.25,0.75 C4.470201,0.75 3.82953922,1.34479125 3.75686551,2.1055229 L3.75,2.25 L12.75,2.25 C12.75,1.470201 12.1552087,0.829539218 11.3944771,0.75686551 L11.25,0.75 Z"></path>
            </g>
        </g>
    </g>
</svg>
