<?xml version="1.0" encoding="UTF-8"?>
<svg width="24" height="24" viewBox="0 0 24 24" fill="none" xmlns="http://www.w3.org/2000/svg">
<path fill-rule="evenodd" clip-rule="evenodd" d="M7.15913 18.1364V15.6818C7.15913 15.2676 7.49491 14.9318 7.90913 14.9318C8.32334 14.9318 8.65913 15.2676 8.65913 15.6818V15.75L20.25 15.75V10.7727C20.25 10.2832 19.8532 9.88638 19.3636 9.88638L12.534 9.88638C12.0694 11.0833 10.9066 11.9318 9.54546 11.9318H8.56819L7.957 12.3902C7.29158 12.8893 6.48221 13.1591 5.65044 13.1591C4.97656 13.1591 4.32289 12.9823 3.75 12.6565V13.2273C3.75 13.6415 3.41421 13.9773 3 13.9773C2.58579 13.9773 2.25 13.6415 2.25 13.2273L2.25 4.22729C2.25 3.81308 2.58579 3.47729 3 3.47729C3.41421 3.47729 3.75 3.81308 3.75 4.22729V4.93599L7.72438 4.08434C8.40585 3.93834 9.1138 3.97182 9.77863 4.18182L16.7261 6.37574C17.1211 6.50048 17.3402 6.92179 17.2155 7.31678C17.0907 7.71176 16.6694 7.93085 16.2744 7.80612L9.32681 5.61215C8.91002 5.4805 8.46609 5.45948 8.03863 5.55106L3.75 6.47004L3.75 10.6998L3.87054 10.8405C4.31592 11.3601 4.9661 11.6591 5.65044 11.6591C6.15768 11.6591 6.6512 11.4946 7.05694 11.1902L7.8682 10.5818C7.99802 10.4845 8.15592 10.4318 8.31819 10.4318L9.54546 10.4318C10.3701 10.4318 11.058 9.84625 11.2159 9.0682L7.58183 9.0682C7.16762 9.0682 6.83183 8.73241 6.83183 8.3182C6.83183 7.90398 7.16762 7.5682 7.58183 7.5682L12 7.5682C12.4142 7.5682 12.75 7.90398 12.75 8.3182V8.38638L19.3636 8.38638C20.6816 8.38638 21.75 9.45475 21.75 10.7727V18.1364C21.75 19.4543 20.6816 20.5227 19.3636 20.5227H9.54549C8.22751 20.5227 7.15913 19.4543 7.15913 18.1364ZM20.25 18.1364C20.25 18.6259 19.8532 19.0227 19.3636 19.0227L9.54549 19.0227C9.05595 19.0227 8.65913 18.6259 8.65913 18.1364V17.25L20.25 17.25V18.1364Z" fill="#2B2B2B"/>
<path d="M17.7271 11.6591C18.1413 11.6591 18.4771 11.9949 18.4771 12.4091C18.4771 12.8233 18.1413 13.1591 17.7271 13.1591H16.0907C15.6765 13.1591 15.3407 12.8233 15.3407 12.4091C15.3407 11.9949 15.6765 11.6591 16.0907 11.6591H17.7271Z" fill="#2B2B2B"/>
</svg>
