<?xml version="1.0" encoding="UTF-8"?>
<svg width="24px" height="24px" viewBox="0 0 24 24" version="1.1" xmlns="http://www.w3.org/2000/svg" xmlns:xlink="http://www.w3.org/1999/xlink">
    <title>percentage</title>
    <g stroke="none" stroke-width="1" fill="none" fill-rule="evenodd">
        <g fill="#414851" fill-rule="nonzero">
            <path d="M16.5833333,13.75 C18.6083774,13.75 20.25,15.3916226 20.25,17.4166667 C20.25,19.4417107 18.6083774,21.0833333 16.5833333,21.0833333 C14.5582893,21.0833333 12.9166667,19.4417107 12.9166667,17.4166667 C12.9166667,15.3916226 14.5582893,13.75 16.5833333,13.75 Z M17.4160251,3.87596228 C17.7293402,4.08483896 17.8347906,4.48866411 17.6787487,4.81929865 L17.6240377,4.91602515 L7.62403772,19.9160251 C7.39427338,20.2606717 6.92862137,20.3538021 6.58397485,20.1240377 C6.27065984,19.915161 6.16520938,19.5113359 6.3212513,19.1807014 L6.37596228,19.0839749 L16.3759623,4.08397485 C16.6057266,3.73932834 17.0713786,3.64619793 17.4160251,3.87596228 Z M16.5833333,15.25 C15.3867164,15.25 14.4166667,16.2200497 14.4166667,17.4166667 C14.4166667,18.6132836 15.3867164,19.5833333 16.5833333,19.5833333 C17.7799503,19.5833333 18.75,18.6132836 18.75,17.4166667 C18.75,16.2200497 17.7799503,15.25 16.5833333,15.25 Z M7.41666667,2.91666667 C9.44171075,2.91666667 11.0833333,4.55828925 11.0833333,6.58333333 C11.0833333,8.60837742 9.44171075,10.25 7.41666667,10.25 C5.39162258,10.25 3.75,8.60837742 3.75,6.58333333 C3.75,4.55828925 5.39162258,2.91666667 7.41666667,2.91666667 Z M7.41666667,4.41666667 C6.22004971,4.41666667 5.25,5.38671638 5.25,6.58333333 C5.25,7.77995029 6.22004971,8.75 7.41666667,8.75 C8.61328362,8.75 9.58333333,7.77995029 9.58333333,6.58333333 C9.58333333,5.38671638 8.61328362,4.41666667 7.41666667,4.41666667 Z"></path>
        </g>
    </g>
</svg>
