<?xml version="1.0" encoding="UTF-8"?>
<svg width="24px" height="24px" viewBox="0 0 24 24" version="1.1" xmlns="http://www.w3.org/2000/svg" xmlns:xlink="http://www.w3.org/1999/xlink">
    <title>percentage-circle</title>
    <g stroke="none" stroke-width="1" fill="none" fill-rule="evenodd">
        <g fill="#414851" fill-rule="nonzero">
            <path d="M12,3 C16.9705627,3 21,7.02943725 21,12 C21,16.9705627 16.9705627,21 12,21 C7.02943725,21 3,16.9705627 3,12 C3,7.02943725 7.02943725,3 12,3 Z M12,4.5 C7.85786438,4.5 4.5,7.85786438 4.5,12 C4.5,16.1421356 7.85786438,19.5 12,19.5 C16.1421356,19.5 19.5,16.1421356 19.5,12 C19.5,7.85786438 16.1421356,4.5 12,4.5 Z M15,12.75 C16.2426407,12.75 17.25,13.7573593 17.25,15 C17.25,16.2426407 16.2426407,17.25 15,17.25 C13.7573593,17.25 12.75,16.2426407 12.75,15 C12.75,13.7573593 13.7573593,12.75 15,12.75 Z M15,14.25 C14.5857864,14.25 14.25,14.5857864 14.25,15 C14.25,15.4142136 14.5857864,15.75 15,15.75 C15.4142136,15.75 15.75,15.4142136 15.75,15 C15.75,14.5857864 15.4142136,14.25 15,14.25 Z M15.5303301,8.46966991 C15.7965966,8.73593648 15.8208027,9.15260016 15.6029482,9.44621165 L15.5303301,9.53033009 L9.53033009,15.5303301 C9.23743687,15.8232233 8.76256313,15.8232233 8.46966991,15.5303301 C8.20340335,15.2640635 8.1791973,14.8473998 8.39705176,14.5537883 L8.46966991,14.4696699 L14.4696699,8.46966991 C14.7625631,8.1767767 15.2374369,8.1767767 15.5303301,8.46966991 Z M9,6.75 C10.2426407,6.75 11.25,7.75735931 11.25,9 C11.25,10.2426407 10.2426407,11.25 9,11.25 C7.75735931,11.25 6.75,10.2426407 6.75,9 C6.75,7.75735931 7.75735931,6.75 9,6.75 Z M9,8.25 C8.58578644,8.25 8.25,8.58578644 8.25,9 C8.25,9.41421356 8.58578644,9.75 9,9.75 C9.41421356,9.75 9.75,9.41421356 9.75,9 C9.75,8.58578644 9.41421356,8.25 9,8.25 Z"></path>
        </g>
    </g>
</svg>
