<?xml version="1.0" encoding="UTF-8"?>
<svg width="24px" height="24px" viewBox="0 0 24 24" version="1.1" xmlns="http://www.w3.org/2000/svg" xmlns:xlink="http://www.w3.org/1999/xlink">
    <title>phone</title>
    <g stroke="none" stroke-width="1" fill="none" fill-rule="evenodd">
        <g fill="#414851" fill-rule="nonzero">
            <path d="M7.40999204,2.96907299 L4.04821891,3.85826781 C3.36748832,4.03473294 2.89666308,4.66158748 2.91697636,5.36821778 C3.14160641,9.47882908 4.84266753,13.3497501 7.70502877,16.2814463 C10.649917,19.1573621 14.5218858,20.858785 18.6141114,21.0822179 C19.3388895,21.1067372 19.9692306,20.6344969 20.1456182,19.9472955 L21.0326334,16.5890243 C21.2252612,15.8643647 20.8570282,15.1068168 20.1670912,14.8101592 L15.8922035,12.9773496 L15.7495166,12.9239093 C15.220412,12.7557569 14.633514,12.8920283 14.2304432,13.2889282 L12.87,14.63 L12.6192723,14.4614879 C12.0155896,14.0424005 11.4461318,13.5752548 10.9165366,13.0643814 L10.6228644,12.748579 C10.2368405,12.3198606 9.87346217,11.8610933 9.53860732,11.3788147 L9.369,11.127 L10.7091833,9.76894871 C11.1407423,9.33070887 11.264625,8.67543437 11.0229499,8.11016268 L9.18924749,3.83596767 C8.89259343,3.14580163 8.13576825,2.77721794 7.40999204,2.96907299 Z M7.79344776,4.41923219 C7.8005272,4.41736079 7.80802052,4.42101013 7.81095567,4.42783877 L9.64408584,8.700699 C9.64610963,8.70543407 9.64488307,8.71192193 9.64061223,8.71625889 L7.8824834,10.500218 C7.64166756,10.7445719 7.59735678,11.1211781 7.77488093,11.4147531 C8.365869,12.392081 9.06359197,13.3007367 9.85521475,14.1240047 C10.697555,14.9373032 11.6066454,15.6355858 12.5852413,16.2256189 C12.8788498,16.4026467 13.2551241,16.3580387 13.4992017,16.1172672 L15.2833683,14.3572672 C15.2870041,14.3536875 15.293165,14.3525384 15.2984627,14.3548341 L19.5752965,16.1884837 C19.5810306,16.1909497 19.5844758,16.1980374 19.5826707,16.2048281 L18.6940333,19.569309 C18.6912574,19.5800505 18.6860479,19.5839533 18.6801878,19.58377 C14.9665205,19.3808276 11.437879,17.8302698 8.76564807,15.2208963 C6.16974875,12.5618108 4.61952063,9.03412413 4.41554683,5.30569713 L7.79344776,4.41923219 Z"></path>
        </g>
    </g>
</svg>
