<?xml version="1.0" encoding="UTF-8"?>
<svg width="24" height="24" viewBox="0 0 24 24" fill="none" xmlns="http://www.w3.org/2000/svg">
    <title>placeholder</title>
    <path d="M7.34988 20C6.77612 20 6.27282 19.8809 5.83998 19.6426C5.41721 19.4156 5.09007 19.0809 4.85855 18.6383C4.6371 18.2071 4.5465 17.6908 4.58677 17.0894L4.73776 14.383C4.75789 13.861 4.67233 13.4752 4.48108 13.2255C4.28982 12.9645 3.91235 12.834 3.34865 12.834C3.1561 12.834 3 12.6779 3 12.4854V11.5146C3 11.3221 3.1561 11.166 3.34865 11.166C3.91235 11.166 4.28982 11.0411 4.48108 10.7915C4.67233 10.5418 4.75789 10.1504 4.73776 9.61702L4.58677 6.89362C4.55657 6.2922 4.6522 5.77589 4.87365 5.34468C5.0951 4.90213 5.41721 4.56738 5.83998 4.34043C6.26276 4.11348 6.76606 4 7.34988 4H7.37648C7.83711 4 8.21053 4.37341 8.21053 4.83404V4.94333C8.21053 5.3436 7.88604 5.66809 7.48577 5.66809C7.07307 5.66809 6.75096 5.77589 6.51944 5.99149C6.28792 6.20709 6.18223 6.54184 6.20236 6.99575L6.35335 9.71915C6.39361 10.4227 6.22753 10.9844 5.85508 11.4043C5.57808 11.7165 5.21756 11.9127 4.77352 11.9927C5.20892 12.0757 5.56441 12.2767 5.83998 12.5957C6.22249 13.0156 6.39361 13.5773 6.35335 14.2809L6.20236 17.0043C6.19229 17.4355 6.29799 17.7645 6.51944 17.9915C6.75096 18.2184 7.07307 18.3319 7.48577 18.3319C7.88604 18.3319 8.21053 18.6564 8.21053 19.0567V19.166C8.21053 19.6266 7.83711 20 7.37648 20H7.34988Z" fill="#2B2B2B"/>
    <path d="M16.6501 20C17.2239 20 17.7272 19.8809 18.16 19.6426C18.5828 19.4156 18.9099 19.0809 19.1415 18.6383C19.3629 18.2071 19.4535 17.6908 19.4132 17.0894L19.2622 14.383C19.2421 13.861 19.3277 13.4752 19.5189 13.2255C19.7102 12.9645 20.0877 12.834 20.6514 12.834C20.8439 12.834 21 12.6779 21 12.4854V11.5146C21 11.3221 20.8439 11.166 20.6514 11.166C20.0877 11.166 19.7102 11.0411 19.5189 10.7915C19.3277 10.5418 19.2421 10.1504 19.2622 9.61702L19.4132 6.89362C19.4434 6.2922 19.3478 5.77589 19.1264 5.34468C18.9049 4.90213 18.5828 4.56738 18.16 4.34043C17.7372 4.11348 17.2339 4 16.6501 4H16.6235C16.1629 4 15.7895 4.37341 15.7895 4.83404V4.94334C15.7895 5.3436 16.114 5.66809 16.5142 5.66809C16.9269 5.66809 17.249 5.77589 17.4806 5.99149C17.7121 6.20709 17.8178 6.54184 17.7976 6.99575L17.6466 9.71915C17.6064 10.4227 17.7725 10.9844 18.1449 11.4043C18.4219 11.7165 18.7824 11.9127 19.2265 11.9927C18.7911 12.0757 18.4356 12.2767 18.16 12.5957C17.7775 13.0156 17.6064 13.5773 17.6466 14.2809L17.7976 17.0043C17.8077 17.4355 17.702 17.7645 17.4806 17.9915C17.249 18.2184 16.9269 18.3319 16.5142 18.3319C16.114 18.3319 15.7895 18.6564 15.7895 19.0567V19.166C15.7895 19.6266 16.1629 20 16.6235 20H16.6501Z" fill="#2B2B2B"/>
    <path d="M12 14C13.1046 14 14 13.1046 14 12C14 10.8954 13.1046 10 12 10C10.8954 10 10 10.8954 10 12C10 13.1046 10.8954 14 12 14Z" fill="#2B2B2B"/>
</svg>
