<?xml version="1.0" encoding="UTF-8"?>
<svg width="24px" height="24px" viewBox="0 0 24 24" version="1.1" xmlns="http://www.w3.org/2000/svg" xmlns:xlink="http://www.w3.org/1999/xlink">
    <title>player-pause</title>
    <g stroke="none" stroke-width="1" fill="none" fill-rule="evenodd">
        <g fill="#414851" fill-rule="nonzero">
            <path d="M8.66666667,4.66666667 C9.0348565,4.66666667 9.33333333,4.9651435 9.33333333,5.33333333 L9.33333333,5.33333333 L9.33333333,18.6666667 C9.33333333,19.0348565 9.0348565,19.3333333 8.66666667,19.3333333 L8.66666667,19.3333333 L5.33333333,19.3333333 C4.9651435,19.3333333 4.66666667,19.0348565 4.66666667,18.6666667 L4.66666667,18.6666667 L4.66666667,5.33333333 C4.66666667,4.9651435 4.9651435,4.66666667 5.33333333,4.66666667 L5.33333333,4.66666667 Z M18.6666667,4.66666667 C19.0348565,4.66666667 19.3333333,4.9651435 19.3333333,5.33333333 L19.3333333,5.33333333 L19.3333333,18.6666667 C19.3333333,19.0348565 19.0348565,19.3333333 18.6666667,19.3333333 L18.6666667,19.3333333 L15.3333333,19.3333333 C14.9651435,19.3333333 14.6666667,19.0348565 14.6666667,18.6666667 L14.6666667,18.6666667 L14.6666667,5.33333333 C14.6666667,4.9651435 14.9651435,4.66666667 15.3333333,4.66666667 L15.3333333,4.66666667 Z"></path>
        </g>
    </g>
</svg>
