<?xml version="1.0" encoding="UTF-8"?>
<svg width="24px" height="24px" viewBox="0 0 24 24" version="1.1" xmlns="http://www.w3.org/2000/svg" xmlns:xlink="http://www.w3.org/1999/xlink">
    <title>polaroid</title>
    <g stroke="none" stroke-width="1" fill="none" fill-rule="evenodd">
        <g transform="translate(3.000000, 3.000000)">
            <rect x="0" y="0" width="18" height="18"></rect>
            <g stroke-linecap="square" transform="translate(2.250000, 0.750000)" fill="#414851" fill-rule="nonzero">
                <path d="M13,-0.75 L0.499683287,-0.750336687 C-0.191480781,-0.749871145 -0.750969741,-0.189366882 -0.74966403,0.501420003 L-0.741071948,13.25 L4.00027357,13.25 L8.60773073,7.77022622 C8.61981897,7.75584935 8.63348898,7.74288062 8.64848195,7.73156555 C8.75869021,7.6483923 8.91545691,7.67030851 8.99863017,7.78051677 L14.25,14.7388157 L14.25,0.5 C14.25,-0.190355937 13.6903559,-0.75 13,-0.75 Z M0.758,11.75 L0.75,0.749 L12.749,0.749 L12.749,10.26 L10.1959285,6.87692577 C9.61371571,6.10546789 8.51634882,5.95205443 7.74489094,6.53426722 L7.64309417,6.61726759 C7.57737706,6.67508867 7.51604423,6.73779985 7.45963245,6.80489191 L3.3,11.75 L0.758,11.75 Z"></path>
                <path d="M14.25,11.75 L-0.75,11.75 L-0.75,16 C-0.75,16.6903559 -0.190355937,17.25 0.5,17.25 L13,17.25 C13.6903559,17.25 14.25,16.6903559 14.25,16 L14.25,11.75 Z M12.75,13.25 L12.75,15.75 L0.75,15.75 L0.75,13.25 L12.75,13.25 Z"></path>
                <circle cx="4.75" cy="4.25" r="1.5"></circle>
            </g>
        </g>
    </g>
</svg>
