<svg width="24" height="24" viewBox="0 0 24 24" fill="none" xmlns="http://www.w3.org/2000/svg">
<path d="M17.7502 14.75C17.991 14.7501 18.2066 14.8984 18.2932 15.123L18.9904 16.9355C19.092 17.1995 19.3007 17.4082 19.5647 17.5098L21.3762 18.2061C21.6011 18.2926 21.7502 18.509 21.7502 18.75C21.7502 18.991 21.6011 19.2074 21.3762 19.2939L19.5647 19.9902C19.3007 20.0918 19.092 20.3005 18.9904 20.5644L18.2932 22.3769C18.2066 22.6016 17.9909 22.7499 17.7502 22.75C17.5093 22.75 17.2928 22.6017 17.2063 22.3769L16.509 20.5644C16.4074 20.3006 16.1987 20.0918 15.9348 19.9902L14.1232 19.2939C13.8984 19.2074 13.7502 18.991 13.7502 18.75C13.7502 18.509 13.8983 18.2926 14.1232 18.2061L15.9348 17.5098C16.1987 17.4082 16.4074 17.1994 16.509 16.9355L17.2063 15.123C17.2928 14.8982 17.5093 14.75 17.7502 14.75Z" fill="currentColor"/>
<path d="M14.7805 3.06054C14.9808 2.97475 15.2086 2.98071 15.4045 3.07617L21.7766 6.18457C22.5767 6.57502 22.9564 7.50375 22.6584 8.34277L21.7863 10.7988C21.4425 11.7665 20.3423 12.2318 19.4084 11.8047L19.0012 11.6182V12.8496C19.0012 13.2637 18.6652 13.5994 18.2512 13.5996C17.837 13.5996 17.5012 13.2638 17.5012 12.8496V10.4502C17.5012 10.1949 17.6311 9.95731 17.8459 9.81933C18.0606 9.68161 18.3307 9.66165 18.5627 9.76757L20.0324 10.4404C20.1658 10.5013 20.3232 10.435 20.3723 10.2969L21.2453 7.84082C21.2878 7.72109 21.2335 7.58808 21.1193 7.53222L15.4553 4.76855C14.7132 6.15778 13.3709 6.88658 12.0012 6.88672C10.6313 6.88672 9.28828 6.15804 8.5461 4.76855L2.88301 7.53222C2.76868 7.588 2.71444 7.72093 2.75704 7.84082L3.63008 10.2969L3.65255 10.3457C3.71735 10.4499 3.8524 10.4936 3.96895 10.4404L5.43868 9.76757C5.6708 9.66147 5.94168 9.68142 6.15645 9.81933C6.37101 9.95734 6.50118 10.1951 6.50118 10.4502V19.25C6.50119 19.3881 6.61311 19.5 6.75118 19.5H12.0012C12.4152 19.5002 12.7512 19.8359 12.7512 20.25C12.7512 20.6641 12.4152 20.9998 12.0012 21H6.75118C5.7847 21 5.00119 20.2165 5.00118 19.25V11.6172L4.59395 11.8047C3.66009 12.232 2.55993 11.7665 2.21602 10.7988L1.34395 8.34277C1.04583 7.50366 1.42542 6.57498 2.22579 6.18457L8.59688 3.07617C8.79288 2.98065 9.02151 2.97459 9.22188 3.06054C9.42225 3.14665 9.57512 3.31645 9.64083 3.52441C10.0443 4.80101 11.0398 5.38672 12.0012 5.38672C12.9624 5.38656 13.9571 4.80076 14.3606 3.52441C14.4263 3.31639 14.58 3.1466 14.7805 3.06054Z" fill="currentColor"/>
<path d="M12.5002 12C12.6507 12.0001 12.786 12.0929 12.84 12.2334L13.2756 13.3662C13.3391 13.5309 13.4692 13.6612 13.634 13.7246L14.7668 14.1602C14.9073 14.2143 15.0002 14.3494 15.0002 14.5C15.0002 14.6506 14.9073 14.7857 14.7668 14.8398L13.634 15.2754C13.4692 15.3388 13.3391 15.469 13.2756 15.6338L12.84 16.7666C12.786 16.9071 12.6507 16.9999 12.5002 17C12.3496 17 12.2144 16.9072 12.1604 16.7666L11.7248 15.6338C11.6613 15.4689 11.5304 15.3388 11.3654 15.2754L10.2336 14.8398C10.093 14.7858 10.0002 14.6506 10.0002 14.5C10.0002 14.3494 10.093 14.2142 10.2336 14.1602L11.3654 13.7246C11.5304 13.6612 11.6613 13.5311 11.7248 13.3662L12.1604 12.2334C12.2144 12.0928 12.3496 12 12.5002 12Z" fill="currentColor"/>
</svg>
