<?xml version="1.0" encoding="UTF-8"?>
<svg width="24px" height="24px" viewBox="0 0 24 24" version="1.1" xmlns="http://www.w3.org/2000/svg" xmlns:xlink="http://www.w3.org/1999/xlink">
    <title>product-import</title>
    <g stroke="none" stroke-width="1" fill="none" fill-rule="evenodd">
        <g>
            <g transform="translate(2.000000, 3.000000)">
                <rect x="1" y="0" width="18" height="18"></rect>
                <g stroke-linecap="square" transform="translate(0.750000, 0.500000)" fill="#414851" fill-rule="nonzero">
                    <path d="M6.25,0.25 C6.66421356,0.25 7,0.585786438 7,1 L7,1 L7.00522502,1.15326194 C7.08490247,2.31854345 8.06570466,3.25 9.25,3.25 C10.4857864,3.25 11.5,2.23578644 11.5,1 C11.5,0.585786438 11.8357864,0.25 12.25,0.25 L12.25,0.25 L14.5,0.25 C14.6164338,0.25 14.7312686,0.277108819 14.8354102,0.329179607 L14.8354102,0.329179607 L17.8354102,1.82917961 C18.0894982,1.95622362 18.25,2.21592096 18.25,2.5 L18.25,2.5 L18.25,7.53149414 C18.25,7.99804907 17.8285648,8.35138355 17.3691639,8.26999391 L17.3691639,8.26999391 L15.249,7.894 L15.25,16 C15.25,16.3796958 14.9678461,16.693491 14.6017706,16.7431534 L14.6017706,16.7431534 L14.5,16.75 L7.081,16.75 L8.583,15.25 L13.749,15.25 L13.75,7 C13.75,6.56677042 14.1133803,6.2311646 14.5331139,6.25059636 L14.5331139,6.25059636 L14.6308361,6.26150023 L16.749,6.636 L16.749,2.963 L14.324,1.75 L12.923,1.75 L12.8739205,1.96379361 C12.4627982,3.50260806 11.0924394,4.65816838 9.44853736,4.74478128 L9.44853736,4.74478128 L9.25,4.75 C7.45213657,4.75 5.94134222,3.47118802 5.58139301,1.77734014 L5.58139301,1.77734014 L5.576,1.75 L4.175,1.75 L1.749,2.963 L1.749,5.963 L1.69543314,6.0390873 C1.26585192,6.6971978 1.16399762,7.49986201 1.38075474,8.22507726 L1.1308361,8.26999391 C0.704249507,8.34557001 0.310398725,8.04630745 0.25631079,7.62962007 L0.25631079,7.62962007 L0.25,7.53149414 L0.25,2.5 C0.25,2.21592096 0.410501782,1.95622362 0.664589803,1.82917961 L0.664589803,1.82917961 L3.6645898,0.329179607 C3.76873138,0.277108819 3.88356618,0.25 4,0.25 L4,0.25 Z"></path>
                </g>
            </g>
            <path d="M6.90177192,9.90661551 C6.54836767,9.95460132 6.27595096,10.257798 6.27595096,10.6245634 L6.275,17.622 L3.14205398,14.4857095 L3.0738233,14.425198 C2.76586552,14.1848264 2.33080246,14.226753 2.07821256,14.5167797 C1.82566123,14.806762 1.84356455,15.2436866 2.11899688,15.5120046 L6.46099028,19.8581346 C6.60360298,20.0208204 6.81982151,20.1127486 7.04605597,20.0985636 C7.23793999,20.0865324 7.41388099,19.9997176 7.53988958,19.8591059 L11.8827654,15.5110416 L11.9435914,15.4415908 C12.1833414,15.1338871 12.1414605,14.6986077 11.8517,14.4458488 L11.7606669,14.3781183 C11.4762391,14.1992137 11.0983715,14.2385435 10.857041,14.4866662 L7.723,17.622 L7.72484471,10.6245751 L7.71937016,10.5391797 C7.6740803,10.1734774 7.36633568,9.9 7.00001903,9.9 L6.90177192,9.90661551 Z" fill="#414851" fill-rule="nonzero" transform="translate(6.999686, 14.999998) rotate(-90.000000) translate(-6.999686, -14.999998) "></path>
        </g>
    </g>
</svg>
