<?xml version="1.0" encoding="UTF-8"?>
<svg width="24px" height="24px" viewBox="0 0 24 24" version="1.1" xmlns="http://www.w3.org/2000/svg" xmlns:xlink="http://www.w3.org/1999/xlink">
    <title>question-fill</title>
    <g stroke="none" stroke-width="1" fill="none" fill-rule="evenodd">
        <g fill="#414851">
            <path d="M12,4 C16.4015667,4 20,7.59843331 20,12 C20,16.4015667 16.4015667,20 12,20 C7.59843331,20 4,16.4015667 4,12 C4,7.59843331 7.59843331,4 12,4 Z M12,14.7428571 C11.4514286,14.7428571 11.0857143,15.1085714 11.0857143,15.6571429 C11.0857143,16.2057143 11.4514286,16.5714286 12,16.5714286 C12.5485714,16.5714286 12.9142857,16.2057143 12.9142857,15.6571429 C12.9142857,15.1085714 12.5485714,14.7428571 12,14.7428571 Z M12,7.42857143 C11.0571429,7.42857143 10.1946429,7.91071429 9.71383929,8.64899554 L9.62285714,8.8 L9.29567869,9.38892121 C9.23371646,9.50045323 9.25769708,9.63689758 9.34660934,9.72113265 L9.39637917,9.75854237 L10.477689,10.394607 L10.5420473,10.4221698 C10.637831,10.449367 10.7412705,10.4219954 10.8111004,10.3518451 L10.8565262,10.2913956 L11.1771429,9.71428571 C11.36,9.44 11.6342857,9.25714286 12,9.25714286 C12.5485714,9.25714286 12.9142857,9.62285714 12.9142857,10.1714286 C12.9142857,10.3677922 12.8674262,10.4704368 12.6730658,10.613551 L12.5804443,10.6777546 L12.3657143,10.8114286 L12.1659969,10.9488413 C11.689221,11.2906609 11.1613806,11.7929691 11.0931209,12.7110884 L11.0857143,12.9142857 L11.0857143,13.5542857 C11.0857143,13.684129 11.1759361,13.7928998 11.2971088,13.8213273 L11.36,13.8285714 L12.64,13.8285714 C12.7698433,13.8285714 12.8786141,13.7383496 12.9070416,13.6171769 L12.9142857,13.5542857 L12.9145503,12.8703175 C12.9174603,12.7149206 12.952381,12.6171429 13.3714286,12.3657143 L13.5629394,12.2362845 C14.0926984,11.8690653 14.7428571,11.3092063 14.7428571,10.1714286 C14.7428571,8.61714286 13.5542857,7.42857143 12,7.42857143 Z"></path>
        </g>
    </g>
</svg>
