<?xml version="1.0" encoding="utf-8"?>
<!-- Generator: Adobe Illustrator 25.2.0, SVG Export Plug-In . SVG Version: 6.00 Build 0)  -->
<svg version="1.1" xmlns="http://www.w3.org/2000/svg" xmlns:xlink="http://www.w3.org/1999/xlink" x="0px" y="0px"
	 width="24px" height="24px" viewBox="0 0 24 24" style="enable-background:new 0 0 24 24;" xml:space="preserve">
<path fill="#36475C" d="M12,3.75c3.17,0,6.006,1.776,7.35,4.548c0.18,0.373,0.025,0.821-0.348,1.002C18.629,9.48,18.181,9.325,18,8.952
	c-1.093-2.255-3.405-3.702-6-3.702c-3.71,0-6.75,3.04-6.75,6.75c0,0.414-0.336,0.75-0.75,0.75S3.75,12.414,3.75,12
	C3.75,7.46,7.46,3.75,12,3.75z M19.5,11.25c0.414,0,0.75,0.336,0.75,0.75c0,4.54-3.71,8.25-8.25,8.25
	c-3.17,0-6.006-1.776-7.35-4.548c-0.18-0.373-0.025-0.821,0.348-1.002C5.371,14.52,5.819,14.675,6,15.048
	c1.093,2.255,3.405,3.702,6,3.702c3.71,0,6.75-3.04,6.75-6.75C18.75,11.586,19.086,11.25,19.5,11.25z M19.349,3.525l0.102,0.007
	c0.376,0.05,0.65,0.373,0.65,0.742l-0.008,0.102l-0.6,4.425c-0.05,0.375-0.372,0.648-0.74,0.65l-0.102-0.008l-4.5-0.6
	c-0.41-0.054-0.7-0.432-0.644-0.842c0.05-0.376,0.37-0.65,0.74-0.651l0.102,0.007l3.758,0.5l0.5-3.683
	c0.05-0.376,0.373-0.65,0.742-0.65V3.525z M5.35,14.557l4.5,0.6c0.41,0.054,0.698,0.432,0.643,0.842
	c-0.05,0.376-0.37,0.65-0.74,0.651l-0.102-0.007l-3.759-0.501l-0.499,3.684c-0.05,0.376-0.373,0.65-0.742,0.65l-0.102-0.008
	c-0.376-0.05-0.65-0.373-0.65-0.742l0.008-0.102l0.6-4.425c0.05-0.375,0.372-0.648,0.74-0.65l0.102,0.008L5.35,14.557z"/>
</svg>
