<svg width="18" height="18" viewBox="0 0 18 18" fill="none" xmlns="http://www.w3.org/2000/svg">
<path d="M6.375 11.25C6.68566 11.25 6.9375 11.5018 6.9375 11.8125V12.9375C6.9375 13.2482 6.68566 13.5 6.375 13.5C6.06434 13.5 5.8125 13.2482 5.8125 12.9375V11.8125C5.8125 11.5018 6.06434 11.25 6.375 11.25Z" fill="currentColor"/>
<path d="M9 9C9.31066 9 9.5625 9.25184 9.5625 9.5625V12.9375C9.5625 13.2482 9.31066 13.5 9 13.5C8.68934 13.5 8.4375 13.2482 8.4375 12.9375V9.5625C8.4375 9.25184 8.68934 9 9 9Z" fill="currentColor"/>
<path d="M11.625 10.5C11.9357 10.5 12.1875 10.7518 12.1875 11.0625V12.9375C12.1875 13.2482 11.9357 13.5 11.625 13.5C11.3143 13.5 11.0625 13.2482 11.0625 12.9375V11.0625C11.0625 10.7518 11.3143 10.5 11.625 10.5Z" fill="currentColor"/>
<path fill-rule="evenodd" clip-rule="evenodd" d="M8.94141 1.5C9.48833 1.50005 10.0129 1.71751 10.3997 2.10425L14.3958 6.10034C14.7825 6.4871 14.9999 7.01168 15 7.55859V14.4375C15 15.5766 14.0766 16.5 12.9375 16.5H5.0625C3.92342 16.5 3 15.5766 3 14.4375V3.5625C3 2.42341 3.92341 1.5 5.0625 1.5H8.94141ZM5.0625 2.625C4.54473 2.625 4.125 3.04473 4.125 3.5625V14.4375C4.125 14.9553 4.54473 15.375 5.0625 15.375H12.9375C13.4553 15.375 13.875 14.9553 13.875 14.4375V7.55859C13.875 7.53897 13.8733 7.51947 13.8721 7.5H11.0625C9.92338 7.5 9 6.57658 9 5.4375V2.6272C8.98054 2.62597 8.96102 2.625 8.94141 2.625H5.0625ZM10.125 5.4375C10.125 5.95527 10.5447 6.375 11.0625 6.375H13.0796L10.125 3.42041V5.4375Z" fill="currentColor"/>
</svg>
