<?xml version="1.0" encoding="UTF-8"?>
<svg width="24px" height="24px" viewBox="0 0 24 24" version="1.1" xmlns="http://www.w3.org/2000/svg" xmlns:xlink="http://www.w3.org/1999/xlink">
    <title>restore</title>
    <g stroke="none" stroke-width="1" fill="none" fill-rule="evenodd">
        <g transform="translate(3.000000, 1.000000)">
            <rect x="0" y="2" width="18" height="18"></rect>
            <g stroke-linecap="square" fill="#414851" fill-rule="nonzero">
                <path d="M9,6.5 C9.37969577,6.5 9.69349096,6.78215388 9.74315338,7.14822944 L9.75,7.25 L9.75,10.249 L12.8859863,10.25 C13.2656821,10.25 13.5794773,10.5321539 13.6291397,10.8982294 L13.6359863,11 C13.6359863,11.3796958 13.3538324,11.693491 12.9877569,11.7431534 L12.8859863,11.75 L9,11.75 C8.62030423,11.75 8.30650904,11.4678461 8.25684662,11.1017706 L8.25,11 L8.25,7.25 C8.25,6.83578644 8.58578644,6.5 9,6.5 Z"></path>
                <path d="M2.82272727,4.45455611 C5.92754275,1.52432927 10.6637898,1.17858392 14.1612342,3.62684672 C17.6586787,6.07510953 18.9548582,10.6436426 17.2642692,14.5638489 C15.5736802,18.4840552 11.3615563,20.6771324 7.18050536,19.8140441 C2.99943001,18.9509507 0,15.2691877 0,11 C0,10.5857864 0.335786438,10.25 0.75,10.25 C1.16421356,10.25 1.5,10.5857864 1.5,11 C1.5,14.5576393 3.99952262,17.6257723 7.48375447,18.3450172 C10.9679636,19.0642575 14.4780669,17.2366931 15.886891,13.9698546 C17.2957151,10.703016 16.2155656,6.89590508 13.3010285,4.85568607 C10.3864915,2.81546706 6.43961896,3.10358819 3.85227273,5.54544389 C3.55103238,5.82974502 3.07635723,5.81601307 2.79205611,5.51477273 C2.50775498,5.21353238 2.52148693,4.73885723 2.82272727,4.45455611 Z"></path>
                <path d="M6.50502525,2.50502525 C6.77839226,2.23165825 7.22160774,2.23165825 7.49497475,2.50502525 C7.74100505,2.75105556 7.76560808,3.13466313 7.56878384,3.40820889 L7.49497475,3.49497475 L4.49497475,6.49497475 C4.24894444,6.74100505 3.86533687,6.76560808 3.59179111,6.56878384 L3.50502525,6.49497475 L0.505025253,3.49497475 C0.231658249,3.22160774 0.231658249,2.77839226 0.505025253,2.50502525 C0.751055557,2.25899495 1.13466313,2.23439192 1.40820889,2.43121616 L1.49497475,2.50502525 L4,5.011 L6.50502525,2.50502525 Z" transform="translate(4.000000, 4.500000) rotate(-305.000000) translate(-4.000000, -4.500000) "></path>
            </g>
        </g>
    </g>
</svg>
