<?xml version="1.0" encoding="UTF-8"?>
<svg width="24" height="24" viewBox="0 0 24 24" fill="none" xmlns="http://www.w3.org/2000/svg">
<path d="M10.6389 7.21864C10.706 6.83791 10.4518 6.47485 10.071 6.40772L7.54837 5.9634C10.1108 4.07125 13.6371 3.9909 16.301 5.85568C19.2156 7.8959 20.2957 11.703 18.8869 14.9698C17.4781 18.2367 13.968 20.0643 10.4838 19.345C6.99952 18.6258 4.5 15.5576 4.5 12C4.5 11.5858 4.16421 11.25 3.75 11.25C3.33579 11.25 3 11.5858 3 12C3 16.2692 5.99943 19.9509 10.1805 20.814C14.3616 21.6771 18.5737 19.4841 20.2643 15.5638C21.9549 11.6436 20.6587 7.0751 17.1612 4.62684C14.0066 2.41858 9.84421 2.48339 6.78013 4.66752L7.19739 2.30373L7.20809 2.19032C7.21242 1.85335 6.97224 1.55323 6.62958 1.49281C6.24886 1.42568 5.8858 1.67989 5.81866 2.06062L5.08194 6.2388L5.07124 6.35221C5.06691 6.68918 5.30709 6.9893 5.64975 7.04972L9.82793 7.78645L9.94134 7.79714C10.2783 7.80147 10.5784 7.56129 10.6389 7.21864Z" fill="#2B2B2B"/>
</svg>
