<?xml version="1.0" encoding="UTF-8"?>
<svg width="24px" height="24px" viewBox="0 0 24 24" version="1.1" xmlns="http://www.w3.org/2000/svg" xmlns:xlink="http://www.w3.org/1999/xlink">
    <title>rule-engine</title>
    <g stroke="none" stroke-width="1" fill="none" fill-rule="evenodd">
        <g fill="#414851" fill-rule="nonzero">
            <path d="M15.3333333,2.08333333 C15.7130291,2.08333333 16.0268243,2.36548721 16.0764867,2.73156278 L16.0833333,2.83333333 L16.0833333,3.74933333 L17.8333333,3.75 C19.114634,3.75 20.1630374,4.74715141 20.2448596,6.00777017 L20.25,6.16666667 L20.2493333,7.91633333 L21.1666667,7.91666667 C21.5808802,7.91666667 21.9166667,8.2524531 21.9166667,8.66666667 C21.9166667,9.04636243 21.6345128,9.36015763 21.2684372,9.40982005 L21.1666667,9.41666667 L20.2493333,9.41633333 L20.2493333,11.2493333 L21.1666667,11.25 C21.5808802,11.25 21.9166667,11.5857864 21.9166667,12 C21.9166667,12.3796958 21.6345128,12.693491 21.2684372,12.7431534 L21.1666667,12.75 L20.2493333,12.7493333 L20.2493333,14.5833333 L21.1666667,14.5833333 C21.5808802,14.5833333 21.9166667,14.9191198 21.9166667,15.3333333 C21.9166667,15.7130291 21.6345128,16.0268243 21.2684372,16.0764867 L21.1666667,16.0833333 L20.2493333,16.0833333 L20.25,17.8333333 C20.25,19.114634 19.2528486,20.1630374 17.9922298,20.2448596 L17.8333333,20.25 L16.0833333,20.2493333 L16.0833333,21.1666667 C16.0833333,21.5808802 15.7475469,21.9166667 15.3333333,21.9166667 C14.9536376,21.9166667 14.6398424,21.6345128 14.5901799,21.2684372 L14.5833333,21.1666667 L14.5833333,20.2493333 L12.7493333,20.2493333 L12.75,21.1666667 C12.75,21.5808802 12.4142136,21.9166667 12,21.9166667 C11.6203042,21.9166667 11.306509,21.6345128 11.2568466,21.2684372 L11.25,21.1666667 L11.2493333,20.2493333 L9.41633333,20.2493333 L9.41666667,21.1666667 C9.41666667,21.5808802 9.08088023,21.9166667 8.66666667,21.9166667 C8.2869709,21.9166667 7.97317571,21.6345128 7.92351328,21.2684372 L7.91666667,21.1666667 L7.91633333,20.2493333 L6.16666667,20.25 C4.88536605,20.25 3.83696262,19.2528486 3.75514042,17.9922298 L3.75,17.8333333 L3.74933333,16.0833333 L2.83333333,16.0833333 C2.41911977,16.0833333 2.08333333,15.7475469 2.08333333,15.3333333 C2.08333333,14.9536376 2.36548721,14.6398424 2.73156278,14.5901799 L2.83333333,14.5833333 L3.74933333,14.5833333 L3.74933333,12.7493333 L2.83333333,12.75 C2.41911977,12.75 2.08333333,12.4142136 2.08333333,12 C2.08333333,11.6203042 2.36548721,11.306509 2.73156278,11.2568466 L2.83333333,11.25 L3.74933333,11.2493333 L3.74933333,9.41633333 L2.83333333,9.41666667 C2.41911977,9.41666667 2.08333333,9.08088023 2.08333333,8.66666667 C2.08333333,8.2869709 2.36548721,7.97317571 2.73156278,7.92351328 L2.83333333,7.91666667 L3.74933333,7.91633333 L3.75,6.16666667 C3.75,4.88536605 4.74715141,3.83696262 6.00777017,3.75514042 L6.16666667,3.75 L7.91633333,3.74933333 L7.91666667,2.83333333 C7.91666667,2.41911977 8.2524531,2.08333333 8.66666667,2.08333333 C9.04636243,2.08333333 9.36015763,2.36548721 9.40982005,2.73156278 L9.41666667,2.83333333 L9.41633333,3.74933333 L11.2493333,3.74933333 L11.25,2.83333333 C11.25,2.41911977 11.5857864,2.08333333 12,2.08333333 C12.3796958,2.08333333 12.693491,2.36548721 12.7431534,2.73156278 L12.75,2.83333333 L12.7493333,3.74933333 L14.5833333,3.74933333 L14.5833333,2.83333333 C14.5833333,2.41911977 14.9191198,2.08333333 15.3333333,2.08333333 Z M17.8333333,5.25 L6.16666667,5.25 C5.66040565,5.25 5.25,5.66040565 5.25,6.16666667 L5.25,6.16666667 L5.25,17.8333333 C5.25,18.3395944 5.66040565,18.75 6.16666667,18.75 L6.16666667,18.75 L17.8333333,18.75 C18.3395944,18.75 18.75,18.3395944 18.75,17.8333333 L18.75,17.8333333 L18.75,6.16666667 C18.75,5.66040565 18.3395944,5.25 17.8333333,5.25 L17.8333333,5.25 Z M16.1666667,7.08333333 C16.5808802,7.08333333 16.9166667,7.41911977 16.9166667,7.83333333 L16.9166667,7.83333333 L16.9166667,16.1666667 C16.9166667,16.5808802 16.5808802,16.9166667 16.1666667,16.9166667 L16.1666667,16.9166667 L7.83333333,16.9166667 C7.41911977,16.9166667 7.08333333,16.5808802 7.08333333,16.1666667 L7.08333333,16.1666667 L7.08333333,7.83333333 C7.08333333,7.41911977 7.41911977,7.08333333 7.83333333,7.08333333 L7.83333333,7.08333333 Z M15.416,8.583 L8.583,8.583 L8.583,15.416 L15.416,15.416 L15.416,8.583 Z"></path>
        </g>
    </g>
</svg>
