<?xml version="1.0" encoding="UTF-8"?>
<svg width="24px" height="24px" viewBox="0 0 24 24" version="1.1" xmlns="http://www.w3.org/2000/svg" xmlns:xlink="http://www.w3.org/1999/xlink">
    <title>save</title>
    <g stroke="none" stroke-width="1" fill="none" fill-rule="evenodd">
        <g transform="translate(3.000000, 3.000000)">
            <rect x="0" y="0" width="18" height="18"></rect>
            <g stroke-linecap="square" transform="translate(0.875000, 0.875000)" fill="#414851" fill-rule="nonzero">
                <path d="M12.5399495,0.3 L16.7,4.46005051 L16.7,14.5 C16.7,15.7150264 15.7150264,16.7 14.5,16.7 L14.5,16.7 L2.5,16.7 C1.28497355,16.7 0.3,15.7150264 0.3,14.5 L0.3,14.5 L0.3,2.5 C0.3,1.28497355 1.28497355,0.3 2.5,0.3 L2.5,0.3 L12.5399495,0.3 Z M11.961,1.7 L2.5,1.7 C2.0581722,1.7 1.7,2.0581722 1.7,2.5 L1.7,2.5 L1.7,14.5 C1.7,14.9418278 2.0581722,15.3 2.5,15.3 L2.5,15.3 L3.299,15.299 L3.3,9.5 C3.3,8.61053088 3.98310681,7.8806099 4.85331749,7.80624001 L5,7.8 L12,7.8 C12.8894691,7.8 13.6193901,8.48310681 13.69376,9.35331749 L13.7,9.5 L13.699,15.299 L14.5,15.3 C14.907841,15.3 15.2444016,14.9948119 15.2937669,14.6003503 L15.3,14.5 L15.3,5.039 L11.961,1.7 Z M12,9.2 L5,9.2 C4.85798392,9.2 4.73901581,9.2986801 4.70792321,9.43121275 L4.7,9.5 L4.699,15.299 L12.299,15.299 L12.3,9.5 C12.3,9.35798392 12.2013199,9.23901581 12.0687872,9.20792321 L12,9.2 Z M11.45,3.3 L11.45,6.2 L10.05,6.2 L10.05,3.3 L11.45,3.3 Z"></path>
            </g>
        </g>
    </g>
</svg>
