<?xml version="1.0" encoding="UTF-8"?>
<svg width="24px" height="24px" viewBox="0 0 24 24" version="1.1" xmlns="http://www.w3.org/2000/svg" xmlns:xlink="http://www.w3.org/1999/xlink">
    <title>scan</title>
    <g stroke="none" stroke-width="1" fill="none" fill-rule="evenodd">
        <g fill="#414851" fill-rule="nonzero">
            <path d="M18.6666667,15.4165917 C19.0463624,15.4165917 19.3601576,15.6987455 19.4098201,16.0648211 L19.4166667,16.1665917 L19.4166667,18.6666667 C19.4166667,19.0463624 19.1345128,19.3601576 18.7684372,19.4098201 L18.6666667,19.4166667 L16.1665917,19.4166667 C15.7523781,19.4166667 15.4165917,19.0808802 15.4165917,18.6666667 C15.4165917,18.2869709 15.6987455,17.9731757 16.0648211,17.9235133 L16.1665917,17.9166667 L17.9163333,17.9163333 L17.9166667,16.1665917 C17.9166667,15.7868959 18.1988205,15.4731007 18.5648961,15.4234383 L18.6666667,15.4165917 Z M5.33333333,15.4165917 C5.7130291,15.4165917 6.02682429,15.6987455 6.07648672,16.0648211 L6.08333333,16.1665917 L6.08333333,17.9163333 L7.83340833,17.9166667 C8.2131041,17.9166667 8.52689929,18.1988205 8.57656172,18.5648961 L8.58340833,18.6666667 C8.58340833,19.0463624 8.30125445,19.3601576 7.93517889,19.4098201 L7.83340833,19.4166667 L5.33333333,19.4166667 C4.95363757,19.4166667 4.63984237,19.1345128 4.59017995,18.7684372 L4.58333333,18.6666667 L4.58333333,16.1665917 C4.58333333,15.7523781 4.91911977,15.4165917 5.33333333,15.4165917 Z M21.1666667,11.25 C21.5808802,11.25 21.9166667,11.5857864 21.9166667,12 C21.9166667,12.3796958 21.6345128,12.693491 21.2684372,12.7431534 L21.1666667,12.75 L2.83333333,12.75 C2.41911977,12.75 2.08333333,12.4142136 2.08333333,12 C2.08333333,11.6203042 2.36548721,11.306509 2.73156278,11.2568466 L2.83333333,11.25 L21.1666667,11.25 Z M7.83340833,4.58333333 C8.2476219,4.58333333 8.58340833,4.91911977 8.58340833,5.33333333 C8.58340833,5.7130291 8.30125445,6.02682429 7.93517889,6.07648672 L7.83340833,6.08333333 L6.08333333,6.08333333 L6.08333333,7.83340833 C6.08333333,8.2131041 5.80117945,8.52689929 5.43510389,8.57656172 L5.33333333,8.58340833 C4.95363757,8.58340833 4.63984237,8.30125445 4.59017995,7.93517889 L4.58333333,7.83340833 L4.58333333,5.33333333 C4.58333333,4.95363757 4.86548721,4.63984237 5.23156278,4.59017995 L5.33333333,4.58333333 L7.83340833,4.58333333 Z M18.6666667,4.58333333 C19.0463624,4.58333333 19.3601576,4.86548721 19.4098201,5.23156278 L19.4166667,5.33333333 L19.4166667,7.83340833 C19.4166667,8.2476219 19.0808802,8.58340833 18.6666667,8.58340833 C18.2869709,8.58340833 17.9731757,8.30125445 17.9235133,7.93517889 L17.9166667,7.83340833 L17.9163333,6.08333333 L16.1665917,6.08333333 C15.7868959,6.08333333 15.4731007,5.80117945 15.4234383,5.43510389 L15.4165917,5.33333333 C15.4165917,4.95363757 15.6987455,4.63984237 16.0648211,4.59017995 L16.1665917,4.58333333 L18.6666667,4.58333333 Z"></path>
        </g>
    </g>
</svg>
