<?xml version="1.0" encoding="UTF-8"?>
<svg width="24px" height="24px" viewBox="0 0 24 24" version="1.1" xmlns="http://www.w3.org/2000/svg" xmlns:xlink="http://www.w3.org/1999/xlink">
    <title>search</title>
    <g stroke="none" stroke-width="1" fill="none" fill-rule="evenodd">
        <g>
            <rect fill="#FFFFFF" fill-rule="nonzero" opacity="0" x="0" y="0" width="24" height="24"></rect>
            <path d="M15.9984326,14.8041353 L15.9848674,14.6031771 C16.9351517,13.3546872 17.457957,11.8317132 17.457957,10.2289785 C17.457957,6.23652392 14.2214331,3 10.2289785,3 C6.23652392,3 3,6.23652392 3,10.2289785 C3,14.2214331 6.23652392,17.457957 10.2289785,17.457957 C11.8317132,17.457957 13.3546872,16.9351517 14.6031771,15.9848674 L14.8041353,15.9984326 L19.8057027,21 L21,19.8057027 L15.9984326,14.8041353 Z M10.2289785,15.7689656 C7.16932813,15.7689656 4.68899142,13.2886289 4.68899142,10.2289785 C4.68899142,7.16932813 7.16932813,4.68899142 10.2289785,4.68899142 C13.2886289,4.68899142 15.7689656,7.16932813 15.7689656,10.2289785 C15.7689656,13.2886289 13.2886289,15.7689656 10.2289785,15.7689656 Z" fill="#414851"></path>
        </g>
    </g>
</svg>
