<?xml version="1.0" encoding="UTF-8"?>
<svg width="24px" height="24px" viewBox="0 0 24 24" version="1.1" xmlns="http://www.w3.org/2000/svg" xmlns:xlink="http://www.w3.org/1999/xlink">
    <title>send</title>
    <g stroke="none" stroke-width="1" fill="none" fill-rule="evenodd">
        <g fill="#414851" fill-rule="nonzero">
            <path d="M20.1840808,2.93124622 C20.3244107,2.90178232 20.4610462,2.91419372 20.5837403,2.95823333 C20.589708,2.9616197 20.5964113,2.96408839 20.6030852,2.966656 C20.6297514,2.97593377 20.6550543,2.98753945 20.6795897,3.00047201 C20.6842497,3.00357622 20.6892389,3.00624288 20.6942037,3.00896997 C20.7173555,3.02125757 20.7395233,3.03514171 20.7609032,3.05010576 C20.7702786,3.0568291 20.7802,3.06407849 20.7899783,3.07160186 C20.8464734,3.11524632 20.8961974,3.16606375 20.9381735,3.22280965 L20.8636634,3.13633658 C20.8964392,3.16911231 20.9255472,3.20416687 20.9509875,3.24099024 C20.9690612,3.26661806 20.9855817,3.29379543 21.0003531,3.3219801 C21.0028214,3.32810038 21.0055316,3.33351189 21.0081721,3.3389487 C21.0917749,3.50675509 21.1130516,3.7092166 21.0412271,3.91442949 L21.0547838,3.87212449 C21.0509737,3.88554976 21.0467822,3.89888961 21.0422094,3.91212694 L21.0412271,3.91442949 L15.2078938,20.5810962 C15.0000531,21.1749268 14.1974513,21.2643526 13.8640013,20.7308325 L13.8640013,20.7308325 L9.789,14.21 L3.26916746,10.1359987 C2.76703096,9.82216341 2.81670808,9.09274732 3.31937038,8.83474144 L3.31937038,8.83474144 L3.41890385,8.79210623 L20.0707403,2.96394391 C20.1055657,2.95095461 20.1411626,2.94064189 20.177213,2.93300575 Z M18.5375401,6.52222014 L11.2855401,13.7742201 L14.308,18.611 L18.5375401,6.52222014 Z M17.4805401,5.45822014 L5.388,9.691 L10.2245401,12.7142201 L17.4805401,5.45822014 Z"></path>
        </g>
    </g>
</svg>
