<?xml version="1.0" encoding="UTF-8"?>
<svg width="24px" height="24px" viewBox="0 0 24 24" version="1.1" xmlns="http://www.w3.org/2000/svg" xmlns:xlink="http://www.w3.org/1999/xlink">
    <title>seo</title>
    <g stroke="none" stroke-width="1" fill="none" fill-rule="evenodd">
        <g transform="translate(1.000000, 4.000000)">
            <rect x="1.1" y="-1.24344979e-14" width="19.8" height="15.4"></rect>
            <g stroke-linecap="square" transform="translate(0.825000, 1.400000)" fill="#414851" fill-rule="nonzero">
                <path d="M15.2247369,9.99973691 C15.5176301,9.70684369 15.9759602,9.68021703 16.2989328,9.91985694 L16.3914631,9.99973691 L19.8333631,13.4416369 C20.1555456,13.7638194 20.1555456,14.2861806 19.8333631,14.6083631 C19.5404699,14.9012563 19.0821398,14.927883 18.7591672,14.6882431 L18.6666369,14.6083631 L15.2247369,11.1664631 C14.9025544,10.8442806 14.9025544,10.3219194 15.2247369,9.99973691 Z"></path>
                <path d="M6.875,4.95 C7.33063492,4.95 7.7,5.31936508 7.7,5.775 C7.7,6.19266534 7.38963073,6.53784006 6.98694761,6.59246872 L6.875,6.6 L1.1,6.6 C0.644365081,6.6 0.275,6.23063492 0.275,5.775 C0.275,5.35733466 0.58536927,5.01215994 0.988052387,4.95753128 L1.1,4.95 L6.875,4.95 Z"></path>
                <path d="M6.875,9.9 C7.33063492,9.9 7.7,10.2693651 7.7,10.725 C7.7,11.1426653 7.38963073,11.4878401 6.98694761,11.5424687 L6.875,11.55 L1.1,11.55 C0.644365081,11.55 0.275,11.1806349 0.275,10.725 C0.275,10.3073347 0.58536927,9.96215994 0.988052387,9.90753128 L1.1,9.9 L6.875,9.9 Z"></path>
                <path d="M13.475,0 C13.9306349,0 14.3,0.369365081 14.3,0.825 C14.3,1.24266534 13.9896307,1.58784006 13.5869476,1.64246872 L13.475,1.65 L1.1,1.65 C0.644365081,1.65 0.275,1.28063492 0.275,0.825 C0.275,0.407334658 0.58536927,0.062159943 0.988052387,0.0075312776 L1.1,0 L13.475,0 Z"></path>
                <path d="M13.475,4.125 C11.1968254,4.125 9.35,5.97182541 9.35,8.25 C9.35,10.5281746 11.1968254,12.375 13.475,12.375 C15.7531746,12.375 17.6,10.5281746 17.6,8.25 C17.6,5.97182541 15.7531746,4.125 13.475,4.125 Z M13.475,5.775 C14.8419048,5.775 15.95,6.88309524 15.95,8.25 C15.95,9.61690476 14.8419048,10.725 13.475,10.725 C12.1080952,10.725 11,9.61690476 11,8.25 C11,6.88309524 12.1080952,5.775 13.475,5.775 Z"></path>
            </g>
        </g>
    </g>
</svg>
