<?xml version="1.0" encoding="UTF-8"?>
<svg width="24px" height="24px" viewBox="0 0 24 24" version="1.1" xmlns="http://www.w3.org/2000/svg" xmlns:xlink="http://www.w3.org/1999/xlink">
    <title>separate</title>
    <g stroke="none" stroke-width="1" fill="none" fill-rule="evenodd">
        <g transform="translate(3.000000, 3.000000)">
            <rect x="0" y="0" width="18" height="18"></rect>
            <g stroke-linecap="square" transform="translate(0.500000, 0.500000)" fill="#414851" fill-rule="nonzero">
                <path d="M13.4949747,0.505025253 L16.4949747,3.50502525 C16.5195109,3.52956142 16.5422341,3.5559106 16.562926,3.58385461 L16.4949747,3.50502525 C16.527491,3.53754154 16.5561396,3.57246092 16.5809204,3.60921172 C16.5931858,3.62747334 16.6050266,3.64697698 16.6159125,3.6670734 C16.6240245,3.6819696 16.6314554,3.69699506 16.6383144,3.71221546 C16.6440327,3.72491446 16.6494409,3.73791809 16.6544616,3.7511128 C16.6611395,3.76875174 16.6670831,3.78656076 16.6722921,3.80453755 C16.6782458,3.82487854 16.6832277,3.84549846 16.6872753,3.86645137 C16.6891787,3.87661708 16.6909007,3.88671218 16.6924007,3.89683385 C16.6974241,3.93050395 16.7,3.96495116 16.7,4 L16.6922847,4.10428458 L16.6922847,4.10428458 C16.6829213,4.16477407 16.6668361,4.22150482 16.6435432,4.27588561 C16.6399366,4.28426484 16.6362461,4.29241795 16.6324058,4.30048596 C16.6242538,4.31770086 16.6153852,4.33455391 16.6057824,4.3510978 C16.596528,4.36688625 16.5870587,4.38182059 16.5770543,4.3963581 C16.5747179,4.39986509 16.5717765,4.40404971 16.5687838,4.40820889 L16.5526846,4.42963325 C16.5373506,4.44933074 16.5209867,4.46818696 16.5036738,4.48612101 L16.4949747,4.49497475 L13.4949747,7.49497475 L12.5050253,6.50502525 L14.31,4.69902525 L8.827,4.7 L5.661,8.5 L8.828,12.3 L14.31,12.2990253 L12.5050253,10.4949747 L13.4949747,9.50502525 L16.4949747,12.5050253 L16.5108179,12.5213892 C16.5261236,12.5377182 16.5406553,12.5547815 16.5543545,12.5725204 L16.4949747,12.5050253 C16.52634,12.5363905 16.5541065,12.5699918 16.5782743,12.6053159 C16.5896261,12.6219901 16.6006191,12.6396674 16.6108241,12.6578466 C16.6189601,12.6722536 16.6264075,12.6867203 16.6333179,12.7013773 C16.6399053,12.7153918 16.6460088,12.7295062 16.6516522,12.743852 C16.6589054,12.7623813 16.6652703,12.7808909 16.6708379,12.7995873 C16.676573,12.8185711 16.6816168,12.8385877 16.6857785,12.8589256 C16.688361,12.8718957 16.6905499,12.8843446 16.6924007,12.8968339 C16.6928446,12.8994973 16.6932353,12.9022532 16.6936098,12.9050141 L16.7,13 L16.6922847,13.1042846 L16.6922847,13.1042846 C16.6829213,13.1647741 16.6668361,13.2215048 16.6435432,13.2758856 C16.6399366,13.2842648 16.6362461,13.2924179 16.6324058,13.300486 C16.6242538,13.3177009 16.6153852,13.3345539 16.6057824,13.3510978 C16.596528,13.3668862 16.5870587,13.3818206 16.5770543,13.3963581 C16.5747179,13.3998651 16.5717765,13.4040497 16.5687838,13.4082089 L16.5526846,13.4296332 C16.5373506,13.4493307 16.5209867,13.468187 16.5036738,13.486121 L16.4949747,13.4949747 L13.4949747,16.4949747 L12.5050253,15.5050253 L14.31,13.6990253 L8.5,13.7 C8.32687843,13.7 8.16121002,13.6359194 8.03383106,13.5222011 L7.9622451,13.4481291 L4.421,9.19902525 L1,9.2 C0.613400675,9.2 0.3,8.88659932 0.3,8.5 C0.3,8.14561729 0.563343623,7.85274177 0.905014146,7.80639017 L1,7.8 L4.422,7.79902525 L7.9622451,3.55187092 C8.07307484,3.41887524 8.22836127,3.33262867 8.39726813,3.30757413 L8.5,3.3 L14.31,3.29902525 L12.5050253,1.49497475 L13.4949747,0.505025253 Z"></path>
            </g>
        </g>
    </g>
</svg>
