<?xml version="1.0" encoding="UTF-8"?>
<svg width="24px" height="24px" viewBox="0 0 24 24" version="1.1" xmlns="http://www.w3.org/2000/svg" xmlns:xlink="http://www.w3.org/1999/xlink">
    <title>server</title>
    <g stroke="none" stroke-width="1" fill="none" fill-rule="evenodd">
        <g transform="translate(2.000000, 3.000000)">
            <rect x="1" y="0" width="18" height="18"></rect>
            <g stroke-linecap="square" transform="translate(0.750000, 0.500000)" fill="#414851" fill-rule="nonzero">
                <path d="M15.5,9.25 C17.0187831,9.25 18.25,10.4812169 18.25,12 L18.25,12 L18.25,14 C18.25,15.5187831 17.0187831,16.75 15.5,16.75 L15.5,16.75 L3,16.75 C1.48121694,16.75 0.25,15.5187831 0.25,14 L0.25,14 L0.25,12 C0.25,10.4812169 1.48121694,9.25 3,9.25 L3,9.25 Z M15.5,10.75 L3,10.75 C2.30964406,10.75 1.75,11.3096441 1.75,12 L1.75,12 L1.75,14 C1.75,14.6903559 2.30964406,15.25 3,15.25 L3,15.25 L15.5,15.25 C16.1903559,15.25 16.75,14.6903559 16.75,14 L16.75,14 L16.75,12 C16.75,11.3096441 16.1903559,10.75 15.5,10.75 L15.5,10.75 Z M7,12.25 C7.41421356,12.25 7.75,12.5857864 7.75,13 C7.75,13.3796958 7.46784612,13.693491 7.10177056,13.7431534 L7,13.75 L4,13.75 C3.58578644,13.75 3.25,13.4142136 3.25,13 C3.25,12.6203042 3.53215388,12.306509 3.89822944,12.2568466 L4,12.25 L7,12.25 Z M15.5,0.25 C17.0187831,0.25 18.25,1.48121694 18.25,3 L18.25,3 L18.25,5 C18.25,6.51878306 17.0187831,7.75 15.5,7.75 L15.5,7.75 L3,7.75 C1.48121694,7.75 0.25,6.51878306 0.25,5 L0.25,5 L0.25,3 C0.25,1.48121694 1.48121694,0.25 3,0.25 L3,0.25 Z M15.5,1.75 L3,1.75 C2.30964406,1.75 1.75,2.30964406 1.75,3 L1.75,3 L1.75,5 C1.75,5.69035594 2.30964406,6.25 3,6.25 L3,6.25 L15.5,6.25 C16.1903559,6.25 16.75,5.69035594 16.75,5 L16.75,5 L16.75,3 C16.75,2.30964406 16.1903559,1.75 15.5,1.75 L15.5,1.75 Z M7,3.25 C7.41421356,3.25 7.75,3.58578644 7.75,4 C7.75,4.37969577 7.46784612,4.69349096 7.10177056,4.74315338 L7,4.75 L4,4.75 C3.58578644,4.75 3.25,4.41421356 3.25,4 C3.25,3.62030423 3.53215388,3.30650904 3.89822944,3.25684662 L4,3.25 L7,3.25 Z"></path>
                <circle cx="14.5" cy="4" r="1"></circle>
                <circle cx="14.5" cy="13" r="1"></circle>
            </g>
        </g>
    </g>
</svg>
