<?xml version="1.0" encoding="UTF-8"?>
<svg width="24px" height="24px" viewBox="0 0 24 24" version="1.1" xmlns="http://www.w3.org/2000/svg" xmlns:xlink="http://www.w3.org/1999/xlink">
    <title>settings-wheel</title>
    <g stroke="none" stroke-width="1" fill="none" fill-rule="evenodd">
        <g transform="translate(3.000000, 3.000000)">
            <rect x="0" y="0" width="18" height="18"></rect>
            <g stroke-linecap="square" transform="translate(0.750000, 0.750000)" fill="#414851" fill-rule="nonzero">
                <path d="M8.25,5.25 C6.59314575,5.25 5.25,6.59314575 5.25,8.25 C5.25,9.90685425 6.59314575,11.25 8.25,11.25 C9.90685425,11.25 11.25,9.90685425 11.25,8.25 C11.25,6.59314575 9.90685425,5.25 8.25,5.25 Z M8.25,6.75 C9.07842712,6.75 9.75,7.42157288 9.75,8.25 C9.75,9.07842712 9.07842712,9.75 8.25,9.75 C7.42157288,9.75 6.75,9.07842712 6.75,8.25 C6.75,7.42157288 7.42157288,6.75 8.25,6.75 Z"></path>
                <path d="M6.75,-0.75 L6.64847323,-0.743158479 C6.31600862,-0.698019077 6.04845644,-0.434243704 6.00579499,-0.09305319 L5.746,1.984 L5.59787984,2.04407029 C5.10257354,2.25708065 4.63459483,2.52876434 4.2040183,2.85327258 L4.081,2.95 L2.14703413,2.13498057 C1.79854302,1.98795569 1.3951078,2.12343229 1.20598571,2.45099175 L-0.294014289,5.04899175 L-0.342599295,5.149661 C-0.464080425,5.4580589 -0.368616485,5.816453 -0.0972447909,6.02193156 L1.572,7.286 L1.54904898,7.4425555 C1.48369488,7.97885993 1.48369488,8.52114007 1.54904898,9.0574445 L1.572,9.213 L-0.0972447909,10.4780684 C-0.398768896,10.706378 -0.483122933,11.1234721 -0.294014289,11.4510083 L1.20598571,14.0490083 L1.26888247,14.1414232 C1.47524541,14.400838 1.83339213,14.4973418 2.14703413,14.3650194 L4.081,13.549 L4.2040183,13.6467274 C4.63459483,13.9712357 5.10257354,14.2429194 5.59787984,14.4559297 L5.746,14.515 L6.00579499,16.5930532 C6.05272258,16.9683628 6.37176797,17.25 6.75,17.25 L9.75,17.25 L9.85152677,17.2431585 C10.1839914,17.1980191 10.4515436,16.9342437 10.494205,16.5930532 L10.753,14.515 L10.9021202,14.4559297 C11.3974265,14.2429194 11.8654052,13.9712357 12.2959817,13.6467274 L12.418,13.549 L14.3529659,14.3650194 C14.701457,14.5120443 15.1048922,14.3765677 15.2940143,14.0490083 L16.7940143,11.4510083 L16.8425993,11.350339 C16.9640804,11.0419411 16.8686165,10.683547 16.5972448,10.4780684 L14.927,9.213 L14.9595057,8.97797983 C14.9859634,8.73690532 14.999499,8.49441264 14.9999984,8.25154223 L14.9894864,7.88586677 C14.9827328,7.76431673 14.9727345,7.64313576 14.9595057,7.52240573 L14.927,7.286 L16.5972448,6.02193156 C16.8987689,5.79362204 16.9831229,5.37652792 16.7940143,5.04899175 L15.2940143,2.45099175 L15.2311175,2.35857681 C15.0247546,2.09916198 14.6666079,2.00265817 14.3529659,2.13498057 L12.418,2.95 L12.2959817,2.85327258 C11.8654052,2.52876434 11.3974265,2.25708065 10.9021202,2.04407029 L10.753,1.984 L10.494205,-0.09305319 C10.4472774,-0.468362755 10.128232,-0.75 9.75,-0.75 L6.75,-0.75 Z M7.412,0.75 L9.087,0.75 L9.32229499,2.62430319 C9.35852434,2.91405216 9.5596318,3.1564313 9.83771987,3.24550461 C10.5592006,3.4765993 11.2219952,3.86138281 11.7804243,4.37333606 L11.8657189,4.44085814 C12.0739553,4.58241842 12.3423191,4.61128162 12.5787841,4.51151943 L14.325,3.775 L15.163,5.226 L13.6562552,6.36731844 C13.4228387,6.54405792 13.3136074,6.84046741 13.3765193,7.12640834 C13.4578255,7.49595336 13.4992235,7.87315933 13.5000016,8.25154223 C13.4992235,8.62684067 13.4578255,9.00404664 13.3765193,9.37359166 L13.3609029,9.48105605 C13.3428556,9.73176512 13.4520157,9.97803451 13.6562552,10.1326816 L15.163,11.273 L14.325,12.724 L12.5787841,11.9884806 C12.3085384,11.8744666 11.9966289,11.9284532 11.7804243,12.1266639 C11.2219952,12.6386172 10.5592006,13.0234007 9.83771987,13.2544954 L9.73721699,13.2948772 C9.51193115,13.4049036 9.35399567,13.6221665 9.32229499,13.8756968 L9.087,15.75 L7.412,15.75 L7.17770501,13.8756968 C7.14147566,13.5859478 6.9403682,13.3435687 6.66228013,13.2544954 C5.94079942,13.0234007 5.27800479,12.6386172 4.7195757,12.1266639 L4.63428111,12.0591419 C4.42604473,11.9175816 4.15768085,11.8887184 3.92121587,11.9884806 L2.174,12.724 L1.336,11.273 L2.84374479,10.1326816 C3.07759524,9.95561352 3.18675922,9.65846896 3.12315613,9.37212342 C2.9589925,8.6330474 2.9589925,7.8669526 3.12315613,7.12787658 L3.13900274,7.02024642 C3.15752,6.76912109 3.04836393,6.52225298 2.84374479,6.36731844 L1.336,5.226 L2.174,3.775 L3.92121587,4.51151943 C4.19146157,4.62553336 4.50337112,4.57154679 4.7195757,4.37333606 C5.27800479,3.86138281 5.94079942,3.4765993 6.66228013,3.24550461 L6.76278301,3.20512282 C6.98806885,3.09509636 7.14600433,2.87783354 7.17770501,2.62430319 L7.412,0.75 Z"></path>
            </g>
        </g>
    </g>
</svg>
