<?xml version="1.0" encoding="UTF-8"?>
<svg width="24px" height="24px" viewBox="0 0 24 24" version="1.1" xmlns="http://www.w3.org/2000/svg" xmlns:xlink="http://www.w3.org/1999/xlink">
    <title>settings</title>
    <g stroke="none" stroke-width="1" fill="none" fill-rule="evenodd">
        <g fill="#414851" fill-rule="nonzero">
            <g transform="translate(4.000000, 6.000000)">
                <path d="M15.25,1.25 C15.6642136,1.25 16,1.58578644 16,2 C16,2.37969577 15.7178461,2.69349096 15.3517706,2.74315338 L15.25,2.75 L9,2.75 C8.58578644,2.75 8.25,2.41421356 8.25,2 C8.25,1.62030423 8.53215388,1.30650904 8.89822944,1.25684662 L9,1.25 L15.25,1.25 Z"></path>
                <path d="M2.75,1.25 C3.16421356,1.25 3.5,1.58578644 3.5,2 C3.5,2.37969577 3.21784612,2.69349096 2.85177056,2.74315338 L2.75,2.75 L0.75,2.75 C0.335786438,2.75 0,2.41421356 0,2 C0,1.62030423 0.282153882,1.30650904 0.648229443,1.25684662 L0.75,1.25 L2.75,1.25 Z"></path>
                <path d="M6,-1.4 C4.12223185,-1.4 2.6,0.122231851 2.6,2 C2.6,3.87776815 4.12223185,5.4 6,5.4 C7.87776815,5.4 9.4,3.87776815 9.4,2 C9.4,0.122231851 7.87776815,-1.4 6,-1.4 Z M6,0 C7.1045695,0 8,0.8954305 8,2 C8,3.1045695 7.1045695,4 6,4 C4.8954305,4 4,3.1045695 4,2 C4,0.8954305 4.8954305,0 6,0 Z"></path>
                <path d="M10,6.6 C8.12223185,6.6 6.6,8.12223185 6.6,10 C6.6,11.8777681 8.12223185,13.4 10,13.4 C11.8777681,13.4 13.4,11.8777681 13.4,10 C13.4,8.12223185 11.8777681,6.6 10,6.6 Z M10,8 C11.1045695,8 12,8.8954305 12,10 C12,11.1045695 11.1045695,12 10,12 C8.8954305,12 8,11.1045695 8,10 C8,8.8954305 8.8954305,8 10,8 Z"></path>
                <path d="M15.5,9.25 C15.9142136,9.25 16.25,9.58578644 16.25,10 C16.25,10.3796958 15.9678461,10.693491 15.6017706,10.7431534 L15.5,10.75 L13.5,10.75 C13.0857864,10.75 12.75,10.4142136 12.75,10 C12.75,9.62030423 13.0321539,9.30650904 13.3982294,9.25684662 L13.5,9.25 L15.5,9.25 Z"></path>
                <path d="M6.5,9.25 C6.91421356,9.25 7.25,9.58578644 7.25,10 C7.25,10.3796958 6.96784612,10.693491 6.60177056,10.7431534 L6.5,10.75 L0.75,10.75 C0.335786438,10.75 0,10.4142136 0,10 C0,9.62030423 0.282153882,9.30650904 0.648229443,9.25684662 L0.75,9.25 L6.5,9.25 Z"></path>
            </g>
        </g>
    </g>
</svg>
