<?xml version="1.0" encoding="UTF-8"?>
<svg width="24px" height="24px" viewBox="0 0 24 24" version="1.1" xmlns="http://www.w3.org/2000/svg" xmlns:xlink="http://www.w3.org/1999/xlink">
    <title>share</title>
    <g stroke="none" stroke-width="1" fill="none" fill-rule="evenodd">
        <g transform="translate(3.000000, 3.000000)">
            <rect x="0" y="0" width="18" height="18"></rect>
            <g stroke-linecap="square" transform="translate(0.750000, 0.750000)" fill="#414851" fill-rule="nonzero">
                <polygon points="10.4645898 3.67917961 11.1354102 5.02082039 6.0354102 7.57082039 5.3645898 6.22917961"></polygon>
                <polygon points="6.0354102 8.85417961 11.1354102 11.4041796 10.4645898 12.7458204 5.3645898 10.1958204"></polygon>
                <path d="M3,4.5 C0.928932188,4.5 -0.75,6.17893219 -0.75,8.25 C-0.75,10.3210678 0.928932188,12 3,12 C5.07106781,12 6.75,10.3210678 6.75,8.25 C6.75,6.17893219 5.07106781,4.5 3,4.5 Z M3,6 C4.24264069,6 5.25,7.00735931 5.25,8.25 C5.25,9.49264069 4.24264069,10.5 3,10.5 C1.75735931,10.5 0.75,9.49264069 0.75,8.25 C0.75,7.00735931 1.75735931,6 3,6 Z"></path>
                <path d="M13.5,-0.75 C11.4289322,-0.75 9.75,0.928932188 9.75,3 C9.75,5.07106781 11.4289322,6.75 13.5,6.75 C15.5710678,6.75 17.25,5.07106781 17.25,3 C17.25,0.928932188 15.5710678,-0.75 13.5,-0.75 Z M13.5,0.75 C14.7426407,0.75 15.75,1.75735931 15.75,3 C15.75,4.24264069 14.7426407,5.25 13.5,5.25 C12.2573593,5.25 11.25,4.24264069 11.25,3 C11.25,1.75735931 12.2573593,0.75 13.5,0.75 Z"></path>
                <path d="M13.5,9.75 C11.4289322,9.75 9.75,11.4289322 9.75,13.5 C9.75,15.5710678 11.4289322,17.25 13.5,17.25 C15.5710678,17.25 17.25,15.5710678 17.25,13.5 C17.25,11.4289322 15.5710678,9.75 13.5,9.75 Z M13.5,11.25 C14.7426407,11.25 15.75,12.2573593 15.75,13.5 C15.75,14.7426407 14.7426407,15.75 13.5,15.75 C12.2573593,15.75 11.25,14.7426407 11.25,13.5 C11.25,12.2573593 12.2573593,11.25 13.5,11.25 Z"></path>
            </g>
        </g>
    </g>
</svg>
