<?xml version="1.0" encoding="UTF-8"?>
<svg width="24" height="24" viewBox="0 0 24 24" fill="none" xmlns="http://www.w3.org/2000/svg">
<path d="M9 2.75H6.75C6.63357 2.75 6.51873 2.77711 6.41459 2.82918L3.41459 4.32918C3.1605 4.45622 3 4.71592 3 5V10.0315L3.00631 10.1296C3.0604 10.5463 3.45425 10.8456 3.88084 10.77L5.999 10.394L6 18.5C6 18.9142 6.33579 19.25 6.75 19.25H11.7358C11.4687 18.7882 11.2668 18.284 11.1427 17.75H7.499L7.5 9.5L7.49369 9.40187C7.4396 8.98519 7.04575 8.68592 6.61916 8.7615L4.499 9.136V5.463L6.925 4.25H8.326L8.33139 4.27734C8.69134 5.97119 10.2021 7.25 12 7.25L12.1985 7.24478C13.8424 7.15817 15.2128 6.00261 15.6239 4.46379L15.673 4.25H17.074L19.499 5.463V9.136L17.3808 8.7615L17.2831 8.7506C16.8634 8.73116 16.5 9.06677 16.5 9.5V11C17.0197 11 17.5225 11.0721 17.9991 11.2068L17.999 10.394L20.1192 10.77C20.5786 10.8514 21 10.498 21 10.0315V5C21 4.71592 20.8395 4.45622 20.5854 4.32918L17.5854 2.82918C17.4813 2.77711 17.3664 2.75 17.25 2.75H15C14.5858 2.75 14.25 3.08579 14.25 3.5C14.25 4.73579 13.2358 5.75 12 5.75C10.8157 5.75 9.8349 4.81854 9.75523 3.65326L9.75 3.5C9.75 3.08579 9.41421 2.75 9 2.75Z" fill="#2B2B2B"/>
<path d="M17.25 13.5C17.25 13.0858 16.9142 12.75 16.5 12.75C16.0858 12.75 15.75 13.0858 15.75 13.5V17.6893L15.0303 16.9697C14.7374 16.6768 14.2626 16.6768 13.9697 16.9697C13.6768 17.2626 13.6768 17.7374 13.9697 18.0303L15.9697 20.0303C16.0416 20.1022 16.1245 20.1565 16.2129 20.1931C16.3013 20.2298 16.3983 20.25 16.5 20.25C16.6017 20.25 16.6987 20.2298 16.7871 20.1931C16.8755 20.1565 16.9584 20.1022 17.0303 20.0303L19.0303 18.0303C19.3232 17.7374 19.3232 17.2626 19.0303 16.9697C18.7374 16.6768 18.2626 16.6768 17.9697 16.9697L17.25 17.6893V13.5Z" fill="#2B2B2B"/>
<path d="M20.25 21.5C20.25 21.9142 19.9142 22.25 19.5 22.25H13.5C13.0858 22.25 12.75 21.9142 12.75 21.5C12.75 21.0858 13.0858 20.75 13.5 20.75H19.5C19.9142 20.75 20.25 21.0858 20.25 21.5Z" fill="#2B2B2B"/>
</svg>
