<svg width="18" height="18" viewBox="0 0 18 18" fill="none" xmlns="http://www.w3.org/2000/svg">
<path d="M13.1257 7.83764C13.1257 7.64619 13.2232 7.46798 13.3843 7.3645C13.5453 7.2611 13.7478 7.24621 13.9219 7.32568L15.0242 7.83032C15.1243 7.87612 15.2422 7.82631 15.2791 7.72265L15.9338 5.88061C15.9658 5.79073 15.9251 5.69101 15.8394 5.64916L11.5913 3.57641C11.0347 4.61842 10.0281 5.16502 9.00073 5.16503C7.97327 5.16503 6.96604 4.6186 6.40942 3.57641L2.16211 5.64916C2.07635 5.69099 2.03568 5.7907 2.06763 5.88061L2.72241 7.72265L2.73926 7.75927C2.78783 7.83752 2.8891 7.87021 2.97656 7.83032L4.07886 7.32568C4.25299 7.246 4.45605 7.26102 4.61719 7.3645C4.77821 7.46799 4.87573 7.64622 4.87573 7.83764V14.4375C4.87573 14.5411 4.95967 14.625 5.06323 14.625H12.9382C13.0418 14.625 13.1257 14.541 13.1257 14.4375V7.83764ZM14.2507 14.4375C14.2507 15.1624 13.6631 15.75 12.9382 15.75H5.06323C4.33837 15.75 3.75073 15.1624 3.75073 14.4375V8.71289L3.44531 8.85351C2.74489 9.17403 1.91976 8.82492 1.66186 8.09912L1.00781 6.25707C0.784223 5.62774 1.06891 4.93123 1.66919 4.63842L6.44751 2.30712C6.59455 2.2354 6.76591 2.23091 6.91626 2.2954C7.06664 2.35995 7.18117 2.48726 7.23047 2.64331C7.53306 3.60082 8.27967 4.04003 9.00073 4.04003C9.72173 4.04002 10.4677 3.60067 10.7703 2.64331C10.8196 2.48726 10.9348 2.35996 11.0852 2.2954C11.2355 2.23097 11.4062 2.2355 11.5532 2.30712L16.3323 4.63842C16.9326 4.93121 17.2172 5.62772 16.9937 6.25707L16.3396 8.09912C16.0817 8.82493 15.2566 9.17401 14.5562 8.85351L14.2507 8.71362V14.4375Z" fill="currentColor"/>
</svg>
