<?xml version="1.0" encoding="UTF-8"?>
<svg width="24px" height="24px" viewBox="0 0 24 24" version="1.1" xmlns="http://www.w3.org/2000/svg" xmlns:xlink="http://www.w3.org/1999/xlink">
    <title>shirt</title>
    <g stroke="none" stroke-width="1" fill="none" fill-rule="evenodd">
        <g transform="translate(3.000000, 3.000000)">
            <rect x="0" y="0" width="18" height="18"></rect>
            <g stroke-linecap="square" transform="translate(0.750000, 1.500000)" fill="#414851" fill-rule="nonzero">
                <path d="M5.25,-0.75 L3,-0.75 C2.88356618,-0.75 2.76873138,-0.722891181 2.6645898,-0.670820393 L-0.335410197,0.829179607 C-0.589498218,0.956223617 -0.75,1.21592096 -0.75,1.5 L-0.75,6.53149414 L-0.74368921,6.62962007 C-0.689601275,7.04630745 -0.295750493,7.34557001 0.130836101,7.26999391 L2.249,6.894 L2.25,15 C2.25,15.4142136 2.58578644,15.75 3,15.75 L13.5,15.75 L13.6017706,15.7431534 C13.9678461,15.693491 14.25,15.3796958 14.25,15 L14.249,6.894 L16.3691639,7.26999391 C16.8285648,7.35138355 17.25,6.99804907 17.25,6.53149414 L17.25,1.5 C17.25,1.21592096 17.0894982,0.956223617 16.8354102,0.829179607 L13.8354102,-0.670820393 C13.7312686,-0.722891181 13.6164338,-0.75 13.5,-0.75 L11.25,-0.75 C10.8357864,-0.75 10.5,-0.414213562 10.5,0 C10.5,1.23578644 9.48578644,2.25 8.25,2.25 C7.06570466,2.25 6.08490247,1.31854345 6.00522502,0.153261941 L6,0 C6,-0.414213562 5.66421356,-0.75 5.25,-0.75 Z M3.175,0.75 L4.576,0.75 L4.58139301,0.777340144 C4.94134222,2.47118802 6.45213657,3.75 8.25,3.75 L8.44853736,3.74478128 C10.0924394,3.65816838 11.4627982,2.50260806 11.8739205,0.963793613 L11.923,0.75 L13.324,0.75 L15.749,1.963 L15.749,5.636 L13.6308361,5.26150023 L13.5331139,5.25059636 C13.1133803,5.2311646 12.75,5.56677042 12.75,6 L12.749,14.25 L3.749,14.25 L3.75,6 L3.74368921,5.90187408 C3.68960128,5.4851867 3.29575049,5.18592414 2.8691639,5.26150023 L0.749,5.636 L0.749,1.963 L3.175,0.75 Z"></path>
            </g>
        </g>
    </g>
</svg>
