<svg width="24" height="24" viewBox="0 0 24 24" fill="none" xmlns="http://www.w3.org/2000/svg">
<path d="M9 3.75H6.75C6.63357 3.75 6.51873 3.77711 6.41459 3.82918L3.41459 5.32918C3.1605 5.45622 3 5.71592 3 6V11.0315L3.00631 11.1296C3.0604 11.5463 3.45425 11.8456 3.88084 11.77L5.999 11.394L6 19.5C6 19.9142 6.33579 20.25 6.75 20.25H12.7657C12.9365 20.25 13.0317 20.047 12.9322 19.9081C12.705 19.5909 12.514 19.2459 12.3652 18.8793C12.3338 18.802 12.2595 18.75 12.176 18.75H7.499L7.5 10.5L7.49369 10.4019C7.4396 9.98519 7.04575 9.68592 6.61916 9.7615L4.499 10.136V6.463L6.925 5.25H8.326L8.33139 5.27734C8.69134 6.97119 10.2021 8.25 12 8.25L12.1985 8.24478C13.8424 8.15817 15.2128 7.00261 15.6239 5.46379L15.673 5.25H17.074L19.499 6.463V10.136L17.3808 9.7615L17.2831 9.7506C16.8634 9.73116 16.5 10.0668 16.5 10.5L16.4998 11.8038C16.4998 11.9221 16.6019 12.0142 16.72 12.0077C16.8127 12.0026 16.906 12 17 12C17.2578 12 17.511 12.0195 17.7582 12.0571C17.8832 12.0761 17.9991 11.9816 17.9991 11.8552L17.999 11.394L20.1192 11.77C20.5786 11.8514 21 11.498 21 11.0315V6C21 5.71592 20.8395 5.45622 20.5854 5.32918L17.5854 3.82918C17.4813 3.77711 17.3664 3.75 17.25 3.75H15C14.5858 3.75 14.25 4.08579 14.25 4.5C14.25 5.73579 13.2358 6.75 12 6.75C10.8157 6.75 9.8349 5.81854 9.75523 4.65326L9.75 4.5C9.75 4.08579 9.41421 3.75 9 3.75Z" fill="#2B2B2B"/>
<path d="M17 13C16.5382 13 16.0932 13.0786 15.6785 13.2237C15.2875 13.3605 15.0815 13.7883 15.2183 14.1793C15.3551 14.5703 15.783 14.7763 16.1739 14.6395C16.4316 14.5493 16.7092 14.5 17 14.5C17.2908 14.5 17.5684 14.5493 17.8261 14.6395C18.217 14.7763 18.6449 14.5703 18.7817 14.1793C18.9185 13.7883 18.7125 13.3605 18.3215 13.2237C17.9068 13.0786 17.4618 13 17 13Z" fill="#2B2B2B"/>
<path d="M20.7763 15.6785C20.6395 15.2875 20.2117 15.0815 19.8207 15.2183C19.4297 15.3551 19.2237 15.783 19.3605 16.1739C19.4507 16.4316 19.5 16.7092 19.5 17C19.5 17.2908 19.4507 17.5684 19.3605 17.8261C19.2237 18.217 19.4297 18.6449 19.8207 18.7817C20.2117 18.9185 20.6395 18.7125 20.7763 18.3215C20.9214 17.9068 21 17.4618 21 17C21 16.5382 20.9214 16.0932 20.7763 15.6785Z" fill="#2B2B2B"/>
<path d="M14.6395 16.1739C14.7763 15.783 14.5703 15.3551 14.1793 15.2183C13.7883 15.0815 13.3605 15.2875 13.2237 15.6785C13.0786 16.0932 13 16.5382 13 17C13 17.4618 13.0786 17.9068 13.2237 18.3215C13.3605 18.7125 13.7883 18.9185 14.1793 18.7817C14.5703 18.6449 14.7763 18.217 14.6395 17.8261C14.5493 17.5684 14.5 17.2908 14.5 17C14.5 16.7092 14.5493 16.4316 14.6395 16.1739Z" fill="#2B2B2B"/>
<path d="M16.1739 19.3605C15.783 19.2237 15.3551 19.4297 15.2183 19.8207C15.0815 20.2117 15.2875 20.6395 15.6785 20.7763C16.0932 20.9214 16.5382 21 17 21C17.4618 21 17.9068 20.9214 18.3215 20.7763C18.7125 20.6395 18.9185 20.2117 18.7817 19.8207C18.6449 19.4297 18.217 19.2237 17.8261 19.3605C17.5684 19.4507 17.2908 19.5 17 19.5C16.7092 19.5 16.4316 19.4507 16.1739 19.3605Z" fill="#2B2B2B"/>
</svg>
