<?xml version="1.0" encoding="UTF-8"?>
<svg width="24px" height="24px" viewBox="0 0 24 24" version="1.1" xmlns="http://www.w3.org/2000/svg" xmlns:xlink="http://www.w3.org/1999/xlink">
    <title>shirt-success</title>
    <g stroke="none" stroke-width="1" fill="none" fill-rule="evenodd">
        <g>
            <rect fill="#FFFFFF" fill-rule="nonzero" opacity="0" x="0" y="0" width="24" height="24"></rect>
            <g transform="translate(3.000000, 3.750000)" fill="#242528">
                <path d="M6,0 C6.41421356,0 6.75,0.335786438 6.75,0.75 L6.75,0.75 L6.75522502,0.903261941 C6.83490247,2.06854345 7.81570466,3 9,3 C10.2357864,3 11.25,1.98578644 11.25,0.75 C11.25,0.335786438 11.5857864,0 12,0 L12,0 L14.25,0 C14.3664338,0 14.4812686,0.0271088188 14.5854102,0.0791796068 L14.5854102,0.0791796068 L17.5854102,1.57917961 C17.8394982,1.70622362 18,1.96592096 18,2.25 L18,2.25 L18,7.28149414 C18,7.39892633 17.9733007,7.50918565 17.926017,7.60714536 L17.6933819,7.36067356 C17.1798197,6.81310881 16.310528,6.81310881 15.7969658,7.36067358 L15.454,7.725 L14.999,7.644 L14.999,8.21 L13.499,9.809 L13.5,6.75 C13.5,6.35009577 13.8096258,6.03337392 14.1873924,6.00229739 L14.2831139,6.00059636 L14.3808361,6.01150023 L16.499,6.386 L16.499,2.713 L14.074,1.5 L12.673,1.5 L12.6239205,1.71379361 C12.2127982,3.25260806 10.8424394,4.40816838 9.19853736,4.49478128 L9.19853736,4.49478128 L9,4.5 C7.20213657,4.5 5.69134222,3.22118802 5.33139301,1.52734014 L5.33139301,1.52734014 L5.326,1.5 L3.925,1.5 L1.499,2.713 L1.499,6.386 L3.6191639,6.01150023 C4.04575049,5.93592414 4.43960128,6.2351867 4.49368921,6.65187408 L4.49368921,6.65187408 L4.5,6.75 L4.499,15 L8.797,15 L10.204,16.5 L3.75,16.5 C3.37030423,16.5 3.05650904,16.2178461 3.00684662,15.8517706 L3,15.75 L2.999,7.644 L0.880836101,8.01999391 C0.454249507,8.09557001 0.060398725,7.79630745 0.00631078976,7.37962007 L0.00631078976,7.37962007 L0,7.28149414 L0,2.25 C0,1.96592096 0.160501782,1.70622362 0.414589803,1.57917961 L0.414589803,1.57917961 L3.4145898,0.0791796068 C3.51873138,0.0271088188 3.63356618,0 3.75,0 L3.75,0 Z M16.7451738,8.25 L18,9.5879072 L11.7516085,16.25 L8,12.25 L9.25482615,10.9120928 L11.7516085,13.5741856 L16.7451738,8.25 Z"></path>
            </g>
        </g>
    </g>
</svg>
