<?xml version="1.0" encoding="UTF-8"?>
<svg width="24" height="24" viewBox="0 0 24 24" fill="none" xmlns="http://www.w3.org/2000/svg">
<path fill-rule="evenodd" clip-rule="evenodd" d="M19.3053 3C20.1757 3 20.9139 3.63962 21.0377 4.50098L21.5045 7.75098C21.7101 9.18219 21.0747 10.5162 19.9997 11.2949V19.25C19.9997 20.2165 19.2162 21 18.2497 21H13.9997C13.5856 20.9999 13.2497 20.6641 13.2497 20.25V16.25C13.2497 16.1119 13.1377 16 12.9997 16H10.9997C10.8617 16.0001 10.7497 16.112 10.7497 16.25V20.25C10.7497 20.6642 10.4139 21 9.99966 21H5.74966C4.78329 20.9999 3.99966 20.2164 3.99966 19.25V11.2979C2.91661 10.5219 2.26707 9.19072 2.45865 7.75391L2.89029 4.51855C3.00627 3.64933 3.74774 3.00014 4.62466 3H19.3053ZM9.14908 10.5518C8.4582 11.4357 7.3822 11.9999 6.18521 12C5.95065 12 5.7217 11.9774 5.49966 11.9365V19.25C5.49966 19.388 5.6117 19.4999 5.74966 19.5H9.24966V16.25C9.24966 15.2836 10.0333 14.5001 10.9997 14.5H12.9997C13.9662 14.5 14.7497 15.2835 14.7497 16.25V19.5H18.2497C18.3877 19.5 18.4997 19.3881 18.4997 19.25V11.9365C18.2803 11.9767 18.054 12 17.8219 12C16.6328 11.9999 15.5698 11.4396 14.8874 10.5645C14.2363 11.4334 13.1991 11.9999 12.0231 12C10.8402 11.9999 9.79928 11.4273 9.14908 10.5518ZM4.62466 4.5C4.49952 4.50014 4.39321 4.59275 4.37661 4.7168L3.94595 7.95215C3.76654 9.29777 4.82136 10.4999 6.18521 10.5C7.37207 10.4999 8.35852 9.57891 8.43716 8.39941L8.69693 4.5H4.62466ZM9.94888 8.2832C9.86898 9.48284 10.8208 10.4999 12.0231 10.5C13.2125 10.4998 14.1588 9.50334 14.0983 8.31543L13.904 4.5H10.2008L9.94888 8.2832ZM15.6042 8.39258C15.6643 9.57323 16.6397 10.4999 17.8219 10.5C19.1737 10.5 20.2114 9.30186 20.0192 7.96387L19.5524 4.71484C19.5347 4.59171 19.4296 4.5 19.3053 4.5H15.4059L15.6042 8.39258Z" fill="#2B2B2B"/>
</svg>
