<?xml version="1.0" encoding="UTF-8"?>
<svg width="24px" height="24px" viewBox="0 0 24 24" version="1.1" xmlns="http://www.w3.org/2000/svg" xmlns:xlink="http://www.w3.org/1999/xlink">
    <title>shrink</title>
    <g stroke="none" stroke-width="1" fill="none" fill-rule="evenodd">
        <g transform="translate(2.000000, 2.000000)">
            <rect x="0" y="0" width="20" height="20"></rect>
            <g stroke-linecap="square" transform="translate(1.500000, 1.500000)" fill="#414851" fill-rule="nonzero">
                <path d="M16.7,0.3 L0.3,0.3 L0.3,16.7 L16.7,16.7 L16.7,0.3 Z M15.3,1.7 L15.3,15.3 L1.7,15.3 L1.7,1.7 L15.3,1.7 Z"></path>
                <polygon transform="translate(5.496667, 11.496667) rotate(-180.000000) translate(-5.496667, -11.496667) " points="4.53 9.13 4.529 12.463 7.86333333 12.4633333 7.86333333 13.8633333 3.13 13.8633333 3.13 9.13"></polygon>
                <polygon transform="translate(11.496667, 5.496667) rotate(-180.000000) translate(-11.496667, -5.496667) " points="13.8633333 3.13 13.8633333 7.86333333 12.4633333 7.86333333 12.463 4.529 9.13 4.53 9.13 3.13"></polygon>
            </g>
        </g>
    </g>
</svg>
