<?xml version="1.0" encoding="UTF-8"?>
<svg width="24" height="24" viewBox="0 0 24 24" fill="none" xmlns="http://www.w3.org/2000/svg">
    <title>smiley-average</title>
    <path d="M9.00146 15.0007C8.58725 15.0007 8.25146 15.3365 8.25146 15.7507C8.25146 16.1649 8.58725 16.5007 9.00146 16.5007H15.0015C15.4157 16.5007 15.7515 16.1649 15.7515 15.7507C15.7515 15.3365 15.4157 15.0007 15.0015 15.0007H9.00146Z" fill="#2B2B2B"/>
    <path d="M8.62533 12.2093C9.36171 12.2093 9.95866 11.6124 9.95866 10.876C9.95866 10.1396 9.36171 9.54267 8.62533 9.54267C7.88895 9.54267 7.29199 10.1396 7.29199 10.876C7.29199 11.6124 7.88895 12.2093 8.62533 12.2093Z" fill="#2B2B2B"/>
    <path d="M16.7091 10.876C16.7091 11.6124 16.1122 12.2093 15.3758 12.2093C14.6394 12.2093 14.0425 11.6124 14.0425 10.876C14.0425 10.1396 14.6394 9.54267 15.3758 9.54267C16.1122 9.54267 16.7091 10.1396 16.7091 10.876Z" fill="#2B2B2B"/>
    <path fill-rule="evenodd" clip-rule="evenodd" d="M12.0012 3.00067C7.03022 3.00067 3.00049 7.03041 3.00049 12.0013C3.00049 16.9723 7.03022 21.002 12.0012 21.002C16.9721 21.002 21.0018 16.9723 21.0018 12.0013C21.0018 7.03041 16.9721 3.00067 12.0012 3.00067ZM4.50049 12.0013C4.50049 7.85883 7.85865 4.50067 12.0012 4.50067C16.1437 4.50067 19.5018 7.85883 19.5018 12.0013C19.5018 16.1438 16.1437 19.502 12.0012 19.502C7.85865 19.502 4.50049 16.1438 4.50049 12.0013Z" fill="#2B2B2B"/>
</svg>
