<?xml version="1.0" encoding="UTF-8"?>
<svg width="24px" height="24px" viewBox="0 0 24 24" version="1.1" xmlns="http://www.w3.org/2000/svg" xmlns:xlink="http://www.w3.org/1999/xlink">
    <title>social-twitter</title>
    <g stroke="none" stroke-width="1" fill="none" fill-rule="evenodd">
        <g fill="#414851">
            <path d="M22,5.83266667 C21.25,6.166 20.5,6.416 19.6666667,6.49933333 C20.5,5.99933333 21.1666667,5.166 21.5,4.24933333 C20.6666667,4.74933333 19.8333333,5.08266667 18.9166667,5.24933333 C18.1666667,4.416 17.0833333,3.916 15.9166667,3.916 C13.6666667,3.916 11.8333333,5.74933333 11.8333333,7.99933333 C11.8333333,8.33266667 11.8333333,8.666 11.9166667,8.916 C8.41666667,8.74933333 5.41666667,7.08266667 3.41666667,4.58266667 C3,5.24933333 2.83333333,5.916 2.83333333,6.666 C2.83333333,8.08266667 3.58333333,9.33266667 4.66666667,10.0826667 C4,10.0826667 3.33333333,9.916 2.83333333,9.58266667 C2.83333333,9.58266667 2.83333333,9.58266667 2.83333333,9.666 C2.83333333,11.666 4.25,13.3326667 6.08333333,13.666 C5.75,13.7493333 5.41666667,13.8326667 5,13.8326667 C4.75,13.8326667 4.5,13.8326667 4.25,13.7493333 C4.75,15.416 6.25,16.5826667 8.08333333,16.5826667 C6.66666667,17.666 4.91666667,18.3326667 3,18.3326667 C2.66666667,18.3326667 2.33333333,18.3326667 2,18.2493333 C3.83333333,19.416 6,20.0826667 8.25,20.0826667 C15.8333333,20.0826667 19.9166667,13.8326667 19.9166667,8.416 C19.9166667,8.24933333 19.9166667,8.08266667 19.9166667,7.916 C20.75,7.33266667 21.4166667,6.58266667 22,5.83266667 Z"></path>
        </g>
    </g>
</svg>
