<?xml version="1.0" encoding="UTF-8"?>
<svg width="24" height="24" viewBox="0 0 24 24" fill="none" xmlns="http://www.w3.org/2000/svg">
    <title>sort-bottom-to-top</title>
    <path d="M7.7391 3.22348C8.03991 2.92551 8.52762 2.92551 8.82843 3.22348L11.5819 5.95095C11.5933 5.96213 11.6044 5.97366 11.6151 5.98553C11.6699 6.0462 11.7132 6.11346 11.745 6.18455C11.7873 6.27905 11.8108 6.38365 11.8108 6.4937C11.8108 6.60127 11.7883 6.70365 11.7478 6.79646C11.7134 6.87541 11.6648 6.94978 11.6022 7.0158C11.596 7.02233 11.5897 7.02876 11.5833 7.03508L8.82843 9.76393C8.52762 10.0619 8.03991 10.0619 7.7391 9.76393C7.43829 9.46596 7.43829 8.98286 7.7391 8.6849L9.18089 7.25673C6.0638 7.26837 3.54054 9.77498 3.54054 12.8654C3.54054 15.9629 6.07558 18.474 9.2027 18.474H10.1216C10.547 18.474 10.8919 18.8156 10.8919 19.237C10.8919 19.6584 10.547 20 10.1216 20H9.2027C5.22476 20 2 16.8057 2 12.8654C2 8.93218 5.21301 5.74235 9.18095 5.73074L7.7391 4.30251C7.43829 4.00454 7.43829 3.52144 7.7391 3.22348Z" fill="#212121"/>
    <path d="M13.946 6.4937C13.946 6.07231 14.2908 5.7307 14.7162 5.7307H20.2297C20.6551 5.7307 21 6.07231 21 6.4937C21 6.91508 20.6551 7.25669 20.2297 7.25669H14.7162C14.2908 7.25669 13.946 6.91508 13.946 6.4937Z" fill="#212121"/>
    <path d="M14.7162 12.1024C14.2908 12.1024 13.946 12.444 13.946 12.8654C13.946 13.2868 14.2908 13.6284 14.7162 13.6284H20.2297C20.6551 13.6284 21 13.2868 21 12.8654C21 12.444 20.6551 12.1024 20.2297 12.1024H14.7162Z" fill="#212121"/>
    <path d="M14.7162 18.474C14.2908 18.474 13.946 18.8156 13.946 19.237C13.946 19.6584 14.2908 20 14.7162 20H20.2297C20.6551 20 21 19.6584 21 19.237C21 18.8156 20.6551 18.474 20.2297 18.474H14.7162Z" fill="#212121"/>
</svg>
