<?xml version="1.0" encoding="UTF-8"?>
<svg width="24" height="24" viewBox="0 0 24 24" fill="none" xmlns="http://www.w3.org/2000/svg">
<path d="M17.9982 19.25C17.9982 19.6642 17.6624 20 17.2482 20C16.8341 19.9998 16.4982 19.6641 16.4982 19.25V6.5625L14.7804 8.28027C14.4876 8.5731 14.0128 8.57304 13.7199 8.28027C13.427 7.98745 13.4271 7.51265 13.7199 7.21973L16.7179 4.21973C16.8585 4.07907 17.0493 4.00009 17.2482 4C17.4471 3.99995 17.6378 4.07913 17.7784 4.21973L20.7804 7.21973C21.0732 7.51255 21.0732 7.98735 20.7804 8.28027C20.4876 8.5731 20.0128 8.57304 19.7199 8.28027L17.9982 6.56055V19.25ZM3.00013 7.5C2.58591 7.5 2.25013 7.16421 2.25013 6.75C2.25013 6.33579 2.58591 6 3.00013 6H7.50013C7.91434 6 8.25013 6.33579 8.25013 6.75C8.25013 7.16421 7.91434 7.5 7.50013 7.5H3.00013ZM3.00013 12.75C2.58591 12.75 2.25013 12.4142 2.25013 12C2.25013 11.5858 2.58591 11.25 3.00013 11.25H9.50013C9.91434 11.25 10.2501 11.5858 10.2501 12C10.2501 12.4142 9.91434 12.75 9.50013 12.75H3.00013ZM3.00013 18C2.58591 18 2.25013 17.6642 2.25013 17.25C2.25013 16.8358 2.58591 16.5 3.00013 16.5H11.5001C11.9143 16.5 12.2501 16.8358 12.2501 17.25C12.2501 17.6642 11.9143 18 11.5001 18H3.00013Z" fill="#2B2B2B"/>
</svg>
