<?xml version="1.0" encoding="UTF-8"?>
<svg width="24" height="24" viewBox="0 0 24 24" fill="none" xmlns="http://www.w3.org/2000/svg">
<path d="M17.9982 4.75C17.9982 4.33579 17.6624 4 17.2482 4C16.8341 4.00019 16.4982 4.3359 16.4982 4.75V17.4375L14.7804 15.7197C14.4876 15.4269 14.0128 15.427 13.7199 15.7197C13.427 16.0126 13.4271 16.4873 13.7199 16.7803L16.7179 19.7803C16.8585 19.9209 17.0493 19.9999 17.2482 20C17.4471 20.0001 17.6378 19.9209 17.7784 19.7803L20.7804 16.7803C21.0732 16.4874 21.0732 16.0127 20.7804 15.7197C20.4876 15.4269 20.0128 15.427 19.7199 15.7197L17.9982 17.4395V4.75ZM3.00013 16.5C2.58591 16.5 2.25013 16.8358 2.25013 17.25C2.25013 17.6642 2.58591 18 3.00013 18H7.50013C7.91434 18 8.25013 17.6642 8.25013 17.25C8.25013 16.8358 7.91434 16.5 7.50013 16.5H3.00013ZM3.00013 11.25C2.58591 11.25 2.25013 11.5858 2.25013 12C2.25013 12.4142 2.58591 12.75 3.00013 12.75H9.50013C9.91434 12.75 10.2501 12.4142 10.2501 12C10.2501 11.5858 9.91434 11.25 9.50013 11.25H3.00013ZM3.00013 6C2.58591 6 2.25013 6.33579 2.25013 6.75C2.25013 7.16421 2.58591 7.5 3.00013 7.5H11.5001C11.9143 7.5 12.2501 7.16421 12.2501 6.75C12.2501 6.33579 11.9143 6 11.5001 6H3.00013Z" fill="#2B2B2B"/>
</svg>
