<?xml version="1.0" encoding="UTF-8"?>
<svg width="24" height="24" viewBox="0 0 24 24" fill="none" xmlns="http://www.w3.org/2000/svg">
    <title>sort-top-to-bottom</title>
    <path d="M2 11.1346C2 7.19429 5.22476 4 9.20269 4H10.1216C10.547 4 10.8919 4.3416 10.8919 4.76299C10.8919 5.18438 10.547 5.52599 10.1216 5.52599H9.20269C6.07557 5.52599 3.54054 8.03707 3.54054 11.1346C3.54054 14.225 6.06379 16.7316 9.18087 16.7433L7.73911 15.3151C7.4383 15.0171 7.4383 14.534 7.73911 14.2361C8.03992 13.9381 8.52762 13.9381 8.82843 14.2361L11.582 16.9637C11.5927 16.9741 11.6031 16.9849 11.6131 16.996C11.6705 17.059 11.7154 17.1292 11.7478 17.2035C11.7883 17.2963 11.8108 17.3987 11.8108 17.5063C11.8108 17.6089 11.7903 17.7068 11.7532 17.7962C11.7156 17.887 11.6596 17.9721 11.5852 18.0458L8.82843 20.7765C8.52762 21.0745 8.03992 21.0745 7.73911 20.7765C7.4383 20.4786 7.4383 19.9955 7.73911 19.6975L9.18097 18.2692C5.21303 18.2576 2 15.0678 2 11.1346Z" fill="#212121"/>
    <path d="M14.7162 4C14.2908 4 13.946 4.3416 13.946 4.76299C13.946 5.18438 14.2908 5.52599 14.7162 5.52599H20.2297C20.6551 5.52599 21 5.18438 21 4.76299C21 4.3416 20.6551 4 20.2297 4H14.7162Z" fill="#212121"/>
    <path d="M14.7162 10.3717C14.2908 10.3717 13.946 10.7133 13.946 11.1347C13.946 11.5561 14.2908 11.8977 14.7162 11.8977H20.2297C20.6551 11.8977 21 11.5561 21 11.1347C21 10.7133 20.6551 10.3717 20.2297 10.3717H14.7162Z" fill="#212121"/>
    <path d="M13.946 17.5063C13.946 17.0849 14.2908 16.7433 14.7162 16.7433H20.2297C20.6551 16.7433 21 17.0849 21 17.5063C21 17.9277 20.6551 18.2693 20.2297 18.2693H14.7162C14.2908 18.2693 13.946 17.9277 13.946 17.5063Z" fill="#212121"/>
</svg>
