<svg width="24" height="24" viewBox="0 0 24 24" fill="none" xmlns="http://www.w3.org/2000/svg">
<path d="M17.7738 7.98697C17.668 8.2238 17.3318 8.2238 17.226 7.98697L16.4499 6.24999L14.7057 5.47068C14.4701 5.36538 14.4686 5.03135 14.7033 4.92397L16.4499 4.12499L17.2265 2.40541C17.3328 2.17004 17.667 2.17004 17.7733 2.40541L18.5499 4.12499L20.2965 4.92397C20.5313 5.03135 20.5298 5.36538 20.2941 5.47068L18.5499 6.24999L17.7738 7.98697ZM17.7733 21.5946C17.667 21.83 17.3328 21.83 17.2265 21.5946L16.4499 19.875L14.7033 19.076C14.4686 18.9686 14.4701 18.6346 14.7057 18.5293L16.4499 17.75L17.226 16.013C17.3318 15.7762 17.668 15.7762 17.7738 16.013L18.5499 17.75L20.2941 18.5293C20.5298 18.6346 20.5313 18.9686 20.2965 19.076L18.5499 19.875L17.7733 21.5946ZM9.14965 18.1956C9.04281 18.4306 8.70868 18.4299 8.60288 18.1944L6.77492 14.125L2.70076 12.2731C2.46628 12.1665 2.46628 11.8335 2.70076 11.7269L6.77492 9.87499L8.60288 5.80561C8.70868 5.57009 9.04281 5.56934 9.14965 5.8044L10.9999 9.87499L15.0741 11.7269C15.3086 11.8335 15.3086 12.1665 15.0741 12.2731L10.9999 14.125L9.14965 18.1956Z" fill="#2B2B2B"/>
</svg>
