<?xml version="1.0" encoding="UTF-8"?>
<svg width="24px" height="24px" viewBox="0 0 24 24" version="1.1" xmlns="http://www.w3.org/2000/svg" xmlns:xlink="http://www.w3.org/1999/xlink">
    <title>spelling-mistake</title>
    <g stroke="none" stroke-width="1" fill="none" fill-rule="evenodd">
        <g>
            <g transform="translate(5.000000, 3.000000)">
                <rect x="0" y="0" width="14" height="14"></rect>
                <g stroke-linecap="square" transform="translate(0.166667, 0.166667)" fill="#414851" fill-rule="nonzero">
                    <path d="M9.33333333,6.41666667 L9.33333333,2 L6.54166667,2 C5.32186977,2 4.33333333,2.98853644 4.33333333,4.20833333 L4.34085263,4.3844008 C4.45119828,5.54863735 5.40089931,6.41666667 6.54166667,6.41666667 L9.33333333,6.41666667 Z M7.833,3.5 L7.833,4.916 L6.54166667,4.91666667 C6.17584553,4.91666667 5.87105204,4.6380846 5.83660945,4.27749361 L5.83248824,4.17273938 L5.83914543,4.08476498 C5.8866773,3.76633744 6.18291104,3.5 6.54166667,3.5 L7.833,3.5 Z"></path>
                    <path d="M7.41666667,0.25 C8.42504466,0.25 9.25117583,1.02811317 9.32756842,2.01684775 L9.33333333,2.16666667 L9.33333333,6.41666667 L7.83333333,6.41666667 L7.83333333,2.16666667 C7.83333333,1.96189354 7.68613579,1.79194342 7.49162917,1.75670479 L7.41666667,1.75 L5.5,1.75 L5.5,0.25 L7.41666667,0.25 Z"></path>
                    <polygon points="2.33333333 5.5 2.33333333 13.4166667 0.833333333 13.4166667 0.833333333 5.5"></polygon>
                    <path d="M0.833333333,8.41666667 L0.833333333,13.4166667 L3.33333333,13.4166667 C4.71413023,13.4166667 5.83333333,12.2974636 5.83333333,10.9166667 L5.82692108,10.7428442 C5.72011701,9.41926249 4.6379327,8.41666667 3.33333333,8.41666667 L0.833333333,8.41666667 Z M2.333,11.916 L2.333,9.916 L3.33333333,9.91666667 C3.85502897,9.91666667 4.28812009,10.3179064 4.3299908,10.8337996 L4.33394499,10.9469505 C4.33333333,11.4690364 3.8857031,11.9166667 3.33333333,11.9166667 L2.333,11.916 Z"></path>
                    <path d="M11.5,7.83333333 C12.1381898,7.83333333 12.7221677,8.14846197 13.0757387,8.65850448 L13.1592293,8.79000625 L13.5353064,9.43890226 L12.2375144,10.1910564 L11.8614373,9.54216042 C11.8017982,9.43925713 11.7027506,9.36734977 11.5883261,9.34270296 L11.5,9.33333333 L10.3333333,9.33333333 C10.1285602,9.33333333 9.95861009,9.48053088 9.92337146,9.6750375 L9.91666667,9.75 L9.91666667,11.5 C9.91666667,11.7047731 10.0638642,11.8747232 10.2583708,11.9099619 L10.3333333,11.9166667 L11.5,11.9166667 C11.620669,11.9166667 11.7318669,11.8653577 11.8093153,11.7793212 L11.8606941,11.7085415 L12.235486,11.0589023 L13.5347644,11.808486 L13.1599725,12.4581252 C12.846829,13.0009073 12.287015,13.3583755 11.6584662,13.4101589 L11.5,13.4166667 L10.3333333,13.4166667 C9.32495534,13.4166667 8.49882417,12.6385535 8.42243158,11.6498189 L8.41666667,11.5 L8.41666667,9.75 C8.41666667,8.741622 9.19477984,7.91549083 10.1835144,7.83909825 L10.3333333,7.83333333 L11.5,7.83333333 Z"></path>
                </g>
            </g>
            <path d="M4.75275524,18.9291918 C5.45716705,18.4592862 6.36066113,18.427143 7.09239618,18.8331157 L7.24643244,18.9268158 L8.59432422,19.8222732 C8.81488264,19.9687988 9.0935852,19.9867803 9.3283805,19.8763535 L9.42602133,19.8211664 L10.7565195,18.9321516 C11.4627054,18.4602909 12.3692772,18.4288052 13.1022083,18.8377068 L13.2564708,18.9320692 L14.5863798,19.8205636 C14.8067651,19.9678001 15.085717,19.986391 15.3209109,19.8762605 L15.4187309,19.8211806 L16.7577894,18.9294417 C17.4638852,18.459221 18.3693123,18.4286206 19.1012711,18.8373159 L19.2553284,18.9316173 L21.4167999,20.3764795 C21.7611608,20.6066718 21.8537127,21.0724391 21.6235205,21.4167999 C21.4142548,21.7298553 21.010299,21.8348041 20.6798585,21.6783516 L20.5832001,21.6235205 L18.4217285,20.1786582 C18.2013299,20.0313301 17.9223092,20.012695 17.6870588,20.1228422 L17.5892155,20.1779331 L16.250157,21.0696719 C15.5442263,21.5397826 14.6390395,21.5704873 13.9071492,21.162062 L13.7531038,21.067821 L12.4231948,20.1793266 C12.202502,20.0318847 11.9231109,20.0134628 11.687751,20.1240574 L11.5898777,20.1793541 L10.2593795,21.068369 C9.55484294,21.5391276 8.65067403,21.5716521 7.91843059,21.1654482 L7.76428821,21.0716891 L6.41639643,20.1762317 C6.1959883,20.029806 5.9174998,20.0117419 5.68278552,20.1219423 L5.58517069,20.1770238 L3.41620773,21.623916 C3.07162846,21.8537811 2.60594922,21.760787 2.37608404,21.4162077 C2.16711569,21.1029538 2.22497323,20.6896173 2.49610731,20.444353 L2.58379227,20.376084 L4.75275524,18.9291918 Z" fill="#414851" fill-rule="nonzero"></path>
        </g>
    </g>
</svg>
