<?xml version="1.0" encoding="UTF-8"?>
<svg width="24px" height="24px" viewBox="0 0 24 24" version="1.1" xmlns="http://www.w3.org/2000/svg" xmlns:xlink="http://www.w3.org/1999/xlink">
    <title>star</title>
    <g stroke="none" stroke-width="1" fill="none" fill-rule="evenodd">
        <g transform="translate(2.000000, 2.000000)">
            <rect x="0" y="0" width="20" height="20"></rect>
            <g stroke-linecap="round" stroke-linejoin="round">
                <polygon points="0 0 20 0 20 20 0 20"></polygon>
                <path d="M6.929,6.192 L1.57055082,6.97028512 L1.46588686,6.99276995 C0.928834547,7.1474518 0.735850831,7.84116398 1.15482303,8.24956327 L5.032,12.03 L4.1174638,17.3690299 L4.10673035,17.469694 C4.08353041,18.0313044 4.68602749,18.4328913 5.20568832,18.1596736 L10,15.639 L14.7943117,18.1596736 L14.8867322,18.2009884 C15.4136868,18.3965985 15.9817992,17.9476853 15.8825362,17.3690299 L14.967,12.03 L18.845177,8.24956327 L18.9166283,8.16984615 C19.2601524,7.72900284 19.0084636,7.05436809 18.4294492,6.97028512 L13.07,6.192 L10.6725538,1.33474584 C10.3974448,0.777306942 9.60255521,0.777306942 9.32744624,1.33474584 L6.929,6.192 Z M10,3.361 L11.8991129,7.20942082 L11.9519781,7.29999251 C12.0693891,7.47223281 12.2544751,7.58930505 12.4638842,7.61971488 L16.71,8.236 L13.637323,11.2312701 L13.5675259,11.3095304 C13.4400066,11.4744076 13.3858568,11.6865934 13.4216305,11.8951368 L14.147,16.124 L10.3490217,14.1278264 L10.2530218,14.0856257 C10.0568054,14.0152912 9.83826532,14.0293581 9.65097835,14.1278264 L5.852,16.124 L6.57836954,11.8951368 L6.5888394,11.7907974 C6.59509842,11.5824552 6.5141929,11.3789624 6.36267697,11.2312701 L3.289,8.236 L7.53611584,7.61971488 C7.7804264,7.58423674 7.99163065,7.43080144 8.1008871,7.20942082 L10,3.361 Z" fill="#414851" fill-rule="nonzero"></path>
            </g>
        </g>
    </g>
</svg>
