<?xml version="1.0" encoding="UTF-8"?>
<svg width="24px" height="24px" viewBox="0 0 24 24" version="1.1" xmlns="http://www.w3.org/2000/svg" xmlns:xlink="http://www.w3.org/1999/xlink">
    <title>star-fill</title>
    <g stroke="none" stroke-width="1" fill="none" fill-rule="evenodd" stroke-linecap="round" stroke-linejoin="round">
        <g fill="#414851" fill-rule="nonzero">
            <g transform="translate(2.000000, 2.000000)">
                <path d="M6.929,6.192 L1.57055082,6.97028512 L1.46588686,6.99276995 C0.928834547,7.1474518 0.735850831,7.84116398 1.15482303,8.24956327 L5.032,12.03 L4.1174638,17.3690299 L4.10673035,17.469694 C4.08353041,18.0313044 4.68602749,18.4328913 5.20568832,18.1596736 L10,15.639 L14.7943117,18.1596736 L14.8867322,18.2009884 C15.4136868,18.3965985 15.9817992,17.9476853 15.8825362,17.3690299 L14.967,12.03 L18.845177,8.24956327 L18.9166283,8.16984615 C19.2601524,7.72900284 19.0084636,7.05436809 18.4294492,6.97028512 L13.07,6.192 L10.6725538,1.33474584 C10.3974448,0.777306942 9.60255521,0.777306942 9.32744624,1.33474584 L6.929,6.192 Z"></path>
            </g>
        </g>
    </g>
</svg>
