<?xml version="1.0" encoding="UTF-8"?>
<svg width="24px" height="24px" viewBox="0 0 24 24" version="1.1" xmlns="http://www.w3.org/2000/svg" xmlns:xlink="http://www.w3.org/1999/xlink">
    <title>store</title>
    <g stroke="none" stroke-width="1" fill="none" fill-rule="evenodd">
        <g fill="#414851" fill-rule="nonzero">
            <path d="M5.33333333,21.0833333 C4.95363757,21.0833333 4.63984237,20.8011795 4.59017995,20.4351039 L4.58333333,20.3333333 L4.58332069,10.9946667 C3.17341281,10.6608034 2.16675196,9.44415412 2.08825239,8.0187132 L2.08332069,7.83165747 C2.08363135,7.69629375 2.12056308,7.56353524 2.19020731,7.44746152 L2.19020731,7.44746152 L4.69020731,3.28079485 C4.82574975,3.05489079 5.06987987,2.91666667 5.33332701,2.91666667 L5.33332701,2.91666667 L18.6666667,2.91666667 C18.9301135,2.91666667 19.1742434,3.05489048 19.3097859,3.28079413 L19.3097859,3.28079413 L21.8097923,7.4474608 C21.8794368,7.56353469 21.9163687,7.69629346 21.9166793,7.83165747 C21.9200341,9.33668913 20.8875972,10.6463018 19.4233577,10.9943397 C19.4210307,10.9948928 19.4187036,10.9954432 19.4163764,10.995991 L19.4166667,20.3333333 C19.4166667,20.7130291 19.1345128,21.0268243 18.7684372,21.0764867 L18.6666667,21.0833333 L5.33333333,21.0833333 Z M16.4453333,10.1946667 L16.3958639,10.2429786 C15.8598369,10.7302968 15.1673346,11.0305067 14.4255343,11.0771575 L14.4255343,11.0771575 L14.2220833,11.083544 C13.4040347,11.083544 12.6330595,10.7745985 12.0483028,10.2429786 L12.0483028,10.2429786 L11.9993333,10.1956667 L11.9516972,10.2429786 C11.4156702,10.7302968 10.723168,11.0305067 9.9813676,11.0771575 L9.9813676,11.0771575 L9.77791667,11.083544 C8.95986803,11.083544 8.18889284,10.7745985 7.60413613,10.2429786 L7.60413613,10.2429786 L7.55433333,10.1946667 L7.44475462,10.295471 C7.05277628,10.6332034 6.58551832,10.8720454 6.08440697,10.9926725 L6.08333333,19.5826667 L9.58332069,19.5816667 L9.58333333,15.3333333 C9.58333333,14.9536376 9.86548721,14.6398424 10.2315628,14.5901799 L10.3333333,14.5833333 L13.6666667,14.5833333 C14.0463624,14.5833333 14.3601576,14.8654872 14.4098201,15.2315628 L14.4166667,15.3333333 L14.4163207,19.5816667 L17.9163333,19.5826667 L17.9162682,10.9928349 C17.4149014,10.8722599 16.9473998,10.633355 16.5552454,10.295471 L16.5552454,10.295471 L16.4453333,10.1946667 Z M12.9163333,16.0826667 L11.0833333,16.0826667 L11.0833207,19.5816667 L12.9163207,19.5816667 L12.9163333,16.0826667 Z M18.2423333,4.41666667 L5.75733333,4.41666667 L3.59433333,8.02266667 L3.60811118,8.13264761 C3.71561221,8.76337712 4.16386958,9.29077968 4.77874361,9.49396482 L4.77874361,9.49396482 L4.92351605,9.53499782 C5.71056473,9.72207291 6.52290384,9.34313088 6.88529335,8.6198629 C7.1624609,8.0666835 7.95248439,8.06814125 8.22760861,8.62233974 C8.51991433,9.21114792 9.12054485,9.58354397 9.77791667,9.58354397 C10.4352885,9.58354397 11.035919,9.21114792 11.3282247,8.62233974 C11.6039166,8.06699786 12.3960834,8.06699786 12.6717753,8.62233974 C12.964081,9.21114792 13.5647115,9.58354397 14.2220833,9.58354397 C14.8794551,9.58354397 15.4800857,9.21114792 15.7723914,8.62233974 C16.0475156,8.06814125 16.8375391,8.0666835 17.1147066,8.6198629 C17.4770962,9.34313088 18.2894353,9.72207291 19.076484,9.53499782 C19.7651514,9.37130713 20.2761185,8.81189477 20.3918888,8.13264761 L20.3918888,8.13264761 L20.4053333,8.02266667 L18.2423333,4.41666667 Z"></path>
        </g>
    </g>
</svg>
