<?xml version="1.0" encoding="UTF-8"?>
<svg width="24" height="24" viewBox="0 0 24 24" fill="none" xmlns="http://www.w3.org/2000/svg">
    <title>store-location</title>
    <path d="M17.7365 13.7958C17.7365 14.2006 17.4015 14.5287 16.9884 14.5287C16.5753 14.5287 16.2404 14.2006 16.2404 13.7958C16.2404 13.391 16.5753 13.0629 16.9884 13.0629C17.4015 13.0629 17.7365 13.391 17.7365 13.7958Z" fill="#2B2B2B"/>
    <path fill-rule="evenodd" clip-rule="evenodd" d="M7.26363 3.5C6.97324 3.5 6.70745 3.66237 6.5759 3.92014L3.58369 9.78334C3.52868 9.89114 3.5 10.0104 3.5 10.1313C3.5 10.9971 3.75455 11.7452 4.24851 12.2857C4.65246 12.7277 5.17813 12.9878 5.74422 13.0697V18.9261C5.74422 19.3503 6.0896 19.6942 6.51565 19.6942H12.5001C12.9261 19.6942 13.2715 19.3503 13.2715 18.9261C13.2715 18.5019 12.9261 18.158 12.5001 18.158H7.28708V12.8411C7.55697 12.7131 7.80183 12.5412 8.01168 12.3344C8.49169 12.8073 9.15482 13.0981 9.88181 13.0981C10.6089 13.0981 11.272 12.8073 11.752 12.3343C11.9842 12.563 12.2592 12.7491 12.5634 12.8804C12.5068 13.169 12.4766 13.4742 12.4766 13.7958C12.4766 14.5502 12.779 15.3384 13.1499 16.0397C13.5294 16.7572 14.0262 17.4675 14.5087 18.0868C14.9933 18.7088 15.4759 19.2548 15.8365 19.6446C16.0172 19.8399 16.1682 19.997 16.2748 20.106C16.3281 20.1606 16.3703 20.2031 16.3997 20.2325L16.4338 20.2665L16.4432 20.2758L16.447 20.2795C16.7473 20.5737 17.2297 20.5734 17.5299 20.2792L17.5334 20.2758L17.5428 20.2665L17.577 20.2325C17.6063 20.2031 17.6486 20.1606 17.7019 20.106C17.8084 19.997 17.9595 19.8399 18.1401 19.6446C18.5007 19.2548 18.9834 18.7088 19.468 18.0868C19.9505 17.4675 20.4473 16.7572 20.8267 16.0397C21.1976 15.3384 21.5 14.5502 21.5 13.7958C21.5 12.3138 20.8588 11.177 19.9449 10.4259C20.0283 10.2257 20.0265 9.99172 19.9202 9.78334L16.928 3.92014C16.7964 3.66237 16.5306 3.5 16.2402 3.5H7.26363ZM16.9883 9.36319C15.5451 9.36319 13.9823 10.0885 13.1273 11.4486C12.7653 11.2715 12.5234 10.907 12.5234 10.4977C12.5234 10.0735 12.178 9.72965 11.7519 9.72965C11.3259 9.72965 10.9805 10.0735 10.9805 10.4977C10.9805 11.074 10.5006 11.5619 9.88181 11.5619C9.26302 11.5619 8.78311 11.074 8.78311 10.4977C8.78311 10.0735 8.43773 9.72965 8.01168 9.72965C7.58563 9.72965 7.24025 10.0735 7.24025 10.4977C7.24025 11.074 6.76034 11.5619 6.14156 11.5619C5.82285 11.5619 5.56931 11.4484 5.38967 11.2518C5.22619 11.0729 5.07778 10.7732 5.04819 10.3048L7.73695 5.03618H15.7669L18.0387 9.48776C17.6893 9.40513 17.3354 9.36319 16.9883 9.36319ZM16.9883 10.8994C15.5238 10.8994 14.0195 11.9637 14.0195 13.7958C14.0195 14.1773 14.1847 14.6992 14.5151 15.324C14.8369 15.9326 15.2751 16.5644 15.7277 17.1452C16.1782 17.7234 16.6306 18.2355 16.9713 18.6038L16.9883 18.6222L17.0053 18.6038C17.346 18.2355 17.7985 17.7234 18.2489 17.1452C18.7015 16.5644 19.1397 15.9326 19.4616 15.324C19.792 14.6992 19.9571 14.1773 19.9571 13.7958C19.9571 11.9637 18.4528 10.8994 16.9883 10.8994Z" fill="#2B2B2B"/>
</svg>
