<?xml version="1.0" encoding="UTF-8"?>
<svg width="24px" height="24px" viewBox="0 0 24 24" version="1.1" xmlns="http://www.w3.org/2000/svg" xmlns:xlink="http://www.w3.org/1999/xlink">
    <title>structure-vertical</title>
    <g stroke="none" stroke-width="1" fill="none" fill-rule="evenodd">
        <g transform="translate(3.000000, 3.000000)">
            <rect x="0" y="0" width="18" height="18"></rect>
            <g stroke-linecap="square" transform="translate(0.750000, 0.750000)" fill="#414851" fill-rule="nonzero">
                <path d="M8.25,5.25 C8.62969577,5.25 8.94349096,5.53215388 8.99315338,5.89822944 L9,6 L9,10.5 C9,10.9142136 8.66421356,11.25 8.25,11.25 C7.87030423,11.25 7.55650904,10.9678461 7.50684662,10.6017706 L7.5,10.5 L7.5,6 C7.5,5.58578644 7.83578644,5.25 8.25,5.25 Z"></path>
                <path d="M15,7.5 C15.3796958,7.5 15.693491,7.78215388 15.7431534,8.14822944 L15.75,8.25 L15.75,10.5 C15.75,10.9142136 15.4142136,11.25 15,11.25 C14.6203042,11.25 14.306509,10.9678461 14.2568466,10.6017706 L14.25,10.5 L14.25,9 L2.25,9 L2.25,10.5 C2.25,10.8796958 1.96784612,11.193491 1.60177056,11.2431534 L1.5,11.25 C1.12030423,11.25 0.806509039,10.9678461 0.756846616,10.6017706 L0.75,10.5 L0.75,8.25 C0.75,7.87030423 1.03215388,7.55650904 1.39822944,7.50684662 L1.5,7.5 L15,7.5 Z"></path>
                <path d="M8.25,-0.75 C7.00735931,-0.75 6,0.257359313 6,1.5 C6,2.74264069 7.00735931,3.75 8.25,3.75 C9.49264069,3.75 10.5,2.74264069 10.5,1.5 C10.5,0.257359313 9.49264069,-0.75 8.25,-0.75 Z M8.25,0.75 C8.66421356,0.75 9,1.08578644 9,1.5 C9,1.91421356 8.66421356,2.25 8.25,2.25 C7.83578644,2.25 7.5,1.91421356 7.5,1.5 C7.5,1.08578644 7.83578644,0.75 8.25,0.75 Z"></path>
                <path d="M1.5,12.75 C0.257359313,12.75 -0.75,13.7573593 -0.75,15 C-0.75,16.2426407 0.257359313,17.25 1.5,17.25 C2.74264069,17.25 3.75,16.2426407 3.75,15 C3.75,13.7573593 2.74264069,12.75 1.5,12.75 Z M1.5,14.25 C1.91421356,14.25 2.25,14.5857864 2.25,15 C2.25,15.4142136 1.91421356,15.75 1.5,15.75 C1.08578644,15.75 0.75,15.4142136 0.75,15 C0.75,14.5857864 1.08578644,14.25 1.5,14.25 Z"></path>
                <path d="M8.25,12.75 C7.00735931,12.75 6,13.7573593 6,15 C6,16.2426407 7.00735931,17.25 8.25,17.25 C9.49264069,17.25 10.5,16.2426407 10.5,15 C10.5,13.7573593 9.49264069,12.75 8.25,12.75 Z M8.25,14.25 C8.66421356,14.25 9,14.5857864 9,15 C9,15.4142136 8.66421356,15.75 8.25,15.75 C7.83578644,15.75 7.5,15.4142136 7.5,15 C7.5,14.5857864 7.83578644,14.25 8.25,14.25 Z"></path>
                <path d="M15,12.75 C13.7573593,12.75 12.75,13.7573593 12.75,15 C12.75,16.2426407 13.7573593,17.25 15,17.25 C16.2426407,17.25 17.25,16.2426407 17.25,15 C17.25,13.7573593 16.2426407,12.75 15,12.75 Z M15,14.25 C15.4142136,14.25 15.75,14.5857864 15.75,15 C15.75,15.4142136 15.4142136,15.75 15,15.75 C14.5857864,15.75 14.25,15.4142136 14.25,15 C14.25,14.5857864 14.5857864,14.25 15,14.25 Z"></path>
            </g>
        </g>
    </g>
</svg>
