<?xml version="1.0" encoding="UTF-8"?>
<svg width="24px" height="24px" viewBox="0 0 24 24" version="1.1" xmlns="http://www.w3.org/2000/svg" xmlns:xlink="http://www.w3.org/1999/xlink">
    <title>structure</title>
    <g stroke="none" stroke-width="1" fill="none" fill-rule="evenodd" stroke-linecap="square">
        <g transform="translate(3.000000, 4.000000)">
            <g transform="translate(0.500000, 0.833333)">
                <line x1="1" y1="11" x2="6.83333333" y2="11" stroke="#DDE1E7" stroke-width="1.66666667" stroke-linecap="round" stroke-linejoin="round"></line>
                <path d="M6.83333333,3.58333333 C7.2475469,3.58333333 7.58333333,3.91911977 7.58333333,4.33333333 C7.58333333,4.7130291 7.30117945,5.02682429 6.93510389,5.07648672 L6.83333333,5.08333333 L1,5.08333333 C0.585786438,5.08333333 0.25,4.7475469 0.25,4.33333333 C0.25,3.95363757 0.532153882,3.63984237 0.898229443,3.59017995 L1,3.58333333 L6.83333333,3.58333333 Z" fill="#414851" fill-rule="nonzero"></path>
                <path d="M1,0.25 C1.37969577,0.25 1.69349096,0.532153882 1.74315338,0.898229443 L1.75,1 L1.75,10.25 L6.83333333,10.25 C7.2130291,10.25 7.52682429,10.5321539 7.57648672,10.8982294 L7.58333333,11 C7.58333333,11.3796958 7.30117945,11.693491 6.93510389,11.7431534 L6.83333333,11.75 L1,11.75 C0.620304234,11.75 0.306509039,11.4678461 0.256846616,11.1017706 L0.25,11 L0.25,1 C0.25,0.585786438 0.585786438,0.25 1,0.25 Z" fill="#414851" fill-rule="nonzero"></path>
                <path d="M16,1.83333333 L6.83333333,1.83333333 C6.37309604,1.83333333 6,2.20642938 6,2.66666667 L6,6 C6,6.46023729 6.37309604,6.83333333 6.83333333,6.83333333 L16,6.83333333 C16.4602373,6.83333333 16.8333333,6.46023729 16.8333333,6 L16.8333333,2.66666667 C16.8333333,2.20642938 16.4602373,1.83333333 16,1.83333333 Z" fill="#414851" fill-rule="nonzero"></path>
                <path d="M16,8.5 L6.83333333,8.5 C6.37309604,8.5 6,8.87309604 6,9.33333333 L6,12.6666667 C6,13.126904 6.37309604,13.5 6.83333333,13.5 L16,13.5 C16.4602373,13.5 16.8333333,13.126904 16.8333333,12.6666667 L16.8333333,9.33333333 C16.8333333,8.87309604 16.4602373,8.5 16,8.5 Z" fill="#414851" fill-rule="nonzero"></path>
            </g>
        </g>
    </g>
</svg>
