<?xml version="1.0" encoding="UTF-8"?>
<svg width="24px" height="24px" viewBox="0 0 24 24" version="1.1" xmlns="http://www.w3.org/2000/svg" xmlns:xlink="http://www.w3.org/1999/xlink">
    <title>structure-horizontal</title>
    <g stroke="none" stroke-width="1" fill="none" fill-rule="evenodd">
        <g>
            <rect transform="translate(12.000000, 12.000000) rotate(-90.000000) translate(-12.000000, -12.000000) " x="3" y="3" width="18" height="18"></rect>
            <g transform="translate(2.250000, 4.250000)" fill="#414851" fill-rule="nonzero">
                <path d="M8.25,6.25 C8.62969577,6.25 8.94349096,6.53215388 8.99315338,6.89822944 L9,7 L9,8.5 C9,8.91421356 8.66421356,9.25 8.25,9.25 C7.87030423,9.25 7.55650904,8.96784612 7.50684662,8.60177056 L7.5,8.5 L7.5,7 C7.5,6.58578644 7.83578644,6.25 8.25,6.25 Z" transform="translate(8.250000, 7.750000) rotate(-90.000000) translate(-8.250000, -7.750000) "></path>
                <path d="M15.625,5.875 C16.0046958,5.875 16.318491,6.15715388 16.3681534,6.52322944 L16.375,6.625 L16.375,8.875 C16.375,9.28921356 16.0392136,9.625 15.625,9.625 C15.2453042,9.625 14.931509,9.34284612 14.8818466,8.97677056 L14.875,8.875 L14.875,7.375 L6.875,7.375 L6.875,8.875 C6.875,9.25469577 6.59284612,9.56849096 6.22677056,9.61815338 L6.125,9.625 C5.74530423,9.625 5.43150904,9.34284612 5.38184662,8.97677056 L5.375,8.875 L5.375,6.625 C5.375,6.24530423 5.65715388,5.93150904 6.02322944,5.88184662 L6.125,5.875 L15.625,5.875 Z" transform="translate(10.875000, 7.750000) rotate(-90.000000) translate(-10.875000, -7.750000) "></path>
                <path d="M2.75,5 C1.23121694,5 0,6.23121694 0,7.75 C0,9.26878306 1.23121694,10.5 2.75,10.5 C4.26878306,10.5 5.5,9.26878306 5.5,7.75 C5.5,6.23121694 4.26878306,5 2.75,5 Z M2.75,6.5 C3.44035594,6.5 4,7.05964406 4,7.75 C4,8.44035594 3.44035594,9 2.75,9 C2.05964406,9 1.5,8.44035594 1.5,7.75 C1.5,7.05964406 2.05964406,6.5 2.75,6.5 Z" transform="translate(2.750000, 7.750000) rotate(-90.000000) translate(-2.750000, -7.750000) "></path>
                <path d="M16.75,0 C15.2312169,0 14,1.23121694 14,2.75 C14,4.26878306 15.2312169,5.5 16.75,5.5 C18.2687831,5.5 19.5,4.26878306 19.5,2.75 C19.5,1.23121694 18.2687831,0 16.75,0 Z M16.75,1.5 C17.4403559,1.5 18,2.05964406 18,2.75 C18,3.44035594 17.4403559,4 16.75,4 C16.0596441,4 15.5,3.44035594 15.5,2.75 C15.5,2.05964406 16.0596441,1.5 16.75,1.5 Z" transform="translate(16.750000, 2.750000) rotate(-90.000000) translate(-16.750000, -2.750000) "></path>
                <path d="M16.75,10 C15.2312169,10 14,11.2312169 14,12.75 C14,14.2687831 15.2312169,15.5 16.75,15.5 C18.2687831,15.5 19.5,14.2687831 19.5,12.75 C19.5,11.2312169 18.2687831,10 16.75,10 Z M16.75,11.5 C17.4403559,11.5 18,12.0596441 18,12.75 C18,13.4403559 17.4403559,14 16.75,14 C16.0596441,14 15.5,13.4403559 15.5,12.75 C15.5,12.0596441 16.0596441,11.5 16.75,11.5 Z" transform="translate(16.750000, 12.750000) rotate(-90.000000) translate(-16.750000, -12.750000) "></path>
            </g>
        </g>
    </g>
</svg>
