<svg width="24" height="24" viewBox="0 0 24 24" fill="none" xmlns="http://www.w3.org/2000/svg">
<path fill-rule="evenodd" clip-rule="evenodd" d="M4 3.25C3.58579 3.25 3.25 3.58579 3.25 4V7.63636C3.25 8.05058 3.58579 8.38636 4 8.38636H4.70459V12C4.70459 12.1989 4.78361 12.3897 4.92426 12.5303C5.06491 12.671 5.25568 12.75 5.45459 12.75H11.25V14.1591H10.5454C10.1312 14.1591 9.79541 14.4949 9.79541 14.9091V20C9.79541 20.4142 10.1312 20.75 10.5454 20.75H13.4545C13.8687 20.75 14.2045 20.4142 14.2045 20V14.9091C14.2045 14.4949 13.8687 14.1591 13.4545 14.1591H12.75V12C12.75 11.5858 12.4143 11.25 12 11.25H6.20459V8.38636H20C20.4142 8.38636 20.75 8.05058 20.75 7.63636V4C20.75 3.58579 20.4142 3.25 20 3.25H4ZM4.75 6.88636V4.75H19.25V6.88636H4.75ZM11.2954 15.6591V19.25H12.7045V15.6591H11.2954Z" fill="#2B2B2B"/>
<path fill-rule="evenodd" clip-rule="evenodd" d="M19.1626 10.8464L19.1642 10.8488L19.1679 10.8542L19.1814 10.8739C19.1929 10.8908 19.2095 10.9152 19.2303 10.9462C19.272 11.0082 19.3311 11.097 19.4017 11.2057C19.5426 11.4226 19.7315 11.722 19.9215 12.0495C20.1101 12.3746 20.3072 12.7401 20.4594 13.0866C20.5981 13.4023 20.75 13.8106 20.75 14.1818C20.75 15.3996 19.7633 16.3863 18.5455 16.3863C17.3276 16.3863 16.3409 15.3996 16.3409 14.1818C16.3409 13.8106 16.4929 13.4023 16.6316 13.0866C16.7838 12.7401 16.9809 12.3746 17.1695 12.0495C17.3595 11.722 17.5484 11.4226 17.6892 11.2057C17.7599 11.097 17.8189 11.0082 17.8606 10.9462C17.8815 10.9152 17.8981 10.8908 17.9096 10.8739L17.923 10.8542L17.9268 10.8488L17.9284 10.8464C18.0685 10.6437 18.2991 10.5227 18.5455 10.5227C18.7919 10.5227 19.0225 10.6437 19.1626 10.8464ZM18.467 12.8022C18.4932 12.7571 18.5194 12.7124 18.5455 12.6684C18.5716 12.7124 18.5978 12.7571 18.624 12.8022C18.7991 13.104 18.9656 13.4156 19.0861 13.6899C19.1463 13.8269 19.1903 13.9441 19.2183 14.0388C19.2465 14.1339 19.2497 14.1779 19.25 14.1818C19.25 14.5712 18.9349 14.8863 18.5455 14.8863C18.1561 14.8863 17.841 14.571 17.841 14.1815C17.8413 14.1776 17.8445 14.1339 17.8726 14.0388C17.9007 13.9441 17.9447 13.8269 18.0049 13.6899C18.1254 13.4156 18.2919 13.104 18.467 12.8022Z" fill="#2B2B2B"/>
</svg>
