<?xml version="1.0" encoding="UTF-8"?>
<svg width="24px" height="24px" viewBox="0 0 24 24" version="1.1" xmlns="http://www.w3.org/2000/svg" xmlns:xlink="http://www.w3.org/1999/xlink">
    <title>success</title>
    <g stroke="none" stroke-width="1" fill="none" fill-rule="evenodd">
        <g>
            <rect fill-opacity="0" fill="#FFFFFF" x="0" y="0" width="24" height="24"></rect>
            <path d="M12,4 C16.418278,4 20,7.581722 20,12 C20,16.418278 16.418278,20 12,20 C7.581722,20 4,16.418278 4,12 C4,7.581722 7.581722,4 12,4 Z M12,5.4 C8.35492065,5.4 5.4,8.35492065 5.4,12 C5.4,15.6450793 8.35492065,18.6 12,18.6 C15.6450793,18.6 18.6,15.6450793 18.6,12 C18.6,8.35492065 15.6450793,5.4 12,5.4 Z M14.772732,9.26762798 L15.62126,10.116156 L15.62126,10.328288 L11.217177,14.732372 L11.005045,14.732372 L8.37873898,12.106066 L8.37873898,11.893934 L9.22726698,11.045406 L9.43939899,11.045406 L11.111,12.717 L14.5606,9.26762798 L14.772732,9.26762798 Z" fill="#414851"></path>
        </g>
    </g>
</svg>
