<?xml version="1.0" encoding="UTF-8"?>
<svg width="24" height="24" viewBox="0 0 24 24" fill="none" xmlns="http://www.w3.org/2000/svg">
<path d="M15.997 6.58828H15.8385C15.7479 5.62098 15.3048 4.72078 14.5935 4.05909C13.8821 3.3974 12.9522 3.02044 11.9809 3C9.95295 3.03865 8.31407 4.57575 8.14142 6.54318H7.96362C5.47695 6.61662 3.50694 8.7013 3.57136 11.1712C3.57128 12.0503 3.82208 12.9112 4.29428 13.6527C4.76648 14.3942 5.44049 14.9856 6.23712 15.3573C6.47806 16.9807 7.83091 18.2163 9.42856 18.2975C9.60121 18.322 9.77644 18.3336 9.95166 18.3336C10.4462 18.3308 10.9358 18.2346 11.3947 18.0501V20.4015C11.3947 20.5602 11.4578 20.7125 11.57 20.8247C11.6822 20.9369 11.8345 21 11.9932 21C12.1519 21 12.3041 20.9369 12.4164 20.8247C12.5286 20.7125 12.5917 20.5602 12.5917 20.4015V18.0489C13.2091 18.2937 13.88 18.3719 14.5372 18.2756C16.1567 18.1906 17.4954 16.9923 17.7711 15.3328C18.5693 14.963 19.2449 14.3724 19.7182 13.6308C20.1915 12.8893 20.4427 12.0277 20.4421 11.148C20.4454 9.9573 19.9818 8.81272 19.1507 7.95997C18.3197 7.10723 17.1874 6.6143 15.997 6.58699V6.58828ZM17.2171 14.2712L16.9672 14.373C16.8567 14.4175 16.7621 14.494 16.6955 14.5927C16.6289 14.6915 16.5934 14.8079 16.5935 14.927L16.6 15.1151C16.4582 16.1974 15.5641 17.0233 14.4148 17.0864C13.781 17.1767 13.1356 17.0413 12.5917 16.7037V15.6962C13.2424 15.5743 13.8401 15.256 14.3044 14.7839C14.7686 14.3119 15.0769 13.7089 15.1878 13.0562C15.2143 12.8997 15.1775 12.7391 15.0856 12.6097C14.9937 12.4803 14.8541 12.3927 14.6976 12.3662C14.5411 12.3398 14.3805 12.3765 14.2511 12.4685C14.1217 12.5604 14.0341 12.7 14.0076 12.8565C13.942 13.2265 13.7748 13.5709 13.5248 13.8515C13.2747 14.132 12.9517 14.3375 12.5917 14.4451V12.957C12.5917 12.7981 12.5285 12.6457 12.4162 12.5333C12.3038 12.421 12.1514 12.3579 11.9925 12.3579C11.8336 12.3579 11.6812 12.421 11.5689 12.5333C11.4565 12.6457 11.3934 12.7981 11.3934 12.957V14.4619C11.1852 14.4003 10.9882 14.3059 10.8098 14.1823C10.5904 14.0272 10.4041 13.8302 10.2614 13.6026C10.1188 13.3751 10.0227 13.1215 9.97872 12.8565C9.96642 12.7787 9.93871 12.7041 9.8972 12.6372C9.8557 12.5703 9.80125 12.5123 9.73704 12.4667C9.67284 12.4211 9.60016 12.3888 9.5233 12.3716C9.44643 12.3545 9.36691 12.3529 9.28941 12.3669C9.212 12.38 9.13793 12.4082 9.07143 12.45C9.00493 12.4917 8.9473 12.5461 8.90184 12.6101C8.85637 12.6741 8.82396 12.7465 8.80646 12.823C8.78895 12.8995 8.78669 12.9788 8.79981 13.0562C8.9082 13.7097 9.21555 14.3139 9.67993 14.7864C10.1443 15.2588 10.7431 15.5765 11.3947 15.6962V16.7076C10.8427 17.0555 10.1856 17.1969 9.53936 17.107C8.45064 17.0503 7.55647 16.2231 7.4199 15.2208V14.954C7.41969 14.835 7.38404 14.7188 7.31749 14.6201C7.25095 14.5214 7.15652 14.4448 7.04625 14.4L6.81305 14.3047C6.20241 14.0362 5.68355 13.5951 5.32027 13.0357C4.95699 12.4762 4.76514 11.8228 4.76831 11.1558C4.74602 10.2778 5.07099 9.42655 5.67263 8.78679C6.27427 8.14703 7.10401 7.77046 7.98165 7.73884H8.66194C8.95828 7.73884 9.21081 7.52239 9.25462 7.22862L9.32291 6.74933C9.36642 6.06639 9.66506 5.42475 10.1596 4.95172C10.6541 4.47869 11.3083 4.20882 11.9925 4.19566C13.4098 4.23432 14.5758 5.37071 14.6596 6.84338L14.724 7.27501C14.745 7.41706 14.8165 7.54678 14.9253 7.64047C15.0342 7.73415 15.1731 7.78554 15.3167 7.78523H15.9841C16.8589 7.80746 17.6902 8.17154 18.2998 8.79943C18.9094 9.42732 19.2488 10.269 19.2451 11.1442C19.2471 11.806 19.0564 12.4541 18.6962 13.0093C18.3361 13.5646 17.8222 14.0031 17.2171 14.2712Z" fill="#2B2B2B"/>
</svg>
