<?xml version="1.0" encoding="UTF-8"?>
<svg width="24px" height="24px" viewBox="0 0 24 24" version="1.1" xmlns="http://www.w3.org/2000/svg" xmlns:xlink="http://www.w3.org/1999/xlink">
    <title>swap-vertical</title>
    <g stroke="none" stroke-width="1" fill="none" fill-rule="evenodd">
        <g fill="#414851" fill-rule="nonzero">
            <path d="M8.25,7.5 C8.62969577,7.5 8.94349096,7.78215388 8.99315338,8.14822944 L9,8.25 L9,17.688 L10.7196699,15.9696699 C10.9859365,15.7034034 11.4026002,15.6791973 11.6962117,15.8970518 L11.7803301,15.9696699 C12.0465966,16.2359365 12.0708027,16.6526002 11.8529482,16.9462117 L11.7803301,17.0303301 L8.78033009,20.0303301 C8.75488197,20.0557782 8.72761357,20.0794061 8.69873696,20.1010016 L8.78033009,20.0303301 C8.74327681,20.0673834 8.70331108,20.0997491 8.66116979,20.1274273 C8.64101486,20.1405922 8.62002753,20.1529723 8.59841825,20.164329 C8.58929638,20.1691626 8.58056563,20.1735192 8.57177041,20.1776949 C8.54498188,20.190442 8.51652211,20.2019466 8.48726047,20.2116971 C8.48031678,20.2139554 8.47424558,20.2158799 8.46815554,20.2177252 C8.39967686,20.2386468 8.32616427,20.25 8.25,20.25 C8.21160776,20.25 8.17388927,20.2471153 8.13704947,20.2415508 C8.12548189,20.2397462 8.11377221,20.2376905 8.10210733,20.2353557 C8.07710419,20.230412 8.05280788,20.2242388 8.02901634,20.2169138 C8.01735654,20.2132873 8.00530706,20.2092554 7.99334602,20.2049093 C7.97004839,20.196425 7.94797981,20.1871231 7.92647821,20.1768269 C7.91487713,20.1713347 7.90254006,20.1650317 7.89034898,20.158365 C7.86421307,20.1439668 7.8395138,20.1284682 7.81583438,20.111629 C7.81212882,20.1090699 7.80794624,20.1060333 7.80378835,20.1029482 C7.77057056,20.0778288 7.74426976,20.0549299 7.71966991,20.0303301 L4.71966991,17.0303301 C4.4267767,16.7374369 4.4267767,16.2625631 4.71966991,15.9696699 C4.98593648,15.7034034 5.40260016,15.6791973 5.69621165,15.8970518 L5.78033009,15.9696699 L7.499,17.689 L7.5,8.25 C7.5,7.83578644 7.83578644,7.5 8.25,7.5 Z M15.8517706,3.75684662 L15.8627744,3.75847739 C15.8745181,3.76025385 15.8862278,3.76230949 15.8978927,3.76464433 C15.9228958,3.76958796 15.9471921,3.77576118 15.9709837,3.78308617 C15.9826435,3.78671273 15.9946929,3.79074464 16.006654,3.79509073 C16.0299516,3.80357499 16.0520202,3.81287686 16.0735218,3.82317314 C16.0851229,3.82866533 16.0974599,3.83496828 16.109651,3.84163501 C16.1336668,3.85487024 16.1563902,3.86897543 16.1782634,3.88421622 C16.1840051,3.88813751 16.1901347,3.89254279 16.1962117,3.89705176 C16.2038569,3.90285492 16.2060847,3.90455735 16.2083026,3.90627192 L16.2803301,3.96966991 L19.2803301,6.96966991 C19.5732233,7.26256313 19.5732233,7.73743687 19.2803301,8.03033009 C19.0140635,8.29659665 18.5973998,8.3208027 18.3037883,8.10294824 L18.2196699,8.03033009 L16.5,6.311 L16.5,16.5 C16.5,16.9142136 16.1642136,17.25 15.75,17.25 C15.3703042,17.25 15.056509,16.9678461 15.0068466,16.6017706 L15,16.5 L15,6.311 L13.2803301,8.03033009 C13.0140635,8.29659665 12.5973998,8.3208027 12.3037883,8.10294824 L12.2196699,8.03033009 C11.9534034,7.76406352 11.9291973,7.34739984 12.1470518,7.05378835 L12.2196699,6.96966991 L15.2196699,3.96966991 L15.2916974,3.90627192 C15.2958164,3.90308771 15.2999695,3.89994541 15.3041561,3.89684567 L15.2196699,3.96966991 C15.2567232,3.93261664 15.2966889,3.90025089 15.3388302,3.87257267 C15.3589851,3.85940783 15.3799725,3.84702767 15.4015818,3.83567096 C15.4107036,3.83083742 15.4194344,3.82648082 15.4282296,3.82230508 C15.4566055,3.80880073 15.4867626,3.7967322 15.5178087,3.78663399 C15.5231076,3.78496585 15.5274712,3.78359992 15.5318445,3.7822748 C15.6003231,3.76135317 15.6738357,3.75 15.75,3.75 L15.7558164,3.75002241 L15.8517706,3.75684662 L15.8517706,3.75684662 Z"></path>
        </g>
    </g>
</svg>
