<?xml version="1.0" encoding="UTF-8"?>
<svg width="24px" height="24px" viewBox="0 0 24 24" version="1.1" xmlns="http://www.w3.org/2000/svg" xmlns:xlink="http://www.w3.org/1999/xlink">
    <title>swap-horizontal</title>
    <g stroke="none" stroke-width="1" fill="none" fill-rule="evenodd">
        <g fill="#414851" fill-rule="nonzero">
            <path d="M16.9462117,12.1470518 L17.0303301,12.2196699 L20.0303301,15.2196699 C20.0557782,15.245118 20.0794061,15.2723864 20.1010016,15.301263 L20.0303301,15.2196699 C20.0673834,15.2567232 20.0997491,15.2966889 20.1274273,15.3388302 C20.1405922,15.3589851 20.1529723,15.3799725 20.164329,15.4015818 C20.1691626,15.4107036 20.1735192,15.4194344 20.1776949,15.4282296 C20.190442,15.4550181 20.2019466,15.4834779 20.2116971,15.5127395 C20.2139554,15.5196832 20.2158799,15.5257544 20.2177252,15.5318445 C20.2386468,15.6003231 20.25,15.6738357 20.25,15.75 C20.25,15.7883922 20.2471153,15.8261107 20.2415508,15.8629505 C20.2397462,15.8745181 20.2376905,15.8862278 20.2353557,15.8978927 C20.230412,15.9228958 20.2242388,15.9471921 20.2169138,15.9709837 C20.2132873,15.9826435 20.2092554,15.9946929 20.2049093,16.006654 C20.196425,16.0299516 20.1871231,16.0520202 20.1768269,16.0735218 C20.1713347,16.0851229 20.1650317,16.0974599 20.158365,16.109651 C20.1451298,16.1336668 20.1310246,16.1563902 20.1157838,16.1782634 C20.1118625,16.1840051 20.1074572,16.1901347 20.1029482,16.1962117 C20.0971451,16.2038569 20.0954427,16.2060847 20.0937281,16.2083026 L20.0303301,16.2803301 L17.0303301,19.2803301 C16.7374369,19.5732233 16.2625631,19.5732233 15.9696699,19.2803301 C15.7034034,19.0140635 15.6791973,18.5973998 15.8970518,18.3037883 L15.9696699,18.2196699 L17.689,16.5 L8.25,16.5 C7.83578644,16.5 7.5,16.1642136 7.5,15.75 C7.5,15.3703042 7.78215388,15.056509 8.14822944,15.0068466 L8.25,15 L17.689,15 L15.9696699,13.2803301 C15.7034034,13.0140635 15.6791973,12.5973998 15.8970518,12.3037883 L15.9696699,12.2196699 C16.2359365,11.9534034 16.6526002,11.9291973 16.9462117,12.1470518 Z M8.03033009,4.71966991 C8.29659665,4.98593648 8.3208027,5.40260016 8.10294824,5.69621165 L8.03033009,5.78033009 L6.311,7.499 L16.5,7.5 C16.9142136,7.5 17.25,7.83578644 17.25,8.25 C17.25,8.62969577 16.9678461,8.94349096 16.6017706,8.99315338 L16.5,9 L6.311,8.999 L8.03033009,10.7196699 C8.29659665,10.9859365 8.3208027,11.4026002 8.10294824,11.6962117 L8.03033009,11.7803301 C7.76406352,12.0465966 7.34739984,12.0708027 7.05378835,11.8529482 L6.96966991,11.7803301 L3.96966991,8.78033009 L3.90627192,8.70830264 C3.90382253,8.70513413 3.90139794,8.70194547 3.89899844,8.69873696 L3.96966991,8.78033009 C3.93261664,8.74327681 3.90025089,8.70331108 3.87257267,8.66116979 C3.85940783,8.64101486 3.84702767,8.62002753 3.83567096,8.59841825 C3.83083742,8.58929638 3.82648082,8.58056563 3.82230508,8.57177041 C3.80955796,8.54498188 3.79805336,8.51652211 3.78830293,8.48726047 C3.78604456,8.48031678 3.78412011,8.47424558 3.7822748,8.46815554 C3.76135317,8.39967686 3.75,8.32616427 3.75,8.25 C3.75,8.21160776 3.75288471,8.17388927 3.75844919,8.13704947 C3.76025385,8.12548189 3.76230949,8.11377221 3.76464433,8.10210733 C3.76958796,8.07710419 3.77576118,8.05280788 3.78308617,8.02901634 C3.78671273,8.01735654 3.79074464,8.00530706 3.79509073,7.99334602 C3.80357499,7.97004839 3.81287686,7.94797981 3.82317314,7.92647821 C3.82866533,7.91487713 3.83496828,7.90254006 3.84163501,7.89034898 C3.85487024,7.86633323 3.86897543,7.84360981 3.88421622,7.82173665 C3.88813751,7.81599491 3.89254279,7.80986527 3.89705176,7.80378835 C3.92217116,7.77057056 3.94507007,7.74426976 3.96966991,7.71966991 L6.96966991,4.71966991 C7.26256313,4.4267767 7.73743687,4.4267767 8.03033009,4.71966991 Z"></path>
        </g>
    </g>
</svg>
