<?xml version="1.0" encoding="UTF-8"?>
<svg width="24px" height="24px" viewBox="0 0 24 24" version="1.1" xmlns="http://www.w3.org/2000/svg" xmlns:xlink="http://www.w3.org/1999/xlink">
    <title>tag</title>
    <g stroke="none" stroke-width="1" fill="none" fill-rule="evenodd">
        <g fill="#414851" fill-rule="nonzero">
            <g transform="translate(12.000000, 12.000000) rotate(-315.000000) translate(-12.000000, -12.000000) translate(6.500000, 4.000000)">
                <path d="M6.48007755,-0.75 L4.12652416,-0.75 C3.66239531,-0.75 3.21727596,-0.565625529 2.8890873,-0.237436867 L2.82162404,-0.160034055 L-0.29,3.947 L-0.237436867,3.8890873 C-0.565625529,4.21727596 -0.75,4.66239531 -0.75,5.12652416 L-0.75,15.3795725 C-0.75,15.7937861 -0.414213562,16.1295725 0,16.1295725 L10.6066017,16.1295725 C11.0208153,16.1295725 11.3566017,15.7937861 11.3566017,15.3795725 L11.3566017,5.12652416 L11.3480384,4.95355817 C11.3139435,4.61017332 11.1789898,4.2843664 10.9602888,4.01744792 L10.897,3.947 L7.78497768,-0.160034055 L7.71751442,-0.237436867 C7.38932576,-0.565625529 6.94420641,-0.75 6.48007755,-0.75 Z M6.48007755,0.75 L6.54495836,0.758565132 C6.56593816,0.764203685 6.58609811,0.772554213 6.60492013,0.78340211 L6.637,0.808 L9.71591515,4.87234466 L9.78337841,4.94974747 L9.82319961,5.00168159 C9.8448954,5.03932562 9.85660172,5.08232142 9.85660172,5.12652416 L9.856,14.629 L0.75,14.629 L0.75,5.12652416 C0.75,5.06022004 0.77633921,4.99663156 0.823223305,4.94974747 L0.890686565,4.87234466 L3.97,0.807 L3.94974747,0.823223305 C3.99663156,0.77633921 4.06022004,0.75 4.12652416,0.75 L6.48007755,0.75 Z"></path>
                <path d="M5.5,5.25 C4.25735931,5.25 3.25,6.25735931 3.25,7.5 C3.25,8.74264069 4.25735931,9.75 5.5,9.75 C6.74264069,9.75 7.75,8.74264069 7.75,7.5 C7.75,6.25735931 6.74264069,5.25 5.5,5.25 Z M5.5,6.75 C5.91421356,6.75 6.25,7.08578644 6.25,7.5 C6.25,7.91421356 5.91421356,8.25 5.5,8.25 C5.08578644,8.25 4.75,7.91421356 4.75,7.5 C4.75,7.08578644 5.08578644,6.75 5.5,6.75 Z"></path>
            </g>
        </g>
    </g>
</svg>
