<?xml version="1.0" encoding="UTF-8"?>
<svg width="24" height="24" viewBox="0 0 24 24" fill="none" xmlns="http://www.w3.org/2000/svg">
<path fill-rule="evenodd" clip-rule="evenodd" d="M20.9999 7.08588L17.5427 10.5439L15.2786 9.78842L14.2365 10.8305C14.7643 11.571 15.0751 12.4764 15.0751 13.4532C15.0751 15.9505 13.0442 17.9814 10.5469 17.9814C8.04967 17.9814 6.0188 15.9505 6.0188 13.4532C6.0188 10.956 8.04967 8.92511 10.5469 8.92511C11.5238 8.92511 12.4293 9.23587 13.1698 9.76375L14.2115 8.72205L13.4568 6.45723L16.914 3L17.6687 5.26407L19.0694 3.86336L20.1366 4.93049L18.7359 6.33119L20.9999 7.08588ZM12.0801 10.8534C11.6305 10.5873 11.1063 10.4345 10.5469 10.4345C8.88209 10.4345 7.52818 11.7884 7.52818 13.4532C7.52818 15.1181 8.88209 16.472 10.5469 16.472C12.2118 16.472 13.5657 15.1181 13.5657 13.4532C13.5657 12.894 13.4129 12.3698 13.1468 11.9202L12.0003 13.0668C12.0327 13.1913 12.0561 13.3189 12.0561 13.4532C12.0561 14.2871 11.3807 14.9626 10.5467 14.9626C9.7128 14.9626 9.03735 14.2871 9.03735 13.4532C9.03735 12.6193 9.7128 11.9438 10.5467 11.9438C10.6811 11.9438 10.8086 11.9672 10.9331 12.0004L12.0801 10.8534Z" fill="#2B2B2B"/>
<path d="M10.5469 21.0001C6.38553 21.0001 3 17.6145 3 13.4532C3 9.29184 6.38553 5.90631 10.5469 5.90631C10.8299 5.90631 11.1099 5.92216 11.3838 5.95235L12.134 6.03461L11.9687 7.53493L11.2186 7.45267C10.9982 7.42852 10.774 7.41569 10.5469 7.41569C7.21795 7.41569 4.50938 10.1243 4.50938 13.4532C4.50938 16.7821 7.21795 19.4907 10.5469 19.4907C13.8758 19.4907 16.5844 16.7821 16.5844 13.4532C16.5844 13.226 16.5716 13.0011 16.5474 12.7808L16.4652 12.0306L17.9655 11.8653L18.0477 12.6155C18.0779 12.891 18.0938 13.1702 18.0938 13.4532C18.0938 17.6145 14.7082 21.0001 10.5469 21.0001Z" fill="#2B2B2B"/>
</svg>
