<?xml version="1.0" encoding="UTF-8"?>
<svg width="24px" height="24px" viewBox="0 0 24 24" version="1.1" xmlns="http://www.w3.org/2000/svg" xmlns:xlink="http://www.w3.org/1999/xlink">
    <title>task</title>
    <g stroke="none" stroke-width="1" fill="none" fill-rule="evenodd">
        <g>
            <rect fill-opacity="0" fill="#FFFFFF" x="0" y="0" width="24" height="24"></rect>
            <path d="M12,4 C16.418278,4 20,7.581722 20,12 C20,16.418278 16.418278,20 12,20 C11.5050496,20 11.0205974,19.9550521 10.5505024,19.8690156 L10.6623018,18.4643582 C11.0942893,18.5532855 11.5416893,18.6 12,18.6 C15.6450793,18.6 18.6,15.6450793 18.6,12 C18.6,8.35492065 15.6450793,5.4 12,5.4 C11.4910684,5.4 10.9955909,5.45760373 10.5197318,5.56664695 L10.5205167,4.13653175 C10.9999877,4.04688084 11.494519,4 12,4 Z M14.772732,9.26762798 L15.62126,10.116156 L15.62126,10.328288 L11.217177,14.732372 L11.005045,14.732372 L8.37873898,12.106066 L8.37873898,11.893934 L9.22726698,11.045406 L9.43939899,11.045406 L11.111,12.717 L14.5606,9.26762798 L14.772732,9.26762798 Z" fill="#414851"></path>
            <rect fill="#414851" transform="translate(8.375000, 18.278684) rotate(210.000000) translate(-8.375000, -18.278684) " x="7.375" y="17.2786842" width="2" height="2" rx="1"></rect>
            <rect fill="#414851" transform="translate(5.721316, 15.625000) rotate(240.000000) translate(-5.721316, -15.625000) " x="4.72131582" y="14.625" width="2" height="2" rx="1"></rect>
            <rect fill="#414851" transform="translate(4.750000, 12.000000) rotate(270.000000) translate(-4.750000, -12.000000) " x="3.75" y="11" width="2" height="2" rx="1"></rect>
            <rect fill="#414851" transform="translate(5.721316, 8.375000) rotate(300.000000) translate(-5.721316, -8.375000) " x="4.72131582" y="7.375" width="2" height="2" rx="1"></rect>
            <rect fill="#414851" transform="translate(8.375000, 5.721316) rotate(330.000000) translate(-8.375000, -5.721316) " x="7.375" y="4.72131582" width="2" height="2" rx="1"></rect>
        </g>
    </g>
</svg>
