<?xml version="1.0" encoding="UTF-8"?>
<svg width="24px" height="24px" viewBox="0 0 24 24" version="1.1" xmlns="http://www.w3.org/2000/svg" xmlns:xlink="http://www.w3.org/1999/xlink">
    <title>tax</title>
    <g stroke="none" stroke-width="1" fill="none" fill-rule="evenodd">
        <g transform="translate(2.000000, 2.000000)">
            <rect x="0" y="0" width="20" height="20"></rect>
            <g stroke-linecap="round" stroke-linejoin="round">
                <polygon points="0 0 20 0 20 20 0 20"></polygon>
                <path d="M14.1666667,1.75 C15.4479673,1.75 16.4963707,2.74715141 16.5781929,4.00777017 L16.5833333,4.16666667 L16.5833333,17.5 C16.5833333,18.063785 15.9919564,18.4134441 15.50685,18.1756079 L15.4173082,18.1240377 L13.428,16.798 L12.1969968,18.0303301 C11.9307302,18.2965966 11.5140665,18.3208027 11.220455,18.1029482 L11.1363366,18.0303301 L10,16.894 L8.86366342,18.0303301 C8.59739686,18.2965966 8.18073317,18.3208027 7.88712168,18.1029482 L7.80300325,18.0303301 L6.571,16.798 L4.54520603,18.147603 L4.45860051,18.1910613 L4.36604638,18.2232093 L4.26843722,18.2431534 L4.17,18.25 C4.06394661,18.25 3.96466991,18.2290133 3.8747849,18.1910613 L3.77601429,18.1404373 L3.68920366,18.0786414 L3.63633658,18.0303301 L3.61087226,18.0037301 L3.57293859,17.9583026 L3.54262895,17.9160251 L3.48791797,17.8192986 L3.44889654,17.7181807 L3.42351328,17.6017706 L3.41666667,17.5 L3.41666667,4.16666667 C3.41666667,2.88536605 4.41381807,1.83696262 5.67443684,1.75514042 L5.83333333,1.75 L14.1666667,1.75 Z M14.1666667,3.25 L5.83333333,3.25 C5.36323381,3.25 4.9757851,3.60387017 4.92283375,4.05976397 L4.91666667,4.16666667 L4.916,16.098 L6.25064152,15.2092956 C6.51505657,15.0330189 6.85739603,15.0444218 7.1077554,15.2266803 L7.19699675,15.3030032 L8.333,16.439 L9.46966991,15.3030032 C9.73593648,15.0367367 10.1526002,15.0125306 10.4462117,15.2303851 L10.5303301,15.3030032 L11.666,16.439 L12.8030032,15.3030032 C13.0277128,15.0782937 13.3656406,15.0223368 13.646882,15.1519565 L13.7493585,15.2092956 L15.083,16.098 L15.0833333,4.16666667 C15.0833333,3.69656715 14.7294632,3.30911844 14.2735694,3.25616709 L14.1666667,3.25 Z M12.0833333,10.0833333 C12.7276655,10.0833333 13.25,10.6056678 13.25,11.25 C13.25,11.8943322 12.7276655,12.4166667 12.0833333,12.4166667 C11.4390011,12.4166667 10.9166667,11.8943322 10.9166667,11.25 C10.9166667,10.6056678 11.4390011,10.0833333 12.0833333,10.0833333 Z M13.0303301,6.13633658 C13.2965966,6.40260314 13.3208027,6.81926683 13.1029482,7.11287832 L13.0303301,7.19699675 L8.03033009,12.1969968 C7.73743687,12.48989 7.26256313,12.48989 6.96966991,12.1969968 C6.70340335,11.9307302 6.6791973,11.5140665 6.89705176,11.220455 L6.96966991,11.1363366 L11.9696699,6.13633658 C12.2625631,5.84344336 12.7374369,5.84344336 13.0303301,6.13633658 Z M7.91666667,5.91666667 C8.56099887,5.91666667 9.08333333,6.43900113 9.08333333,7.08333333 C9.08333333,7.72766554 8.56099887,8.25 7.91666667,8.25 C7.27233446,8.25 6.75,7.72766554 6.75,7.08333333 C6.75,6.43900113 7.27233446,5.91666667 7.91666667,5.91666667 Z" fill="#414851" fill-rule="nonzero"></path>
            </g>
        </g>
    </g>
</svg>
