<?xml version="1.0" encoding="UTF-8"?>
<svg width="24px" height="24px" viewBox="0 0 24 24" version="1.1" xmlns="http://www.w3.org/2000/svg" xmlns:xlink="http://www.w3.org/1999/xlink">
    <title>technology</title>
    <g stroke="none" stroke-width="1" fill="none" fill-rule="evenodd">
        <g transform="translate(2.000000, 2.000000)">
            <rect x="0" y="0" width="20" height="20"></rect>
            <g stroke-linecap="square" transform="translate(0.833333, 0.833333)" fill="#414851" fill-rule="nonzero">
                <polygon points="6.86883658 3.73716991 7.92949675 4.79783009 4.79783009 7.92949675 3.73716991 6.86883658"></polygon>
                <polygon points="11.4644968 3.73716991 14.5961634 6.86883658 13.5355032 7.92949675 10.4038366 4.79783009"></polygon>
                <polygon points="13.5355032 10.4038366 14.5961634 11.4644968 11.4644968 14.5961634 10.4038366 13.5355032"></polygon>
                <polygon points="4.79783009 10.4038366 7.92949675 13.5355032 6.86883658 14.5961634 3.73716991 11.4644968"></polygon>
                <path d="M9.16666667,-0.75 C7.37174123,-0.75 5.91666667,0.705074563 5.91666667,2.5 C5.91666667,4.29492544 7.37174123,5.75 9.16666667,5.75 C10.9615921,5.75 12.4166667,4.29492544 12.4166667,2.5 C12.4166667,0.705074563 10.9615921,-0.75 9.16666667,-0.75 Z M9.16666667,0.75 C10.133165,0.75 10.9166667,1.53350169 10.9166667,2.5 C10.9166667,3.46649831 10.133165,4.25 9.16666667,4.25 C8.20016835,4.25 7.41666667,3.46649831 7.41666667,2.5 C7.41666667,1.53350169 8.20016835,0.75 9.16666667,0.75 Z"></path>
                <path d="M15.8333333,5.91666667 C14.0384079,5.91666667 12.5833333,7.37174123 12.5833333,9.16666667 C12.5833333,10.9615921 14.0384079,12.4166667 15.8333333,12.4166667 C17.6282588,12.4166667 19.0833333,10.9615921 19.0833333,9.16666667 C19.0833333,7.37174123 17.6282588,5.91666667 15.8333333,5.91666667 Z M15.8333333,7.41666667 C16.7998316,7.41666667 17.5833333,8.20016835 17.5833333,9.16666667 C17.5833333,10.133165 16.7998316,10.9166667 15.8333333,10.9166667 C14.866835,10.9166667 14.0833333,10.133165 14.0833333,9.16666667 C14.0833333,8.20016835 14.866835,7.41666667 15.8333333,7.41666667 Z"></path>
                <path d="M2.5,5.91666667 C0.705074563,5.91666667 -0.75,7.37174123 -0.75,9.16666667 C-0.75,10.9615921 0.705074563,12.4166667 2.5,12.4166667 C4.29492544,12.4166667 5.75,10.9615921 5.75,9.16666667 C5.75,7.37174123 4.29492544,5.91666667 2.5,5.91666667 Z M2.5,7.41666667 C3.46649831,7.41666667 4.25,8.20016835 4.25,9.16666667 C4.25,10.133165 3.46649831,10.9166667 2.5,10.9166667 C1.53350169,10.9166667 0.75,10.133165 0.75,9.16666667 C0.75,8.20016835 1.53350169,7.41666667 2.5,7.41666667 Z"></path>
                <path d="M9.16666667,12.5833333 C7.37174123,12.5833333 5.91666667,14.0384079 5.91666667,15.8333333 C5.91666667,17.6282588 7.37174123,19.0833333 9.16666667,19.0833333 C10.9615921,19.0833333 12.4166667,17.6282588 12.4166667,15.8333333 C12.4166667,14.0384079 10.9615921,12.5833333 9.16666667,12.5833333 Z M9.16666667,14.0833333 C10.133165,14.0833333 10.9166667,14.866835 10.9166667,15.8333333 C10.9166667,16.7998316 10.133165,17.5833333 9.16666667,17.5833333 C8.20016835,17.5833333 7.41666667,16.7998316 7.41666667,15.8333333 C7.41666667,14.866835 8.20016835,14.0833333 9.16666667,14.0833333 Z"></path>
            </g>
        </g>
    </g>
</svg>
