<?xml version="1.0" encoding="UTF-8"?>
<svg width="24px" height="24px" viewBox="0 0 24 24" version="1.1" xmlns="http://www.w3.org/2000/svg" xmlns:xlink="http://www.w3.org/1999/xlink">
    <title>text-underline</title>
    <g stroke="none" stroke-width="1" fill="none" fill-rule="evenodd">
        <g fill="#414851" fill-rule="nonzero">
            <path d="M20.25,19.35 C20.7470563,19.35 21.15,19.7529437 21.15,20.25 C21.15,20.7088212 20.8066633,21.0874518 20.3628941,21.1429877 L20.25,21.15 L3.75,21.15 C3.25294373,21.15 2.85,20.7470563 2.85,20.25 C2.85,19.7911788 3.19333667,19.4125482 3.63710591,19.3570123 L3.75,19.35 L20.25,19.35 Z M8.25,2.85 C8.74705627,2.85 9.15,3.25294373 9.15,3.75 C9.15,4.20882118 8.80666333,4.58745178 8.36289409,4.64298772 L8.25,4.65 L7.65,4.65 L7.65,12 C7.65,14.40244 9.59756002,16.35 12.0000075,16.35 C14.3317821,16.35 16.2350443,14.5153158 16.3449838,12.2107614 L16.35,12 L16.35,4.65 L15.75,4.65 C15.2529437,4.65 14.85,4.24705627 14.85,3.75 C14.85,3.29117882 15.1933367,2.91254822 15.6371059,2.85701228 L15.75,2.85 L18.75,2.85 C19.2470563,2.85 19.65,3.25294373 19.65,3.75 C19.65,4.20882118 19.3066633,4.58745178 18.8628941,4.64298772 L18.75,4.65 L18.15,4.65 L18.15,12 C18.15,15.3965498 15.3965552,18.15 12.0000075,18.15 C8.67892659,18.15 5.97269303,15.5175682 5.85405602,12.2254609 L5.85,12 L5.85,4.65 L5.25,4.65 C4.75294373,4.65 4.35,4.24705627 4.35,3.75 C4.35,3.29117882 4.69333667,2.91254822 5.13710591,2.85701228 L5.25,2.85 L8.25,2.85 Z"></path>
        </g>
    </g>
</svg>
