<?xml version="1.0" encoding="UTF-8"?>
<svg width="24px" height="24px" viewBox="0 0 24 24" version="1.1" xmlns="http://www.w3.org/2000/svg" xmlns:xlink="http://www.w3.org/1999/xlink">
    <title>text</title>
    <g stroke="none" stroke-width="1" fill="none" fill-rule="evenodd">
        <g>
            <path d="M18,3 C19.6568542,3 21,4.34314575 21,6 L21,18 C21,19.6568542 19.6568542,21 18,21 L6,21 C4.34314575,21 3,19.6568542 3,18 L3,6 C3,4.34314575 4.34314575,3 6,3 L18,3 Z M18,4.5 L6,4.5 C5.22030388,4.5 4.57955132,5.09488808 4.50686658,5.85553999 L4.5,6 L4.5,18 C4.5,18.7796961 5.09488808,19.4204487 5.85553999,19.4931334 L6,19.5 L18,19.5 C18.7796961,19.5 19.4204487,18.9051119 19.4931334,18.14446 L19.5,18 L19.5,6 C19.5,5.22030388 18.9051119,4.57955132 18.14446,4.50686658 L18,4.5 Z" fill="#414851" fill-rule="nonzero"></path>
            <g transform="translate(7.000000, 7.000000)">
                <rect x="1" y="1" width="8" height="8"></rect>
                <g stroke-linecap="square" transform="translate(0.666667, 0.333333)" fill="#414851" fill-rule="nonzero">
                    <path d="M7.66666667,0.25 C8.04636243,0.25 8.36015763,0.532153882 8.40982005,0.898229443 L8.41666667,1 L8.41666667,2 C8.41666667,2.41421356 8.08088023,2.75 7.66666667,2.75 C7.2869709,2.75 6.97317571,2.46784612 6.92351328,2.10177056 L6.91666667,2 L6.916,1.75 L1.75,1.75 L1.75,2 C1.75,2.37969577 1.46784612,2.69349096 1.10177056,2.74315338 L1,2.75 C0.620304234,2.75 0.306509039,2.46784612 0.256846616,2.10177056 L0.25,2 L0.25,1 C0.25,0.620304234 0.532153882,0.306509039 0.898229443,0.256846616 L1,0.25 L7.66666667,0.25 Z"></path>
                    <path d="M4.33333333,0.25 C4.7130291,0.25 5.02682429,0.532153882 5.07648672,0.898229443 L5.08333333,1 L5.08333333,8.33333333 C5.08333333,8.7475469 4.7475469,9.08333333 4.33333333,9.08333333 C3.95363757,9.08333333 3.63984237,8.80117945 3.59017995,8.43510389 L3.58333333,8.33333333 L3.58333333,1 C3.58333333,0.585786438 3.91911977,0.25 4.33333333,0.25 Z"></path>
                    <path d="M6,7.58333333 C6.41421356,7.58333333 6.75,7.91911977 6.75,8.33333333 C6.75,8.7130291 6.46784612,9.02682429 6.10177056,9.07648672 L6,9.08333333 L2.66666667,9.08333333 C2.2524531,9.08333333 1.91666667,8.7475469 1.91666667,8.33333333 C1.91666667,7.95363757 2.19882055,7.63984237 2.56489611,7.59017995 L2.66666667,7.58333333 L6,7.58333333 Z"></path>
                </g>
            </g>
        </g>
    </g>
</svg>
