<?xml version="1.0" encoding="UTF-8"?>
<svg width="24px" height="24px" viewBox="0 0 24 24" version="1.1" xmlns="http://www.w3.org/2000/svg" xmlns:xlink="http://www.w3.org/1999/xlink">
    <title>text-paragraph</title>
    <g stroke="none" stroke-width="1" fill="none" fill-rule="evenodd">
        <g fill="#414851" fill-rule="nonzero">
            <path d="M17.3333334,3.66666667 C17.8856181,3.66666667 18.3333334,4.11438192 18.3333334,4.66666667 C18.3333334,5.17950251 17.9472932,5.60217383 17.4499545,5.65993894 L17.3333334,5.66666667 L15.6663334,5.66666667 L15.6666667,19.3333333 C15.6666667,19.8856181 15.2189514,20.3333333 14.6666667,20.3333333 C14.1538308,20.3333333 13.7311595,19.9472931 13.6733944,19.4499545 L13.6666667,19.3333333 L13.6663334,5.66666667 L11.6663334,5.66666667 L11.6666667,19.3333333 C11.6666667,19.8856181 11.2189514,20.3333333 10.6666667,20.3333333 C10.1538308,20.3333333 9.73115951,19.9472931 9.6733944,19.4499545 L9.66666667,19.3333333 L9.66633339,13.6666667 L9.33333339,13.6666667 C6.57190963,13.6666667 4.33333339,11.4280904 4.33333339,8.66666667 C4.33333339,5.97791197 6.45564008,3.78484855 9.11644377,3.67128618 L9.33333339,3.66666667 L17.3333334,3.66666667 Z M9.66633339,11.6666667 L9.66633339,5.66666667 L9.33333339,5.66666667 C7.67647913,5.66666667 6.33333339,7.00981242 6.33333339,8.66666667 C6.33333339,10.2643475 7.58225334,11.5703275 9.1570606,11.661574 L9.33333339,11.6666667 L9.66633339,11.6666667 Z"></path>
        </g>
    </g>
</svg>
