<?xml version="1.0" encoding="UTF-8"?>
<svg width="24px" height="24px" viewBox="0 0 24 24" version="1.1" xmlns="http://www.w3.org/2000/svg" xmlns:xlink="http://www.w3.org/1999/xlink">
    <title>text-right</title>
    <g stroke="none" stroke-width="1" fill="none" fill-rule="evenodd">
        <g fill="#414851" fill-rule="nonzero">
            <path d="M19.3333333,15.6666667 C19.8856181,15.6666667 20.3333333,16.1143819 20.3333333,16.6666667 C20.3333333,17.1795025 19.9472931,17.6021738 19.4499545,17.6599389 L19.3333333,17.6666667 L12.6666667,17.6666667 C12.1143819,17.6666667 11.6666667,17.2189514 11.6666667,16.6666667 C11.6666667,16.1538308 12.0527069,15.7311595 12.5500455,15.6733944 L12.6666667,15.6666667 L19.3333333,15.6666667 Z M19.3333333,11 C19.8856181,11 20.3333333,11.4477153 20.3333333,12 C20.3333333,12.5128358 19.9472931,12.9355072 19.4499545,12.9932723 L19.3333333,13 L4.66666667,13 C4.11438192,13 3.66666667,12.5522847 3.66666667,12 C3.66666667,11.4871642 4.05270686,11.0644928 4.55004554,11.0067277 L4.66666667,11 L19.3333333,11 Z M19.3333333,6.33333333 C19.8856181,6.33333333 20.3333333,6.78104858 20.3333333,7.33333333 C20.3333333,7.84616917 19.9472931,8.26884049 19.4499545,8.3266056 L19.3333333,8.33333333 L4.66666667,8.33333333 C4.11438192,8.33333333 3.66666667,7.88561808 3.66666667,7.33333333 C3.66666667,6.82049749 4.05270686,6.39782617 4.55004554,6.34006106 L4.66666667,6.33333333 L19.3333333,6.33333333 Z"></path>
        </g>
    </g>
</svg>
