<?xml version="1.0" encoding="UTF-8"?>
<svg width="24px" height="24px" viewBox="0 0 24 24" version="1.1" xmlns="http://www.w3.org/2000/svg" xmlns:xlink="http://www.w3.org/1999/xlink">
    <title>text-bold</title>
    <g stroke="none" stroke-width="1" fill="none" fill-rule="evenodd">
        <g fill="#414851" fill-rule="nonzero">
            <path d="M6.333,5.66566667 L6,5.66666667 C5.44771525,5.66666667 5,5.21895142 5,4.66666667 C5,4.15383083 5.38604019,3.73115951 5.88337887,3.6733944 L6,3.66666667 L13.3333333,3.66666667 C15.7265661,3.66666667 17.66666,5.60676326 17.66666,8 C17.66666,9.15817655 17.2122968,10.2102316 16.4720975,10.987637 C17.9820364,11.8468025 19,13.4711884 19,15.3333333 C19,18.022089 16.8776942,20.2151515 14.2168897,20.3287138 L14,20.3333333 L6,20.3333333 C5.44771525,20.3333333 5,19.8856181 5,19.3333333 C5,18.8204975 5.38604019,18.3978262 5.88337887,18.3400611 L6,18.3333333 L6.333,18.3326667 L6.333,5.66566667 Z M14,12.3333333 L8.333,12.3326667 L8.333,18.3326667 L14,18.3333333 C15.6568553,18.3333333 17,16.9901886 17,15.3333333 C17,13.7356515 15.751081,12.4296724 14.1762729,12.338426 L14,12.3333333 Z M13.3333333,5.66666667 L8.333,5.66566667 L8.333,10.3326667 L13.3333333,10.3333333 C14.6219934,10.3333333 15.66666,9.28866381 15.66666,8 C15.66666,6.76502663 14.7072377,5.75414574 13.4930874,5.67204971 L13.3333333,5.66666667 Z"></path>
        </g>
    </g>
</svg>
