<?xml version="1.0" encoding="UTF-8"?>
<svg width="24px" height="24px" viewBox="0 0 24 24" version="1.1" xmlns="http://www.w3.org/2000/svg" xmlns:xlink="http://www.w3.org/1999/xlink">
    <title>text-italic</title>
    <g stroke="none" stroke-width="1" fill="none" fill-rule="evenodd">
        <g fill="#414851" fill-rule="nonzero">
            <path d="M8,20.3333333 C7.44771525,20.3333333 7,19.8856181 7,19.3333333 C7,18.8204975 7.38604019,18.3978262 7.88337887,18.3400611 L8,18.3333333 L9.236,18.3326667 L12.69,5.66666667 L12,5.66666667 C11.4477153,5.66666667 11,5.21895142 11,4.66666667 C11,4.15383083 11.3860402,3.73115951 11.8833789,3.6733944 L12,3.66666667 L16,3.66666667 C16.5522847,3.66666667 17,4.11438192 17,4.66666667 C17,5.17950251 16.6139598,5.60217383 16.1166211,5.65993894 L16,5.66666667 L14.763,5.66666667 L11.308,18.3326667 L12,18.3333333 C12.5522847,18.3333333 13,18.7810486 13,19.3333333 C13,19.8461692 12.6139598,20.2688405 12.1166211,20.3266056 L12,20.3333333 L8,20.3333333 Z"></path>
        </g>
    </g>
</svg>
