<?xml version="1.0" encoding="UTF-8"?>
<svg width="24" height="24" viewBox="0 0 24 24" fill="none" xmlns="http://www.w3.org/2000/svg">
<path fill-rule="evenodd" clip-rule="evenodd" d="M5.91675 4.91666H9.75008C10.3024 4.91666 10.7501 5.36437 10.7501 5.91666V9.74999C10.7501 10.3023 10.3024 10.75 9.75008 10.75H5.91675C5.36446 10.75 4.91675 10.3023 4.91675 9.74999V5.91666C4.91675 5.36437 5.36446 4.91666 5.91675 4.91666ZM5.91675 13.25H9.75008C10.3024 13.25 10.7501 13.6977 10.7501 14.25V18.0833C10.7501 18.6356 10.3024 19.0833 9.75008 19.0833H5.91675C5.36446 19.0833 4.91675 18.6356 4.91675 18.0833V14.25C4.91675 13.6977 5.36446 13.25 5.91675 13.25ZM18.0833 4.91666H14.25C13.6977 4.91666 13.25 5.36437 13.25 5.91666V9.74999C13.25 10.3023 13.6977 10.75 14.25 10.75H18.0833C18.6356 10.75 19.0833 10.3023 19.0833 9.74999V5.91666C19.0833 5.36437 18.6356 4.91666 18.0833 4.91666ZM14.25 13.25H18.0833C18.6356 13.25 19.0833 13.6977 19.0833 14.25V18.0833C19.0833 18.6356 18.6356 19.0833 18.0833 19.0833H14.25C13.6977 19.0833 13.25 18.6356 13.25 18.0833V14.25C13.25 13.6977 13.6977 13.25 14.25 13.25Z" fill="#2B2B2B"/>
</svg>
