<?xml version="1.0" encoding="UTF-8"?>
<svg width="24px" height="24px" viewBox="0 0 24 24" version="1.1" xmlns="http://www.w3.org/2000/svg" xmlns:xlink="http://www.w3.org/1999/xlink">
    <title>translate</title>
    <g stroke="none" stroke-width="1" fill="none" fill-rule="evenodd">
        <g fill="#414851">
            <path d="M14,3 C15.1045695,3 16,3.8954305 16,5 L16,8.99945068 L9.00561523,16 L5,16 C3.8954305,16 3,15.1045695 3,14 L3,5.5638852 C3,4.67236646 3.09282561,4.34908022 3.2671327,4.0231543 C3.4414398,3.69722837 3.69722837,3.4414398 4.0231543,3.2671327 C4.324009,3.10623385 4.6226145,3.014763 5.36797723,3.00164263 L14,3 Z M14.0898756,4.50805567 L14,4.5 L5.41509294,4.50060537 L5.15609689,4.50660198 L4.9772437,4.51975204 C4.90403864,4.52826602 4.85230527,4.53980133 4.80917073,4.55486618 L4.73055258,4.5898525 C4.66602937,4.62435989 4.62435989,4.66602937 4.5898525,4.73055258 L4.55792636,4.80065465 C4.54860373,4.8258818 4.54056394,4.85389558 4.5336972,4.88747652 L4.51650639,5.00770139 L4.50569532,5.17801246 L4.50060537,5.41509294 L4.5,14 C4.5,14.2454599 4.67687516,14.4496084 4.91012437,14.4919443 L5,14.5 L8.383,14.5 L14.5,8.377 L14.5,5 C14.5,4.7852226 14.36458,4.60207424 14.1744662,4.53128126 L14.0898756,4.50805567 Z" fill-rule="nonzero"></path>
            <path d="M15.0148315,8 L18.4361148,8 C19.3276335,8 19.6509198,8.09282561 19.9768457,8.2671327 C20.3027716,8.4414398 20.5585602,8.69722837 20.7328673,9.0231543 C20.9071744,9.34908022 21,9.67236646 21,10.5638852 L21,18.4361148 C21,19.3276335 20.9071744,19.6509198 20.7328673,19.9768457 C20.5585602,20.3027716 20.3027716,20.5585602 19.9768457,20.7328673 C19.6509198,20.9071744 19.3276335,21 18.4361148,21 L10.5638852,21 C9.67236646,21 9.34908022,20.9071744 9.0231543,20.7328673 C8.69722837,20.5585602 8.4414398,20.3027716 8.2671327,19.9768457 C8.10623385,19.675991 8.014763,19.3773855 8.00164263,18.6320228 L8,15 L15.0148315,8 Z M9.5,15.621 L9.50060537,18.5849071 L9.50660198,18.8439031 L9.51975204,19.0227563 C9.52826602,19.0959614 9.53980133,19.1476947 9.55486618,19.1908293 L9.5898525,19.2694474 C9.62435989,19.3339706 9.66602937,19.3756401 9.73055258,19.4101475 L9.80065465,19.4420736 C9.8258818,19.4513963 9.85389558,19.4594361 9.88747652,19.4663028 L10.0077014,19.4834936 L10.1780125,19.4943047 L10.5638852,19.5 L18.5849071,19.4993946 L18.8219875,19.4943047 L18.9922986,19.4834936 L19.1125235,19.4663028 C19.1461044,19.4594361 19.1741182,19.4513963 19.1993453,19.4420736 L19.2694474,19.4101475 C19.3339706,19.3756401 19.3756401,19.3339706 19.4101475,19.2694474 L19.4420736,19.1993453 C19.4513963,19.1741182 19.4594361,19.1461044 19.4663028,19.1125235 L19.4834936,18.9922986 L19.4943047,18.8219875 L19.5,18.4361148 L19.4993946,10.4150929 L19.4943047,10.1780125 L19.4834936,10.0077014 L19.4663028,9.88747652 C19.4594361,9.85389558 19.4513963,9.8258818 19.4420736,9.80065465 L19.4101475,9.73055258 C19.3756401,9.66602937 19.3339706,9.62435989 19.2694474,9.5898525 L19.1993453,9.55792636 C19.1741182,9.54860373 19.1461044,9.54056394 19.1125235,9.5336972 L18.9922986,9.51650639 L18.8219875,9.50569532 L18.5849071,9.50060537 L15.634,9.5 L9.5,15.621 Z" fill-rule="nonzero"></path>
            <path d="M13.064,18 C13.176,18 13.2706667,17.97 13.348,17.91 C13.4253333,17.85 13.4773333,17.7826667 13.504,17.708 L13.504,17.708 L13.848,16.692 L16.064,16.692 L16.408,17.708 C16.4373333,17.7933333 16.49,17.8633333 16.566,17.918 C16.642,17.9726667 16.7386667,18 16.856,18 L16.856,18 L17.904,18 L15.648,12.172 L14.264,12.172 L12.008,18 L13.064,18 Z M15.752,15.772 L14.16,15.772 L14.696,14.184 C14.736,14.0826667 14.7786667,13.9626667 14.824,13.824 C14.8693333,13.6853333 14.9133333,13.5346667 14.956,13.372 C15.0013333,13.532 15.0473333,13.6806667 15.094,13.818 L15.1386667,13.9493333 C15.1671111,14.0328889 15.1928889,14.1084444 15.216,14.176 L15.216,14.176 L15.752,15.772 Z" fill-rule="nonzero"></path>
            <path d="M9.5,6 C9.30644996,6 9.14999996,6.15622116 9.14999996,6.34948805 L9.14999996,7.04846413 L6.34999993,7.04846413 C6.15644993,7.04846413 6,7.20468529 6,7.39795218 C6,7.59121908 6.15644993,7.74744024 6.34999993,7.74744024 L10.55,7.74744024 L10.55,8.09692829 C10.55,8.83364911 10.0813556,9.80609962 9.33935556,10.6525597 C8.81680556,10.0329174 8.44999995,9.3459986 8.44999995,8.7959044 C8.44999995,8.6026375 8.29354995,8.44641634 8.09999995,8.44641634 C7.90644995,8.44641634 7.74999995,8.6026375 7.74999995,8.7959044 C7.74999995,9.5301788 8.20033515,10.3986566 8.84853516,11.1549488 C8.29588515,11.6627549 7.6447595,12.0859958 6.94335949,12.3194538 C6.76030949,12.3802647 6.66062494,12.5776108 6.72187494,12.7610921 C6.77087494,12.9071781 6.90745159,13 7.05410159,13 C7.09050159,13 7.12809369,12.9938022 7.16484369,12.9815701 C7.9680937,12.7142117 8.70506806,12.2346921 9.32841806,11.6573378 C9.84999997,11.1549488 9.32841806,11.6573378 9.81855492,11.159727 C10.6995046,10.1678799 11.25,9.00105389 11.25,8.09692829 L11.25,7.74744024 L12.65,7.74744024 C12.84355,7.74744024 13,7.59121908 13,7.39795218 C13,7.20468529 12.84355,7.04846413 12.65,7.04846413 L9.84999997,7.04846413 L9.84999997,6.34948805 C9.84999997,6.15622116 9.69354997,6 9.5,6 Z" stroke="#414851" stroke-width="0.3"></path>
        </g>
    </g>
</svg>
