<?xml version="1.0" encoding="UTF-8"?>
<svg width="24px" height="24px" viewBox="0 0 24 24" version="1.1" xmlns="http://www.w3.org/2000/svg" xmlns:xlink="http://www.w3.org/1999/xlink">
    <title>trash</title>
    <g stroke="none" stroke-width="1" fill="none" fill-rule="evenodd">
        <g>
            <rect fill-opacity="0" fill="#FFFFFF" x="0" y="0" width="24" height="24"></rect>
            <path d="M13.4617073,4 C14.5955602,4 15.5240637,4.87920549 15.6026597,5.99305852 L15.6080488,6.14634146 L15.608,6.926 L18.5836585,6.92682927 C18.9608286,6.92682927 19.2665854,7.23258602 19.2665854,7.6097561 C19.2665854,7.95549533 19.0096648,8.24122754 18.6763277,8.28644861 L18.5836585,8.29268293 L17.803,8.292 L17.8031707,17.8536585 C17.8031707,18.9875114 16.9239652,19.9160149 15.8101122,19.9946109 L15.6568293,20 L8.3397561,20 C7.20590321,20 6.27739976,19.1207945 6.19880372,18.0069415 L6.19341463,17.8536585 L6.193,8.292 L5.41292683,8.29268293 C5.03575676,8.29268293 4.73,7.98692617 4.73,7.6097561 C4.73,7.26401686 4.98692061,6.97828465 5.3202577,6.93306359 L5.41292683,6.92682927 L8.388,6.926 L8.38853659,6.14634146 C8.38853659,5.01248857 9.26774208,4.08398513 10.3815951,4.00538909 L10.534878,4 L13.4617073,4 Z M16.437,8.292 L7.559,8.292 L7.55926829,17.8536585 C7.55926829,18.2515522 7.85701283,18.579904 8.24185337,18.6280652 L8.3397561,18.6341463 L15.6568293,18.6341463 C16.054723,18.6341463 16.3830747,18.3364018 16.431236,17.9515613 L16.4373171,17.8536585 L16.437,8.292 Z M10.534878,10.5853659 C10.8806173,10.5853659 11.1663495,10.8422865 11.2115706,11.1756236 L11.2178049,11.2682927 L11.2178049,15.6585366 C11.2178049,16.0357067 10.9120481,16.3414634 10.534878,16.3414634 C10.1891388,16.3414634 9.9034066,16.0845428 9.85818554,15.7512057 L9.85195122,15.6585366 L9.85195122,11.2682927 C9.85195122,10.8911226 10.157708,10.5853659 10.534878,10.5853659 Z M13.4617073,10.5853659 C13.8074466,10.5853659 14.0931788,10.8422865 14.1383998,11.1756236 L14.1446341,11.2682927 L14.1446341,15.6585366 C14.1446341,16.0357067 13.8388774,16.3414634 13.4617073,16.3414634 C13.1159681,16.3414634 12.8302359,16.0845428 12.7850148,15.7512057 L12.7787805,15.6585366 L12.7787805,11.2682927 C12.7787805,10.8911226 13.0845372,10.5853659 13.4617073,10.5853659 Z M13.4617073,5.36585366 L10.534878,5.36585366 C10.1369843,5.36585366 9.8086326,5.66359819 9.76047135,6.04843873 L9.75439024,6.14634146 L9.754,6.926 L14.242,6.926 L14.2421951,6.14634146 C14.2421951,5.74844776 13.9444506,5.42009602 13.55961,5.37193477 L13.4617073,5.36585366 Z" fill="#414851"></path>
        </g>
    </g>
</svg>
