<svg width="24" height="24" viewBox="0 0 24 24" fill="none" xmlns="http://www.w3.org/2000/svg">
<path d="M14.3999 16.75C13.9857 16.75 13.6499 16.4142 13.6499 16C13.6499 15.5858 13.9857 15.25 14.3999 15.25H18.316L12.7714 9.0893L8.53033 13.3303C8.23744 13.6232 7.76256 13.6232 7.46967 13.3303L3.46967 9.33032C3.17678 9.03743 3.17678 8.56256 3.46967 8.26966C3.76256 7.97677 4.23744 7.97677 4.53033 8.26966L8 11.7393L12.2697 7.46966C12.4152 7.32417 12.614 7.24484 12.8197 7.25025C13.0254 7.25566 13.2198 7.34533 13.3575 7.49827L19.2499 14.0454V10.4C19.2499 9.98579 19.5857 9.65 19.9999 9.65C20.4141 9.65 20.7499 9.98579 20.7499 10.4V15.9872C20.7508 16.0422 20.7457 16.0972 20.7347 16.1512C20.7289 16.1793 20.7216 16.2069 20.7128 16.2337C20.6733 16.3543 20.6028 16.4665 20.5017 16.5575C20.4159 16.6347 20.3171 16.6885 20.2132 16.7192C20.1658 16.7333 20.1164 16.7428 20.0656 16.7472C20.0439 16.749 20.0222 16.75 20.0005 16.75C20.0003 16.75 20.0007 16.75 20.0005 16.75L14.3999 16.75Z" fill="#8B8E92"/>
</svg>
