<svg width="24" height="24" viewBox="0 0 24 24" fill="none" xmlns="http://www.w3.org/2000/svg">
<path d="M14.3999 7.25C13.9857 7.25 13.6499 7.58579 13.6499 8C13.6499 8.41421 13.9857 8.75 14.3999 8.75H18.316L12.7714 14.9107L8.53033 10.6697C8.23744 10.3768 7.76256 10.3768 7.46967 10.6697L3.46967 14.6697C3.17678 14.9626 3.17678 15.4374 3.46967 15.7303C3.76256 16.0232 4.23744 16.0232 4.53033 15.7303L8 12.2607L12.2697 16.5303C12.4152 16.6758 12.614 16.7552 12.8197 16.7497C13.0254 16.7443 13.2198 16.6547 13.3575 16.5017L19.2499 9.95458V13.6C19.2499 14.0142 19.5857 14.35 19.9999 14.35C20.4141 14.35 20.7499 14.0142 20.7499 13.6V8.01275C20.7508 7.95779 20.7457 7.90279 20.7347 7.84885C20.7289 7.82071 20.7216 7.79315 20.7128 7.76626C20.6733 7.64568 20.6028 7.53349 20.5017 7.44254C20.4159 7.36526 20.3171 7.31148 20.2132 7.28077C20.1658 7.26673 20.1164 7.25724 20.0656 7.25283C20.0439 7.25095 20.0222 7.25001 20.0005 7.25C20.0003 7.25 20.0007 7.25 20.0005 7.25L14.3999 7.25Z" fill="#8B8E92"/>
</svg>
