<?xml version="1.0" encoding="UTF-8"?>
<svg width="24px" height="24px" viewBox="0 0 24 24" version="1.1" xmlns="http://www.w3.org/2000/svg" xmlns:xlink="http://www.w3.org/1999/xlink">
    <title>truck</title>
    <g stroke="none" stroke-width="1" fill="none" fill-rule="evenodd">
        <g fill="#414851" fill-rule="nonzero">
            <path d="M10.3333333,2.91666667 C10.7130291,2.91666667 11.0268243,3.19882055 11.0764867,3.56489611 L11.0833333,3.66666667 L11.0833333,6.24966667 L17,6.25 C17.3059118,6.25 17.576929,6.43506511 17.6920012,6.71068195 L17.7276069,6.81809828 L18.476,9.816 L21.5020769,11.3291796 C21.7244039,11.4403431 21.8750789,11.6530693 21.9092738,11.8948247 L21.9166667,12 L21.9166667,17 C21.9166667,17.3796958 21.6345128,17.693491 21.2684372,17.7431534 L21.1666667,17.75 L17.7473333,17.7496667 L17.75,17.8333333 C17.75,19.5663648 16.3935452,20.9825793 14.6844239,21.0781885 L14.5,21.0833333 C12.7050746,21.0833333 11.25,19.6282588 11.25,17.8333333 C11.25,17.8054138 11.2503521,17.7775764 11.251052,17.7498255 L10.3333333,17.75 C9.95363757,17.75 9.63984237,17.4678461 9.59017995,17.1017706 L9.58333333,17 L9.58333333,7 L9.583,4.416 L2.83333333,4.41666667 C2.45363757,4.41666667 2.13984237,4.13451279 2.09017995,3.76843722 L2.08333333,3.66666667 C2.08333333,3.2869709 2.36548721,2.97317571 2.73156278,2.92351328 L2.83333333,2.91666667 L10.3333333,2.91666667 Z M14.5,16.0833333 C13.5335017,16.0833333 12.75,16.866835 12.75,17.8333333 C12.75,18.7998316 13.5335017,19.5833333 14.5,19.5833333 C15.4664983,19.5833333 16.25,18.7998316 16.25,17.8333333 C16.25,16.866835 15.4664983,16.0833333 14.5,16.0833333 Z M7,15.4166667 C7.41421356,15.4166667 7.75,15.7524531 7.75,16.1666667 C7.75,16.5463624 7.46784612,16.8601576 7.10177056,16.9098201 L7,16.9166667 L6.16666667,16.9166667 C5.7524531,16.9166667 5.41666667,16.5808802 5.41666667,16.1666667 C5.41666667,15.7869709 5.69882055,15.4731757 6.06489611,15.4235133 L6.16666667,15.4166667 L7,15.4166667 Z M16.414,7.75 L11.083,7.75 L11.083,16.25 L11.6614185,16.2494269 C12.217277,15.2553828 13.2801557,14.5833333 14.5,14.5833333 C15.7198443,14.5833333 16.782723,15.2553828 17.3385815,16.2494269 L20.416,16.25 L20.416,12.463 L17.4979231,11.0041537 C17.3347322,10.9225582 17.2080435,10.7849329 17.1396169,10.6184039 L17.1057265,10.5152351 L16.414,7.75 Z M7,11.25 C7.41421356,11.25 7.75,11.5857864 7.75,12 C7.75,12.3796958 7.46784612,12.693491 7.10177056,12.7431534 L7,12.75 L4.5,12.75 C4.08578644,12.75 3.75,12.4142136 3.75,12 C3.75,11.6203042 4.03215388,11.306509 4.39822944,11.2568466 L4.5,11.25 L7,11.25 Z M13.6666667,8.75 C14.0463624,8.75 14.3601576,9.03215388 14.4098201,9.39822944 L14.4166667,9.5 L14.416,10.416 L15.3333333,10.4166667 C15.7130291,10.4166667 16.0268243,10.6988205 16.0764867,11.0648961 L16.0833333,11.1666667 C16.0833333,11.5463624 15.8011795,11.8601576 15.4351039,11.9098201 L15.3333333,11.9166667 L13.6666667,11.9166667 C13.2869709,11.9166667 12.9731757,11.6345128 12.9235133,11.2684372 L12.9166667,11.1666667 L12.9166667,9.5 C12.9166667,9.08578644 13.2524531,8.75 13.6666667,8.75 Z M7,7.08333333 C7.41421356,7.08333333 7.75,7.41911977 7.75,7.83333333 C7.75,8.2130291 7.46784612,8.52682429 7.10177056,8.57648672 L7,8.58333333 L2.83333333,8.58333333 C2.41911977,8.58333333 2.08333333,8.2475469 2.08333333,7.83333333 C2.08333333,7.45363757 2.36548721,7.13984237 2.73156278,7.09017995 L2.83333333,7.08333333 L7,7.08333333 Z"></path>
        </g>
    </g>
</svg>
