<?xml version="1.0" encoding="UTF-8"?>
<svg width="24px" height="24px" viewBox="0 0 24 24" version="1.1" xmlns="http://www.w3.org/2000/svg" xmlns:xlink="http://www.w3.org/1999/xlink">
    <title>two-fa-restore</title>
    <g stroke="none" stroke-width="1" fill="none" fill-rule="evenodd">
        <g fill="#414851" fill-rule="nonzero">
            <path d="M12.0545231,2.91865108 L12.1626978,2.93452637 L19.6626978,4.60119304 C20.005851,4.6774493 20.25,4.98180935 20.25,5.33333333 L20.25,5.33333333 L20.25,13.6666667 C20.25,18.2230158 16.5563491,21.9166667 12,21.9166667 C7.44365086,21.9166667 3.75,18.2230158 3.75,13.6666667 L3.75,13.6666667 L3.75,5.33333333 C3.75,4.98180935 3.99414899,4.6774493 4.33730216,4.60119304 L4.33730216,4.60119304 L11.8373022,2.93452637 C11.9444604,2.91071343 12.0555396,2.91071343 12.1626978,2.93452637 Z M12,4.43466667 L5.25,5.93366667 L5.25,13.6666667 C5.25,17.3152712 8.14484699,20.2877481 11.7630284,20.4125848 L11.7630284,20.4125848 L12,20.4166667 C15.727922,20.4166667 18.75,17.3945887 18.75,13.6666667 L18.75,13.6666667 L18.75,5.93466667 L12,4.43466667 Z M16.1666667,11.25 C16.5808802,11.25 16.9166667,11.5857864 16.9166667,12 C16.9166667,14.7058802 14.7058802,16.9166667 12,16.9166667 C10.770529,16.9166667 9.62421924,16.4676405 8.75246856,15.6975437 L8.65986573,16.3924394 C8.60884842,16.7686921 8.28709041,17.0417555 7.91766156,17.0417555 L7.81589391,17.0348657 C7.43964119,16.9838484 7.16657787,16.6620904 7.16657787,16.2926616 L7.1734676,16.1908939 L7.50680093,13.7325606 C7.55773819,13.3568983 7.87861492,13.0840192 8.24749555,13.0832488 L8.34912279,13.0899124 L10.8491228,13.4232457 C11.2597028,13.4779897 11.5481649,13.8552094 11.4934209,14.2657895 C11.4432389,14.6421545 11.1220878,14.9159065 10.7526599,14.9167514 L10.6508772,14.9100876 L10.0838976,14.8354173 C10.6321557,15.2062089 11.2950682,15.4166667 12,15.4166667 C13.8774531,15.4166667 15.4166667,13.8774531 15.4166667,12 C15.4166667,11.5857864 15.7524531,11.25 16.1666667,11.25 Z M16.0823384,6.95824453 L16.1841061,6.96513427 C16.5603588,7.01615158 16.8334221,7.33790959 16.8334221,7.70733844 L16.8265324,7.80910609 L16.4931991,10.2674394 C16.4422618,10.6431017 16.1213851,10.9159808 15.7525045,10.9167512 L15.6508772,10.9100876 L13.1508772,10.5767543 C12.7402972,10.5220103 12.4518351,10.1447906 12.5065791,9.73421054 C12.5567611,9.35784551 12.8779122,9.08409346 13.2473401,9.08324859 L13.3491228,9.08991241 L13.9171107,9.16526491 C13.3686571,8.79404925 12.7053641,8.58333333 12,8.58333333 C10.1225469,8.58333333 8.58333333,10.1225469 8.58333333,12 C8.58333333,12.4142136 8.2475469,12.75 7.83333333,12.75 C7.41911977,12.75 7.08333333,12.4142136 7.08333333,12 C7.08333333,9.29411977 9.29411977,7.08333333 12,7.08333333 C13.2290027,7.08333333 14.3749074,7.53201744 15.246535,8.30157631 L15.3401343,7.60756058 C15.3865136,7.26551265 15.6566457,7.00876574 15.9829346,6.96489267 L16.0823384,6.95824453 Z"></path>
        </g>
    </g>
</svg>
