<?xml version="1.0" encoding="UTF-8"?>
<svg width="24px" height="24px" viewBox="0 0 24 24" version="1.1" xmlns="http://www.w3.org/2000/svg" xmlns:xlink="http://www.w3.org/1999/xlink">
    <title>ufo</title>
    <g stroke="none" stroke-width="1" fill="none" fill-rule="evenodd">
        <g fill="#414851" fill-rule="nonzero">
            <path d="M12,18.75 C12.3796958,18.75 12.693491,19.0321539 12.7431534,19.3982294 L12.75,19.5 L12.75,21.1666667 C12.75,21.5808802 12.4142136,21.9166667 12,21.9166667 C11.6203042,21.9166667 11.306509,21.6345128 11.2568466,21.2684372 L11.25,21.1666667 L11.25,19.5 C11.25,19.0857864 11.5857864,18.75 12,18.75 Z M16.5047588,18.2346465 L16.5539572,18.3239977 L17.2581239,19.834831 C17.4331074,20.210269 17.2706069,20.6564737 16.895169,20.8314572 C16.5510175,20.9918587 16.1474023,20.86868 15.9477412,20.5578535 L15.8985428,20.4685023 L15.1943761,18.957669 C15.0193926,18.582231 15.1818931,18.1360263 15.557331,17.9610428 C15.9014825,17.8006413 16.3050977,17.92382 16.5047588,18.2346465 Z M8.44266897,17.9610428 C8.78682042,18.1214443 8.95204522,18.509747 8.84241091,18.8625331 L8.80562387,18.957669 L8.10145721,20.4685023 C7.92647372,20.8439403 7.48026898,21.0064407 7.10483103,20.8314572 C6.76067958,20.6710557 6.59545478,20.282753 6.70508909,19.9299669 L6.74187613,19.834831 L7.44604279,18.3239977 C7.62102628,17.9485597 8.06723102,17.7860593 8.44266897,17.9610428 Z M12,2.08333333 C12.3796958,2.08333333 12.693491,2.36548721 12.7431534,2.73156278 L12.75,2.83333333 L12.7503878,4.6256301 C15.9578339,4.98955647 18.4662797,7.65831945 18.5793522,10.9355459 L18.5833333,11.1666667 L18.5832607,11.3187243 C20.4801649,11.6708847 21.9166667,13.3344542 21.9166667,15.3333333 C21.9166667,15.7475469 21.5808802,16.0833333 21.1666667,16.0833333 L21.1666667,16.0833333 L2.83333333,16.0833333 C2.41911977,16.0833333 2.08333333,15.7475469 2.08333333,15.3333333 C2.08333333,13.3344542 3.51983511,11.6708847 5.41673927,11.3187243 L5.41666667,11.1666667 C5.41666667,7.78452446 7.96708543,4.99807535 11.2496122,4.6256301 L11.25,2.83333333 C11.25,2.41911977 11.5857864,2.08333333 12,2.08333333 Z M17.8333333,12.75 L6.16666667,12.75 C5.01439685,12.75 4.0382049,13.5046016 3.70535999,14.5465356 L3.70535999,14.5465356 L3.69433333,14.5833333 L20.3053333,14.5833333 L20.29464,14.5465356 C19.9776449,13.5542175 19.077115,12.8225184 17.996695,12.7550829 L17.996695,12.7550829 L17.8333333,12.75 Z M12,6.08333333 C9.26453287,6.08333333 7.03372796,8.24399806 6.92112618,10.9517866 L6.91666667,11.1666667 L6.91633333,11.2493333 L17.0823333,11.2493333 L17.0833333,11.1666667 C17.0833333,8.35921356 14.8074531,6.08333333 12,6.08333333 Z M12,7.83333333 C12.4602373,7.83333333 12.8333333,8.20642938 12.8333333,8.66666667 C12.8333333,9.12690396 12.4602373,9.5 12,9.5 C11.5397627,9.5 11.1666667,9.12690396 11.1666667,8.66666667 C11.1666667,8.20642938 11.5397627,7.83333333 12,7.83333333 Z"></path>
        </g>
    </g>
</svg>
