<?xml version="1.0" encoding="UTF-8"?>
<svg width="24px" height="24px" viewBox="0 0 24 24" version="1.1" xmlns="http://www.w3.org/2000/svg" xmlns:xlink="http://www.w3.org/1999/xlink">
    <title>undo</title>
    <g stroke="none" stroke-width="1" fill="none" fill-rule="evenodd">
        <g transform="translate(4.000000, 4.000000)">
            <rect x="0" y="0" width="16" height="16"></rect>
            <g stroke-linecap="square" transform="translate(0.333333, 0.333333)" fill="#414851" fill-rule="nonzero">
                <path d="M10.3333333,0.3 C13.297266,0.3 15.7,2.70273401 15.7,5.66666667 C15.7,8.55830828 13.4130432,10.9157929 10.5491782,11.029072 L10.3333333,11.0333333 L2.68905051,11.033 L5.32328283,13.6666667 L4.33333333,14.6566162 L0.0100505063,10.3333333 L4.33333333,6.01005051 L5.32328283,7 L2.68705051,9.633 L10.3333333,9.63333333 C12.5240673,9.63333333 14.3,7.85740068 14.3,5.66666667 C14.3,3.54231854 12.6300688,1.80801318 10.5313104,1.7048545 L10.3333333,1.7 L6.36666667,1.7 C5.98006734,1.7 5.66666667,1.38659932 5.66666667,1 C5.66666667,0.613400675 5.98006734,0.3 6.36666667,0.3 L10.3333333,0.3 Z"></path>
            </g>
        </g>
    </g>
</svg>
