<svg width="18" height="18" viewBox="0 0 18 18" fill="none" xmlns="http://www.w3.org/2000/svg">
<path d="M9.2032 2.76586C9.18706 2.75909 9.17065 2.75317 9.15285 2.74769C9.10449 2.733 9.05318 2.7251 9.00002 2.7251L8.92878 2.72989L8.92265 2.7308C8.91506 2.73192 8.90749 2.73321 8.89986 2.73464C8.88417 2.73767 8.86874 2.7414 8.85343 2.74588C8.84097 2.74949 8.82863 2.75357 8.81683 2.75794C8.80462 2.76249 8.79263 2.76748 8.78048 2.77305C8.77059 2.7776 8.76082 2.78247 8.75127 2.78766C8.73441 2.79675 8.7181 2.80673 8.70255 2.81739C8.67659 2.83528 8.65188 2.85577 8.62879 2.87887L5.50379 6.00387L5.44844 6.06894C5.30082 6.2741 5.31927 6.56181 5.50379 6.74633C5.70882 6.95135 6.04123 6.95135 6.24626 6.74633L8.47552 4.51835L8.47502 10.7501L8.47982 10.8213C8.51458 11.0776 8.73424 11.2751 9.00002 11.2751C9.28997 11.2751 9.52502 11.04 9.52502 10.7501L9.52552 4.51835L11.7538 6.74633L11.8189 6.80168C12.024 6.9493 12.3117 6.93085 12.4963 6.74633C12.7013 6.5413 12.7013 6.20889 12.4963 6.00387L9.37125 2.87887L9.3608 2.86869C9.34794 2.85653 9.33446 2.845 9.32043 2.83417L9.30618 2.82351L9.29975 2.81901C9.28654 2.8098 9.27287 2.80119 9.2588 2.79315C9.24785 2.78695 9.23673 2.78116 9.22536 2.77578C9.21805 2.7723 9.21065 2.76899 9.2032 2.76586Z" fill="currentColor"/>
<path d="M14.5202 11.3039C14.4854 11.0476 14.2658 10.8501 14 10.8501C13.71 10.8501 13.475 11.0851 13.475 11.3751V12.6251L13.4701 12.7096C13.4282 13.0702 13.1218 13.3501 12.75 13.3501H5.24998L5.16543 13.3452C4.80485 13.3033 4.52498 12.9969 4.52498 12.6251V11.3751L4.52018 11.3039C4.48542 11.0476 4.26576 10.8501 3.99998 10.8501C3.71003 10.8501 3.47498 11.0851 3.47498 11.3751V12.6251L3.47907 12.7466C3.54152 13.6702 4.31052 14.4001 5.24998 14.4001H12.75L12.8715 14.396C13.7951 14.3335 14.525 13.5646 14.525 12.6251V11.3751L14.5202 11.3039Z" fill="currentColor"/>
</svg>
