<?xml version="1.0" encoding="UTF-8"?>
<svg width="24px" height="24px" viewBox="0 0 24 24" version="1.1" xmlns="http://www.w3.org/2000/svg" xmlns:xlink="http://www.w3.org/1999/xlink">
    <title>users-exchange</title>
    <g stroke="none" stroke-width="1" fill="none" fill-rule="evenodd">
        <g fill="#2B2B2B" fill-rule="nonzero">
            <path d="M17.8333333,13.0166667 C19.1131518,13.0166667 20.15,14.0535149 20.15,15.3333333 L20.15,15.3333333 L20.15,16.1666667 C20.15,16.6912634 19.9751478,17.1770754 19.6769337,17.5670659 L20.89,18.48 C21.4250343,18.8812757 21.7578298,19.491134 21.8095802,20.1519622 L21.8166667,20.3333333 L21.8166667,21.1666667 C21.8166667,21.4930167 21.5761585,21.7631931 21.2627189,21.809619 L21.1666667,21.8166667 L14.5,21.8166667 C14.1736499,21.8166667 13.9034735,21.5761585 13.8570477,21.2627189 L13.85,21.1666667 L13.85,20.3333333 C13.85,19.6645404 14.1382093,19.0323891 14.6350108,18.5951013 L14.775614,18.4807912 L15.9880676,17.5678608 C15.6922397,17.1788178 15.5166667,16.6933137 15.5166667,16.1666667 L15.5166667,16.1666667 L15.5166667,15.3333333 C15.5166667,14.1278183 16.4400144,13.127115 17.661872,13.0233679 L17.661872,13.0233679 Z M4.5,13.0166667 C4.82635008,13.0166667 5.09652646,13.2571749 5.14295233,13.5706144 L5.15,13.6666667 L5.14933333,17.1833333 L9.59733333,17.1833333 L8.20704726,15.7929527 C7.97859055,15.564496 7.95574488,15.208289 8.13851025,14.9542822 L8.20704726,14.8737139 C8.43550397,14.6452572 8.791711,14.6224115 9.04571778,14.8051769 L9.12628607,14.8737139 L11.6223297,17.3697911 C11.6395998,17.3867695 11.6559254,17.4047055 11.6712205,17.4235133 L11.6262861,17.3737139 C11.6602266,17.4076544 11.689629,17.4444146 11.7144933,17.4832403 C11.762561,17.5581933 11.7958832,17.6445451 11.809619,17.7372811 L11.8166667,17.8333333 C11.8166667,17.8875455 11.8100299,17.9402076 11.7975246,17.9905514 C11.7939983,18.0045843 11.7898645,18.0191197 11.7852152,18.0335249 C11.7678521,18.0872114 11.7438985,18.1374596 11.714247,18.1837046 C11.708225,18.1932144 11.7016682,18.2028711 11.6948231,18.2123844 C11.669284,18.2472514 11.6443198,18.2757929 11.6170772,18.3019818 L9.12628607,20.7929527 C8.87244528,21.0467935 8.46088805,21.0467935 8.20704726,20.7929527 C7.97859055,20.564496 7.95574488,20.208289 8.13851025,19.9542822 L8.20704726,19.8737139 L9.59733333,18.4833333 L4.5,18.4833333 C4.17364992,18.4833333 3.90347354,18.2428251 3.85704767,17.9293856 L3.85,17.8333333 L3.85,13.6666667 C3.85,13.3076816 4.14101491,13.0166667 4.5,13.0166667 Z M18.5684988,18.3598742 C18.3900491,18.4200698 18.2012816,18.4599485 18.0047947,18.4766321 L18.0047947,18.4766321 L17.8333333,18.4833333 C17.5747399,18.4833333 17.326066,18.4410028 17.0938604,18.3628906 L15.5566667,19.52 C15.3323812,19.6882141 15.1892411,19.9394497 15.1569606,20.2142784 L15.15,20.3333333 L15.1493333,20.5163333 L20.5163333,20.5163333 L20.5166667,20.3333333 C20.5166667,20.0529765 20.4015622,19.7877231 20.2003624,19.5964714 L20.1089473,19.5192088 Z M17.8353333,14.3163333 L17.7447823,14.3204243 C17.221918,14.3650749 16.8166667,14.8042772 16.8166667,15.3333333 L16.8166667,15.3333333 L16.8166667,16.1666667 C16.8166667,16.5286997 17.0055077,16.8462939 17.2827575,17.0265589 C17.3164761,17.0413928 17.3484881,17.0598413 17.3789487,17.081124 C17.5091016,17.1470556 17.6542215,17.1837534 17.8057292,17.1839197 L17.8057292,17.1839197 L17.9218843,17.1795757 C18.4447486,17.1349251 18.85,16.6957228 18.85,16.1666667 L18.85,16.1666667 L18.85,15.3333333 C18.85,14.7714851 18.3951816,14.3166667 17.8353333,14.3163333 L17.8353333,14.3163333 Z M6.16666667,2.18333333 C7.44648509,2.18333333 8.48333333,3.22018158 8.48333333,4.5 L8.48333333,4.5 L8.48333333,5.33333333 C8.48333333,5.85747032 8.30878745,6.34289053 8.01105081,6.73270692 L9.22333333,7.64666667 C9.75836765,8.0479424 10.0911631,8.65780062 10.1429135,9.31862882 L10.15,9.5 L10.15,10.3333333 C10.15,10.6596834 9.90949181,10.9298598 9.59605224,10.9762857 L9.5,10.9833333 L2.83333333,10.9833333 C2.50698325,10.9833333 2.23680687,10.7428251 2.190381,10.4293856 L2.18333333,10.3333333 L2.18333333,9.5 C2.18333333,8.83120711 2.47154262,8.19905579 2.96834412,7.76176795 L3.10894733,7.64745783 L4.32130808,6.73440533 C4.02553629,6.34538289 3.85,5.85992529 3.85,5.33333333 L3.85,5.33333333 L3.85,4.5 C3.85,3.29448492 4.77334773,2.29378165 5.99520528,2.19003458 L5.99520528,2.19003458 Z M15.7929527,3.20704726 C16.0214095,3.43550397 16.0442551,3.791711 15.8614898,4.04571778 L15.7929527,4.12628607 L14.4023333,5.51633333 L19.5,5.51666667 C19.8263501,5.51666667 20.0965265,5.75717486 20.1429523,6.07061443 L20.15,6.16666667 L20.15,10.3333333 C20.15,10.6923184 19.8589851,10.9833333 19.5,10.9833333 C19.1736499,10.9833333 18.9034735,10.7428251 18.8570477,10.4293856 L18.85,10.3333333 L18.8493333,6.81633333 L14.4023333,6.81633333 L15.7929527,8.20704726 C16.0214095,8.43550397 16.0442551,8.791711 15.8614898,9.04571778 L15.7929527,9.12628607 C15.564496,9.35474279 15.208289,9.37758846 14.9542822,9.19482309 L14.8737139,9.12628607 L12.3767253,6.62927796 C12.3266888,6.57988675 12.2846257,6.52243746 12.2526408,6.45903499 C12.1901635,6.33428646 12.1701247,6.19546031 12.1917539,6.0620789 L12.1833333,6.16666667 C12.1833333,6.09773464 12.1940635,6.03130876 12.2139445,5.9689682 C12.2142277,5.96820903 12.2143366,5.96786873 12.2144458,5.96752851 C12.2334358,5.90785 12.2617227,5.85065847 12.2973171,5.7988817 C12.2996858,5.79533619 12.3024077,5.79146414 12.3051769,5.78761556 C12.3291424,5.75489477 12.3522197,5.72818548 12.3772921,5.70349657 L14.8737139,3.20704726 C15.1275547,2.95320647 15.539112,2.95320647 15.7929527,3.20704726 Z M6.90252948,7.52630552 C6.72387426,7.58663252 6.53487093,7.62659345 6.33812805,7.64329875 L6.33812805,7.64329875 L6.16666667,7.65 C5.90776087,7.65 5.65879859,7.60756717 5.42635237,7.52927405 L3.89,8.68666667 C3.66571457,8.85488074 3.52257448,9.10611633 3.49029391,9.38094505 L3.48333333,9.5 L3.48333333,9.68333333 L8.84933333,9.68333333 L8.85,9.5 C8.85,9.21964322 8.73489558,8.95438978 8.53369574,8.76313808 L8.44228067,8.6858755 Z M6.16666667,3.48333333 L6.07811566,3.48709099 C5.55525137,3.5317416 5.15,3.97094382 5.15,4.5 L5.15,4.5 L5.15,5.33333333 C5.15,5.69452149 5.33796067,6.01147794 5.61415122,6.19196127 C5.65258147,6.20970273 5.68259034,6.22713103 5.71123469,6.24706043 C5.84102518,6.3133649 5.98681884,6.3504193 6.1390625,6.35058641 L6.1390625,6.35058641 L6.25521767,6.34624234 C6.77808196,6.30159174 7.18333333,5.86238951 7.18333333,5.33333333 L7.18333333,5.33333333 L7.18333333,4.5 C7.18333333,3.93815175 6.72851491,3.48333333 6.16666667,3.48333333 L6.16666667,3.48333333 Z"></path>
        </g>
    </g>
</svg>
