<svg width="24" height="24" viewBox="0 0 24 24" fill="none" xmlns="http://www.w3.org/2000/svg">
<path fill-rule="evenodd" clip-rule="evenodd" d="M10.8945 3C8.64273 3 6.81729 4.8525 6.81729 7.13767C6.81729 9.42284 8.64273 11.2753 10.8945 11.2753C13.1463 11.2753 14.9717 9.42284 14.9717 7.13767C14.9717 4.8525 13.1463 3 10.8945 3ZM8.33761 7.13767C8.33761 5.70459 9.48238 4.54286 10.8945 4.54286C12.3067 4.54286 13.4514 5.70459 13.4514 7.13767C13.4514 8.57074 12.3067 9.73247 10.8945 9.73247C9.48238 9.73247 8.33761 8.57074 8.33761 7.13767Z" fill="#2B2B2B"/>
<path d="M10.8943 12.7247C6.81021 12.7247 3.5 16.084 3.5 20.2286C3.5 20.6546 3.84034 21 4.26016 21H10.1572C10.577 21 10.9173 20.6546 10.9173 20.2286C10.9173 19.8025 10.577 19.4571 10.1572 19.4571H5.06904C5.44176 16.5291 7.90746 14.2675 10.8943 14.2675C11.3438 14.2675 11.7812 14.3186 12.2002 14.4152C12.6096 14.5095 13.0169 14.2492 13.1098 13.8337C13.2028 13.4183 12.9463 13.005 12.5369 12.9106C12.0079 12.7887 11.4576 12.7247 10.8943 12.7247Z" fill="#2B2B2B"/>
<path d="M19.75 16.75C20.1642 16.75 20.5 17.0858 20.5 17.5C20.5 17.9142 20.1642 18.25 19.75 18.25H13.75C13.3358 18.25 13 17.9142 13 17.5C13 17.0858 13.3358 16.75 13.75 16.75H19.75Z" fill="#2B2B2B"/>
</svg>
