<?xml version="1.0" encoding="UTF-8"?>
<svg width="24" height="24" viewBox="0 0 24 24" fill="none" xmlns="http://www.w3.org/2000/svg">
    <title>user-key</title>
    <path d="M11.2779 3C13.7352 3 15.7279 4.99265 15.7279 7.45V7.91976C15.7279 8.03647 15.6469 8.13697 15.5343 8.16757C15.2531 8.24398 14.9792 8.34594 14.7163 8.47222C14.5412 8.55633 14.3279 8.4343 14.3279 8.24004V7.45C14.3279 5.76585 12.962 4.4 11.2779 4.4L11.1154 4.40424C9.50117 4.48873 8.2279 5.82626 8.2279 7.45V8.95C8.2279 9.90156 8.66393 10.7515 9.34375 11.3109C9.34599 11.3109 9.34915 11.3134 9.34915 11.3134L9.367 11.3299C9.88684 11.7492 10.5457 12.0001 11.2596 12.0002L11.4404 11.9958C11.5254 11.9913 11.6094 11.9834 11.6924 11.9721C11.8757 11.9473 12.0457 12.1047 12.0263 12.2887C11.9979 12.5588 11.9926 12.83 12.01 13.0995C12.0186 13.2317 11.9291 13.353 11.7975 13.3687C11.6978 13.3806 11.597 13.3892 11.4953 13.3946L11.2779 13.4C10.3224 13.4 9.43722 13.0987 8.71208 12.5861L8.66362 12.5922C7.98905 12.7162 7.09027 13.3072 6.00931 14.4023C5.18941 15.2328 5.19806 16.5708 6.02864 17.3907C6.38018 17.7378 6.84065 17.9493 7.32895 17.992L7.51321 18H12.714C12.8222 18 12.9167 18.0703 12.9595 18.1698C13.0069 18.2803 13.0648 18.3874 13.1331 18.4899L13.5663 19.1397C13.5846 19.1672 13.5944 19.1995 13.5944 19.2326C13.5944 19.325 13.5195 19.4 13.427 19.4H7.51324C6.58935 19.4 5.70262 19.0361 5.04511 18.3871C3.66427 17.024 3.64989 14.7996 5.01298 13.4187C5.94729 12.4723 6.80767 11.8169 7.61001 11.4666C7.11618 10.7521 6.8279 9.88467 6.8279 8.95V7.45C6.8279 5.08056 8.68519 3.12953 11.0605 3.00544L11.2779 3Z" fill="#2B2B2B"/>
    <path d="M15.9931 12.7999C15.9931 13.2402 16.3501 13.5971 16.7904 13.5971C17.2306 13.5971 17.5876 13.2402 17.5876 12.7999C17.5876 12.3596 17.2306 12.0027 16.7904 12.0027C16.3501 12.0027 15.9931 12.3596 15.9931 12.7999Z" fill="#2B2B2B"/>
    <path fill-rule="evenodd" clip-rule="evenodd" d="M20.244 12.0126C20.4206 12.7968 20.325 13.6177 19.9731 14.3404C19.6933 14.9148 19.2648 15.3999 18.7361 15.7478V20.968C18.7361 21.209 18.6202 21.4354 18.4246 21.5764C18.229 21.7174 17.9776 21.7557 17.7489 21.6795L15.3573 20.8823C15.051 20.7802 14.8444 20.4936 14.8444 20.1707V18.8034L14.1732 17.7965C14.0052 17.5446 14.0052 17.2164 14.1732 16.9645L14.8444 15.9576V15.7478C14.3157 15.3999 13.8872 14.9148 13.6074 14.3404C13.2555 13.6177 13.1599 12.7968 13.3365 12.0126C13.513 11.2285 13.9512 10.5277 14.5789 10.0256C15.2066 9.52353 15.9864 9.25 16.7902 9.25C17.594 9.25 18.3739 9.52353 19.0016 10.0256C19.6293 10.5277 20.0675 11.2285 20.244 12.0126ZM18.6245 13.6836C18.8273 13.2671 18.8824 12.794 18.7807 12.3421C18.6789 11.8902 18.4264 11.4863 18.0647 11.197C17.7029 10.9076 17.2535 10.75 16.7902 10.75C16.327 10.75 15.8776 10.9076 15.5158 11.197C15.1541 11.4863 14.9016 11.8902 14.7998 12.3421C14.6981 12.794 14.7531 13.2671 14.956 13.6836C15.1588 14.1 15.4973 14.4351 15.9159 14.6336C16.1776 14.7578 16.3444 15.0216 16.3444 15.3112V16.1847C16.3444 16.3328 16.3006 16.4775 16.2185 16.6007L15.6986 17.3805L16.2185 18.1603C16.3006 18.2835 16.3444 18.4283 16.3444 18.5763V19.6302L17.2361 19.9274V15.3112C17.2361 15.0216 17.4029 14.7578 17.6646 14.6336C18.0832 14.4351 18.4217 14.1 18.6245 13.6836Z" fill="#2B2B2B"/>
</svg>
