<?xml version="1.0" encoding="UTF-8"?>
<svg width="24px" height="24px" viewBox="0 0 24 24" version="1.1" xmlns="http://www.w3.org/2000/svg" xmlns:xlink="http://www.w3.org/1999/xlink">
    <title>user-permissions</title>
    <g stroke="none" stroke-width="1" fill="none" fill-rule="evenodd">
        <g transform="translate(3.000000, 3.000000)">
            <rect x="0" y="0" width="18" height="18"></rect>
            <g stroke-linecap="square" transform="translate(1.750000, 0.750000)" fill="#414851" fill-rule="nonzero">
                <path d="M7.27789877,0 C9.66503811,0 11.6136537,1.88041158 11.7230544,4.24054373 L11.7278988,4.45 L11.727,4.759 L11.5914109,4.76949995 C11.1466305,4.81216252 10.7216005,4.92373234 10.3271589,5.09337147 L10.3278988,4.45 C10.3278988,2.76584932 8.96204944,1.4 7.27789877,1.4 L7.11535957,1.40424198 C5.56095445,1.48560547 4.32268278,2.72890769 4.2330912,4.27081194 L4.22789877,4.45 L4.22789877,5.95 C4.22789877,6.90156393 4.66392924,7.75151409 5.34374567,8.31094433 C5.34598812,8.31092187 5.34757069,8.31213454 5.3491479,8.31335379 L5.36700385,8.32989369 C5.82907949,8.70261715 6.40098707,8.9422955 7.0238022,8.99102761 L7.25962908,9.00023846 L7.44043796,8.99575802 C7.54565923,8.99025034 7.6494319,8.97941836 7.75149773,8.96352989 L7.75,9 L7.75,9.765 L7.69658402,9.77046203 L7.5398403,9.7973558 C7.14025362,9.88048556 6.78169995,10.0683052 6.49233692,10.3297375 C5.83906411,10.2146379 5.23409405,9.95513682 4.71207695,9.58606414 L4.66362425,9.59224056 C3.9890459,9.71616139 3.09026966,10.3072382 2.00931357,11.402264 C1.18940884,12.2328406 1.1980601,13.5708201 2.0286367,14.3907248 C2.38018404,14.7377552 2.84065454,14.9492678 3.32894919,14.9919663 L3.51320554,15 L5.75,14.999 L5.75,16.399 L3.51324141,16.4 C2.58934686,16.4 1.70262371,16.0361212 1.0451087,15.3870544 C-0.335725547,14.0239622 -0.350108277,11.7995702 1.01298397,10.418736 C1.94729108,9.47226795 2.80766769,8.81692113 3.61001498,8.46661936 C3.16556228,7.82356279 2.88761031,7.05662936 2.83646444,6.22829854 L2.82789877,5.95 L2.82789877,4.45 C2.82789877,2.15235829 4.57433448,0.248157901 6.8460266,0.0217122172 L7.06049931,0.00543742548 L7.27789877,0 Z"></path>
                <path d="M12,6.25 C13.4581316,6.25 14.6580783,7.39594188 14.7449631,8.83294848 L14.75,9 L14.75,11.25 L16,11.25 C16.3796958,11.25 16.693491,11.5321539 16.7431534,11.8982294 L16.75,12 L16.75,17 C16.75,17.4142136 16.4142136,17.75 16,17.75 L16,17.75 L8,17.75 C7.58578644,17.75 7.25,17.4142136 7.25,17 L7.25,17 L7.25,12 C7.25,11.5857864 7.58578644,11.25 8,11.25 L8,11.25 L9.25,11.25 L9.25,9 C9.25,7.48578644 10.4857864,6.25 12,6.25 Z M15.25,12.75 L8.75,12.75 L8.75,16.25 L15.25,16.25 L15.25,12.75 Z M12,7.75 C11.3570752,7.75 10.8210016,8.24589083 10.7565038,8.87294779 L10.75,9 L10.75,11.25 L13.25,11.25 L13.25,9 C13.25,8.31421356 12.6857864,7.75 12,7.75 Z"></path>
            </g>
        </g>
    </g>
</svg>
