<svg width="24" height="24" viewBox="0 0 24 24" fill="none" xmlns="http://www.w3.org/2000/svg">
<path fill-rule="evenodd" clip-rule="evenodd" d="M6.81729 7.13767C6.81729 4.8525 8.64273 3 10.8945 3C13.1463 3 14.9717 4.8525 14.9717 7.13767C14.9717 9.42284 13.1463 11.2753 10.8945 11.2753C8.64273 11.2753 6.81729 9.42284 6.81729 7.13767ZM10.8945 4.54286C9.48238 4.54286 8.33761 5.70459 8.33761 7.13767C8.33761 8.57074 9.48238 9.73247 10.8945 9.73247C12.3067 9.73247 13.4514 8.57074 13.4514 7.13767C13.4514 5.70459 12.3067 4.54286 10.8945 4.54286Z" fill="#2B2B2B"/>
<path d="M3.5 20.2286C3.5 16.084 6.81021 12.7247 10.8943 12.7247C11.4576 12.7247 12.0079 12.7887 12.5369 12.9106C12.9463 13.005 13.2028 13.4183 13.1098 13.8337C13.0169 14.2492 12.6096 14.5095 12.2002 14.4152C11.7812 14.3186 11.3438 14.2675 10.8943 14.2675C7.90746 14.2675 5.44176 16.5291 5.06904 19.4571H10.1572C10.577 19.4571 10.9173 19.8025 10.9173 20.2286C10.9173 20.6546 10.577 21 10.1572 21H4.26016C3.84034 21 3.5 20.6546 3.5 20.2286Z" fill="#2B2B2B"/>
<path fill-rule="evenodd" clip-rule="evenodd" d="M18.066 12.2026C17.7691 11.9013 17.2878 11.9013 16.9909 12.2026L13.3053 15.9429C13.2079 16.0417 13.1388 16.1656 13.1054 16.3012L12.3682 19.2935C12.3035 19.5563 12.3794 19.8344 12.5682 20.026C12.757 20.2176 13.031 20.2947 13.2901 20.229L16.2386 19.4809C16.3722 19.447 16.4943 19.3769 16.5917 19.278L20.2774 15.5377C20.5742 15.2365 20.5742 14.748 20.2774 14.4468L18.066 12.2026ZM14.1504 18.4203L14.5292 16.8827L17.5285 13.839L18.6648 14.9922L15.6656 18.0359L14.1504 18.4203Z" fill="#2B2B2B"/>
</svg>
