<?xml version="1.0" encoding="UTF-8"?>
<svg width="24px" height="24px" viewBox="0 0 24 24" version="1.1" xmlns="http://www.w3.org/2000/svg" xmlns:xlink="http://www.w3.org/1999/xlink">
    <title>users</title>
    <g stroke="none" stroke-width="1" fill="none" fill-rule="evenodd">
        <g transform="translate(2.000000, 2.000000)">
            <rect x="1" y="1" width="18" height="18"></rect>
            <g stroke-linecap="square" transform="translate(0.750000, 0.750000)" fill="#414851" fill-rule="nonzero">
                <path d="M12.625,0.3 C14.3980269,0.3 15.846921,1.68775521 15.9447365,3.43631991 L15.95,3.625 L15.95,4.375 C15.95,4.80043546 15.8700995,5.20720886 15.7244858,5.58113279 C16.875461,6.02949107 17.6997158,6.95837428 18.1627134,8.31958727 C18.2662417,8.62396048 18.319061,8.94327482 18.319061,9.26477314 C18.319061,10.8279315 17.0971331,12.1056989 15.5563333,12.1950129 L15.383867,12.2 L14.5563567,12.1994545 C14.8469621,12.720867 15.0031221,13.3119684 15.0031221,13.9186866 C15.0031221,15.8039392 13.5257711,17.3441448 11.6655968,17.4447706 L11.4718442,17.45 L3.98534264,17.45 C3.06144809,17.45 2.17472494,17.0861212 1.51720993,16.4370544 C0.136375685,15.0739622 0.121992955,12.8495702 1.4850852,11.468736 C2.41939231,10.522268 3.27976893,9.86692113 4.08211621,9.51661936 C3.58827987,8.80211206 3.3,7.93467037 3.3,7 L3.3,7 L3.3,5.5 C3.3,3.13055699 5.15729345,1.1795296 7.53260054,1.05543743 L7.53260054,1.05543743 L7.75,1.05 C8.55411078,1.05 9.30846282,1.26336793 9.95951879,1.63656646 C10.5719385,0.812769022 11.550146,0.3 12.625,0.3 Z M5.18417818,10.6360641 L5.13572548,10.6422406 C4.46114713,10.7661614 3.56237089,11.3572382 2.4814148,12.452264 C1.66151007,13.2828406 1.67016133,14.6208201 2.50073793,15.4407248 C2.85228527,15.7877552 3.31275577,15.9992678 3.80105042,16.0419663 L3.98530677,16.05 L11.4718283,16.05 C12.6489145,16.0499732 13.6031221,15.0957573 13.6031221,13.9186866 C13.6031221,13.3694159 13.3910613,12.8413522 13.0111712,12.4446385 C12.9300509,12.3599257 12.8492396,12.2781744 12.7687409,12.1993704 L12.75025,12.2 L12.7507091,12.1817623 C11.8881577,11.3415985 11.0615691,10.8400919 10.2753262,10.6597299 C9.6161388,11.116423 8.82557769,11.3997291 7.96739946,11.4445626 L7.96739946,11.4445626 L7.75,11.45 C6.79453374,11.45 5.90932104,11.1487493 5.18417818,10.6360641 Z M14.915268,6.78489365 C14.3169937,7.3530612 13.5115135,7.7 12.625,7.7 C12.4631736,7.7 12.3047936,7.68879977 12.1495925,7.66649582 C12.0458866,8.36072884 11.7803397,9.00401005 11.3918003,9.55577669 C12.0388124,9.82528993 12.6806627,10.2418356 13.3183597,10.8004601 L15.3838484,10.8 C16.2317275,10.7999774 16.919061,10.112637 16.919061,9.26477314 C16.919061,9.09661993 16.891435,8.92960901 16.8372866,8.77041273 C16.4641514,7.67339527 15.8396766,7.03310091 14.915268,6.78489365 Z M7.75,2.45 L7.5874608,2.45424198 C5.97327087,2.53873483 4.7,3.87626517 4.7,5.5 L4.7,5.5 L4.7,7 C4.7,7.95156393 5.13603048,8.80151409 5.8158469,9.36094433 C5.81808936,9.36092187 5.81967192,9.36213454 5.82124913,9.36335379 L5.83910508,9.37989369 C6.35894018,9.79920758 7.01778132,10.0501363 7.73173031,10.0502385 L7.73173031,10.0502385 L7.9125392,10.045758 C9.52672913,9.96126517 10.8,8.62373483 10.8,7 L10.8,7 L10.8,5.5 C10.8,3.81584932 9.43415068,2.45 7.75,2.45 L7.75,2.45 Z M12.625,1.7 C11.9835664,1.7 11.4024737,2.0142668 11.0493351,2.51558716 C11.7645677,3.30411896 12.2,4.3512867 12.2,5.5 L12.2,5.5 L12.1989815,6.25269178 C12.3354478,6.28432926 12.4764492,6.3 12.625,6.3 C13.6375245,6.3 14.4674626,5.51827726 14.5442084,4.52543795 L14.55,4.375 L14.55,3.625 C14.55,2.56184932 13.6881507,1.7 12.625,1.7 Z"></path>
            </g>
        </g>
    </g>
</svg>
