<?xml version="1.0" encoding="UTF-8"?>
<svg width="24px" height="24px" viewBox="0 0 24 24" version="1.1" xmlns="http://www.w3.org/2000/svg" xmlns:xlink="http://www.w3.org/1999/xlink">
    <title>user-merchant</title>
    <g stroke="none" stroke-width="1" fill="none" fill-rule="evenodd">
        <g fill="#414851" fill-rule="nonzero">
            <path d="M6.7236418,16.799347 L6.74324013,16.8968908 L6.75,17 L6.75,18.2497389 L10,18.25 C10.4142136,18.25 10.75,18.5857864 10.75,19 C10.75,19.3796958 10.4678461,19.693491 10.1017706,19.7431534 L10,19.75 L6.75,19.7497389 L6.75,21 C6.75,21.563785 6.15862308,21.9134441 5.67351663,21.6756079 L5.58397485,21.6240377 L2.58397485,19.6240377 C2.17048218,19.3483759 2.14094699,18.7644824 2.49536928,18.4447876 L2.58397485,18.3759623 L5.58397485,16.3759623 C6.02375372,16.0827764 6.59525728,16.3264536 6.7236418,16.799347 Z M17.2763582,16.799347 C17.4047427,16.3264536 17.9762463,16.0827764 18.4160251,16.3759623 L18.4160251,16.3759623 L21.4160251,18.3759623 L21.5046307,18.4447876 C21.859053,18.7644824 21.8295178,19.3483759 21.4160251,19.6240377 L21.4160251,19.6240377 L18.4160251,21.6240377 L18.3264834,21.6756079 C17.8413769,21.9134441 17.25,21.563785 17.25,21 L17.25,21 L17.25,19.7497389 L14,19.75 L13.8982294,19.7431534 C13.5321539,19.693491 13.25,19.3796958 13.25,19 C13.25,18.5857864 13.5857864,18.25 14,18.25 L14,18.25 L17.25,18.2497389 L17.25,17 L17.2567599,16.8968908 Z M12.2778988,2 C14.6650381,2 16.6136537,3.88041158 16.7230544,6.24054373 L16.7278988,6.45 L16.7278988,7.95 C16.7278988,8.8992749 16.4297919,9.78139156 15.919699,10.5057767 C16.8053523,10.8750325 17.6813315,11.518986 18.5502276,12.4263615 C19.179661,13.0836697 19.5310208,13.9586094 19.5310208,14.8686866 C19.5310208,15.1087211 19.5070716,15.343162 19.4614322,15.5697503 L19.1094004,15.3358994 C18.7982679,15.1284777 18.4602081,15.0217091 18.1253894,15.0012564 L18.1310208,14.8686866 C18.1310208,14.3194159 17.9189601,13.7913522 17.53907,13.3946385 C16.5821739,12.3953658 15.6682797,11.8081712 14.803225,11.6097299 C14.2172806,12.0156793 13.5275348,12.2846316 12.7787658,12.3708751 L12.4952982,12.3945626 L12.2778988,12.4 C11.3224325,12.4 10.4372198,12.0987493 9.71207695,11.5860641 C9.03341921,11.6872147 8.11702059,12.2801391 7.00931357,13.402264 C6.56369212,13.8536857 6.36282323,14.4549924 6.40564237,15.0415445 L6.3778738,15.034927 C5.93452577,14.9480306 5.45639333,15.0093491 5.02094287,15.2556971 C4.91316317,14.2459867 5.24370907,13.1980238 6.01298397,12.418736 C6.94729108,11.472268 7.80766769,10.8169211 8.61001498,10.4666194 C8.16556228,9.82356279 7.88761031,9.05662936 7.83646444,8.22829854 L7.82789877,7.95 L7.82789877,6.45 C7.82789877,4.15235829 9.57433448,2.2481579 11.8460266,2.02171222 L12.0604993,2.00543743 L12.2778988,2 Z M12.2778988,3.4 L12.1153596,3.40424198 C10.5609545,3.48560547 9.32268278,4.72890769 9.2330912,6.27081194 L9.22789877,6.45 L9.22789877,7.95 C9.22789877,8.90156393 9.66392924,9.75151409 10.3437457,10.3109443 C10.3459881,10.3109219 10.3475707,10.3121345 10.3491479,10.3133538 L10.3670038,10.3298937 C10.8290795,10.7026171 11.4009871,10.9422955 12.0238022,10.9910276 L12.2596291,11.0002385 L12.440438,10.995758 C13.9948431,10.9143945 15.2331148,9.67109231 15.3227063,8.12918806 L15.3278988,7.95 L15.3278988,6.45 C15.3278988,4.76584932 13.9620494,3.4 12.2778988,3.4 Z"></path>
        </g>
    </g>
</svg>
