<?xml version="1.0" encoding="UTF-8"?>
<svg width="24px" height="24px" viewBox="0 0 24 24" version="1.1" xmlns="http://www.w3.org/2000/svg" xmlns:xlink="http://www.w3.org/1999/xlink">
    <title>voucher</title>
    <g stroke="none" stroke-width="1" fill="none" fill-rule="evenodd">
        <g fill="#414851" fill-rule="nonzero">
            <path d="M21.1666667,4.58333333 C21.5808802,4.58333333 21.9166667,4.91911977 21.9166667,5.33333333 L21.9166667,5.33333333 L21.9166667,9.5 C21.9166667,9.91421356 21.5808802,10.25 21.1666667,10.25 C20.1642136,10.25 19.4166667,10.9975469 19.4166667,12 C19.4166667,13.0024531 20.1642136,13.75 21.1666667,13.75 C21.5808802,13.75 21.9166667,14.0857864 21.9166667,14.5 L21.9166667,14.5 L21.9166667,18.6666667 C21.9166667,19.0808802 21.5808802,19.4166667 21.1666667,19.4166667 L21.1666667,19.4166667 L2.83333333,19.4166667 C2.41911977,19.4166667 2.08333333,19.0808802 2.08333333,18.6666667 L2.08333333,18.6666667 L2.08333333,14.5 C2.08333333,14.0857864 2.41911977,13.75 2.83333333,13.75 C3.83578644,13.75 4.58333333,13.0024531 4.58333333,12 C4.58333333,10.9975469 3.83578644,10.25 2.83333333,10.25 C2.41911977,10.25 2.08333333,9.91421356 2.08333333,9.5 L2.08333333,9.5 L2.08333333,5.33333333 C2.08333333,4.91911977 2.41911977,4.58333333 2.83333333,4.58333333 L2.83333333,4.58333333 Z M20.4163333,6.08333333 L3.58333333,6.08333333 L3.58333333,8.83333333 L3.73845676,8.87139348 C5.0541746,9.23575025 6.00164107,10.3835033 6.07831238,11.8121087 L6.07831238,11.8121087 L6.08333333,12 C6.08333333,13.5152112 5.11137972,14.7484082 3.73845676,15.1286065 L3.73845676,15.1286065 L3.58333333,15.1663333 L3.58333333,17.9163333 L20.4163333,17.9163333 L20.4163333,15.1673333 L20.2615432,15.1286065 C18.9458254,14.7642497 17.9983589,13.6164967 17.9216876,12.1878913 L17.9216876,12.1878913 L17.9166667,12 C17.9166667,10.4847888 18.8886203,9.25159185 20.2615432,8.87139348 L20.2615432,8.87139348 L20.4163333,8.83233333 L20.4163333,6.08333333 Z M14.0833333,13.6666667 C14.7736893,13.6666667 15.3333333,14.2263107 15.3333333,14.9166667 C15.3333333,15.6070226 14.7736893,16.1666667 14.0833333,16.1666667 C13.3929774,16.1666667 12.8333333,15.6070226 12.8333333,14.9166667 C12.8333333,14.2263107 13.3929774,13.6666667 14.0833333,13.6666667 Z M15.0303301,8.96966991 C15.2965966,9.23593648 15.3208027,9.65260016 15.1029482,9.94621165 L15.0303301,10.0303301 L10.0303301,15.0303301 C9.73743687,15.3232233 9.26256313,15.3232233 8.96966991,15.0303301 C8.70340335,14.7640635 8.6791973,14.3473998 8.89705176,14.0537883 L8.96966991,13.9696699 L13.9696699,8.96966991 C14.2625631,8.6767767 14.7374369,8.6767767 15.0303301,8.96966991 Z M9.91666667,7.83333333 C10.6070226,7.83333333 11.1666667,8.3929774 11.1666667,9.08333333 C11.1666667,9.77368927 10.6070226,10.3333333 9.91666667,10.3333333 C9.22631073,10.3333333 8.66666667,9.77368927 8.66666667,9.08333333 C8.66666667,8.3929774 9.22631073,7.83333333 9.91666667,7.83333333 Z"></path>
        </g>
    </g>
</svg>
