<?xml version="1.0" encoding="UTF-8"?>
<svg width="24px" height="24px" viewBox="0 0 24 24" version="1.1" xmlns="http://www.w3.org/2000/svg" xmlns:xlink="http://www.w3.org/1999/xlink">
    <title>warehouse</title>
    <g stroke="none" stroke-width="1" fill="none" fill-rule="evenodd">
        <g fill="#414851" fill-rule="nonzero">
            <path d="M15.3333333,7.91666667 C15.7475469,7.91666667 16.0833333,8.2524531 16.0833333,8.66666667 L16.0833333,8.66666667 L16.0831498,13.7496667 L18.6666667,13.75 C19.0463624,13.75 19.3601576,14.0321539 19.4098201,14.3982294 L19.4166667,14.5 L19.4166667,20.3333333 C19.4166667,20.7475469 19.0808802,21.0833333 18.6666667,21.0833333 L18.6666667,21.0833333 L5.33333333,21.0833333 C4.91911977,21.0833333 4.58333333,20.7475469 4.58333333,20.3333333 L4.58333333,20.3333333 L4.58333333,14.5 C4.58333333,14.0857864 4.91911977,13.75 5.33333333,13.75 L5.33333333,13.75 L7.91614979,13.7496667 L7.91666667,8.66666667 C7.91666667,8.2869709 8.19882055,7.97317571 8.56489611,7.92351328 L8.66666667,7.91666667 Z M9.41666667,16.1666667 C9.41666667,16.5808802 9.08088023,16.9166667 8.66666667,16.9166667 C8.2869709,16.9166667 7.97317571,16.6345128 7.92351328,16.2684372 L7.91666667,16.1666667 L7.91614979,15.2486667 L6.08333333,15.2496667 L6.08333333,19.5826667 L11.2493333,19.5826667 L11.2491498,15.2496667 L9.41614979,15.2496667 L9.41666667,16.1666667 Z M17.9163333,15.2496667 L16.0831498,15.2486667 L16.0833333,16.1666667 C16.0833333,16.5808802 15.7475469,16.9166667 15.3333333,16.9166667 C14.9536376,16.9166667 14.6398424,16.6345128 14.5901799,16.2684372 L14.5833333,16.1666667 L14.5831498,15.2496667 L12.7491498,15.2496667 L12.7493333,19.5826667 L17.9163333,19.5826667 L17.9163333,15.2496667 Z M11.2491498,9.41566667 L9.41633333,9.41666667 L9.41633333,13.7496667 L14.5833333,13.7496667 L14.5833333,9.41666667 L12.7491498,9.41566667 L12.75,10.3333333 C12.75,10.7475469 12.4142136,11.0833333 12,11.0833333 C11.6203042,11.0833333 11.306509,10.8011795 11.2568466,10.4351039 L11.25,10.3333333 L11.2491498,9.41566667 Z M12.2095981,2.94654451 L12.3103522,2.98389181 L21.4770189,7.15055848 C21.854105,7.32196127 22.0208443,7.7665994 21.8494415,8.14368554 C21.6923223,8.48934784 21.3056095,8.65826036 20.9517961,8.55198822 L20.8563145,8.51610819 L11.9993333,4.48966667 L3.14368554,8.51610819 C2.79802325,8.67322742 2.39559851,8.54621336 2.19890436,8.2335009 L2.15055848,8.14368554 C1.99343925,7.79802325 2.12045331,7.39559851 2.43316577,7.19890436 L2.52298113,7.15055848 L11.6896478,2.98389181 C11.8539759,2.90919721 12.0385285,2.89674811 12.2095981,2.94654451 Z"></path>
        </g>
    </g>
</svg>
