<?xml version="1.0" encoding="UTF-8"?>
<svg width="24px" height="24px" viewBox="0 0 24 24" version="1.1" xmlns="http://www.w3.org/2000/svg" xmlns:xlink="http://www.w3.org/1999/xlink">
    <title>warning-fill</title>
    <g stroke="none" stroke-width="1" fill="none" fill-rule="evenodd">
        <g transform="translate(3.000000, 3.000000)">
            <rect x="0" y="0" width="18" height="18"></rect>
            <g transform="translate(0.000000, 0.750000)" fill="#414851" fill-rule="nonzero">
                <path d="M9.64875,0.375 C9.50405011,0.158220708 9.26063637,0.0280397643 9,0.0280397643 C8.73936363,0.0280397643 8.49594989,0.158220708 8.35125,0.375 L0.10125,14.625 C-0.0326561112,14.8569319 -0.0327294679,15.1426666 0.101057538,15.3746672 C0.234844544,15.6066678 0.4821882,15.7497255 0.75,15.75 L17.25,15.75 C17.5178118,15.7497255 17.7651555,15.6066678 17.8989425,15.3746672 C18.0327295,15.1426666 18.0326561,14.8569319 17.89875,14.625 L9.64875,0.375 Z M9.8405671,6.14208701 L9.58904796,9.65165637 C9.56690413,9.96064 9.3097761,10.2 9,10.2 C8.69056347,10.2 8.43404759,9.96023335 8.41318476,9.65150093 L8.17605054,6.14233989 C8.144922,5.68169329 8.49311518,5.28303077 8.95376179,5.25190222 C8.97252278,5.25063444 8.99132122,5.25 9.010125,5.25 C9.46994181,5.25 9.84269699,5.62275518 9.84269699,6.08257199 C9.84269699,6.10242938 9.84198657,6.12228041 9.8405671,6.14208701 Z M9,13.5 C8.3923487,13.5 7.89975,13.0074013 7.89975,12.39975 C7.89975,11.7920987 8.3923487,11.2995 9,11.2995 C9.6076513,11.2995 10.10025,11.7920987 10.10025,12.39975 C10.10025,13.0074013 9.6076513,13.5 9,13.5 Z"></path>
            </g>
        </g>
    </g>
</svg>
