<?xml version="1.0" encoding="UTF-8"?>
<svg width="24px" height="24px" viewBox="0 0 24 24" version="1.1" xmlns="http://www.w3.org/2000/svg" xmlns:xlink="http://www.w3.org/1999/xlink">
    <title>warning</title>
    <g stroke="none" stroke-width="1" fill="none" fill-rule="evenodd">
        <g fill="#414851" fill-rule="nonzero">
            <path d="M12,3.975 C12.4166104,3.975 12.8072848,4.16494176 13.0830677,4.51239065 L13.1706181,4.63399606 L20.5966478,17.6864996 C20.8343286,18.1054189 20.8344585,18.6199815 20.5969905,19.0390223 C20.379115,19.4234899 19.990626,19.6754309 19.556963,19.7184412 L19.4256343,19.725 L4.57366155,19.725 C4.08877793,19.7244938 3.64267254,19.4619366 3.40300948,19.0390223 C3.18928834,18.6618855 3.16802138,18.2073762 3.33946276,17.8143462 L3.40374758,17.6858037 L10.8516665,4.59755973 C11.1062189,4.209496 11.5370995,3.975 12,3.975 Z M11.9933851,5.31982595 L4.57752941,18.3526886 L4.575,18.3630582 L4.57769294,18.3749936 L19.4224744,18.3734309 L19.4250494,18.3631452 L19.422866,18.3533846 L12.0195162,5.33801336 L12.0098914,5.32811681 L12,5.325 C11.99581,5.325 11.9911681,5.32676609 11.9933851,5.31982595 Z M12,14.9737144 C12.5469329,14.9737144 12.9903096,15.4248936 12.9903096,15.9814513 C12.9903096,16.5380091 12.5469329,16.9891883 12,16.9891883 C11.4530671,16.9891883 11.0096904,16.5380091 11.0096904,15.9814513 C11.0096904,15.4248936 11.4530671,14.9737144 12,14.9737144 Z M12.0091133,9.43287861 C12.4234957,9.43287861 12.7594191,9.76880196 12.7594191,10.1831844 L12.7575652,10.2358959 L12.7575652,10.2358959 L12.5295798,13.4730697 C12.5099981,13.7511109 12.2787298,13.9666644 12,13.9666644 C11.7215709,13.9666644 11.4908446,13.7507518 11.4723955,13.4729346 L11.2574477,10.2361157 C11.2298799,9.82098229 11.5440639,9.462102 11.9591973,9.43453418 L12.0091133,9.43287861 L12.0091133,9.43287861 Z"></path>
        </g>
    </g>
</svg>
