<?xml version="1.0" encoding="UTF-8"?>
<svg width="24" height="24" viewBox="0 0 24 24" fill="none" xmlns="http://www.w3.org/2000/svg">
    <title>warning-circle-fill</title>
    <path fill-rule="evenodd" clip-rule="evenodd" d="M20 12C20 7.58172 16.4183 4 12 4C7.58172 4 4 7.58172 4 12C4 16.4183 7.58172 20 12 20C16.4183 20 20 16.4183 20 12ZM12.0098 7.99631C12.4487 7.99631 12.8045 8.35212 12.8045 8.79104L12.8025 8.84687L12.561 12.2757C12.5403 12.5702 12.2953 12.7985 12.0001 12.7985C11.7052 12.7985 11.4608 12.5698 11.4413 12.2756L11.2136 8.8471C11.1844 8.40739 11.5172 8.02726 11.9569 7.99806L12.0098 7.99631ZM12.0001 13.8652C12.5794 13.8652 13.0491 14.3431 13.0491 14.9326C13.0491 15.5221 12.5794 16 12.0001 16C11.4208 16 10.9512 15.5221 10.9512 14.9326C10.9512 14.3431 11.4208 13.8652 12.0001 13.8652Z" fill="#2B2B2B"/>
</svg>
