<?xml version="1.0" encoding="UTF-8"?>
<svg width="24px" height="24px" viewBox="0 0 24 24" version="1.1" xmlns="http://www.w3.org/2000/svg" xmlns:xlink="http://www.w3.org/1999/xlink">
    <title>webhook</title>
    <g stroke="none" stroke-width="1" fill="none" fill-rule="evenodd">
        <g fill="#414851" fill-rule="nonzero">
            <path d="M11.9969512,5.7875 C13.1413734,5.7875 14.0844512,6.73057782 14.0844512,7.875 C14.0844512,8.28551516 13.9600857,8.68073066 13.7330159,9.01923082 L13.6294754,9.1607092 L13.5220676,9.2582507 L15.0599128,11.7619521 L15.2216587,11.696563 C15.973764,11.3913526 16.3278682,11.2875 16.8094512,11.2875 C19.4738933,11.2875 21.6469512,13.4605579 21.6469512,16.125 C21.6469512,18.7894421 19.4738933,20.9625 16.8094512,20.9625 C15.5954889,20.9625 14.4430053,20.5036152 13.5585658,19.7006816 C13.3693073,19.4900826 13.3866071,19.1659341 13.597206,18.9766756 C13.6011441,18.9731365 13.6051369,18.9696586 13.6091827,18.9662433 L13.8514949,18.7616918 C14.0775781,18.5708159 14.4080037,18.5696002 14.6354972,18.7587931 C14.6354972,18.7587931 14.6354972,18.7587931 14.6354972,18.7587931 C15.236032,19.2582225 15.9944278,19.5375 16.8094512,19.5375 C18.7023827,19.5375 20.2219512,18.0179315 20.2219512,16.125 C20.2219512,14.2320689 18.7023825,12.7125 16.8094512,12.7125 C16.346258,12.7125 15.9025175,12.7991998 15.4957589,12.9667766 L15.2955426,13.0572777 L15.0653769,13.1823931 C14.7423493,13.357987 14.3384007,13.2502606 14.1457072,12.9371324 L14.1457072,12.9371324 L14.1457072,12.9371324 L12.2797836,9.94076437 C12.1771619,9.9554244 12.089039,9.9625 11.9969512,9.9625 C10.852529,9.9625 9.90945122,9.01942218 9.90945122,7.875 C9.90945122,6.73057782 10.852529,5.7875 11.9969512,5.7875 Z M6.49695721,12.0537099 C6.55961023,12.4473564 6.33116066,12.8293171 5.95471892,12.9603688 C5.7346996,13.0369428 5.57585975,13.1035944 5.47819936,13.1603236 C3.83707242,14.1076408 3.27415558,16.1930666 4.2197748,17.8312519 C5.16709205,19.4723788 7.25251779,20.0352956 8.89069604,19.0896805 C9.83310773,18.5452779 10.4419613,17.5993664 10.5712173,16.5454689 L10.5906306,16.3333366 C10.6080789,15.8203504 11.0300344,15.4140918 11.5433133,15.4160939 L14.8523464,15.4290011 L14.8523464,15.4290011 C15.1505418,14.6040875 15.9303777,14.0375 16.8094512,14.0375 C17.9538734,14.0375 18.8969512,14.9805778 18.8969512,16.125 C18.8969512,17.2694222 17.9538734,18.2125 16.8094512,18.2125 C16.0421311,18.2125 15.3475831,17.7809899 14.9846016,17.1146375 L14.9119891,16.9683249 L14.8758575,16.8375 L11.8497926,16.816255 C11.6197157,18.3306839 10.844337,19.596334 9.60318916,20.3146263 C7.29534238,21.6453494 4.32585199,20.8494123 2.99483121,18.5437489 C1.66392922,16.238292 2.46033055,13.2662328 4.76567533,11.9353956 C5.1305303,11.7241641 5.28305087,11.6425721 5.68895721,11.5328884 C5.69018653,11.5325562 5.69161226,11.5321735 5.69323439,11.5317403 C6.03753201,11.4397693 6.3911835,11.6443448 6.48313076,11.9886488 C6.48885501,12.0100837 6.49346995,12.0317996 6.49695721,12.0537099 Z M11.9969512,3.0375 C14.6613933,3.0375 16.8344512,5.21055794 16.8344512,7.875 C16.8344512,8.18081574 16.8050957,8.48566195 16.7477201,8.78421606 C16.7355783,8.84739552 16.7221818,8.91029321 16.7075431,8.97285868 C16.6084195,9.25901437 16.2960889,9.41063383 16.0099332,9.31151024 C16.0037753,9.30937714 15.9976559,9.30713444 15.9915779,9.30478319 L15.6761667,9.1827676 C15.4284834,9.08694496 15.2862975,8.82617895 15.339913,8.56607443 C15.339913,8.56607443 15.339913,8.56607443 15.339913,8.56607443 C15.3861401,8.34181316 15.4094512,8.11158371 15.4094512,7.875 C15.4094512,5.98206894 13.8898825,4.4625 11.9969512,4.4625 C10.1040204,4.4625 8.58445122,5.98206918 8.58445122,7.875 C8.58445122,8.88523584 9.03035807,9.81637576 9.78444603,10.4586322 L9.95070318,10.5917605 C10.3466311,10.875182 10.4692473,11.4092447 10.2365952,11.8369827 L8.68493915,14.6897507 L8.68493915,14.6897507 C9.05779151,15.0795513 9.27195122,15.5892513 9.27195122,16.125 C9.27195122,17.2694222 8.3288734,18.2125 7.18445122,18.2125 C6.04002904,18.2125 5.09695122,17.2694222 5.09695122,16.125 C5.09695122,15.0303353 5.95980503,14.1198874 7.03726853,14.0428053 L7.18546472,14.0375206 L7.32793345,14.0433672 L7.44175343,14.0721002 L8.88671379,11.4387145 C7.79429413,10.4802987 7.15945122,9.23516471 7.15945122,7.875 C7.15945122,5.21055794 9.33250916,3.0375 11.9969512,3.0375 Z"></path>
        </g>
    </g>
</svg>
