<svg width="18" height="18" viewBox="0 0 18 18" fill="none" xmlns="http://www.w3.org/2000/svg">
<path d="M9 2.25C12.7279 2.25 15.75 5.27208 15.75 9C15.75 12.7279 12.7279 15.75 9 15.75C5.27208 15.75 2.25 12.7279 2.25 9C2.25 5.27208 5.27208 2.25 9 2.25ZM8.75684 3.37988C7.76595 3.42203 6.8414 3.72073 6.04785 4.21094L6.44141 4.53711L7.36719 5.52539C7.46472 5.62965 7.51788 5.76651 7.51855 5.90723L7.5127 5.99121L7.28613 7.5332C7.26323 7.6881 7.17661 7.82515 7.0498 7.91309L6.9834 7.95312L5.58496 8.65918L5.22363 8.96777L5.3291 9.14844L6.02148 9.88965C6.06202 9.93307 6.09519 9.98262 6.12012 10.0361L6.15137 10.1191L6.54883 11.5098C6.60214 11.6965 6.55425 11.8957 6.42773 12.0381L6.36914 12.0957L5.40723 12.9014L5.32422 13.2559C6.31021 14.1082 7.59437 14.625 9 14.625C12.1066 14.625 14.625 12.1066 14.625 9C14.625 7.75744 14.2213 6.60956 13.5391 5.67871L13.127 5.91309C13.0837 5.93763 13.0372 5.95641 12.9893 5.96875L12.916 5.98242L11.2285 6.18359C11.1085 6.19787 10.9875 6.17316 10.8838 6.11426L10.8086 6.06348L9.52441 5.0293C9.46239 4.97938 9.41188 4.91706 9.37598 4.84668L9.34473 4.77344L9.01465 3.80957L8.75684 3.37988ZM10.79 7.43457C10.892 7.39876 11.0023 7.3938 11.1074 7.41895L12.4336 7.73535C12.5919 7.77322 12.7264 7.87815 12.8018 8.02246L13.4404 9.24805C13.5194 9.39963 13.5251 9.57903 13.4561 9.73535L12.3965 12.126C12.3657 12.1954 12.3212 12.2578 12.2656 12.3096L11.2744 13.2324C11.1794 13.3209 11.0563 13.3745 10.9268 13.3828L9.61133 13.4668C9.43124 13.4783 9.2565 13.4028 9.1416 13.2637L8.35742 12.3125C8.24799 12.1798 8.20494 12.0041 8.24121 11.8359L8.48047 10.7266L8.27539 9.63281C8.25021 9.49893 8.27403 9.36122 8.3418 9.24512L8.3877 9.17773L9.28418 8.05469C9.34996 7.97223 9.43762 7.91003 9.53711 7.875L10.79 7.43457ZM10.0625 8.88184L9.42773 9.67773L9.60742 10.6299C9.61665 10.679 9.61919 10.7297 9.61523 10.7793L9.60449 10.8525L9.39844 11.8066L9.82617 12.3252L10.6543 12.2725L11.415 11.5645L12.3174 9.52734L11.9219 8.76953L11.0059 8.55078L10.0625 8.88184ZM5.13574 4.91406C4.05197 5.93939 3.375 7.3903 3.375 9C3.375 10.2254 3.76833 11.3583 4.43359 12.2822C4.45028 12.2568 4.4686 12.2324 4.48926 12.21L4.54199 12.1602L5.36621 11.4678L5.10645 10.5576L4.46387 9.87012L4.38965 9.77051L4.01465 9.12988C3.89086 8.91833 3.91922 8.65425 4.07715 8.47461L4.13477 8.41797L4.90527 7.76074L5.0166 7.68652L6.21484 7.08008L6.36035 6.0957L5.67383 5.35645L5.13574 4.91406ZM10.3564 4.25488L11.3301 5.03809L12.6699 4.87891L12.7676 4.82324C12.0274 4.15516 11.1088 3.6815 10.0918 3.48145L10.3564 4.25488Z" fill="currentColor"/>
</svg>
