<?xml version="1.0" encoding="UTF-8"?>
<svg width="24px" height="24px" viewBox="0 0 24 24" version="1.1" xmlns="http://www.w3.org/2000/svg" xmlns:xlink="http://www.w3.org/1999/xlink">
    <title>world</title>
    <g stroke="none" stroke-width="1" fill="none" fill-rule="evenodd">
        <g transform="translate(2.000000, 2.000000)">
            <rect x="1" y="1" width="18" height="18"></rect>
            <g stroke-linecap="square" transform="translate(0.750000, 0.750000)" fill="#414851" fill-rule="nonzero">
                <path d="M4.5587385,2.23935644 L5.83884727,3.29975156 L7.07259727,4.61675156 C7.20286677,4.75581128 7.27434284,4.93806324 7.2752478,5.12585936 L7.26722803,5.23890114 L6.96422803,7.29390114 C6.93375888,7.50054831 6.81885972,7.68346401 6.64970919,7.80077226 L6.56075269,7.85376522 L4.696,8.796 L4.215,9.207 L4.356,9.448 L5.27872634,10.4361916 C5.33277182,10.4940827 5.37713402,10.5599806 5.41036645,10.6313271 L5.45168696,10.7421132 L5.98118696,12.5968632 C6.05226459,12.8458363 5.98943613,13.1110136 5.82075527,13.3008342 L5.7420645,13.3773053 L4.46,14.452 L4.24861924,15.3555398 L2.78838076,15.0124602 L3.05763076,13.8664602 C3.08725073,13.7403897 3.1488665,13.624693 3.23582184,13.5301844 L3.3056855,13.4634447 L4.405,12.54 L4.059,11.327 L3.20202366,10.4098084 L3.10320086,10.2772458 L2.60295086,9.42374585 C2.43752301,9.14150162 2.4756857,8.78905935 2.68656452,8.54939957 L2.763212,8.47394112 L3.789962,7.59794112 L3.93824731,7.49923478 L5.537,6.69 L5.73,5.377 L4.8152615,4.39189356 L3.6062615,3.39814356 L4.5587385,2.23935644 Z"></path>
                <path d="M9.98782267,0.613217934 L10.5968227,1.62496793 L10.6639014,1.76906723 L11.058,2.923 L12.357,3.968 L14.143,3.755 L15.1198952,3.20142921 L15.8601048,4.50607079 L14.7523548,5.13457079 C14.6945229,5.16738268 14.6327152,5.19228492 14.568591,5.20873268 L14.4708747,5.22699537 L12.2208747,5.49474537 C12.0606572,5.51381125 11.8996982,5.48061181 11.7612746,5.40183003 L11.662046,5.33430143 L9.94904596,3.95580143 C9.86615809,3.88909919 9.79873278,3.80579214 9.75083571,3.71168076 L9.70959862,3.61418277 L9.27,2.33 L8.70267733,1.38678207 L9.98782267,0.613217934 Z"></path>
                <path d="M11.6370155,7.16310925 L9.96676546,7.74960925 C9.83385875,7.79627878 9.71678151,7.87943393 9.62894017,7.98955268 L8.43419017,9.48730268 L8.37298225,9.57654479 C8.28244183,9.73144486 8.24981905,9.91493422 8.28341995,10.0936109 L8.557,11.552 L8.23860649,13.0316343 C8.19023678,13.2559126 8.2471851,13.4899934 8.39317803,13.6669863 L9.43867803,14.9344863 C9.59188948,15.1202304 9.82496324,15.221122 10.0652489,15.2057125 L11.8194989,15.0932125 C11.9922247,15.0821356 12.1558033,15.0116592 12.2824949,14.8937347 L13.6047449,13.6629847 C13.6788857,13.5939745 13.7382799,13.5106616 13.779345,13.4180714 L15.1911469,10.23064 C15.2833968,10.0220835 15.2757462,9.78288426 15.1703574,9.58064906 L14.3191074,7.94714906 C14.2187186,7.75450875 14.0397372,7.61485753 13.8284681,7.56432496 L12.0599681,7.14132496 C11.9198187,7.10780323 11.7729793,7.11536623 11.6370155,7.16310925 Z M11.925,8.651 L13.146,8.943 L13.673,9.953 L12.47,12.669 L11.456,13.613 L10.351,13.684 L9.781,12.992 L10.0558935,11.7203657 L10.0703781,11.621851 C10.0756476,11.5557506 10.0721393,11.489095 10.0598301,11.4236391 L9.82,10.153 L10.667,9.093 L11.925,8.651 Z"></path>
                <path d="M9.25,0.25 C4.27943725,0.25 0.25,4.27943725 0.25,9.25 C0.25,14.2205627 4.27943725,18.25 9.25,18.25 C14.2205627,18.25 18.25,14.2205627 18.25,9.25 C18.25,4.27943725 14.2205627,0.25 9.25,0.25 Z M9.25,1.75 C13.3921356,1.75 16.75,5.10786438 16.75,9.25 C16.75,13.3921356 13.3921356,16.75 9.25,16.75 C5.10786438,16.75 1.75,13.3921356 1.75,9.25 C1.75,5.10786438 5.10786438,1.75 9.25,1.75 Z"></path>
            </g>
        </g>
    </g>
</svg>
