<?xml version="1.0" encoding="UTF-8"?>
<svg width="24" height="24" viewBox="0 0 24 24" fill="none" xmlns="http://www.w3.org/2000/svg">
    <title>zeos</title>
    <path fill-rule="nonzero" fill="currentColor" d="M 23.222656 3.519531 C 23.222656 4.976562 23.222656 6.433594 23.222656 7.894531 C 23.222656 8.011719 23.15625 8.132812 23.015625 8.242188 C 21.171875 9.6875 19.328125 11.136719 17.484375 12.585938 C 18.421875 12.828125 19.363281 13.074219 20.300781 13.320312 C 20.773438 13.445312 21.078125 13.695312 21.078125 13.925781 C 21.078125 15.378906 21.078125 16.832031 21.078125 18.285156 C 21.078125 18.402344 21.011719 18.523438 20.871094 18.632812 C 18.738281 20.304688 16.605469 21.980469 14.476562 23.65625 C 14.058594 23.980469 13.148438 24.097656 12.441406 23.914062 C 8.8125 22.964844 5.183594 22.019531 1.554688 21.070312 C 1.085938 20.949219 0.78125 20.707031 0.78125 20.472656 C 0.78125 19.019531 0.78125 17.566406 0.78125 16.113281 C 0.78125 15.988281 0.84375 15.871094 0.984375 15.761719 C 2.828125 14.3125 4.671875 12.863281 6.515625 11.417969 C 5.574219 11.171875 4.636719 10.925781 3.695312 10.679688 C 3.226562 10.558594 2.921875 10.320312 2.921875 10.089844 C 2.921875 8.632812 2.921875 7.175781 2.921875 5.71875 C 2.921875 5.597656 2.988281 5.480469 3.128906 5.367188 C 5.257812 3.691406 7.390625 2.019531 9.523438 0.34375 C 9.941406 0.0195312 10.847656 -0.0976562 11.558594 0.0898438 C 15.1875 1.035156 18.816406 1.980469 22.445312 2.929688 C 22.917969 3.050781 23.21875 3.28125 23.222656 3.519531 Z"/>
</svg>